<svg width="95" height="33" viewBox="0 0 95 33" fill="none" xmlns="http://www.w3.org/2000/svg">
<path d="M17 15.9733C17 14.7524 17.2157 13.5598 17.6472 12.3953C18.0975 11.212 18.7447 10.1414 19.589 9.18355C20.4332 8.20689 21.465 7.43683 22.6845 6.87336C23.9039 6.29112 25.2922 6 26.8493 6C28.6879 6 30.2732 6.40381 31.6052 7.21144C32.9559 8.01907 33.9596 9.07086 34.6163 10.3668L31.6333 12.4235C31.2956 11.6722 30.8548 11.0805 30.3107 10.6486C29.7666 10.1978 29.1851 9.88788 28.566 9.71884C27.9468 9.53102 27.3371 9.43711 26.7368 9.43711C25.7612 9.43711 24.9076 9.63432 24.176 10.0287C23.463 10.4232 22.8627 10.9397 22.3749 11.5783C21.8872 12.2169 21.5213 12.9306 21.2774 13.7194C21.0523 14.5083 20.9397 15.2971 20.9397 16.0859C20.9397 16.9687 21.0804 17.8233 21.3619 18.6497C21.6433 19.4573 22.0372 20.1804 22.5438 20.819C23.0691 21.4388 23.6882 21.9366 24.4011 22.3122C25.1327 22.6691 25.9301 22.8475 26.7931 22.8475C27.4122 22.8475 28.0407 22.7442 28.6785 22.5376C29.3164 22.331 29.9073 22.0023 30.4514 21.5515C30.9955 21.1008 31.4176 20.5185 31.7177 19.8048L34.8977 21.636C34.5037 22.6315 33.8565 23.4767 32.9559 24.1716C32.0742 24.8665 31.0799 25.3924 29.973 25.7493C28.8661 26.1062 27.7686 26.2846 26.6805 26.2846C25.2547 26.2846 23.9508 25.9935 22.7689 25.4112C21.587 24.8102 20.5645 24.0214 19.7015 23.0447C18.8573 22.0492 18.1913 20.9411 17.7035 19.7203C17.2345 18.4807 17 17.2317 17 15.9733Z" fill="white"/>
<path d="M36.1231 21.7487C36.1231 20.7908 36.3858 19.955 36.9111 19.2413C37.4551 18.5088 38.2056 17.9454 39.1624 17.5509C40.1192 17.1565 41.2166 16.9593 42.4549 16.9593C43.074 16.9593 43.7024 17.0063 44.3403 17.1002C44.9782 17.1941 45.5316 17.3443 46.0006 17.5509V16.7621C46.0006 15.823 45.7192 15.0999 45.1564 14.5928C44.6123 14.0857 43.7962 13.8321 42.7081 13.8321C41.9014 13.8321 41.1322 13.973 40.4006 14.2547C39.6689 14.5364 38.8997 14.9496 38.093 15.4943L36.8829 13.0151C37.8585 12.3765 38.8528 11.8976 39.8659 11.5783C40.8977 11.259 41.9765 11.0993 43.1021 11.0993C45.2033 11.0993 46.8355 11.6252 47.9986 12.677C49.1806 13.7288 49.7715 15.2314 49.7715 17.1847V21.8896C49.7715 22.284 49.8372 22.5657 49.9685 22.7348C50.1186 22.9038 50.3531 23.0071 50.672 23.0447V26.1156C50.3343 26.1719 50.0248 26.2189 49.7434 26.2564C49.4807 26.294 49.2556 26.3128 49.068 26.3128C48.3176 26.3128 47.7454 26.1437 47.3514 25.8057C46.9762 25.4676 46.7417 25.0544 46.6479 24.566L46.5634 23.8054C45.9256 24.6318 45.1283 25.2704 44.1715 25.7211C43.2147 26.1719 42.2391 26.3973 41.2448 26.3973C40.2692 26.3973 39.3875 26.2001 38.5995 25.8057C37.8303 25.3924 37.2206 24.8384 36.7704 24.1434C36.3389 23.4297 36.1231 22.6315 36.1231 21.7487ZM45.2971 22.5094C45.5035 22.284 45.6723 22.0586 45.8036 21.8333C45.935 21.6079 46.0006 21.4013 46.0006 21.2134V19.7203C45.5504 19.5325 45.0626 19.3916 44.5373 19.2977C44.012 19.185 43.5148 19.1286 43.0458 19.1286C42.0703 19.1286 41.2636 19.3446 40.6257 19.7766C40.0066 20.1898 39.697 20.7439 39.697 21.4388C39.697 21.8145 39.8002 22.1713 40.0066 22.5094C40.213 22.8475 40.5131 23.1198 40.9071 23.3264C41.3011 23.533 41.7701 23.6363 42.3141 23.6363C42.877 23.6363 43.4304 23.533 43.9745 23.3264C44.5185 23.101 44.9594 22.8287 45.2971 22.5094Z" fill="white"/>
<path d="M76.2021 26.1156H72.4312V17.8327C72.4312 16.6682 72.2248 15.8136 71.8121 15.2689C71.4181 14.7055 70.8647 14.4237 70.1517 14.4237C69.4201 14.4237 68.7166 14.7149 68.0412 15.2971C67.3846 15.8606 66.9155 16.6025 66.6341 17.5228V26.1156H62.8632V17.8327C62.8632 16.6494 62.6569 15.7854 62.2441 15.2408C61.8502 14.6961 61.2967 14.4237 60.5838 14.4237C59.8521 14.4237 59.1486 14.7055 58.4732 15.2689C57.8166 15.8324 57.3476 16.5743 57.0662 17.4946V26.1156H53.2953V11.3529H56.7004V14.0857C57.2632 13.1278 58.0136 12.3953 58.9516 11.8882C59.8897 11.3623 60.9684 11.0993 62.1879 11.0993C63.4073 11.0993 64.3547 11.3998 65.0301 12.0009C65.7242 12.6019 66.1651 13.3438 66.3527 14.2265C66.9531 13.2123 67.7129 12.4422 68.6321 11.9163C69.5702 11.3717 70.6208 11.0993 71.7839 11.0993C72.7032 11.0993 73.4443 11.2684 74.0071 11.6064C74.5887 11.9257 75.0389 12.3671 75.3578 12.9306C75.6768 13.4752 75.8925 14.0951 76.0051 14.79C76.1364 15.4849 76.2021 16.1893 76.2021 16.903V26.1156Z" fill="white"/>
<path d="M88.3214 26.3973C87.177 26.3973 86.1639 26.1437 85.2822 25.6366C84.4192 25.1107 83.7438 24.4064 83.256 23.5236V32.1164H79.4851V11.3529H82.7776V13.8885C83.3404 13.0245 84.0533 12.3483 84.9163 11.86C85.7793 11.3529 86.7642 11.0993 87.8711 11.0993C88.8654 11.0993 89.7753 11.2965 90.6008 11.691C91.445 12.0854 92.1767 12.6394 92.7958 13.3532C93.4149 14.0481 93.8933 14.8557 94.231 15.776C94.5874 16.6776 94.7657 17.6543 94.7657 18.706C94.7657 20.1335 94.4843 21.4294 93.9214 22.5939C93.3774 23.7584 92.6176 24.6881 91.642 25.3831C90.6852 26.0592 89.5784 26.3973 88.3214 26.3973ZM87.055 23.1856C87.6366 23.1856 88.1619 23.0635 88.6309 22.8193C89.1 22.5751 89.5033 22.2465 89.841 21.8333C90.1974 21.4013 90.4601 20.9223 90.6289 20.3964C90.8166 19.8517 90.9104 19.2883 90.9104 18.706C90.9104 18.0862 90.8072 17.5134 90.6008 16.9875C90.4132 16.4616 90.1318 16.0014 89.7566 15.607C89.3814 15.1938 88.9405 14.8745 88.4339 14.6491C87.9462 14.4237 87.4115 14.311 86.8299 14.311C86.4735 14.311 86.1076 14.3768 85.7324 14.5083C85.376 14.621 85.0289 14.79 84.6912 15.0154C84.3535 15.2408 84.0533 15.5037 83.7907 15.8042C83.5468 16.1047 83.3686 16.4334 83.256 16.7903V20.2556C83.4811 20.8002 83.7813 21.298 84.1565 21.7487C84.5505 22.1995 85.0007 22.5564 85.5073 22.8193C86.0138 23.0635 86.5297 23.1856 87.055 23.1856Z" fill="white"/>
<rect y="32" width="31.8526" height="14" rx="7" transform="rotate(-90 0 32)" fill="#F66F5D"/>
<path d="M10.9433 23.6142C10.9433 24.1797 10.8344 24.6946 10.6167 25.1586C10.3916 25.6154 10.094 26.0106 9.72378 26.3442C9.35355 26.6705 8.93615 26.9243 8.47156 27.1055C7.9997 27.2868 7.51696 27.3774 7.02333 27.3774C6.50793 27.3774 6.01793 27.2832 5.55333 27.0947C5.08148 26.8989 4.66407 26.6342 4.30111 26.3007C3.93089 25.9599 3.64052 25.5611 3.43 25.1043C3.21222 24.6402 3.10333 24.1326 3.10333 23.5815C3.10333 23.0232 3.21585 22.5156 3.44089 22.0588C3.66593 21.5948 3.96718 21.1996 4.34467 20.8733C4.72215 20.547 5.14318 20.2932 5.60778 20.1119C6.07237 19.9307 6.55148 19.84 7.04511 19.84C7.55326 19.84 8.04326 19.9343 8.51511 20.1228C8.9797 20.3113 9.39711 20.576 9.76733 20.9168C10.1303 21.2503 10.417 21.6491 10.6276 22.1132C10.8381 22.57 10.9433 23.0703 10.9433 23.6142ZM9.61489 23.6033C9.61489 23.2407 9.5423 22.9181 9.39711 22.6353C9.24467 22.3525 9.04504 22.1168 8.79822 21.9283C8.54415 21.7398 8.26467 21.5984 7.95978 21.5041C7.64763 21.4026 7.33548 21.3519 7.02333 21.3519C6.68941 21.3519 6.36637 21.4062 6.05422 21.515C5.74207 21.6165 5.46622 21.7652 5.22667 21.9609C4.98711 22.1495 4.79474 22.3851 4.64955 22.6679C4.50437 22.9435 4.43178 23.2552 4.43178 23.6033C4.43178 23.9731 4.508 24.2994 4.66044 24.5822C4.80563 24.8577 5.00526 25.0897 5.25933 25.2783C5.50615 25.4668 5.782 25.6118 6.08689 25.7133C6.39178 25.8076 6.70393 25.8547 7.02333 25.8547C7.35726 25.8547 7.6803 25.804 7.99244 25.7025C8.30459 25.6009 8.58044 25.4559 8.82 25.2674C9.05956 25.0716 9.25193 24.836 9.39711 24.5604C9.5423 24.2776 9.61489 23.9586 9.61489 23.6033ZM8.02511 23.7556V22.3416L10.8889 19.7965V21.2105L8.02511 23.7556Z" fill="white"/>
<path d="M3.15778 16.7063L3.15778 15.1836L10.8889 12.3448V13.8893L8.96156 14.6071V17.3045L10.8889 18.0115V19.556L3.15778 16.7063ZM7.90533 14.8791L4.71489 15.945L7.90533 17.0544V14.8791Z" fill="white"/>
<path d="M3.15778 10.693L6.01067 8.7787L3.15778 6.87531V5.24384L7.07778 7.91946L10.8889 5.33085L10.8889 6.96232L8.14489 8.7787L10.8889 10.606V12.2483L7.07778 9.6597L3.15778 12.3353V10.693Z" fill="white"/>
</svg>
