<svg width="231" height="595" viewBox="0 0 231 595" fill="none" xmlns="http://www.w3.org/2000/svg">
<circle cx="70" cy="13" r="60" fill="#0E538D" fill-opacity="0.7"/>
<circle cx="35" cy="73" r="35" fill="#F66F5D" fill-opacity="0.7"/>
<path fill-rule="evenodd" clip-rule="evenodd" d="M90.0347 63.517C90.0564 62.759 90.0881 62.0035 90.1296 61.2505L170.251 -18.8704C171.003 -18.9119 171.759 -18.9436 172.517 -18.9653L90.0347 63.517ZM164.772 -18.3919C165.578 -18.4885 166.387 -18.5738 167.199 -18.6478L90.3522 58.1994C90.4262 57.3869 90.5115 56.5777 90.6081 55.772L164.772 -18.3919ZM123.077 133.303C123.486 133.619 123.898 133.931 124.312 134.239L243.239 15.3122C242.931 14.8976 242.619 14.4859 242.303 14.0771L123.077 133.303ZM127.233 136.319C126.803 136.026 126.376 135.729 125.951 135.429L244.429 16.9512C244.729 17.3757 245.026 17.803 245.319 18.2331L127.233 136.319ZM128.934 137.446C129.374 137.731 129.817 138.012 130.263 138.288L247.288 21.2635C247.012 20.8174 246.731 20.3742 246.446 19.9337L128.934 137.446ZM133.407 140.145C132.944 139.885 132.484 139.621 132.027 139.353L248.353 23.0274C248.621 23.4844 248.885 23.9441 249.145 24.4065L133.407 140.145ZM135.236 141.144C135.71 141.396 136.187 141.643 136.666 141.885L250.885 27.6663C250.643 27.1869 250.396 26.7101 250.144 26.2359L135.236 141.144ZM140.048 143.504C139.551 143.279 139.056 143.05 138.564 142.816L251.816 29.5639C252.05 30.056 252.279 30.5507 252.504 31.0479L140.048 143.504ZM142.017 144.363C142.528 144.578 143.041 144.789 143.557 144.994L253.994 34.5572C253.789 34.0413 253.578 33.5278 253.363 33.0169L142.017 144.363ZM147.202 146.35C146.666 146.165 146.133 145.974 145.602 145.778L254.778 36.6017C254.974 37.1326 255.165 37.666 255.35 38.2018L147.202 146.35ZM149.327 147.053C149.879 147.228 150.434 147.397 150.991 147.561L256.561 41.9905C256.397 41.4335 256.228 40.8788 256.053 40.3266L149.327 147.053ZM154.934 148.617C154.355 148.477 153.777 148.331 153.202 148.178L257.178 44.2017C257.331 44.7769 257.477 45.3545 257.617 45.9344L154.934 148.617ZM157.239 149.141C157.839 149.269 158.442 149.39 159.047 149.505L258.505 50.047C258.39 49.4421 258.269 48.8395 258.141 48.2392L157.239 149.141ZM163.345 150.207C162.712 150.12 162.082 150.026 161.454 149.926L258.926 52.4542C259.026 53.0822 259.12 53.7124 259.207 54.3449L163.345 150.207ZM165.866 150.514C166.525 150.585 167.186 150.647 167.849 150.703L259.703 58.849C259.647 58.1858 259.585 57.5247 259.514 56.8659L165.866 150.514ZM172.586 150.966C171.888 150.946 171.192 150.918 170.498 150.882L259.882 61.4981C259.918 62.1919 259.946 62.888 259.966 63.5861L172.586 150.966ZM175.382 150.998C176.121 150.995 176.857 150.982 177.591 150.96L259.96 68.5913C259.982 67.8571 259.995 67.1206 259.998 66.3818L175.382 150.998ZM259.82 71.5599L180.56 150.82C181.348 150.769 182.134 150.708 182.916 150.635L259.635 73.9164C259.708 73.1339 259.769 72.3484 259.82 71.5599ZM188.641 149.91C187.798 150.046 186.951 150.17 186.099 150.281L259.281 77.0992C259.17 77.9506 259.046 78.7981 258.91 79.6415L188.641 149.91ZM192.102 149.278C193.038 149.087 193.969 148.88 194.893 148.658L257.658 85.8934C257.88 84.9688 258.087 84.0383 258.278 83.1023L192.102 149.278ZM121.498 132.053C121.099 131.729 120.703 131.402 120.309 131.071L240.071 11.3092C240.402 11.7026 240.729 12.099 241.053 12.4984L121.498 132.053ZM198.741 147.639C199.801 147.331 200.853 147.003 201.896 146.656L255.656 92.896C256.003 91.8532 256.331 90.8014 256.639 89.7411L198.741 147.639ZM210.129 143.423C208.885 143.988 207.624 144.525 206.349 145.031L254.031 97.3491C253.525 98.6244 252.988 99.8845 252.423 101.129L210.129 143.423ZM215.79 140.59C217.629 139.582 219.427 138.508 221.18 137.372L246.372 112.18C247.508 110.427 248.582 108.629 249.59 106.79L215.79 140.59ZM238.762 9.7898C238.423 9.40538 238.08 9.02405 237.734 8.64587L117.646 128.734C118.024 129.08 118.405 129.423 118.79 129.762L238.762 9.7898ZM235.294 6.08628C235.655 6.44937 236.012 6.81571 236.366 7.18524L116.185 127.366C115.816 127.012 115.449 126.655 115.086 126.294L235.294 6.08628ZM233.868 4.68413C233.498 4.32946 233.126 3.97809 232.75 3.63007L112.63 123.75C112.978 124.126 113.329 124.498 113.684 124.868L233.868 4.68413ZM230.103 1.2775C230.493 1.61037 230.881 1.94672 231.265 2.28649L111.286 122.265C110.947 121.881 110.61 121.493 110.278 121.103L230.103 1.2775ZM228.559 -0.00713348C228.159 -0.331867 227.756 -0.653044 227.351 -0.970613L108.029 118.351C108.347 118.756 108.668 119.159 108.993 119.559L228.559 -0.00713348ZM224.493 -3.11283C224.914 -2.81081 225.332 -2.50504 225.747 -2.19556L106.804 116.747C106.495 116.332 106.189 115.914 105.887 115.493L224.493 -3.11283ZM222.829 -4.27701C222.398 -4.57091 221.964 -4.86095 221.527 -5.14709L103.853 112.527C104.139 112.964 104.429 113.398 104.723 113.829L222.829 -4.27701ZM218.451 -7.07061C218.903 -6.80082 219.353 -6.52693 219.801 -6.24901L102.751 110.801C102.473 110.353 102.199 109.903 101.929 109.451L218.451 -7.07061ZM216.66 -8.10838C216.196 -8.36979 215.729 -8.62698 215.26 -8.87987L100.12 106.26C100.373 106.729 100.63 107.196 100.892 107.66L216.66 -8.10838ZM98.4295 102.951C98.6648 103.437 98.9046 103.921 99.1489 104.403L213.403 -9.85111C212.921 -10.0954 212.437 -10.3352 211.951 -10.5705L98.4295 102.951ZM210.024 -11.4722C209.524 -11.6985 209.022 -11.9201 208.517 -12.1369L96.8631 99.5171C97.0799 100.022 97.3015 100.524 97.5278 101.024L210.024 -11.4722ZM204.953 -13.5727C205.477 -13.3754 205.998 -13.173 206.517 -12.9657L96.0343 97.5174C95.827 96.9984 95.6246 96.4769 95.4272 95.9529L204.953 -13.5727ZM202.876 -14.3241C202.336 -14.5113 201.794 -14.6933 201.25 -14.8698L94.1302 92.25C94.3067 92.7943 94.4887 93.3363 94.6759 93.8758L202.876 -14.3241ZM197.399 -16.0185C197.965 -15.8642 198.529 -15.7042 199.09 -15.5386L93.4614 90.0902C93.2958 89.5288 93.1358 88.9649 92.9815 88.3986L197.399 -16.0185ZM195.15 -16.5981C194.564 -16.7404 193.977 -16.8766 193.387 -17.0067L91.9933 84.3868C92.1234 84.9768 92.2596 85.5645 92.4019 86.1498L195.15 -16.5981ZM189.2 -17.8199C189.816 -17.7163 190.43 -17.606 191.041 -17.4893L91.5107 82.041C91.394 81.4296 91.2837 80.8159 91.1801 80.2L189.2 -17.8199ZM186.747 -18.1956C186.107 -18.2841 185.464 -18.3655 184.82 -18.4396L90.5604 75.8198C90.6345 76.4645 90.7159 77.107 90.8044 77.7473L186.747 -18.1956ZM180.223 -18.8429C180.9 -18.8019 181.575 -18.7529 182.248 -18.6961L90.3039 73.2478C90.2471 72.5751 90.1981 71.9001 90.1571 71.2231L180.223 -18.8429ZM177.516 -18.9643C176.806 -18.9849 176.094 -18.9969 175.38 -19L90 66.3801C90.0031 67.0942 90.0151 67.8062 90.0357 68.516L177.516 -18.9643ZM158.849 -17.4684C159.722 -17.6365 160.601 -17.7912 161.484 -17.9323L91.0677 52.484C91.2088 51.6009 91.3635 50.7223 91.5316 49.8485L158.849 -17.4684ZM155.245 -16.6935C154.264 -16.46 153.29 -16.2096 152.323 -15.9424L93.0576 43.3226C92.7904 44.2899 92.54 45.2643 92.3065 46.2452L155.245 -16.6935ZM144.897 -13.5166C146.008 -13.9373 147.13 -14.3355 148.262 -14.7105L94.2895 39.2622C94.6645 38.1296 95.0627 37.0076 95.4834 35.8967L144.897 -13.5166ZM140.065 -11.5131C138.637 -10.8687 137.231 -10.1861 135.847 -9.46648L99.5335 26.8466C98.8139 28.2308 98.1313 29.6373 97.4869 31.0648L140.065 -11.5131ZM103.432 20.1194C110.047 9.82281 118.823 1.04687 129.119 -5.56771L103.432 20.1194Z" fill="#F66F5D"/>
<path fill-rule="evenodd" clip-rule="evenodd" d="M16.0347 568.517C16.0564 567.759 16.0881 567.003 16.1296 566.251L96.2505 486.13C97.0034 486.088 97.759 486.056 98.517 486.035L16.0347 568.517ZM90.772 486.608C91.5777 486.512 92.3869 486.426 93.1994 486.352L16.3522 563.199C16.4262 562.387 16.5115 561.578 16.6081 560.772L90.772 486.608ZM49.0771 638.303C49.4859 638.619 49.8976 638.931 50.3122 639.239L169.239 520.312C168.931 519.898 168.619 519.486 168.303 519.077L49.0771 638.303ZM53.2331 641.319C52.803 641.026 52.3757 640.729 51.9512 640.429L170.429 521.951C170.729 522.376 171.026 522.803 171.319 523.233L53.2331 641.319ZM54.9337 642.446C55.3742 642.731 55.8174 643.012 56.2635 643.288L173.288 526.263C173.012 525.817 172.731 525.374 172.446 524.934L54.9337 642.446ZM59.4065 645.145C58.9441 644.885 58.4844 644.621 58.0274 644.353L174.353 528.027C174.621 528.484 174.885 528.944 175.145 529.407L59.4065 645.145ZM61.2359 646.144C61.7101 646.396 62.1869 646.643 62.6663 646.885L176.885 532.666C176.643 532.187 176.396 531.71 176.144 531.236L61.2359 646.144ZM66.0479 648.504C65.5507 648.279 65.056 648.05 64.5639 647.816L177.816 534.564C178.05 535.056 178.279 535.551 178.504 536.048L66.0479 648.504ZM68.0169 649.363C68.5278 649.578 69.0413 649.789 69.5572 649.994L179.994 539.557C179.789 539.041 179.578 538.528 179.363 538.017L68.0169 649.363ZM73.2018 651.35C72.666 651.165 72.1326 650.974 71.6018 650.778L180.778 541.602C180.974 542.133 181.165 542.666 181.35 543.202L73.2018 651.35ZM75.3267 652.053C75.8789 652.228 76.4335 652.397 76.9905 652.561L182.561 546.991C182.397 546.433 182.228 545.879 182.053 545.327L75.3267 652.053ZM80.9344 653.617C80.3545 653.477 79.7769 653.331 79.2017 653.178L183.178 549.202C183.331 549.777 183.477 550.355 183.617 550.934L80.9344 653.617ZM83.2392 654.141C83.8395 654.269 84.4421 654.39 85.047 654.505L184.505 555.047C184.39 554.442 184.269 553.839 184.141 553.239L83.2392 654.141ZM89.3449 655.207C88.7124 655.12 88.0822 655.026 87.4542 654.926L184.926 557.454C185.026 558.082 185.12 558.712 185.207 559.345L89.3449 655.207ZM91.8659 655.514C92.5247 655.585 93.1858 655.647 93.849 655.703L185.703 563.849C185.647 563.186 185.585 562.525 185.514 561.866L91.8659 655.514ZM98.5861 655.966C97.888 655.946 97.1919 655.918 96.4981 655.882L185.882 566.498C185.918 567.192 185.946 567.888 185.966 568.586L98.5861 655.966ZM101.382 655.998C102.121 655.995 102.857 655.982 103.591 655.96L185.96 573.591C185.982 572.857 185.995 572.121 185.998 571.382L101.382 655.998ZM185.82 576.56L106.56 655.82C107.348 655.769 108.134 655.708 108.916 655.635L185.635 578.916C185.708 578.134 185.769 577.348 185.82 576.56ZM114.641 654.91C113.798 655.046 112.951 655.17 112.099 655.281L185.281 582.099C185.17 582.951 185.046 583.798 184.91 584.641L114.641 654.91ZM118.102 654.278C119.038 654.087 119.969 653.88 120.893 653.658L183.658 590.893C183.88 589.969 184.087 589.038 184.278 588.102L118.102 654.278ZM47.4984 637.053C47.099 636.729 46.7026 636.402 46.3092 636.071L166.071 516.309C166.402 516.703 166.729 517.099 167.053 517.498L47.4984 637.053ZM124.741 652.639C125.801 652.331 126.853 652.003 127.896 651.656L181.656 597.896C182.003 596.853 182.331 595.801 182.639 594.741L124.741 652.639ZM136.129 648.423C134.885 648.988 133.624 649.525 132.349 650.031L180.031 602.349C179.525 603.624 178.988 604.885 178.423 606.129L136.129 648.423ZM141.79 645.59C143.629 644.582 145.427 643.508 147.18 642.372L172.372 617.18C173.508 615.427 174.582 613.629 175.59 611.79L141.79 645.59ZM164.762 514.79C164.423 514.405 164.08 514.024 163.734 513.646L43.6459 633.734C44.0241 634.08 44.4054 634.423 44.7898 634.762L164.762 514.79ZM161.294 511.086C161.655 511.449 162.012 511.816 162.366 512.185L42.1852 632.366C41.8157 632.012 41.4494 631.655 41.0863 631.294L161.294 511.086ZM159.868 509.684C159.498 509.329 159.126 508.978 158.75 508.63L38.6301 628.75C38.9781 629.126 39.3295 629.498 39.6841 629.868L159.868 509.684ZM156.103 506.278C156.493 506.61 156.881 506.947 157.265 507.286L37.2865 627.265C36.9467 626.881 36.6104 626.493 36.2775 626.103L156.103 506.278ZM154.559 504.993C154.159 504.668 153.756 504.347 153.351 504.029L34.0294 623.351C34.347 623.756 34.6681 624.159 34.9929 624.559L154.559 504.993ZM150.493 501.887C150.914 502.189 151.332 502.495 151.747 502.804L32.8044 621.747C32.495 621.332 32.1892 620.914 31.8872 620.493L150.493 501.887ZM148.829 500.723C148.398 500.429 147.964 500.139 147.527 499.853L29.8529 617.527C30.139 617.964 30.4291 618.398 30.723 618.829L148.829 500.723ZM144.451 497.929C144.903 498.199 145.353 498.473 145.801 498.751L28.751 615.801C28.4731 615.353 28.1992 614.903 27.9294 614.451L144.451 497.929ZM142.66 496.892C142.196 496.63 141.729 496.373 141.26 496.12L26.1201 611.26C26.373 611.729 26.6302 612.196 26.8916 612.66L142.66 496.892ZM24.4295 607.951C24.6648 608.437 24.9046 608.921 25.1489 609.403L139.403 495.149C138.921 494.905 138.437 494.665 137.951 494.43L24.4295 607.951ZM136.024 493.528C135.524 493.301 135.022 493.08 134.517 492.863L22.8631 604.517C23.0799 605.022 23.3015 605.524 23.5278 606.024L136.024 493.528ZM130.953 491.427C131.477 491.625 131.998 491.827 132.517 492.034L22.0343 602.517C21.827 601.998 21.6246 601.477 21.4272 600.953L130.953 491.427ZM128.876 490.676C128.336 490.489 127.794 490.307 127.25 490.13L20.1302 597.25C20.3067 597.794 20.4887 598.336 20.6759 598.876L128.876 490.676ZM123.399 488.982C123.965 489.136 124.529 489.296 125.09 489.461L19.4614 595.09C19.2958 594.529 19.1358 593.965 18.9815 593.399L123.399 488.982ZM121.15 488.402C120.564 488.26 119.977 488.123 119.387 487.993L17.9933 589.387C18.1234 589.977 18.2596 590.564 18.4019 591.15L121.15 488.402ZM115.2 487.18C115.816 487.284 116.43 487.394 117.041 487.511L17.5107 587.041C17.394 586.43 17.2837 585.816 17.1801 585.2L115.2 487.18ZM112.747 486.804C112.107 486.716 111.464 486.635 110.82 486.56L16.5604 580.82C16.6345 581.464 16.7159 582.107 16.8044 582.747L112.747 486.804ZM106.223 486.157C106.9 486.198 107.575 486.247 108.248 486.304L16.3039 578.248C16.2471 577.575 16.1981 576.9 16.1571 576.223L106.223 486.157ZM103.516 486.036C102.806 486.015 102.094 486.003 101.38 486L16 571.38C16.0031 572.094 16.0151 572.806 16.0357 573.516L103.516 486.036ZM84.8485 487.532C85.7223 487.364 86.6009 487.209 87.484 487.068L17.0677 557.484C17.2088 556.601 17.3635 555.722 17.5316 554.849L84.8485 487.532ZM81.2452 488.307C80.2643 488.54 79.2899 488.79 78.3226 489.058L19.0576 548.323C18.7904 549.29 18.54 550.264 18.3065 551.245L81.2452 488.307ZM70.8967 491.483C72.0076 491.063 73.1296 490.664 74.2622 490.289L20.2895 544.262C20.6645 543.13 21.0627 542.008 21.4834 540.897L70.8967 491.483ZM66.0648 493.487C64.6373 494.131 63.2308 494.814 61.8466 495.534L25.5335 531.847C24.8139 533.231 24.1313 534.637 23.4869 536.065L66.0648 493.487ZM29.4323 525.119C36.0469 514.823 44.8228 506.047 55.1194 499.432L29.4323 525.119Z" fill="#0E538D" fill-opacity="0.7"/>
<circle cx="115" cy="381" r="60" fill="#F66F5D" fill-opacity="0.7"/>
<circle cx="236" cy="485" r="121" fill="white" fill-opacity="0.7"/>
<circle cx="248" cy="268" r="150" fill="#0E538D" fill-opacity="0.7"/>
<circle cx="231" cy="118" r="45" fill="white" fill-opacity="0.7"/>
<line x1="82.9497" y1="212.453" x2="91.4732" y2="220.977" stroke="#2A79BC" stroke-width="7" stroke-linecap="round"/>
<line x1="100.973" y1="212.95" x2="92.4498" y2="221.473" stroke="#2A79BC" stroke-width="7" stroke-linecap="round"/>
<line x1="101.45" y1="213" x2="109.973" y2="221.524" stroke="#2A79BC" stroke-width="7" stroke-linecap="round"/>
<line x1="118.973" y1="212.95" x2="110.45" y2="221.473" stroke="#2A79BC" stroke-width="7" stroke-linecap="round"/>
<line x1="120.45" y1="213" x2="128.973" y2="221.523" stroke="#2A79BC" stroke-width="7" stroke-linecap="round"/>
<line x1="137.973" y1="212.95" x2="129.45" y2="221.473" stroke="#2A79BC" stroke-width="7" stroke-linecap="round"/>
<line x1="88.9497" y1="233.453" x2="97.4732" y2="241.977" stroke="#2A79BC" stroke-width="7" stroke-linecap="round"/>
<line x1="106.973" y1="233.95" x2="98.4498" y2="242.473" stroke="#2A79BC" stroke-width="7" stroke-linecap="round"/>
<line x1="107.45" y1="234" x2="115.973" y2="242.524" stroke="#2A79BC" stroke-width="7" stroke-linecap="round"/>
<line x1="124.973" y1="233.95" x2="116.45" y2="242.473" stroke="#2A79BC" stroke-width="7" stroke-linecap="round"/>
<line x1="126.45" y1="234" x2="134.973" y2="242.523" stroke="#2A79BC" stroke-width="7" stroke-linecap="round"/>
<line x1="143.973" y1="233.95" x2="135.45" y2="242.473" stroke="#2A79BC" stroke-width="7" stroke-linecap="round"/>
<line x1="59.02" y1="468.95" x2="50.4965" y2="477.473" stroke="#F66F5D" stroke-width="7" stroke-linecap="round"/>
<line x1="58.5234" y1="486.973" x2="50" y2="478.45" stroke="#F66F5D" stroke-width="7" stroke-linecap="round"/>
<line x1="58.4732" y1="487.45" x2="49.9498" y2="495.973" stroke="#F66F5D" stroke-width="7" stroke-linecap="round"/>
<line x1="58.5235" y1="504.973" x2="50" y2="496.45" stroke="#F66F5D" stroke-width="7" stroke-linecap="round"/>
<line x1="58.4733" y1="506.45" x2="49.9498" y2="514.973" stroke="#F66F5D" stroke-width="7" stroke-linecap="round"/>
<line x1="58.5235" y1="523.973" x2="50.0001" y2="515.45" stroke="#F66F5D" stroke-width="7" stroke-linecap="round"/>
<line x1="39.02" y1="468.95" x2="30.4965" y2="477.473" stroke="#F66F5D" stroke-width="7" stroke-linecap="round"/>
<line x1="38.5234" y1="486.973" x2="30" y2="478.45" stroke="#F66F5D" stroke-width="7" stroke-linecap="round"/>
<line x1="38.4732" y1="487.45" x2="29.9498" y2="495.973" stroke="#F66F5D" stroke-width="7" stroke-linecap="round"/>
<line x1="38.5235" y1="504.973" x2="30" y2="496.45" stroke="#F66F5D" stroke-width="7" stroke-linecap="round"/>
<line x1="38.4733" y1="506.45" x2="29.9498" y2="514.973" stroke="#F66F5D" stroke-width="7" stroke-linecap="round"/>
<line x1="38.5235" y1="523.973" x2="30.0001" y2="515.45" stroke="#F66F5D" stroke-width="7" stroke-linecap="round"/>
</svg>
