<svg width="22" height="22" viewBox="0 0 22 22" fill="none" xmlns="http://www.w3.org/2000/svg">
<path d="M11 0C4.93457 0 0 4.93457 0 11C0 17.0654 4.93457 22 11 22C17.0654 22 22 17.0654 22 11C22 4.93457 17.0654 0 11 0ZM11 20.7415C5.62851 20.7415 1.25853 16.3714 1.25853 11C1.25853 5.62858 5.62851 1.25853 11 1.25853C16.3715 1.25853 20.7415 5.62858 20.7415 11C20.7415 16.3714 16.3715 20.7415 11 20.7415Z" fill="white"/>
<path d="M13.5477 5.03076H12.0561C10.8352 5.03076 9.84195 6.02402 9.84195 7.24487V8.92291H8.45231C8.10475 8.92291 7.82304 9.20461 7.82304 9.55218C7.82304 9.89974 8.10475 10.1814 8.45231 10.1814H9.84195V16.008C9.84195 16.3555 10.1236 16.6372 10.4712 16.6372C10.8188 16.6372 11.1005 16.3555 11.1005 16.008V10.1814H13.2505C13.598 10.1814 13.8797 9.89974 13.8797 9.55218C13.8797 9.20461 13.598 8.92291 13.2505 8.92291H11.1005V7.24487C11.1005 6.71796 11.5292 6.28929 12.0561 6.28929H13.5476C13.8952 6.28929 14.1769 6.00759 14.1769 5.66003C14.1769 5.31246 13.8952 5.03076 13.5477 5.03076Z" fill="white"/>
</svg>
