<svg width="35" height="35" viewBox="0 0 35 35" fill="none" xmlns="http://www.w3.org/2000/svg">
<path fill-rule="evenodd" clip-rule="evenodd" d="M31.4716 0H3.5287C1.57941 0 0 1.56654 0 3.4989V31.5011C0 33.4337 1.57941 35 3.5287 35H31.4713C33.4206 35 35 33.4335 35 31.5011V3.49917C35.0003 1.56681 33.4209 0 31.4716 0ZM11.2308 27.6937H6.52182V12.7221H11.2308V27.6937ZM8.84531 10.8847C7.3585 10.8847 6.39807 9.84349 6.39807 8.5582C6.39807 7.24159 7.3891 6.23139 8.90732 6.23139C10.425 6.23139 11.3548 7.24159 11.3854 8.5582C11.3854 9.84376 10.425 10.8847 8.84531 10.8847ZM28.4235 27.6937H23.7148V19.3964C23.7148 17.4678 23.0327 16.1511 21.3287 16.1511C20.0277 16.1511 19.2535 17.0391 18.9126 17.8962C18.7889 18.2026 18.7575 18.631 18.7575 19.06V27.6939H14.0487V17.4983C14.0487 15.6307 13.9867 14.0695 13.925 12.7221H18.0142L18.2314 14.804H18.3242C18.9438 13.8241 20.462 12.3852 23.0021 12.3852C26.1 12.3852 28.4232 14.4366 28.4232 18.8454V27.6937H28.4235Z" fill="#0A66C2"/>
</svg>
