<?xml version="1.0" encoding="UTF-8"?>
<svg xmlns="http://www.w3.org/2000/svg" xmlns:xlink="http://www.w3.org/1999/xlink" width="30pt" height="30pt" viewBox="0 0 30 30" version="1.1">
<g id="surface1">
<path style=" stroke:none;fill-rule:evenodd;fill:rgb(91.372549%,90.980392%,91.764706%);fill-opacity:1;" d="M 26.976562 0 L 3.023438 0 C 1.355469 0 0 1.34375 0 3 L 0 27 C 0 28.65625 1.355469 30 3.023438 30 L 26.976562 30 C 28.644531 30 30 28.65625 30 27 L 30 3 C 30 1.34375 28.648438 0 26.976562 0 Z M 9.625 23.738281 L 5.589844 23.738281 L 5.589844 10.90625 L 9.625 10.90625 Z M 7.582031 9.328125 C 6.308594 9.328125 5.484375 8.4375 5.484375 7.335938 C 5.484375 6.207031 6.332031 5.339844 7.636719 5.339844 C 8.9375 5.339844 9.734375 6.207031 9.757812 7.335938 C 9.757812 8.4375 8.9375 9.328125 7.582031 9.328125 Z M 24.363281 23.738281 L 20.328125 23.738281 L 20.328125 16.625 C 20.328125 14.972656 19.742188 13.84375 18.28125 13.84375 C 17.167969 13.84375 16.503906 14.605469 16.210938 15.339844 C 16.105469 15.601562 16.078125 15.96875 16.078125 16.335938 L 16.078125 23.738281 L 12.042969 23.738281 L 12.042969 15 C 12.042969 13.398438 11.988281 12.058594 11.9375 10.90625 L 15.441406 10.90625 L 15.625 12.6875 L 15.707031 12.6875 C 16.238281 11.847656 17.539062 10.617188 19.714844 10.617188 C 22.371094 10.617188 24.363281 12.375 24.363281 16.152344 Z M 24.363281 23.738281 "/>
</g>
</svg>
