<?xml version="1.0" encoding="UTF-8"?>
<svg xmlns="http://www.w3.org/2000/svg" xmlns:xlink="http://www.w3.org/1999/xlink" width="30pt" height="30pt" viewBox="0 0 30 30" version="1.1">
<g id="surface1">
<path style=" stroke:none;fill-rule:evenodd;fill:rgb(91.372549%,90.980392%,91.764706%);fill-opacity:1;" d="M 26.621094 0 L 2.984375 0 C 1.335938 0 0 1.324219 0 2.960938 L 0 26.644531 C 0 28.277344 1.335938 29.605469 2.984375 29.605469 L 26.621094 29.605469 C 28.269531 29.605469 29.605469 28.277344 29.605469 26.644531 L 29.605469 2.960938 C 29.605469 1.324219 28.273438 0 26.621094 0 Z M 9.5 23.425781 L 5.515625 23.425781 L 5.515625 10.761719 L 9.5 10.761719 Z M 7.480469 9.207031 C 6.226562 9.207031 5.414062 8.328125 5.414062 7.238281 C 5.414062 6.125 6.25 5.269531 7.535156 5.269531 C 8.820312 5.269531 9.605469 6.125 9.628906 7.238281 C 9.628906 8.328125 8.820312 9.207031 7.480469 9.207031 Z M 24.042969 23.425781 L 20.0625 23.425781 L 20.0625 16.40625 C 20.0625 14.777344 19.484375 13.660156 18.039062 13.660156 C 16.941406 13.660156 16.285156 14.414062 15.996094 15.136719 C 15.894531 15.394531 15.867188 15.757812 15.867188 16.121094 L 15.867188 23.425781 L 11.882812 23.425781 L 11.882812 14.800781 C 11.882812 13.222656 11.832031 11.898438 11.78125 10.761719 L 15.238281 10.761719 L 15.417969 12.519531 L 15.5 12.519531 C 16.023438 11.691406 17.308594 10.476562 19.457031 10.476562 C 22.078125 10.476562 24.042969 12.210938 24.042969 15.941406 Z M 24.042969 23.425781 "/>
</g>
</svg>
