<svg width="350" height="450" viewBox="0 0 350 450" fill="none" xmlns="http://www.w3.org/2000/svg">
<rect width="350" height="450" rx="6" fill="#35324B"/>
<path opacity="0.11" d="M173.017 347.658C226.013 347.658 268.974 345.017 268.974 341.758C268.974 338.5 226.013 335.859 173.017 335.859C120.022 335.859 77.0602 338.5 77.0602 341.758C77.0602 345.017 120.022 347.658 173.017 347.658Z" fill="#6758EE"/>
<path opacity="0.11" d="M99.9074 337.864C99.9074 337.864 59.6055 331.099 56.2013 267.253C52.7971 203.407 94.6755 173.386 133.287 186.619C146.447 191.129 160.223 179.012 142.951 160.584C124.239 140.631 150.056 82.9577 245.442 108.378C318.164 127.762 294.334 178.533 268.586 215.616C245.191 249.281 296.276 239.259 292.781 298.436C288.783 366.382 99.9074 337.864 99.9074 337.864Z" fill="#6758EE"/>
<path d="M136.897 241.856H85.6968L86.6792 183.089H136.166L136.897 241.856Z" fill="#F7F7F7"/>
<path d="M193.443 241.856H83.0693V249.281H193.443V241.856Z" fill="#606060"/>
<path d="M157.779 269.895H118.71V274.223H157.779V269.895Z" fill="#606060"/>
<path d="M83.0693 342.67L130.614 244.862L135.594 247.276L89.1923 342.693L83.0693 342.67Z" fill="#606060"/>
<path d="M193.42 342.67L145.876 244.862L140.918 247.276L187.297 342.693L193.42 342.67Z" fill="#606060"/>
<path d="M111.697 230.262C122.435 230.262 131.14 222.277 131.14 212.427C131.14 202.577 122.435 194.592 111.697 194.592C100.959 194.592 92.2542 202.577 92.2542 212.427C92.2542 222.277 100.959 230.262 111.697 230.262Z" fill="#6758EE"/>
<path d="M111.697 212.427H131.139C131.139 216.185 129.837 219.853 127.438 222.882C125.039 225.934 121.635 228.189 117.751 229.351L111.697 212.427Z" fill="#2E286B"/>
<path d="M111.697 212.427L98.7202 199.147C102.284 196.232 106.899 194.592 111.697 194.592C122.367 194.592 131.14 202.632 131.14 212.427C131.14 212.449 131.14 212.495 131.14 212.518L111.697 212.427Z" fill="#0B4870"/>
<path d="M185.949 241.856H142.7L143.522 211.288H185.309L185.949 241.856Z" fill="#F7F7F7"/>
<path d="M159.149 220.263H154.443V238.212H159.149V220.263Z" fill="#0B4870"/>
<path d="M167.215 222.404H162.508V238.234H167.215V222.404Z" fill="#0B4870"/>
<path d="M175.257 217.985H170.55V238.212H175.257V217.985Z" fill="#F66F5D"/>
<path d="M150.97 216.003H150.468V238.462H150.97V216.003Z" fill="#0B4870"/>
<path d="M181.882 238.211H150.468V238.598H181.882V238.211Z" fill="#0B4870"/>
<path d="M91.4773 232.084H89.7638V233.792H91.4773V232.084Z" fill="#0B4870"/>
<path d="M99.0393 232.676H92.4365V233.222H99.0393V232.676Z" fill="#0B4870"/>
<path d="M99.0393 235.614H92.4365V236.161H99.0393V235.614Z" fill="#0B4870"/>
<path d="M99.0393 238.575H92.4365V239.122H99.0393V238.575Z" fill="#0B4870"/>
<path d="M91.4773 235.045H89.7638V236.753H91.4773V235.045Z" fill="#2A94F4"/>
<path d="M91.4773 237.983H89.7638V239.692H91.4773V237.983Z" fill="#CCE9FF"/>
<path d="M215.101 153.296L185.263 143.957C190.175 128.308 206.693 119.061 222.663 123.024C239.319 127.147 249.6 144.207 245.465 160.812C241.329 177.417 224.217 187.667 207.562 183.544C204.112 182.702 200.845 181.267 197.875 179.308L215.101 153.296Z" fill="#F66F5D"/>
<path d="M207.333 156.348L189.764 183.089C183.961 179.308 179.552 173.727 177.175 167.236C174.822 160.721 174.639 153.637 176.673 147.009L207.333 156.348Z" fill="#F66F5D"/>
<path d="M226.433 229.624L220.676 225.388L265.867 164.298C266.758 163.09 268.471 162.817 269.705 163.728L271.053 164.73C272.264 165.619 272.538 167.327 271.624 168.557L226.433 229.624Z" fill="#F2F2F2"/>
<path d="M229.335 232.379L223.829 227.801L272.607 169.513C273.567 168.351 275.303 168.192 276.468 169.171L277.748 170.242C278.913 171.198 279.073 172.929 278.09 174.091L229.335 232.379Z" fill="#F7F7F7"/>
<path d="M271.803 167.004C272.116 166.532 271.31 165.452 270.004 164.593C268.698 163.734 267.386 163.421 267.073 163.893C266.761 164.366 267.566 165.445 268.872 166.304C270.178 167.163 271.49 167.477 271.803 167.004Z" fill="#D3D3D3"/>
<path d="M278.322 172.613C278.635 172.14 277.83 171.061 276.524 170.202C275.218 169.343 273.906 169.029 273.593 169.502C273.28 169.974 274.085 171.054 275.391 171.913C276.697 172.772 278.01 173.085 278.322 172.613Z" fill="#D3D3D3"/>
<path d="M246.287 331.145L247.041 335.814C247.338 337.682 246.242 339.481 244.437 340.073L236.395 342.716H255.152L252.89 331.145H246.287Z" fill="#FCD2B1"/>
<path d="M254.672 340.073L245.396 339.595C245.396 339.595 233.722 341.395 233.653 343.923H256.797L254.672 340.073Z" fill="#0E538C"/>
<path d="M196.481 331.145L194.562 336.998C194.151 338.274 193.123 339.276 191.843 339.709L182.727 342.716H201.485L204.135 331.145H196.481Z" fill="#FCD2B1"/>
<path d="M201.85 340.073L191.706 339.595C191.706 339.595 180.031 341.394 179.963 343.923H203.107L201.85 340.073Z" fill="#0E538C"/>
<path d="M243.774 223.155C243.774 223.155 248.343 226.185 249.668 237.801C250.993 249.418 249.143 257.846 250.194 264.633C251.245 271.421 253.301 333.103 253.301 333.103H243.34L226.73 223.223L243.774 223.155Z" fill="#0A4971"/>
<path d="M222.092 221.902H239.73C239.73 221.902 241.901 235 238.085 242.653C234.247 250.306 232.191 252.356 231.094 256.798C229.997 261.24 203.449 333.103 203.449 333.103H194.95L222.092 221.902Z" fill="#0A4971"/>
<path d="M247.521 185.002C247.521 185.002 265.25 210.195 263.217 217.005C261.183 223.816 240.827 216.276 240.827 216.276V212.04L254.764 213.793L244.185 195.753L247.521 185.002Z" fill="#FCD2B1"/>
<path d="M217.341 198.168C218.391 192.747 224.697 184.638 224.697 184.638H249.669L243.089 218.782C242.655 220.969 248.092 223.247 242.221 223.247H221.841C220.836 223.247 220.036 222.449 220.036 221.447V209.147C220.036 207.507 219.58 205.867 218.643 204.5C217.089 202.154 217.044 199.694 217.341 198.168Z" fill="#6758EE"/>
<path d="M228.718 166.051L226.479 171.335C226.479 171.335 225.154 175.253 225.931 177.554C226.822 180.196 230.797 180.173 230.797 180.173L229.609 186.619H239.73V166.233L228.718 166.051Z" fill="#FFE3CA"/>
<path d="M229.289 168.215C227.462 166.985 227.119 164.479 228.535 162.794C230.523 160.447 233.95 157.623 238.816 157.965C243.614 158.306 248.229 161.245 248.344 168.101C248.412 172.679 249.555 175.845 252.799 181.585C255.837 186.984 250.971 193.065 251.656 198.054C252.342 203.042 253.164 202.951 253.301 207.279C253.827 224.293 237.377 223.701 229.015 223.109C220.813 222.517 217.774 205.639 223.418 199.147C229.061 192.655 227.165 185.23 227.736 182.177C229.106 174.775 232.625 173.317 232.077 169.604C231.048 169.285 230.089 168.761 229.289 168.215Z" fill="#211F2F"/>
<path d="M180.214 158.557C180.169 153.41 184.373 155.437 184.601 156.439C184.647 156.644 185.149 156.781 185.355 158.284C185.561 159.765 186.657 161.792 186.863 161.268C187.274 160.22 187.777 158.694 188.142 159.036C189.285 160.175 188.645 162.316 188.074 163.637C187.754 164.388 187.868 165.254 188.371 165.892L203.427 184.638H224.4C228.718 185.481 226.594 194.455 221.407 194.25C216.861 194.068 205.095 193.567 199.954 190.355C194.814 187.121 183.664 164.798 183.664 164.798C181.38 163.067 180.214 158.967 180.214 158.557Z" fill="#FCD2B1"/>
<path d="M94.5392 39.608C94.5392 40.568 94.2912 41.376 93.7952 42.032C93.2992 42.672 92.6272 43.16 91.7792 43.496C90.9472 43.832 90.0352 44 89.0432 44H80.8112V26.96H89.9312C90.7312 26.96 91.4192 27.176 91.9952 27.608C92.5872 28.024 93.0352 28.568 93.3392 29.24C93.6592 29.896 93.8192 30.584 93.8192 31.304C93.8192 32.12 93.6112 32.896 93.1952 33.632C92.7792 34.368 92.1712 34.912 91.3712 35.264C92.3472 35.552 93.1152 36.072 93.6752 36.824C94.2512 37.576 94.5392 38.504 94.5392 39.608ZM91.2032 38.984C91.2032 38.552 91.1152 38.168 90.9392 37.832C90.7632 37.48 90.5232 37.208 90.2192 37.016C89.9312 36.808 89.5952 36.704 89.2112 36.704H84.1232V41.192H89.0432C89.4432 41.192 89.8032 41.096 90.1232 40.904C90.4592 40.696 90.7232 40.424 90.9152 40.088C91.1072 39.752 91.2032 39.384 91.2032 38.984ZM84.1232 29.792V34.088H88.5392C88.9072 34.088 89.2432 34 89.5472 33.824C89.8512 33.648 90.0912 33.4 90.2672 33.08C90.4592 32.76 90.5552 32.376 90.5552 31.928C90.5552 31.496 90.4672 31.12 90.2912 30.8C90.1312 30.48 89.9072 30.232 89.6192 30.056C89.3472 29.88 89.0352 29.792 88.6832 29.792H84.1232ZM96.6448 39.296V31.424H99.8608V38.6C99.8608 39.56 100.037 40.288 100.389 40.784C100.741 41.264 101.261 41.504 101.949 41.504C102.365 41.504 102.773 41.424 103.173 41.264C103.589 41.088 103.965 40.832 104.301 40.496C104.653 40.16 104.949 39.736 105.189 39.224V31.424H108.405V40.4C108.405 40.736 108.461 40.976 108.573 41.12C108.701 41.264 108.901 41.352 109.173 41.384V44C108.853 44.048 108.581 44.08 108.357 44.096C108.149 44.128 107.957 44.144 107.781 44.144C107.205 44.144 106.733 44.016 106.365 43.76C106.013 43.488 105.805 43.12 105.741 42.656L105.669 41.648C105.109 42.496 104.389 43.144 103.509 43.592C102.629 44.024 101.661 44.24 100.605 44.24C99.3088 44.24 98.3248 43.824 97.6528 42.992C96.9808 42.144 96.6448 40.912 96.6448 39.296ZM116.233 44.24C115.161 44.24 114.137 44.064 113.161 43.712C112.185 43.36 111.345 42.84 110.641 42.152L111.793 40.064C112.545 40.672 113.281 41.12 114.001 41.408C114.737 41.696 115.441 41.84 116.113 41.84C116.737 41.84 117.233 41.728 117.601 41.504C117.985 41.28 118.177 40.944 118.177 40.496C118.177 40.192 118.073 39.96 117.865 39.8C117.657 39.624 117.353 39.472 116.953 39.344C116.569 39.216 116.097 39.072 115.537 38.912C114.609 38.608 113.833 38.312 113.209 38.024C112.585 37.736 112.113 37.376 111.793 36.944C111.489 36.496 111.337 35.928 111.337 35.24C111.337 34.408 111.545 33.696 111.961 33.104C112.393 32.496 112.985 32.024 113.737 31.688C114.505 31.352 115.401 31.184 116.425 31.184C117.321 31.184 118.169 31.328 118.969 31.616C119.769 31.888 120.497 32.336 121.153 32.96L119.857 35C119.217 34.504 118.609 34.144 118.033 33.92C117.457 33.68 116.873 33.56 116.281 33.56C115.945 33.56 115.625 33.6 115.321 33.68C115.033 33.76 114.793 33.896 114.601 34.088C114.425 34.264 114.337 34.52 114.337 34.856C114.337 35.16 114.417 35.4 114.577 35.576C114.753 35.736 115.009 35.88 115.345 36.008C115.697 36.136 116.121 36.28 116.617 36.44C117.625 36.728 118.473 37.024 119.161 37.328C119.865 37.632 120.393 38.008 120.745 38.456C121.097 38.888 121.273 39.488 121.273 40.256C121.273 41.504 120.817 42.48 119.905 43.184C118.993 43.888 117.769 44.24 116.233 44.24ZM123.46 44V31.424H126.676V44H123.46ZM123.46 29.672V26.48H126.676V29.672H123.46ZM141.265 44H138.049V36.944C138.049 35.936 137.873 35.2 137.521 34.736C137.169 34.272 136.681 34.04 136.057 34.04C135.625 34.04 135.185 34.152 134.737 34.376C134.305 34.6 133.913 34.912 133.561 35.312C133.209 35.696 132.953 36.144 132.793 36.656V44H129.577V31.424H132.481V33.752C132.801 33.208 133.209 32.752 133.705 32.384C134.201 32 134.769 31.712 135.409 31.52C136.065 31.312 136.753 31.208 137.473 31.208C138.257 31.208 138.897 31.352 139.393 31.64C139.905 31.912 140.289 32.288 140.545 32.768C140.817 33.232 141.001 33.76 141.097 34.352C141.209 34.944 141.265 35.544 141.265 36.152V44ZM149.894 44.24C148.886 44.24 147.974 44.072 147.158 43.736C146.342 43.384 145.646 42.912 145.07 42.32C144.494 41.712 144.046 41.024 143.726 40.256C143.422 39.472 143.27 38.648 143.27 37.784C143.27 36.584 143.534 35.488 144.062 34.496C144.606 33.504 145.374 32.712 146.366 32.12C147.374 31.512 148.558 31.208 149.918 31.208C151.294 31.208 152.47 31.512 153.446 32.12C154.422 32.712 155.166 33.504 155.678 34.496C156.206 35.472 156.47 36.528 156.47 37.664C156.47 37.856 156.462 38.056 156.446 38.264C156.43 38.456 156.414 38.616 156.398 38.744H146.678C146.742 39.384 146.926 39.944 147.23 40.424C147.55 40.904 147.95 41.272 148.43 41.528C148.926 41.768 149.454 41.888 150.014 41.888C150.654 41.888 151.254 41.736 151.814 41.432C152.39 41.112 152.782 40.696 152.99 40.184L155.75 40.952C155.446 41.592 155.006 42.16 154.43 42.656C153.87 43.152 153.206 43.544 152.438 43.832C151.67 44.104 150.822 44.24 149.894 44.24ZM146.606 36.704H153.182C153.118 36.064 152.934 35.512 152.63 35.048C152.342 34.568 151.958 34.2 151.478 33.944C150.998 33.672 150.462 33.536 149.87 33.536C149.294 33.536 148.766 33.672 148.286 33.944C147.822 34.2 147.438 34.568 147.134 35.048C146.846 35.512 146.67 36.064 146.606 36.704ZM163.061 44.24C161.989 44.24 160.965 44.064 159.989 43.712C159.013 43.36 158.173 42.84 157.469 42.152L158.621 40.064C159.373 40.672 160.109 41.12 160.829 41.408C161.565 41.696 162.269 41.84 162.941 41.84C163.565 41.84 164.061 41.728 164.429 41.504C164.813 41.28 165.005 40.944 165.005 40.496C165.005 40.192 164.901 39.96 164.693 39.8C164.485 39.624 164.181 39.472 163.781 39.344C163.397 39.216 162.925 39.072 162.365 38.912C161.437 38.608 160.661 38.312 160.037 38.024C159.413 37.736 158.941 37.376 158.621 36.944C158.317 36.496 158.165 35.928 158.165 35.24C158.165 34.408 158.373 33.696 158.789 33.104C159.221 32.496 159.813 32.024 160.565 31.688C161.333 31.352 162.229 31.184 163.253 31.184C164.149 31.184 164.997 31.328 165.797 31.616C166.597 31.888 167.325 32.336 167.981 32.96L166.685 35C166.045 34.504 165.437 34.144 164.861 33.92C164.285 33.68 163.701 33.56 163.109 33.56C162.773 33.56 162.453 33.6 162.149 33.68C161.861 33.76 161.621 33.896 161.429 34.088C161.253 34.264 161.165 34.52 161.165 34.856C161.165 35.16 161.245 35.4 161.405 35.576C161.581 35.736 161.837 35.88 162.173 36.008C162.525 36.136 162.949 36.28 163.445 36.44C164.453 36.728 165.301 37.024 165.989 37.328C166.693 37.632 167.221 38.008 167.573 38.456C167.925 38.888 168.101 39.488 168.101 40.256C168.101 41.504 167.645 42.48 166.733 43.184C165.821 43.888 164.597 44.24 163.061 44.24ZM174.92 44.24C173.848 44.24 172.824 44.064 171.848 43.712C170.872 43.36 170.032 42.84 169.328 42.152L170.48 40.064C171.232 40.672 171.968 41.12 172.688 41.408C173.424 41.696 174.128 41.84 174.8 41.84C175.424 41.84 175.92 41.728 176.288 41.504C176.672 41.28 176.864 40.944 176.864 40.496C176.864 40.192 176.76 39.96 176.552 39.8C176.344 39.624 176.04 39.472 175.64 39.344C175.256 39.216 174.784 39.072 174.224 38.912C173.296 38.608 172.52 38.312 171.896 38.024C171.272 37.736 170.8 37.376 170.48 36.944C170.176 36.496 170.024 35.928 170.024 35.24C170.024 34.408 170.232 33.696 170.648 33.104C171.08 32.496 171.672 32.024 172.424 31.688C173.192 31.352 174.088 31.184 175.112 31.184C176.008 31.184 176.856 31.328 177.656 31.616C178.456 31.888 179.184 32.336 179.84 32.96L178.544 35C177.904 34.504 177.296 34.144 176.72 33.92C176.144 33.68 175.56 33.56 174.968 33.56C174.632 33.56 174.312 33.6 174.008 33.68C173.72 33.76 173.48 33.896 173.288 34.088C173.112 34.264 173.024 34.52 173.024 34.856C173.024 35.16 173.104 35.4 173.264 35.576C173.44 35.736 173.696 35.88 174.032 36.008C174.384 36.136 174.808 36.28 175.304 36.44C176.312 36.728 177.16 37.024 177.848 37.328C178.552 37.632 179.08 38.008 179.432 38.456C179.784 38.888 179.96 39.488 179.96 40.256C179.96 41.504 179.504 42.48 178.592 43.184C177.68 43.888 176.456 44.24 174.92 44.24ZM192.107 26.96H195.467L201.731 44H198.323L196.739 39.752H190.787L189.227 44H185.819L192.107 26.96ZM196.139 37.424L193.787 30.392L191.339 37.424H196.139ZM214.976 44H211.76V36.944C211.76 35.936 211.584 35.2 211.232 34.736C210.88 34.272 210.392 34.04 209.768 34.04C209.336 34.04 208.896 34.152 208.448 34.376C208.016 34.6 207.624 34.912 207.272 35.312C206.92 35.696 206.664 36.144 206.504 36.656V44H203.288V31.424H206.192V33.752C206.512 33.208 206.92 32.752 207.416 32.384C207.912 32 208.48 31.712 209.12 31.52C209.776 31.312 210.464 31.208 211.184 31.208C211.968 31.208 212.608 31.352 213.104 31.64C213.616 31.912 214 32.288 214.256 32.768C214.528 33.232 214.712 33.76 214.808 34.352C214.92 34.944 214.976 35.544 214.976 36.152V44ZM216.909 40.28C216.909 39.464 217.133 38.752 217.581 38.144C218.045 37.52 218.685 37.04 219.501 36.704C220.317 36.368 221.253 36.2 222.309 36.2C222.837 36.2 223.373 36.24 223.917 36.32C224.461 36.4 224.933 36.528 225.333 36.704V36.032C225.333 35.232 225.093 34.616 224.613 34.184C224.149 33.752 223.453 33.536 222.525 33.536C221.837 33.536 221.181 33.656 220.557 33.896C219.933 34.136 219.277 34.488 218.589 34.952L217.557 32.84C218.389 32.296 219.237 31.888 220.101 31.616C220.981 31.344 221.901 31.208 222.861 31.208C224.653 31.208 226.045 31.656 227.037 32.552C228.045 33.448 228.549 34.728 228.549 36.392V40.4C228.549 40.736 228.605 40.976 228.717 41.12C228.845 41.264 229.045 41.352 229.317 41.384V44C229.029 44.048 228.765 44.088 228.525 44.12C228.301 44.152 228.109 44.168 227.949 44.168C227.309 44.168 226.821 44.024 226.485 43.736C226.165 43.448 225.965 43.096 225.885 42.68L225.813 42.032C225.269 42.736 224.589 43.28 223.773 43.664C222.957 44.048 222.125 44.24 221.277 44.24C220.445 44.24 219.693 44.072 219.021 43.736C218.365 43.384 217.845 42.912 217.461 42.32C217.093 41.712 216.909 41.032 216.909 40.28ZM224.733 40.928C224.909 40.736 225.053 40.544 225.165 40.352C225.277 40.16 225.333 39.984 225.333 39.824V38.552C224.949 38.392 224.533 38.272 224.085 38.192C223.637 38.096 223.213 38.048 222.813 38.048C221.981 38.048 221.293 38.232 220.749 38.6C220.221 38.952 219.957 39.424 219.957 40.016C219.957 40.336 220.045 40.64 220.221 40.928C220.397 41.216 220.653 41.448 220.989 41.624C221.325 41.8 221.725 41.888 222.189 41.888C222.669 41.888 223.141 41.8 223.605 41.624C224.069 41.432 224.445 41.2 224.733 40.928ZM231.53 26.48H234.746V39.968C234.746 40.544 234.842 40.936 235.034 41.144C235.226 41.336 235.49 41.432 235.826 41.432C236.082 41.432 236.346 41.4 236.618 41.336C236.89 41.272 237.13 41.192 237.338 41.096L237.77 43.544C237.338 43.752 236.834 43.912 236.258 44.024C235.682 44.136 235.162 44.192 234.698 44.192C233.69 44.192 232.906 43.928 232.346 43.4C231.802 42.856 231.53 42.088 231.53 41.096V26.48ZM238.802 46.448C239.09 46.512 239.354 46.568 239.594 46.616C239.85 46.664 240.066 46.688 240.242 46.688C240.546 46.688 240.794 46.608 240.986 46.448C241.194 46.304 241.394 46.032 241.586 45.632C241.778 45.248 241.978 44.704 242.186 44L237.218 31.424H240.554L243.938 40.712L246.914 31.424H249.986L244.706 46.496C244.514 47.056 244.218 47.56 243.818 48.008C243.434 48.472 242.946 48.832 242.354 49.088C241.778 49.36 241.13 49.496 240.41 49.496C240.154 49.496 239.898 49.472 239.642 49.424C239.386 49.392 239.106 49.328 238.802 49.232V46.448ZM256.061 44.24C254.989 44.24 253.965 44.064 252.989 43.712C252.013 43.36 251.173 42.84 250.469 42.152L251.621 40.064C252.373 40.672 253.109 41.12 253.829 41.408C254.565 41.696 255.269 41.84 255.941 41.84C256.565 41.84 257.061 41.728 257.429 41.504C257.813 41.28 258.005 40.944 258.005 40.496C258.005 40.192 257.901 39.96 257.693 39.8C257.485 39.624 257.181 39.472 256.781 39.344C256.397 39.216 255.925 39.072 255.365 38.912C254.437 38.608 253.661 38.312 253.037 38.024C252.413 37.736 251.941 37.376 251.621 36.944C251.317 36.496 251.165 35.928 251.165 35.24C251.165 34.408 251.373 33.696 251.789 33.104C252.221 32.496 252.813 32.024 253.565 31.688C254.333 31.352 255.229 31.184 256.253 31.184C257.149 31.184 257.997 31.328 258.797 31.616C259.597 31.888 260.325 32.336 260.981 32.96L259.685 35C259.045 34.504 258.437 34.144 257.861 33.92C257.285 33.68 256.701 33.56 256.109 33.56C255.773 33.56 255.453 33.6 255.149 33.68C254.861 33.76 254.621 33.896 254.429 34.088C254.253 34.264 254.165 34.52 254.165 34.856C254.165 35.16 254.245 35.4 254.405 35.576C254.581 35.736 254.837 35.88 255.173 36.008C255.525 36.136 255.949 36.28 256.445 36.44C257.453 36.728 258.301 37.024 258.989 37.328C259.693 37.632 260.221 38.008 260.573 38.456C260.925 38.888 261.101 39.488 261.101 40.256C261.101 41.504 260.645 42.48 259.733 43.184C258.821 43.888 257.597 44.24 256.061 44.24ZM270.754 43.352C270.482 43.464 270.154 43.592 269.77 43.736C269.386 43.88 268.97 43.992 268.522 44.072C268.09 44.168 267.65 44.216 267.202 44.216C266.61 44.216 266.066 44.112 265.57 43.904C265.074 43.696 264.674 43.368 264.37 42.92C264.082 42.456 263.938 41.856 263.938 41.12V33.896H262.282V31.424H263.938V27.344H267.154V31.424H269.794V33.896H267.154V40.04C267.17 40.472 267.29 40.784 267.514 40.976C267.738 41.168 268.018 41.264 268.354 41.264C268.69 41.264 269.018 41.208 269.338 41.096C269.658 40.984 269.914 40.888 270.106 40.808L270.754 43.352Z" fill="#E9E8EA"/>
</svg>
