<svg width="200" height="159" viewBox="0 0 200 159" fill="none" xmlns="http://www.w3.org/2000/svg">
<path fill-rule="evenodd" clip-rule="evenodd" d="M107.306 0.1265C131.713 1.89199 146.533 25.5221 159.824 46.068C171.03 63.3882 177.68 82.8733 173.965 103.165C170.022 124.705 159.901 146.738 139.803 155.431C120.342 163.849 99.9137 152.143 80.5121 143.588C59.7726 134.443 35.212 127.526 27.8785 106.079C19.9003 82.7464 29.5186 57.4425 44.3095 37.7122C59.7406 17.1278 81.6468 -1.72957 107.306 0.1265Z" fill="#E8ECFB"/>
<path d="M69.65 66.9874C70.35 68.2624 70.3625 69.7749 69.6875 71.0624C69.575 71.2749 69.9 71.4624 70.0125 71.2499C70.75 69.8374 70.7375 68.1874 69.975 66.7999C69.85 66.5749 69.5375 66.7749 69.65 66.9874Z" fill="#161616"/>
<path d="M70.1124 67.0499C70.5374 66.8374 71.0374 66.5749 71.5249 66.6874C72.2499 66.8374 72.2749 67.4249 72.3249 68.0249C72.3749 68.8249 72.3374 69.6749 71.8124 70.3249C71.6624 70.5124 71.9249 70.7749 72.0749 70.5874C72.7999 69.6999 72.8874 68.3124 72.6124 67.2249C72.2624 65.9124 70.8374 66.2749 69.9374 66.7249C69.7124 66.8249 69.8999 67.1499 70.1124 67.0499Z" fill="#161616"/>
<path d="M70.1125 71.3249C70.8125 71.4124 71.5124 71.1375 71.9749 70.6C72.1249 70.4125 71.8624 70.15 71.7124 70.3375C71.3124 70.8125 70.7375 71.0375 70.1125 70.9625C69.875 70.925 69.875 71.2999 70.1125 71.3249Z" fill="#161616"/>
<path d="M69.9999 50.525C70.1624 50.2125 70.6124 49.3625 71.1124 50.15C71.1999 50.275 71.1999 50.625 71.2249 50.75C71.2749 51.0125 71.3624 51.2875 71.5499 51.4875C72.1749 52.1375 72.6124 51.075 73.2624 51.425C74.0874 51.8625 73.0124 52.7875 73.6874 53.3C73.8499 53.425 74.0374 53.425 74.2249 53.35C74.3499 53.3 74.4499 53.1875 74.5749 53.125C75.0374 52.925 75.1999 53.3375 75.2374 53.7C75.2499 53.8125 75.3124 53.875 75.4249 53.8875C75.5624 53.9 75.6874 53.9125 75.8249 53.925C76.0624 53.95 76.0624 53.575 75.8249 53.55C75.6874 53.5375 75.5624 53.525 75.4249 53.5125C75.4874 53.575 75.5499 53.6375 75.6124 53.7C75.5749 53.3625 75.5124 52.925 75.1999 52.725C74.8624 52.5 74.6374 52.7 74.3249 52.85C74.1749 52.925 74.0499 53.175 73.8374 52.875C73.7624 52.7625 73.9249 52.4125 73.9499 52.2875C73.9999 52.0875 74.0249 51.9125 73.9624 51.7125C73.8624 51.4 73.5874 51.1375 73.2749 51.0375C72.8874 50.9 72.6999 51.0625 72.3499 51.1625C72.0374 51.25 71.7249 51.225 71.6124 50.8875C71.5749 50.7625 71.5624 50.6125 71.5499 50.4875C71.5124 50.2875 71.4874 50.075 71.3874 49.8875C70.8749 48.95 69.9874 49.7375 69.6749 50.375C69.5624 50.55 69.8874 50.7375 69.9999 50.525Z" fill="#161616"/>
<path d="M72.425 49.3626C72.725 49.0751 73 48.9501 73.325 49.2251C73.5875 49.4501 73.5375 49.5251 73.6125 49.8251C73.6625 50.0001 73.7125 50.1626 73.8625 50.2876C74.05 50.4501 74.2625 50.4501 74.5 50.4251C74.725 50.4001 74.9875 50.2501 75.175 50.4876C75.2625 50.6001 75.25 50.8501 75.25 50.9876C75.2625 51.3626 75.2625 51.8126 75.6875 51.9501C75.8125 51.9876 75.95 51.9251 76.0625 51.9626C76.2125 51.9001 76.275 51.9376 76.2875 52.1001C76.3375 52.2001 76.3625 52.3001 76.35 52.4251C76.4125 52.7126 76.525 52.9251 76.75 53.1251C76.925 53.2876 77.1875 53.0251 77.0125 52.8626C76.6375 52.5126 76.9 52.0251 76.5875 51.7126C76.2625 51.3876 75.75 51.8626 75.6375 51.2626C75.55 50.8001 75.725 50.1751 75.1125 50.0126C74.675 49.9001 74.2125 50.3376 73.975 49.7376C73.875 49.4876 73.9125 49.2126 73.7375 48.9751C73.325 48.4376 72.5625 48.7126 72.15 49.1001C71.975 49.2626 72.25 49.5376 72.425 49.3626Z" fill="#161616"/>
<path d="M118.475 72.5999C118.1 72.5624 118.663 71.8249 118.775 71.7624C119.075 71.5999 119.425 71.6874 119.65 71.9249C120.138 72.4499 119.725 73.2249 119.063 73.2999C118.825 73.3249 118.825 73.6999 119.063 73.6749C119.613 73.6124 120.1 73.2499 120.225 72.6999C120.35 72.1624 120.025 71.5874 119.525 71.3749C119.038 71.1749 118.5 71.3624 118.213 71.7999C117.963 72.1749 117.9 72.9249 118.488 72.9749C118.713 72.9999 118.713 72.6249 118.475 72.5999Z" fill="#161616"/>
<path d="M115.95 71.8375C115.687 71.6 116 71.125 116.3 71.3875C116.612 71.65 116.187 72.0125 115.9 71.8C115.712 71.65 115.525 71.975 115.712 72.125C115.975 72.325 116.375 72.2625 116.612 72.025C116.887 71.75 116.825 71.325 116.537 71.0875C116.25 70.85 115.837 70.8625 115.612 71.175C115.412 71.45 115.437 71.85 115.687 72.0875C115.862 72.2625 116.137 72 115.95 71.8375Z" fill="#161616"/>
<path d="M159.312 55.775C159.437 58.1 158.275 60.3375 156.312 61.5875C156.112 61.7125 156.3 62.0375 156.5 61.9125C158.575 60.6 159.812 58.2375 159.687 55.775C159.675 55.5375 159.3 55.5375 159.312 55.775Z" fill="#161616"/>
<path d="M159.563 56.0501C160.763 56.9251 160.275 58.5126 159.613 59.5501C158.988 60.5376 157.975 61.7126 156.675 61.5126C156.438 61.4751 156.338 61.8376 156.575 61.8751C158.138 62.1001 159.325 60.7876 160.05 59.5626C160.775 58.3501 161.05 56.6751 159.75 55.7251C159.55 55.5876 159.363 55.9126 159.563 56.0501Z" fill="#161616"/>
<path d="M54.3374 44.925C55.1249 46.225 55.5999 47.6625 55.7124 49.175C55.7374 49.4125 56.1124 49.4125 56.0874 49.175C55.9624 47.5875 55.4874 46.1 54.6624 44.7375C54.5249 44.525 54.1999 44.7125 54.3374 44.925Z" fill="#E8E8E8"/>
<path d="M55.8624 44.5124C56.5124 45.6874 56.8749 46.9624 56.9624 48.2999C56.9749 48.5374 57.3499 48.5374 57.3374 48.2999C57.2499 46.8999 56.8624 45.5624 56.1874 44.3249C56.0749 44.1124 55.7499 44.2999 55.8624 44.5124Z" fill="#E8E8E8"/>
<path d="M54.2375 47.3249C55.325 46.6124 56.55 46.2374 57.8625 46.2124C58.1 46.2124 58.1 45.8374 57.8625 45.8374C56.5 45.8624 55.2 46.2624 54.05 47.0124C53.85 47.1374 54.0375 47.4624 54.2375 47.3249Z" fill="#E8E8E8"/>
<path d="M54.2 48.8499C55.5625 48.0249 57.05 47.4999 58.625 47.2624C58.8625 47.2249 58.7625 46.8624 58.525 46.8999C56.9125 47.1374 55.4 47.6874 54.0125 48.5249C53.8125 48.6499 54 48.9749 54.2 48.8499Z" fill="#E8E8E8"/>
<path d="M127.6 55.0126C127.025 55.3001 126.8 56.0501 127.287 56.5376C127.55 56.8001 127.775 56.7251 128.087 56.8251C128.287 56.8876 128.513 57.0126 128.475 57.2126C128.45 57.3501 128.313 57.4626 128.238 57.5751C128.113 57.7376 127.962 57.9251 127.912 58.1251C127.862 58.3626 127.925 58.6001 128.113 58.7626C128.388 59.0001 128.75 58.8501 129.05 59.0001C129.675 59.3001 128.537 60.6126 129.5 60.8626C129.737 60.9251 129.838 60.5626 129.6 60.5001C129.2 60.4001 129.7 59.6376 129.738 59.4001C129.763 59.1876 129.725 58.9751 129.562 58.8251C129.137 58.4126 127.887 58.8501 128.525 57.8001C128.725 57.4751 129.088 57.0751 128.85 56.6501C128.775 56.5126 128.65 56.4376 128.5 56.4001C128.35 56.3751 128.113 56.4001 127.963 56.3876C127.3 56.3501 127.225 55.6126 127.787 55.3251C128 55.2376 127.812 54.9126 127.6 55.0126Z" fill="#E8E8E8"/>
<path d="M130.375 57.1124C129.963 57.2749 129.95 57.7249 130.2 58.0624C130.363 58.2999 130.625 58.3499 130.838 58.5124C131.363 58.8999 130.9 59.2249 130.813 59.6749C130.663 60.4499 131.488 60.1874 131.725 60.6874C131.925 61.0999 131.85 61.5624 132.363 61.7499C132.588 61.8374 132.688 61.4749 132.463 61.3874C132.1 61.2624 132.15 60.5749 131.95 60.2999C131.888 60.1999 131.8 60.1374 131.713 60.0624C131.663 60.0249 131.588 60.0374 131.55 60.0124C131.463 59.9999 131.4 59.9374 131.375 59.8124C131.2 59.6999 131.175 59.5874 131.325 59.4624C131.438 59.1124 131.663 58.8999 131.425 58.5374C131.338 58.3999 131.175 58.2999 131.038 58.2124C130.925 58.1374 130.113 57.6374 130.488 57.4874C130.7 57.3874 130.6 57.0249 130.375 57.1124Z" fill="#E8E8E8"/>
<path d="M154.525 82.3499C153.612 81.6999 153.762 80.3374 154.75 79.8374C155.5 79.4624 156.525 79.8124 156.912 80.5499C157.3 81.2874 156.962 82.3249 156.225 82.7124C155.45 83.1124 154.487 82.7624 154.05 82.0499C153.925 81.8499 153.6 82.0374 153.725 82.2374C154.287 83.1749 155.587 83.5874 156.55 82.9624C157.462 82.3624 157.75 80.9749 157.075 80.0999C156.412 79.2499 155.087 79.0499 154.25 79.7374C153.275 80.5249 153.35 81.9624 154.35 82.6874C154.537 82.8124 154.725 82.4874 154.525 82.3499Z" fill="#E8E8E8"/>
<path d="M68.25 85.95C68.3875 85.5 68.5875 85.375 68.825 85.5875C68.8875 85.6125 68.95 85.65 69 85.675C69.0875 85.7 69.2 85.725 69.2875 85.7125C69.475 85.6875 69.625 85.575 69.7125 85.425C70.025 84.925 69.675 84.4375 69.3625 84.05C69.2 83.8625 68.9 83.6125 68.9375 83.325C68.9875 82.775 69.3125 83 69.5875 82.9625C69.7875 82.9375 69.9625 82.8625 70.0625 82.675C70.1625 82.5125 70.1375 82.3 70.1125 82.125C70.1 82.025 70.0625 81.9125 70.0625 81.8125C69.975 81.55 70.1 81.3875 70.4375 81.325C70.6 81.4375 70.7375 81.575 70.85 81.75C70.9875 81.95 71.3125 81.7625 71.175 81.5625C70.8375 81.0875 69.8375 80.4375 69.675 81.425C69.6 81.925 70.0625 82.45 69.325 82.575C68.9625 82.6375 68.7125 82.6375 68.6 83.0625C68.5 83.4125 68.6375 83.75 68.85 84.025C68.95 84.15 69.0625 84.2625 69.1625 84.375C69.2875 84.5 69.375 84.6375 69.4375 84.8C69.2875 84.95 69.15 85.1 69 85.25C68.8875 85.275 68.6 85.0375 68.4375 85.025C67.7125 84.975 67.325 85.95 68.05 86.2625C68.2875 86.3625 68.475 86.0375 68.25 85.95Z" fill="#E8E8E8"/>
<path d="M71.3 85.4125C71.1 85.0875 70.7875 84.5875 70.925 84.175C71.025 83.8625 71.4499 83.725 71.6374 83.475C71.9249 83.0875 71.8874 82.575 71.6249 82.1875C71.5749 82.2875 71.5124 82.375 71.4624 82.475C72.1749 82.525 72.775 82.1 72.9875 81.4125C73.0625 81.175 72.6999 81.0875 72.6249 81.3125C72.4624 81.8375 72.0124 82.1375 71.4624 82.1C71.3249 82.0875 71.225 82.2625 71.3 82.3875C71.4625 82.625 71.525 82.9625 71.3625 83.225C71.2125 83.45 71.0124 83.4625 70.8499 83.625C70.6999 83.775 70.5999 83.925 70.5624 84.15C70.4624 84.6625 70.7375 85.175 70.9875 85.6C71.1 85.8125 71.425 85.625 71.3 85.4125Z" fill="#E8E8E8"/>
<path d="M109.475 20.825C110.137 21.5875 110.55 22.475 110.725 23.4625C110.762 23.7 111.125 23.6 111.087 23.3625C110.9 22.3125 110.437 21.3625 109.737 20.55C109.575 20.375 109.312 20.6375 109.475 20.825Z" fill="#E8E8E8"/>
<path d="M109.8 20.8625C110.225 20.475 111.925 18.95 112.55 19.3875C112.862 19.6125 113.137 20.125 113.337 20.4625C113.587 20.8875 113.787 21.3375 113.95 21.8C114.025 22.025 114.387 21.925 114.312 21.7C114.1 21.1125 113.837 20.5375 113.5 20.0125C113.287 19.675 112.962 19.1 112.575 18.9375C112.137 18.75 111.6 19.1375 111.237 19.35C110.625 19.7 110.062 20.125 109.537 20.6C109.362 20.7625 109.625 21.025 109.8 20.8625Z" fill="#E8E8E8"/>
<path d="M111.125 23.6999C112.1 22.8749 113.162 22.1999 114.337 21.6874C114.562 21.5874 114.362 21.2624 114.15 21.3624C112.95 21.8874 111.862 22.5874 110.862 23.4374C110.675 23.5874 110.937 23.8499 111.125 23.6999Z" fill="#E8E8E8"/>
<path d="M113.3 20.1749C113.775 19.7749 114.837 18.7624 115.425 19.4249C115.85 19.8999 116.125 20.6749 116.375 21.2499C116.475 21.4749 116.8 21.2749 116.7 21.0624C116.462 20.5249 116.212 20.0124 115.912 19.5124C115.762 19.2499 115.575 18.8499 115.262 18.7374C114.9 18.6124 114.512 18.8749 114.225 19.0499C113.8 19.2999 113.412 19.5874 113.037 19.8999C112.85 20.0749 113.125 20.3374 113.3 20.1749Z" fill="#E8E8E8"/>
<path d="M112.375 22.4624C112.962 22.7249 113.462 23.0749 113.925 23.5249C114.012 23.6124 114.15 23.5874 114.225 23.4874C114.775 22.6999 115.5 22.0999 116.375 21.6874C116.6 21.5874 116.4 21.2624 116.187 21.3624C115.25 21.7999 114.487 22.4499 113.9 23.2874C114 23.2749 114.1 23.2624 114.2 23.2499C113.725 22.7749 113.187 22.4124 112.575 22.1374C112.337 22.0499 112.15 22.3624 112.375 22.4624Z" fill="#E8E8E8"/>
<path d="M115.1 36.3626C115.075 36.2251 115.037 36.0876 115.012 35.9501C115.125 35.8376 115.237 35.7376 115.375 35.6626C115.45 35.6126 115.537 35.5626 115.612 35.5001C115.762 35.3751 115.862 35.2501 115.937 35.0751C116.025 34.8501 116 34.6376 115.975 34.4001C115.962 34.3251 115.95 34.2376 115.937 34.1626C115.925 34.0751 115.975 33.0626 116.375 33.3876C116.562 33.5376 116.825 33.2751 116.637 33.1251C116.362 32.9001 116.075 32.9376 115.825 33.1751C115.4 33.5876 115.6 34.0751 115.625 34.5751C115.662 35.3251 114.687 35.3626 114.6 36.0501C114.562 36.3626 114.687 36.6501 115.012 36.7126C115.237 36.7626 115.337 36.4001 115.1 36.3626Z" fill="#F66F5D"/>
<path d="M116.475 35.3251C116.775 35.5626 117.2 35.3876 117.262 35.0001C117.325 34.6626 117.1 34.3501 117.125 34.0126C117.162 33.5501 117.475 33.1501 117.9 32.9876C118.125 32.9001 118.025 32.5376 117.8 32.6251C117.387 32.7751 117.062 33.0501 116.887 33.4626C116.8 33.6501 116.75 33.8626 116.75 34.0751C116.75 34.1751 116.762 34.2751 116.775 34.3626C116.775 34.3626 116.962 35.2251 116.75 35.0501C116.55 34.9126 116.287 35.1751 116.475 35.3251Z" fill="#F66F5D"/>
<path d="M84.2249 76.5751C83.9999 76.4501 83.9749 76.1626 84.1374 75.9751C84.2999 75.7876 84.5999 75.7126 84.8374 75.7501C85.0374 75.7876 85.2624 75.8876 85.3499 76.0876C85.4499 76.3126 85.2999 76.7001 84.9999 76.6626C84.7624 76.6251 84.6624 76.9876 84.8999 77.0251C85.3249 77.0876 85.6999 76.8001 85.7624 76.3626C85.8374 75.9001 85.4624 75.5251 85.0374 75.4126C84.5999 75.2876 84.0499 75.4251 83.7874 75.8251C83.5499 76.1876 83.6499 76.7001 84.0499 76.9001C84.2499 77.0126 84.4374 76.6876 84.2249 76.5751Z" fill="#F66F5D"/>
<path d="M64.475 32.3375C64.55 32.0875 64.625 31.825 64.6875 31.575C64.7625 31.6 64.8375 31.625 64.9125 31.65C65.0125 31.6625 65.1125 31.725 65.2125 31.75C65.35 31.7875 65.5125 31.8 65.65 31.7625C65.975 31.65 66.075 31.3375 66.075 31.025C66.075 30.7125 65.9625 30.375 66.2125 30.125C66.4125 29.925 66.75 29.85 67.0125 29.9125C67.875 30.1125 67.7875 31.2 67.4125 31.7875C67.2875 31.9875 67.6125 32.175 67.7375 31.975C68.15 31.3125 68.25 30.3125 67.575 29.775C67.075 29.375 66.225 29.45 65.8375 29.975C65.575 30.325 65.75 30.6375 65.675 31.0375C65.55 31.7 64.6125 31.0875 64.1875 31.2375C63.3875 31.525 63.625 32.5375 64.3375 32.725C64.6 32.7625 64.7 32.4 64.475 32.3375Z" fill="#F66F5D"/>
<path d="M145.775 87.1624C146.037 86.9624 146.325 86.95 146.637 87.1125C146.775 87.1875 146.962 87.0625 146.912 86.9C146.8 86.675 146.825 86.475 147.012 86.3C147.1 85.9125 147.3 85.8875 147.6 86.2125C147.687 86.3875 147.937 86.2875 147.95 86.1125C147.95 85.95 147.962 85.775 147.987 85.6125C148.025 85.2125 148.287 85.1125 148.75 85.3C148.85 85.525 149.162 85.325 149.075 85.1125C148.925 84.7625 148.525 84.6499 148.175 84.7874C147.65 84.9999 147.587 85.625 147.575 86.1125C147.687 86.075 147.812 86.0499 147.925 86.0124C147.75 85.6374 147.3 85.5 146.925 85.6875C146.45 85.9375 146.425 86.525 146.55 86.9875C146.637 86.9125 146.737 86.85 146.825 86.775C146.4 86.5625 146 86.5749 145.587 86.8249C145.387 86.9624 145.575 87.2874 145.775 87.1624Z" fill="#F66F5D"/>
<path d="M136.062 35.3749C135.387 35.5749 134.912 36.1499 134.825 36.8624C134.737 37.5374 135.137 38.3749 135.887 38.4499C136.437 38.4999 136.987 37.8749 136.65 37.3624C136.287 36.7999 135.587 37.2124 135.3 37.6124C134.487 38.7749 135.212 41.0499 136.887 40.5124C137.35 40.3624 137.925 39.7999 137.662 39.2624C137.337 38.5999 136.612 39.3124 136.425 39.6874C136.037 40.4624 135.937 41.5749 136.737 42.1249C137.362 42.5499 138.225 42.2749 138.425 41.5374C138.475 41.3749 138.237 41.1999 138.112 41.3499C137.25 42.4374 137.912 43.9374 139.312 43.9874C139.55 43.9999 139.55 43.6249 139.312 43.6124C138.262 43.5749 137.712 42.4499 138.375 41.6249C138.275 41.5624 138.162 41.4999 138.062 41.4374C137.875 42.1499 137 42.0374 136.662 41.5124C136.362 41.0249 136.462 40.3624 136.737 39.8749C136.8 39.7499 137.137 39.1624 137.337 39.5374C137.437 39.7374 137.062 40.0249 136.937 40.0999C136.55 40.3124 136.037 40.2499 135.737 39.9249C135.425 39.5999 135.325 39.0999 135.362 38.6624C135.387 38.4249 135.437 38.1499 135.55 37.9499C135.6 37.8749 135.662 37.7999 135.712 37.7249C136.025 37.4249 136.012 37.5124 135.662 37.9999C135.412 38.0249 135.2 37.3374 135.187 37.1749C135.175 37.0124 135.2 36.8499 135.237 36.6999C135.362 36.2374 135.7 35.8874 136.162 35.7499C136.4 35.6749 136.3 35.3124 136.062 35.3749Z" fill="#F66F5D"/>
<path d="M68.8124 43.0125C68.7124 42.7125 68.7624 42.425 68.9874 42.1875C69.2374 41.925 69.5374 41.9625 69.8499 42.0125C70.0749 42.05 70.2499 42.075 70.4624 41.95C70.6249 41.85 70.7374 41.6625 70.8124 41.5C70.8624 41.375 70.8999 41.25 70.9249 41.125C70.9374 41.0375 70.9624 40.95 70.9749 40.875C70.9999 40.575 71.2124 40.45 71.5999 40.5C71.5874 40.725 71.8999 40.7375 71.9624 40.55C72.0624 40.2625 72.1874 39.9625 72.4499 39.7875C72.8374 39.525 73.3874 39.575 73.4624 40.1125C73.4999 40.35 73.8499 40.25 73.8249 40.0125C73.7499 39.5 73.2624 39.175 72.7499 39.25C72.1249 39.3375 71.7874 39.925 71.6124 40.4625C71.7374 40.475 71.8624 40.5 71.9749 40.5125C71.9999 40.1375 71.6499 39.9 71.2874 39.95C70.6999 40.025 70.6749 40.6875 70.5499 41.125C70.4624 41.4375 70.3874 41.675 69.9499 41.6625C69.8249 41.6625 69.6749 41.575 69.5374 41.575C69.2999 41.575 69.0624 41.6625 68.8749 41.8C68.4624 42.1125 68.2874 42.6375 68.4499 43.125C68.5249 43.3375 68.8874 43.25 68.8124 43.0125Z" fill="black"/>
<path d="M138.787 55.1376C139.685 55.1376 140.412 54.3597 140.412 53.4001C140.412 52.4405 139.685 51.6626 138.787 51.6626C137.89 51.6626 137.162 52.4405 137.162 53.4001C137.162 54.3597 137.89 55.1376 138.787 55.1376Z" fill="black"/>
<path d="M50.8875 55.5249C51.4812 55.5249 51.9625 55.0492 51.9625 54.4624C51.9625 53.8756 51.4812 53.3999 50.8875 53.3999C50.2938 53.3999 49.8125 53.8756 49.8125 54.4624C49.8125 55.0492 50.2938 55.5249 50.8875 55.5249Z" fill="black"/>
<path d="M66.8 100.775C67.2971 100.775 67.7 100.338 67.7 99.8C67.7 99.2615 67.2971 98.825 66.8 98.825C66.303 98.825 65.9 99.2615 65.9 99.8C65.9 100.338 66.303 100.775 66.8 100.775Z" fill="black"/>
<path d="M136.9 57.3001C137.942 57.3001 138.787 56.4998 138.787 55.5126C138.787 54.5254 137.942 53.7251 136.9 53.7251C135.858 53.7251 135.012 54.5254 135.012 55.5126C135.012 56.4998 135.858 57.3001 136.9 57.3001Z" fill="#F66F5D"/>
<path d="M99.5375 18.9C100.069 18.9 100.5 18.4187 100.5 17.825C100.5 17.2313 100.069 16.75 99.5375 16.75C99.0059 16.75 98.575 17.2313 98.575 17.825C98.575 18.4187 99.0059 18.9 99.5375 18.9Z" fill="#F66F5D"/>
<path d="M152.362 76.2C153.108 76.2 153.712 75.5284 153.712 74.7C153.712 73.8715 153.108 73.2 152.362 73.2C151.617 73.2 151.012 73.8715 151.012 74.7C151.012 75.5284 151.617 76.2 152.362 76.2Z" fill="#F66F5D"/>
<path d="M47.1125 68.45C48.6036 68.45 49.8125 67.2132 49.8125 65.6875C49.8125 64.1619 48.6036 62.925 47.1125 62.925C45.6213 62.925 44.4125 64.1619 44.4125 65.6875C44.4125 67.2132 45.6213 68.45 47.1125 68.45Z" fill="#F66F5D"/>
<path d="M65.925 139.263C63.5 135.613 60.25 131.638 60.675 126.988C60.6125 127.05 60.55 127.113 60.4875 127.175C60.8625 127.163 61.1875 127.225 61.5375 127.375C61.675 127.438 61.875 127.338 61.8125 127.163C61.6875 126.813 61.4625 126.613 61.2125 126.35C60.75 125.863 60.7125 125.363 60.7375 124.725C60.775 123.713 60.6 122.788 60.175 121.863C60.1375 121.95 60.1 122.05 60.0625 122.138C60.3875 122.025 60.7125 121.913 61.0375 121.8C61.125 121.763 61.2 121.675 61.1625 121.575C60.3625 119.25 60.7625 116.638 60.9375 114.25C61.125 111.7 61.375 109.163 61.675 106.625C61.575 106.675 61.4875 106.738 61.3875 106.788C63.0625 107.863 63.9625 109.7 64.6625 111.488C65.4625 113.525 66.15 115.6 66.725 117.713C67.925 122.063 68.65 126.55 68.9 131.063C69.0375 133.575 69.025 136.1 68.8625 138.613C68.85 138.85 69.225 138.85 69.2375 138.613C69.825 129.363 68.4125 119.925 64.9875 111.3C64.25 109.438 63.3 107.575 61.575 106.463C61.4375 106.375 61.3125 106.488 61.2875 106.625C60.975 109.25 60.725 111.875 60.5375 114.5C60.3625 116.863 60.0125 119.388 60.7875 121.675C60.825 121.6 60.875 121.525 60.9125 121.45C60.5875 121.563 60.2625 121.675 59.9375 121.788C59.8125 121.825 59.775 121.95 59.825 122.063C60.075 122.613 60.2625 123.188 60.325 123.8C60.375 124.313 60.3 124.813 60.3375 125.325C60.3625 125.675 60.425 126 60.6375 126.3C60.8875 126.65 61.2875 126.875 61.4375 127.288C61.525 127.213 61.625 127.15 61.7125 127.075C61.3125 126.9 60.9125 126.813 60.475 126.825C60.3625 126.825 60.3 126.913 60.2875 127.013C59.8625 131.738 63.1375 135.775 65.6 139.475C65.7375 139.65 66.0625 139.463 65.925 139.263Z" fill="#E8E8E8"/>
<path d="M61.6875 107.5C64.5375 115.15 66.25 123.213 66.7375 131.363C66.875 133.663 66.9125 135.975 66.8625 138.288C66.8625 138.525 67.2375 138.525 67.2375 138.288C67.425 130.138 66.4125 121.963 64.225 114.1C63.6 111.838 62.8625 109.6 62.05 107.4C61.975 107.175 61.6125 107.275 61.6875 107.5Z" fill="#E8E8E8"/>
<path d="M60.675 115.4C62.525 116.55 64.0375 118.137 65.1 120.05C65.2125 120.262 65.5375 120.075 65.425 119.862C64.3375 117.9 62.775 116.262 60.8625 115.075C60.6625 114.95 60.475 115.275 60.675 115.4Z" fill="#E8E8E8"/>
<path d="M61.05 110.787C62.1 111.575 62.95 112.55 63.6125 113.675C63.7375 113.887 64.0625 113.7 63.9375 113.487C63.2375 112.3 62.3375 111.287 61.2375 110.462C61.05 110.325 60.8625 110.65 61.05 110.787Z" fill="#E8E8E8"/>
<path d="M66.5499 125.675C66.7749 124.125 67.2124 122.612 67.8624 121.187C67.9624 120.975 67.6374 120.775 67.5374 121C66.8749 122.462 66.4249 123.987 66.1874 125.587C66.1499 125.812 66.5124 125.912 66.5499 125.675Z" fill="#E8E8E8"/>
<path d="M67.4499 118.575C68.5999 114.762 70.5874 111.312 72.5749 107.887C72.4624 107.875 72.3499 107.862 72.2374 107.837C73.2624 112.837 74.1124 117.862 74.7624 122.925C74.8249 122.862 74.8874 122.8 74.9499 122.737C74.5124 122.712 74.0749 122.687 73.6374 122.662C73.4874 122.65 73.3749 122.887 73.4999 122.987C74.2499 123.562 74.1749 124.562 74.0874 125.412C73.9749 126.537 73.8499 127.65 73.7249 128.775C73.7999 128.712 73.8874 128.65 73.9624 128.6C73.6249 128.525 73.2999 128.5 72.9499 128.5C72.8124 128.5 72.7124 128.662 72.7874 128.787C73.7499 130.437 72.2499 132.162 71.5499 133.587C70.8499 135.025 70.3999 136.575 70.1749 138.162C70.1374 138.4 70.4999 138.5 70.5374 138.262C70.7999 136.337 71.4249 134.512 72.3874 132.825C73.1124 131.55 73.9499 130.037 73.1124 128.6C73.0624 128.7 72.9999 128.787 72.9499 128.887C73.2624 128.875 73.5624 128.9 73.8624 128.975C73.9874 129 74.0874 128.925 74.0999 128.8C74.2374 127.512 74.4374 126.225 74.4999 124.937C74.5374 124.137 74.4249 123.275 73.7624 122.75C73.7124 122.862 73.6749 122.962 73.6249 123.075C74.0624 123.1 74.4999 123.125 74.9374 123.15C75.0249 123.15 75.1374 123.062 75.1249 122.962C74.4624 117.875 73.6124 112.8 72.5749 107.775C72.5374 107.612 72.3124 107.6 72.2374 107.725C70.2374 111.175 68.2374 114.662 67.0749 118.5C67.0249 118.7 67.3874 118.8 67.4499 118.575Z" fill="#E8E8E8"/>
<path d="M72.225 108.3C70.9625 115.75 70.1 123.275 69.6375 130.825C69.625 131.062 70 131.062 70.0125 130.825C70.4625 123.312 71.325 115.825 72.575 108.4C72.625 108.162 72.2625 108.062 72.225 108.3Z" fill="#E8E8E8"/>
<path d="M68.4375 115.863C68.95 117.6 69.55 119.3 70.225 120.975C70.3125 121.2 70.675 121.1 70.5875 120.875C69.9125 119.2 69.325 117.488 68.8 115.763C68.725 115.525 68.3625 115.625 68.4375 115.863Z" fill="#E8E8E8"/>
<path d="M25.7125 123.237C30 121.825 34.7 120.9 39.225 121.137C41.575 121.262 43.8125 121.987 46.0375 122.662C48.2 123.312 50.3625 123.987 52.5375 124.612C54.9875 125.312 57.4625 125.875 60 126.05C60.2375 126.062 60.2375 125.687 60 125.675C55.325 125.375 50.8125 123.725 46.3625 122.375C44.25 121.737 42.15 121.025 39.9375 120.812C37.6625 120.6 35.35 120.812 33.1 121.125C30.55 121.487 28.0375 122.075 25.6 122.875C25.3875 122.95 25.4875 123.312 25.7125 123.237Z" fill="#E8E8E8"/>
<path d="M39.0499 120.987C42.6999 120.187 46.3624 119.387 49.9624 118.35C53.4999 117.325 56.9499 115.712 60.6374 115.262C60.8749 115.237 60.8749 114.862 60.6374 114.887C56.9999 115.337 53.5999 116.9 50.0999 117.925C46.4374 119 42.6999 119.812 38.9624 120.637C38.7124 120.675 38.8124 121.037 39.0499 120.987Z" fill="#E8E8E8"/>
<path d="M66.05 114.412C67.05 114.35 68.0624 114.337 69.0624 114.375C69.2999 114.387 69.2999 114.012 69.0624 114C68.0499 113.962 67.05 113.975 66.05 114.037C65.8125 114.062 65.8125 114.437 66.05 114.412Z" fill="#E8E8E8"/>
<path d="M30.5124 138.025C34.7124 137.425 38.8749 138.488 42.9999 139.138C44.9624 139.45 46.9374 139.638 48.9249 139.588C51.1499 139.525 53.3749 139.3 55.5749 139.688C55.8124 139.725 55.9124 139.363 55.6749 139.325C53.5124 138.95 51.3499 139.138 49.1624 139.213C46.9624 139.288 44.7999 139.063 42.6374 138.713C38.5874 138.05 34.5249 137.088 30.4124 137.675C30.1749 137.7 30.2749 138.063 30.5124 138.025Z" fill="#E8E8E8"/>
<path d="M55.4874 142.925C55.5374 142.537 57.0249 142.712 57.2874 142.712C57.6124 142.712 58.8124 142.525 58.9749 142.875C58.9999 142.787 59.0249 142.7 59.0374 142.612C58.4249 143.025 57.7499 143.2 57.0124 143.15C56.7749 143.137 56.7749 143.512 57.0124 143.525C57.8124 143.575 58.5499 143.375 59.2249 142.937C59.3124 142.875 59.3374 142.775 59.2874 142.675C59.1749 142.437 58.9874 142.375 58.7374 142.337C58.1499 142.25 57.4999 142.325 56.9124 142.325C56.3499 142.325 55.1874 142.112 55.0999 142.912C55.0749 143.162 55.4624 143.162 55.4874 142.925Z" fill="#E8E8E8"/>
<path d="M55.7624 136.737C55.5249 136.862 55.2749 136.825 55.0249 136.625C55.0124 136.725 54.9999 136.825 54.9874 136.925C55.2999 136.687 55.6624 136.537 56.0624 136.55C56.3874 136.562 56.6749 136.737 56.9999 136.75C57.2999 136.762 57.5749 136.637 57.8749 136.6C58.3499 136.525 58.7874 136.625 59.2124 136.862C59.4249 136.975 59.6124 136.662 59.3999 136.537C59.0874 136.362 58.7749 136.237 58.4124 136.212C57.8999 136.162 57.4249 136.437 56.9374 136.375C56.5374 136.325 56.2124 136.162 55.7874 136.2C55.4124 136.237 55.0874 136.387 54.7874 136.612C54.6999 136.675 54.6499 136.825 54.7499 136.912C55.0874 137.187 55.4374 137.275 55.8499 137.125C56.0874 137.025 55.9874 136.662 55.7624 136.737Z" fill="#E8E8E8"/>
<path d="M36.8124 142.038C37.4499 142.825 38.2999 142.088 39.0124 141.938C39.5999 141.813 40.0624 142.163 40.6374 142.163C41.2499 142.163 41.9124 141.875 42.4499 142.263C42.6499 142.4 42.8374 142.075 42.6374 141.938C42.3124 141.7 41.9624 141.663 41.5624 141.688C40.9624 141.738 40.4874 141.813 39.8874 141.625C39.4749 141.488 39.1249 141.488 38.7124 141.638C38.2124 141.825 37.4999 142.325 37.0499 141.775C36.9249 141.588 36.6499 141.863 36.8124 142.038Z" fill="#E8E8E8"/>
<path d="M77.1875 139.537C78.0125 139.212 78.675 139.312 79.5375 139.412C80.075 139.475 80.45 139.287 80.925 139.075C81.425 138.85 81.7625 138.962 82.2125 139.212C82.4 139.312 82.575 139.4 82.7875 139.437C83.425 139.562 84.2875 139.137 84.825 139.6C85.0125 139.762 85.275 139.487 85.0875 139.337C84.6125 138.937 84.1 139.025 83.5125 139.075C83.025 139.112 82.65 139.025 82.2375 138.787C81.9875 138.65 81.75 138.525 81.4625 138.525C81.2 138.525 80.9625 138.637 80.725 138.737C80.1625 138.987 79.825 139.062 79.2 138.962C78.4625 138.85 77.7875 138.887 77.0875 139.162C76.8625 139.262 76.9625 139.625 77.1875 139.537Z" fill="#E8E8E8"/>
<path d="M159.45 119.462C163.887 117.425 168.35 115.375 173.025 113.95C177.737 112.525 182.637 111.825 187.562 111.937C190.362 112 193.162 112.325 195.912 112.887C196.15 112.937 196.25 112.575 196.012 112.525C191.112 111.512 186.075 111.287 181.112 111.875C176.187 112.45 171.475 113.9 166.887 115.762C164.312 116.812 161.775 117.975 159.25 119.137C159.05 119.237 159.237 119.562 159.45 119.462Z" fill="#E8E8E8"/>
<path d="M179.762 119.875C182.687 118.812 185.687 117.987 188.75 117.437C190.325 117.15 191.9 116.95 193.5 116.8C194.65 116.7 196.787 116.212 197.612 117.312C197.75 117.5 198.087 117.312 197.937 117.125C197.225 116.175 195.987 116.262 194.912 116.325C193.212 116.425 191.5 116.612 189.812 116.875C186.35 117.412 182.95 118.312 179.662 119.512C179.437 119.6 179.537 119.962 179.762 119.875Z" fill="#E8E8E8"/>
<path d="M159.462 111.85C162.887 111.1 166.475 111.5 169.637 113.013C169.85 113.113 170.05 112.788 169.825 112.688C166.562 111.138 162.887 110.713 159.362 111.488C159.125 111.538 159.225 111.9 159.462 111.85Z" fill="#E8E8E8"/>
<path d="M167.1 129.05C167.637 128.412 168.487 129.137 169.05 129.362C169.512 129.55 169.875 129.5 170.325 129.3C171.05 128.975 171.637 129.262 172.362 129.237C173.112 129.212 173.725 128.5 174.412 129.125C174.587 129.287 174.862 129.025 174.675 128.862C174.225 128.462 173.737 128.387 173.175 128.587C172.887 128.7 172.675 128.837 172.35 128.862C172.1 128.875 171.85 128.812 171.6 128.787C171.3 128.75 171 128.7 170.712 128.75C170.237 128.837 169.862 129.212 169.337 129.075C168.962 128.975 168.65 128.712 168.287 128.562C167.775 128.362 167.187 128.325 166.812 128.775C166.675 128.975 166.937 129.237 167.1 129.05Z" fill="#E8E8E8"/>
<path d="M181.512 138.65C180.712 136.1 180.35 133.45 180.45 130.775C180.35 130.825 180.262 130.888 180.162 130.938C180.437 131.075 180.725 131.213 181 131.35C181.137 131.413 181.275 131.338 181.287 131.188C181.462 128.613 182.037 126.1 182.975 123.688C182.887 123.725 182.787 123.763 182.7 123.8C182.85 123.875 183 123.95 183.162 124.038C183.225 124.075 183.337 124.075 183.387 124.013C184.362 122.788 185.437 121.663 186.637 120.65C186.537 120.638 186.437 120.625 186.337 120.613C187.225 121.85 187.162 123.475 187.1 124.925C187.025 126.538 186.812 128.125 186.45 129.7C185.737 132.75 184.5 135.65 182.787 138.275C182.65 138.475 182.975 138.663 183.112 138.463C184.925 135.7 186.225 132.613 186.912 129.375C187.25 127.8 187.45 126.2 187.5 124.6C187.537 123.175 187.55 121.625 186.675 120.413C186.6 120.313 186.475 120.288 186.375 120.375C185.175 121.388 184.1 122.5 183.125 123.738C183.2 123.725 183.275 123.713 183.35 123.713C183.2 123.638 183.05 123.563 182.887 123.475C182.775 123.413 182.662 123.475 182.612 123.588C181.662 126.025 181.1 128.575 180.912 131.188C181.012 131.138 181.1 131.075 181.2 131.025C180.925 130.888 180.637 130.75 180.362 130.613C180.237 130.55 180.087 130.625 180.075 130.775C179.975 133.475 180.337 136.163 181.15 138.738C181.225 138.975 181.587 138.875 181.512 138.65Z" fill="#E8E8E8"/>
<path d="M187.075 129.175C187.925 127.35 188.925 125.6 190.05 123.938C189.975 123.963 189.912 124 189.837 124.025C190.562 124.213 190.962 123.55 191.337 123.05C192.025 122.125 192.887 121.388 193.9 120.825C193.812 120.788 193.712 120.75 193.625 120.713C194.762 124.263 194.037 127.938 191.912 130.963C190.912 132.388 189.762 133.75 188.587 135.038C187.412 136.3 186.125 137.438 184.575 138.225C184.362 138.338 184.55 138.663 184.762 138.55C186.337 137.75 187.662 136.588 188.85 135.3C190.1 133.938 191.325 132.5 192.362 130.975C194.45 127.913 195.125 124.175 193.987 120.625C193.95 120.513 193.825 120.45 193.712 120.513C193.037 120.888 192.412 121.338 191.85 121.888C191.6 122.138 191.362 122.413 191.137 122.7C190.862 123.05 190.5 123.813 189.937 123.675C189.85 123.65 189.775 123.688 189.725 123.763C188.6 125.425 187.6 127.175 186.75 129C186.65 129.2 186.975 129.4 187.075 129.175Z" fill="#E8E8E8"/>
<path d="M185.312 122.838C184.45 125.188 183.4 127.55 182.837 130C182.262 132.5 181.912 135.063 181.487 137.588C181.45 137.825 181.812 137.925 181.85 137.688C182.287 135.163 182.625 132.588 183.2 130.1C183.762 127.65 184.812 125.3 185.675 122.938C185.762 122.713 185.4 122.613 185.312 122.838Z" fill="#E8E8E8"/>
<path d="M191.9 124.7C190.513 126.925 189.125 129.15 187.738 131.363C186.475 133.388 185.113 135.375 184.238 137.6C184.15 137.825 184.513 137.925 184.6 137.7C185.5 135.438 186.913 133.4 188.2 131.338C189.538 129.188 190.888 127.038 192.225 124.875C192.35 124.675 192.025 124.488 191.9 124.7Z" fill="#E8E8E8"/>
<path d="M182.012 125.162C182.137 126.425 182.437 127.637 182.9 128.812C182.987 129.037 183.35 128.937 183.262 128.712C182.812 127.575 182.512 126.387 182.387 125.162C182.362 124.925 181.987 124.912 182.012 125.162Z" fill="#E8E8E8"/>
<path d="M183.038 131.175C184.475 129.938 185.8 128.588 187.025 127.138C187.175 126.95 186.913 126.688 186.763 126.875C185.538 128.325 184.213 129.675 182.775 130.913C182.588 131.075 182.863 131.338 183.038 131.175Z" fill="#E8E8E8"/>
<path d="M188.75 125.238C188.637 126.5 188.662 127.75 188.825 129C188.85 129.238 189.225 129.238 189.2 129C189.037 127.75 189.012 126.488 189.125 125.238C189.15 124.988 188.775 124.988 188.75 125.238Z" fill="#E8E8E8"/>
<path d="M41.5125 84.6875C39.7 84.1875 38.3875 82.425 38.4125 80.5375C38.4375 78.425 40.3375 76.175 42.55 76.225C44.875 76.2875 46.125 79.1125 45.9 81.15C45.6375 83.575 43.225 85.1 40.9125 84.4625C40.675 84.4 40.575 84.7625 40.8125 84.825C42.675 85.3375 44.6875 84.6125 45.6875 82.9375C46.6875 81.25 46.35 79.0125 45.2875 77.425C44.2125 75.825 42.1875 75.425 40.525 76.3875C38.9375 77.325 37.85 79.2625 38.075 81.1125C38.3 82.9375 39.6375 84.55 41.4125 85.0375C41.65 85.1125 41.75 84.75 41.5125 84.6875Z" fill="#E8E8E8"/>
<path d="M37.7375 94.1749C38.125 94.6249 38.6375 94.9249 39.2375 94.9874C39.55 95.0249 39.8625 94.9874 40.1625 94.8749C40.6375 94.7124 41.025 94.3624 41.575 94.4624C42.2625 94.5749 42.775 95.0499 43.5 94.9624C44.2875 94.8749 44.975 94.3124 45.8 94.3749C46.55 94.4374 47.1875 94.9499 47.925 95.0999C48.575 95.2374 48.9875 94.9999 49.5375 94.7124C50.95 93.9624 52.5625 94.9124 54.0375 94.4124C54.2625 94.3374 54.1625 93.9749 53.9375 94.0499C52.6125 94.4874 51.225 93.7624 49.8875 94.1499C49.15 94.3624 48.6875 94.9124 47.85 94.6999C47.2125 94.5374 46.6625 94.1499 46.0125 94.0374C45.4 93.9249 44.8625 94.1374 44.3 94.3499C43.975 94.4749 43.625 94.6124 43.2625 94.6124C42.8125 94.6124 42.4375 94.3624 42.0375 94.2124C41.4625 93.9999 41.0375 94.0749 40.4875 94.3249C39.5875 94.7374 38.675 94.7249 38 93.9124C37.85 93.7249 37.575 93.9874 37.7375 94.1749Z" fill="#E8E8E8"/>
<path d="M47.4 90.9125C48.3875 91.4625 49.525 90.65 50.5 91.1625C50.8875 91.3625 51.1375 91.6875 51.6125 91.625C52 91.575 52.3 91.275 52.6 91.05C53.275 90.525 53.825 90.65 54.5625 90.95C55.1125 91.175 55.6375 91.3125 56.225 91.3C57.55 91.275 58.8625 90.7 60.175 91.1375C60.4 91.2125 60.5 90.85 60.275 90.775C59.15 90.4 58.025 90.725 56.8875 90.8625C56.2125 90.95 55.575 90.9375 54.9375 90.6875C54.4125 90.4875 53.8875 90.1875 53.3 90.2625C52.9125 90.3125 52.625 90.5375 52.325 90.775C52.075 90.975 51.8375 91.225 51.5 91.225C51.1625 91.2375 50.9625 90.975 50.675 90.825C49.7 90.2875 48.5375 91.1125 47.575 90.575C47.375 90.4625 47.1875 90.7875 47.4 90.9125Z" fill="#E8E8E8"/>
<path d="M158.312 83.1124C159.062 82.9124 159.6 82.9124 160.262 83.3499C160.587 83.5624 160.925 83.7249 161.312 83.7999C162 83.9249 162.712 83.7624 163.375 83.5874C164.187 83.3624 165.012 83.0624 165.862 83.0624C166.762 83.0624 167.5 83.6874 168.412 83.6124C170.112 83.4624 171.175 81.7749 173 81.9749C174.587 82.1499 176.162 83.1499 177.725 82.3874C177.937 82.2874 177.75 81.9624 177.537 82.0624C175.912 82.8499 174.15 81.5249 172.475 81.5874C171.712 81.6124 171.062 81.9374 170.412 82.3124C169.625 82.7874 168.762 83.4374 167.775 83.1999C167.325 83.0999 166.937 82.8499 166.487 82.7499C166.137 82.6749 165.787 82.6749 165.437 82.7124C164.662 82.7874 163.925 83.0499 163.187 83.2499C162.325 83.4749 161.425 83.6374 160.612 83.1499C160.275 82.9374 159.975 82.6874 159.575 82.6124C159.112 82.5249 158.65 82.6499 158.212 82.7624C157.987 82.8124 158.075 83.1749 158.312 83.1124Z" fill="#E8E8E8"/>
<path d="M171.925 86.4124C172.637 85.9999 173.462 85.9249 174.212 86.2749C174.662 86.4749 175.012 86.7374 175.525 86.6999C176.687 86.6124 177.487 85.5874 178.7 86.1374C179.062 86.2999 179.412 86.4749 179.825 86.4124C180.337 86.3249 180.7 85.9124 181.162 85.7374C182.3 85.2999 183.587 85.9374 184.775 85.6749C185.012 85.6249 184.912 85.2624 184.675 85.3124C183.5 85.5624 182.287 84.9624 181.125 85.3499C180.587 85.5249 180.175 86.0374 179.587 86.0374C179 86.0374 178.537 85.5624 177.925 85.5749C176.8 85.5999 175.9 86.7249 174.75 86.1749C173.725 85.6749 172.75 85.5249 171.712 86.1249C171.525 86.1999 171.712 86.5249 171.925 86.4124Z" fill="#E8E8E8"/>
<path d="M162.187 105.087C162.987 104.837 163.55 105.037 164.275 105.35C164.675 105.512 165.05 105.55 165.475 105.475C166 105.362 166.475 105.112 166.987 104.975C167.762 104.775 168.2 105.2 168.875 105.462C169.875 105.85 170.687 105.137 171.612 104.912C172.787 104.625 173.862 105.462 175.05 105.287C175.287 105.25 175.187 104.887 174.95 104.925C173.8 105.1 172.762 104.275 171.6 104.537C171.05 104.662 170.575 104.962 170.037 105.125C169.25 105.362 168.8 104.937 168.112 104.662C167.175 104.3 166.35 104.9 165.45 105.1C164.8 105.25 164.362 104.925 163.775 104.725C163.212 104.537 162.637 104.562 162.087 104.737C161.85 104.8 161.95 105.162 162.187 105.087Z" fill="#E8E8E8"/>
<path opacity="0.22" d="M186.2 143.025C169.462 146.225 152.713 149.413 135.975 152.613C115.938 146.363 95.9125 140.113 75.875 133.863C102.587 133.963 129.3 134.05 156 134.15C166.075 137.113 176.137 140.075 186.2 143.025Z" fill="#666666"/>
<path opacity="0.19" d="M166.75 138.3C152.637 141.688 138.512 145.075 124.4 148.463C108.475 143.6 92.5374 138.738 76.6124 133.863C98.2124 132.05 119.825 130.238 141.425 128.425C149.862 131.725 158.3 135.013 166.75 138.3Z" fill="#666666"/>
<path d="M75.8125 96.0625C76 108.525 76.2 120.987 76.3875 133.462C92.2125 137.037 108.025 140.6 123.85 144.175C123.825 129.75 123.787 115.325 123.762 100.9C107.775 99.275 91.7875 97.6625 75.8125 96.0625Z" fill="white" stroke="#161616" stroke-width="2" stroke-miterlimit="10"/>
<path d="M158.688 92.7749C158.625 106.525 158.563 120.275 158.5 134.025C146.988 137.412 135.463 140.787 123.95 144.175C123.913 129.587 123.875 115.012 123.838 100.425C135.45 97.8874 147.075 95.3374 158.688 92.7749Z" fill="white" stroke="#161616" stroke-width="2" stroke-miterlimit="10"/>
<path d="M123.438 100.775C107.625 99.1374 91.825 97.4999 76.025 95.8624C86.4375 93.2124 96.85 90.5624 107.263 87.9124C124.288 89.5499 141.325 91.1874 158.35 92.8374C146.713 95.4749 135.075 98.1249 123.438 100.775Z" fill="white" stroke="#161616" stroke-width="2" stroke-miterlimit="10"/>
<path d="M135.013 90.5999C130.95 90.3249 126.9 90.0499 122.838 89.7749C114.838 92.6999 106.838 95.6249 98.85 98.5499C98.775 111.812 98.7 125.075 98.6125 138.337C102.2 139.2 105.788 140.05 109.375 140.912C109.225 127.175 109.063 113.45 108.913 99.7124C117.613 96.6874 126.313 93.6374 135.013 90.5999Z" fill="#F66F5D" stroke="#E43737" stroke-width="2" stroke-miterlimit="10"/>
<path d="M138.512 139.75C141.825 138.737 145.15 137.725 148.462 136.712C148.35 122.975 148.225 109.25 148.113 95.5124C131.888 93.5999 115.65 91.6874 99.425 89.7749C96.6125 90.4749 93.8125 91.1749 91 91.8874C106.875 94.3499 122.75 96.7999 138.637 99.2624C138.6 112.762 138.562 126.25 138.512 139.75Z" fill="#F66F5D" stroke="#E43737" stroke-width="2" stroke-miterlimit="10"/>
<path d="M139.35 71.9749C140.5 72.4499 140.688 75.4249 140.063 77.7499C137.663 86.6624 122.125 90.2749 121.388 88.9124C121.075 88.3249 123.75 87.2124 129.375 81.6374C135.575 75.4874 137.838 71.3624 139.35 71.9749Z" fill="white" stroke="#E43737" stroke-width="2" stroke-miterlimit="10"/>
<path d="M107.375 77.8373C107.675 79.2498 108.412 80.8873 113.15 85.4373C116.325 88.4873 117.925 90.0123 118.375 89.7123C119.287 89.0873 116.262 83.0748 113.387 78.7873C111.912 76.5873 109.325 72.7498 108.012 73.2498C107.075 73.5998 107 76.0748 107.375 77.8373Z" fill="white" stroke="#E43737" stroke-width="2" stroke-miterlimit="10"/>
<path d="M119.3 94.9374C121.136 94.9374 122.625 93.3648 122.625 91.4249C122.625 89.485 121.136 87.9124 119.3 87.9124C117.464 87.9124 115.975 89.485 115.975 91.4249C115.975 93.3648 117.464 94.9374 119.3 94.9374Z" fill="#F66F5D" stroke="#E43737" stroke-width="2" stroke-miterlimit="10"/>
<path d="M119.363 89.9999C121.25 88.1624 123.163 86.2124 125.075 84.1749C129.3 79.6749 133.063 75.2374 136.4 70.9374C137.125 70.8499 138.55 70.7624 139.15 71.5749C140.025 72.7374 138.638 75.0374 137.988 76.1249C134.675 81.6374 124.138 87.4999 119.363 89.9999Z" fill="#F66F5D" stroke="#E43737" stroke-width="2" stroke-miterlimit="10"/>
<path d="M108.138 73.0623C108.6 72.6373 110.038 73.4998 110.888 74.0123C117.938 78.2498 118.8 88.2748 118.938 90.0998C113.188 82.6748 106.975 74.1498 108.138 73.0623Z" fill="#F66F5D" stroke="#E43737" stroke-width="2" stroke-miterlimit="10"/>
<path d="M78.425 102.812C84.125 102.912 89.8499 102.888 95.5374 103.15C101.287 103.413 106.987 104.212 112.662 105.2C115.862 105.762 119.062 106.375 122.262 107C122.5 107.05 122.6 106.687 122.362 106.637C116.762 105.55 111.15 104.475 105.487 103.713C99.7625 102.95 94.0374 102.7 88.2624 102.6C84.9874 102.55 81.7 102.488 78.425 102.438C78.1875 102.437 78.1875 102.812 78.425 102.812Z" fill="#161616"/>
<path d="M126.987 106.812C136.562 103.937 146.325 101.7 156.212 100.125C156.45 100.087 156.35 99.725 156.112 99.7625C146.237 101.337 136.475 103.575 126.887 106.45C126.662 106.512 126.762 106.875 126.987 106.812Z" fill="#161616"/>
<path d="M109.787 124.025C109.787 127.812 109.787 131.587 109.787 135.375C109.787 135.612 110.162 135.612 110.162 135.375C110.162 131.587 110.162 127.812 110.162 124.025C110.162 123.787 109.787 123.787 109.787 124.025Z" fill="#161616"/>
<path d="M111.025 133.112C111.025 135 111.025 136.9 111.025 138.787C111.025 139.025 111.4 139.025 111.4 138.787C111.4 136.9 111.4 135 111.4 133.112C111.4 132.862 111.025 132.862 111.025 133.112Z" fill="#161616"/>
<path d="M136.9 114.387C136.9 117.412 136.9 120.437 136.9 123.462C136.9 123.7 137.275 123.7 137.275 123.462C137.275 120.437 137.275 117.412 137.275 114.387C137.275 114.15 136.9 114.15 136.9 114.387Z" fill="#161616"/>
<path d="M137.575 126.975C137.575 129.012 137.575 131.063 137.575 133.1C137.575 133.338 137.95 133.338 137.95 133.1C137.95 131.063 137.95 129.012 137.95 126.975C137.95 126.737 137.575 126.737 137.575 126.975Z" fill="#161616"/>
<path d="M91.8875 113.9C91.8875 115.537 91.8875 117.175 91.8875 118.812C91.8875 119.05 92.2625 119.05 92.2625 118.812C92.2625 117.175 92.2625 115.537 92.2625 113.9C92.2625 113.662 91.8875 113.662 91.8875 113.9Z" fill="#161616"/>
<path d="M90.825 120.137C90.825 121.462 90.825 122.787 90.825 124.112C90.825 124.35 91.2 124.35 91.2 124.112C91.2 122.787 91.2 121.462 91.2 120.137C91.2 119.9 90.825 119.9 90.825 120.137Z" fill="#161616"/>
<path opacity="0.21" d="M157.888 133.975C146.588 137.412 135.288 140.862 123.988 144.3C123.988 129.95 123.988 115.6 123.988 101.25C135.35 98.6499 146.713 96.0499 158.075 93.4624C158.025 106.962 157.963 120.462 157.888 133.975Z" fill="#666666"/>
<path opacity="0.21" d="M158.637 134.137C147.125 137.287 135.625 140.437 124.113 143.587C124.038 131.025 123.962 118.475 123.875 105.912C128.963 110.575 134.062 115.237 139.15 119.912C145.6 117.775 152.062 115.637 158.512 113.5C158.562 120.375 158.6 127.262 158.637 134.137Z" fill="#666666"/>
<path opacity="0.14" d="M139.912 72.6248C139.3 72.4998 138.65 76.7123 136.512 80.1748C134.575 83.3123 130.712 86.9873 122.2 89.1123C123.3 89.0123 124.975 88.7873 126.937 88.2123C128.975 87.6248 137.575 85.1248 139.837 78.4123C140.762 75.6373 140.412 72.7248 139.912 72.6248Z" fill="#666666"/>
<path opacity="0.2" d="M109.05 99.3999C112.663 101.85 116.288 104.3 119.9 106.75C116.575 106.175 113.263 105.612 109.938 105.037C110.075 111.712 110.625 119.2 111.9 127.325C112.738 132.662 113.775 137.625 114.925 142.175C113.163 141.687 111.388 141.2 109.625 140.7C109.438 126.937 109.25 113.162 109.05 99.3999Z" fill="#666666"/>
<path opacity="0.13" d="M109.925 99.5123C115.238 98.7498 120.563 97.9873 125.875 97.2248C123.538 96.9123 121.2 96.5998 118.863 96.2998C117.25 96.8998 115.925 97.3123 115 97.5873C114.05 97.8623 113.338 98.0373 112.275 98.4498C111.263 98.8373 110.45 99.2373 109.925 99.5123Z" fill="#666666"/>
<path d="M153.2 131.212C152.85 131.537 152.512 131.875 152.162 132.2C152.762 134.512 153.362 136.825 153.962 139.137C154.437 138.9 154.925 138.675 155.4 138.437C154.675 136.025 153.937 133.612 153.2 131.212Z" fill="#161616" stroke="#161616" stroke-miterlimit="10"/>
<path d="M153.887 130.125C153.537 130.025 153.2 129.925 152.85 129.825C152.787 128.625 152.712 127.425 152.65 126.225C154.687 125.487 156.737 124.75 158.775 124C158.95 124.05 159.137 124.1 159.312 124.15C157.512 126.138 155.7 128.137 153.887 130.125Z" fill="#161616" stroke="#161616" stroke-miterlimit="10"/>
<path d="M153.825 126.225C153.875 127.55 153.937 128.863 153.987 130.188C155.725 129.688 157.45 129.2 159.187 128.7C159.212 127.212 159.237 125.737 159.275 124.25C157.45 124.913 155.637 125.562 153.825 126.225Z" fill="white" stroke="#161616" stroke-miterlimit="10"/>
<path d="M153.25 131.175C155.4 130.625 157.537 130.075 159.688 129.525C159.613 130.162 159.575 130.887 159.6 131.675C159.688 133.75 160.238 135.45 160.75 136.625C158.963 137.225 157.175 137.837 155.387 138.437C154.675 136.012 153.962 133.6 153.25 131.175Z" fill="white" stroke="#161616" stroke-miterlimit="10"/>
<path d="M155.462 129.737C155.45 129.962 155.487 130.187 155.575 130.4C155.662 130.625 156.025 130.525 155.937 130.3C155.862 130.112 155.837 129.925 155.837 129.737C155.85 129.5 155.475 129.5 155.462 129.737Z" fill="#161616"/>
<path d="M156.612 129.538C156.587 129.738 156.625 129.938 156.7 130.113C156.737 130.2 156.825 130.275 156.925 130.238C157.012 130.213 157.1 130.1 157.05 130.013C156.987 129.85 156.962 129.7 156.975 129.538C156.987 129.438 156.887 129.35 156.787 129.35C156.687 129.35 156.612 129.438 156.612 129.538Z" fill="#161616"/>
<path d="M155.025 138.738C155.287 139.963 156.462 141.075 157.425 141.825C158.487 142.65 159.737 143.138 161.062 143.288C161.3 143.313 161.3 142.938 161.062 142.913C159.775 142.763 158.537 142.263 157.525 141.425C156.675 140.725 155.625 139.725 155.387 138.638C155.337 138.4 154.975 138.5 155.025 138.738Z" fill="#161616"/>
<path d="M155.9 138.413C157.125 140.275 158.75 142 161.05 142.375C161.287 142.413 161.387 142.05 161.15 142.013C158.937 141.65 157.4 140.013 156.212 138.225C156.087 138.013 155.762 138.2 155.9 138.413Z" fill="#161616"/>
<path d="M161.25 142.15C161.337 141.763 161.462 141.388 161.65 141.025C161.725 140.888 161.837 140.75 161.887 140.613C161.775 140.388 161.737 140.4 161.8 140.638C161.825 140.763 161.837 140.888 161.85 141.025C161.875 141.375 161.85 141.713 161.812 142.063C161.8 142.213 161.812 142.725 161.712 142.838C161.612 142.95 161.387 142.938 161.262 142.95C161.025 142.963 161.025 143.338 161.262 143.325C161.512 143.313 161.775 143.425 161.975 143.213C162.175 142.988 162.137 142.55 162.175 142.275C162.237 141.8 162.262 141.313 162.212 140.825C162.187 140.6 162.2 140.288 161.987 140.175C161.937 140.15 161.85 140.138 161.8 140.175C161.287 140.575 161.025 141.475 160.887 142.063C160.825 142.288 161.187 142.388 161.25 142.15Z" fill="#161616"/>
<path d="M158.787 137.412C159.95 138.825 161.75 139.5 163.55 139.262C163.787 139.225 163.687 138.875 163.45 138.9C161.775 139.125 160.112 138.45 159.05 137.15C158.9 136.962 158.637 137.225 158.787 137.412Z" fill="#161616"/>
<path d="M157.788 137.887C159.188 139.4 161.175 140.237 163.238 140.175C163.475 140.162 163.475 139.787 163.238 139.8C161.263 139.862 159.388 139.075 158.05 137.625C157.9 137.437 157.625 137.712 157.788 137.887Z" fill="#161616"/>
<path d="M163.825 139.025C163.888 138.788 163.963 138.55 164.05 138.325C164.075 138.25 164.3 137.538 164.388 137.538C164.325 137.488 164.262 137.45 164.212 137.4C164.337 137.775 164.25 138.3 164.212 138.675C164.162 139.138 164.063 139.588 163.938 140.038C163.875 140.275 164.238 140.375 164.3 140.138C164.438 139.663 164.537 139.175 164.587 138.675C164.625 138.263 164.713 137.7 164.575 137.3C164.55 137.225 164.475 137.163 164.4 137.163C163.837 137.2 163.588 138.5 163.475 138.925C163.4 139.163 163.763 139.263 163.825 139.025Z" fill="#161616"/>
<path d="M163.1 140.15C163.4 140.275 163.712 140.325 164.037 140.263C164.275 140.225 164.175 139.863 163.937 139.9C163.725 139.938 163.5 139.913 163.287 139.825C163.075 139.725 162.875 140.05 163.1 140.15Z" fill="#161616"/>
<path d="M156.262 140.275C156.312 139.975 156.575 139.787 156.875 139.825C157.112 139.85 157.112 139.475 156.875 139.45C156.425 139.4 155.975 139.725 155.9 140.175C155.85 140.412 156.212 140.512 156.262 140.275Z" fill="#161616"/>
<path d="M157.362 141.388C157.412 141.138 157.6 140.963 157.837 140.913C158.075 140.863 157.975 140.5 157.737 140.55C157.375 140.625 157.075 140.913 157 141.275C156.95 141.525 157.3 141.625 157.362 141.388Z" fill="#161616"/>
<path d="M158.525 142.275C158.612 142.012 158.825 141.825 159.1 141.775C159.338 141.725 159.237 141.362 159 141.412C158.6 141.487 158.288 141.787 158.163 142.175C158.088 142.4 158.45 142.5 158.525 142.275Z" fill="#161616"/>
<path d="M159.75 141.837C159.462 142.037 159.325 142.362 159.387 142.712C159.425 142.95 159.787 142.85 159.75 142.612C159.725 142.437 159.8 142.262 159.937 142.162C160.137 142.025 159.95 141.7 159.75 141.837Z" fill="#161616"/>
<path d="M161.687 140.763C161.45 141.4 161.575 142.225 161.575 142.9C161.575 143.138 161.95 143.138 161.95 142.9C161.95 142.263 161.825 141.463 162.05 140.863C162.125 140.638 161.762 140.538 161.687 140.763Z" fill="#161616"/>
<path d="M159.675 138.887C159.675 138.687 159.8 138.512 160 138.462C160.237 138.4 160.137 138.037 159.9 138.1C159.55 138.187 159.3 138.525 159.3 138.887C159.3 139.125 159.675 139.125 159.675 138.887Z" fill="#161616"/>
<path d="M158.662 138.225C158.762 138.025 158.95 137.9 159.175 137.863C159.275 137.85 159.325 137.725 159.3 137.638C159.275 137.525 159.175 137.488 159.075 137.513C158.762 137.563 158.487 137.763 158.337 138.05C158.237 138.25 158.562 138.438 158.662 138.225Z" fill="#161616"/>
<path d="M161.687 139.625C161.687 139.525 161.737 139.437 161.837 139.387C162.05 139.275 161.862 138.95 161.65 139.062C161.437 139.175 161.312 139.4 161.325 139.625C161.312 139.862 161.687 139.862 161.687 139.625Z" fill="#161616"/>
<path d="M154.737 127.887C154.987 127.887 155.237 127.887 155.487 127.887C155.725 127.887 155.725 127.512 155.487 127.512C155.237 127.512 154.987 127.512 154.737 127.512C154.5 127.512 154.5 127.887 154.737 127.887Z" fill="#161616"/>
<path d="M157.725 127.088C157.913 126.9 158.1 126.713 158.288 126.525C158.463 126.35 158.188 126.088 158.025 126.263C157.838 126.45 157.65 126.638 157.463 126.825C157.3 126.988 157.563 127.25 157.725 127.088Z" fill="#161616"/>
<path d="M156.313 128.438C156.663 128.55 157.038 128.388 157.225 128.088C157.35 127.875 157.025 127.688 156.9 127.9C156.8 128.075 156.6 128.138 156.413 128.088C156.175 128.013 156.088 128.375 156.313 128.438Z" fill="#161616"/>
<path d="M158.862 132.337C158.212 132.525 157.562 132.712 156.912 132.9C156.825 132.725 156.712 132.475 156.662 132.15C156.6 131.787 156.625 131.487 156.662 131.287C157.362 131.15 158.062 131.013 158.762 130.875C158.7 131.062 158.637 131.388 158.7 131.775C158.737 132.013 158.8 132.2 158.862 132.337Z" fill="#F66F5D"/>
<path opacity="0.24" d="M155.125 125.812C155.163 127.062 155.212 128.325 155.25 129.575C156.538 129.237 157.825 128.912 159.113 128.575C159.125 127.2 159.137 125.837 159.137 124.462C157.812 124.925 156.462 125.362 155.125 125.812Z" fill="#666666"/>
<path opacity="0.24" d="M155.125 130.95C155.3 131.8 155.525 132.7 155.775 133.625C156.187 135.112 156.662 136.475 157.15 137.7C158.275 137.312 159.387 136.937 160.512 136.55C160.237 135.962 159.975 135.262 159.762 134.462C159.275 132.562 159.338 130.9 159.488 129.762C158.038 130.162 156.587 130.562 155.125 130.95Z" fill="#666666"/>
<path d="M89.55 31.4751C89.6 32.4876 89.6875 33.9626 89.85 35.7251C90.25 40.1126 90.4875 43.9001 91.5 46.9001C92.2625 49.1626 94.0625 53.4001 98.5625 57.6626C98.3 58.5251 97.875 59.6126 97.1625 60.7876C96.2875 62.2251 95.2875 63.2501 94.5375 63.9126C90.8375 60.3001 88.9 56.7001 87.875 54.3751C85.3625 48.6501 85.3 43.4376 85.25 39.5751C85.2125 36.4376 85.475 33.8001 85.75 31.9126C85.3 31.4876 84.6125 30.8251 83.75 30.0376C82.175 28.6126 81.575 28.1501 81.675 27.9501C81.7625 27.7751 82.4125 27.7876 85.1125 28.7501C82.7875 25.7626 81.75 24.1626 82 23.9251C82.225 23.7126 83.475 24.6126 85.7625 26.6251C84.0625 22.4001 83.7875 21.1376 84.0125 21.0251C84.2375 20.9126 85.1125 21.9251 87.5625 25.9876C87.175 22.7126 87.3 21.9751 87.5 21.9251C87.85 21.8501 88.625 23.8876 88.85 24.5001C89.375 25.9001 89.6625 27.1001 89.8125 27.9126C91.925 26.2501 92.35 26.4001 92.45 26.5001C92.8125 26.8251 91.85 28.4751 91.6125 28.8876C90.925 30.0876 90.1375 30.9376 89.55 31.4751Z" fill="white" stroke="#161616" stroke-miterlimit="10"/>
<path opacity="0.15" d="M84.1251 21.2251C83.9126 21.3376 84.7001 23.4376 85.7251 25.2251C86.0126 25.7126 86.1875 25.9501 87.7 28.2251C88.3125 29.1501 88.8126 29.9001 89.1501 30.4001C88.7126 32.2001 88.2376 34.6751 88.1126 37.6501C88.0251 39.7251 87.8876 43.8376 89.3376 48.7626C90.9126 54.1126 93.6501 57.9751 95.6501 60.3126C96.6126 59.4501 97.5751 58.5876 98.5376 57.7251C94.4001 53.7501 92.5751 49.7626 91.7376 47.5001C90.5501 44.2751 90.2251 41.1751 89.9376 38.4751C89.6251 35.6626 89.5876 33.2876 89.6126 31.5501C90.2501 31.0501 91.2001 30.1751 91.9001 28.8126C92.0501 28.5126 92.8751 26.9251 92.4626 26.5751C92.0251 26.2001 90.4376 27.4001 89.7751 27.9126C88.3126 23.0751 87.7251 21.9876 87.4876 22.0376C87.3501 22.0626 87.3125 22.4626 87.2625 23.1001C87.1625 24.4001 87.3876 25.4626 87.6001 26.1251C87.5876 26.1501 87.5876 26.1501 84.1251 21.2251Z" fill="#666666"/>
<path opacity="0.2" d="M92.1251 27.7126C91.6126 27.9501 90.5251 28.5376 89.6626 29.7876C88.8751 30.9251 88.6626 32.0251 88.6001 32.5876C88.4251 34.3376 88.3876 36.3376 88.6126 38.5001C89.4001 46.2001 93.0126 51.8501 95.3501 54.8626C93.7376 52.2001 91.6626 48.1126 90.4751 42.7751C89.4501 38.2001 89.4126 34.2251 89.6001 31.3626C90.0876 30.8501 90.6376 30.2001 91.1626 29.4001C91.5626 28.8001 91.8751 28.2251 92.1251 27.7126Z" fill="#666666"/>
<path d="M110.862 57.0251C110 57.4251 109.275 57.7001 108.85 58.4876C108.012 60.0251 109.125 62.0751 109.4 62.5876C110.1 63.8876 111.1 64.6876 111.862 65.1626C114.287 64.1126 117.912 62.1126 121.125 58.4251C125.275 53.6626 126.475 48.6126 127.1 45.9001C127.937 42.2001 127.975 39.0376 127.862 36.8876C128.475 35.8251 129.362 34.3251 130.5 32.5251C131.5 30.9251 132.05 30.0876 131.837 29.8626C131.675 29.7001 131.05 29.8376 128.837 31.4251C129.637 28.3126 129.9 26.7001 129.612 26.5876C129.337 26.4876 128.562 27.7501 127.287 30.3876C127.475 26.7876 127.387 24.9626 127.025 24.9126C126.65 24.8501 125.962 26.8126 124.962 30.7751C124.375 28.0376 123.95 26.6876 123.675 26.7126C123.35 26.7501 123.25 28.6876 123.35 32.5126C121.462 31.4751 120.387 31.1001 120.125 31.4126C119.762 31.8501 120.975 33.5751 123.762 36.6126C123.825 37.7876 123.812 39.6626 123.362 41.8751C123.137 42.9876 121.537 50.8126 116.087 53.9126C114.325 54.9251 112.687 56.1751 110.862 57.0251Z" fill="white" stroke="#161616" stroke-miterlimit="10"/>
<path opacity="0.16" d="M129.612 26.5625C129.412 26.5 129.075 27.65 127.7 29.625C127.375 30.1 127.225 30.275 127.1 30.65C126.762 31.7375 127.362 32.425 127.337 33.3375C127.312 33.9875 126.975 34.9 125.425 36C125.687 36.9375 125.975 38.275 126.062 39.8875C126.4 46.325 123.025 51.0375 121.85 53C120.737 54.8625 117.412 59.6875 109.325 62.65C109.387 62.9625 109.612 63.825 110.387 64.5125C110.862 64.9375 111.362 65.125 111.662 65.2C113.337 64.5125 115.662 63.3375 118.062 61.3625C121.85 58.2375 123.687 54.825 124.562 53.15C128.1 46.425 128.1 39.8625 127.862 36.5875C128.575 35.4625 129.2 34.475 129.687 33.7C131.437 30.925 131.987 30.0375 131.775 29.825C131.662 29.7125 131.287 29.7625 130.075 30.5875C129.662 30.8375 129.25 31.1 128.837 31.35C129.725 27.6125 129.787 26.6125 129.612 26.5625Z" fill="#666666"/>
<path opacity="0.28" d="M130.125 32.9875C127.25 34.75 126.575 36.2501 126.512 37.3251C126.487 37.7501 126.562 37.8625 126.65 38.875C126.65 38.875 126.575 40.725 126.6 43.0375C126.637 46.3375 125.275 49.3251 123.612 52.9501C122.737 54.85 121.437 57.3501 119.512 60.0876C120.9 58.7126 122.387 56.9501 123.725 54.7626C128 47.7001 128 40.5 127.75 37.0375C128.537 35.675 129.325 34.325 130.125 32.9875Z" fill="#666666"/>
<path opacity="0.11" d="M120.087 31.625C122.875 33.05 123.662 33.2875 123.75 33.1625C123.825 33.0375 123.362 32.55 122.937 32.275C122.762 32.1625 122.525 32.05 122.05 31.85C121.2 31.4875 120.975 31.4625 120.812 31.4625C120.487 31.45 120.237 31.55 120.087 31.625Z" fill="#666666"/>
<path d="M82.9124 110.425C82.8124 111.05 83.3874 111.787 84.5124 113.275C85.1124 114.062 85.6624 114.662 86.0249 115.05C85.4624 116.062 84.4749 118.237 84.9624 120.837C85.1124 121.675 85.3749 123.062 86.1249 123.237C87.4249 123.55 89.3624 120.012 90.1249 118.337C90.9874 116.45 91.3624 114.737 91.5499 113.525C90.2499 111.775 88.9374 110.025 87.6374 108.275C85.0499 108.5 83.0749 109.325 82.9124 110.425Z" fill="#161616" stroke="#161616" stroke-width="2" stroke-miterlimit="10"/>
<path d="M98.2125 83.7124C99.0375 89.9249 97.7624 92.3749 96.3249 93.4249C95.0249 94.3749 93.7374 94.0624 90.6624 94.9499C87.9749 95.7374 85.9125 96.8624 84.55 97.7374C84.725 98.9874 85.0875 100.587 85.8125 102.325C86.9625 105.075 88.5624 107.012 89.6999 108.175C89.4749 108.65 88.5374 110.475 86.3499 111.4C84.575 112.162 82.9749 111.887 82.3874 111.762C80.3874 109.912 77.3125 106.475 75.925 101.412C75.3625 99.3499 74.675 96.6874 75.6875 93.7124C76.325 91.8499 77.3125 90.7999 79.3 88.6999C79.95 88.0124 82.7875 85.0749 87.8125 82.3999C90.75 80.8374 92.2374 80.0499 94 80.4124C96.2374 80.8999 97.625 82.7749 98.2125 83.7124Z" fill="#F66F5D"/>
<path opacity="0.21" d="M95.2875 83.3374C93.2625 84.5624 90.45 86.3499 87.2 88.6874C81.575 92.7374 79 94.8999 78.075 97.1499C77.175 99.3374 77.8125 103.337 85.9375 111.275C86.375 111.187 87.0625 110.975 87.75 110.5C88.8625 109.737 89.375 108.712 89.5625 108.25C88.65 107.312 87.5625 105.987 86.5875 104.237C85.2 101.737 84.65 99.3999 84.4125 97.8124C86.9625 96.0249 89.2 95.2874 90.825 94.9499C93.25 94.4374 95.2125 94.6374 96.7125 93.0874C97.475 92.2999 97.775 91.3999 98.05 90.5749C98.825 88.2624 98.5375 86.2124 98.3 85.1499C97.3 84.5624 96.2875 83.9499 95.2875 83.3374Z" fill="#666666"/>
<path opacity="0.16" d="M94.5375 85.0999C94.275 86.2499 93.85 87.5374 93.2125 88.8874C90.9875 93.5374 87.325 96.1124 85.2875 97.3124C86.925 96.2249 88.375 95.6499 89.4 95.3249C89.75 95.2124 90.1125 95.1124 93.95 94.1124C95.7 93.6499 96.2 93.5249 96.725 93.0249C97.0375 92.7249 97.55 92.1124 97.95 89.8874C98.15 88.7499 98.35 87.0874 98.2125 85.0249C96.975 85.0499 95.75 85.0749 94.5375 85.0999Z" fill="#666666"/>
<path opacity="0.17" d="M84.425 97.4624C84.0875 99.0499 83.6875 102.1 84.7375 105.662C85.4 107.912 86.4375 109.612 87.2375 110.725C87.6125 110.512 88.1375 110.15 88.65 109.575C89.0875 109.075 89.3625 108.587 89.5375 108.212C88.625 107.275 87.525 105.95 86.5625 104.187C85.1125 101.537 84.6125 99.0624 84.425 97.4624Z" fill="#666666"/>
<path d="M91.625 109.8C92.45 110.963 93.2875 112.113 94.1125 113.275C93.6625 114.463 92.525 117.975 94.2 120.75C94.4875 121.225 95 122.075 95.7125 122.088C97.225 122.113 98.3375 118.363 98.5625 117.638C98.9375 116.4 99.325 114.488 99.1 112.025C98.5375 108.413 95.9125 106.463 94.1125 106.863C92.4625 107.225 91.7125 109.55 91.625 109.8Z" fill="#161616" stroke="#161616" stroke-width="2" stroke-miterlimit="10"/>
<path d="M107.088 83.3001C108.15 90.0001 105.987 92.3251 105.2 93.0126C104.462 93.6501 103.75 93.9001 99.7625 95.2251C98.275 95.7251 96.0875 96.4501 93.4125 97.3251C93.5875 98.5751 93.95 100.175 94.675 101.913C95.825 104.663 97.425 106.6 98.5625 107.763C98.3375 108.238 97.4 110.063 95.2125 110.988C93.4375 111.75 91.8375 111.475 91.25 111.35C89.25 109.5 86.175 106.063 84.7875 101C84.225 98.9376 83.5375 96.2751 84.55 93.3001C85.1875 91.4376 86.175 90.3876 88.1625 88.2876C88.8125 87.6001 91.65 84.6626 96.675 81.9876C99.6125 80.4251 101.1 79.6376 102.863 80.0001C105.125 80.4751 106.5 82.3626 107.088 83.3001Z" fill="#F66F5D"/>
<path opacity="0.21" d="M98.8625 83.0251C98.4625 84.2626 97.675 86.2626 96.175 88.3751C92.45 93.6001 88.25 93.9126 87.05 96.8376C86.15 99.0251 86.7875 103.025 94.9125 110.963C95.4 110.763 96.025 110.463 96.675 109.975C97.6125 109.275 98.2 108.488 98.55 107.938C97.625 106.975 96.55 105.65 95.575 103.925C94.1375 101.363 93.5375 98.9751 93.2625 97.3251C96.1 96.3626 98.3875 95.6501 99.9125 95.1751C102.962 94.2501 104.525 93.8501 105.737 92.3126C106.487 91.3501 106.8 90.3376 107 89.6751C107.625 87.6376 107.45 85.8626 107.275 84.8376C104.475 84.2501 101.675 83.6376 98.8625 83.0251Z" fill="#666666"/>
<path opacity="0.16" d="M103.512 84.7751C103.25 85.9376 102.837 87.2251 102.188 88.5626C99.6125 93.8251 95.025 96.4001 92.875 97.4126C95.05 96.7251 97.0125 96.1001 98.725 95.5501C98.725 95.5501 99.6125 95.2626 101.787 94.4876C104.562 93.4876 105.037 93.2376 105.512 92.7626C106.35 91.9126 106.575 90.9626 106.912 89.5751C107.162 88.5126 107.438 86.8376 107.175 84.7126C105.963 84.7376 104.737 84.7626 103.512 84.7751Z" fill="#666666"/>
<path opacity="0.17" d="M93.4 97.1501C93.0625 98.7376 92.6625 101.788 93.7125 105.35C94.375 107.6 95.4125 109.3 96.2125 110.413C96.5875 110.2 97.1125 109.838 97.625 109.263C98.0625 108.763 98.3375 108.275 98.5125 107.9C97.6 106.963 96.5 105.638 95.5375 103.875C94.0875 101.225 93.5875 98.7501 93.4 97.1501Z" fill="#666666"/>
<path d="M98.2375 56.8375C95.8125 58.6375 94.6625 61.4 94.4 62.05C94.2375 62.4375 93.775 63.6625 93.5625 65.35C93.3125 67.275 93.5125 68.8875 93.7125 69.95C93.8 71.4375 93.75 73.9 92.7125 76.7C91.975 78.7125 90.975 80.2125 90.1875 81.225C91.7875 82.45 94.8 84.4375 99.0875 85.3625C102.525 86.1125 105.45 85.8875 107.287 85.5875C108.362 82.55 109.413 79.0875 110.275 75.2375C111.088 71.6125 111.625 68.2375 111.963 65.1875C111.425 64.925 109.85 64.1 109.05 62.275C109 62.1625 107.85 59.45 109.125 57.825C109.888 56.8625 110.963 56.975 110.963 56.675C110.963 55.875 103.338 53.0625 98.2375 56.8375Z" fill="white" stroke="#161616" stroke-miterlimit="10"/>
<path opacity="0.13" d="M101.575 55.525C101.325 55.975 101.238 57.175 101.238 57.85C101.238 58.5625 101.313 59.1625 101.4 59.5875C101.4 60.7 102.6 66.2 101.763 71.425C100.8 77.425 97.5625 82.05 95.9875 84.0625C97.25 84.65 99.1375 85.35 101.525 85.6625C103.9 85.9625 105.888 85.7625 107.263 85.525C108.163 82.95 109.013 80.1125 109.763 77.025C110.788 72.8 111.425 68.8625 111.813 65.35C111.163 64.925 109.113 63.475 108.613 60.9625C108.475 60.2375 108.225 59.0125 108.963 57.9125C109.625 56.9125 110.688 56.6 111.063 56.5125C106.188 54.6875 102.25 54.3 101.575 55.525Z" fill="#666666"/>
<path opacity="0.17" d="M108.637 61.8C108.8 63.9875 108.762 66.6875 108.162 69.7C106.6 77.6125 102.15 82.9 99.75 85.35C100.75 85.6125 102.088 85.8626 103.675 85.8626C105.1 85.8751 106.312 85.6875 107.25 85.475C108.988 80.85 110.525 75.4625 111.387 69.3875C111.587 67.9875 111.75 66.625 111.863 65.2875C111.313 64.9625 110.563 64.425 109.838 63.6C109.275 62.95 108.887 62.3125 108.637 61.8Z" fill="#666666"/>
<path opacity="0.14" d="M100.113 57.325C100.738 58.5 101.938 59.2375 103.225 59.2625C105.25 59.3125 106.888 57.575 106.65 56.9625C106.488 56.5375 105.25 56.2875 100.113 57.325Z" fill="#666666"/>
<path d="M96.6624 41.0625C96.2624 41.025 95.8875 43.175 95.025 46.5C93.675 51.7375 92.8625 53.0875 93.7125 54.8875C93.8625 55.2 94.4625 56.45 95.775 56.95C97.15 57.475 99.1374 57.125 100.1 55.95C102.287 53.275 97.9624 47.7 97.0374 42.025C96.9874 41.775 96.8874 41.0875 96.6624 41.0625Z" fill="black"/>
<path d="M100.237 54.1374C100.35 54.5999 100.475 55.3124 100.362 56.1624C100.3 56.6874 100.162 57.1249 100.037 57.4749C100.575 57.6249 101.4 57.7874 102.387 57.7374C103.55 57.6749 104.462 57.3374 105 57.0874C104.812 56.6749 104.637 56.2249 104.475 55.7124C104.187 54.8249 104.037 53.9999 103.95 53.2874C103.775 53.4999 103.187 54.1249 102.187 54.3374C101.25 54.5374 100.5 54.2499 100.237 54.1374Z" fill="white" stroke="#161616" stroke-miterlimit="10"/>
<path d="M96.7749 42.4999C95.5374 45.7499 95.6249 50.1624 98.0999 53.3124C98.4874 53.8124 98.8624 54.1749 99.1124 54.3999C100.837 54.5624 102.162 54.2874 102.962 54.0499C103.525 53.8874 104.1 53.7124 104.712 53.2999C106.075 52.3874 106.637 51.0124 106.85 50.3374C107.25 50.6624 107.562 50.7124 107.775 50.6999C108.9 50.6249 110.062 48.5374 109.375 47.1374C109 46.3749 108.2 46.0624 107.875 45.9624C107.625 44.9749 106.712 41.9249 103.837 40.2124C103.1 39.7749 100.887 38.4624 98.9999 39.3624C97.7499 39.9499 97.2624 41.2249 96.7749 42.4999Z" fill="white" stroke="#161616" stroke-miterlimit="10"/>
<path d="M100.575 54.8875C100.537 54.9 100.487 54.9125 100.45 54.9375C100.25 55.0125 100.287 55.2875 100.5 55.3C101.537 55.4 102.825 54.7125 103.662 54.15C103.862 54.0125 103.675 53.6875 103.475 53.825C102.687 54.35 101.475 55.0125 100.5 54.925C100.512 55.05 100.537 55.175 100.55 55.2875C100.587 55.275 100.637 55.2625 100.675 55.2375C100.9 55.1625 100.8 54.8 100.575 54.8875Z" fill="#161616"/>
<path d="M100.613 55.0623C101.413 54.9498 102.2 54.7373 102.95 54.4373C103.175 54.3498 103.075 53.9873 102.85 54.0748C102.088 54.3748 101.313 54.5873 100.513 54.6998C100.275 54.7373 100.375 55.0998 100.613 55.0623Z" fill="#161616"/>
<path d="M100.662 54.8624C100.938 54.8874 101.225 54.8749 101.5 54.7999C101.738 54.7374 101.638 54.3749 101.4 54.4374C101.163 54.4999 100.912 54.5124 100.662 54.4874C100.425 54.4624 100.425 54.8374 100.662 54.8624Z" fill="#161616"/>
<path d="M102.975 48.4624C103.212 48.4624 103.212 48.0874 102.975 48.0874C102.737 48.0874 102.737 48.4624 102.975 48.4624Z" fill="#161616"/>
<path d="M104.137 48.275C104.137 48.2625 104.137 48.25 104.137 48.25C104.137 48.15 104.05 48.0625 103.95 48.0625C103.85 48.0625 103.762 48.15 103.762 48.25C103.762 48.2625 103.762 48.275 103.762 48.275C103.762 48.375 103.85 48.4625 103.95 48.4625C104.05 48.45 104.137 48.375 104.137 48.275Z" fill="#161616"/>
<path d="M103.55 49.1875C103.787 49.1875 103.787 48.8125 103.55 48.8125C103.312 48.8125 103.312 49.1875 103.55 49.1875Z" fill="#161616"/>
<path d="M97.1375 47.6123C97.375 47.6123 97.375 47.2373 97.1375 47.2373C96.9 47.2373 96.9 47.6123 97.1375 47.6123Z" fill="#161616"/>
<path d="M98.0249 47.3374C98.2624 47.3374 98.2624 46.9624 98.0249 46.9624C97.7874 46.9624 97.7749 47.3374 98.0249 47.3374Z" fill="#161616"/>
<path d="M97.8125 48.2124C98.05 48.2124 98.05 47.8374 97.8125 47.8374C97.5625 47.8374 97.5625 48.2124 97.8125 48.2124Z" fill="#161616"/>
<path d="M96.1374 44.8624C95.8874 44.5249 95.2749 43.5999 95.2999 42.3374C95.3124 41.4624 95.6124 40.8249 95.7749 40.4874C96.3374 39.3374 97.1874 38.7124 97.8874 38.2249C98.5374 37.7624 99.7499 36.9124 101.475 36.7499C103.762 36.5249 105.5 37.6499 106.7 38.4374C109.012 39.9499 110.062 41.9124 110.287 42.3374C110.675 43.0874 110.875 43.7374 111.187 44.7124C111.525 45.7874 111.525 46.0874 112.087 48.5624C112.637 50.9999 112.712 51.0874 112.662 51.6249C112.512 53.4624 111.325 54.6999 111.137 54.8999C109.462 56.5999 107.287 56.5124 106.55 56.4874C105.55 56.4499 105.125 56.1749 104.962 56.0624C103.975 55.3499 103.912 54.0124 103.912 53.7374C104.3 53.5124 104.812 53.1624 105.287 52.6249C106.212 51.5874 106.5 50.4499 106.6 49.8874C107.562 50.1749 108.525 49.7999 108.925 49.0999C109.487 48.0749 108.7 46.5874 107.812 46.4624C107.675 46.4374 107.3 46.4249 106.812 46.8374C106.412 45.9124 105.7 44.5749 104.437 43.2499C102.887 41.6124 101.225 40.7749 100.225 40.3499C99.6624 40.5874 98.8249 41.0374 98.0124 41.8249C96.8124 42.9499 96.3374 44.2124 96.1374 44.8624Z" fill="black"/>
<path opacity="0.14" d="M103.512 42.2749C104.025 43.0999 104.825 44.6749 104.787 46.7249C104.712 51.5499 100.075 54.2499 99.7875 54.3999C100.087 54.4499 103.012 54.9124 105.05 52.8374C106.125 51.7374 106.45 50.4624 106.55 49.8749C106.762 49.9499 107.237 50.0624 107.787 49.8999C107.925 49.8624 108.725 49.6249 108.987 48.8749C109.112 48.5374 109.075 48.2249 109.05 48.0499C109.037 47.8374 108.987 47.3374 108.612 46.8999C108.475 46.7499 108.262 46.4999 107.912 46.4249C107.35 46.3124 106.912 46.7249 106.85 46.7749C106.562 46.0874 106.125 45.2374 105.475 44.3374C104.775 43.4499 104.087 42.7624 103.512 42.2749Z" fill="#666666"/>
<path opacity="0.18" d="M103.125 57.575C102.75 56.5125 102.375 55.4375 102.012 54.375C102.625 54.175 103.25 53.9625 103.862 53.7625C104.2 54.8625 104.525 55.975 104.862 57.075C104.287 57.25 103.712 57.4125 103.125 57.575Z" fill="#666666"/>
<path opacity="0.21" d="M106.687 49.325C106.375 50.025 105.825 51.05 104.837 52.025C103.212 53.6375 101.362 54.1624 100.525 54.3499C100.887 54.3749 103.075 54.5249 104.7 53.1749C105.587 52.4374 106.05 51.5 106.05 51.5C106.287 51.0125 106.425 50.5124 106.487 50.2999C106.587 49.9124 106.65 49.575 106.687 49.325Z" fill="#666666"/>
<path opacity="0.18" d="M103.95 57.4248C103.587 56.3248 103.238 55.2123 102.875 54.1123C103.188 54.0123 103.5 53.8998 103.812 53.7998C104.15 54.8998 104.5 55.9998 104.838 57.0998C104.55 57.1998 104.25 57.3123 103.95 57.4248Z" fill="#666666"/>
<path d="M100.237 44.9C99.8999 46.2375 99.6249 47.5875 99.3999 48.95C99.3624 49.175 99.2874 49.4375 99.5249 49.5625C99.7999 49.7125 100.462 49.5 100.75 49.4375C100.987 49.3875 100.887 49.025 100.65 49.075C100.45 49.125 100.087 49.2375 99.8999 49.2125C99.6499 49.175 99.7124 49.225 99.7874 48.9375C99.8874 48.5125 99.9374 48.05 100.025 47.625C100.2 46.75 100.387 45.875 100.6 45.0125C100.662 44.775 100.3 44.675 100.237 44.9Z" fill="#161616"/>
<path d="M97.0999 46.1748C97.5874 45.6123 98.4374 45.5998 98.9374 46.1373C99.0624 46.2748 99.2624 46.0748 99.1374 45.9373C98.5374 45.2873 97.4874 45.2998 96.8999 45.9748C96.7874 46.1123 96.9874 46.3123 97.0999 46.1748Z" fill="#161616"/>
<path d="M102.237 46.3124C102.9 45.8874 103.787 46.0749 104.212 46.7499C104.312 46.8999 104.55 46.7624 104.45 46.6124C103.95 45.8124 102.887 45.5624 102.087 46.0749C101.937 46.1624 102.087 46.4124 102.237 46.3124Z" fill="#161616"/>
<path d="M97.875 44.0124C98.325 43.7749 98.825 43.7874 99.2625 44.0374C99.425 44.1249 99.5625 43.8874 99.4 43.7999C98.875 43.4999 98.2625 43.4874 97.725 43.7749C97.575 43.8499 97.7125 44.0999 97.875 44.0124Z" fill="#161616"/>
<path d="M102.387 44.0874C103 43.9874 103.587 44.1499 104.075 44.5124C104.225 44.6249 104.362 44.3749 104.212 44.2749C103.65 43.8624 102.987 43.7124 102.312 43.8124C102.137 43.8499 102.212 44.1124 102.387 44.0874Z" fill="#161616"/>
<path d="M98.3999 51.0248C99.7749 51.4498 101.225 51.1373 102.312 50.1998C102.45 50.0873 102.25 49.8873 102.112 49.9998C101.1 50.8748 99.7499 51.1498 98.4749 50.7498C98.2999 50.6873 98.2249 50.9623 98.3999 51.0248Z" fill="#161616"/>
</svg>
