<svg width="460" height="250" viewBox="0 0 460 250" fill="none" xmlns="http://www.w3.org/2000/svg">
<rect width="460" height="250" rx="6" fill="#35324B"/>
<rect x="76" y="80" width="96" height="114" rx="10" fill="#453B60"/>
<path d="M146.578 146.781C146.578 156.219 144.625 163.438 140.719 168.438C136.812 173.438 131.094 175.938 123.562 175.938C116.125 175.938 110.438 173.484 106.5 168.578C102.562 163.672 100.547 156.641 100.453 147.484V134.922C100.453 125.391 102.422 118.156 106.359 113.219C110.328 108.281 116.031 105.812 123.469 105.812C130.906 105.812 136.594 108.266 140.531 113.172C144.469 118.047 146.484 125.062 146.578 134.219V146.781ZM133.031 133C133.031 127.344 132.25 123.234 130.688 120.672C129.156 118.078 126.75 116.781 123.469 116.781C120.281 116.781 117.922 118.016 116.391 120.484C114.891 122.922 114.094 126.75 114 131.969V148.562C114 154.125 114.75 158.266 116.25 160.984C117.781 163.672 120.219 165.016 123.562 165.016C126.875 165.016 129.266 163.719 130.734 161.125C132.203 158.531 132.969 154.562 133.031 149.219V133Z" fill="#F66F5D"/>
<rect x="182" y="80" width="96" height="114" rx="10" fill="#453B60"/>
<path d="M220.422 134.875H227.641C231.078 134.875 233.625 134.016 235.281 132.297C236.938 130.578 237.766 128.297 237.766 125.453C237.766 122.703 236.938 120.562 235.281 119.031C233.656 117.5 231.406 116.734 228.531 116.734C225.938 116.734 223.766 117.453 222.016 118.891C220.266 120.297 219.391 122.141 219.391 124.422H205.844C205.844 120.859 206.797 117.672 208.703 114.859C210.641 112.016 213.328 109.797 216.766 108.203C220.234 106.609 224.047 105.812 228.203 105.812C235.422 105.812 241.078 107.547 245.172 111.016C249.266 114.453 251.312 119.203 251.312 125.266C251.312 128.391 250.359 131.266 248.453 133.891C246.547 136.516 244.047 138.531 240.953 139.938C244.797 141.312 247.656 143.375 249.531 146.125C251.438 148.875 252.391 152.125 252.391 155.875C252.391 161.938 250.172 166.797 245.734 170.453C241.328 174.109 235.484 175.938 228.203 175.938C221.391 175.938 215.812 174.141 211.469 170.547C207.156 166.953 205 162.203 205 156.297H218.547C218.547 158.859 219.5 160.953 221.406 162.578C223.344 164.203 225.719 165.016 228.531 165.016C231.75 165.016 234.266 164.172 236.078 162.484C237.922 160.766 238.844 158.5 238.844 155.688C238.844 148.875 235.094 145.469 227.594 145.469H220.422V134.875Z" fill="#F66F5D"/>
<rect x="288" y="80" width="96" height="114" rx="10" fill="#453B60"/>
<path d="M344.328 147.719C340.797 151.188 336.672 152.922 331.953 152.922C325.922 152.922 321.094 150.859 317.469 146.734C313.844 142.578 312.031 136.984 312.031 129.953C312.031 125.484 313 121.391 314.938 117.672C316.906 113.922 319.641 111.016 323.141 108.953C326.641 106.859 330.578 105.812 334.953 105.812C339.453 105.812 343.453 106.938 346.953 109.188C350.453 111.438 353.172 114.672 355.109 118.891C357.047 123.109 358.031 127.938 358.062 133.375V138.391C358.062 149.766 355.234 158.703 349.578 165.203C343.922 171.703 335.906 175.172 325.531 175.609L322.203 175.656V164.359L325.203 164.312C336.984 163.781 343.359 158.25 344.328 147.719ZM335.281 142.562C337.469 142.562 339.344 142 340.906 140.875C342.5 139.75 343.703 138.391 344.516 136.797V131.219C344.516 126.625 343.641 123.062 341.891 120.531C340.141 118 337.797 116.734 334.859 116.734C332.141 116.734 329.906 117.984 328.156 120.484C326.406 122.953 325.531 126.062 325.531 129.812C325.531 133.531 326.375 136.594 328.062 139C329.781 141.375 332.188 142.562 335.281 142.562Z" fill="#F66F5D"/>
<path d="M59.4102 44.3359H57.3359V52H55.0859V34.9375H57.3359V42.4609H59.0938L65.0586 34.9375H67.8594L61.3438 43.2109L68.3398 52H65.5859L59.4102 44.3359ZM72.3711 52H70.1914V38.3477H72.3711V52ZM86.7734 38.3477V52H84.6055V40.1406H79.707L79.5312 44.6172C79.4297 47.2891 79.0586 49.1797 78.418 50.2891C77.7773 51.3906 76.7695 51.9609 75.3945 52H74.5977L74.6445 50.0664L75.125 50.0312C75.8594 49.9766 76.3828 49.6406 76.6953 49.0234C77.0078 48.4062 77.2148 47.2148 77.3164 45.4492L77.6094 38.3477H86.7734ZM100.508 47.7109C100.508 48.9922 100.062 50.0234 99.1719 50.8047C98.2812 51.5859 97.0664 51.9844 95.5273 52H90.0312V38.3477H92.1992V43.4805H95.3984C97.0078 43.4805 98.2617 43.8633 99.1602 44.6289C100.059 45.3945 100.508 46.4219 100.508 47.7109ZM95.4453 50.2188C96.3438 50.2188 97.0508 49.9883 97.5664 49.5273C98.082 49.0586 98.3398 48.4453 98.3398 47.6875C98.3398 46.9766 98.0938 46.4023 97.6016 45.9648C97.1172 45.5195 96.4453 45.2852 95.5859 45.2617H92.1992V50.2188H95.4453ZM106.367 46.1172H105.125V52H102.957V38.3477H105.125V44.3125H106.297L110.855 38.3477H113.469L108.09 45.0391L113.844 52H111.043L106.367 46.1172ZM118.191 52H116.012V38.3477H118.191V52ZM132.523 47.582C132.367 49.043 131.797 50.1758 130.812 50.9805C129.828 51.7852 128.52 52.1875 126.887 52.1875C125.137 52.1875 123.73 51.6133 122.668 50.4648C121.613 49.3086 121.086 47.7188 121.086 45.6953V44.5938C121.086 43.3125 121.324 42.1875 121.801 41.2188C122.285 40.2422 122.977 39.4883 123.875 38.957C124.781 38.4258 125.828 38.1602 127.016 38.1602C128.609 38.1602 129.887 38.5742 130.848 39.4023C131.816 40.2227 132.375 41.3633 132.523 42.8242H130.355C130.215 41.8086 129.867 41.0742 129.312 40.6211C128.766 40.168 128 39.9414 127.016 39.9414C125.82 39.9414 124.895 40.3398 124.238 41.1367C123.59 41.9258 123.262 43.0586 123.254 44.5352V45.7773C123.254 47.2539 123.562 48.3984 124.18 49.2109C124.805 50.0156 125.707 50.418 126.887 50.418C127.941 50.418 128.742 50.2031 129.289 49.7734C129.844 49.3359 130.199 48.6055 130.355 47.582H132.523ZM145.379 40.1406H140.703V52H138.535V40.1406H133.883V38.3477H145.379V40.1406ZM157.953 47.7109C157.953 48.9922 157.508 50.0234 156.617 50.8047C155.727 51.5859 154.512 51.9844 152.973 52H147.477V38.3477H149.645V43.4805H152.844C154.453 43.4805 155.707 43.8633 156.605 44.6289C157.504 45.3945 157.953 46.4219 157.953 47.7109ZM152.891 50.2188C153.789 50.2188 154.496 49.9883 155.012 49.5273C155.527 49.0586 155.785 48.4453 155.785 47.6875C155.785 46.9766 155.539 46.4023 155.047 45.9648C154.562 45.5195 153.891 45.2852 153.031 45.2617H149.645V50.2188H152.891ZM177.523 52H175.344V40.1406H168.512V52H166.344V38.3477H177.523V52ZM183.09 52H180.91V38.3477H183.09V52ZM186.418 50.2188L186.898 49.6445C187.453 48.9727 187.867 48.1445 188.141 47.1602C188.422 46.168 188.59 44.8281 188.645 43.1406L188.809 38.3477H197.891V50.2188H199.566V55.9844H197.398V52H187.578V55.9727H185.398L185.41 50.2188H186.418ZM188.949 50.2188H195.723V40.1406H190.895L190.754 43.7969C190.621 46.6016 190.02 48.7422 188.949 50.2188ZM210.84 40.1406H204.066V52H201.898V38.3477H210.84V40.1406ZM224.398 45.5781C224.398 47.6172 223.859 49.2305 222.781 50.418C221.703 51.5977 220.258 52.1875 218.445 52.1875C216.656 52.1875 215.211 51.5898 214.109 50.3945C213.016 49.1992 212.469 47.5742 212.469 45.5195V44.793C212.469 42.7773 213.012 41.168 214.098 39.9648C215.191 38.7617 216.633 38.1602 218.422 38.1602C220.242 38.1602 221.688 38.7539 222.758 39.9414C223.836 41.1289 224.383 42.7188 224.398 44.7109V45.5781ZM222.254 44.7695C222.254 43.2227 221.918 42.0391 221.246 41.2188C220.574 40.3984 219.633 39.9883 218.422 39.9883C217.25 39.9883 216.32 40.4062 215.633 41.2422C214.953 42.0781 214.613 43.2656 214.613 44.8047V45.5781C214.613 47.1016 214.957 48.2852 215.645 49.1289C216.332 49.9648 217.266 50.3828 218.445 50.3828C219.664 50.3828 220.602 49.9727 221.258 49.1523C221.922 48.3242 222.254 47.1328 222.254 45.5781V44.7695ZM237.301 40.1406H232.625V52H230.457V40.1406H225.805V38.3477H237.301V40.1406ZM250.836 45.5781C250.836 47.6172 250.297 49.2305 249.219 50.418C248.141 51.5977 246.695 52.1875 244.883 52.1875C243.094 52.1875 241.648 51.5898 240.547 50.3945C239.453 49.1992 238.906 47.5742 238.906 45.5195V44.793C238.906 42.7773 239.449 41.168 240.535 39.9648C241.629 38.7617 243.07 38.1602 244.859 38.1602C246.68 38.1602 248.125 38.7539 249.195 39.9414C250.273 41.1289 250.82 42.7188 250.836 44.7109V45.5781ZM248.691 44.7695C248.691 43.2227 248.355 42.0391 247.684 41.2188C247.012 40.3984 246.07 39.9883 244.859 39.9883C243.688 39.9883 242.758 40.4062 242.07 41.2422C241.391 42.0781 241.051 43.2656 241.051 44.8047V45.5781C241.051 47.1016 241.395 48.2852 242.082 49.1289C242.77 49.9648 243.703 50.3828 244.883 50.3828C246.102 50.3828 247.039 49.9727 247.695 49.1523C248.359 48.3242 248.691 47.1328 248.691 45.5781V44.7695ZM253.602 52V38.3477H258.359C259.992 38.3477 261.242 38.668 262.109 39.3086C262.977 39.9414 263.41 40.8633 263.41 42.0742C263.41 42.707 263.223 43.2695 262.848 43.7617C262.48 44.2539 261.953 44.6289 261.266 44.8867C262.039 45.0742 262.652 45.4609 263.105 46.0469C263.559 46.625 263.785 47.3086 263.785 48.0977C263.785 49.332 263.359 50.2891 262.508 50.9688C261.656 51.6484 260.445 51.9922 258.875 52H253.602ZM255.77 45.7891V50.2305H258.84C259.738 50.2305 260.426 50.0391 260.902 49.6562C261.379 49.2734 261.617 48.75 261.617 48.0859C261.617 46.5547 260.699 45.7891 258.863 45.7891H255.77ZM255.77 44.1367H258.512C259.355 44.1367 260.02 43.9727 260.504 43.6445C260.988 43.3086 261.23 42.8164 261.23 42.168C261.23 40.8555 260.336 40.1797 258.547 40.1406H255.77V44.1367ZM277.555 38.3477V52H275.387V40.1406H270.488L270.312 44.6172C270.211 47.2891 269.84 49.1797 269.199 50.2891C268.559 51.3906 267.551 51.9609 266.176 52H265.379L265.426 50.0664L265.906 50.0312C266.641 49.9766 267.164 49.6406 267.477 49.0234C267.789 48.4062 267.996 47.2148 268.098 45.4492L268.391 38.3477H277.555ZM289.215 45.8359H282.98V50.2305H290.234V52H280.812V38.3477H290.164V40.1406H282.98V44.0547H289.215V45.8359ZM303.922 52H301.754V46.1641H294.676V52H292.508V38.3477H294.676V44.3828H301.754V38.3477H303.922V52ZM316.531 38.3477H318.699V52H316.531V41.6406L309.348 52H307.18V38.3477H309.348V48.707L316.531 38.3477ZM326.797 43.4453L330.16 38.3477H332.738L328.109 45.1211L332.902 52H330.324L326.82 46.8086L323.352 52H320.773L325.531 45.1211L320.879 38.3477H323.445L326.797 43.4453ZM350.012 40.1055H343.051V43.4805H346.25C347.859 43.4805 349.113 43.8633 350.012 44.6289C350.91 45.3945 351.359 46.4219 351.359 47.7109C351.359 48.9922 350.914 50.0234 350.023 50.8047C349.133 51.5859 347.918 51.9844 346.379 52H340.883V38.3477H350.012V40.1055ZM346.297 50.2188C347.195 50.2188 347.902 49.9883 348.418 49.5273C348.934 49.0586 349.191 48.4453 349.191 47.6875C349.191 46.9766 348.945 46.4023 348.453 45.9648C347.969 45.5195 347.297 45.2852 346.438 45.2617H343.051V50.2188H346.297ZM356.27 52H354.09V38.3477H356.27V52ZM369.008 38.3477H371.176V52H369.008V41.6406L361.824 52H359.656V38.3477H361.824V48.707L369.008 38.3477ZM368.926 34.1172C368.926 35.0625 368.602 35.8242 367.953 36.4023C367.312 36.9727 366.469 37.2578 365.422 37.2578C364.375 37.2578 363.527 36.9688 362.879 36.3906C362.23 35.8125 361.906 35.0547 361.906 34.1172H363.676C363.676 34.6641 363.824 35.0938 364.121 35.4062C364.418 35.7109 364.852 35.8633 365.422 35.8633C365.969 35.8633 366.395 35.7109 366.699 35.4062C367.012 35.1016 367.168 34.6719 367.168 34.1172H368.926ZM385.602 50.2188H387.629L387.418 55.9844H385.484V52H374.422V38.3477H376.59V50.2188H383.422V38.3477H385.602V50.2188ZM392.223 52H390.043V38.3477H392.223V52ZM395.609 52V38.3477H400.367C402 38.3477 403.25 38.668 404.117 39.3086C404.984 39.9414 405.418 40.8633 405.418 42.0742C405.418 42.707 405.23 43.2695 404.855 43.7617C404.488 44.2539 403.961 44.6289 403.273 44.8867C404.047 45.0742 404.66 45.4609 405.113 46.0469C405.566 46.625 405.793 47.3086 405.793 48.0977C405.793 49.332 405.367 50.2891 404.516 50.9688C403.664 51.6484 402.453 51.9922 400.883 52H395.609ZM397.777 45.7891V50.2305H400.848C401.746 50.2305 402.434 50.0391 402.91 49.6562C403.387 49.2734 403.625 48.75 403.625 48.0859C403.625 46.5547 402.707 45.7891 400.871 45.7891H397.777ZM397.777 44.1367H400.52C401.363 44.1367 402.027 43.9727 402.512 43.6445C402.996 43.3086 403.238 42.8164 403.238 42.168C403.238 40.8555 402.344 40.1797 400.555 40.1406H397.777V44.1367Z" fill="#E9E8EA"/>
</svg>
