<svg width="54" height="54" viewBox="0 0 54 54" fill="none" xmlns="http://www.w3.org/2000/svg">
<circle cx="27" cy="27" r="22.5" fill="#EFEFEF"/>
<path fill-rule="evenodd" clip-rule="evenodd" d="M23.6649 39.8525H28.9758V26.9989H32.5188L32.9881 22.57H28.9758L28.9813 20.3524C28.9813 19.1979 29.0916 18.5782 30.7485 18.5782H32.9629V14.1485H29.4192C25.1628 14.1485 23.6649 16.2976 23.6649 19.9106V22.57H21.0118V26.9997H23.6649V39.8525ZM27 50.6255C13.9527 50.6255 3.375 40.0478 3.375 27.0005C3.375 13.9524 13.9527 3.37549 27 3.37549C40.0473 3.37549 50.625 13.9524 50.625 27.0005C50.625 40.0478 40.0473 50.6255 27 50.6255Z" fill="#3A589B"/>
</svg>
