<svg width="22" height="22" viewBox="0 0 22 22" fill="none" xmlns="http://www.w3.org/2000/svg">
<path d="M11 0C4.93457 0 0 4.93457 0 11C0 17.0654 4.93457 22 11 22C17.0654 22 22 17.0654 22 11C22 4.93457 17.0654 0 11 0ZM11 20.7415C5.62851 20.7415 1.25853 16.3714 1.25853 11C1.25853 5.62858 5.62851 1.25853 11 1.25853C16.3715 1.25853 20.7415 5.62858 20.7415 11C20.7415 16.3714 16.3715 20.7415 11 20.7415Z" fill="#F66F5D"/>
<path d="M13.5479 5.03076H12.0563C10.8354 5.03076 9.84214 6.02402 9.84214 7.24487V8.92291H8.45251C8.10494 8.92291 7.82324 9.20461 7.82324 9.55218C7.82324 9.89974 8.10494 10.1814 8.45251 10.1814H9.84214V16.008C9.84214 16.3555 10.1238 16.6372 10.4714 16.6372C10.819 16.6372 11.1007 16.3555 11.1007 16.008V10.1814H13.2507C13.5982 10.1814 13.8799 9.89974 13.8799 9.55218C13.8799 9.20461 13.5982 8.92291 13.2507 8.92291H11.1007V7.24487C11.1007 6.71796 11.5294 6.28929 12.0563 6.28929H13.5478C13.8954 6.28929 14.1771 6.00759 14.1771 5.66003C14.1771 5.31246 13.8954 5.03076 13.5479 5.03076Z" fill="#F66F5D"/>
</svg>
