<svg width="20" height="20" viewBox="0 0 20 20" fill="none" xmlns="http://www.w3.org/2000/svg">
<path d="M9.99997 0C15.5231 0 20 4.4775 20 10C20 15.5226 15.5231 20 9.99997 20C4.47681 20 0 15.5225 0 10C0 4.47757 4.47688 0 9.99997 0Z" fill="#F66F5D"/>
<path d="M5.63496 13.74H7.50748V7.49876H5.63496V13.74ZM12.93 7.28258C12.0212 7.28258 11.2081 7.61445 10.6313 8.34698V7.47824H8.75189V13.7401H10.6313V10.3538C10.6313 9.63821 11.2869 8.94007 12.1081 8.94007C12.9294 8.94007 13.1319 9.63821 13.1319 10.3363V13.7395H15.0044V10.197C15.0043 7.73631 13.8394 7.28258 12.93 7.28258ZM6.56247 6.87505C7.07998 6.87505 7.5 6.45503 7.5 5.93752C7.5 5.42001 7.07998 5.00006 6.56247 5.00006C6.04496 5.00006 5.62494 5.42008 5.62494 5.93759C5.62494 6.4551 6.04496 6.87505 6.56247 6.87505Z" fill="#252525"/>
</svg>
