<svg width="700" height="600" viewBox="0 0 700 600" fill="none" xmlns="http://www.w3.org/2000/svg">
<path d="M261.296 419.407L250.947 413.487L228.783 435.786C228.783 435.786 245.398 441.096 261.296 419.407Z" fill="#1E0F00"/>
<path d="M316.339 384.176C316.339 384.176 309.243 433.813 304.38 446.663C304.38 446.663 280.637 429.24 261.391 419.567L246.195 432.658C246.195 432.658 293.457 478.043 313.644 476.47C341.357 474.305 367.061 387.786 367.061 387.786L316.339 384.176Z" fill="#0E538A"/>
<path d="M392.43 531.481L399.909 543.112L438.991 532.123C438.975 532.123 424.209 517.748 392.43 531.481Z" fill="#1E0F00"/>
<path d="M377.537 451.412L357.733 404.551C356.968 401.214 359.312 398.214 359.312 398.214L358.195 386.519L331.662 377.021L314.872 371.134C314.872 371.134 280.685 395.342 392.031 531.69L414.722 525.433L377.537 451.412Z" fill="#2A94F4"/>
<path d="M531.634 351.577V63.9785C531.634 54.802 526.77 46.3314 518.877 41.7432L454.108 4.12288C446.215 -0.465357 436.488 -0.465357 428.595 4.12288L156.568 162.144C152.693 164.39 149.472 167.631 147.224 171.545L82.4538 284.422C80.2215 288.321 79.0415 292.749 79.0415 297.257V584.855C79.0415 588.642 81.529 592.444 86.5199 595.331C96.4857 601.123 112.638 601.123 122.604 595.331C127.579 592.444 130.083 588.642 130.083 584.855V304.123L188.012 203.166L441.351 55.9892L480.609 78.786V351.577C480.609 355.38 483.096 359.182 488.087 362.069C498.053 367.861 514.205 367.861 524.171 362.069C529.162 359.166 531.65 355.38 531.634 351.577Z" fill="#0E538D"/>
<path d="M130.066 304.123C130.066 304.123 121.934 292.893 97.6016 290.567C97.6016 290.567 114.918 285.69 133.957 297.337L130.066 304.123Z" fill="#0A4971"/>
<path d="M187.996 203.165C187.996 203.165 190.037 189.689 175.399 178.251C175.399 178.251 188.841 182.326 193.401 200.021L187.996 203.165Z" fill="#0A4971"/>
<path d="M441.351 55.9893C446.15 51.0802 450.073 38.4866 449.068 27.2086C449.068 27.2086 454.729 39.0802 446.437 58.9412L441.351 55.9893Z" fill="#0A4971"/>
<path d="M480.608 78.7857C493.684 79.3151 506.567 74.39 512.627 65.5504C512.627 65.5504 507.492 83.3419 480.608 85.1226V78.7857Z" fill="#0A4971"/>
<path d="M383.948 89.3258V46.267C383.948 44.0531 382.401 43.1547 380.488 44.2616L218.993 138.08C217.08 139.187 215.549 141.882 215.533 144.096V187.171L383.948 89.3258Z" fill="#0A4971"/>
<path d="M387.152 36.4974C386.53 36.1284 385.653 36.1766 384.697 36.722L223.202 130.54C221.289 131.647 219.742 134.342 219.742 136.556V196.251C219.742 197.358 220.125 198.144 220.747 198.497C221.369 198.866 226.599 201.899 227.221 202.251C227.842 202.62 228.703 202.556 229.66 202.011L391.154 108.193C393.068 107.086 394.599 104.39 394.599 102.177V42.4974C394.599 41.3744 394.2 40.5883 393.562 40.2354C392.972 39.8825 387.774 36.8664 387.152 36.4974Z" fill="#27DEBF"/>
<path d="M229.676 134.31L391.171 40.4919C393.084 39.3849 394.631 40.2833 394.631 42.4972V102.192C394.631 104.406 393.084 107.101 391.171 108.208L229.676 202.027C227.763 203.134 226.216 202.235 226.216 200.021V140.326C226.216 138.112 227.763 135.417 229.676 134.31Z" fill="#F66F5D"/>
<path d="M226.216 200.022C226.216 201 226.519 201.722 227.029 202.139C225.881 201.481 221.337 198.834 220.747 198.498C220.125 198.145 219.742 197.358 219.742 196.252V136.556C219.742 135.449 220.125 134.23 220.763 133.139L227.236 136.893C226.599 137.984 226.216 139.219 226.216 140.326V200.022Z" fill="#EA6B5A"/>
<path d="M387.153 36.4974C387.743 36.8504 392.335 39.5135 393.419 40.1391C392.813 39.8985 392.032 39.9948 391.171 40.4921L229.677 134.31C228.72 134.856 227.875 135.802 227.237 136.893L220.763 133.139C221.385 132.048 222.246 131.102 223.203 130.54L384.697 36.722C385.654 36.1766 386.531 36.1284 387.153 36.4974Z" fill="#FA8F80"/>
<path d="M271.182 125.727C271.437 125.582 271.644 125.598 271.836 125.775C272.011 125.951 272.107 126.24 272.107 126.625V132.256C272.107 132.641 272.011 133.042 271.836 133.427C271.66 133.812 271.437 134.085 271.182 134.229L260.945 140.181V147.449L270.496 141.898C270.751 141.754 270.959 141.77 271.15 141.946C271.325 142.123 271.421 142.411 271.421 142.796V148.427C271.421 148.812 271.325 149.213 271.15 149.598C270.959 149.983 270.751 150.256 270.496 150.401L260.945 155.951V167.406C260.945 167.791 260.849 168.192 260.674 168.577C260.483 168.962 260.275 169.235 260.02 169.379L255.54 171.994C255.284 172.139 255.077 172.123 254.886 171.946C254.694 171.77 254.615 171.481 254.615 171.096V136.812C254.615 136.427 254.71 136.042 254.886 135.641C255.061 135.256 255.284 134.983 255.54 134.839L271.182 125.727Z" fill="#FAFAFA"/>
<path d="M276.667 159.689C276.412 159.834 276.205 159.818 276.013 159.641C275.822 159.465 275.742 159.176 275.742 158.791V124.507C275.742 124.122 275.838 123.737 276.013 123.336C276.189 122.951 276.412 122.679 276.667 122.534L281.148 119.919C281.403 119.775 281.61 119.791 281.801 119.967C281.977 120.144 282.072 120.433 282.072 120.818V155.101C282.072 155.486 281.977 155.887 281.801 156.272C281.61 156.657 281.403 156.93 281.148 157.074L276.667 159.689Z" fill="#FAFAFA"/>
<path d="M302.467 144.706C302.068 144.93 301.765 144.946 301.526 144.77C301.287 144.593 301.127 144.433 301.064 144.288L293.218 130.7V148.636C293.218 149.021 293.123 149.422 292.947 149.807C292.756 150.192 292.549 150.465 292.294 150.609L287.813 153.224C287.558 153.369 287.351 153.353 287.159 153.176C286.968 153 286.888 152.711 286.888 152.326V118.042C286.888 117.657 286.984 117.272 287.159 116.871C287.335 116.486 287.558 116.214 287.813 116.069L291.369 114C291.751 113.775 292.07 113.743 292.31 113.935C292.549 114.112 292.708 114.272 292.772 114.417L300.617 128.005V110.053C300.617 109.668 300.713 109.283 300.888 108.882C301.064 108.497 301.287 108.224 301.542 108.08L306.023 105.465C306.278 105.321 306.485 105.337 306.676 105.513C306.868 105.689 306.947 105.978 306.947 106.363V140.647C306.947 141.032 306.852 141.433 306.676 141.818C306.501 142.203 306.278 142.476 306.023 142.62L302.467 144.706Z" fill="#FAFAFA"/>
<path d="M312.672 138.769C312.417 138.914 312.209 138.898 312.018 138.721C311.827 138.545 311.747 138.256 311.747 137.871V103.588C311.747 103.203 311.843 102.818 312.018 102.417C312.194 102.032 312.417 101.759 312.672 101.614L317.168 98.9994C317.424 98.8551 317.631 98.8711 317.822 99.0476C317.998 99.224 318.093 99.5128 318.093 99.8978V134.181C318.093 134.566 317.998 134.967 317.822 135.352C317.631 135.737 317.424 136.01 317.168 136.155L312.672 138.769Z" fill="#FAFAFA"/>
<path d="M331.79 89.9835C333.257 89.1332 334.596 88.684 335.808 88.6198C337.036 88.5717 338.088 88.7963 338.981 89.2936C339.874 89.807 340.576 90.5289 341.07 91.4754C341.581 92.422 341.836 93.4487 341.868 94.5717C341.868 94.8926 341.788 95.2134 341.644 95.5182C341.501 95.8391 341.325 96.0476 341.15 96.1599L336.669 98.7749C336.35 98.9674 336.095 99.0476 335.904 99.0156C335.713 98.9835 335.505 98.8872 335.298 98.7268C335.234 98.6626 335.123 98.5503 334.979 98.3899C334.836 98.2295 334.612 98.1011 334.341 97.9888C334.07 97.8765 333.719 97.8605 333.321 97.8926C332.906 97.9407 332.412 98.1332 331.806 98.4701C331.375 98.7268 330.961 99.0156 330.562 99.3364C330.164 99.6573 329.813 100.01 329.494 100.379C329.191 100.748 328.936 101.181 328.745 101.647C328.553 102.112 328.458 102.609 328.458 103.139C328.458 103.668 328.569 104.053 328.776 104.278C329 104.502 329.366 104.614 329.877 104.631C330.387 104.631 331.073 104.534 331.918 104.326C332.763 104.117 333.815 103.844 335.075 103.508C336.334 103.171 337.419 103.026 338.36 103.09C339.3 103.155 340.082 103.443 340.704 103.989C341.325 104.518 341.804 105.32 342.107 106.363C342.41 107.406 342.569 108.754 342.569 110.422C342.569 112.235 342.314 113.983 341.772 115.716C341.246 117.433 340.512 119.069 339.555 120.641C338.615 122.197 337.483 123.625 336.191 124.909C334.899 126.192 333.496 127.267 331.965 128.165C330.419 129.064 329 129.577 327.708 129.673C326.432 129.786 325.332 129.577 324.407 129.08C323.483 128.566 322.749 127.812 322.239 126.818C321.713 125.807 321.442 124.652 321.41 123.32C321.41 122.999 321.489 122.679 321.633 122.374C321.776 122.053 321.952 121.844 322.127 121.748L326.608 119.133C326.927 118.941 327.182 118.86 327.357 118.877C327.549 118.893 327.724 118.973 327.899 119.117C327.995 119.213 328.123 119.358 328.314 119.566C328.489 119.775 328.745 119.967 329.047 120.128C329.35 120.288 329.749 120.352 330.211 120.32C330.674 120.288 331.264 120.08 331.95 119.679C333.161 118.973 334.166 118.187 334.979 117.304C335.792 116.422 336.191 115.459 336.191 114.401C336.191 113.871 336.047 113.518 335.745 113.326C335.442 113.149 334.995 113.069 334.405 113.117C333.815 113.165 333.05 113.31 332.125 113.566C331.2 113.823 330.116 114.096 328.856 114.401C326.496 114.994 324.79 114.689 323.706 113.502C322.621 112.315 322.079 110.197 322.079 107.149C322.079 105.625 322.303 104.053 322.749 102.417C323.196 100.78 323.833 99.176 324.678 97.6359C325.524 96.0797 326.544 94.6519 327.74 93.3364C328.952 91.9407 330.291 90.8498 331.79 89.9835Z" fill="#FAFAFA"/>
<path d="M365.323 71.0371C365.578 70.8927 365.786 70.9088 365.977 71.0852C366.152 71.2617 366.248 71.5505 366.248 71.9355V106.219C366.248 106.604 366.152 107.005 365.977 107.39C365.801 107.775 365.578 108.048 365.323 108.192L360.842 110.807C360.587 110.952 360.38 110.935 360.189 110.759C360.013 110.583 359.918 110.294 359.918 109.909V96.9141L352.312 101.326V114.321C352.312 114.706 352.216 115.107 352.041 115.492C351.849 115.877 351.642 116.149 351.387 116.294L346.906 118.909C346.651 119.053 346.444 119.053 346.253 118.893C346.061 118.732 345.981 118.444 345.981 118.01V83.7269C345.981 83.3419 346.077 82.9569 346.253 82.5558C346.428 82.1708 346.651 81.8981 346.906 81.7537L351.387 79.1387C351.642 78.9943 351.849 79.0104 352.041 79.1868C352.216 79.3633 352.312 79.6521 352.312 80.0371V92.8232L359.918 88.4114V75.6253C359.918 75.2403 360.013 74.8553 360.189 74.4542C360.38 74.0692 360.587 73.7965 360.842 73.6521L365.323 71.0371Z" fill="#FAFAFA"/>
<path d="M347.034 401.15L338.886 402.048L344.658 395.807C314.187 407.422 267.993 398.599 214.321 408.529C181.601 414.577 141.754 437.711 130.082 450.722V469.347C141.929 454.925 187.868 426.176 215.342 420.625C272.171 409.155 317.344 419.503 343.08 410.454L347.544 408.529L339.699 407.599L347.034 401.15Z" fill="#F66F5D"/>
<path opacity="0.2" d="M347.034 401.15L338.886 402.048L344.658 395.807C314.187 407.422 267.993 398.599 214.321 408.529C181.601 414.577 141.754 437.711 130.082 450.722V469.347C141.929 454.925 187.868 426.176 215.342 420.625C272.171 409.155 317.344 419.503 343.08 410.454L347.544 408.529L339.699 407.599L347.034 401.15Z" fill="#F66F5D"/>
<path d="M430.221 337.267C415.886 363.642 397.437 384.064 360.508 391.123L369.533 392.856L362.039 397.877L369.724 398.936L364.462 404.15C404.932 395.214 424.305 372.626 439.134 346.524C449.642 328.027 456.451 298.877 468.298 277.283C477.658 260.23 485.774 251.118 493.508 245.775V230.615C481.421 237.642 469.765 250.749 460.565 267.722C447.043 292.652 437.619 323.647 430.221 337.267Z" fill="#F66F5D"/>
<path opacity="0.2" d="M430.221 337.267C415.886 363.642 397.437 384.064 360.508 391.123L369.533 392.856L362.039 397.877L369.724 398.936L364.462 404.15C404.932 395.214 424.305 372.626 439.134 346.524C449.642 328.027 456.451 298.877 468.298 277.283C477.658 260.23 485.774 251.118 493.508 245.775V230.615C481.421 237.642 469.765 250.749 460.565 267.722C447.043 292.652 437.619 323.647 430.221 337.267Z" fill="#F66F5D"/>
<path d="M576.44 170.679C576.44 170.679 569.822 166.668 569.52 159.465L574.415 155.502C574.415 155.502 573.745 159.93 579.438 166.267L576.44 170.679Z" fill="#FA8F80"/>
<path d="M636.458 114.209C636.458 114.209 630.223 109.62 630.542 102.433L635.756 98.9199C635.756 98.9199 634.704 103.268 639.822 110.086L636.458 114.209Z" fill="#FA8F80"/>
<path d="M674.424 363.385C674.424 363.385 668.189 358.796 668.508 351.609L673.722 348.096C673.722 348.096 672.67 352.444 677.788 359.262L674.424 363.385Z" fill="#FA8F80"/>
<path d="M634.768 29.5505C634.768 29.5505 632.248 22.2029 636.585 16.4756L642.852 16.5879C642.852 16.5879 639.519 19.5559 639.854 28.0906L634.768 29.5505Z" fill="#FA8F80"/>
<path d="M684.709 167.904C684.709 167.904 688.185 174.85 684.645 181.107L678.41 181.845C678.41 181.845 681.312 178.46 679.845 170.038L684.709 167.904Z" fill="#FA8F80"/>
<path d="M95.2889 142.973C95.2889 142.973 99.6579 135.738 96.3572 128.631L89.6602 127.283C89.6602 127.283 92.5303 131.214 90.2023 140.214L95.2889 142.973Z" fill="#FA8F80"/>
<path d="M286.012 11.278C286.012 11.278 285.916 19.0427 291.832 23.1015L297.748 20.9999C297.748 20.9999 293.65 19.2352 291.306 11.0374L286.012 11.278Z" fill="#FA8F80"/>
<path d="M3.89068 232.588C3.89068 232.588 10.6515 228.818 11.2255 221.647L6.48977 217.508C6.48977 217.508 7.00002 221.952 1.06836 228.08L3.89068 232.588Z" fill="#FA8F80"/>
<path d="M35.4467 296.551C35.4467 296.551 28.6858 292.781 28.1118 285.61L32.8476 281.471C32.8476 281.471 32.3373 285.915 38.269 292.043L35.4467 296.551Z" fill="#FA8F80"/>
<path d="M46.0501 280.861C46.0501 280.861 43.148 273.657 47.1822 267.706L53.4487 267.481C53.4487 267.481 50.2756 270.625 51.0569 279.128L46.0501 280.861Z" fill="#FA8F80"/>
<path d="M541.791 9.88251C541.791 9.88251 541.36 17.6472 547.084 21.9627L553.096 20.1338C553.096 20.1338 549.078 18.1927 547.084 9.89854H541.791V9.88251Z" fill="#27DEBF"/>
<path d="M697.895 64.332C697.895 64.332 701.403 71.2625 697.895 77.5352L691.661 78.3052C691.661 78.3052 694.547 74.9042 693.048 66.4977L697.895 64.332Z" fill="#27DEBF"/>
<path d="M595.845 81.8344C595.845 81.8344 590.185 76.5564 591.317 69.4494L596.898 66.5617C596.898 66.5617 595.351 70.7649 599.656 78.1285L595.845 81.8344Z" fill="#27DEBF"/>
<path d="M627.321 205.941C627.321 205.941 630.701 212.936 627.066 219.145L620.831 219.786C620.831 219.786 623.781 216.433 622.442 208.011L627.321 205.941Z" fill="#27DEBF"/>
<path d="M669.832 273.995C669.832 273.995 667.583 266.567 672.144 261L678.41 261.353C678.41 261.353 674.073 264.417 674.089 272.952L669.832 273.995Z" fill="#27DEBF"/>
<path d="M662.464 294.129C662.464 294.129 655.831 290.15 655.464 282.963L660.328 278.968C660.328 278.968 660.391 285.049 664.904 290.471L662.464 294.129Z" fill="#27DEBF"/>
<path d="M260.116 49.4117C260.116 49.4117 263.465 56.4224 259.813 62.6149L253.562 63.2245C253.562 63.2245 256.528 59.8876 255.221 51.4491L260.116 49.4117Z" fill="#27DEBF"/>
<path d="M16.0727 151.396C16.0727 151.396 21.9884 146.407 21.2231 139.251L15.7857 136.091C15.7857 136.091 17.1251 140.358 12.4531 147.497L16.0727 151.396Z" fill="#27DEBF"/>
<path d="M21.5264 364.14C21.5264 364.14 23.2166 373.717 31.4444 377.327L38.2371 373.348C38.2371 373.348 32.7997 372.145 27.9842 362.599L21.5264 364.14Z" fill="#27DEBF"/>
<path d="M74.4011 195.016C74.4011 195.016 74.0503 202.781 79.8225 207.032L85.802 205.139C85.802 205.139 80.843 203.246 78.7701 194.968L74.4011 195.016Z" fill="#27DEBF"/>
<g opacity="0.25">
<path opacity="0.25" d="M541.791 9.88251C541.791 9.88251 541.36 17.6472 547.084 21.9627L553.096 20.1338C553.096 20.1338 549.078 18.1927 547.084 9.89854H541.791V9.88251Z" fill="#CDE9FF"/>
<path opacity="0.25" d="M697.895 64.332C697.895 64.332 701.403 71.2625 697.895 77.5352L691.661 78.3052C691.661 78.3052 694.547 74.9042 693.048 66.4977L697.895 64.332Z" fill="#CDE9FF"/>
<path opacity="0.25" d="M595.845 81.8344C595.845 81.8344 590.185 76.5564 591.317 69.4494L596.898 66.5617C596.898 66.5617 595.351 70.7649 599.656 78.1285L595.845 81.8344Z" fill="#CDE9FF"/>
<path opacity="0.25" d="M627.321 205.941C627.321 205.941 630.701 212.936 627.066 219.145L620.831 219.786C620.831 219.786 623.781 216.433 622.442 208.011L627.321 205.941Z" fill="#CDE9FF"/>
<path opacity="0.25" d="M669.832 273.995C669.832 273.995 667.583 266.567 672.144 261L678.41 261.353C678.41 261.353 674.073 264.417 674.089 272.952L669.832 273.995Z" fill="#CDE9FF"/>
<path opacity="0.25" d="M662.464 294.129C662.464 294.129 655.831 290.15 655.464 282.963L660.328 278.968C660.328 278.968 660.391 285.049 664.904 290.471L662.464 294.129Z" fill="#CDE9FF"/>
<path opacity="0.25" d="M260.116 49.4117C260.116 49.4117 263.465 56.4224 259.813 62.6149L253.562 63.2245C253.562 63.2245 256.528 59.8876 255.221 51.4491L260.116 49.4117Z" fill="#CDE9FF"/>
<path opacity="0.25" d="M16.0727 151.396C16.0727 151.396 21.9884 146.407 21.2231 139.251L15.7857 136.091C15.7857 136.091 17.1251 140.358 12.4531 147.497L16.0727 151.396Z" fill="#CDE9FF"/>
<path opacity="0.25" d="M21.5264 364.14C21.5264 364.14 23.2166 373.717 31.4444 377.327L38.2371 373.348C38.2371 373.348 32.7997 372.145 27.9842 362.599L21.5264 364.14Z" fill="#CDE9FF"/>
<path opacity="0.25" d="M74.4011 195.016C74.4011 195.016 74.0503 202.781 79.8225 207.032L85.802 205.139C85.802 205.139 80.843 203.246 78.7701 194.968L74.4011 195.016Z" fill="#CDE9FF"/>
</g>
<path d="M449.228 299.166C449.371 299.342 453.581 304.043 456.164 304.652C458.97 305.326 462.366 301.588 462.494 301.364C462.494 301.364 469.606 295.989 462.303 283.428C461.41 281.888 459.512 281.278 457.886 281.984C456.738 282.481 455.669 282.947 455.558 283.011C454.777 283.444 454.091 284.102 453.644 284.952L448.813 293.936C447.888 295.636 448.111 297.69 449.228 299.166Z" fill="#D7AEB2"/>
<path d="M443.678 303.513L448.542 297.786L457.965 304.123L453.692 310.893L443.678 303.513Z" fill="#D0D4E9"/>
<path d="M289.28 350.101C289.168 349.925 289.041 349.748 288.897 349.588C287.287 347.069 277.337 346.412 277.337 346.412C277.178 346.588 271.629 355.139 271.629 355.139C270.528 356.936 272.41 360.417 274.244 363.08C275.742 365.246 278.485 366.16 280.957 365.31L281.26 365.198C281.531 365.134 281.802 365.037 282.057 364.925C282.838 364.572 283.524 364.011 284.018 363.241L289.264 355.107C290.301 353.551 290.237 351.577 289.28 350.101Z" fill="#D7AEB2"/>
<path d="M375.513 278.743C375.513 278.743 377.33 293.808 377.538 295.925C377.538 295.925 372.148 304.219 369.23 304.139C364.877 304.027 357.462 291.176 357.462 291.176C357.462 291.176 361.385 283.749 360.588 272.727L375.513 278.743Z" fill="url(#paint0_linear_4902_2571)"/>
<path d="M383.788 281.567C383.788 281.567 358.02 282.754 357.526 266.599C357.032 250.444 353.38 239.711 369.82 238.284C386.244 236.84 389.64 242.904 391.107 248.262C392.574 253.604 390.485 280.845 383.788 281.567Z" fill="#D7AEB2"/>
<path d="M357.542 266.599C357.542 266.599 359.471 245.038 382.417 245.808C405.378 246.578 395.444 224.743 375.72 221.519C375.72 221.519 377.777 229.219 365.371 230.439C339.332 232.973 355.23 263.166 357.542 266.599Z" fill="#0A4971"/>
<path d="M453.692 310.893C453.692 310.893 450.663 315.706 443.631 323.968C441.398 326.599 438.863 329.102 436.105 331.091C434.957 331.925 433.426 333.176 432.023 333.449C415.679 336.754 392.813 318.85 392.813 318.85C392.813 318.85 392.797 318.882 392.749 318.946C391.888 320.39 384.171 347.182 367.061 387.77C367.061 387.77 363.585 391.38 341.852 385.973C336.191 384.561 331.057 382.203 326.831 379.781C319.48 375.561 314.872 371.134 314.872 371.134C314.872 371.134 330.897 343.155 331.535 311.615V311.583C331.535 311.583 311.476 317.39 303.487 317.182C303.487 317.182 298.975 335.92 290.699 342.578C288.275 344.535 279.474 338.759 279.474 338.759L286.761 308.647C287.239 306.85 288.451 305.342 290.109 304.508C299.086 300.016 328.904 285.513 342.856 283.652C342.856 283.652 346.38 281.984 358.993 283.54C361.018 283.781 358.531 291.192 367.476 292.652C378.095 294.385 374.683 286.187 376.947 286.668C380.471 287.406 383.198 288.144 386.658 289.155C390.023 290.15 393.228 291.626 396.162 293.567C404.708 299.214 422.934 311.551 426.633 316.139C426.633 316.139 435.531 307.829 443.679 303.513L453.692 310.893Z" fill="#DEE2F1"/>
<path d="M367.078 292.364H373.998C373.998 292.364 374.827 292.637 374.556 293.711C374.269 294.77 371.718 297.465 370.841 297.53C369.98 297.594 365.005 294.161 367.078 292.364Z" fill="#0D4870"/>
<path d="M376.198 284.455C376.198 284.455 374.7 290.038 370.937 292.204L374.955 299.728C374.955 299.728 382.003 293.696 382.704 288.401C382.688 288.401 377.809 284.92 376.198 284.455Z" fill="#D0D4E9"/>
<path d="M376.198 284.455C376.198 284.455 375.05 289.765 371.287 291.931L375.194 298.813C375.194 298.813 381.62 293.439 383.039 288.129C383.039 288.129 377.809 284.92 376.198 284.455Z" fill="#DEE2F1"/>
<path d="M359.679 281.743C359.679 281.743 366.28 290.471 371.287 291.915L366.918 300.481C366.918 300.481 352.599 288.497 353.444 283.075C353.444 283.075 358.005 281.519 359.679 281.743Z" fill="#D0D4E9"/>
<path d="M360.284 281.551C360.284 281.551 366.28 290.487 371.287 291.931L367.125 299.519C367.125 299.519 353.205 288.305 354.066 282.882C354.05 282.882 358.626 281.31 360.284 281.551Z" fill="#DEE2F1"/>
<path d="M290.683 342.578L287.861 349.556L276.938 346.54L279.474 338.76L290.683 342.578Z" fill="#D0D4E9"/>
<path d="M338.36 368.679C334.294 373.749 330.531 377.631 326.832 379.797C319.481 375.578 314.873 371.15 314.873 371.15C314.873 371.15 330.898 343.171 331.535 311.631C334.071 310.3 336.654 309.61 338.28 310.957C342.458 314.407 345.057 360.321 338.36 368.679Z" fill="#D0D4E9"/>
<path d="M369.549 297.209C369.549 297.209 367.604 305.984 359.742 317.022C348.102 333.353 333.385 346.3 313.533 346.877C313.533 346.877 308.255 347.07 302.148 351.562C302.148 351.562 307.027 358.653 311.029 359.134C343.159 363.064 371.622 329.23 372.164 296.888C372.196 295.797 370.203 296.022 369.549 297.209Z" fill="#0B528C"/>
<path d="M443.631 323.968C441.399 326.599 438.863 329.102 436.105 331.091C434.957 331.925 433.426 333.176 432.023 333.449C415.679 336.754 392.813 318.85 392.813 318.85C392.813 318.85 392.797 318.882 392.749 318.946C392.239 316.781 395.253 314.471 396.911 314.454C404.581 314.438 424.959 330.224 428.451 329.615C431.209 329.15 440.394 324.545 443.631 323.968Z" fill="#D0D4E9"/>
<defs>
<linearGradient id="paint0_linear_4902_2571" x1="367.506" y1="304.136" x2="367.506" y2="272.737" gradientUnits="userSpaceOnUse">
<stop offset="0.512" stop-color="#D7AEB2"/>
<stop offset="1" stop-color="#B7898F"/>
</linearGradient>
</defs>
</svg>
