<svg width="230" height="320" viewBox="0 0 230 320" fill="none" xmlns="http://www.w3.org/2000/svg">
<path opacity="0.1" d="M200.396 320C184.047 320 170.793 316.845 170.793 312.953C170.793 309.061 184.047 305.906 200.396 305.906C216.746 305.906 230 309.061 230 312.953C230 316.845 216.746 320 200.396 320Z" fill="#2A94F4"/>
<path opacity="0.1" d="M117.538 318.6C108.916 318.6 101.927 316.93 101.927 314.869C101.927 312.809 108.916 311.139 117.538 311.139C126.16 311.139 133.149 312.809 133.149 314.869C133.149 316.93 126.16 318.6 117.538 318.6Z" fill="#2A94F4"/>
<path d="M38.229 0.0330706C16.9791 -0.692358 17.4491 10.6036 17.7623 25.3712C19.3287 104.132 86.7851 70.8141 66.8406 44.5951C57.1816 31.9001 58.8523 45.0096 60.1054 17.2879C60.5753 7.39098 44.912 0.240336 38.229 0.0330706Z" fill="#211F2F"/>
<path d="M39.482 58.9995C43.92 58.2741 67.1537 80.8142 73.2624 86.9285C79.371 93.0947 85.6363 101.541 79.1622 101.541C72.6881 101.541 65.9529 95.5301 60.8362 91.4884C55.7196 87.4467 48.8278 81.5396 45.0164 78.8452C41.2572 76.2026 35.0963 59.725 39.482 58.9995Z" fill="#B97A59"/>
<path d="M73.1057 107.241C73.1057 107.241 75.9251 88.846 85.1664 75.2184C94.4077 61.5388 99.0545 50.9165 99.0545 50.9165L103.022 52.7301C103.022 52.7301 89.1344 89.1051 85.8974 95.064C82.6603 100.919 82.4514 100.142 73.1057 107.241Z" fill="#B97A59"/>
<path d="M99.1066 55.8909C99.1066 55.8909 105.685 53.5073 112.107 48.3257C118.529 43.1441 118.477 42.9886 119.573 40.5533C120.67 38.1179 118.738 33.5581 116.388 35.4753C114.091 37.3925 112.107 41.6414 110.28 42.885C105.633 46.0976 106.834 43.1959 107.147 42.3668C107.46 41.5378 107.982 40.346 107.199 39.776C106.416 39.206 105.79 41.0714 105.32 41.6932C104.85 42.315 101.404 45.2167 100.725 45.8904C100.046 46.5121 100.203 48.6884 99.2111 50.502C98.1668 52.3674 95.4518 60.1916 96.7571 61.2798C96.8093 61.2798 97.1226 56.8236 99.1066 55.8909Z" fill="#B97A59"/>
<path d="M193.504 255.279C193.504 255.279 197.733 266.73 200.605 272.015C203.477 277.249 205.93 280.772 207.131 285.488C208.332 290.203 191.155 284.399 189.223 281.342C187.291 278.285 186.874 267.87 180.034 260.046C173.09 252.222 193.504 255.279 193.504 255.279Z" fill="#B97A59"/>
<path d="M119.939 152.27C119.939 152.27 171.523 175.225 176.692 182.013C181.809 188.8 190.633 241.239 194.34 255.333C195.123 258.286 182.697 262.38 179.198 260.255C175.7 258.131 160.455 227.248 157.896 219.268C155.129 210.408 156.121 199.837 153.928 198.853C149.334 196.728 103.388 184.189 96.862 179.37C90.2835 174.551 71.2787 157.555 73.2627 151.907C75.2467 146.311 119.939 152.27 119.939 152.27Z" fill="#373361"/>
<path d="M185.15 268.339C185.15 268.339 181.757 272.951 180.921 274.971C180.086 276.992 177.997 278.961 179.616 281.086C181.234 283.158 187.448 287.563 192.251 294.817C197.002 302.071 205.408 310.414 210.942 313.16C216.477 315.906 224.622 315.077 224.674 312.02C224.726 308.963 220.236 304.714 217.991 303.108C215.746 301.449 206.661 281.552 205.46 278.443C204.259 275.334 202.536 273.831 200.239 275.282C197.942 276.733 195.07 277.666 191.259 274.66C187.448 271.707 185.15 268.339 185.15 268.339Z" fill="#373361"/>
<path d="M37.0281 106.619C37.0281 106.619 45.3296 115.894 47.8879 124.807C50.4985 133.719 44.442 157.607 59.0611 174.913C66.475 183.722 109.653 179.058 109.653 179.058C74.6199 117.242 72.5314 107.293 74.6198 100.09C76.7083 92.8879 74.7765 89.4162 67.9891 83.8201C61.2539 78.2239 56.2939 73.1977 54.832 66.6689C53.3701 60.2437 0.167267 48.4814 37.0281 106.619Z" fill="#373361"/>
<path d="M22.6705 64.9075C22.6705 64.9075 25.3855 62.5758 25.9076 52.5753C26.4297 42.5747 26.5863 37.3931 24.7067 33.8177C22.8271 30.2942 42.2495 29.5688 42.7194 36.8749C43.1371 44.181 44.2858 45.2173 42.3018 52.938C40.2656 60.6586 47.2618 62.7831 48.7759 63.4049C51.8041 64.7003 60.5755 76.048 22.6705 64.9075Z" fill="#AA6B4F"/>
<path d="M38.0202 23.5066C34.5221 24.3357 31.0762 24.6984 27.8913 23.8693C30.5019 41.0205 44.8599 43.3004 45.382 43.3522C45.9041 43.4041 46.4262 43.4559 47.1049 42.7304C47.7837 42.005 56.5029 30.9681 52.0128 13.7133C51.6995 12.4697 49.611 20.7085 38.0202 23.5066Z" fill="#B97A59"/>
<path d="M30.3973 69.8824C36.6104 71.1778 55.7717 108.848 61.3061 119.108C66.8404 129.368 71.5916 142.529 62.9769 139.316C54.3621 136.104 47.9401 125.689 42.7712 118.434C37.6546 111.128 30.9716 100.713 27.0036 95.6869C23.0356 90.6607 24.1842 68.587 30.3973 69.8824Z" fill="#B97A59"/>
<path d="M128.189 239.112C128.189 239.112 121.61 250.149 121.244 254.19C120.879 258.232 120.409 260.978 117.224 260.149C114.039 259.32 109.132 249.993 109.862 247.04C110.593 244.086 118.06 237.091 119.208 232.376C120.305 227.66 128.241 240.977 128.241 240.977L128.189 239.112Z" fill="#B97A59"/>
<path d="M114.979 238.905C114.979 238.905 110.593 241.133 107.931 241.392C105.268 241.703 101.561 244.345 101.926 249.942C102.292 255.538 103.44 266.73 103.336 273.777C103.232 280.824 109.288 292.483 110.907 294.815C113.517 298.597 119.469 298.597 120.827 295.281C122.184 291.965 120.566 282.638 120.461 277.871C120.357 273.104 122.289 257.455 122.445 255.538C122.602 253.621 117.537 249.475 115.762 251.755C113.987 254.035 112.316 251.393 112.264 249.683C112.264 247.973 114.979 238.905 114.979 238.905Z" fill="#4E488C"/>
<g filter="url(#filter0_d_4902_1275)">
<path d="M91.275 150.663C102.187 150.766 152.414 146.673 159.515 153.254C166.615 159.886 154.92 178.747 118.268 187.608C81.616 196.468 74.6198 193.981 62.9245 181.286C51.2293 168.591 83.1301 150.559 91.275 150.663Z" fill="#4E488C"/>
</g>
<path d="M143.956 168.694C143.956 168.694 124.481 186.259 122.967 205.69C121.505 225.121 117.641 234.189 117.641 234.189L128.24 240.925C128.24 240.925 160.768 186.518 163.117 175.585C165.467 164.652 164.683 152.838 157.531 154.599C150.378 156.361 143.956 168.694 143.956 168.694Z" fill="#4E488C"/>
<path d="M128.292 240.822C128.24 240.874 128.24 240.926 128.24 240.926L118.999 235.071L128.292 240.822Z" fill="#89D5DA"/>
<path d="M65.5356 139.886C77.1264 140.767 95.5569 141.181 95.5569 141.181C95.5569 141.181 121.14 145.016 97.0187 135.43C91.7976 133.357 78.1706 126.569 58.957 124.082C56.8686 123.823 57.9128 124.393 55.72 125.274C51.9086 126.776 56.1377 139.16 65.5356 139.886Z" fill="#B97A59"/>
<path d="M117.224 145.74L117.277 144.393L114.301 141.232C114.301 141.232 107.252 138.434 104.276 138.434C101.3 138.434 90.5969 133.822 89.1872 133.667C87.7775 133.512 84.1227 139.522 84.1227 139.522C84.1227 139.522 95.8702 141.232 100.517 142.372C105.112 143.512 111.168 147.554 112.995 148.072C116.076 148.953 117.538 149.575 117.538 149.575C117.538 149.575 117.747 147.709 112.995 146.051C111.742 145.585 112.891 144.341 112.891 144.341L117.224 145.74Z" fill="#B97A59"/>
<path d="M90.2308 150.662C90.2308 150.662 90.2309 150.61 90.1786 150.61L90.2308 148.796H158.105V150.61V150.662L157.948 150.973C157.061 152.527 155.494 152.786 153.719 152.786H94.6166C92.8414 152.786 91.2751 152.527 90.3875 150.973L90.2308 150.662Z" fill="#D3D3D3"/>
<path d="M106.573 150.974C106.573 150.974 106.625 150.974 106.573 150.974L106.416 151.285C106.155 151.7 105.79 151.959 105.424 152.218H95.0866C93.3637 152.218 91.8495 152.011 91.0142 150.715L90.8576 150.456C90.8576 150.456 90.8575 150.404 90.8053 150.404V149.523H106.521V150.974H106.573Z" fill="#F7F7F7"/>
<path d="M106.991 148.745L115.814 112.267C116.023 111.282 116.963 110.505 117.85 110.505H165.467C166.354 110.505 166.876 111.282 166.615 112.267L157.792 148.745H106.991Z" fill="#F7F7F7"/>
<path d="M133.88 129.624C133.41 131.49 134.454 132.992 136.125 132.992C137.848 132.992 139.57 131.49 140.04 129.624C140.51 127.759 139.466 126.256 137.795 126.256C136.072 126.256 134.349 127.759 133.88 129.624Z" fill="#D3D3D3"/>
<path d="M43.2415 2.05419C41.4663 1.27694 23.6102 -1.93567 15.0999 6.71765C6.5895 15.371 4.29228 28.2732 8.36472 40.2428C12.4372 52.2124 7.16383 51.0724 2.25602 61.1766C-7.92508 81.9549 18.8068 95.2199 33.5825 83.5612C41.5185 77.2915 41.7796 57.8085 39.7434 44.4399C37.7072 31.0713 25.281 26.8742 32.6427 24.1279C41.2575 20.9153 58.7481 8.99757 43.2415 2.05419Z" fill="#211F2F"/>
<defs>
<filter id="filter0_d_4902_1275" x="55.377" y="146.499" width="111.11" height="53.3674" filterUnits="userSpaceOnUse" color-interpolation-filters="sRGB">
<feFlood flood-opacity="0" result="BackgroundImageFix"/>
<feColorMatrix in="SourceAlpha" type="matrix" values="0 0 0 0 0 0 0 0 0 0 0 0 0 0 0 0 0 0 127 0" result="hardAlpha"/>
<feOffset dy="2"/>
<feGaussianBlur stdDeviation="2.5"/>
<feColorMatrix type="matrix" values="0 0 0 0 0 0 0 0 0 0 0 0 0 0 0 0 0 0 0.15 0"/>
<feBlend mode="normal" in2="BackgroundImageFix" result="effect1_dropShadow_4902_1275"/>
<feBlend mode="normal" in="SourceGraphic" in2="effect1_dropShadow_4902_1275" result="shape"/>
</filter>
</defs>
</svg>
