<svg width="700" height="516" viewBox="0 0 700 516" fill="none" xmlns="http://www.w3.org/2000/svg">
<path d="M698.614 387.703C695.29 404.783 686.301 419.766 673.904 432.842V424.332H374.713C378.206 428.758 380.134 431.223 380.134 431.223L74.4402 428.918C71.1621 427.372 68.0675 425.844 65.1413 424.332C28.4582 405.411 18.3866 389.571 12.8593 378.413C8.6861 369.988 5.72162 361.455 3.7096 353.007C-5.72701 313.404 5.67955 275.672 10.5413 259.588C34.5019 180.308 109.513 117.343 184.202 109.412C239.483 103.54 261.275 131.353 307.582 115.215C354.084 99.0113 348.745 59.251 391.513 28.9035C459.62 -19.4275 583.451 -4.49108 621.259 54.0604C645.598 91.7613 613.628 115.548 624.353 194.177C639.237 303.298 710.354 327.376 698.614 387.703Z" fill="#35324B"/>
<path d="M380.134 431.223C380.134 431.223 378.206 428.758 374.713 424.333C343.994 385.391 192.086 194.579 165.241 194.579C146.655 194.579 63.7603 284.775 3.70947 353.007C5.72149 361.456 8.68598 369.988 12.8592 378.413C18.2396 389.275 27.9306 404.574 62.2804 422.833C61.3382 422.123 60.4363 421.354 59.5871 420.504C60.4359 421.354 61.3382 422.123 62.2804 422.833C63.2168 423.331 64.1677 423.83 65.1412 424.332H64.4687C67.367 426.148 70.5404 427.543 73.7206 428.913L74.4405 428.918L380.134 431.223Z" fill="#F2F2F2"/>
<path d="M137.62 429.363C137.62 429.363 328.255 137.623 357.294 137.623C386.333 137.623 566.036 433.519 566.036 433.519L137.62 429.363Z" fill="#F2F2F2"/>
<path d="M64.4688 424.332C67.3671 426.148 70.5404 427.543 73.7206 428.913L74.4405 428.918C106.759 444.187 156.65 461.287 234.871 479.435C279.64 489.82 316.847 498.451 349.342 504.718C413.023 516.99 458.603 520.167 507.546 509.625C511.007 508.879 518.428 507.282 528.427 504.718C564.88 495.374 635.623 473.218 673.905 432.841V424.332H64.4688Z" fill="#D3D3D3"/>
<path d="M572.538 332.08C574.651 332.08 576.363 330.366 576.363 328.252C576.363 326.138 574.651 324.424 572.538 324.424C570.425 324.424 568.713 326.138 568.713 328.252C568.713 330.366 570.425 332.08 572.538 332.08Z" fill="#F7F7F7"/>
<path d="M462.374 144.131C463.219 144.131 463.904 143.445 463.904 142.599C463.904 141.754 463.219 141.068 462.374 141.068C461.529 141.068 460.844 141.754 460.844 142.599C460.844 143.445 461.529 144.131 462.374 144.131Z" fill="#F7F7F7"/>
<path d="M497.182 191.596C498.027 191.596 498.712 190.911 498.712 190.065C498.712 189.22 498.027 188.534 497.182 188.534C496.337 188.534 495.652 189.22 495.652 190.065C495.652 190.911 496.337 191.596 497.182 191.596Z" fill="#F7F7F7"/>
<path d="M194.997 165.95C195.842 165.95 196.527 165.264 196.527 164.419C196.527 163.573 195.842 162.887 194.997 162.887C194.152 162.887 193.467 163.573 193.467 164.419C193.467 165.264 194.152 165.95 194.997 165.95Z" fill="#F7F7F7"/>
<path d="M419.915 75.2283C420.76 75.2283 421.445 74.5428 421.445 73.6972C421.445 72.8515 420.76 72.166 419.915 72.166C419.07 72.166 418.385 72.8515 418.385 73.6972C418.385 74.5428 419.07 75.2283 419.915 75.2283Z" fill="#F7F7F7"/>
<path d="M260.407 196.19C261.252 196.19 261.937 195.504 261.937 194.659C261.937 193.813 261.252 193.127 260.407 193.127C259.562 193.127 258.877 193.813 258.877 194.659C258.877 195.504 259.562 196.19 260.407 196.19Z" fill="#F7F7F7"/>
<path d="M174.724 133.03C175.569 133.03 176.254 132.344 176.254 131.498C176.254 130.653 175.569 129.967 174.724 129.967C173.879 129.967 173.194 130.653 173.194 131.498C173.194 132.344 173.879 133.03 174.724 133.03Z" fill="#F7F7F7"/>
<path d="M261.937 154.083C262.782 154.083 263.467 153.397 263.467 152.552C263.467 151.706 262.782 151.021 261.937 151.021C261.092 151.021 260.407 151.706 260.407 152.552C260.407 153.397 261.092 154.083 261.937 154.083Z" fill="#F7F7F7"/>
<path d="M531.609 152.552C532.454 152.552 533.139 151.866 533.139 151.021C533.139 150.175 532.454 149.49 531.609 149.49C530.764 149.49 530.079 150.175 530.079 151.021C530.079 151.866 530.764 152.552 531.609 152.552Z" fill="#F7F7F7"/>
<path d="M591.281 95.8992C592.127 95.8992 592.812 95.2137 592.812 94.3681C592.812 93.5224 592.127 92.8369 591.281 92.8369C590.436 92.8369 589.751 93.5224 589.751 94.3681C589.751 95.2137 590.436 95.8992 591.281 95.8992Z" fill="#F7F7F7"/>
<path d="M388.549 116.57C389.394 116.57 390.079 115.884 390.079 115.039C390.079 114.193 389.394 113.508 388.549 113.508C387.704 113.508 387.019 114.193 387.019 115.039C387.019 115.884 387.704 116.57 388.549 116.57Z" fill="#F7F7F7"/>
<path d="M605.817 257.436C606.662 257.436 607.347 256.751 607.347 255.905C607.347 255.059 606.662 254.374 605.817 254.374C604.972 254.374 604.287 255.059 604.287 255.905C604.287 256.751 604.972 257.436 605.817 257.436Z" fill="#F7F7F7"/>
<path d="M498.713 265.858C499.558 265.858 500.243 265.172 500.243 264.327C500.243 263.481 499.558 262.795 498.713 262.795C497.868 262.795 497.183 263.481 497.183 264.327C497.183 265.172 497.868 265.858 498.713 265.858Z" fill="#F7F7F7"/>
<path d="M533.139 83.2671C533.984 83.2671 534.669 82.5816 534.669 81.736C534.669 80.8904 533.984 80.2048 533.139 80.2048C532.294 80.2048 531.609 80.8904 531.609 81.736C531.609 82.5816 532.294 83.2671 533.139 83.2671Z" fill="#F7F7F7"/>
<path d="M556.09 234.469C556.935 234.469 557.62 233.783 557.62 232.937C557.62 232.092 556.935 231.406 556.09 231.406C555.245 231.406 554.56 232.092 554.56 232.937C554.56 233.783 555.245 234.469 556.09 234.469Z" fill="#F7F7F7"/>
<path d="M495.653 40.012C496.498 40.012 497.183 39.3265 497.183 38.4809C497.183 37.6352 496.498 36.9497 495.653 36.9497C494.808 36.9497 494.123 37.6352 494.123 38.4809C494.123 39.3265 494.808 40.012 495.653 40.012Z" fill="#F7F7F7"/>
<path d="M21.718 301.457C22.5631 301.457 23.2481 300.771 23.2481 299.926C23.2481 299.08 22.5631 298.395 21.718 298.395C20.873 298.395 20.188 299.08 20.188 299.926C20.188 300.771 20.873 301.457 21.718 301.457Z" fill="#F7F7F7"/>
<path d="M253.604 425.22C253.604 425.22 245.489 422.418 245.489 409.403C245.489 396.389 255.435 388.733 255.435 375.718L263.467 393.326C263.467 393.326 267.293 369.593 265.38 349.305C265.38 349.305 286.036 372.273 284.123 383.756C284.123 383.756 289.096 374.952 288.331 370.742C287.566 366.531 302.866 409.786 293.303 417.442C283.741 425.098 253.604 425.22 253.604 425.22Z" fill="#F66F5D"/>
<path d="M226.363 433.519L267.714 406.502L272.647 403.279L284.888 408.638L238.986 436.964L226.363 433.519Z" fill="#0B4870"/>
<path d="M265.38 412.466L284.888 436.964L303.249 433.519L273.795 407.49L265.38 412.466Z" fill="#0B4870"/>
<path d="M259.259 435.433C258.877 431.988 265.38 401.365 265.38 401.365H279.15L269.205 440.026L259.259 435.433Z" fill="#0B4870"/>
<path d="M355.653 432.371L418.834 290.329H632.646L681.555 431.963L355.653 432.371Z" fill="#2E286B"/>
<path d="M419.281 290.161L418.194 290.528L465.512 431.425L466.599 431.057L419.281 290.161Z" fill="#F7F7F7"/>
<path d="M417.237 310.069H416.09V432.371H417.237V310.069Z" fill="#F7F7F7"/>
<path d="M419.915 270.451H416.473V296.863H419.915V270.451Z" fill="#0B4870"/>
<path d="M468.112 413.997H464.669V433.519H468.112V413.997Z" fill="#0B4870"/>
<path d="M357.183 413.997H353.74V433.519H357.183V413.997Z" fill="#0B4870"/>
<path d="M634.122 270.451H630.68V296.863H634.122V270.451Z" fill="#0B4870"/>
<path d="M198.822 470.644L250.27 470.459C250.27 470.459 238.03 456.296 230.38 458.975C222.729 461.655 201.691 461.643 198.822 470.644Z" fill="#0E538C"/>
<path d="M548.057 449.596C548.057 449.596 557.237 442.323 566.035 443.472C574.833 444.62 582.483 449.596 582.483 449.596H548.057Z" fill="#0E538C"/>
<path d="M131.646 425.219C131.646 425.219 138.385 420.504 145.653 420.121C152.921 419.738 163.363 425.219 163.363 425.219H131.646Z" fill="#0E538C"/>
<path d="M413.603 449.596C417.089 449.596 419.915 448.825 419.915 447.874C419.915 446.923 417.089 446.151 413.603 446.151C410.118 446.151 407.292 446.923 407.292 447.874C407.292 448.825 410.118 449.596 413.603 449.596Z" fill="#F7F7F7"/>
<path d="M426.227 458.018C429.712 458.018 432.538 457.246 432.538 456.295C432.538 455.344 429.712 454.573 426.227 454.573C422.741 454.573 419.915 455.344 419.915 456.295C419.915 457.246 422.741 458.018 426.227 458.018Z" fill="#F7F7F7"/>
<path d="M188.686 431.222C192.172 431.222 194.997 430.451 194.997 429.5C194.997 428.548 192.172 427.777 188.686 427.777C185.2 427.777 182.375 428.548 182.375 429.5C182.375 430.451 185.2 431.222 188.686 431.222Z" fill="#F7F7F7"/>
<path d="M260.13 248.078L131.248 424.948L132.175 425.625L261.057 248.755L260.13 248.078Z" fill="#0B4870"/>
<path d="M100.362 137.525C100.362 137.525 105.223 169.827 95.5013 171.98C85.779 174.134 80.918 169.827 79.7024 168.75C78.4871 167.673 76.0566 150.446 76.0566 150.446L79.7024 138.602L100.362 137.525Z" fill="#FFE3CA"/>
<path d="M95.1611 168.751V181.671L79.7026 180.595V164.444L95.1611 168.751Z" fill="#FFE3CA"/>
<path d="M69.2401 441.917C69.4172 441.115 70.31 437.053 71.5142 431.17C68.9452 431.884 66.4887 432.856 63.9071 433.453C62.058 433.621 60.2097 433.516 58.4093 433.144C58.1097 436.671 57.8351 439.901 57.6025 442.639C61.5612 442.738 65.4173 442.566 69.2401 441.917Z" fill="#FFE3CA"/>
<path d="M88.6583 449.98C88.6583 449.98 75.3874 442.065 69.2082 442.065C69.2082 442.065 69.2197 442.013 69.2411 441.917C65.4179 442.566 61.5618 442.738 57.6032 442.639C57.1445 448.037 56.8496 451.511 56.8496 451.511L88.6583 449.98Z" fill="#0B4870"/>
<path d="M89.4247 157.983H88.2481H86.9938C86.9938 157.983 85.7786 154.753 83.3481 156.906C80.9176 159.06 86.9938 162.29 86.9938 162.29C86.9938 162.29 85.7785 173.057 80.9172 173.057C76.0562 173.057 73.6253 169.827 72.4101 164.444C71.1948 159.06 62.6877 139.679 74.8406 140.756C74.8406 140.756 68.764 133.219 82.1324 133.219C95.5009 133.219 97.9314 127.835 101.577 134.295C105.223 140.756 105.223 138.602 106.438 139.679C107.653 140.756 100.361 147.216 96.7158 145.063C93.07 142.909 85.7782 147.216 86.9934 148.293C88.2087 149.369 89.4247 157.983 89.4247 157.983Z" fill="#211F2F"/>
<path d="M110.025 441.677C110.75 441.479 111.443 441.265 112.121 441.044C112.276 439.853 112.782 435.88 113.41 430.361C109.371 430.534 105.333 430.332 101.294 430.261C101.307 434.807 101.318 439.003 101.328 442.438C104.222 442.642 107.047 442.315 110.025 441.677Z" fill="#FFE3CA"/>
<path d="M137.62 449.214C137.62 449.214 117.819 440.841 112.073 441.418C112.073 441.418 112.091 441.287 112.122 441.044C111.443 441.265 110.751 441.479 110.026 441.677C107.047 442.316 104.222 442.642 101.328 442.438C101.343 447.84 101.353 451.356 101.353 451.356L137.62 449.214Z" fill="#0B4870"/>
<path d="M63.4123 434.284C66.5589 433.558 69.5528 432.372 72.6841 431.502C76.0284 415.164 81.3411 387.319 82.7839 368.79C84.936 341.156 94.9697 257.324 94.9697 257.324L58.0372 260.56C58.0372 260.56 62.3409 367.638 60.1892 392.969C59.1197 405.56 57.784 421.28 56.7114 433.908C58.9059 434.362 61.1589 434.49 63.4123 434.284Z" fill="#0B4870"/>
<path d="M114.879 431.384C116.78 414.674 119.53 387.114 119.351 368.864C119.08 341.137 113.781 256.093 113.781 256.093L83.1118 258.963C83.1118 258.963 98.8974 369.763 98.9674 395.198C98.9976 406.209 99.0347 419.603 99.0665 431.254C104.337 431.347 109.609 431.61 114.879 431.384Z" fill="#0E538C"/>
<path d="M56.3354 264.135C56.3354 264.135 68.0748 204.769 61.266 196.363C57.8196 192.11 62.7311 187.179 68.266 183.417C69.3141 182.705 70.389 182.035 71.4294 181.418C75.4956 179.011 79.095 177.434 79.095 177.434L96.771 180.213C96.771 180.213 104.303 181.288 108.606 195.287C112.909 209.282 110.759 228.662 112.909 242.661C115.063 256.659 114.669 261.264 114.669 261.264L56.3354 264.135Z" fill="#6758EE"/>
<path d="M51.5814 192.438C51.5814 192.438 20.3794 221.509 20.3794 229.046C20.3794 236.582 50.5058 276.421 53.7334 282.881C56.9611 289.341 58.0371 294.725 59.1131 293.648C60.1891 292.571 60.1891 283.958 61.2651 280.728C62.3411 277.498 66.6448 287.188 66.6448 282.881C66.6448 278.574 61.2651 276.421 60.1891 274.268C59.1131 272.114 34.3411 234.876 34.3411 229.492C34.3411 224.109 62.3408 198.898 62.3408 198.898L51.5814 192.438Z" fill="#FFE3CA"/>
<path d="M121.172 194.659C121.172 194.659 150.305 223.696 152.538 227.962C156.746 236 124.745 275.345 121.518 282.882C118.29 290.419 119.427 299.926 116.199 299.926C115.817 299.926 115.817 284.614 115.062 283.959C114.249 283.253 112.91 287.189 110.758 286.112C108.606 285.036 116.138 277.499 116.138 276.422C116.138 275.345 136.712 239.087 134.56 233.704C132.408 228.32 110.461 207.291 110.461 207.291L121.172 194.659Z" fill="#FFE3CA"/>
<path d="M72.5744 184.279C72.5744 184.279 67.1947 178.896 60.739 181.049C54.2833 183.203 45.8164 193.894 45.8164 193.894L54.2833 207.967C54.2833 207.967 69.3464 199.354 72.5744 192.894C75.8024 186.432 72.5744 184.279 72.5744 184.279Z" fill="#6758EE"/>
<path d="M97.8467 185.978C97.8467 181.539 106.454 179.518 112.91 182.748C119.365 185.979 127.973 198.899 127.973 198.899L116.137 215.05L106.454 208.589C106.454 208.589 97.8467 191.362 97.8467 185.978Z" fill="#6758EE"/>
<path d="M100.899 290.356H45.0516C42.527 290.356 40.4614 288.289 40.4614 285.763V190.448C40.4614 187.922 42.527 185.855 45.0516 185.855H100.899C103.423 185.855 105.489 187.922 105.489 190.448V285.763C105.489 288.289 103.423 290.356 100.899 290.356Z" fill="#2E286B"/>
<path d="M89.8057 188.534C89.8057 188.534 94.7783 182.027 100.516 179.73C106.254 177.433 112.757 182.792 112.757 182.792C112.757 182.792 102.266 180.781 98.9045 190.399C95.5434 200.018 89.8057 188.534 89.8057 188.534Z" fill="#F2F2F2"/>
<path d="M71.4293 181.419C70.3889 182.035 69.314 182.705 68.2659 183.417C65.2708 184.152 61.9162 186.073 60.2714 190.782C56.9091 200.401 51.1714 188.918 51.1714 188.918C51.1714 188.918 56.1441 182.41 61.8818 180.113C65.3091 178.743 69.008 180.102 71.4293 181.419Z" fill="#F2F2F2"/>
<path d="M89.8055 207.482H47.729V208.63H89.8055V207.482Z" fill="#F2F2F2"/>
<path d="M88.467 280.021H48.3031C45.4557 280.021 43.1392 277.702 43.1392 274.853V260.307C43.1392 257.458 45.4557 255.139 48.3031 255.139H88.467C91.3145 255.139 93.631 257.458 93.631 260.307V274.853C93.631 277.702 91.3145 280.021 88.467 280.021ZM48.3031 256.288C46.0883 256.288 44.2867 258.091 44.2867 260.307V274.853C44.2867 277.069 46.0883 278.872 48.3031 278.872H88.467C90.6818 278.872 92.4834 277.069 92.4834 274.853V260.307C92.4834 258.091 90.6818 256.288 88.467 256.288H48.3031Z" fill="#F2F2F2"/>
<path d="M76.0355 225.665H61.8825C59.5625 225.665 57.6748 223.776 57.6748 221.454C57.6748 219.132 59.5625 217.243 61.8825 217.243H76.0355C78.3554 217.243 80.2431 219.132 80.2431 221.454C80.2431 223.776 78.3554 225.665 76.0355 225.665ZM61.8825 218.392C60.1952 218.392 58.8223 219.766 58.8223 221.454C58.8223 223.143 60.1952 224.516 61.8825 224.516H76.0355C77.7227 224.516 79.0956 223.143 79.0956 221.454C79.0956 219.766 77.7227 218.392 76.0355 218.392H61.8825Z" fill="#F2F2F2"/>
<path d="M83.1114 263.561H51.3628V264.709H83.1114V263.561Z" fill="#F2F2F2"/>
</svg>
