<svg width="200" height="159" viewBox="0 0 200 159" fill="none" xmlns="http://www.w3.org/2000/svg">
<path fill-rule="evenodd" clip-rule="evenodd" d="M107.306 0.1265C131.713 1.89199 146.533 25.5221 159.824 46.068C171.03 63.3882 177.68 82.8733 173.965 103.165C170.022 124.705 159.901 146.738 139.803 155.431C120.342 163.849 99.9137 152.143 80.5121 143.588C59.7726 134.443 35.212 127.526 27.8785 106.079C19.9003 82.7464 29.5186 57.4425 44.3095 37.7122C59.7406 17.1278 81.6468 -1.72957 107.306 0.1265Z" fill="#E8ECFB"/>
<path d="M116.612 20.225C113.55 22.0375 112.675 25.1625 112.312 26.45C112.225 26.7625 111.2 30.6 112.975 34.6C113.5 35.7875 114.062 37.0125 115.337 37.6C116.075 37.95 116.737 37.925 119.337 37.7C120.55 37.6 121.862 37.475 123.262 37.325C124.25 36.0625 125.95 33.5375 126.45 29.9875C126.537 29.325 127.562 21.425 123.262 19.325C120.45 17.9375 117.062 19.95 116.612 20.225Z" fill="#F66F5D"/>
<path d="M60.0623 38.8625C61.6225 38.8625 62.8873 37.4634 62.8873 35.7375C62.8873 34.0117 61.6225 32.6125 60.0623 32.6125C58.5021 32.6125 57.2373 34.0117 57.2373 35.7375C57.2373 37.4634 58.5021 38.8625 60.0623 38.8625Z" fill="#F66F5D"/>
<path d="M124.125 88.9375C125.285 88.9375 126.225 88.0308 126.225 86.9125C126.225 85.7941 125.285 84.8875 124.125 84.8875C122.965 84.8875 122.025 85.7941 122.025 86.9125C122.025 88.0308 122.965 88.9375 124.125 88.9375Z" fill="#F66F5D"/>
<path d="M60.0874 76.7124C60.9503 76.7124 61.6499 76.0128 61.6499 75.1499C61.6499 74.287 60.9503 73.5874 60.0874 73.5874C59.2245 73.5874 58.5249 74.287 58.5249 75.1499C58.5249 76.0128 59.2245 76.7124 60.0874 76.7124Z" fill="#F66F5D"/>
<path d="M57.175 37.8251C58.5488 37.8251 59.6625 36.6554 59.6625 35.2126C59.6625 33.7698 58.5488 32.6001 57.175 32.6001C55.8012 32.6001 54.6875 33.7698 54.6875 35.2126C54.6875 36.6554 55.8012 37.8251 57.175 37.8251Z" fill="#505050"/>
<path d="M123.55 85.7376C124.399 85.7376 125.088 85.0213 125.088 84.1376C125.088 83.2539 124.399 82.5376 123.55 82.5376C122.701 82.5376 122.013 83.2539 122.013 84.1376C122.013 85.0213 122.701 85.7376 123.55 85.7376Z" fill="#505050"/>
<path d="M144.1 41.6124C145.032 41.6124 145.788 40.8066 145.788 39.8125C145.788 38.8183 145.032 38.0125 144.1 38.0125C143.168 38.0125 142.413 38.8183 142.413 39.8125C142.413 40.8066 143.168 41.6124 144.1 41.6124Z" fill="#505050"/>
<path d="M107.45 52.7374C107.175 52.2999 106.725 52.7124 106.537 53.0124C106.15 53.6374 105.9 54.4124 106.187 55.1249C106.4 55.6624 106.925 56.1124 107.537 56.0249C108.1 55.9499 108.525 55.4874 108.512 54.9249C108.512 54.7749 108.3 54.6624 108.187 54.7874C107.525 55.6249 106.712 56.8124 107.375 57.8874C107.837 58.6249 108.975 58.7249 109.425 57.9249C109.312 57.9124 109.2 57.8999 109.087 57.8749C109.15 58.2249 109.212 58.5749 109.262 58.9249C109.3 59.1624 109.662 59.0624 109.625 58.8249C109.562 58.4749 109.5 58.1249 109.45 57.7749C109.425 57.6124 109.175 57.5999 109.112 57.7249C108.912 58.0749 108.462 58.1999 108.1 58.0249C107.7 57.8249 107.525 57.3749 107.525 56.9374C107.525 56.2124 108.037 55.5749 108.462 55.0374C108.35 54.9874 108.25 54.9499 108.137 54.8999C108.15 55.3749 107.687 55.7249 107.225 55.6249C106.875 55.5499 106.65 55.2499 106.525 54.9249C106.4 54.5874 106.412 54.2499 106.512 53.9124C106.525 53.8874 107.037 52.7749 107.112 52.8999C107.25 53.1249 107.575 52.9374 107.45 52.7374Z" fill="#F66F5D"/>
<path d="M56.4125 53.8624C56.6875 53.1124 57.6 53.4374 57.8875 53.9624C57.9875 54.1374 58.0375 54.3374 58.0625 54.5374C58.1125 54.9124 58.075 55.0624 57.75 55.2874C57.4 55.6374 57.3125 55.4999 57.5 54.8749C57.5875 54.8374 57.6875 54.7999 57.775 54.7624C58.0125 54.6999 58.2875 54.7124 58.525 54.7874C59.125 54.9874 59.425 55.6249 59.3375 56.2124C59.3125 56.3624 59.4625 56.5124 59.6125 56.4249C60.425 55.9624 61.5 56.4749 61.6875 57.3874C61.7375 57.6249 62.1 57.5249 62.05 57.2874C61.8125 56.1374 60.45 55.5374 59.425 56.1124C59.5125 56.1874 59.6125 56.2499 59.7 56.3249C59.8625 55.2249 59.025 54.1999 57.8625 54.3749C57.4625 54.4374 56.8625 54.6874 56.8125 55.1624C56.775 55.5499 57.1375 55.8374 57.5 55.8749C58.575 55.9749 58.55 54.4124 58.2 53.7874C57.725 52.9374 56.4125 52.7249 56.0375 53.7749C55.9625 53.9874 56.325 54.0874 56.4125 53.8624Z" fill="#F66F5D"/>
<path d="M122.225 100.912C123.187 101.55 124 102.362 124.65 103.312C124.787 103.512 125.112 103.325 124.975 103.125C124.287 102.125 123.437 101.275 122.425 100.6C122.212 100.45 122.025 100.775 122.225 100.912Z" fill="#505050"/>
<path d="M124.662 101.6C124.862 101.838 125.05 102.088 125.25 102.325C125.4 102.513 125.662 102.25 125.512 102.063C125.312 101.825 125.125 101.575 124.925 101.338C124.775 101.15 124.512 101.425 124.662 101.6Z" fill="#505050"/>
<path d="M123.512 98.0999C124.375 98.8999 125.087 99.8124 125.637 100.85C125.75 101.062 126.075 100.875 125.962 100.662C125.4 99.5999 124.662 98.6499 123.775 97.8374C123.6 97.6624 123.337 97.9374 123.512 98.0999Z" fill="#505050"/>
<path d="M37.0876 112.175C37.3626 114.887 37.8376 117.562 38.5001 120.212C38.5626 120.45 38.9251 120.35 38.8626 120.112C38.2126 117.5 37.7376 114.85 37.4626 112.175C37.4376 111.937 37.0626 111.937 37.0876 112.175Z" fill="#E8E8E8"/>
<path d="M38.5751 120.337C41.0376 120.975 43.6001 120.975 46.0626 120.337C46.3001 120.275 46.2001 119.912 45.9626 119.975C43.5626 120.6 41.0751 120.6 38.6751 119.975C38.4501 119.912 38.3501 120.275 38.5751 120.337Z" fill="#E8E8E8"/>
<path d="M46.3504 119.963C46.5129 117.3 46.7254 114.637 46.9754 111.975C47.0004 111.737 46.6254 111.737 46.6004 111.975C46.3504 114.637 46.1379 117.3 45.9754 119.963C45.9629 120.2 46.3379 120.2 46.3504 119.963Z" fill="#E8E8E8"/>
<path d="M37.3004 112.375C40.4129 113.012 43.6129 112.987 46.7254 112.287C46.9629 112.237 46.8629 111.875 46.6254 111.925C43.5879 112.6 40.4504 112.637 37.4004 112.012C37.1629 111.962 37.0629 112.325 37.3004 112.375Z" fill="#E8E8E8"/>
<path d="M37.2626 113.275C37.3626 113.788 38.0126 113.763 38.4126 113.8C39.4251 113.888 40.4501 113.913 41.4626 113.888C42.4376 113.863 43.4126 113.788 44.3876 113.675C45.1626 113.575 45.9126 113.475 46.6001 113.088C46.8126 112.975 46.6251 112.65 46.4126 112.763C45.1751 113.45 43.4626 113.425 42.0751 113.488C41.3876 113.513 40.6876 113.525 40.0001 113.513C39.6376 113.5 37.7001 113.588 37.6251 113.175C37.5751 112.938 37.2251 113.038 37.2626 113.275Z" fill="#E8E8E8"/>
<path d="M37.975 117.613C38.575 118.675 39.3375 119.613 40.25 120.425C40.425 120.588 40.7 120.325 40.5125 120.163C39.6125 119.375 38.875 118.463 38.3 117.425C38.1875 117.213 37.8625 117.4 37.975 117.613Z" fill="#E8E8E8"/>
<path d="M37.4876 114.725C38.7626 116.875 40.3126 118.85 42.0876 120.625C42.2626 120.8 42.5251 120.525 42.3501 120.362C40.6001 118.612 39.0751 116.662 37.8126 114.537C37.6876 114.337 37.3626 114.525 37.4876 114.725Z" fill="#E8E8E8"/>
<path d="M39.5751 113.825C40.9001 116.187 42.4376 118.425 44.1751 120.512C44.3251 120.7 44.5876 120.437 44.4376 120.25C42.7251 118.187 41.2001 115.975 39.9001 113.637C39.7876 113.425 39.4626 113.612 39.5751 113.825Z" fill="#E8E8E8"/>
<path d="M41.9629 113.912C43.2504 115.837 44.5504 117.75 45.8629 119.662C46.0004 119.862 46.3254 119.675 46.1879 119.475C44.8754 117.562 43.5754 115.65 42.2879 113.725C42.1504 113.525 41.8254 113.712 41.9629 113.912Z" fill="#E8E8E8"/>
<path d="M43.9627 113.8C44.6127 114.85 45.3127 115.875 46.0377 116.875C46.1752 117.062 46.5002 116.875 46.3627 116.687C45.6377 115.687 44.9377 114.662 44.2877 113.612C44.1627 113.412 43.8377 113.6 43.9627 113.8Z" fill="#E8E8E8"/>
<path d="M33.1502 101.175C33.3002 102.038 33.4502 102.913 33.6127 103.775C33.6627 104.013 33.7002 104.263 33.9002 104.413C34.0377 104.525 34.4877 104.513 34.5752 104.638C34.5877 104.563 34.6002 104.488 34.6002 104.413C34.4127 104.6 34.2252 104.788 34.0252 104.963C33.9752 105.013 33.9627 105.088 33.9752 105.15C34.0877 105.488 34.1627 105.988 34.3877 106.275C34.5002 106.425 34.7002 106.4 34.7877 106.488C34.8627 106.563 34.8377 106.513 34.8002 106.738C34.7752 106.925 34.7752 107.125 34.8002 107.325C34.8377 107.625 34.9252 107.913 35.0377 108.188C35.6877 109.763 36.9502 111.038 38.1627 112.213C38.3377 112.375 38.6002 112.113 38.4252 111.95C37.6502 111.2 36.8752 110.425 36.2377 109.55C35.6127 108.688 34.8752 107.525 35.2627 106.425C35.2877 106.363 35.2627 106.275 35.2127 106.238C34.9752 106.05 34.7377 106.125 34.5752 105.825C34.2627 105.263 34.4377 105.075 34.8377 104.688C34.9002 104.638 34.9127 104.525 34.8627 104.463C34.7627 104.313 34.6877 104.263 34.5252 104.213C34.4252 104.175 34.2752 104.213 34.1752 104.163C33.9627 104.05 33.9627 103.775 33.9252 103.575C33.7752 102.75 33.6252 101.913 33.4877 101.088C33.4627 100.838 33.1002 100.938 33.1502 101.175Z" fill="#E8E8E8"/>
<path d="M33.4252 101.125C38.3002 102.75 41.6377 107.3 41.7377 112.45C41.7377 112.687 42.1127 112.687 42.1127 112.45C42.0127 107.137 38.5627 102.45 33.5252 100.762C33.3002 100.687 33.2002 101.05 33.4252 101.125Z" fill="#E8E8E8"/>
<path d="M40.9127 107.325C42.1252 103.962 43.9127 100.712 46.7752 98.4998C46.9627 98.3498 46.7752 98.0249 46.5877 98.1749C43.6377 100.462 41.8002 103.762 40.5502 107.225C40.4752 107.45 40.8377 107.55 40.9127 107.325Z" fill="#E8E8E8"/>
<path d="M46.45 98.425C46.5375 99.575 46.6375 100.725 46.725 101.887C46.75 102.125 47.125 102.125 47.1 101.887C47.0125 100.737 46.9125 99.5875 46.825 98.425C46.8125 98.1875 46.4375 98.1875 46.45 98.425Z" fill="#E8E8E8"/>
<path d="M46.8877 101.762C46.7252 101.8 46.5627 101.837 46.4127 101.887C46.1752 101.95 46.2752 102.312 46.5127 102.25C46.6752 102.212 46.8377 102.175 46.9877 102.125C47.2252 102.062 47.1252 101.712 46.8877 101.762Z" fill="#E8E8E8"/>
<path d="M46.2251 102.225C46.2751 102.463 46.4751 102.613 46.7001 102.638C46.8001 102.65 46.8876 102.55 46.8876 102.45C46.8876 102.338 46.8001 102.275 46.7001 102.263C46.7376 102.263 46.7001 102.263 46.6876 102.263C46.6751 102.263 46.6501 102.25 46.6751 102.263C46.6626 102.25 46.6501 102.25 46.6376 102.238C46.6126 102.225 46.6626 102.263 46.6251 102.225C46.6126 102.213 46.6126 102.213 46.6001 102.2C46.6251 102.225 46.6001 102.2 46.6001 102.188C46.5876 102.175 46.5876 102.15 46.5876 102.175C46.5876 102.163 46.5751 102.138 46.5751 102.125C46.5501 102.025 46.4376 101.963 46.3501 102C46.2501 102.025 46.2001 102.125 46.2251 102.225Z" fill="#E8E8E8"/>
<path d="M46.5126 102.5C46.5251 103.213 46.5001 103.913 46.4251 104.613C46.4001 104.838 46.4375 105.363 46.2875 105.538C46.275 105.55 46.0501 105.588 46.0001 105.625C45.8126 105.775 46.0751 106.038 46.2626 105.888C46.3251 105.838 46.4751 105.888 46.5751 105.775C46.7251 105.625 46.7 105.275 46.725 105.1C46.8375 104.238 46.8876 103.363 46.8751 102.488C46.8876 102.263 46.5126 102.263 46.5126 102.5Z" fill="#E8E8E8"/>
<path d="M45.8504 105.95C46.2504 106.425 46.1379 107.212 46.1004 107.787C46.0504 108.45 45.9379 109.062 45.6129 109.637C45.1504 110.487 44.5004 111.2 44.1629 112.125C44.0754 112.35 44.4379 112.45 44.5254 112.225C44.9754 111.012 46.0129 110.112 46.3254 108.837C46.5504 107.925 46.7629 106.462 46.1129 105.687C45.9629 105.512 45.7004 105.775 45.8504 105.95Z" fill="#E8E8E8"/>
<path d="M42.9001 112.3C43.2501 108.75 44.1876 105.287 45.6876 102.062C45.7876 101.85 45.4626 101.65 45.3626 101.875C43.8376 105.175 42.8751 108.687 42.5251 112.312C42.5001 112.55 42.8751 112.537 42.9001 112.3Z" fill="#E8E8E8"/>
<path d="M35.5253 103.213C37.7128 105.963 39.3128 109.125 40.2503 112.5C40.3128 112.738 40.6753 112.638 40.6128 112.4C39.6503 108.95 38.0128 105.75 35.7878 102.95C35.6378 102.763 35.3753 103.025 35.5253 103.213Z" fill="#E8E8E8"/>
<path d="M35.7627 107.825C36.8127 107.762 37.7877 108.012 38.6752 108.562C38.8752 108.687 39.0752 108.362 38.8627 108.237C37.9252 107.662 36.8627 107.387 35.7627 107.45C35.5127 107.462 35.5127 107.837 35.7627 107.825Z" fill="#E8E8E8"/>
<path d="M38.0501 106.15C37.9751 105.462 38.0626 104.8 38.3251 104.15C38.4126 103.925 38.0501 103.825 37.9626 104.05C37.6876 104.725 37.6001 105.425 37.6751 106.15C37.7001 106.387 38.0751 106.387 38.0501 106.15Z" fill="#E8E8E8"/>
<path d="M42.1004 104.075C42.5129 105.087 43.1129 106.162 43.2629 107.237C43.3004 107.475 43.6629 107.375 43.6254 107.137C43.4629 106.05 42.8629 104.975 42.4629 103.975C42.3754 103.75 42.0129 103.85 42.1004 104.075Z" fill="#E8E8E8"/>
<path d="M44.4001 105.262C44.7626 104.85 45.1126 104.362 45.5751 104.05C45.9626 103.787 46.3876 103.612 46.6876 103.25C46.8376 103.062 46.5751 102.8 46.4251 102.987C46.1001 103.375 45.6251 103.537 45.2376 103.837C44.8126 104.162 44.4876 104.6 44.1376 105C43.9751 105.187 44.2376 105.45 44.4001 105.262Z" fill="#E8E8E8"/>
<path d="M44.5253 112.175C45.1253 112.013 45.7378 111.95 46.3628 111.988C46.6003 112 46.6003 111.625 46.3628 111.613C45.7003 111.575 45.0628 111.638 44.4253 111.813C44.2003 111.875 44.2878 112.238 44.5253 112.175Z" fill="#E8E8E8"/>
<path d="M44.475 112.325C45.175 112.387 45.85 112.3 46.525 112.088C46.75 112.013 46.65 111.65 46.425 111.725C45.7875 111.925 45.1375 112 44.475 111.95C44.2375 111.937 44.2375 112.312 44.475 112.325Z" fill="#E8E8E8"/>
<path d="M37.4628 112.262C37.6253 112.262 37.7753 112.262 37.9378 112.262C38.1753 112.262 38.1753 111.887 37.9378 111.887C37.7753 111.887 37.6253 111.887 37.4628 111.887C37.2253 111.887 37.2253 112.262 37.4628 112.262Z" fill="#E8E8E8"/>
<path d="M46.6254 115.287C50.5879 115.287 54.5629 115.287 58.5254 115.287C58.7629 115.287 58.7629 114.912 58.5254 114.912C54.5629 114.912 50.5879 114.912 46.6254 114.912C46.3879 114.912 46.3879 115.287 46.6254 115.287Z" fill="#E8E8E8"/>
<path d="M113.7 112.812C116.063 112.812 118.413 112.812 120.775 112.812C121.013 112.812 121.013 112.438 120.775 112.438C118.413 112.438 116.063 112.438 113.7 112.438C113.463 112.438 113.463 112.812 113.7 112.812Z" fill="#E8E8E8"/>
<path d="M135.15 113.037C145.338 113.037 155.525 113.037 165.713 113.037C168.613 113.037 171.513 113.037 174.413 113.037C174.65 113.037 174.65 112.662 174.413 112.662C164.225 112.662 154.038 112.662 143.85 112.662C140.95 112.662 138.05 112.662 135.15 112.662C134.913 112.662 134.913 113.037 135.15 113.037Z" fill="#E8E8E8"/>
<path d="M120.062 71.9999C119.112 73.9624 118.087 75.8874 117 77.7749C116.95 77.8749 116.987 78.0374 117.112 78.0499C122.475 78.8624 127.275 81.5249 131.9 84.2124C132.112 84.3374 132.3 84.0124 132.087 83.8874C127.425 81.1874 122.6 78.5124 117.2 77.6874C117.237 77.7749 117.275 77.8749 117.312 77.9624C118.412 76.0749 119.425 74.1499 120.375 72.1874C120.487 71.9749 120.175 71.7749 120.062 71.9999Z" fill="#E8E8E8"/>
<path d="M120.888 78.8126C121.263 77.7376 121.638 76.6501 122.013 75.5751C122.175 75.1251 122.288 74.6251 122.5 74.1876C122.55 73.9251 122.713 73.7251 122.963 73.5751C123.113 73.6126 123.263 73.6501 123.413 73.6876C123.638 73.7501 123.863 73.8001 124.075 73.8626C124.588 73.9876 125.413 73.9876 125.325 74.6751C125.263 75.1626 124.975 75.6876 124.813 76.1626C124.438 77.2251 124.075 78.2876 123.7 79.3501C123.625 79.5751 123.988 79.6751 124.063 79.4501C124.55 78.0501 125.038 76.6376 125.525 75.2376C125.638 74.9126 125.95 74.3626 125.7 74.0126C125.425 73.6376 124.6 73.6126 124.175 73.5001C123.763 73.4001 123.038 73.0251 122.613 73.2251C122.25 73.3876 122.175 74.0126 122.063 74.3251C121.55 75.7876 121.038 77.2626 120.525 78.7251C120.45 78.9376 120.813 79.0376 120.888 78.8126Z" fill="#E8E8E8"/>
<path d="M125.713 80.1501C126.513 78.4626 127.325 76.7626 128.125 75.0751C128.525 74.2251 128.925 73.3876 129.338 72.5376C129.525 72.1501 129.675 71.6876 129.913 71.3251C130.113 71.0126 130.163 70.9376 130.513 71.0751C130.7 71.1501 130.925 71.3376 131.088 71.4501C131.3 71.6001 131.638 71.7626 131.788 71.9626C131.975 72.2001 131.9 72.4501 131.788 72.7501C131.638 73.1501 131.413 73.5376 131.225 73.9251C130.813 74.7751 130.4 75.6251 129.963 76.4751C129.138 78.0876 128.275 79.6876 127.388 81.2751C127.263 81.4876 127.588 81.6751 127.713 81.4626C128.8 79.5376 129.838 77.5876 130.813 75.6126C131.3 74.6376 131.838 73.6376 132.25 72.6251C132.538 71.8876 131.913 71.5876 131.363 71.2001C130.925 70.9001 130.238 70.2126 129.763 70.7751C129.463 71.1251 129.3 71.7126 129.1 72.1376C128.85 72.6501 128.613 73.1626 128.363 73.6876C127.363 75.7876 126.363 77.8876 125.375 79.9876C125.288 80.1751 125.613 80.3751 125.713 80.1501Z" fill="#E8E8E8"/>
<path d="M129.863 82.75C130.938 81.0625 132.15 79.4625 133.488 77.9875C133.413 78 133.338 78.0125 133.263 78.0125C133.738 78.3375 134.2 78.65 134.675 78.975C134.65 78.8875 134.625 78.8 134.613 78.7125C133.55 80.375 132.488 82.025 131.425 83.6875C131.3 83.8875 131.613 84.075 131.75 83.875C132.813 82.2125 133.875 80.5625 134.938 78.9C135 78.8125 134.95 78.7 134.875 78.6375C134.4 78.3125 133.938 78 133.463 77.675C133.4 77.625 133.288 77.65 133.238 77.7C131.875 79.2125 130.638 80.825 129.55 82.5375C129.413 82.775 129.738 82.9625 129.863 82.75Z" fill="#E8E8E8"/>
<path d="M144.775 70.8623C143.525 70.3873 142.738 69.1373 142.963 67.7998C143.188 66.4373 144.525 65.2248 145.9 66.0373C146.85 66.5998 147.338 67.8748 146.975 68.9123C146.6 70.0248 145.375 70.6873 144.238 70.5123C144 70.4748 143.9 70.8373 144.138 70.8748C145.475 71.0748 146.888 70.3373 147.338 69.0123C147.788 67.6873 147.063 66.0873 145.763 65.5498C144.238 64.9248 142.85 66.2373 142.588 67.6998C142.313 69.2498 143.225 70.6748 144.663 71.2248C144.9 71.3123 145 70.9498 144.775 70.8623Z" fill="#E8E8E8"/>
<path d="M147.338 70.6249C144.85 70.5499 145.788 66.5624 147.988 66.7124C150.188 66.8749 149.288 71.3624 146.875 70.5374C146.65 70.4624 146.55 70.8249 146.775 70.8999C149.563 71.8499 150.813 66.7749 148.15 66.3499C146.85 66.1374 145.675 67.3624 145.475 68.5749C145.275 69.7749 146.088 70.9499 147.338 70.9874C147.575 71.0124 147.575 70.6374 147.338 70.6249Z" fill="#E8E8E8"/>
<path d="M145.475 59.3125C145.263 59.0875 145.163 58.725 145.325 58.45C145.488 58.1875 145.888 58.0625 146.138 58.2625C146.363 58.4375 146.413 58.8125 146.2 59C145.95 59.225 145.55 59.1125 145.313 58.925C145.125 58.775 144.863 59.0375 145.05 59.1875C145.438 59.4875 146.038 59.6375 146.45 59.275C146.825 58.9375 146.788 58.3125 146.413 57.9875C146.025 57.65 145.413 57.75 145.088 58.125C144.725 58.55 144.825 59.1875 145.2 59.575C145.375 59.75 145.638 59.4875 145.475 59.3125Z" fill="#E8E8E8"/>
<path d="M109.2 68.725C108.85 66.6 110.088 64.0375 112.488 64.0625C113.713 64.075 114.9 64.575 116.138 64.4C117.013 64.275 117.763 63.775 118.288 63.0875C118.813 62.4 119.113 61.5375 119.163 60.675C119.225 59.4 118.738 58.1 119.088 56.8375C119.263 56.2 119.638 55.6125 120.275 55.375C120.888 55.1625 121.55 55.2875 122.188 55.2625C123.113 55.225 123.838 54.825 124.3 54.0125C124.95 52.875 124.8 51.5125 125.25 50.3125C125.788 48.8625 127.3 47.625 128.9 48.3375C129.113 48.4375 129.313 48.1125 129.088 48.0125C126.913 47.0375 125.1 49 124.675 50.975C124.4 52.2625 124.45 54.2625 122.913 54.775C121.838 55.1375 120.625 54.575 119.638 55.3125C118.825 55.9125 118.588 57.0125 118.6 57.975C118.638 59.3875 119.075 60.7625 118.45 62.1125C117.875 63.3875 116.738 64.15 115.325 64.0625C114.075 63.9875 112.838 63.475 111.575 63.8C109.438 64.3375 108.525 66.8625 108.863 68.8375C108.888 69.05 109.25 68.95 109.2 68.725Z" fill="#E8E8E8"/>
<path d="M125 59.8124C124.538 58.7624 125.175 57.7624 126.188 57.4249C126.925 57.1749 127.738 57.1624 128.375 56.6624C128.875 56.2749 129.038 55.7874 128.975 55.1624C128.913 54.5749 128.913 54.1124 129.375 53.7124C129.763 53.3749 130.275 53.2499 130.775 53.2249C132.15 53.1749 134.038 53.8749 135.038 52.5374C135.5 51.9124 135.363 51.1374 135.575 50.4374C135.863 49.4624 136.8 48.8624 137.8 48.9124C138.038 48.9249 138.038 48.5499 137.8 48.5374C137.038 48.4999 136.3 48.7874 135.775 49.3374C135.125 50.0249 135.213 50.7999 135.013 51.6624C134.475 54.0249 131.188 52.3624 129.638 53.0999C129.063 53.3749 128.6 53.8624 128.55 54.5124C128.488 55.2749 128.838 55.8999 128.063 56.4249C127.65 56.6999 127.175 56.7874 126.7 56.8999C125.913 57.0874 125.138 57.3249 124.738 58.0874C124.413 58.6874 124.413 59.3749 124.688 59.9874C124.775 60.2249 125.088 60.0249 125 59.8124Z" fill="#E8E8E8"/>
<path d="M147.275 43.1624C147.225 43.0499 147.175 42.9249 147.138 42.7999C147.3 42.6124 147.45 42.4249 147.613 42.2374C147.663 42.2249 147.888 42.3749 147.963 42.3749C148.15 42.3999 148.313 42.3499 148.463 42.2374C148.925 41.8749 148.763 41.2999 148.9 40.8124C149.125 39.9749 150.113 40.5499 150.563 39.9249C151.013 39.3124 150.85 38.0124 152.05 38.3624C152.288 38.4249 152.388 38.0624 152.15 37.9999C151.463 37.7999 150.838 38.1249 150.588 38.7874C150.513 38.9749 150.488 39.1874 150.413 39.3749C150.25 39.8124 150.075 39.8749 149.6 39.8999C149.25 39.9249 148.975 39.8999 148.738 40.1999C148.538 40.4624 148.538 40.7999 148.5 41.1124C148.463 41.5749 148.5 41.9624 147.813 41.9124C147.675 41.8999 147.563 41.7749 147.413 41.7749C146.588 41.7624 146.725 42.7749 146.925 43.2624C147 43.4874 147.375 43.3874 147.275 43.1624Z" fill="#E8E8E8"/>
<path d="M149.625 44.2001C149.425 43.9376 149.088 43.1751 149.675 42.9751C149.888 42.9001 150.163 42.9876 150.388 42.9876C150.588 42.9876 150.763 42.9876 150.925 42.8501C151.425 42.4501 151.063 41.7376 151.325 41.2376C151.75 40.4251 152.6 41.0626 153.2 40.6376C153.625 40.3376 153.738 39.7626 153.813 39.2876C153.85 39.0501 153.488 38.9501 153.45 39.1876C153.363 39.7501 153.263 40.3751 152.563 40.4376C152.2 40.4751 151.925 40.3501 151.588 40.5126C151.038 40.7751 150.863 41.2626 150.85 41.8251C150.838 42.3001 150.95 42.5376 150.15 42.5751C150.05 42.5751 149.95 42.5501 149.85 42.5501C149.563 42.5751 149.313 42.7251 149.15 42.9626C148.8 43.4626 149 44.0376 149.35 44.4751C149.513 44.6626 149.775 44.3876 149.625 44.2001Z" fill="#E8E8E8"/>
<path d="M43.3504 50.9751C44.3879 49.7251 45.8629 48.7001 47.5629 48.8751C49.4129 49.0626 50.3254 50.5376 50.5004 52.2626C50.8004 55.1251 50.1004 58.5501 52.0379 60.9876C52.8004 61.9501 53.9379 62.4626 55.1629 62.1626C56.6379 61.8126 57.7879 60.6501 59.1004 59.9626C60.6504 59.1501 62.7879 58.7126 64.1879 60.0751C65.2129 61.0751 65.4379 62.6001 65.7754 63.9251C66.0879 65.1251 66.6254 66.4501 67.7004 67.1626C68.3504 67.5876 69.0629 67.6251 69.8129 67.5751C70.6504 67.5126 72.3629 67.4626 72.1879 68.7751C72.1629 69.0126 72.5379 69.0126 72.5629 68.7751C72.6254 68.2626 72.3879 67.8501 71.9754 67.5501C71.3254 67.0751 70.5754 67.1501 69.8129 67.2001C68.9504 67.2626 68.2129 67.1876 67.5504 66.5751C66.9504 66.0251 66.5879 65.2501 66.3254 64.4876C65.8879 63.1751 65.7629 61.7376 65.0129 60.5376C64.2754 59.3501 63.0004 58.7751 61.6254 58.8251C59.8879 58.8876 58.4254 59.8876 57.0379 60.8126C56.3754 61.2501 55.6629 61.7126 54.8504 61.8501C53.8754 62.0126 53.0129 61.5876 52.3879 60.8626C51.2129 59.4876 51.0254 57.5251 50.9629 55.8001C50.9004 54.1876 51.1129 52.4376 50.5754 50.8751C50.0879 49.4501 48.8504 48.5626 47.3629 48.4876C45.6379 48.4001 44.1254 49.4376 43.0629 50.7126C42.9254 50.9001 43.1879 51.1626 43.3504 50.9751Z" fill="#E8E8E8"/>
<path d="M37.0379 70.2624C38.9879 73.5124 40.7254 76.8749 42.2629 80.3374C42.3629 80.5624 42.6879 80.3624 42.5879 80.1499C41.0504 76.6874 39.3004 73.3249 37.3629 70.0749C37.2379 69.8624 36.9129 70.0499 37.0379 70.2624Z" fill="#E8E8E8"/>
<path d="M37.2751 70.1125C40.3126 68.225 43.4376 66.4625 46.6501 64.8625C46.8626 64.75 46.6751 64.425 46.4626 64.5375C43.2626 66.1375 40.1376 67.9 37.0876 69.7875C36.8751 69.925 37.0626 70.25 37.2751 70.1125Z" fill="#E8E8E8"/>
<path d="M46.4252 64.7C48.0127 68.0375 49.6877 71.325 51.4627 74.5625C51.5752 74.775 51.9002 74.5875 51.7877 74.375C50.0127 71.1375 48.3252 67.85 46.7502 64.5125C46.6377 64.2875 46.3252 64.475 46.4252 64.7Z" fill="#E8E8E8"/>
<path d="M42.6876 80.4124C45.6751 78.6124 48.6251 76.7624 51.5501 74.8624C51.7501 74.7374 51.5626 74.4124 51.3626 74.5374C48.4376 76.4374 45.4876 78.2874 42.5001 80.0874C42.3001 80.2124 42.4876 80.5374 42.6876 80.4124Z" fill="#E8E8E8"/>
<path d="M42.45 69.0124C42.375 71.4124 42.5125 73.7999 42.8625 76.1749C42.9 76.4124 43.2625 76.3124 43.225 76.0749C42.875 73.7374 42.75 71.3749 42.825 69.0124C42.8375 68.7749 42.4625 68.7749 42.45 69.0124Z" fill="#E8E8E8"/>
<path d="M42.4625 68.8874C44.2 70.2499 45.9375 71.5874 47.7 72.9124C47.8875 73.0624 48.075 72.7374 47.8875 72.5874C46.15 71.2874 44.425 69.9624 42.725 68.6249C42.5375 68.4749 42.275 68.7374 42.4625 68.8874Z" fill="#E8E8E8"/>
<path d="M43.2502 76.2499C44.6877 74.9624 46.5627 74.2748 47.9252 72.8873C48.1002 72.7123 47.8252 72.4499 47.6627 72.6249C46.3002 73.9999 44.4377 74.6999 42.9877 75.9874C42.8002 76.1374 43.0752 76.3999 43.2502 76.2499Z" fill="#E8E8E8"/>
<path d="M37.5378 72.2248C37.9378 72.0248 38.3378 71.8373 38.7378 71.6373C38.9503 71.5373 38.7628 71.2123 38.5503 71.3123C38.1503 71.5123 37.7503 71.6998 37.3503 71.8998C37.1378 72.0123 37.3253 72.3248 37.5378 72.2248Z" fill="#E8E8E8"/>
<path d="M38.8252 74.3499C39.1627 74.1249 39.5252 73.9374 39.9002 73.7749C40.1252 73.6874 40.0252 73.3249 39.8002 73.4124C39.3877 73.5874 39.0002 73.7874 38.6252 74.0249C38.4377 74.1624 38.6252 74.4874 38.8252 74.3499Z" fill="#E8E8E8"/>
<path d="M40.2375 76.8001C40.5875 76.6251 40.9375 76.4501 41.2875 76.2876C41.5 76.1751 41.3125 75.8626 41.1 75.9626C40.75 76.1376 40.4 76.3126 40.05 76.4751C39.8375 76.5751 40.025 76.9001 40.2375 76.8001Z" fill="#E8E8E8"/>
<path d="M40.9627 79.2499C41.3502 78.9124 41.7502 78.6249 42.2002 78.3749C42.4127 78.2499 42.2252 77.9374 42.0127 78.0499C41.5502 78.3124 41.1127 78.6249 40.7002 78.9874C40.5127 79.1499 40.7752 79.4124 40.9627 79.2499Z" fill="#E8E8E8"/>
<path d="M47.1377 67.1625C47.4252 66.9625 47.7252 66.825 48.0627 66.7375C48.3002 66.675 48.2002 66.325 47.9627 66.375C47.6002 66.4625 47.2502 66.6125 46.9377 66.8375C46.7502 66.975 46.9377 67.3 47.1377 67.1625Z" fill="#E8E8E8"/>
<path d="M48.2502 69.2999C48.6502 69.0499 49.0502 68.7999 49.4377 68.5374C49.6377 68.4124 49.4502 68.0874 49.2502 68.2124C48.8502 68.4624 48.4502 68.7124 48.0627 68.9749C47.8502 69.1124 48.0377 69.4374 48.2502 69.2999Z" fill="#E8E8E8"/>
<path d="M49.5253 71.8624C49.9503 71.6749 50.3878 71.4874 50.8128 71.2999C51.0378 71.1999 50.8378 70.8749 50.6253 70.9749C50.2003 71.1624 49.7628 71.3499 49.3378 71.5374C49.1128 71.6374 49.3128 71.9624 49.5253 71.8624Z" fill="#E8E8E8"/>
<path d="M50.4379 73.5374C50.7754 73.2124 51.1504 72.9374 51.5629 72.6999C51.7754 72.5874 51.5879 72.2624 51.3754 72.3749C50.9379 72.6249 50.5379 72.9124 50.1754 73.2624C50.0004 73.4374 50.2629 73.6999 50.4379 73.5374Z" fill="#E8E8E8"/>
<path d="M43.75 78.7625C44.0625 79.225 44.325 79.7125 44.525 80.225C44.6125 80.45 44.975 80.35 44.8875 80.125C44.675 79.575 44.4125 79.05 44.075 78.5625C43.9375 78.375 43.6125 78.5625 43.75 78.7625Z" fill="#E8E8E8"/>
<path d="M45.6625 77.7251C45.9 78.1501 46.125 78.5626 46.3625 78.9876C46.475 79.2001 46.8 79.0126 46.6875 78.8001C46.45 78.3751 46.225 77.9626 45.9875 77.5376C45.875 77.3251 45.55 77.5126 45.6625 77.7251Z" fill="#E8E8E8"/>
<path d="M47.8754 76.1374C48.1254 76.5874 48.3754 77.0374 48.6254 77.4874C48.7379 77.6999 49.0629 77.5124 48.9504 77.2999C48.7004 76.8499 48.4504 76.3999 48.2004 75.9499C48.0879 75.7374 47.7629 75.9249 47.8754 76.1374Z" fill="#E8E8E8"/>
<path d="M49.8626 74.9499C50.0626 75.4249 50.2626 75.8999 50.4751 76.3624C50.5751 76.5874 50.8876 76.3874 50.8001 76.1749C50.6001 75.6999 50.4001 75.2249 50.1876 74.7624C50.0876 74.5499 49.7626 74.7374 49.8626 74.9499Z" fill="#E8E8E8"/>
<path d="M38.5252 68.1876C38.7627 68.5751 38.9877 68.9626 39.2252 69.3376C39.3502 69.5501 39.6752 69.3501 39.5502 69.1501C39.3127 68.7626 39.0877 68.3751 38.8502 68.0001C38.7252 67.8001 38.4002 67.9876 38.5252 68.1876Z" fill="#E8E8E8"/>
<path d="M40.6752 66.9375C40.9002 67.4375 41.1252 67.9375 41.3502 68.4375C41.4502 68.6625 41.7752 68.4625 41.6752 68.25C41.4502 67.75 41.2252 67.25 41.0002 66.75C40.8877 66.525 40.5752 66.7125 40.6752 66.9375Z" fill="#E8E8E8"/>
<path d="M42.6128 65.7375C42.9503 66.1875 43.2128 66.675 43.3878 67.2C43.4628 67.425 43.8253 67.325 43.7503 67.1C43.5628 66.5375 43.3003 66.0125 42.9378 65.55C42.8003 65.3625 42.4753 65.5375 42.6128 65.7375Z" fill="#E8E8E8"/>
<path d="M44.7002 64.775C44.9627 65.175 45.2127 65.5625 45.4752 65.9625C45.6002 66.1625 45.9252 65.975 45.8002 65.775C45.5377 65.375 45.2877 64.9875 45.0252 64.5875C44.8877 64.3875 44.5627 64.575 44.7002 64.775Z" fill="#E8E8E8"/>
<path d="M64.1377 39.9874C62.9252 39.6124 62.8627 38.3249 63.4377 37.3624C64.0002 36.4249 65.0877 36.1749 65.9377 36.9499C66.6377 37.5999 66.7002 38.7124 66.0502 39.4249C65.4002 40.1499 64.3377 40.1374 63.5877 39.5874C63.4002 39.4374 63.2127 39.7624 63.4002 39.9124C64.3502 40.6124 65.7377 40.4999 66.4502 39.5124C67.1877 38.5124 66.9252 37.1124 65.8877 36.4374C63.3877 34.8249 61.2377 39.4749 64.0377 40.3499C64.2752 40.4249 64.3752 40.0624 64.1377 39.9874Z" fill="#E8E8E8"/>
<path d="M66.15 40.3124C65.2125 40.5999 64.9875 39.4749 65.4 38.8749C65.7375 38.3874 66.4 38.0999 67 38.2624C67.575 38.4124 67.9875 38.9999 67.8375 39.5874C67.65 40.3249 66.875 40.5874 66.1875 40.4749C65.95 40.4374 65.85 40.7999 66.0875 40.8374C67.0125 40.9999 68.0125 40.5999 68.2125 39.5999C68.3875 38.7374 67.7125 37.9499 66.875 37.8499C65.95 37.7374 64.9375 38.4124 64.8125 39.3624C64.7 40.1874 65.45 40.9249 66.275 40.6624C66.4875 40.5999 66.3875 40.2374 66.15 40.3124Z" fill="#E8E8E8"/>
<path d="M58.175 48.4499C57.875 49.0624 58.3 49.6749 58.925 49.8374C59.4 49.9624 59.9 49.8499 60.3875 49.8749C60.9125 49.8999 61.4375 50.0249 61.9125 50.2374C62.9625 50.7124 63.6375 51.5749 63.675 52.7374C63.7125 53.7124 63.425 54.7249 63.85 55.6499C64.75 57.5999 67.225 56.1124 68.5 57.3749C69.5625 58.4374 69.125 60.3749 70.55 61.1874C70.7625 61.3124 70.95 60.9874 70.7375 60.8624C69.4625 60.1374 69.7625 58.2499 68.8625 57.1999C68.3875 56.6499 67.7 56.4999 67 56.4499C66.15 56.3999 65.05 56.5749 64.425 55.8499C63.7 54.9999 64.0875 53.7249 64.05 52.7249C64.025 51.9374 63.7625 51.2249 63.2125 50.6624C62.725 50.1749 62.0875 49.8374 61.425 49.6624C61.0875 49.5749 60.7375 49.5124 60.3875 49.4999C59.9375 49.4749 57.9875 49.6999 58.5125 48.6374C58.6125 48.4249 58.2875 48.2374 58.175 48.4499Z" fill="#E8E8E8"/>
<path d="M28.9502 115.925C31.2127 115.925 33.4627 115.925 35.7252 115.925C35.9627 115.925 35.9627 115.55 35.7252 115.55C33.4627 115.55 31.2127 115.55 28.9502 115.55C28.7002 115.55 28.7002 115.925 28.9502 115.925Z" fill="#E8E8E8"/>
<path d="M32.6001 124.4C36.9501 124.4 41.2876 124.4 45.6376 124.4C45.8751 124.4 45.8751 124.025 45.6376 124.025C41.2876 124.025 36.9501 124.025 32.6001 124.025C32.3501 124.025 32.3501 124.4 32.6001 124.4Z" fill="#E8E8E8"/>
<path d="M45.1128 122.05C49.1503 122.05 53.2003 122.05 57.2378 122.05C57.4753 122.05 57.4753 121.675 57.2378 121.675C53.2003 121.675 49.1503 121.675 45.1128 121.675C44.8628 121.675 44.8628 122.05 45.1128 122.05Z" fill="#E8E8E8"/>
<path d="M112.35 121.4C114.388 120.9 116.438 120.85 118.513 121.175C119.388 121.313 120.275 121.45 121.163 121.375C122.025 121.3 122.863 121.038 123.7 120.813C124.65 120.55 125.6 120.35 126.6 120.425C127.625 120.5 128.613 120.788 129.613 121.013C130.475 121.213 131.35 121.35 132.238 121.338C133.175 121.313 134.1 121.15 135.013 121.013C137.513 120.613 139.863 120.863 142.338 121.275C142.575 121.313 142.675 120.95 142.438 120.913C140.438 120.588 138.425 120.25 136.388 120.45C134.263 120.663 132.288 121.188 130.138 120.75C128.338 120.388 126.625 119.825 124.775 120.175C123.788 120.363 122.85 120.713 121.863 120.9C120.763 121.113 119.7 120.988 118.6 120.813C116.463 120.488 114.35 120.513 112.238 121.038C112.025 121.1 112.125 121.463 112.35 121.4Z" fill="#E8E8E8"/>
<path d="M131.55 117.6C135.475 117.387 139.4 117.175 143.325 116.975C145.263 116.875 147.138 116.912 149.063 117.175C149.925 117.287 150.75 117.312 151.613 117.212C152.575 117.1 153.575 116.95 154.475 117.412C154.688 117.525 154.875 117.2 154.663 117.087C153.138 116.312 151.375 117.037 149.738 116.887C148.763 116.8 147.813 116.612 146.838 116.562C145.825 116.512 144.813 116.537 143.8 116.587C139.713 116.775 135.625 117.025 131.538 117.237C131.313 117.237 131.313 117.612 131.55 117.6Z" fill="#E8E8E8"/>
<path d="M54.6877 128.337C56.5377 128.512 58.4002 128.687 60.2502 128.475C61.1127 128.375 61.9377 128.187 62.7752 127.937C63.8627 127.612 64.8377 127.525 65.9627 127.725C66.8252 127.875 67.6752 128.087 68.5377 128.162C69.4502 128.237 70.3627 128.187 71.2752 128.1C73.1877 127.912 75.1002 127.587 77.0002 128.012C77.2377 128.062 77.3377 127.7 77.1002 127.65C75.2752 127.25 73.4502 127.512 71.6127 127.7C70.7002 127.787 69.7877 127.875 68.8752 127.825C67.8377 127.775 66.8377 127.5 65.8252 127.337C64.9752 127.2 64.1627 127.2 63.3252 127.4C62.4252 127.625 61.5752 127.925 60.6502 128.062C58.6752 128.35 56.6627 128.15 54.6877 127.975C54.4377 127.937 54.4502 128.312 54.6877 128.337Z" fill="#E8E8E8"/>
<path d="M74.4626 27.475C73.9751 27.1375 73.3126 26.6 73.5126 25.925C73.7251 25.225 74.2501 25.5625 74.7376 25.4C75.3876 25.1875 75.3501 24.4 75.1626 23.8875C74.9751 23.3875 74.5751 22.175 75.6126 22.5875C75.8501 22.6875 76.0251 22.85 76.3001 22.7625C76.5501 22.6875 76.6751 22.4625 76.7376 22.225C76.7876 22.0125 76.7501 21.7875 76.7376 21.5625C76.7126 21.4125 76.7001 21.25 76.7001 21.1C76.6501 20.7375 76.8751 20.5875 77.3501 20.65C77.3626 20.8875 77.7376 20.8875 77.7251 20.65C77.7001 20.3 77.4376 20.05 77.0626 20.0625C76.6251 20.075 76.3876 20.5 76.3376 20.9C76.3001 21.175 76.5251 21.8125 76.4001 22.0375C76.2501 22.1375 76.1001 22.25 75.9376 22.35C75.8751 22.3125 75.8126 22.275 75.7501 22.2375C75.6376 22.2 75.5501 22.125 75.4376 22.1C75.0501 22.0125 74.7376 22.25 74.6001 22.6C74.3626 23.2 74.7876 23.7 74.9126 24.2625C75.0751 25.0375 74.4876 24.95 73.9751 25.0375C73.7501 25.075 73.5626 25.1875 73.4126 25.35C72.6251 26.2625 73.5376 27.275 74.2876 27.8C74.4751 27.9375 74.6626 27.6125 74.4626 27.475Z" fill="#E8E8E8"/>
<path d="M76.9252 27.1249C76.5127 26.6499 76.2002 25.9999 77.0002 25.7499C77.2002 25.6874 77.4252 25.7124 77.6127 25.5874C78.0252 25.2999 77.8502 24.9124 77.7752 24.5124C77.7377 24.2874 77.6502 23.9874 77.7877 23.7624C77.8877 23.5999 78.2502 23.5374 78.4377 23.4999C78.7002 23.4374 78.9752 23.3999 79.2002 23.2499C79.5377 23.0124 79.6627 22.5874 79.4377 22.2249C79.3127 22.0249 78.9877 22.2124 79.1127 22.4124C79.4877 23.0124 77.7377 23.1749 77.4377 23.6124C77.0877 24.1249 77.8252 25.0249 77.2127 25.3499C76.9752 25.4749 76.6752 25.3874 76.4502 25.5499C76.2877 25.6624 76.1752 25.8374 76.1252 26.0249C75.9877 26.5624 76.3502 27.0249 76.6752 27.3999C76.8252 27.5749 77.0877 27.3124 76.9252 27.1249Z" fill="#E8E8E8"/>
<path d="M62.1629 24.1624C61.8379 23.9374 61.8004 23.5374 61.9004 23.1874C61.9629 22.9499 62.2629 22.2999 62.5504 22.2749C63.0254 22.2249 63.2629 22.8249 63.3879 23.1749C63.5004 23.5124 63.5379 23.8499 63.5504 24.1999C63.5504 24.4374 63.9254 24.4374 63.9254 24.1999C63.9129 23.4999 63.4504 21.3499 62.3004 21.9749C61.8629 22.2124 61.5379 22.8999 61.4879 23.3749C61.4379 23.8249 61.6129 24.2249 61.9754 24.4874C62.1629 24.6249 62.3504 24.2999 62.1629 24.1624Z" fill="#E8E8E8"/>
<path d="M62.0128 24.3624C61.5628 24.4749 61.1128 24.5874 60.6503 24.6999C60.3878 24.7624 59.9378 24.7874 59.7253 24.9874C59.3628 25.3249 59.4628 26.3624 59.4628 26.7999C59.4628 26.9249 59.5878 27.0124 59.7003 26.9749C59.7628 26.9624 59.8253 26.9374 59.9003 26.9249C60.2253 26.7499 60.3878 26.8624 60.4003 27.2374C60.6503 27.4874 60.6503 27.6374 60.4003 27.6624C60.2503 27.7249 60.1003 27.7499 59.9378 27.7499C59.8378 27.7624 59.7503 27.8249 59.7503 27.9374C59.7753 28.7374 59.8378 29.5249 59.9253 30.3249C59.9503 30.5624 60.3253 30.5624 60.3003 30.3249C60.2128 29.5249 60.1503 28.7374 60.1253 27.9374C60.0628 27.9999 60.0003 28.0624 59.9378 28.1249C60.4628 28.0624 61.3003 27.8499 61.1878 27.1374C61.0628 26.3749 60.1378 26.4624 59.6128 26.6124C59.6878 26.6749 59.7753 26.7374 59.8503 26.7874C59.8503 26.4999 59.8503 26.2249 59.8753 25.9374C59.9128 25.4874 59.8878 25.3249 60.3003 25.1624C60.8628 24.9374 61.5253 24.8624 62.1128 24.7124C62.3503 24.6749 62.2503 24.3124 62.0128 24.3624Z" fill="#E8E8E8"/>
<path d="M63.8129 24.4749C64.3379 24.4499 64.8754 24.4499 65.4004 24.5124C65.9004 24.5749 65.8754 24.6499 65.9504 25.0874C66.0004 25.3624 66.0129 25.6499 66.0379 25.9249C66.1379 26.9999 66.2129 28.0749 66.2754 29.1499C66.2879 29.3874 66.6629 29.3874 66.6504 29.1499C66.5754 27.6874 66.5254 26.1874 66.2879 24.7374C66.2254 24.3749 66.1629 24.2624 65.7879 24.1999C65.1379 24.0749 64.4629 24.0749 63.8129 24.1124C63.5754 24.1124 63.5754 24.4874 63.8129 24.4749Z" fill="#E8E8E8"/>
<path d="M60.2002 30.5875C60.9377 30.4625 61.6752 30.3375 62.4002 30.2125C63.2377 30.075 64.0377 30.1375 64.8752 30.075C65.2627 30.0375 67.1002 29.85 66.4252 29.0875C66.2627 28.9125 66.0002 29.175 66.1627 29.35C66.2627 29.4625 64.5627 29.7125 64.5252 29.7125C64.0002 29.725 63.4752 29.7 62.9502 29.7625C62.0002 29.875 61.0502 30.075 60.1002 30.2375C59.8627 30.2625 59.9627 30.625 60.2002 30.5875Z" fill="#E8E8E8"/>
<path d="M126.6 102.575C126.562 103.887 126.525 105.2 126.487 106.525C128.15 106.637 129.8 106.737 131.462 106.85C131.462 105.5 131.462 104.15 131.462 102.8C129.837 102.725 128.225 102.65 126.6 102.575Z" fill="white" stroke="#161616" stroke-width="0.5" stroke-miterlimit="10"/>
<path d="M128.762 117.162C128.987 118.612 129.087 119.812 129.137 120.675C129.3 123.537 129.175 124.2 128.925 124.725C128.312 126.012 127.2 126.55 127.3 126.725C127.375 126.837 127.925 126.712 130.375 125.425C130.225 122.575 130.087 119.737 129.937 116.887C129.55 116.987 129.162 117.075 128.762 117.162Z" fill="white" stroke="#161616" stroke-width="0.5" stroke-miterlimit="10"/>
<path d="M125.525 107.975C127.65 107.987 129.775 108.012 131.9 108.025C131.662 110.875 131.437 113.712 131.2 116.562C129.35 116.412 127.487 116.275 125.637 116.125C125.587 113.412 125.55 110.7 125.525 107.975Z" fill="white" stroke="#161616" stroke-width="0.5" stroke-miterlimit="10"/>
<path d="M126.388 117.062C127.063 118.7 127.288 120.112 127.363 121.062C127.475 122.463 127.55 123.537 126.875 124.25C126.625 124.525 126.213 124.787 125.413 125.325C124.7 125.8 124.363 125.975 124.388 126.025C124.425 126.1 125.113 125.95 128.113 124.887C128.313 123.875 128.475 122.575 128.438 121.05C128.388 119.425 128.125 118.038 127.838 117C127.363 117.025 126.875 117.038 126.388 117.062Z" fill="white" stroke="#161616" stroke-width="0.5" stroke-miterlimit="10"/>
<path d="M127.475 126.837C127.85 126.525 128.2 126.187 128.538 125.825C128.925 125.4 129.5 124.75 130.1 125.312C130.113 125.212 130.125 125.112 130.138 125.012C129.25 125.45 128.375 125.887 127.488 126.312C127.313 126.4 127.4 126.662 127.588 126.662C128.425 126.675 128.95 125.212 129.813 125.487C130.038 125.562 130.138 125.2 129.913 125.125C129.538 125.012 129.25 125.112 128.938 125.337C128.575 125.6 128.063 126.287 127.6 126.287C127.638 126.4 127.663 126.525 127.7 126.637C128.588 126.2 129.463 125.762 130.35 125.337C130.463 125.287 130.475 125.125 130.388 125.037C130.05 124.725 129.45 124.612 129.025 124.812C128.713 124.95 128.513 125.312 128.288 125.55C127.95 125.912 127.6 126.237 127.225 126.562C127.025 126.725 127.288 127 127.475 126.837Z" fill="#161616"/>
<path d="M129.012 124.887C129.387 124.9 129.75 124.975 130.1 125.125C130.312 125.225 130.512 124.9 130.287 124.8C129.875 124.613 129.462 124.513 129.012 124.5C128.775 124.513 128.775 124.887 129.012 124.887Z" fill="#161616"/>
<path d="M126.963 124.45C127.25 124.525 127.5 124.675 127.7 124.9C127.863 125.075 128.125 124.813 127.963 124.638C127.713 124.375 127.4 124.188 127.05 124.1C126.838 124.025 126.738 124.388 126.963 124.45Z" fill="#161616"/>
<path d="M124.937 125.962C125.325 125.675 125.725 125.412 126.137 125.162C126.325 125.05 126.525 124.9 126.725 124.837C127.037 124.725 127.225 124.8 127.512 124.925C127.512 124.812 127.512 124.712 127.512 124.6C127.112 124.775 126.662 124.762 126.25 124.937C125.85 125.1 125.475 125.5 125.062 125.575C125.112 125.687 125.162 125.8 125.212 125.912C125.95 125.55 126.775 125.487 127.512 125.125C127.725 125.012 127.537 124.7 127.325 124.8C126.587 125.162 125.762 125.225 125.025 125.587C124.825 125.687 124.975 125.962 125.175 125.925C125.625 125.85 125.987 125.437 126.412 125.275C126.837 125.112 127.3 125.1 127.712 124.925C127.837 124.875 127.837 124.65 127.712 124.6C127.237 124.387 127.025 124.262 126.55 124.512C125.925 124.837 125.337 125.225 124.775 125.637C124.55 125.775 124.737 126.1 124.937 125.962Z" fill="#161616"/>
<path d="M127.075 118.975C127.387 118.862 127.7 118.875 127.987 119.025C128.2 119.137 128.387 118.812 128.175 118.7C127.8 118.5 127.375 118.462 126.975 118.612C126.75 118.7 126.85 119.062 127.075 118.975Z" fill="#161616"/>
<path d="M127.387 120.225C127.65 120.2 127.9 120.262 128.1 120.437C128.287 120.587 128.55 120.325 128.362 120.175C128.087 119.95 127.75 119.825 127.387 119.85C127.15 119.862 127.15 120.237 127.387 120.225Z" fill="#161616"/>
<path d="M127.525 121.787C127.762 121.762 127.987 121.85 128.125 122.05C128.25 122.25 128.575 122.062 128.45 121.862C128.262 121.55 127.9 121.362 127.537 121.412C127.437 121.425 127.35 121.487 127.35 121.6C127.337 121.687 127.425 121.8 127.525 121.787Z" fill="#161616"/>
<path d="M129.137 118.888C129.362 118.763 129.65 118.775 129.862 118.95C130.05 119.1 130.312 118.838 130.125 118.688C129.787 118.413 129.337 118.35 128.95 118.563C128.737 118.688 128.925 119.013 129.137 118.888Z" fill="#161616"/>
<path d="M129.35 121.25C129.55 121.163 129.775 121.2 129.937 121.35C130.112 121.513 130.387 121.25 130.2 121.088C129.912 120.825 129.512 120.763 129.15 120.938C128.937 121.025 129.137 121.35 129.35 121.25Z" fill="#161616"/>
<path d="M129.4 123.25C129.6 123.125 129.85 123.125 130.037 123.275C130.225 123.425 130.487 123.163 130.3 123.013C129.987 122.75 129.55 122.713 129.212 122.938C129.012 123.063 129.2 123.388 129.4 123.25Z" fill="#161616"/>
<path d="M132.2 108.012C131.95 110.887 131.7 113.762 131.45 116.637" stroke="#161616" stroke-width="0.5" stroke-miterlimit="10"/>
<path d="M125.6 116.238C127.687 116.388 129.775 116.525 131.862 116.675" stroke="#161616" stroke-width="0.5" stroke-miterlimit="10"/>
<path d="M131.875 102.688C131.825 104.112 131.762 105.525 131.712 106.95" stroke="#161616" stroke-width="0.5" stroke-miterlimit="10"/>
<path d="M132.138 109.7C133.3 109.488 134.538 110.4 134.625 111.6C134.75 113.1 133.038 113.363 131.913 113.2C131.675 113.163 131.575 113.525 131.813 113.563C133.188 113.763 135.125 113.375 135 111.6C134.9 110.138 133.438 109.075 132.038 109.338C131.8 109.375 131.9 109.738 132.138 109.7Z" fill="#161616"/>
<path d="M131.863 113.862C132.35 113.962 132.738 114.312 132.875 114.787C132.938 115.025 133.3 114.925 133.238 114.687C133.075 114.087 132.588 113.612 131.975 113.5C131.725 113.462 131.625 113.812 131.863 113.862Z" fill="#161616"/>
<path d="M131.675 113.737C131.975 114.175 132.112 114.662 132.062 115.2C132.05 115.437 132.425 115.437 132.437 115.2C132.475 114.612 132.325 114.037 131.987 113.55C131.862 113.35 131.537 113.537 131.675 113.737Z" fill="#161616"/>
<path d="M125.512 109.525C124.687 109 123.175 110.512 122.987 111.25C122.612 112.75 124.537 112.575 125.337 113.075C125.537 113.2 125.725 112.875 125.525 112.75C124.95 112.387 124.1 112.525 123.6 112.075C122.987 111.525 123.55 110.862 123.975 110.475C124.2 110.275 124.962 109.612 125.325 109.837C125.525 109.987 125.725 109.662 125.512 109.525Z" fill="#161616"/>
<path d="M125.312 112.9C124.987 113.025 124.687 113.212 124.437 113.475C124.25 113.675 124.012 113.987 124.2 114.262C124.337 114.462 124.662 114.275 124.525 114.075C124.437 113.95 124.762 113.675 124.85 113.6C125.012 113.45 125.2 113.337 125.412 113.262C125.637 113.175 125.55 112.812 125.312 112.9Z" fill="#161616"/>
<path d="M125.162 113.162C124.925 113.537 124.85 113.962 124.937 114.387C124.987 114.625 125.35 114.525 125.3 114.287C125.225 113.95 125.3 113.637 125.487 113.35C125.625 113.15 125.3 112.962 125.162 113.162Z" fill="#161616"/>
<path d="M126.35 109.287C126.287 110.2 126.3 111.125 126.362 112.037C126.387 112.275 126.762 112.275 126.737 112.037C126.662 111.125 126.662 110.2 126.725 109.287C126.75 109.05 126.375 109.05 126.35 109.287Z" fill="#161616"/>
<path d="M126.625 109.388C127.95 109.463 129.262 109.513 130.587 109.538C130.525 109.475 130.462 109.413 130.4 109.35C130.362 110.288 130.325 111.238 130.275 112.175C130.262 112.413 130.637 112.413 130.65 112.175C130.687 111.238 130.725 110.288 130.775 109.35C130.775 109.25 130.687 109.163 130.587 109.163C129.262 109.138 127.95 109.088 126.625 109.013C126.387 109 126.387 109.375 126.625 109.388Z" fill="#161616"/>
<path d="M126.475 112.2C127.025 112.35 127.637 112.313 128.187 112.35C128.862 112.388 129.55 112.438 130.225 112.475C130.462 112.488 130.462 112.113 130.225 112.1C129.625 112.063 129.025 112.025 128.425 111.988C127.825 111.95 127.15 111.988 126.562 111.838C126.35 111.775 126.25 112.138 126.475 112.2Z" fill="#161616"/>
<path d="M126.9 114.137C127.125 114.625 127.612 114.2 127.987 114.375C128.162 114.45 128.125 114.562 128.362 114.575C128.637 114.587 129.312 114.038 129.45 114.55C129.487 114.688 129.662 114.725 129.762 114.637C129.887 114.6 130.025 114.562 130.15 114.537C130.3 114.725 130.575 114.45 130.412 114.275C130.125 113.938 129.762 114.125 129.487 114.375C129.587 114.4 129.7 114.425 129.8 114.463C129.687 114.025 129.225 113.737 128.787 113.937C128.575 114.037 128.55 114.225 128.225 114.1C128.162 114.075 128.137 113.975 128.075 113.95C127.937 113.9 127.212 113.975 127.212 113.963C127.125 113.725 126.8 113.912 126.9 114.137Z" fill="#161616"/>
<path d="M127.562 104.3C127.587 104.162 127.75 104.125 127.862 104.175C128.025 104.237 128.112 104.425 128.187 104.562C128.287 104.775 128.612 104.587 128.512 104.375C128.375 104.1 128.162 103.812 127.825 103.775C127.55 103.75 127.262 103.912 127.212 104.187C127.15 104.437 127.512 104.537 127.562 104.3Z" fill="#161616"/>
<path d="M129.862 104.475C129.887 104.35 130 104.275 130.125 104.325C130.275 104.375 130.337 104.562 130.362 104.7C130.4 104.937 130.762 104.837 130.725 104.6C130.675 104.3 130.475 103.987 130.15 103.937C129.862 103.9 129.55 104.075 129.5 104.375C129.462 104.612 129.825 104.712 129.862 104.475Z" fill="#161616"/>
<path d="M127.75 105.087C128.175 105.837 129.187 105.95 129.737 105.275C129.887 105.087 129.625 104.825 129.475 105.012C129.075 105.5 128.387 105.462 128.075 104.9C127.962 104.687 127.637 104.875 127.75 105.087Z" fill="#161616"/>
<path d="M114.638 37.1626C113.063 36.5251 112.113 35.0001 111.538 33.4751C110.925 31.8876 110.663 30.1626 110.75 28.4626C110.9 25.3251 112.238 22.1501 114.713 20.1501C117.05 18.2501 120.513 17.7126 123.113 19.4376C125.825 21.2376 126.313 24.9501 126.338 27.9376C126.363 31.2626 125.588 34.7501 123.125 37.1376C122.95 37.3001 123.213 37.5751 123.388 37.4001C125.725 35.1251 126.613 31.8751 126.7 28.7001C126.788 25.5876 126.413 21.6501 123.85 19.5126C121.45 17.5126 117.888 17.6126 115.325 19.2376C112.488 21.0376 110.813 24.3001 110.45 27.5876C110.225 29.6251 110.475 31.7376 111.225 33.6626C111.863 35.2876 112.875 36.8376 114.55 37.5126C114.763 37.6126 114.85 37.2501 114.638 37.1626Z" fill="#161616"/>
<path d="M114.463 37.4C114.038 38 114.125 38.8875 114.75 39.3375C115.225 39.675 115.925 39.725 116.488 39.8C117.163 39.9 117.85 39.9375 118.538 39.9375C119.763 39.925 121.163 39.8375 122.3 39.3625C123.125 39.0125 123.75 38.1875 123.313 37.3C123.213 37.0875 122.888 37.275 122.988 37.4875C123.925 39.4 119.488 39.5625 118.525 39.5625C117.638 39.5625 116.75 39.4875 115.888 39.325C115.475 39.25 115.013 39.175 114.75 38.8125C114.488 38.4375 114.538 37.95 114.788 37.6C114.925 37.3875 114.6 37.2 114.463 37.4Z" fill="#161616"/>
<path d="M114.863 39.4252C114.863 40.0502 114.875 40.6877 114.95 41.3127C114.988 41.6002 115.05 41.8502 115.288 42.0252C115.625 42.2752 116.188 42.2627 116.588 42.3002C117.263 42.3502 117.95 42.3502 118.625 42.3252C119.263 42.3002 119.9 42.2502 120.538 42.1877C120.913 42.1502 121.338 42.1627 121.625 41.8752C122.263 41.2502 122.275 40.0627 122.113 39.2752C122.063 39.0377 121.7 39.1377 121.75 39.3752C121.838 39.8002 121.863 40.2252 121.775 40.6627C121.65 41.2752 121.475 41.6752 120.788 41.8002C119.988 41.9502 119.088 41.9502 118.275 41.9627C117.475 41.9752 116.575 42.0127 115.788 41.8252C115.063 41.6502 115.25 40.0252 115.25 39.4252C115.238 39.1877 114.863 39.1877 114.863 39.4252Z" fill="#161616"/>
<path d="M114.988 25.9627C116.488 26.9002 117.625 28.2752 118.263 29.9252C118.35 30.1502 118.713 30.0502 118.625 29.8252C117.95 28.0752 116.763 26.6252 115.188 25.6377C114.975 25.5002 114.788 25.8252 114.988 25.9627Z" fill="#161616"/>
<path d="M118.563 29.925C119.3 28.375 120.375 27.05 121.75 26.025C121.938 25.8875 121.75 25.55 121.563 25.7C120.138 26.7625 119.013 28.1375 118.238 29.7375C118.138 29.95 118.463 30.1375 118.563 29.925Z" fill="#161616"/>
<path d="M118.263 29.4875C118.45 32.0625 118.538 34.6376 118.5 37.2126C118.5 37.4501 118.875 37.4501 118.875 37.2126C118.913 34.6376 118.825 32.05 118.638 29.4875C118.613 29.2375 118.238 29.2375 118.263 29.4875Z" fill="#161616"/>
<path d="M103.625 35.7877C105.287 35.2252 106.937 34.6627 108.6 34.1002C108.825 34.0252 108.725 33.6627 108.5 33.7377C106.837 34.3002 105.187 34.8627 103.525 35.4252C103.287 35.5002 103.387 35.8627 103.625 35.7877Z" fill="#161616"/>
<path d="M105.525 33.2877C106.1 33.1252 106.675 32.9502 107.25 32.7877C107.475 32.7252 107.388 32.3627 107.15 32.4252C106.575 32.5877 106 32.7627 105.425 32.9252C105.2 33.0002 105.288 33.3627 105.525 33.2877Z" fill="#161616"/>
<path d="M101.363 29.1251C103.563 29.1001 105.75 29.1626 107.938 29.3001C108.175 29.3126 108.175 28.9376 107.938 28.9251C105.75 28.7876 103.55 28.7376 101.363 28.7501C101.125 28.7501 101.125 29.1251 101.363 29.1251Z" fill="#161616"/>
<path d="M106.013 27.4251C106.538 27.5626 107.075 27.6251 107.613 27.6376C107.85 27.6376 107.85 27.2626 107.613 27.2626C107.1 27.2501 106.6 27.1876 106.113 27.0626C105.875 27.0001 105.775 27.3626 106.013 27.4251Z" fill="#161616"/>
<path d="M105.2 15.7875C107.163 17.475 108.95 19.325 110.563 21.35C110.713 21.5375 110.975 21.275 110.825 21.0875C109.213 19.0625 107.425 17.2 105.463 15.525C105.288 15.3625 105.013 15.625 105.2 15.7875Z" fill="#161616"/>
<path d="M110.688 19.3375C111.025 19.6875 111.35 20.0375 111.688 20.4C111.85 20.575 112.113 20.3125 111.95 20.1375C111.613 19.7875 111.288 19.4375 110.95 19.075C110.788 18.9 110.525 19.1625 110.688 19.3375Z" fill="#161616"/>
<path d="M103.075 20.0377C103.688 20.4002 104.313 20.7377 104.95 21.0502C105.163 21.1627 105.35 20.8377 105.138 20.7252C104.5 20.4002 103.875 20.0627 103.263 19.7127C103.05 19.5877 102.863 19.9127 103.075 20.0377Z" fill="#161616"/>
<path d="M124.825 17.1876C126.675 15.3376 128.525 13.4876 130.375 11.6376C130.55 11.4626 130.275 11.2001 130.113 11.3751C128.263 13.2251 126.413 15.0751 124.563 16.9251C124.388 17.1001 124.65 17.3626 124.825 17.1876Z" fill="#161616"/>
<path d="M126.688 18.05C127.163 17.7 127.638 17.3625 128.113 17.0125C128.3 16.875 128.125 16.55 127.925 16.6875C127.45 17.0375 126.975 17.375 126.5 17.725C126.3 17.8625 126.488 18.1875 126.688 18.05Z" fill="#161616"/>
<path d="M119.05 14.7376C119.425 12.9251 119.713 11.1001 119.888 9.2626C119.913 9.0251 119.538 9.0251 119.513 9.2626C119.338 11.0626 119.063 12.8626 118.688 14.6376C118.638 14.8751 119 14.9751 119.05 14.7376Z" fill="#161616"/>
<path d="M129.563 26.2375C132.963 25.925 136.35 25.6125 139.75 25.3C139.988 25.275 139.988 24.9 139.75 24.925C136.35 25.2375 132.963 25.55 129.563 25.8625C129.325 25.875 129.313 26.25 129.563 26.2375Z" fill="#161616"/>
<path d="M115.275 37.85C117.387 38.3125 119.537 38.3 121.637 37.825C121.875 37.775 121.775 37.4125 121.537 37.4625C119.5 37.925 117.412 37.9375 115.375 37.4875C115.137 37.4375 115.037 37.8 115.275 37.85Z" fill="#161616"/>
<path d="M115.588 41.0251C117.2 41.2376 118.813 41.2876 120.438 41.1751C120.675 41.1626 120.675 40.7876 120.438 40.8001C118.813 40.9126 117.2 40.8626 115.588 40.6501C115.35 40.6251 115.35 41.0001 115.588 41.0251Z" fill="#161616"/>
<path d="M127.2 36.5877C129.738 38.3752 132.325 40.1002 134.95 41.7627C135.15 41.8877 135.338 41.5627 135.138 41.4377C132.513 39.7752 129.925 38.0502 127.388 36.2627C127.188 36.1252 127 36.4502 127.2 36.5877Z" fill="#161616"/>
<path d="M95.2624 124.513C92.8874 127.425 90.5249 130.325 88.1499 133.238C90.9374 143.038 92.5124 145.613 93.4499 145.475C94.1249 145.375 94.4499 143.913 94.8124 142.275C95.7124 138.188 95.1749 134.675 94.6249 132.488C96.1249 130.813 97.6124 129.125 99.1124 127.45C97.8249 126.475 96.5499 125.5 95.2624 124.513Z" fill="#161616" stroke="#161616" stroke-width="2" stroke-miterlimit="10"/>
<path d="M86.4998 109.513C87.9873 110.663 89.4123 110.25 92.3623 110.75C94.8748 111.175 97.6998 112.113 100.7 113.988C97.4998 117.738 94.2998 121.7 91.1248 125.875C90.3623 126.888 89.5998 127.9 88.8623 128.913C90.0873 129.2 91.5623 129.65 93.1623 130.375C94.7248 131.075 95.9998 131.863 97.0123 132.575C101.775 128.425 106.025 124.413 109.812 120.625C111.562 118.875 114.037 116.2 114.425 112.413C114.45 112.2 114.45 112.013 114.45 111.825C114.362 105.538 106.45 100.988 101.637 99.3126C96.3748 97.4876 87.3248 96.5001 84.7998 100.863C83.3123 103.438 84.1873 107.725 86.4998 109.513Z" fill="#F66F5D"/>
<path opacity="0.26" d="M95.7371 103.225C95.6496 104.413 95.4371 105.825 94.9996 107.388C94.6871 108.5 94.3121 109.488 93.9371 110.325C93.5246 110.488 93.1246 110.65 92.7121 110.813C95.3996 111.875 98.0996 112.938 100.787 114C98.7871 116.288 96.7746 118.688 94.7496 121.188C92.6621 123.763 90.6746 126.288 88.7871 128.775C90.1246 129.213 91.4496 129.65 92.7871 130.075C97.5746 124.8 102.362 119.513 107.15 114.238C107.65 112.8 107.625 111.675 107.475 110.888C106.787 107.038 102.075 103.9 95.7371 103.225Z" fill="#6D6C6C"/>
<path opacity="0.23" d="M100.762 113.975C101.2 114.638 101.625 115.313 102.062 115.975C98.3372 120.463 94.6122 124.938 90.8872 129.425C90.2247 129.25 89.5497 129.063 88.8872 128.888C91.2747 125.613 93.8497 122.25 96.6372 118.863C98.0247 117.175 99.3997 115.55 100.762 113.975Z" fill="#6D6C6C"/>
<path d="M88.3247 119.762C92.0122 120.437 95.7122 121.1 99.3997 121.775C103.662 131.075 104.137 134.075 103.337 134.587C102.762 134.95 101.562 134.05 100.225 133.037C96.8747 130.5 95.0122 127.475 93.9997 125.437C91.7747 125.137 89.5497 124.825 87.3247 124.525C87.6497 122.937 87.9872 121.35 88.3247 119.762Z" fill="#161616" stroke="#161616" stroke-width="2" stroke-miterlimit="10"/>
<path d="M80.7248 99.05C73.9998 101.025 69.8998 105.125 67.2623 107.825C63.6998 111.487 59.3248 115.975 60.5873 119.287C61.2373 120.975 63.2123 122.012 72.4123 123.612C79.3623 124.825 85.3873 125.475 90.0873 125.837C90.6748 123.687 91.2623 121.55 91.8373 119.4C87.1123 117.875 82.3998 116.362 77.6748 114.837C80.5748 114.225 83.6248 113.5 86.7998 112.612C89.2123 111.937 91.5123 111.237 93.6998 110.5C95.7248 106.412 96.1623 102 94.0498 99.5C91.0998 96 84.4873 97.9375 80.7248 99.05Z" fill="#F66F5D"/>
<path opacity="0.29" d="M95.6874 103.375C95.6249 104.612 95.4124 106.2 94.8374 107.95C94.4874 109.012 94.0874 109.937 93.6874 110.7C93.3499 110.725 93.0124 110.762 92.6749 110.787C89.8249 111.725 86.7874 112.613 83.5749 113.438C81.4999 113.975 79.4749 114.438 77.5124 114.863C82.2499 116.35 86.9874 117.825 91.7249 119.312C91.6249 119.825 91.4999 120.363 91.3499 120.925C91.1749 121.575 90.9749 122.175 90.7874 122.725C84.2499 121.112 77.7124 119.5 71.1749 117.887C70.8749 117.525 69.8874 116.212 70.0374 114.475C70.1999 112.587 71.9999 111.25 74.2999 110.025C80.9499 106.5 92.0999 104.113 95.6874 103.375Z" fill="#6D6C6C"/>
<path opacity="0.24" d="M74.1499 115.125C75.3374 115.038 76.5374 114.95 77.7249 114.85C82.3874 116.4 87.0499 117.963 91.7124 119.513C91.5124 120.25 91.3124 121 91.1124 121.738C85.4624 119.525 79.7999 117.325 74.1499 115.125Z" fill="#6D6C6C"/>
<path d="M78.9624 70.7251C80.8124 69.6376 84.0249 68.0876 88.2999 67.6376C94.8499 66.9501 99.8749 69.3001 101.862 70.3626C101.5 75.2751 100.937 79.2001 100.487 81.9001C99.9499 85.1251 99.5124 86.9126 99.3124 89.8751C99.0624 93.5876 99.3749 96.6376 99.6624 98.6376C97.4874 99.3125 94.1999 100.05 90.1499 99.9626C86.2499 99.8751 83.0999 99.0251 80.9874 98.2876C81.5499 93.8126 81.3624 90.2626 81.0874 87.8501C80.7749 85.1626 80.3499 83.8501 79.8374 80.6001C79.1749 76.4001 78.9999 72.9626 78.9624 70.7251Z" fill="white" stroke="#161616" stroke-miterlimit="10"/>
<path opacity="0.14" d="M92.4873 69.125C92.7498 70.075 93.0498 71.3875 93.2498 72.9625C93.3873 74.025 93.9498 78.8375 92.1998 85.1875C91.1248 89.1 89.9873 93.2375 86.2623 96.6375C85.0623 97.7375 83.8998 98.475 83.0498 98.9375C84.9373 99.425 87.3998 99.8875 90.3123 99.9125C94.1248 99.95 97.2748 99.2625 99.4623 98.5875C99.3373 97.65 99.1748 96.2375 99.1123 94.5375C99.0623 93.05 99.0623 90.675 100.087 83.9875C100.9 78.725 101.475 76.4625 101.762 71.7C101.8 71.15 101.812 70.6875 101.837 70.375C100.925 69.8375 99.7373 69.25 98.2748 68.775C96.9248 68.3375 95.7123 68.1125 94.7123 68.0125C93.9873 68.375 93.2373 68.75 92.4873 69.125Z" fill="#6D6C6C"/>
<path opacity="0.17" d="M101.475 72.4126C100.775 76.3751 99.8497 79.5751 99.1247 81.8001C96.9997 88.3001 95.5122 92.6751 91.4997 95.8751C89.0122 97.8626 86.4247 98.7001 84.7622 99.1001C86.4497 99.5751 88.8372 100.038 91.7247 99.9751C95.0497 99.9001 97.7372 99.1501 99.4997 98.5126C99.2622 96.9876 98.9872 94.7001 99.0622 91.9126C99.1497 88.3001 99.7372 86.1251 100.387 82.1626C100.75 79.8376 101.212 76.5126 101.475 72.4126Z" fill="#6D6C6C"/>
<path d="M78.8877 70.6626C77.2627 71.7876 75.1752 73.5626 73.3502 76.2001C69.2377 82.1751 69.3502 88.5126 69.5127 90.8501C70.2627 92.8626 71.5502 95.5001 73.8002 98.0876C75.1127 99.6001 77.0377 101.775 80.3252 103.175C81.4252 103.65 82.3877 103.913 83.0877 104.063C83.6877 103.525 84.2752 102.988 84.8752 102.45C82.9502 100.2 81.0127 97.8376 79.0752 95.4001C77.5877 93.5376 76.1627 91.6876 74.7877 89.8626C74.8377 88.3251 75.1627 85.5376 76.8377 82.6251C77.7877 80.9751 78.9002 79.7751 79.7877 78.9626C79.4877 76.2001 79.1877 73.4376 78.8877 70.6626Z" fill="white" stroke="#161616" stroke-miterlimit="10"/>
<path opacity="0.13" d="M79.125 73.4502C75.525 77.5127 73.8125 81.3627 72.9625 83.7877C71.475 87.9877 71.7875 90.1877 72.0125 91.2377C72.2 92.0627 72.6125 93.4752 74.125 95.6252C75.4375 97.4877 78.2 100.825 83.4625 103.575C83.925 103.125 84.3875 102.688 84.85 102.238C83.3625 100.563 81.8625 98.8002 80.35 96.9627C78.3625 94.5502 76.5125 92.1752 74.8 89.8502C74.85 88.5877 75.0625 86.8252 75.8 84.8502C76.9125 81.8877 78.6625 79.9377 79.75 78.9002C79.525 77.0877 79.325 75.2752 79.125 73.4502Z" fill="#6D6C6C"/>
<path opacity="0.16" d="M74.7876 90.0127C75.0126 91.4752 75.4751 93.3377 76.4501 95.3502C78.6001 99.7252 81.9626 102.138 83.6751 103.188C84.0126 102.888 84.3376 102.6 84.6751 102.3C81.3751 98.2002 78.0876 94.1002 74.7876 90.0127Z" fill="#6D6C6C"/>
<path d="M102.05 70.4375C103.875 71.55 106.225 73.2875 108.263 75.875C112.888 81.7375 112.75 87.9625 112.575 90.2625C111.725 92.2375 110.288 94.825 107.763 97.375C106.288 98.85 104.125 100.987 100.438 102.375C99.2002 102.838 98.1127 103.1 97.3252 103.25C96.6627 102.725 95.9877 102.2 95.3252 101.675C97.4752 99.4625 99.6627 97.15 101.838 94.75C103.5 92.9125 105.1 91.1 106.65 89.3125C106.588 87.8125 106.238 85.075 104.35 82.2C103.275 80.575 102.038 79.4 101.038 78.6C101.388 75.875 101.725 73.1625 102.05 70.4375Z" fill="white" stroke="#161616" stroke-miterlimit="10"/>
<path opacity="0.16" d="M101.962 73.4751C103.55 75.1376 105.712 77.8001 107.4 81.5126C108.2 83.2751 109.5 86.1376 109.525 88.8376C109.612 97.0501 97.9874 102.7 97.3124 103.025C96.6499 102.6 95.9999 102.188 95.3374 101.763C99.0999 97.6376 102.85 93.5126 106.612 89.3876C106.537 88.0376 106.225 85.5251 104.725 82.8501C103.487 80.6501 101.95 79.2251 100.937 78.4376C101.287 76.7876 101.625 75.1376 101.962 73.4751Z" fill="#6D6C6C"/>
<path opacity="0.12" d="M106.738 89.425C106.55 90.5125 106.238 91.7 105.75 92.925C103.55 98.475 99.1 101.513 96.85 102.813C96.3125 102.463 95.7875 102.113 95.25 101.763C99.075 97.65 102.9 93.5375 106.738 89.425Z" fill="#6D6C6C"/>
<path d="M104.925 90.3501H74.1875V109.813H104.925V90.3501Z" fill="white" stroke="#161616" stroke-width="0.5" stroke-miterlimit="10"/>
<path d="M89.1123 101.938C87.4873 102.138 86.6998 100.163 87.1248 98.8502C87.5373 97.5502 89.0748 96.9377 90.3248 97.3877C91.5623 97.8377 92.1623 99.3502 91.7248 100.563C91.2373 101.913 89.5373 102.463 88.2873 101.863C88.0748 101.763 87.8748 102.088 88.0998 102.188C89.2123 102.725 90.5748 102.525 91.4623 101.65C92.3248 100.788 92.4498 99.4252 91.9123 98.3627C90.6873 95.9377 86.8998 96.7127 86.6373 99.3752C86.4998 100.8 87.5248 102.513 89.1123 102.325C89.3498 102.288 89.3498 101.913 89.1123 101.938Z" fill="#161616"/>
<path opacity="0.14" d="M85.725 90.3C89.8875 91.75 92.725 95.4625 92.8125 99.45C92.925 104.45 88.725 109.15 83 109.625C90.2875 109.688 97.575 109.75 104.875 109.812C104.85 103.288 104.837 96.7625 104.812 90.25C98.45 90.25 92.0875 90.275 85.725 90.3Z" fill="#6D6C6C"/>
<path opacity="0.26" d="M104.875 90.2375C104.763 94.2125 103.975 97.3125 103.313 99.35C102.338 102.313 101.638 104.475 99.6251 106.388C96.8876 109.013 93.4751 109.5 91.9751 109.625C96.2376 109.663 100.5 109.7 104.763 109.75C104.775 106.038 104.8 102.325 104.825 98.6C104.825 95.8125 104.85 93.025 104.875 90.2375Z" fill="#6D6C6C"/>
<path d="M88.6496 60.6375C87.9621 61.475 88.6246 62.5 88.4996 65.2375C88.4371 66.6 88.2121 67.7 88.0371 68.4375C88.6246 68.7125 89.6621 69.1 90.9996 69.1375C92.6496 69.175 93.8996 68.6625 94.5121 68.3625C94.2371 67.8125 93.8746 66.9625 93.6496 65.8625C93.0871 63.0625 94.0871 61.75 93.2621 60.7125C92.2996 59.5125 89.5746 59.5 88.6496 60.6375Z" fill="white" stroke="#161616" stroke-miterlimit="10"/>
<path d="M84.2874 48.6124C83.4999 50.6374 83.7999 52.4624 83.9749 53.2499C83.8999 53.2624 82.4374 53.5749 82.0374 54.6999C81.6374 55.8374 82.4624 57.4499 84.1874 57.9749C84.8124 59.4999 86.3249 62.4499 89.5124 64.0624C90.0499 64.3249 90.5624 64.5374 91.0749 64.6874C91.5374 64.5124 92.1624 64.2374 92.8749 63.8249C95.0999 62.5374 96.3374 60.9374 96.6249 60.5499C97.1499 59.8499 97.8624 58.7249 98.3624 57.1749C98.6374 57.2249 99.1249 57.2499 99.5999 57.0124C100.675 56.4624 101.212 54.7499 100.462 53.6374C99.8374 52.7124 98.6249 52.6749 98.4749 52.6749C98.6374 52.0249 99.1374 49.6874 97.8749 47.3749C96.4249 44.7124 93.3124 43.3124 90.3874 43.7124C86.0624 44.2749 84.3624 48.4124 84.2874 48.6124Z" fill="white" stroke="#161616" stroke-miterlimit="10"/>
<path d="M88.4872 63.8432C89.2497 64.1571 90.0872 64.6454 91.0247 64.593C91.7997 64.5494 92.6622 64.2356 93.2497 63.9043C93.4372 63.7996 93.1747 63.6165 92.9872 63.7212C92.4372 64.0263 91.5497 64.3489 90.8247 64.3402C90.0622 64.3315 89.2872 63.8868 88.6622 63.6165C88.4747 63.5293 88.2872 63.756 88.4872 63.8432Z" fill="#161616"/>
<path d="M88.4371 63.9153C89.1496 64.2708 89.9621 64.6699 90.9621 64.6408C91.9371 64.6118 92.8496 64.2345 93.4871 63.8282C93.6496 63.7266 93.3871 63.5743 93.2246 63.6758C92.6746 64.0241 91.8996 64.3651 91.0496 64.4159C90.1121 64.4667 89.3621 64.0967 88.6996 63.7629C88.5246 63.6686 88.2621 63.8209 88.4371 63.9153Z" fill="#161616"/>
<path d="M88.9122 64.0524C88.9122 64.0449 88.9122 64.0449 88.9122 64.0524C88.8372 63.9851 88.6997 63.9701 88.6122 64.0225C88.6122 64.0225 88.6122 64.0225 88.5997 64.03C88.5247 64.0674 88.5247 64.1496 88.5997 64.187C89.9747 64.9722 92.4997 65.2265 93.4872 64.0225C93.5872 63.8954 93.2747 63.7757 93.1622 63.9103C92.2872 64.9872 90.0747 64.7254 88.8747 64.03C88.8747 64.0823 88.8747 64.1347 88.8747 64.187C88.8747 64.187 88.8747 64.187 88.8872 64.1795C88.7872 64.172 88.6872 64.1646 88.5872 64.1571V64.1646C88.7122 64.2842 89.0372 64.172 88.9122 64.0524Z" fill="#161616"/>
<path d="M90.4122 52.6251C90.2497 54.6501 90.3372 56.6626 90.6622 58.6626C90.6747 58.7626 90.7997 58.8251 90.8872 58.7876C91.3747 58.6251 91.7247 58.3376 91.9872 57.9001C92.1122 57.6876 91.7872 57.5001 91.6622 57.7126C91.4497 58.0751 91.1872 58.2876 90.7872 58.4251C90.8622 58.4626 90.9372 58.5126 91.0122 58.5501C90.6872 56.5876 90.6122 54.6001 90.7747 52.6126C90.8122 52.3751 90.4372 52.3751 90.4122 52.6251Z" fill="#161616"/>
<path d="M88.1872 54.6126C88.2122 54.7251 88.3997 55.4251 88.1872 55.5376C87.9747 55.6501 87.3747 55.2001 87.1872 54.6126C87.0372 54.1126 87.1622 53.4876 87.3997 53.4376C87.6497 53.3751 88.0372 54.0626 88.1872 54.6126Z" fill="#161616" stroke="#161616" stroke-miterlimit="10"/>
<path d="M94.6374 54.6126C94.6624 54.7251 94.8499 55.4251 94.6374 55.5376C94.4249 55.6501 93.8249 55.2001 93.6374 54.6126C93.4874 54.1126 93.6124 53.4876 93.8499 53.4376C94.0999 53.3751 94.4874 54.0626 94.6374 54.6126Z" fill="#161616" stroke="#161616" stroke-miterlimit="10"/>
<path d="M89.9625 60.3124C91.4875 60.9624 92.875 60.0499 94 59.0624C94.1875 58.8999 93.9125 58.6374 93.7375 58.7999C92.7625 59.6499 91.5125 60.5624 90.1625 59.9874C89.925 59.8999 89.7375 60.2249 89.9625 60.3124Z" fill="#161616"/>
<path d="M94.3622 56.6001C94.5997 56.6001 94.5997 56.2251 94.3622 56.2251C94.1247 56.2251 94.1247 56.6001 94.3622 56.6001Z" fill="#161616"/>
<path d="M95.7499 55.9C95.7624 55.8875 95.7749 55.875 95.7874 55.8625C95.8624 55.7875 95.8624 55.675 95.7874 55.6C95.7124 55.525 95.5999 55.525 95.5249 55.6C95.5124 55.6125 95.4999 55.625 95.4874 55.6375C95.4124 55.7125 95.4124 55.825 95.4874 55.9C95.5624 55.975 95.6749 55.975 95.7499 55.9Z" fill="#161616"/>
<path d="M95.3374 56.8125C95.3499 56.8125 95.3624 56.8125 95.3749 56.8125C95.4749 56.8125 95.5624 56.725 95.5624 56.625C95.5624 56.525 95.4749 56.4375 95.3749 56.4375C95.3624 56.4375 95.3499 56.4375 95.3374 56.4375C95.2374 56.4375 95.1499 56.525 95.1499 56.625C95.1499 56.725 95.2249 56.8125 95.3374 56.8125Z" fill="#161616"/>
<path d="M86.7124 52.375C87.1874 51.975 87.8874 51.9625 88.3624 52.35C88.5499 52.5 88.8124 52.2375 88.6249 52.0875C87.9749 51.5625 87.0749 51.5625 86.4374 52.1125C86.2624 52.2625 86.5374 52.525 86.7124 52.375Z" fill="#161616"/>
<path d="M92.8124 52.2376C93.3499 51.7626 94.1124 51.6751 94.7499 52.0126C94.9624 52.1251 95.1499 51.8001 94.9374 51.6876C94.1499 51.2626 93.2124 51.3751 92.5499 51.9751C92.3624 52.1376 92.6249 52.4001 92.8124 52.2376Z" fill="#161616"/>
<path d="M86.8124 56.5625C87.0499 56.5625 87.0499 56.1875 86.8124 56.1875C86.5749 56.1875 86.5749 56.5625 86.8124 56.5625Z" fill="#161616"/>
<path d="M88.1371 56.3875C88.3746 56.3875 88.3746 56.0125 88.1371 56.0125C87.8996 56.0125 87.8996 56.3875 88.1371 56.3875Z" fill="#161616"/>
<path d="M87.4746 56.6749C87.4621 56.6874 87.4496 56.6999 87.4371 56.7124C87.3621 56.7874 87.3621 56.8999 87.4371 56.9749C87.5121 57.0499 87.6246 57.0499 87.6996 56.9749C87.7121 56.9624 87.7246 56.9499 87.7371 56.9374C87.8121 56.8624 87.8121 56.7499 87.7371 56.6749C87.6621 56.5999 87.5496 56.5999 87.4746 56.6749Z" fill="#161616"/>
<path d="M86.3248 44.55C85.5748 45.0125 83.9373 46.025 82.8248 48.1C81.7123 50.1625 81.7248 52.1125 81.7748 52.95C79.9498 56.2375 79.1248 59.1375 78.7248 61.1125C78.0748 64.25 78.4248 65.4 78.8748 66.1625C79.9748 68.0375 82.1873 68.5 82.7248 68.6125C85.4873 69.2 87.6873 67.7875 88.1873 67.4625C88.3248 67.05 88.4623 66.5375 88.5373 65.9625C88.6748 64.975 88.5998 64.125 88.4873 63.5125C87.8623 63 87.1373 62.3125 86.4373 61.4125C85.3748 60.0375 84.7748 58.6875 84.4373 57.7125C83.3373 57.6 82.5123 56.85 82.4373 56.0125C82.3623 55.225 82.9123 54.2125 83.6373 54.2125C84.1748 54.2125 84.5623 54.7625 84.6373 54.8625C85.0498 54.625 85.6248 54.2125 86.1373 53.5625C86.8748 52.625 86.9998 51.7875 87.3373 50.9125C87.6623 50.0625 88.2873 48.8875 89.6373 47.6625C90.9373 48.125 91.9748 48.575 92.6873 48.9125C94.9748 49.975 96.2748 50.6 97.2873 51.9625C97.8498 52.7125 98.1373 53.45 98.2873 53.9125C99.4498 53.025 99.9248 53.2625 100.025 53.3125C100.762 53.725 100.737 55.9875 99.5873 56.6125C99.1498 56.85 98.6498 56.7875 98.3373 56.7125C97.9748 57.975 97.1748 60.0375 95.3373 61.8625C94.7248 62.475 94.0998 62.95 93.5373 63.3125C93.4873 63.775 93.4623 64.4125 93.5873 65.1625C93.6998 65.85 93.8998 66.4125 94.0873 66.8125C97.1248 68.8125 100.9 68.45 102.95 66.3C104.775 64.375 104.775 61.4625 104.087 59.475C103.462 57.6625 102.25 56.575 101.65 56.1C101.812 55.4 102.712 51.25 100.1 47.4375C99.4248 46.45 97.5373 44.0625 94.1373 43.2375C90.5373 42.3625 87.5748 43.7875 86.3248 44.55Z" fill="#505050"/>
<path opacity="0.17" d="M94.2496 49.6875C95.6621 51.4625 96.0371 53.1 96.1621 53.95C96.6746 57.525 94.5996 60.425 93.5496 61.9125C92.6871 63.125 91.7996 63.9875 91.1621 64.55C91.7121 66.025 92.2496 67.4875 92.7996 68.9625C93.3621 68.775 93.9246 68.5875 94.4871 68.4C94.2246 67.9375 93.9496 67.3625 93.7371 66.6625C93.3496 65.4125 93.3246 64.3125 93.3621 63.5625C94.0496 63.075 94.8496 62.4125 95.6246 61.5375C97.1746 59.7875 97.9496 57.9875 98.3496 56.775C98.5996 56.825 99.1371 56.8875 99.6496 56.6C100.725 55.9875 100.55 54.4625 100.537 54.3625C100.5 54.0375 100.425 53.5125 100.05 53.3C99.6121 53.0625 98.8871 53.2875 98.3121 53.9625C98.1371 53.35 97.6371 51.9375 96.2871 50.8125C95.5371 50.1875 94.7746 49.8625 94.2496 49.6875Z" fill="#6D6C6C"/>
<path opacity="0.19" d="M90.5875 52.7374C90.5125 52.7249 90.2625 53.8124 89.5 58.6124C89.9375 58.6124 90.375 58.6124 90.8125 58.6124C90.725 57.9749 90.625 57.0499 90.575 55.9249C90.5125 53.9999 90.6625 52.7499 90.5875 52.7374Z" fill="#6D6C6C"/>
<path opacity="0.54" d="M101.575 56.225C101.362 56.35 102.163 57.425 102.05 59.025C102.013 59.525 101.937 60.6625 101.037 61.425C100.975 61.475 99.6375 62.575 98.3125 61.875C97.525 61.4625 97.05 60.5875 97.075 59.6375C96.7 60.3375 96.0875 61.2625 95.125 62.1625C94.525 62.725 93.9375 63.1375 93.425 63.45C93.3875 64 93.3875 64.75 93.5875 65.6C93.7 66.0625 93.8375 66.4625 93.975 66.7875C94.3625 67.0375 94.9375 67.375 95.6875 67.6375C96.1625 67.8 98.775 68.7125 101.325 67.45C101.775 67.225 102.775 66.7125 103.5 65.6125C103.587 65.475 103.912 64.9875 104.15 64.1625C105 61.3375 103.75 58.7875 103.637 58.575C102.95 57.1875 101.837 56.075 101.575 56.225Z" fill="black"/>
<path opacity="0.35" d="M84.4248 57.7625C84.3123 57.775 84.5623 58.8 84.2873 59.8125C84.0873 60.5625 83.4498 61.7875 82.3623 62.0375C81.2248 62.2875 79.8123 61.45 79.1623 59.8875C78.8623 60.575 78.4623 61.675 78.3998 63.075C78.3623 63.9875 78.3123 64.9625 78.7623 65.925C79.7748 68.075 82.7498 68.9125 84.9623 68.7125C86.4373 68.575 87.5498 68 88.1498 67.6125C88.2998 67.1875 88.4498 66.675 88.5498 66.0875C88.7123 65.075 88.6748 64.1875 88.5873 63.5375C87.5998 62.825 86.9248 62.0875 86.4998 61.55C85.8998 60.7875 85.0873 59.7625 84.6748 58.3375C84.6123 58.175 84.4998 57.75 84.4248 57.7625Z" fill="black"/>
</svg>
