<svg width="200" height="159" viewBox="0 0 200 159" fill="none" xmlns="http://www.w3.org/2000/svg">
<path fill-rule="evenodd" clip-rule="evenodd" d="M107.306 0.1265C131.713 1.89199 146.533 25.5221 159.824 46.068C171.03 63.3882 177.68 82.8733 173.965 103.165C170.022 124.705 159.901 146.738 139.803 155.431C120.342 163.849 99.9137 152.143 80.5121 143.588C59.7726 134.443 35.212 127.526 27.8785 106.079C19.9003 82.7464 29.5186 57.4425 44.3095 37.7122C59.7406 17.1278 81.6468 -1.72957 107.306 0.1265Z" fill="#E8ECFB"/>
<path d="M62.1503 126.325C73.6003 126.325 85.0503 126.325 96.5003 126.325C107.913 126.325 119.325 126.325 130.725 126.325C137.175 126.325 143.638 126.325 150.088 126.325C150.325 126.325 150.325 125.95 150.088 125.95C138.638 125.95 127.188 125.95 115.738 125.95C104.325 125.95 92.9128 125.95 81.5128 125.95C75.0628 125.95 68.6003 125.95 62.1503 125.95C61.9128 125.95 61.9128 126.325 62.1503 126.325Z" fill="#E8E8E8"/>
<path d="M152.4 118.55C152.3 122.15 152.663 125.75 153.488 129.262C153.538 129.5 153.9 129.4 153.85 129.162C153.038 125.687 152.675 122.125 152.788 118.55C152.775 118.312 152.4 118.312 152.4 118.55Z" fill="black"/>
<path d="M167.288 118.837C167.638 122.162 167.425 125.525 166.663 128.775C166.613 129.012 166.963 129.112 167.025 128.875C167.8 125.587 168.025 122.2 167.663 118.837C167.638 118.6 167.263 118.6 167.288 118.837Z" fill="black"/>
<path d="M153.638 129.612C157.963 130.712 162.538 130.562 166.775 129.162C167 129.087 166.9 128.725 166.675 128.8C162.488 130.175 158 130.337 153.738 129.25C153.5 129.2 153.4 129.562 153.638 129.612Z" fill="black"/>
<path d="M152.575 118.725C157.438 119.763 162.475 119.738 167.325 118.663C167.563 118.613 167.463 118.25 167.225 118.3C162.438 119.363 157.463 119.375 152.675 118.363C152.438 118.313 152.338 118.675 152.575 118.725Z" fill="black"/>
<path d="M155.538 118.862C154.888 117.4 155.475 115.612 155.963 114.175C156.463 112.687 157.175 111.275 158.05 109.975C157.95 109.987 157.85 110 157.75 110.012C158.038 110.337 158.35 110.562 158.738 110.75C158.888 110.812 159.05 110.712 159.013 110.537C158.863 109.862 158.6 109.2 158.9 108.525C159.113 108.05 159.413 107.575 159.663 107.125C159.575 107.15 159.488 107.175 159.4 107.187C159.663 107.35 159.925 107.5 160.188 107.662C160.363 107.775 160.513 107.562 160.45 107.4C160.188 106.825 160.013 106.25 160.375 105.675C160.588 105.325 160.863 105.012 161.1 104.687C161.625 103.987 162.175 103.287 162.725 102.6C163.775 101.287 164.863 100.012 165.988 98.7624C165.888 98.7499 165.788 98.7374 165.688 98.7249C167.288 100.825 168.3 103.337 168.575 105.962C168.713 107.225 168.675 108.525 168.45 109.775C168.338 110.412 168.175 111.037 167.975 111.65C167.938 111.775 167.888 111.9 167.85 112.012C167.713 112.362 167.488 112.512 167.125 112.587C166.875 112.637 166.738 112.6 166.525 112.762C166.425 112.837 166.4 112.962 166.488 113.062C166.763 113.35 166.875 113.4 166.775 113.787C166.713 114.037 166.563 114.3 166.45 114.55C166.225 115.05 165.975 115.537 165.713 116.012C165.175 116.987 164.563 117.912 163.875 118.787C163.725 118.975 163.988 119.237 164.138 119.05C165.463 117.35 166.513 115.487 167.3 113.487C167.325 113.425 167.3 113.35 167.25 113.3C167.088 113.137 166.925 112.962 166.75 112.8C166.738 112.9 166.725 113 166.713 113.1C167 112.9 167.325 113.037 167.625 112.912C167.863 112.825 167.988 112.65 168.088 112.425C168.363 111.837 168.538 111.162 168.688 110.537C169 109.162 169.1 107.75 169 106.35C168.788 103.525 167.75 100.787 166.025 98.5374C165.963 98.4499 165.825 98.3999 165.725 98.4999C164.338 100.037 163 101.625 161.725 103.25C161.15 103.975 160.538 104.7 160.038 105.487C159.588 106.2 159.8 106.875 160.113 107.6C160.2 107.512 160.288 107.425 160.375 107.337C160.113 107.175 159.85 107.025 159.588 106.862C159.5 106.812 159.375 106.837 159.325 106.925C159.013 107.5 158.525 108.137 158.35 108.775C158.2 109.337 158.513 110.075 158.638 110.625C158.725 110.55 158.825 110.487 158.913 110.412C158.55 110.25 158.263 110.037 158 109.737C157.913 109.637 157.763 109.675 157.7 109.775C156.725 111.225 155.963 112.812 155.438 114.487C154.988 115.937 154.55 117.587 155.188 119.037C155.313 119.262 155.638 119.075 155.538 118.862Z" fill="black"/>
<path d="M165.712 101.6C165.212 107.262 161.338 111.8 159.725 117.125C159.65 117.362 160.012 117.45 160.087 117.225C161.7 111.862 165.587 107.312 166.087 101.6C166.112 101.35 165.725 101.362 165.712 101.6Z" fill="black"/>
<path d="M160.988 104.613C161.388 106.675 161.85 108.713 162.375 110.738C162.438 110.975 162.8 110.875 162.738 110.638C162.213 108.613 161.75 106.563 161.35 104.513C161.313 104.275 160.95 104.375 160.988 104.613Z" fill="black"/>
<path d="M165.213 105.938C166.3 105.15 167.238 104.213 168.05 103.125C168.2 102.938 167.875 102.75 167.725 102.938C166.963 103.963 166.063 104.863 165.025 105.613C164.838 105.763 165.025 106.088 165.213 105.938Z" fill="black"/>
<path d="M164.05 100.587C164.388 101.662 164.588 102.975 165.413 103.787C165.588 103.962 165.85 103.687 165.675 103.525C164.913 102.762 164.713 101.475 164.4 100.487C164.338 100.262 163.975 100.362 164.05 100.587Z" fill="black"/>
<path d="M154.788 118.762C154.025 118.162 153.563 117.325 153.175 116.45C152.738 115.425 152.363 114.375 152.025 113.312C151.388 111.275 150.925 109.175 150.65 107.062C150.088 102.637 150.538 98.1624 150 93.7249C149.888 93.7624 149.763 93.7874 149.65 93.8249C151.05 96.9749 154.325 98.8624 157.05 100.737C157.025 100.65 157 100.562 156.988 100.475C156.613 101.012 156.238 101.55 155.863 102.087C155.775 102.212 155.888 102.375 156.025 102.375C156.513 102.375 156.938 102.312 157.4 102.15C157.325 102.125 157.263 102.087 157.188 102.062C157.65 102.775 158.113 103.487 158.575 104.2C158.588 104.125 158.6 104.05 158.6 103.975C158.375 104.187 158.188 104.425 158 104.687C157.938 104.775 158 104.95 158.113 104.962C159.138 105.112 159.5 106.087 159.763 106.962C159.838 107.187 160.2 107.1 160.125 106.862C159.813 105.875 159.363 104.762 158.213 104.6C158.25 104.687 158.288 104.787 158.325 104.875C158.488 104.625 158.65 104.45 158.863 104.25C158.925 104.2 158.938 104.087 158.888 104.025C158.425 103.312 157.963 102.6 157.5 101.887C157.463 101.825 157.375 101.775 157.288 101.8C156.863 101.937 156.45 102.012 156.013 102C156.063 102.1 156.125 102.187 156.175 102.287C156.55 101.75 156.925 101.212 157.3 100.675C157.363 100.587 157.313 100.475 157.238 100.412C154.563 98.5749 151.35 96.7374 149.975 93.6374C149.9 93.4749 149.6 93.5499 149.625 93.7374C150.175 98.3374 149.688 102.987 150.338 107.575C150.65 109.787 151.163 111.962 151.875 114.075C152.45 115.787 153.05 117.875 154.513 119.037C154.713 119.175 154.975 118.912 154.788 118.762Z" fill="black"/>
<path d="M149.725 94.1C150.738 96.9 151.588 99.85 152.95 102.512C153.625 103.825 154.363 105.112 155 106.45C155.688 107.9 156.3 109.375 156.925 110.837C157.013 111.062 157.338 110.862 157.25 110.65C156.663 109.25 156.063 107.85 155.425 106.475C154.8 105.125 154.075 103.837 153.375 102.525C151.975 99.85 151.113 96.85 150.075 94.0125C150 93.775 149.638 93.875 149.725 94.1Z" fill="black"/>
<path d="M150.2 103.6C151.55 103.762 153.025 103.837 154.05 104.85C154.225 105.025 154.488 104.75 154.313 104.587C153.213 103.512 151.65 103.412 150.2 103.237C149.963 103.2 149.963 103.575 150.2 103.6Z" fill="black"/>
<path d="M153.813 98.5375C153.588 99.35 153.438 100.187 153.375 101.037C153.325 101.762 153.238 102.612 153.488 103.312C153.563 103.537 153.925 103.437 153.85 103.212C153.613 102.55 153.7 101.725 153.75 101.025C153.813 100.212 153.963 99.4125 154.175 98.625C154.238 98.4 153.875 98.3 153.813 98.5375Z" fill="black"/>
<path d="M151.05 110.413C152.025 110.438 152.963 110.45 153.913 110.713C154.85 110.975 155.775 111.25 156.713 111.525C156.95 111.588 157.05 111.225 156.813 111.163C155.813 110.875 154.825 110.563 153.813 110.3C152.9 110.063 151.988 110.075 151.05 110.05C150.813 110.025 150.813 110.4 151.05 110.413Z" fill="black"/>
<path d="M164.725 118.412C165.563 118.3 166.388 118.3 167.225 118.412C167.188 118.325 167.15 118.225 167.113 118.137C167.038 118.25 166.288 118.262 166.138 118.275C165.8 118.325 165.45 118.375 165.113 118.45C165.063 118.462 164.725 118.5 164.713 118.537C164.738 118.475 165.238 118.487 165.313 118.487C165.675 118.487 166.038 118.525 166.4 118.55C166.4 118.425 166.4 118.3 166.4 118.175C166.088 118.162 165.813 118.2 165.5 118.287C165.3 118.337 165.338 118.65 165.55 118.65C166.038 118.65 166.475 118.55 166.95 118.425C167.188 118.362 167.088 118 166.85 118.062C166.425 118.175 166 118.275 165.55 118.275C165.563 118.4 165.588 118.525 165.6 118.637C165.863 118.562 166.125 118.537 166.4 118.537C166.638 118.537 166.638 118.175 166.4 118.162C165.85 118.137 165.05 117.937 164.55 118.25C164.35 118.375 164.063 118.7 164.325 118.9C164.438 118.987 164.563 118.937 164.7 118.925C165.075 118.85 165.438 118.762 165.813 118.7C166.25 118.625 167.125 118.737 167.425 118.325C167.488 118.237 167.425 118.062 167.313 118.05C166.438 117.925 165.588 117.925 164.713 118.037C164.488 118.062 164.488 118.437 164.725 118.412Z" fill="black"/>
<path d="M152.738 118.65C152.913 118.6 153.088 118.562 153.263 118.55C153.35 118.55 153.425 118.537 153.513 118.55C153.55 118.55 153.725 118.537 153.738 118.55C153.725 118.487 153.7 118.425 153.688 118.362C153.688 118.375 153.675 118.387 153.675 118.387C153.75 118.35 153.825 118.3 153.9 118.262C153.888 118.262 153.875 118.262 153.875 118.262C153.913 118.3 153.963 118.35 154 118.387C154 118.375 154 118.362 153.988 118.362C153.925 118.125 153.575 118.225 153.625 118.462C153.625 118.475 153.625 118.487 153.638 118.487C153.65 118.55 153.713 118.6 153.763 118.612C153.775 118.612 153.788 118.612 153.788 118.612C153.888 118.637 153.975 118.587 154.013 118.487C154.013 118.475 154.025 118.462 154.025 118.462C154.05 118.4 154.025 118.325 153.975 118.275C153.838 118.137 153.538 118.162 153.363 118.162C153.113 118.162 152.85 118.212 152.613 118.275C152.413 118.35 152.513 118.712 152.738 118.65Z" fill="black"/>
<path d="M153.025 121.163C157.587 121.95 162.325 122.325 166.825 120.975C167.05 120.9 166.962 120.55 166.725 120.613C162.3 121.938 157.625 121.575 153.125 120.8C152.887 120.763 152.787 121.125 153.025 121.163Z" fill="black"/>
<path d="M168.738 126.3C176.75 126.3 184.775 126.3 192.788 126.3C193.025 126.3 193.025 125.925 192.788 125.925C184.775 125.925 176.75 125.925 168.738 125.925C168.488 125.925 168.488 126.3 168.738 126.3Z" fill="#E8E8E8"/>
<path d="M162.675 134.338C170.225 134.338 177.788 134.338 185.338 134.338C185.575 134.338 185.575 133.963 185.338 133.963C177.788 133.963 170.225 133.963 162.675 133.963C162.438 133.963 162.438 134.338 162.675 134.338Z" fill="#E8E8E8"/>
<path d="M166.113 134.3C165.213 135.05 164.313 135.787 163.425 136.537C163.238 136.687 163.5 136.95 163.688 136.8C164.588 136.05 165.488 135.312 166.375 134.562C166.563 134.412 166.288 134.137 166.113 134.3Z" fill="#E8E8E8"/>
<path d="M163.537 136.938C163.775 136.938 163.775 136.562 163.537 136.562C163.3 136.562 163.3 136.938 163.537 136.938Z" fill="#E8E8E8"/>
<path d="M167.35 136.562C159.738 136.562 152.125 136.562 144.513 136.562C144.275 136.562 144.275 136.938 144.513 136.938C152.125 136.938 159.738 136.938 167.35 136.938C167.588 136.938 167.588 136.562 167.35 136.562Z" fill="#E8E8E8"/>
<path d="M144.475 140.438C145.825 139.313 147.213 138.238 148.638 137.2C148.825 137.063 148.65 136.738 148.45 136.875C147 137.925 145.588 139.025 144.213 140.163C144.025 140.325 144.288 140.588 144.475 140.438Z" fill="#E8E8E8"/>
<path d="M30.6752 133.612C39.5002 133.612 48.3252 133.612 57.1502 133.612C59.6502 133.612 62.1502 133.612 64.6502 133.612C64.8877 133.612 64.8877 133.237 64.6502 133.237C55.8252 133.237 47.0002 133.237 38.1752 133.237C35.6752 133.237 33.1752 133.237 30.6752 133.237C30.4377 133.237 30.4377 133.612 30.6752 133.612Z" fill="#E8E8E8"/>
<path d="M35.2878 136.875C36.4753 135.862 37.6753 134.85 38.8628 133.837C39.0503 133.675 38.7753 133.412 38.6003 133.575C37.4128 134.587 36.2128 135.6 35.0253 136.612C34.8378 136.762 35.1128 137.037 35.2878 136.875Z" fill="#E8E8E8"/>
<path d="M30.9877 137.237C39.1877 137.237 47.3877 137.237 55.5877 137.237C55.8252 137.237 55.8252 136.862 55.5877 136.862C47.3877 136.862 39.1877 136.862 30.9877 136.862C30.7502 136.862 30.7502 137.237 30.9877 137.237Z" fill="#E8E8E8"/>
<path d="M52.725 137.162C51.7875 138.212 50.825 139.237 49.85 140.262C49.6875 140.437 49.95 140.7 50.1125 140.525C51.0875 139.5 52.0375 138.475 52.9875 137.425C53.1625 137.25 52.8875 136.987 52.725 137.162Z" fill="#E8E8E8"/>
<path d="M46.3251 140.862C53.5376 140.862 60.7376 140.862 67.9501 140.862C68.1876 140.862 68.1876 140.487 67.9501 140.487C60.7376 140.487 53.5376 140.487 46.3251 140.487C46.0876 140.487 46.0876 140.862 46.3251 140.862Z" fill="#E8E8E8"/>
<path d="M41.2128 127.325C44.2628 127.325 47.3128 127.325 50.3753 127.325C50.6128 127.325 50.6128 126.95 50.3753 126.95C47.3253 126.95 44.2753 126.95 41.2128 126.95C40.9753 126.95 40.9753 127.325 41.2128 127.325Z" fill="#E8E8E8"/>
<path d="M52.6875 128.55C53.625 128.55 54.575 128.55 55.5125 128.55C55.75 128.55 55.75 128.175 55.5125 128.175C54.575 128.175 53.625 128.175 52.6875 128.175C52.4375 128.175 52.4375 128.55 52.6875 128.55Z" fill="#E8E8E8"/>
<path d="M45.9004 61.7124C45.9004 63.7499 45.9004 65.7999 45.9004 67.8374C45.9004 68.0749 46.2754 68.0749 46.2754 67.8374C46.2754 65.7999 46.2754 63.7499 46.2754 61.7124C46.2754 61.4749 45.9004 61.4749 45.9004 61.7124Z" fill="#E8E8E8"/>
<path d="M39.6127 68.1374C44.6377 68.1374 49.6627 68.1374 54.6877 68.1374C54.9252 68.1374 54.9252 67.7625 54.6877 67.7625C49.6627 67.7625 44.6377 67.7625 39.6127 67.7625C39.3752 67.7625 39.3752 68.1374 39.6127 68.1374Z" fill="#E8E8E8"/>
<path d="M50.1377 68.3125C50.1377 69.8875 50.1377 71.45 50.1377 73.025C50.1377 73.2625 50.5127 73.2625 50.5127 73.025C50.5127 71.45 50.5127 69.8875 50.5127 68.3125C50.5127 68.0625 50.1377 68.0625 50.1377 68.3125Z" fill="#E8E8E8"/>
<path d="M45.9751 73.6749C49.9751 73.6749 53.9876 73.6749 57.9876 73.6749C58.2251 73.6749 58.2251 73.2999 57.9876 73.2999C53.9876 73.2999 49.9751 73.2999 45.9751 73.2999C45.7251 73.2999 45.7251 73.6749 45.9751 73.6749Z" fill="#E8E8E8"/>
<path d="M146.85 57.325C146.85 57.825 146.85 58.3125 146.85 58.8125C146.85 59.05 147.225 59.05 147.225 58.8125C147.225 58.3125 147.225 57.825 147.225 57.325C147.225 57.0875 146.85 57.0875 146.85 57.325Z" fill="#E8E8E8"/>
<path d="M147.15 57.625C155.75 57.625 164.35 57.625 172.95 57.625C173.188 57.625 173.188 57.25 172.95 57.25C164.35 57.25 155.75 57.25 147.15 57.25C146.913 57.25 146.913 57.625 147.15 57.625Z" fill="#E8E8E8"/>
<path d="M147.375 59C155.9 59 164.425 59 172.938 59C173.175 59 173.175 58.625 172.938 58.625C164.413 58.625 155.888 58.625 147.375 58.625C147.138 58.625 147.138 59 147.375 59Z" fill="#E8E8E8"/>
<path d="M172.888 57.325C172.838 57.8375 172.863 58.35 172.95 58.8625C172.988 59.1 173.35 59 173.313 58.7625C173.225 58.2875 173.213 57.8 173.263 57.325C173.288 57.0875 172.913 57.0875 172.888 57.325Z" fill="#E8E8E8"/>
<path d="M148.913 57.3375C148.913 53.85 148.913 50.3625 148.913 46.875C148.913 46.6375 148.538 46.6375 148.538 46.875C148.538 50.3625 148.538 53.85 148.538 57.3375C148.538 57.5875 148.913 57.5875 148.913 57.3375Z" fill="#E8E8E8"/>
<path d="M148.913 46.9375C149.975 46.5125 151.1 46.575 152.088 47.1625C152.3 47.2875 152.488 46.9625 152.275 46.8375C151.213 46.2125 149.95 46.1125 148.813 46.575C148.588 46.6625 148.688 47.025 148.913 46.9375Z" fill="#E8E8E8"/>
<path d="M152.025 47.075C152.025 50.425 152.025 53.7875 152.025 57.1375C152.025 57.375 152.4 57.375 152.4 57.1375C152.4 53.7875 152.4 50.425 152.4 47.075C152.4 46.8375 152.025 46.8375 152.025 47.075Z" fill="#E8E8E8"/>
<path d="M152.45 49.875C153.212 49.5625 154.012 49.6125 154.725 50.05C154.937 50.175 155.125 49.85 154.912 49.725C154.125 49.25 153.2 49.1625 152.35 49.5125C152.125 49.6 152.225 49.9625 152.45 49.875Z" fill="#E8E8E8"/>
<path d="M154.65 50.0375C154.65 52.3875 154.65 54.725 154.65 57.075C154.65 57.3125 155.025 57.3125 155.025 57.075C155.025 54.725 155.025 52.3875 155.025 50.0375C155.025 49.8 154.65 49.8 154.65 50.0375Z" fill="#E8E8E8"/>
<path d="M148.963 49.8125C150.025 49.575 151.075 49.65 152.1 50.0125C152.325 50.0875 152.425 49.725 152.2 49.65C151.113 49.2625 149.988 49.2125 148.863 49.45C148.638 49.5 148.738 49.8625 148.963 49.8125Z" fill="#E8E8E8"/>
<path d="M152.188 54.15C152.988 53.9375 153.788 53.9125 154.6 54.0875C154.838 54.1375 154.938 53.7749 154.7 53.7249C153.825 53.5374 152.963 53.5499 152.088 53.7874C151.863 53.8499 151.95 54.2125 152.188 54.15Z" fill="#E8E8E8"/>
<path d="M159.375 57.2125C159.375 56.5125 159.375 55.8125 159.375 55.1125C159.375 54.875 159 54.875 159 55.1125C159 55.8125 159 56.5125 159 57.2125C159 57.45 159.375 57.45 159.375 57.2125Z" fill="#E8E8E8"/>
<path d="M159.188 55.225C163.25 55.225 167.3 55.225 171.363 55.225C171.6 55.225 171.6 54.85 171.363 54.85C167.3 54.85 163.25 54.85 159.188 54.85C158.938 54.85 158.938 55.225 159.188 55.225Z" fill="#E8E8E8"/>
<path d="M171.488 55.4249C171.725 55.4249 171.725 55.0499 171.488 55.0499C171.238 55.0499 171.238 55.4249 171.488 55.4249Z" fill="#E8E8E8"/>
<path d="M171.3 55.2375C171.3 55.875 171.3 56.5125 171.3 57.15C171.3 57.3875 171.675 57.3875 171.675 57.15C171.675 56.5125 171.675 55.875 171.675 55.2375C171.675 55 171.3 55 171.3 55.2375Z" fill="#E8E8E8"/>
<path d="M161.738 54.975C161.738 54.3125 161.738 53.6625 161.738 53C161.738 52.7625 161.363 52.7625 161.363 53C161.363 53.6625 161.363 54.3125 161.363 54.975C161.363 55.2125 161.738 55.2125 161.738 54.975Z" fill="#E8E8E8"/>
<path d="M161.55 53.125C165.538 53.125 169.525 53.125 173.525 53.125C173.763 53.125 173.763 52.75 173.525 52.75C169.538 52.75 165.55 52.75 161.55 52.75C161.313 52.75 161.313 53.125 161.55 53.125Z" fill="#E8E8E8"/>
<path d="M173.4 52.9375C173.4 53.4875 173.4 54.0375 173.4 54.5875C173.4 54.825 173.775 54.825 173.775 54.5875C173.775 54.0375 173.775 53.4875 173.775 52.9375C173.775 52.6875 173.4 52.6875 173.4 52.9375Z" fill="#E8E8E8"/>
<path d="M171.225 55.2875C171.95 55.2875 172.675 55.2875 173.4 55.2875C173.638 55.2875 173.638 54.9125 173.4 54.9125C172.675 54.9125 171.95 54.9125 171.225 54.9125C170.975 54.9125 170.975 55.2875 171.225 55.2875Z" fill="#E8E8E8"/>
<path d="M173.375 54.6C173.35 54.7375 173.35 54.8625 173.388 54.9875C173.413 55.0875 173.525 55.15 173.613 55.1125C173.713 55.0875 173.775 54.975 173.738 54.8875C173.725 54.825 173.713 54.75 173.725 54.7C173.738 54.6 173.7 54.4875 173.6 54.475C173.513 54.45 173.388 54.5 173.375 54.6Z" fill="#E8E8E8"/>
<path d="M164.4 53.0249C164.563 53.6624 164.6 54.3124 164.513 54.9749C164.488 55.2124 164.863 55.2124 164.888 54.9749C164.975 54.2874 164.925 53.5999 164.763 52.9249C164.7 52.6999 164.338 52.7999 164.4 53.0249Z" fill="#E8E8E8"/>
<path d="M167.225 55.2C167.313 55.825 167.263 56.4375 167.113 57.0375C167.05 57.275 167.413 57.375 167.475 57.1375C167.65 56.4625 167.688 55.7875 167.588 55.1C167.563 54.8625 167.2 54.9625 167.225 55.2Z" fill="#E8E8E8"/>
<path d="M164.775 70.4125C164.775 71.4 164.775 72.375 164.775 73.3625C164.775 73.6 165.15 73.6 165.15 73.3625C165.15 72.375 165.15 71.4 165.15 70.4125C165.15 70.1625 164.775 70.1625 164.775 70.4125Z" fill="#E8E8E8"/>
<path d="M161.875 73.4125C164.375 73.4125 166.875 73.4125 169.375 73.4125C169.613 73.4125 169.613 73.0375 169.375 73.0375C166.875 73.0375 164.375 73.0375 161.875 73.0375C161.638 73.0375 161.638 73.4125 161.875 73.4125Z" fill="#E8E8E8"/>
<path d="M157.613 31.3625C157.613 33.6125 157.613 35.875 157.613 38.125C157.613 38.3625 157.988 38.3625 157.988 38.125C157.988 35.875 157.988 33.6125 157.988 31.3625C157.988 31.125 157.613 31.125 157.613 31.3625Z" fill="#E8E8E8"/>
<path d="M158.088 31.35C160.938 31.35 163.775 31.35 166.625 31.35C166.863 31.35 166.863 30.975 166.625 30.975C163.775 30.975 160.938 30.975 158.088 30.975C157.85 30.975 157.85 31.35 158.088 31.35Z" fill="#E8E8E8"/>
<path d="M166.638 31.3C166.638 33.475 166.638 35.65 166.638 37.8125C166.638 38.05 167.013 38.05 167.013 37.8125C167.013 35.6375 167.013 33.4625 167.013 31.3C167.013 31.0625 166.638 31.0625 166.638 31.3Z" fill="#E8E8E8"/>
<path d="M157.75 38.3375C160.775 38.3375 163.8 38.3375 166.825 38.3375C167.063 38.3375 167.063 37.9625 166.825 37.9625C163.8 37.9625 160.775 37.9625 157.75 37.9625C157.513 37.9625 157.513 38.3375 157.75 38.3375Z" fill="#E8E8E8"/>
<path d="M158.45 32.1375C158.45 33.85 158.45 35.55 158.45 37.2625C158.45 37.5 158.825 37.5 158.825 37.2625C158.825 35.55 158.825 33.85 158.825 32.1375C158.825 31.9 158.45 31.9 158.45 32.1375Z" fill="#E8E8E8"/>
<path d="M158.725 32.2875C161.062 32.2875 163.412 32.2875 165.75 32.2875C165.987 32.2875 165.987 31.9125 165.75 31.9125C163.412 31.9125 161.062 31.9125 158.725 31.9125C158.487 31.9125 158.487 32.2875 158.725 32.2875Z" fill="#E8E8E8"/>
<path d="M165.613 32.1375C165.613 33.725 165.613 35.3 165.613 36.8875C165.613 37.125 165.988 37.125 165.988 36.8875C165.988 35.3 165.988 33.725 165.988 32.1375C165.988 31.9 165.613 31.9 165.613 32.1375Z" fill="#E8E8E8"/>
<path d="M158.725 37.45C161.05 37.45 163.375 37.45 165.712 37.45C165.95 37.45 165.95 37.075 165.712 37.075C163.387 37.075 161.062 37.075 158.725 37.075C158.487 37.075 158.487 37.45 158.725 37.45Z" fill="#E8E8E8"/>
<path d="M163.15 35.2C162.163 34.45 163.638 32.8875 164.325 33.825C164.963 34.675 163.925 35.7 163.038 35.225C162.825 35.1125 162.638 35.4375 162.85 35.55C163.425 35.8625 164.188 35.775 164.6 35.2375C165.025 34.7 164.975 33.85 164.438 33.4C163.875 32.9375 163.075 33.25 162.688 33.775C162.275 34.35 162.4 35.1 162.963 35.525C163.163 35.6625 163.338 35.3375 163.15 35.2Z" fill="#E8E8E8"/>
<path d="M161.962 37.05C161.912 36.0625 163.125 35.6875 163.887 35.6875C164.825 35.6875 165.125 36.525 165.512 37.2375C165.625 37.45 165.95 37.2625 165.837 37.05C165.575 36.575 165.325 35.95 164.887 35.6C164.487 35.2875 163.987 35.3 163.512 35.35C162.637 35.45 161.525 35.9875 161.587 37.05C161.6 37.2875 161.975 37.2875 161.962 37.05Z" fill="#E8E8E8"/>
<path d="M158.888 36.15C159.163 35.6375 160.175 35.8375 160.55 36.0375C160.938 36.25 161.163 36.6 161.263 37.025C161.313 37.2625 161.675 37.1625 161.625 36.925C161.475 36.275 161.025 35.7625 160.375 35.55C159.825 35.375 158.888 35.3625 158.575 35.95C158.45 36.175 158.775 36.3625 158.888 36.15Z" fill="#E8E8E8"/>
<path d="M159.613 35.2249C159.2 35.2124 159.3 34.5999 159.475 34.3874C159.7 34.1124 160.15 34.0749 160.413 34.3374C160.625 34.5374 160.688 34.9124 160.513 35.1499C160.388 35.3249 160.2 35.3624 160 35.3624C159.925 35.3624 159.613 35.3749 159.563 35.3124C159.425 35.1124 159.1 35.2999 159.238 35.4999C159.388 35.7249 159.7 35.7374 159.95 35.7374C160.25 35.7499 160.538 35.6749 160.75 35.4499C161.15 35.0124 161.013 34.2749 160.538 33.9499C160.025 33.6124 159.313 33.7999 159.05 34.3499C158.825 34.8374 158.988 35.5749 159.613 35.5874C159.863 35.6124 159.863 35.2374 159.613 35.2249Z" fill="#E8E8E8"/>
<path d="M83.1127 64.5875C83.7002 65.0625 84.4252 64.8625 84.9752 64.4C85.7502 63.7625 86.1377 62.675 86.2877 61.7125C86.6752 59.2625 85.6877 56.9375 85.3002 54.5625C84.6002 50.15 86.5252 45.425 90.1002 42.775C91.8377 41.475 94.7002 40.0875 94.0252 37.425C93.9627 37.1875 93.6002 37.2875 93.6627 37.525C94.3002 40.0625 91.3502 41.35 89.7377 42.575C88.2877 43.6875 87.1127 45.125 86.2752 46.7375C85.4502 48.3 84.9502 50.0375 84.8127 51.8C84.6502 53.9375 85.2127 55.925 85.6752 57.9875C85.9502 59.2375 86.1252 60.55 85.8877 61.825C85.7752 62.4125 85.5752 62.9875 85.2627 63.5C84.9127 64.05 84.0752 64.9 83.3752 64.3375C83.2002 64.175 82.9252 64.4375 83.1127 64.5875Z" fill="#F66F5D"/>
<path d="M93.8874 37.275C92.4749 37.3375 91.2374 36.2375 91.3124 34.7875C91.3874 33.275 93.1749 31.875 94.6874 32.275C96.0374 32.6375 97.0749 34.125 96.7374 35.5125C96.3999 36.9 94.8374 37.2 93.6374 37.4C93.3999 37.4375 93.4999 37.8 93.7374 37.7625C95.2874 37.5125 97.0874 36.9625 97.1874 35.0875C97.2624 33.5625 95.8999 31.9125 94.3374 31.85C92.6874 31.775 91.0249 33.125 90.9374 34.8C90.8624 36.45 92.2749 37.725 93.8874 37.6625C94.1249 37.6375 94.1249 37.2625 93.8874 37.275Z" fill="#F66F5D"/>
<path d="M92.0376 36.3C92.6376 34.7875 95.8376 34.5375 96.2126 36.3375C96.2626 36.575 96.6251 36.475 96.5751 36.2375C96.1126 34.0375 92.4001 34.3625 91.6751 36.2C91.5876 36.425 91.9501 36.5125 92.0376 36.3Z" fill="#F66F5D"/>
<path d="M93.9127 34.6125C93.6502 34.425 93.5502 34.0625 93.7252 33.7875C93.9252 33.45 94.3502 33.4125 94.6752 33.5875C94.9252 33.725 94.9752 34.0375 94.8252 34.275C94.6377 34.5625 94.2377 34.6 93.9252 34.525C93.6877 34.475 93.5877 34.8375 93.8252 34.8875C94.3252 35 94.9252 34.8875 95.1752 34.4C95.4002 33.9625 95.2377 33.4375 94.7877 33.225C94.2877 33 93.6877 33.1 93.4002 33.5875C93.1127 34.05 93.3002 34.625 93.7252 34.925C93.9252 35.0875 94.1127 34.7625 93.9127 34.6125Z" fill="#F66F5D"/>
<path d="M99.2128 30.7625C100.525 27.2875 104.3 25.5125 107.813 25.275C110.138 25.1125 112.463 25.475 114.738 25.9125C116.888 26.3375 119.125 27.0125 121.325 26.9375C123.138 26.875 125 26.125 125.85 24.4375C125.963 24.225 125.638 24.0375 125.525 24.25C124.538 26.2 122.263 26.7 120.25 26.5375C117.9 26.35 115.588 25.65 113.275 25.2625C109.525 24.6375 105.525 24.55 102.188 26.6625C100.675 27.625 99.4753 28.975 98.8378 30.6625C98.7628 30.8875 99.1253 30.9875 99.2128 30.7625Z" fill="#F66F5D"/>
<path d="M127.362 24.225C130.662 24.225 133.975 24.225 137.275 24.225C137.512 24.225 137.512 23.85 137.275 23.85C133.975 23.85 130.662 23.85 127.362 23.85C127.112 23.85 127.112 24.225 127.362 24.225Z" fill="#F66F5D"/>
<path d="M127.225 23.825C126.638 23.25 127.275 22.275 127.738 21.8375C128.3 21.2875 129.075 21.075 129.825 21.375C129.888 21.4 130.013 21.3625 130.038 21.2875C130.488 20.2375 131.55 19.475 132.713 19.525C133.925 19.575 134.95 20.4875 135.25 21.6375C135.275 21.75 135.425 21.8125 135.525 21.75C136.075 21.4125 136.638 21.8125 136.863 22.325C137.063 22.8 137.013 23.3375 136.963 23.85C136.938 24.0875 137.313 24.0875 137.338 23.85C137.413 23.1 137.463 22.2125 136.863 21.6375C136.438 21.2375 135.85 21.1125 135.35 21.425C135.438 21.4625 135.538 21.5 135.625 21.5375C135.288 20.2875 134.213 19.2875 132.9 19.1625C131.55 19.025 130.25 19.8625 129.725 21.1C129.8 21.075 129.863 21.0375 129.938 21.0125C128.938 20.6125 127.888 21.0375 127.238 21.8625C126.75 22.475 126.325 23.4625 126.988 24.1C127.138 24.2625 127.4 24 127.225 23.825Z" fill="#F66F5D"/>
<path d="M134.337 25.6624C135.875 25.4874 136.775 27.0999 137.012 28.3999C137.262 29.7374 137.025 31.0749 136.887 32.4124C136.675 34.4249 136.812 36.8499 138.725 38.0249C138.925 38.1499 139.125 37.8249 138.912 37.6999C136.3 36.0999 137.387 32.5374 137.487 30.0874C137.562 28.2249 136.825 25.0124 134.337 25.2874C134.1 25.3124 134.1 25.6874 134.337 25.6624Z" fill="#F66F5D"/>
<path d="M140.8 35.9124C139.675 38.7499 138.562 41.5874 137.437 44.4124C137.35 44.6374 137.712 44.7374 137.8 44.5124C138.925 41.6749 140.037 38.8374 141.162 36.0124C141.25 35.7874 140.887 35.6999 140.8 35.9124Z" fill="#F66F5D"/>
<path d="M140.975 36.1499C142.925 36.0499 144.862 36.0999 146.8 36.3249C146.737 36.2499 146.675 36.1624 146.625 36.0874C145.7 39.0499 144.95 42.0499 144.35 45.0874C144.3 45.3249 144.662 45.4249 144.712 45.1874C145.312 42.1499 146.075 39.1499 146.987 36.1874C147.025 36.0624 146.925 35.9624 146.812 35.9499C144.875 35.7249 142.937 35.6749 140.987 35.7749C140.737 35.7874 140.737 36.1624 140.975 36.1499Z" fill="#F66F5D"/>
<path d="M137.525 44.775C138.675 44.825 139.812 44.8875 140.962 44.9625C142.075 45.025 143.262 45 144.312 45.425C144.537 45.5125 144.637 45.15 144.412 45.0625C143.412 44.65 142.275 44.675 141.212 44.6125C139.987 44.5375 138.762 44.475 137.525 44.4125C137.287 44.3875 137.287 44.7625 137.525 44.775Z" fill="#F66F5D"/>
<path d="M141.15 37.4C142.35 37.425 143.55 37.5124 144.737 37.6749C144.975 37.7124 145.075 37.35 144.837 37.3125C143.612 37.1375 142.387 37.0375 141.15 37.0125C140.9 37.0125 140.9 37.3875 141.15 37.4Z" fill="#F66F5D"/>
<path d="M140.787 38.25C141.462 38.225 142.137 38.2375 142.812 38.3C143.05 38.325 143.05 37.95 142.812 37.925C142.137 37.8625 141.462 37.8375 140.787 37.875C140.55 37.8875 140.55 38.2625 140.787 38.25Z" fill="#F66F5D"/>
<path d="M139.962 39.9375C141.4 39.85 142.762 39.725 144.175 40.075C144.412 40.1375 144.512 39.775 144.275 39.7125C142.825 39.3625 141.437 39.475 139.962 39.5625C139.712 39.575 139.712 39.95 139.962 39.9375Z" fill="#F66F5D"/>
<path d="M140.025 41.0375C140.85 40.975 141.675 40.975 142.5 41.05C142.738 41.075 142.738 40.7 142.5 40.675C141.675 40.6 140.85 40.6 140.025 40.6625C139.788 40.6875 139.775 41.0625 140.025 41.0375Z" fill="#F66F5D"/>
<path d="M139.375 42.4875C140.5 42.4125 141.6 42.45 142.712 42.6C142.95 42.6375 142.95 42.2625 142.712 42.225C141.6 42.075 140.487 42.0375 139.375 42.1125C139.137 42.125 139.137 42.5 139.375 42.4875Z" fill="#F66F5D"/>
<path d="M77.1748 25.7124C77.6748 26.3874 78.3998 26.6624 79.1373 26.9999C80.0123 27.3999 80.8123 27.9374 81.4623 28.6499C82.9373 30.2374 83.4248 32.3749 83.4623 34.4874C83.5498 38.4499 82.2123 42.5999 84.0123 46.3499C84.1123 46.5624 84.4373 46.3749 84.3373 46.1624C82.4498 42.2124 84.1248 37.7874 83.7998 33.6374C83.6623 31.8374 83.1498 30.0749 81.9873 28.6749C81.4373 28.0124 80.7623 27.4374 80.0123 27.0124C79.1748 26.5374 78.0873 26.3249 77.4998 25.5249C77.3623 25.3374 77.0373 25.5249 77.1748 25.7124Z" fill="#F66F5D"/>
<path d="M72.9002 20.425C72.5752 20.0125 72.6002 19.725 72.9752 19.5625C73.1377 19.475 73.3002 19.4125 73.4877 19.375C73.7252 19.325 73.9877 19.3125 74.2377 19.325C74.9877 19.3625 75.7502 19.5625 75.7127 20.475C75.6752 21.55 75.4752 22.6125 75.2127 23.65C74.9377 24.7125 74.6002 25.75 74.2377 26.7875C74.1627 27.0125 74.1002 27.275 73.9877 27.4875C73.7627 27.875 73.4127 27.8625 73.0377 27.8625C72.5752 27.8625 71.9877 27.925 71.5377 27.8C71.0377 27.6625 70.9252 27.1625 71.4127 26.8375C71.6377 26.6875 71.9502 26.6625 72.2127 26.6625C72.5502 26.6625 72.8502 26.7375 73.1377 26.5125C73.6877 26.0875 73.7752 24.9375 73.9002 24.325C74.0877 23.4375 74.4002 22.35 74.3377 21.45C74.2877 20.7625 73.6127 20.7375 73.1252 20.45C72.9127 20.325 72.7252 20.65 72.9377 20.775C73.3252 21 73.8877 21.025 73.9627 21.5375C74.0502 22.1375 73.8002 22.95 73.6877 23.55C73.5752 24.1249 73.4502 24.7 73.3002 25.2625C73.1877 25.6875 73.1377 26.2 72.5752 26.3125C72.3502 26.3625 72.0752 26.2875 71.8377 26.325C71.2377 26.4125 70.6502 26.8375 70.7377 27.5125C70.8502 28.3625 71.8627 28.2125 72.4877 28.2375C73.2627 28.2625 74.0377 28.375 74.3877 27.55C74.8252 26.525 75.1377 25.4 75.4377 24.3375C75.7502 23.2375 75.9877 22.1 76.0752 20.9625C76.1502 20.075 76.1877 19.3625 75.2002 19.125C74.3377 18.9125 73.1502 18.8125 72.4752 19.5125C72.0252 19.975 72.1377 20.8875 72.9127 20.825C73.1377 20.775 73.1377 20.4 72.9002 20.425Z" fill="#F66F5D"/>
<path d="M71.3875 21.7624C71.375 21.7499 71.3625 21.7374 71.35 21.7249C71.3 21.6749 71.225 21.6624 71.1625 21.6749C70.8 21.7999 70.6625 22.3874 70.5625 22.7124C70.3875 23.3124 70.35 23.9249 70.4375 24.5499C70.4625 24.7874 70.8375 24.7874 70.8125 24.5499C70.7625 24.1124 70.75 23.6874 70.825 23.2499C70.8625 23.0249 71.25 22.1499 71.1125 22.0249C71.2875 22.1999 71.55 21.9374 71.3875 21.7624Z" fill="#F66F5D"/>
<path d="M70.1249 20.3875C68.9749 21.85 68.2374 23.6125 68.7249 25.4875C68.7874 25.725 69.1499 25.625 69.0874 25.3875C68.6374 23.6625 69.3374 22 70.3874 20.65C70.5374 20.4625 70.2749 20.2 70.1249 20.3875Z" fill="#F66F5D"/>
<path d="M68.5502 18.7C66.6377 21.2125 65.7377 24.3875 66.0627 27.5375C66.0877 27.775 66.4627 27.775 66.4377 27.5375C66.1252 24.45 66.9877 21.3625 68.8752 18.8875C69.0127 18.7 68.6877 18.5125 68.5502 18.7Z" fill="#F66F5D"/>
<path d="M65.8877 31.475C64.9252 31.9375 64.0252 32.575 63.3127 33.375C62.5877 34.2 62.3627 35.0875 62.2502 36.1625C62.0002 38.625 61.0877 41.325 58.6127 42.3625C58.3877 42.45 58.4877 42.8125 58.7127 42.725C60.6877 41.9 61.8377 40.025 62.3252 38C62.6127 36.7875 62.4752 35.35 63.1127 34.2625C63.7627 33.15 64.9377 32.3375 66.0752 31.7875C66.3002 31.7 66.1127 31.375 65.8877 31.475Z" fill="#F66F5D"/>
<path d="M53.325 49C52.5 49.025 51.5625 48.675 51.2625 47.825C50.9125 46.825 51.6625 45.85 52.4625 45.3375C54.0125 44.3375 56.1 43.95 57.9 43.925C58.8125 43.9125 59.85 43.925 60.65 44.4125C61.675 45.0375 61.85 46.2125 61.05 47.1C59.8375 48.45 57.75 48.5875 56.075 48.7125C55.8375 48.725 55.8375 49.1 56.075 49.0875C57.75 48.9625 59.625 48.8125 60.975 47.6875C62.2125 46.6625 62.3 44.9625 60.85 44.075C59.35 43.1625 57.0625 43.4625 55.4375 43.8125C53.875 44.15 51.7375 44.7625 51.0375 46.375C50.3125 48.025 51.7 49.4 53.35 49.35C53.575 49.3625 53.575 48.9875 53.325 49Z" fill="#F66F5D"/>
<path d="M53.2624 49.15C52.9499 49.65 52.6499 50.15 52.3374 50.6375C52.2374 50.8 52.4374 50.975 52.5999 50.9C53.3624 50.4875 54.1874 50.225 54.9624 49.8625C55.3874 49.675 55.7999 49.45 56.1999 49.2C56.3374 49.1125 56.4999 49.0625 56.5374 48.8875C56.5624 48.8 56.5124 48.675 56.4124 48.6625C56.3999 48.6625 56.3874 48.6625 56.3749 48.65C56.2874 48.6375 56.1624 48.675 56.1499 48.775C56.1499 48.7875 56.1499 48.7875 56.1499 48.8C56.0999 49.0375 56.4624 49.1375 56.5124 48.9C56.5124 48.8875 56.5124 48.8875 56.5124 48.875C56.4374 48.9125 56.3624 48.9625 56.2874 49C56.2999 49 56.3124 49 56.3249 49.0125C56.2874 48.9375 56.2374 48.8625 56.1999 48.7875C56.1624 48.9125 55.4624 49.2 55.3124 49.2875C54.9374 49.4875 54.5499 49.65 54.1499 49.8125C53.5624 50.05 52.9874 50.275 52.4374 50.575C52.5249 50.6625 52.6124 50.75 52.6999 50.8375C53.0124 50.3375 53.3124 49.8375 53.6249 49.35C53.7124 49.1375 53.3874 48.95 53.2624 49.15Z" fill="#F66F5D"/>
<path d="M53.6748 46.9875C53.6623 46.9625 53.6623 46.9125 53.6998 46.9125C53.7998 46.9125 53.6873 47.0375 53.6748 47.05C53.6123 47.0875 53.3998 47.1375 53.4123 47.0125C53.4248 46.8625 53.7123 46.7 53.7623 46.925C53.7748 46.9875 53.7248 47.0625 53.6623 47.075C53.6248 47.0875 53.5998 47.0875 53.5748 47.0625C53.5623 47.05 53.5373 47.0375 53.5623 47.0375C53.7998 47.05 53.7998 46.675 53.5623 46.6625C53.3123 46.6375 53.1248 46.9 53.1873 47.1375C53.2498 47.375 53.5248 47.5 53.7498 47.4375C53.9748 47.375 54.1498 47.175 54.1498 46.9375C54.1498 46.7 53.9623 46.5 53.7498 46.45C53.2873 46.3375 52.7998 47.0125 53.1998 47.35C53.5248 47.625 54.1748 47.375 54.1373 46.9125C54.1123 46.6625 53.8373 46.4625 53.5873 46.55C53.3373 46.6375 53.2373 46.95 53.3623 47.175C53.4623 47.3875 53.7873 47.2 53.6748 46.9875Z" fill="#F66F5D"/>
<path d="M56.4376 46.65C56.4251 46.575 56.3876 46.475 56.4626 46.4125C56.5001 46.375 56.5626 46.375 56.6126 46.375C56.7376 46.4 56.7126 46.5375 56.6251 46.6C56.5751 46.6375 56.5251 46.6375 56.4876 46.5875C56.4501 46.5375 56.4626 46.525 56.5001 46.5C56.5251 46.4875 56.4501 46.5 56.5126 46.4875C56.6626 46.4625 56.4126 46.6375 56.4501 46.5125C56.3751 46.75 56.7376 46.8375 56.8126 46.6125C56.8751 46.3875 56.6626 46.1625 56.4376 46.2C56.1751 46.25 56.1126 46.5625 56.2751 46.75C56.4251 46.925 56.7001 46.8875 56.8126 46.6875C56.9251 46.4875 56.8501 46.225 56.6251 46.15C56.4001 46.075 56.1501 46.2125 56.1001 46.4375C56.0376 46.6875 56.2126 46.9375 56.4626 47C56.9126 47.1 57.2876 46.4875 56.9626 46.15C56.8001 45.9875 56.5376 45.975 56.3376 46.0625C56.0626 46.2 56.0501 46.4875 56.1001 46.75C56.1126 46.9875 56.4751 46.8875 56.4376 46.65Z" fill="#F66F5D"/>
<path d="M59.2124 45.8125C59.2624 45.8125 59.3124 45.825 59.3749 45.825V45.8125C59.3874 45.8 59.3874 45.775 59.3999 45.7625C59.4124 45.7375 59.4499 45.7125 59.4749 45.7C59.5374 45.675 59.5999 45.675 59.6374 45.7375C59.6874 45.8375 59.5999 46.025 59.4749 45.95C59.3999 45.9 59.3874 45.775 59.4999 45.8C59.5249 45.8 59.5374 45.8125 59.5499 45.825C59.5499 45.825 59.5499 45.85 59.5499 45.825C59.5499 45.8 59.5499 45.8375 59.5374 45.8375C59.4999 45.8625 59.4874 45.8875 59.4499 45.8625C59.3624 45.8 59.2374 45.85 59.1874 45.925C59.1374 46.025 59.1749 46.125 59.2499 46.1875C59.6124 46.45 60.0999 45.925 59.8124 45.575C59.5499 45.2625 58.9874 45.4625 59.0124 45.875C59.0249 46.0875 59.1874 46.275 59.3874 46.325C59.5874 46.375 59.7999 46.275 59.9124 46.1C60.1624 45.7125 59.8124 45.175 59.3499 45.325C59.1374 45.4 58.9499 45.6125 58.9749 45.85C58.9999 46.1125 59.3749 46.25 59.5124 45.9875C59.6374 45.7875 59.3249 45.6 59.2124 45.8125Z" fill="#F66F5D"/>
<path d="M66.7624 34.9124C68.2999 34.0624 69.6374 32.9374 70.7499 31.5749C70.8999 31.3874 70.6374 31.1249 70.4874 31.3124C69.3999 32.6499 68.0874 33.7499 66.5749 34.5874C66.3624 34.6999 66.5499 35.0249 66.7624 34.9124Z" fill="#F66F5D"/>
<path d="M85.4626 35.2375C85.1876 36.8125 85.0751 38.4 85.1501 40C85.1626 40.2375 85.5376 40.2375 85.5251 40C85.4501 38.4375 85.5501 36.875 85.8251 35.3375C85.8626 35.1 85.5001 35 85.4626 35.2375Z" fill="#F66F5D"/>
<path d="M83.5498 71.775C83.5498 69.8625 84.4498 68.05 85.9873 66.9C86.1748 66.7625 85.9873 66.4375 85.7998 66.575C84.1498 67.8 83.1873 69.7125 83.1873 71.775C83.1748 72.0125 83.5498 72.0125 83.5498 71.775Z" fill="#F66F5D"/>
<path d="M104.488 122.25C104.688 124.05 105 126.025 105.5 128.162C106.175 131.05 107.038 133.575 107.9 135.7C107.663 135.912 106.95 136.475 105.9 136.55C105.238 136.6 104.713 136.437 104.413 136.325C103.963 134.762 103.525 133.137 103.125 131.45C102.3 127.975 101.7 124.662 101.263 121.575C102.35 121.8 103.425 122.025 104.488 122.25Z" fill="#191919"/>
<path d="M132.55 121.075C132.388 122.862 132.113 124.85 131.65 126.987C131 130.012 130.138 132.637 129.263 134.85C129.388 134.962 130.1 135.637 131.2 135.587C132.15 135.55 132.763 134.987 132.913 134.85C133.2 133.337 133.475 131.812 133.75 130.287C134.35 126.95 134.888 123.662 135.4 120.412C134.45 120.625 133.5 120.85 132.55 121.075Z" fill="#191919"/>
<path d="M110.2 116.087C110.488 118 110.825 119.975 111.213 122C111.775 124.937 112.413 127.737 113.088 130.387C112.8 130.562 112.225 130.85 111.438 130.9C110.775 130.937 110.25 130.787 109.95 130.675C109.575 128.9 109.213 127.1 108.85 125.3C108.188 121.962 107.575 118.675 106.988 115.425C108.063 115.637 109.125 115.862 110.2 116.087Z" fill="#191919"/>
<path d="M127.838 115.712C127.5 117.6 127.2 119.575 126.938 121.625C126.575 124.45 126.325 127.15 126.175 129.725C126.388 129.862 126.888 130.15 127.6 130.187C128.363 130.212 128.925 129.912 129.138 129.787C129.013 128.312 128.963 126.675 129.038 124.925C129.188 121.037 129.9 117.687 130.688 115.05C129.738 115.262 128.788 115.487 127.838 115.712Z" fill="#191919"/>
<path d="M150.05 73.8875C152.238 77.7875 150.55 82.1 146.45 92.8125C144.475 97.9625 140.863 107.425 135.763 120.912C130.75 122.737 122.45 124.987 112.188 124.275C106.225 123.862 101.225 122.575 97.4376 121.25C96.8751 120.237 94.9251 116.45 96.3876 112.775C97.2001 110.737 98.8376 109.275 102.313 107.55C105.738 105.85 111.775 103.462 120.55 103.025C117.113 85.9125 123 71.8875 132.163 68.65C138.175 66.5375 147.038 68.525 150.05 73.8875Z" fill="white" stroke="#191919" stroke-width="0.5" stroke-miterlimit="10"/>
<path d="M149.25 75.2999C145.625 79.8874 144.8 86.0499 143.412 91.5624C141.925 97.4624 140.212 103.35 137.65 108.887C136.237 111.925 134.575 114.85 132.587 117.55C132.45 117.75 132.775 117.937 132.912 117.737C136.4 112.987 138.862 107.6 140.762 102.05C142.687 96.3999 143.962 90.5749 145.462 84.8124C146.312 81.5374 147.4 78.2624 149.525 75.5749C149.662 75.3749 149.4 75.1124 149.25 75.2999Z" fill="#191919"/>
<path d="M97.5126 118.538C105.85 121.6 114.938 122.5 123.713 121.138C126.225 120.75 128.713 120.175 131.15 119.425C131.375 119.35 131.288 118.988 131.05 119.063C122.55 121.688 113.425 122.088 104.725 120.238C102.313 119.725 99.9251 119.025 97.6126 118.175C97.3876 118.088 97.2876 118.45 97.5126 118.538Z" fill="#191919"/>
<path d="M126.862 108.713C128.962 109.4 130.75 110.787 131.95 112.662C132.075 112.862 132.4 112.675 132.275 112.475C131.025 110.525 129.162 109.075 126.962 108.35C126.725 108.275 126.625 108.638 126.862 108.713Z" fill="#191919"/>
<path d="M89.2628 124.9C90.2628 126.4 91.2628 127.913 92.2503 129.413C85.8503 135.163 85.0253 136.8 85.5003 137.2C86.4503 137.988 93.2628 134.488 93.9628 134.125C96.5003 132.825 98.4128 131.563 99.6878 130.663C99.2378 129.438 98.6378 128.063 97.8128 126.613C96.7253 124.7 95.5253 123.088 94.3878 121.775C92.6753 122.8 90.9628 123.85 89.2628 124.9Z" fill="#191919"/>
<path d="M126.663 95.4375C127.113 96.4125 127.588 97.8 127.663 99.475C127.775 102 126.95 104.013 126.325 105.175C125.988 105.613 125.388 106.337 124.5 107.125C124.5 107.125 122.488 108.9 119.288 110.262C116.025 111.662 106.538 113.35 93.6501 113.675C94.0251 115.275 94.7001 117.237 95.9001 119.35C96.5626 120.512 97.2876 121.538 98.0001 122.425C97.5251 123.05 96.1751 124.637 93.4876 125.637C90.9001 126.6 88.5251 126.487 87.5876 126.412C86.2376 125.175 84.8501 123.7 83.5626 121.938C79.7751 116.725 78.8876 111.687 78.7251 108.45C79.6626 107.775 81.0376 106.85 82.8376 105.863C86.5876 103.8 90.0251 102.675 92.8501 101.838C97.7126 100.413 102.363 99.425 113.063 97.6125C116.413 97.05 121.05 96.275 126.663 95.4375Z" fill="white" stroke="#191919" stroke-miterlimit="10"/>
<path opacity="0.19" d="M114.788 97.5875C114.425 99.975 113.4 103.075 110.225 105C107.138 106.875 104.55 106.113 98.3626 107.613C93.9126 108.688 88.0251 110.113 86.3876 113.275C84.6751 116.6 87.9126 121.288 93.5751 125.138C94.0501 125.075 94.6501 124.95 95.2876 124.7C96.9251 124.05 97.7251 122.988 98.0251 122.525C97.3001 121.65 96.5501 120.638 95.8626 119.475C94.5626 117.3 93.8626 115.275 93.4626 113.638C100.088 113.363 105.65 112.788 109.875 112.238C114.963 111.575 118.488 110.913 121.85 109.013C124.663 107.425 125.788 105.863 126.188 105.263C127.4 103.425 127.5 101.75 127.55 100.813C127.675 98.525 126.925 96.6625 126.3 95.4875C122.463 96.1875 118.625 96.8875 114.788 97.5875Z" fill="#6C6D6D"/>
<path opacity="0.19" d="M126.425 95.75C126.175 98.075 125.288 101.75 121.75 104.65C119.575 106.438 117.238 107.238 108.063 109.713C104.013 110.8 99.1126 112.088 93.5376 113.488C100.625 113.413 106.388 112.825 110.525 112.262C114.813 111.675 116.913 111.162 119.088 110.225C121.15 109.337 125.313 107.538 127.013 103.75C128.65 100.075 127 96.775 126.425 95.75Z" fill="#6C6D6D"/>
<path opacity="0.22" d="M93.5752 113.675C93.5252 115.325 93.6002 117.213 93.9127 119.288C94.2127 121.338 94.7002 123.175 95.2252 124.775C95.6502 124.525 96.1377 124.188 96.6127 123.775C97.1877 123.275 97.6127 122.8 97.9252 122.388C97.2002 121.438 96.4627 120.338 95.7752 119.1C94.6627 117.1 94.0002 115.25 93.5752 113.675Z" fill="#6C6D6D"/>
<path d="M93 132.075C93.9625 133.962 94.9125 135.85 95.875 137.75C89.725 144.975 88.925 147.025 89.3875 147.525C90.3 148.525 96.85 144.113 97.525 143.663C99.9625 142.025 101.812 140.438 103.037 139.312C102.6 137.775 102.025 136.05 101.225 134.212C100.187 131.812 99.025 129.788 97.9375 128.125C96.2875 129.45 94.6375 130.762 93 132.075Z" fill="#191919"/>
<path d="M128.95 95.05C129.387 96.2875 129.837 98.0125 129.912 100.125C130.025 103.3 129.225 105.825 128.625 107.288C128.3 107.838 127.725 108.75 126.875 109.75C126.875 109.75 124.95 111.988 121.875 113.7C118.737 115.45 109.612 117.588 97.2374 117.988C97.5999 120 98.2374 122.463 99.3999 125.113C100.037 126.575 100.737 127.863 101.425 128.975C100.975 129.763 99.6749 131.75 97.0874 133.013C94.5999 134.225 92.3249 134.088 91.4124 133.975C90.1124 132.425 88.7749 130.563 87.5499 128.35C83.8999 121.8 83.0499 115.463 82.8999 111.4C83.7999 110.563 85.1249 109.388 86.8499 108.15C90.4624 105.563 93.7499 104.138 96.4749 103.088C101.137 101.3 105.625 100.063 115.912 97.775C119.087 97.0625 123.562 96.1 128.95 95.05Z" fill="white" stroke="#191919" stroke-miterlimit="10"/>
<path opacity="0.19" d="M117.537 97.75C117.187 100.75 116.2 104.637 113.15 107.062C110.187 109.425 107.687 108.462 101.75 110.35C97.4748 111.7 91.8123 113.5 90.2373 117.475C88.5873 121.65 91.6998 127.55 97.1373 132.375C97.5998 132.3 98.1748 132.137 98.7873 131.825C100.362 131.012 101.125 129.675 101.412 129.088C100.712 127.988 99.9873 126.712 99.3248 125.25C98.0748 122.513 97.3998 119.975 97.0248 117.912C103.4 117.562 108.737 116.85 112.812 116.162C117.712 115.337 121.087 114.5 124.325 112.113C127.025 110.113 128.112 108.15 128.487 107.4C129.65 105.088 129.75 102.988 129.8 101.812C129.912 98.9375 129.2 96.6 128.6 95.125C124.912 95.9875 121.225 96.8625 117.537 97.75Z" fill="#6C6D6D"/>
<path opacity="0.19" d="M128.712 95.4375C128.475 98.35 127.625 102.975 124.225 106.625C122.125 108.875 119.887 109.875 111.075 112.988C107.175 114.363 102.475 115.975 97.1123 117.738C103.925 117.638 109.475 116.912 113.45 116.2C117.575 115.462 119.6 114.825 121.675 113.65C123.662 112.525 127.65 110.275 129.3 105.5C130.862 100.875 129.275 96.7375 128.712 95.4375Z" fill="#6C6D6D"/>
<path opacity="0.22" d="M97.15 117.975C97.1 120.05 97.175 122.425 97.475 125.025C97.775 127.613 98.225 129.913 98.7375 131.913C99.15 131.588 99.6125 131.175 100.075 130.65C100.625 130.025 101.038 129.425 101.338 128.913C100.638 127.713 99.925 126.338 99.275 124.775C98.2 122.275 97.55 119.938 97.15 117.975Z" fill="#6C6D6D"/>
<path d="M92.2876 75.625C92.0501 75.5125 91.5751 75.3 91.5876 75.0625C91.6126 74.675 92.9001 74.4125 93.8626 74.425C94.5126 74.425 95.7126 74.5625 97.1126 75.5375C95.8001 75.95 93.8626 76.325 92.2876 75.625Z" fill="white" stroke="#191919" stroke-miterlimit="10"/>
<path d="M122.35 59.4125C119.975 59.1 117.837 62.6625 117.637 62.9875C116.912 64.225 116.825 65.05 116.325 67.3125C115.112 72.825 114.462 75.625 112.662 77.3125C111.037 78.825 109.137 79.1875 108.637 79.2625C106.5 79.6 104.562 78.8 100.787 77.1875C97.6 75.825 97.2125 75.325 95.475 75.125C94.5875 75.025 92 74.7375 90.2875 76.4C89.1875 77.4625 88.7 79.1625 89.1 79.5125C89.6125 79.9625 91.7125 78.375 91.7375 78.4125C91.75 78.4375 91.1125 78.7375 90.5875 79.3875C90.325 79.7 89.875 80.375 90.0375 80.55C90.325 80.9 92.0875 78.775 94.025 79.15C95.35 79.4 95.6 80.6 97.1375 80.825C98.0375 80.9625 98.825 80.6875 99.325 80.45C100.2 81.4 101.625 82.75 103.687 83.85C104.912 84.5 109.237 86.7375 114.525 85.4375C120.137 84.0625 122.962 79.675 123.85 78.3C124.35 77.5125 128.025 71.6375 126.25 65.05C125.937 63.9875 124.8 59.7375 122.35 59.4125Z" fill="white" stroke="#191919" stroke-miterlimit="10"/>
<path opacity="0.25" d="M122.1 59.45C121.288 59.875 122.863 62.825 122.663 67.05C122.475 71.1125 120.738 74.1125 119.963 75.4875C118.913 77.325 117.525 79.725 114.763 81.2875C111.05 83.3875 106.45 83.075 103.175 81.65C102.2 81.225 101.213 79.85 99.0625 79.0125C98.125 78.65 97.3875 78.5 96.525 78.325C94.4125 77.9125 92.5375 77.5375 90.8 78.4125C89.975 78.8375 89.2875 79.4875 89.3375 79.575C89.3875 79.6625 90.35 79.175 91.2 78.7125C90.175 80.075 90.0125 80.4625 90.0875 80.5375C90.175 80.6125 90.4875 80.325 91.2875 79.875C92.15 79.4 92.775 79.0625 93.5375 79.125C93.925 79.1625 94.225 79.2875 94.4 79.3625C95.0875 79.6625 95.25 80.0125 95.9375 80.3625C96.3625 80.575 96.7125 80.6625 96.9 80.7C97.3 80.7875 98.125 80.9 99.2125 80.5125C100.163 81.5125 104.525 85.9375 110.913 85.85C114.2 85.8 116.613 84.575 117.563 84.0875C122.775 81.375 124.85 76.5625 125.375 75.2375C127 71.1375 127.575 65.0625 124.6 61.25C123.888 60.325 122.663 59.1625 122.1 59.45Z" fill="#6C6D6D"/>
<path d="M89.3251 79.5125C89.8126 78.7875 90.4501 78.2125 91.2126 77.8C91.3751 77.7125 91.2251 77.475 91.0751 77.5625C90.2751 78 89.6001 78.6125 89.0876 79.375C88.9751 79.525 89.2251 79.6625 89.3251 79.5125Z" fill="#191919"/>
<path d="M89.4751 77.9C89.9626 77.1375 90.7501 76.7374 91.5376 76.3499C91.7001 76.2749 91.5626 76.025 91.4001 76.1125C90.5626 76.5125 89.7376 76.9499 89.2251 77.7624C89.1376 77.9124 89.3751 78.05 89.4751 77.9Z" fill="#191919"/>
<path opacity="0.29" d="M125.687 63.95C125.5 65.2125 125.162 67.0375 124.562 69.1875C123.387 73.4375 122.325 77.2625 119.55 80.3C116.112 84.05 111.45 85.0749 108.775 85.3874C110.762 85.8499 112.325 85.7625 113.312 85.625C120.812 84.575 124.862 76.5125 125.962 72.9875C126.15 72.3625 126.55 71.075 126.6 69.3125C126.687 66.9625 126.112 65.075 125.687 63.95Z" fill="#6C6D6D"/>
<path opacity="0.26" d="M94.2749 79C94.9874 79.35 95.9624 79.7375 97.1624 79.9625C98.1124 80.1375 98.9624 80.175 99.6374 80.15C97.9249 81.0625 97.0374 80.95 96.5374 80.65C96.2249 80.4625 95.8749 80.0875 94.9124 79.425C94.6499 79.2375 94.4249 79.0875 94.2749 79Z" fill="#6C6D6D"/>
<path d="M69 99.5499C69 105.55 69 111.562 69 117.562C69 118.287 70.125 118.287 70.125 117.562C70.125 111.562 70.125 105.55 70.125 99.5499C70.125 98.8374 69 98.8249 69 99.5499Z" fill="#161616"/>
<path d="M89.4502 99.3124C89.4502 100.275 89.4502 101.237 89.4502 102.2C89.4502 102.925 90.5752 102.925 90.5752 102.2C90.5752 101.237 90.5752 100.275 90.5752 99.3124C90.5752 98.5874 89.4502 98.5874 89.4502 99.3124Z" fill="#161616"/>
<path d="M53.4751 98.8125C59.5376 93.1 65.6001 87.375 71.6751 81.6625C81.4876 81.8375 91.2876 82.0125 101.1 82.1875C99.5001 87.7375 97.9001 93.275 96.3001 98.825C82.0251 98.8125 67.7501 98.8125 53.4751 98.8125Z" fill="white" stroke="#191919" stroke-width="0.5" stroke-miterlimit="10"/>
<path d="M53.8377 99.4625C64.8002 99.4625 75.7502 99.4625 86.7127 99.4625C89.7877 99.4625 92.8502 99.4625 95.9252 99.4625C96.6502 99.4625 96.6502 98.3375 95.9252 98.3375C84.9627 98.3375 74.0127 98.3375 63.0502 98.3375C59.9752 98.3375 56.9127 98.3375 53.8377 98.3375C53.1127 98.3375 53.1127 99.4625 53.8377 99.4625Z" fill="#161616"/>
<path d="M57.0498 99.275C57.0498 111.712 57.0498 124.15 57.0498 136.575C57.0498 140.062 57.0498 143.537 57.0498 147.025C57.0498 147.75 58.1748 147.75 58.1748 147.025C58.1748 134.587 58.1748 122.15 58.1748 109.725C58.1748 106.237 58.1748 102.762 58.1748 99.275C58.1748 98.55 57.0498 98.55 57.0498 99.275Z" fill="#161616"/>
<path d="M91.3374 99.275C91.3374 111.712 91.3374 124.15 91.3374 136.575C91.3374 140.062 91.3374 143.537 91.3374 147.025C91.3374 147.75 92.4624 147.75 92.4624 147.025C92.4624 134.587 92.4624 122.15 92.4624 109.725C92.4624 106.237 92.4624 102.762 92.4624 99.275C92.4624 98.55 91.3374 98.55 91.3374 99.275Z" fill="#161616"/>
<path d="M57.6126 122.487C66.4376 122.487 75.2626 122.487 84.0876 122.487C86.5876 122.487 89.0876 122.487 91.5876 122.487C92.3126 122.487 92.3126 121.362 91.5876 121.362C82.7626 121.362 73.9376 121.362 65.1126 121.362C62.6126 121.362 60.1126 121.362 57.6126 121.362C56.8876 121.362 56.8876 122.487 57.6126 122.487Z" fill="#161616"/>
<path d="M100.95 82.1874C99.5248 87.7499 97.8873 93.2624 96.0123 98.6874C95.8498 99.1499 96.5749 99.3374 96.7374 98.8874C98.6124 93.4499 100.25 87.9499 101.675 82.3874C101.787 81.9249 101.075 81.7249 100.95 82.1874Z" fill="#161616"/>
<path d="M41.0999 148.25C47.7374 148.25 54.3624 148.25 60.9999 148.25C61.7249 148.25 61.7249 147.125 60.9999 147.125C54.3624 147.125 47.7374 147.125 41.0999 147.125C40.3749 147.125 40.3749 148.25 41.0999 148.25Z" fill="#161616"/>
<path d="M63.7874 148C65.3124 148 66.8499 148 68.3749 148C69.0999 148 69.0999 146.875 68.3749 146.875C66.8499 146.875 65.3124 146.875 63.7874 146.875C63.0624 146.875 63.0624 148 63.7874 148Z" fill="#161616"/>
<path d="M83.6873 148.162C89.6623 148.162 95.6373 148.162 101.625 148.162C102.35 148.162 102.35 147.037 101.625 147.037C95.6498 147.037 89.6748 147.037 83.6873 147.037C82.9623 147.037 82.9623 148.162 83.6873 148.162Z" fill="#161616"/>
<path d="M105.713 147.762C106.775 147.762 107.838 147.762 108.913 147.762C109.638 147.762 109.638 146.637 108.913 146.637C107.85 146.637 106.788 146.637 105.713 146.637C104.988 146.637 104.988 147.762 105.713 147.762Z" fill="#161616"/>
<path d="M35.075 144.287C37.6625 144.287 40.25 144.287 42.825 144.287C43.55 144.287 43.55 143.162 42.825 143.162C40.2375 143.162 37.65 143.162 35.075 143.162C34.35 143.162 34.35 144.287 35.075 144.287Z" fill="#161616"/>
<path d="M89.7501 96.4501C82.0376 96.2501 74.3126 96.0626 66.6001 95.8626C71.1751 91.4876 75.7376 87.1001 80.3126 82.7251C85.5876 83.0001 90.8751 83.2751 96.1501 83.5501C94.0126 87.8626 91.8876 92.1501 89.7501 96.4501Z" fill="white" stroke="#191919" stroke-width="0.5" stroke-miterlimit="10"/>
<path d="M80.0501 82.6375C75.5626 86.975 71.0751 91.325 66.5876 95.6625C66.3876 88.7125 66.1751 81.7501 65.9751 74.8001C70.5251 71.9251 75.0751 69.05 79.6251 66.175C79.7501 71.6625 79.9001 77.15 80.0501 82.6375Z" fill="white" stroke="#191919" stroke-width="0.5" stroke-miterlimit="10"/>
<path d="M66.3878 75.4625C66.7503 81.65 66.9878 87.8501 67.1128 94.0501C67.1128 94.1751 67.3003 94.1751 67.3003 94.0501C67.1753 87.8501 66.9378 81.65 66.5753 75.4625C66.5628 75.35 66.3753 75.35 66.3878 75.4625Z" fill="#191919"/>
<path d="M66.4875 75.4875C70.675 72.7625 74.8625 70.0375 79.05 67.3125C79.15 67.25 79.0625 67.0875 78.95 67.15C74.7625 69.875 70.575 72.6 66.3875 75.325C66.2875 75.4 66.375 75.5625 66.4875 75.4875Z" fill="#191919"/>
<path d="M79.0002 67.3001C78.9877 72.2876 79.1377 77.2876 79.4627 82.2626C79.4752 82.3876 79.6627 82.3876 79.6502 82.2626C79.3377 77.2751 79.1752 72.2876 79.1877 67.3001C79.1877 67.1876 79.0002 67.1876 79.0002 67.3001Z" fill="#191919"/>
<path d="M67.2377 94.3126C71.3377 90.3501 75.4502 86.3876 79.5502 82.4376C79.6377 82.3501 79.5001 82.2251 79.4126 82.3001C75.3126 86.2626 71.2001 90.2251 67.1001 94.1751C67.0251 94.2626 67.1502 94.4001 67.2377 94.3126Z" fill="#191919"/>
<path d="M86.2253 92.1875C86.9878 90.975 87.7503 89.75 88.4878 88.5125C88.5503 88.4125 88.3878 88.3125 88.3253 88.4125C87.5878 89.65 86.8253 90.875 86.0628 92.0875C85.9878 92.1875 86.1503 92.2875 86.2253 92.1875Z" fill="#191919"/>
<path d="M88.4375 88.475C89.425 88.5125 90.4125 88.5125 91.4 88.4625C91.525 88.4625 91.525 88.275 91.4 88.275C90.4125 88.3125 89.425 88.3125 88.4375 88.2875C88.3125 88.2875 88.3125 88.475 88.4375 88.475Z" fill="#191919"/>
<path d="M91.2752 88.4125C90.7127 89.6375 90.1377 90.8625 89.5627 92.0875C89.5127 92.2 89.6752 92.2875 89.7252 92.1875C90.3002 90.9625 90.8752 89.7375 91.4377 88.5125C91.4877 88.3875 91.3252 88.3 91.2752 88.4125Z" fill="#191919"/>
<path d="M86.1627 92.2875C87.2627 92.45 88.4252 92.375 89.5377 92.325C89.6627 92.325 89.6627 92.1375 89.5377 92.1375C88.4502 92.1875 87.3002 92.2625 86.2127 92.1125C86.0877 92.0875 86.0377 92.275 86.1627 92.2875Z" fill="#191919"/>
<path d="M90.2625 88.4251C89.7625 89.6751 89.1875 90.8876 88.5375 92.0626C88.475 92.1626 88.6375 92.2626 88.7 92.1626C89.35 90.9626 89.9375 89.7376 90.45 88.4751C90.4875 88.3626 90.3125 88.3126 90.2625 88.4251Z" fill="#191919"/>
<path d="M72.1499 94.0875C74.8999 90.6875 77.7499 87.3625 80.6874 84.1125C80.7624 84.025 80.6374 83.8875 80.5499 83.975C77.6124 87.2125 74.7624 90.5375 72.0124 93.95C71.9374 94.05 72.0749 94.175 72.1499 94.0875Z" fill="#191919"/>
<path d="M75.4753 94.3C77.9378 90.8625 80.5378 87.5375 83.2628 84.3125C83.3378 84.225 83.2128 84.0875 83.1253 84.175C80.3878 87.4125 77.7878 90.75 75.3128 94.2C75.2378 94.3 75.4003 94.4 75.4753 94.3Z" fill="#191919"/>
<path d="M79.0501 94.8125C81.1876 91.2375 83.5251 87.7875 86.0501 84.475C86.1251 84.375 85.9626 84.2875 85.8876 84.375C83.3626 87.6875 81.0251 91.1375 78.8876 94.7125C78.8251 94.8125 78.9876 94.9125 79.0501 94.8125Z" fill="#191919"/>
<path d="M82.0501 95.125C84.1501 91.2125 86.6376 87.525 89.4876 84.125C89.5626 84.0375 89.4376 83.9 89.3501 83.9875C86.4876 87.4 83.9876 91.1 81.8751 95.025C81.8251 95.1375 81.9876 95.2375 82.0501 95.125Z" fill="#191919"/>
<path d="M73.7499 92.0626C76.9499 91.7251 80.1499 92.1251 83.3374 92.5501C83.4624 92.5626 83.4499 92.3751 83.3374 92.3626C80.1624 91.9376 76.9624 91.5251 73.7499 91.8751C73.6374 91.8876 73.6374 92.0751 73.7499 92.0626Z" fill="#191919"/>
<path d="M75.3627 90.2375C78.3877 90.125 81.4127 90.35 84.3877 90.925C84.5002 90.95 84.5502 90.7625 84.4377 90.75C81.4502 90.175 78.4002 89.95 75.3627 90.0625C75.2502 90.05 75.2502 90.2375 75.3627 90.2375Z" fill="#191919"/>
<path d="M76.8125 88.4751C79.725 88.2876 82.6375 88.5501 85.475 89.2501C85.5875 89.2751 85.6375 89.1001 85.525 89.0751C82.675 88.3626 79.75 88.1001 76.8125 88.2876C76.6875 88.3001 76.6875 88.4876 76.8125 88.4751Z" fill="#191919"/>
<path d="M78.3124 86.7126C81.1124 86.7251 83.8874 87.0126 86.6249 87.5751C86.7374 87.6001 86.7874 87.4126 86.6749 87.4001C83.9249 86.8376 81.1249 86.5501 78.3124 86.5376C78.1999 86.5251 78.1999 86.7126 78.3124 86.7126Z" fill="#191919"/>
<path d="M79.8003 85.075C82.4628 85.125 85.1128 85.4375 87.7003 86.025C87.8128 86.05 87.8628 85.875 87.7503 85.85C85.1378 85.2625 82.4753 84.9375 79.8003 84.9C79.6753 84.8875 79.6753 85.075 79.8003 85.075Z" fill="#191919"/>
<path d="M88.3753 86.9751C87.1503 88.7751 85.9378 90.5751 84.7128 92.3751C84.6503 92.4751 84.8128 92.5751 84.8753 92.4751C86.1003 90.6751 87.3128 88.8751 88.5378 87.0751C88.6128 86.9626 88.4503 86.8751 88.3753 86.9751Z" fill="#191919"/>
<path d="M67.675 84.2501C69.2375 83.5876 70.925 83.9626 72.575 83.9376C73.9625 83.9251 75.2875 83.5376 76.475 82.8376C76.575 82.7751 76.4875 82.6126 76.375 82.6751C74.9125 83.5376 73.3625 83.8126 71.6875 83.7376C70.2875 83.6751 68.9 83.5376 67.575 84.1001C67.475 84.1376 67.5625 84.3001 67.675 84.2501Z" fill="#191919"/>
<path d="M71.8874 83.4751C74.5624 81.9626 75.7999 78.7751 78.5874 77.4376C78.6999 77.3876 78.5999 77.2251 78.4874 77.2751C75.6874 78.6251 74.4624 81.8001 71.7874 83.3126C71.6874 83.3751 71.7749 83.5376 71.8874 83.4751Z" fill="#191919"/>
<path d="M75.2874 74.5625C74.8249 74.2 74.8999 73.6125 75.1624 73.15C75.2874 72.925 75.4749 72.6875 75.6874 72.55C76.0749 72.3 76.4374 72.5 76.7374 72.7625C76.8249 72.8375 76.9624 72.7125 76.8749 72.625C76.2499 72.1 75.6624 72.15 75.1499 72.825C74.7374 73.375 74.5249 74.2 75.1499 74.7C75.2499 74.775 75.3874 74.6375 75.2874 74.5625Z" fill="#191919"/>
<path d="M113.787 65.4249C110.362 69.2249 109.437 73.3999 108.937 75.7624C108.025 80.1374 108.987 81.8874 109.05 90.1999C109.075 93.7374 108.925 96.6 108.812 98.4C109.587 99 114.387 102.575 120.8 101.4C125.55 100.537 128.412 97.5625 129.312 96.55C129.525 95.3625 129.825 93.6125 130.175 91.4875C132.025 80.025 132.937 74.2125 131.787 70.05C131.1 67.525 129.4 63.525 124.575 59.3875C122.55 59.8125 117.687 61.1124 113.787 65.4249Z" fill="#F66F5D"/>
<path opacity="0.19" d="M117.275 63.1249C118.462 66.6749 119.1 69.7124 119.475 71.9374C120.462 77.8249 121.95 86.6499 117.762 95.1999C116.425 97.9249 114.862 99.9249 113.762 101.162C115.212 101.5 118.087 101.962 121.512 101.075C125.587 100.025 128.137 97.6624 129.187 96.5874C130 91.9374 130.65 87.9499 131.15 84.8374C132.012 79.3624 132.212 77.6999 132.125 75.3624C132.025 72.3624 131.887 69.2124 130.087 65.8124C128.362 62.5624 125.937 60.6124 124.45 59.6124C123.237 59.8249 121.525 60.2749 119.712 61.3249C118.712 61.9249 117.9 62.5624 117.275 63.1249Z" fill="#6C6D6D"/>
<path opacity="0.18" d="M131.475 69.0874C131.25 69.0999 131.725 72.5624 130.987 77.3374C129.625 86.1749 125.25 92.2999 123.562 94.4749C122.15 96.2874 119.937 98.7874 116.7 101.25C117.862 101.425 119.412 101.5 121.187 101.162C125.4 100.375 128.075 97.7874 129.1 96.6749C129.362 95.1499 129.787 92.7624 130.325 89.8124C131.587 82.9124 131.837 82.0874 132.037 79.9374C132.587 74.0749 131.737 69.0874 131.475 69.0874Z" fill="#6C6D6D"/>
<path d="M91.7623 78.3751C91.5248 78.2126 91.0498 77.9126 91.0998 77.6626C91.1998 77.2626 92.6374 77.2001 93.6749 77.3751C94.3749 77.4876 95.6499 77.8501 96.9874 79.1126C95.4874 79.3251 93.3248 79.3876 91.7623 78.3751Z" fill="white" stroke="#191919" stroke-miterlimit="10"/>
<path d="M127.05 66.4C124.537 65.6625 121.6 69.05 121.337 69.375C120.337 70.5625 120.1 71.4125 119.162 73.7125C116.887 79.3375 115.7 82.175 113.45 83.65C111.437 84.975 109.325 85.025 108.762 85.025C106.4 85.0125 104.45 83.8375 100.65 81.4875C97.4499 79.5 97.1249 78.9 95.2749 78.4C94.3374 78.15 91.5874 77.4 89.4499 78.8625C88.0874 79.7875 87.2499 81.5125 87.6249 81.95C88.0999 82.5125 90.6499 81.1875 90.6624 81.2375C90.6749 81.2625 89.9249 81.475 89.2499 82.075C88.9124 82.3625 88.3124 82.9875 88.4499 83.2125C88.6999 83.6375 90.9749 81.6875 92.9999 82.4125C94.3749 82.9 94.4499 84.2125 96.0624 84.725C97.0124 85.025 97.9124 84.8625 98.4874 84.7C99.2624 85.8625 100.575 87.525 102.6 89.0375C103.812 89.9375 108.087 93.0375 114.025 92.575C120.325 92.0875 124.15 87.925 125.337 86.6375C126.025 85.9 131.012 80.3125 130.25 73.0375C130.137 71.85 129.65 67.175 127.05 66.4Z" fill="white" stroke="#191919" stroke-miterlimit="10"/>
<path opacity="0.25" d="M126.775 66.4C125.825 66.7125 127.012 70.1 126.05 74.5375C125.137 78.8 122.737 81.675 121.65 82.9875C120.187 84.75 118.275 87.05 115.012 88.225C110.637 89.8 105.725 88.6875 102.437 86.625C101.462 86 100.637 84.3875 98.4499 83.125C97.4999 82.575 96.7374 82.3 95.8249 81.9625C93.6249 81.1625 91.6499 80.4375 89.6374 81.075C88.6749 81.375 87.8124 81.95 87.8624 82.05C87.9124 82.1625 89.0249 81.8 90.0249 81.4625C88.6874 82.725 88.4374 83.1125 88.4999 83.2125C88.5749 83.3125 88.9749 83.05 89.9124 82.725C90.9374 82.3625 91.6499 82.125 92.4749 82.325C92.8874 82.425 93.1874 82.6125 93.3749 82.725C94.0624 83.15 94.1749 83.5625 94.8499 84.05C95.2624 84.35 95.6374 84.5 95.8374 84.575C96.2499 84.7375 97.1249 85 98.3624 84.775C99.2124 86 103.15 91.425 110.062 92.425C113.625 92.9375 116.437 92.0625 117.55 91.7C123.65 89.725 126.737 85 127.537 83.6875C130.012 79.6375 131.7 73.3125 129.15 68.7625C128.55 67.625 127.425 66.1875 126.775 66.4Z" fill="#6C6D6D"/>
<path d="M87.8499 81.9875C88.5124 81.3 89.2874 80.8 90.1874 80.5C90.3624 80.4375 90.2874 80.175 90.1124 80.225C89.1749 80.55 88.3374 81.075 87.6499 81.7875C87.5249 81.925 87.7249 82.125 87.8499 81.9875Z" fill="#191919"/>
<path d="M88.2998 80.3126C88.9623 79.5751 89.8873 79.2876 90.8123 79.0251C90.9873 78.9751 90.9123 78.7001 90.7373 78.7501C89.7748 79.0376 88.7998 79.3501 88.1123 80.1126C87.9748 80.2501 88.1748 80.4376 88.2998 80.3126Z" fill="#191919"/>
<path opacity="0.29" d="M129.863 71.775C129.438 73.075 128.75 74.95 127.738 77.125C125.725 81.4125 123.913 85.275 120.375 88.0125C116.013 91.3875 110.788 91.675 107.85 91.5375C109.913 92.375 111.625 92.55 112.713 92.575C120.988 92.75 126.788 84.9125 128.588 81.3875C128.9 80.7625 129.55 79.4625 129.925 77.6125C130.413 75.125 130.125 73.0375 129.863 71.775Z" fill="#6C6D6D"/>
<path opacity="0.26" d="M93.2998 82.2875C93.9998 82.775 94.9873 83.35 96.2498 83.8C97.2498 84.15 98.1623 84.325 98.8873 84.4125C96.8748 85.075 95.9373 84.8125 95.4498 84.4125C95.1498 84.1625 94.8373 83.7 93.8998 82.8375C93.6623 82.6 93.4498 82.4125 93.2998 82.2875Z" fill="#6C6D6D"/>
<path d="M107.675 41.1875C107.537 41.9875 107.4 42.7875 107.287 43.625C106.8 47.025 106.6 50.2375 106.587 53.225C107.275 53.15 107.95 53.075 108.637 53.0125C108.562 53.675 108.35 56.1 109.9 58.5C111.362 60.7625 113.462 61.5875 114.112 61.8125C114.037 63.0375 113.975 64.25 113.9 65.475C115.25 64.275 117.087 62.8625 119.425 61.6C121.212 60.6375 122.9 59.975 124.337 59.525C122.725 57.525 122.112 55.6375 121.85 54.55C121.4 52.675 121.487 51.0625 121.575 49.6375C121.662 48.175 121.875 46.9625 122.062 46.1125C122.65 43.4375 121.112 39.2 118.05 37.675C115.025 36.1625 110.512 37.4375 107.675 41.1875Z" fill="white" stroke="#161616" stroke-miterlimit="10"/>
<path d="M108.35 53.1001C108.7 53.0501 109.063 53.0126 109.413 52.9751C109.538 52.9626 109.538 52.7751 109.413 52.7876C109.038 52.8251 108.675 52.8751 108.3 52.9251C108.188 52.9251 108.238 53.1126 108.35 53.1001Z" fill="#161616"/>
<path d="M119.625 43.125C118.113 43.5125 117.838 44.825 115.925 47.5625C113.988 50.3375 112.763 52.075 110.575 53.0875C109.163 53.7375 108.463 53.5625 107.838 54.4C106.763 55.85 107.488 58.2375 108.125 59.4625C108.863 60.875 109.988 61.725 110.913 62.425C111.8 63.0875 112.613 63.525 113.188 63.7875C112.575 62.85 112.538 62.5625 112.613 62.475C112.813 62.275 113.663 63.35 114.663 63.2125C114.95 63.175 115.463 63.0125 116.6 61.225C117.375 60.0125 117.9 59.175 118.25 57.975C119.013 55.4 117.938 54.7 118.25 51.3125C118.3 50.8 118.65 46.7875 120.075 46.525C120.588 46.425 121.113 46.85 121.363 47.175C121.888 47.8625 121.825 48.9625 121.175 49.9125C121.388 49.7625 123.425 48.3875 123.4 46.15C123.4 45.8 123.388 44.5125 122.413 43.675C121.3 42.725 119.75 43.1 119.625 43.125Z" fill="#161616" stroke="#161616" stroke-miterlimit="10"/>
<path d="M109.55 48.8125C109.84 48.8125 110.075 48.3928 110.075 47.875C110.075 47.3572 109.84 46.9375 109.55 46.9375C109.26 46.9375 109.025 47.3572 109.025 47.875C109.025 48.3928 109.26 48.8125 109.55 48.8125Z" fill="#161616"/>
<path d="M105.55 49.25C105.84 49.25 106.075 48.8303 106.075 48.3125C106.075 47.7947 105.84 47.375 105.55 47.375C105.26 47.375 105.025 47.7947 105.025 48.3125C105.025 48.8303 105.26 49.25 105.55 49.25Z" fill="#161616"/>
<path d="M104.762 46.7751C105.1 46.3876 105.625 46.3501 106 46.7251C106.175 46.9001 106.437 46.6251 106.262 46.4626C105.75 45.9626 104.962 45.9751 104.487 46.5126C104.35 46.7001 104.612 46.9626 104.762 46.7751Z" fill="#161616"/>
<path d="M108.862 46.125C109.3 45.7625 109.875 45.8125 110.25 46.225C110.412 46.4 110.675 46.1375 110.512 45.9625C109.987 45.4 109.175 45.375 108.587 45.8625C108.412 46.0125 108.675 46.275 108.862 46.125Z" fill="#161616"/>
<path d="M107.25 42.675C107.388 41.775 107.737 40.3 108.7 38.775C109.037 38.2375 109.762 37.1 110.912 36.325C113.112 34.8625 116.5 34.975 118.963 36.775C121.375 38.5375 122.575 41.6875 122.05 44.8125C117.113 44.1125 112.188 43.4 107.25 42.675Z" fill="#F66F5D"/>
<path d="M99.175 42.7875C106.762 43.7625 114.362 44.7375 121.95 45.7C122.662 45.7875 122.662 44.6625 121.95 44.575C114.362 43.6 106.762 42.625 99.175 41.6625C98.4625 41.5625 98.4625 42.6875 99.175 42.7875Z" fill="#161616"/>
<path d="M113.675 35.4126C115.625 35.8376 117.1 37.4126 117.35 39.3001C117.575 40.9501 116.85 42.6251 115.475 43.6501C117.637 43.9376 119.812 44.2376 121.975 44.5251C122.087 43.9501 122.187 43.0751 122.05 42.0501C121.725 39.6501 120.337 38.1126 119.887 37.6501C119.4 37.1501 117.675 35.4751 115.112 35.3251C114.525 35.3001 114.025 35.3501 113.675 35.4126Z" fill="#EE4832"/>
</svg>
