<svg width="200" height="159" viewBox="0 0 200 159" fill="none" xmlns="http://www.w3.org/2000/svg">
<path fill-rule="evenodd" clip-rule="evenodd" d="M107.306 0.1265C131.713 1.89199 146.533 25.5221 159.824 46.068C171.03 63.3882 177.68 82.8733 173.965 103.165C170.022 124.705 159.901 146.738 139.803 155.431C120.342 163.849 99.9137 152.143 80.5121 143.588C59.7726 134.443 35.212 127.526 27.8785 106.079C19.9003 82.7464 29.5186 57.4425 44.3095 37.7122C59.7406 17.1278 81.6468 -1.72957 107.306 0.1265Z" fill="#E8ECFB"/>
<path d="M157.075 114.537C154.737 112.125 152.95 109.237 151.85 106.062C151.812 106.137 151.762 106.212 151.725 106.287C152.012 106.225 152.287 106.175 152.575 106.112C152.737 106.075 152.762 105.85 152.625 105.775C151.55 105.2 151.425 103.35 151.187 102.287C150.875 100.9 150.587 99.5125 150.337 98.125C149.812 95.275 149.412 92.4 149.125 89.5125C149.025 89.5625 148.937 89.625 148.837 89.675C150.925 90.9125 152.912 92.3 154.775 93.8625C156.45 95.275 158.125 96.7875 159.312 98.6375C160.587 100.6 161.2 102.975 161.575 105.25C162 107.762 162 110.325 161.4 112.812C161.337 113.05 161.7 113.15 161.762 112.912C162.7 109.125 162.225 105.087 161.025 101.412C159.862 97.9 157.237 95.3625 154.425 93.0875C152.725 91.7125 150.912 90.4625 149.037 89.35C148.925 89.2875 148.737 89.3625 148.75 89.5125C149.05 92.6 149.487 95.6625 150.062 98.7C150.35 100.212 150.662 101.725 151.025 103.212C151.262 104.225 151.425 105.55 152.437 106.1C152.45 105.987 152.462 105.875 152.487 105.762C152.2 105.825 151.925 105.875 151.637 105.937C151.537 105.962 151.475 106.075 151.512 106.162C152.637 109.4 154.45 112.337 156.837 114.8C156.987 114.975 157.25 114.712 157.075 114.537Z" fill="#E8E8E8"/>
<path d="M149.162 89.825C153.687 96.375 156.812 103.825 158.312 111.637C158.362 111.875 158.725 111.775 158.675 111.537C157.162 103.687 154.025 96.2 149.475 89.625C149.35 89.4375 149.025 89.625 149.162 89.825Z" fill="#E8E8E8"/>
<path d="M150.662 100.6C152.55 101.013 154.537 101.475 155.85 103.013C156 103.2 156.275 102.925 156.112 102.75C154.762 101.163 152.712 100.663 150.762 100.238C150.525 100.188 150.425 100.55 150.662 100.6Z" fill="#E8E8E8"/>
<path d="M155.637 100.625C155.5 98.875 155.775 97.1375 156.475 95.525C156.575 95.3 156.25 95.1125 156.15 95.3375C155.425 97.0125 155.112 98.8 155.262 100.625C155.287 100.863 155.662 100.863 155.637 100.625Z" fill="#E8E8E8"/>
<path d="M158.65 97.1875C159.55 91.5875 163.387 87.2375 167.062 83.175C166.962 83.1125 166.85 83.05 166.75 82.9875C165.887 86.075 167.912 88.9375 168.65 91.8375C169.05 93.4375 169.237 95.0875 169.275 96.7375C169.3 97.55 169.287 98.375 169.262 99.1875C169.25 99.5875 169.25 100 169.162 100.388C169.037 100.925 168.437 101.763 167.8 101.2C167.725 101.3 167.65 101.4 167.575 101.5C168.675 102.075 168.275 103.725 168.1 104.688C167.875 105.988 167.5 107.225 166.662 108.275C165.45 109.775 163.712 110.888 163.137 112.813C163.062 113.05 163.425 113.138 163.5 112.913C164.212 110.563 166.725 109.438 167.762 107.263C168.3 106.138 168.537 104.813 168.65 103.588C168.737 102.7 168.65 101.638 167.762 101.188C167.587 101.1 167.362 101.338 167.537 101.488C167.925 101.838 168.462 101.838 168.9 101.55C169.387 101.225 169.537 100.625 169.587 100.063C169.787 98.175 169.7 96.1875 169.475 94.3125C169.25 92.4375 168.75 90.675 168.05 88.9375C167.312 87.0875 166.55 85.125 167.112 83.1125C167.162 82.9375 166.925 82.7875 166.8 82.925C163.087 87.0375 159.2 91.45 158.287 97.1C158.25 97.325 158.612 97.425 158.65 97.1875Z" fill="#E8E8E8"/>
<path d="M166.325 84.2624C163.725 90.6749 162.112 97.4499 161.537 104.35C161.512 104.587 161.887 104.587 161.912 104.35C162.487 97.4874 164.1 90.7499 166.687 84.3624C166.775 84.1499 166.412 84.0499 166.325 84.2624Z" fill="#E8E8E8"/>
<path d="M130.6 103.9C133.662 104.562 136.65 103.087 139.6 102.5C142.85 101.862 146.2 101.862 149.462 102.45C149.7 102.487 149.8 102.137 149.562 102.087C146.537 101.537 143.45 101.5 140.425 101.975C138.875 102.225 137.375 102.65 135.875 103.075C134.187 103.537 132.45 103.912 130.712 103.537C130.462 103.487 130.362 103.837 130.6 103.9Z" fill="#E8E8E8"/>
<path d="M168.875 102.75C170.65 102.412 172.4 102.837 174.112 103.262C175.787 103.662 177.475 104.025 179.187 104.325C182.487 104.9 185.837 105.237 189.187 105.375C189.425 105.387 189.425 105.012 189.187 105C185.625 104.862 182.087 104.475 178.575 103.837C176.875 103.525 175.2 103.137 173.525 102.737C171.962 102.362 170.375 102.087 168.775 102.4C168.55 102.437 168.65 102.8 168.875 102.75Z" fill="#E8E8E8"/>
<path d="M27.5874 92.2749C32.0124 91.2499 36.4374 90.0624 40.9249 89.4124C45.3999 88.7749 49.9374 88.6999 54.4499 89.0874C63.1249 89.8374 71.5499 92.1124 80.0499 93.8749C84.7374 94.8499 89.4749 95.6499 94.2624 95.9749C94.4999 95.9874 94.4999 95.6124 94.2624 95.5999C85.4874 94.9999 76.9624 92.7624 68.3874 90.9374C59.8624 89.1374 51.1874 87.8374 42.4624 88.8374C37.3999 89.4249 32.4499 90.7624 27.4874 91.9124C27.2499 91.9624 27.3499 92.3249 27.5874 92.2749Z" fill="#F66F5D"/>
<path d="M63.0873 89.8249C70.4248 89.1874 77.6123 87.4624 84.7248 85.6124C91.9998 83.7124 99.2748 81.7874 106.55 79.8624C113.812 77.9499 121.062 75.9874 128.35 74.1249C131.975 73.1999 135.637 72.3624 139.362 72.0124C142.95 71.6749 146.575 71.7249 150.162 72.0624C158.537 72.8374 166.687 75.0749 174.775 77.2999C175.012 77.3624 175.112 76.9999 174.875 76.9374C167.762 74.9749 160.612 73.0124 153.275 72.0374C149.625 71.5499 145.925 71.2999 142.237 71.4499C138.612 71.5874 135.037 72.1624 131.5 72.9624C127.9 73.7874 124.337 74.7749 120.762 75.7249C117.112 76.6874 113.462 77.6499 109.812 78.6124C102.437 80.5499 95.0498 82.4999 87.6748 84.4374C79.5873 86.5624 71.4498 88.7124 63.0873 89.4374C62.8498 89.4749 62.8498 89.8499 63.0873 89.8249Z" fill="#F66F5D"/>
<path d="M42.95 112.3C46 112.413 49.0625 112.525 52.1125 112.638C55.0875 112.75 58.075 112.925 61.05 112.95C63.95 112.975 66.75 112.413 69.6 111.9C72.575 111.363 75.5875 110.975 78.6 110.763C81.9625 110.513 85.3375 110.475 88.7 110.613C88.9375 110.625 88.9375 110.25 88.7 110.238C82.8 109.988 76.8875 110.325 71.0625 111.275C68.0875 111.763 65.1375 112.513 62.125 112.575C59.175 112.65 56.1875 112.425 53.2375 112.313C49.8125 112.188 46.3875 112.063 42.9625 111.938C42.7125 111.913 42.7125 112.288 42.95 112.3Z" fill="#F66F5D"/>
<path d="M36.8125 128.675C37 128.812 37.1875 128.937 37.375 129.075C37.55 129.2 37.75 128.925 37.6 128.775C37.025 128.175 36.4625 127.587 35.8875 126.987C35.625 126.712 35.3125 126.462 35.1 126.15C34.775 125.675 35.1125 125.45 35.1875 125.062C35.275 124.662 34.875 124.437 34.65 124.187C34.15 123.65 33.825 122.975 33.575 122.287C32.5375 119.45 32.175 116.25 32.075 113.25C32.0125 113.312 31.95 113.375 31.8875 113.437C35.0375 113.15 36.8625 116.125 37.9125 118.637C39.0875 121.425 40.1625 124.337 40.3 127.4C40.3125 127.637 40.6875 127.637 40.675 127.4C40.525 124.125 39.35 120.95 38.025 117.975C36.925 115.487 34.9375 112.775 31.875 113.05C31.775 113.062 31.6875 113.125 31.6875 113.237C31.75 114.85 31.9 116.45 32.1625 118.037C32.425 119.587 32.725 121.187 33.3 122.65C33.5125 123.187 33.775 123.7 34.125 124.15C34.375 124.462 34.8 124.737 34.65 125.2C34.5875 125.387 34.4625 125.487 34.475 125.712C34.5 126.262 35.1 126.712 35.4375 127.062C36.0625 127.712 36.7 128.375 37.325 129.025C37.4 128.925 37.475 128.825 37.55 128.725C37.3625 128.587 37.175 128.462 36.9875 128.325C36.8 128.212 36.6125 128.537 36.8125 128.675Z" fill="#F66F5D"/>
<path d="M39.1375 120.163C40.225 117.313 42.1375 114.825 44.625 113.063C44.5375 113.038 44.45 113.013 44.3625 113C45.0625 114.6 45.5375 116.275 45.7875 118C45.825 117.925 45.875 117.85 45.9125 117.775C45.6125 117.863 45.3125 117.95 45 118.038C44.875 118.075 44.8375 118.2 44.8875 118.313C45.2375 119.15 45.625 120.1 45.2375 120.988C44.9125 121.725 44.2125 122.275 43.725 122.888C42.8375 123.988 42.15 125.213 41.625 126.513C41.5375 126.738 41.9 126.838 41.9875 126.613C42.6875 124.85 43.7375 123.45 44.975 122.038C45.425 121.525 45.7625 120.963 45.7875 120.263C45.8125 119.513 45.5 118.8 45.2125 118.125C45.175 118.213 45.1375 118.313 45.1 118.4C45.4 118.313 45.7 118.225 46.0125 118.138C46.1125 118.113 46.1625 118.013 46.1375 117.913C45.875 116.15 45.3875 114.45 44.675 112.813C44.6375 112.725 44.5 112.688 44.4125 112.75C41.8375 114.588 39.875 117.125 38.75 120.075C38.7 120.288 39.05 120.388 39.1375 120.163Z" fill="#F66F5D"/>
<path d="M33.1874 115.275C36.3749 118.937 38.4499 123.5 39.0874 128.312C39.1249 128.55 39.4999 128.55 39.4624 128.312C38.7999 123.387 36.7124 118.75 33.4499 115C33.2874 114.825 33.0249 115.087 33.1874 115.275Z" fill="#F66F5D"/>
<path d="M40.8375 124.112C41.425 122.037 42.25 120.05 43.3125 118.162C43.425 117.95 43.1125 117.762 42.9875 117.975C41.9125 119.887 41.075 121.912 40.475 124.012C40.4 124.25 40.7625 124.35 40.8375 124.112Z" fill="#F66F5D"/>
<path d="M33.3125 108.462C37.6875 107.612 42.1625 107.287 46.5625 108.125C48.6125 108.512 50.6375 108.962 52.7125 109.2C54.9 109.45 57.1125 109.55 59.3125 109.637C59.55 109.65 59.55 109.275 59.3125 109.262C57.1125 109.162 54.9 109.075 52.7125 108.825C50.4375 108.562 48.2125 108.025 45.95 107.637C41.725 106.912 37.3875 107.3 33.2125 108.112C32.975 108.15 33.075 108.512 33.3125 108.462Z" fill="#F66F5D"/>
<path d="M49.7998 123.325C52.2998 122.925 54.7998 122.513 57.3248 122.363C59.8873 122.213 62.3623 122.425 64.8748 122.888C67.1748 123.313 69.3998 123.513 71.7498 123.463C74.1873 123.4 76.6498 123.288 79.0248 123.925C79.2623 123.988 79.3623 123.625 79.1248 123.563C76.8248 122.938 74.4623 123.013 72.0998 123.075C70.8498 123.113 69.5873 123.125 68.3373 123.025C67.0498 122.925 65.7748 122.663 64.5123 122.438C62.0873 122 59.6748 121.838 57.1998 121.988C54.6873 122.15 52.1873 122.55 49.6998 122.95C49.4623 123 49.5623 123.363 49.7998 123.325Z" fill="#E8E8E8"/>
<path d="M118.512 126.313C123.2 125.638 127.912 125.238 132.65 125.138C137.262 125.038 141.875 125.225 146.487 125.325C146.725 125.325 146.725 124.95 146.487 124.95C141.8 124.85 137.1 124.663 132.4 124.775C127.712 124.888 123.05 125.288 118.412 125.95C118.175 125.988 118.275 126.338 118.512 126.313Z" fill="#E8E8E8"/>
<path d="M139.287 129C141.075 128.237 143 129.162 144.837 129.075C145.225 129.05 145.625 129 146 128.875C146.512 128.7 146.987 128.425 147.537 128.4C148.487 128.35 149.375 128.712 150.325 128.562C150.562 128.525 150.462 128.162 150.225 128.2C149.162 128.375 148.125 127.85 147.075 128.087C146.6 128.187 146.175 128.437 145.712 128.575C145.237 128.7 144.75 128.725 144.262 128.712C142.525 128.637 140.787 127.975 139.087 128.7C138.887 128.762 139.075 129.087 139.287 129Z" fill="#E8E8E8"/>
<path d="M164.575 115.188C167.725 114.25 170.875 114.275 174.1 114.663C177.137 115.025 180.2 115.5 183.25 114.963C183.487 114.925 183.387 114.563 183.15 114.6C179.975 115.163 176.787 114.588 173.625 114.238C170.512 113.888 167.475 113.925 164.462 114.838C164.25 114.9 164.337 115.263 164.575 115.188Z" fill="#E8E8E8"/>
<path d="M152.012 43.7124C149.687 42.4624 148.175 40.0374 148.525 37.3499C148.837 34.8874 150.812 32.7624 153.225 32.1874C155.687 31.6124 158.437 32.7749 159.775 34.9124C161.212 37.1999 160.9 40.2249 159.137 42.2499C157.137 44.5499 153.637 44.8999 151.112 43.2749C150.912 43.1374 150.725 43.4624 150.925 43.5999C153.275 45.1249 156.525 45.0249 158.7 43.2124C160.862 41.4124 161.662 38.2874 160.587 35.6749C159.562 33.1874 156.937 31.5624 154.25 31.6749C151.6 31.7999 149.2 33.7124 148.4 36.2249C147.4 39.3374 149.075 42.5374 151.837 44.0249C152.037 44.1499 152.225 43.8249 152.012 43.7124Z" fill="#E8E8E8"/>
<path d="M44.1249 71.05C45.3999 69.9125 47.1874 70.6875 48.1374 71.8375C48.6249 72.425 48.9124 73.0875 49.2874 73.7375C49.5249 74.175 49.8749 74.6125 50.3999 74.7125C50.8124 74.7875 51.1499 74.6375 51.4249 74.3375C51.5999 74.1375 51.7124 73.875 51.8874 73.675C52.2624 73.2375 52.7499 73.2875 53.1499 73.6375C54.0249 74.4 54.0624 76.2875 55.5999 76.15C55.8374 76.125 55.8374 75.75 55.5999 75.775C53.9999 75.925 54.1874 73.2375 52.6499 72.975C52.1999 72.9 51.8374 73.1 51.5624 73.45C51.3874 73.675 51.2749 73.9875 51.0499 74.175C50.3999 74.7125 49.8249 73.9625 49.5624 73.45C48.9249 72.275 48.2999 71.05 47.0374 70.4375C45.9999 69.9375 44.7374 69.9875 43.8624 70.775C43.6874 70.9375 43.9499 71.2125 44.1249 71.05Z" fill="#E8E8E8"/>
<path d="M128.262 54.225C128.012 53.55 127.712 52.75 128.162 52.0875C128.575 51.5 129.275 51.8 129.862 51.6125C130.637 51.3625 131.112 50.6 131.325 49.8625C131.575 49 131.275 47.875 131.787 47.1125C132.412 46.175 133.762 47.325 134.612 46.75C134.812 46.6125 134.625 46.2875 134.425 46.425C133.562 47.0125 132.387 45.8125 131.575 46.775C130.925 47.5375 131.225 48.7 131.012 49.6C130.862 50.225 130.525 50.8875 129.937 51.1875C129.425 51.45 128.837 51.1875 128.325 51.45C127.225 52.0125 127.575 53.4125 127.912 54.325C127.975 54.5375 128.337 54.45 128.262 54.225Z" fill="#E8E8E8"/>
<path d="M129.612 45.4625C129.375 44.8375 129.512 44.125 129.975 43.625C130.55 43 131.212 43.25 131.925 43C132.35 42.85 132.6 42.4875 132.762 42.0875C132.862 41.8375 132.925 41.575 133.012 41.325C133.087 41.125 133.175 40.9 133.325 40.75C133.55 40.5375 134.087 40.3625 134.225 40.8375C134.3 41.0625 134.65 40.975 134.587 40.7375C134.425 40.2125 133.812 40.025 133.337 40.275C132.437 40.7375 132.762 42.1125 131.925 42.575C131.462 42.825 130.887 42.675 130.4 42.875C130.087 43.0125 129.812 43.2375 129.6 43.5C129.137 44.0875 128.987 44.8625 129.25 45.5625C129.325 45.7875 129.687 45.6875 129.612 45.4625Z" fill="#E8E8E8"/>
<path d="M140.138 58.8124C139.763 58.2749 139.875 57.5124 140.363 57.0624C140.925 56.5374 141.738 56.7749 142.125 57.3749C143.013 58.7124 141.05 59.8875 140.113 58.775C139.95 58.5875 139.688 58.8624 139.85 59.0374C140.388 59.6749 141.388 59.7499 142.075 59.2999C142.85 58.7999 142.913 57.7874 142.375 57.0749C141.85 56.3749 140.875 56.1375 140.175 56.7125C139.513 57.25 139.313 58.2749 139.813 58.9874C139.95 59.1999 140.275 59.0124 140.138 58.8124Z" fill="#E8E8E8"/>
<path d="M141.55 60.8875C141.2 60.4 140.762 59.8125 140.912 59.1875C141.137 58.2625 142.237 58.5 142.737 59.05C143.15 59.5125 143.3 60.2375 142.775 60.675C142.375 61.0125 141.762 61.075 141.4 60.675C141.237 60.5 140.975 60.7625 141.137 60.9375C141.637 61.475 142.487 61.425 143.025 60.9625C143.662 60.4125 143.587 59.5 143.087 58.8875C142.587 58.2625 141.45 57.8125 140.825 58.525C140.125 59.325 140.712 60.3625 141.225 61.075C141.362 61.275 141.687 61.0875 141.55 60.8875Z" fill="#E8E8E8"/>
<path d="M57.4874 86.9375C58.8874 87.3625 60.3124 87.6125 61.7624 87.6625C61.9999 87.675 61.9999 87.3 61.7624 87.2875C60.3374 87.2375 58.9374 87 57.5874 86.575C57.3499 86.5 57.2499 86.8625 57.4874 86.9375Z" fill="#E8E8E8"/>
<path d="M151.237 76.9374C159.737 76.8749 167.737 80.0499 175.762 82.3999C178.062 83.0749 180.387 83.6874 182.737 84.1499C182.975 84.1999 183.075 83.8374 182.837 83.7874C174.5 82.1374 166.637 78.5999 158.25 77.1624C155.937 76.7624 153.587 76.5374 151.237 76.5624C151 76.5624 151 76.9374 151.237 76.9374Z" fill="#F66F5D"/>
<path d="M67.675 22.7375C68.1125 23.7875 68.65 26.1125 70.225 25.075C70.75 24.7375 71.525 23.75 72.0875 24.55C72.425 25.025 72.45 25.65 73.0875 25.8625C73.3125 25.9375 73.4125 25.575 73.1875 25.5C72.6 25.3 72.6 24.4 72.125 24.0375C71.8125 23.8 71.425 23.8125 71.0875 23.9875C70.5875 24.225 70.225 24.7625 69.7 24.9375C68.7625 25.25 68.2875 23.2375 68.0375 22.6375C67.9375 22.425 67.575 22.5125 67.675 22.7375Z" fill="#E8E8E8"/>
<path d="M71.5623 22.9625C72.2623 22.425 73.2873 22.675 73.6373 23.4875C73.8498 24 74.0123 24.3 74.6123 24.3375C74.8998 24.35 75.2123 24.25 75.4998 24.3C76.0998 24.4 76.0998 24.925 76.1998 25.4125C76.2998 25.9 76.5248 26.325 77.0498 26.3875C77.2873 26.4125 77.2873 26.0375 77.0498 26.0125C76.3623 25.9375 76.6498 24.525 76.1123 24.125C75.5373 23.7 74.6748 24.2625 74.2248 23.7375C74.0123 23.4875 73.9498 23.15 73.7248 22.9C73.5498 22.6875 73.3123 22.5375 73.0498 22.4375C72.4873 22.2125 71.8623 22.2875 71.3873 22.65C71.1748 22.7875 71.3623 23.1125 71.5623 22.9625Z" fill="#E8E8E8"/>
<path d="M82.8123 34.75C83.5998 34.9125 84.4373 34.4125 84.6498 33.6125C84.8498 32.8625 84.3623 32.15 83.6498 31.9125C81.9873 31.35 81.0623 33.6375 82.4123 34.575C82.6123 34.7125 82.7998 34.3875 82.5998 34.25C81.6498 33.5875 82.2373 31.925 83.4498 32.2375C83.9748 32.375 84.4123 32.85 84.3123 33.4125C84.1998 34.05 83.5498 34.5125 82.9123 34.375C82.6748 34.3375 82.5748 34.7 82.8123 34.75Z" fill="#E8E8E8"/>
<path d="M84.0247 35.3875C83.7247 35.15 83.3622 34.8874 83.2372 34.4999C83.0622 33.9749 83.5622 33.3499 84.1497 33.4999C84.5622 33.6124 84.8497 34.0875 84.7497 34.5125C84.6247 34.9875 84.0872 35.2249 83.6372 35.1124C83.3997 35.0499 83.2997 35.4124 83.5372 35.4749C84.1497 35.6249 84.8247 35.3374 85.0747 34.7374C85.3122 34.1499 84.9872 33.4374 84.4122 33.1874C83.8372 32.9499 83.1747 33.2624 82.9247 33.8124C82.5747 34.5749 83.2122 35.2124 83.7747 35.6499C83.9372 35.7999 84.2122 35.5375 84.0247 35.3875Z" fill="#E8E8E8"/>
<path d="M59.0875 60.075C58.5125 59.5625 58.4 58.7875 58.9625 58.2125C59.45 57.725 60.175 57.7375 60.6375 58.25C61.6 59.325 60.2125 60.725 59.075 59.9875C58.875 59.85 58.6875 60.175 58.8875 60.3125C59.5625 60.75 60.4875 60.6 61.0125 60C61.55 59.375 61.3875 58.4375 60.8125 57.8875C60.2 57.3125 59.2875 57.35 58.7 57.9375C57.9875 58.65 58.1 59.6875 58.825 60.3375C59 60.5 59.2625 60.2375 59.0875 60.075Z" fill="#E8E8E8"/>
<path d="M112.375 24.7375C113.1 23.15 114.112 21.7375 115.362 20.525C115.537 20.3625 115.275 20.0875 115.1 20.2625C113.825 21.5 112.8 22.9375 112.05 24.5625C111.95 24.7625 112.275 24.9625 112.375 24.7375Z" fill="#E8E8E8"/>
<path d="M113.937 24.4875C114.687 23.5625 115.525 22.7 116.425 21.9125C116.612 21.75 116.337 21.4875 116.162 21.65C115.262 22.4375 114.437 23.3 113.675 24.225C113.525 24.4125 113.787 24.675 113.937 24.4875Z" fill="#E8E8E8"/>
<path d="M114.888 25.6124C115.225 25.3249 115.563 25.0499 115.9 24.7624C116.088 24.6124 115.813 24.3374 115.638 24.4999C115.3 24.7874 114.963 25.0624 114.625 25.3499C114.438 25.4999 114.7 25.7624 114.888 25.6124Z" fill="#E8E8E8"/>
<path d="M132.575 26.7125C133.583 26.7125 134.4 25.8954 134.4 24.8875C134.4 23.8796 133.583 23.0625 132.575 23.0625C131.567 23.0625 130.75 23.8796 130.75 24.8875C130.75 25.8954 131.567 26.7125 132.575 26.7125Z" fill="black"/>
<path d="M131.737 29.55C132.338 29.55 132.825 29.0631 132.825 28.4625C132.825 27.8619 132.338 27.375 131.737 27.375C131.137 27.375 130.65 27.8619 130.65 28.4625C130.65 29.0631 131.137 29.55 131.737 29.55Z" fill="black"/>
<path d="M74.1251 78.0374C74.8638 78.0374 75.4626 77.4386 75.4626 76.6999C75.4626 75.9612 74.8638 75.3624 74.1251 75.3624C73.3864 75.3624 72.7876 75.9612 72.7876 76.6999C72.7876 77.4386 73.3864 78.0374 74.1251 78.0374Z" fill="black"/>
<path d="M76.3 81.7C76.7073 81.7 77.0375 81.3698 77.0375 80.9625C77.0375 80.5552 76.7073 80.225 76.3 80.225C75.8927 80.225 75.5625 80.5552 75.5625 80.9625C75.5625 81.3698 75.8927 81.7 76.3 81.7Z" fill="black"/>
<path d="M89.3249 61.5125C89.4374 62.6 89.7874 63.5625 91.0249 63.5375C91.4499 63.5375 91.8124 63.4125 92.1374 63.7375C92.4374 64.0375 92.3499 64.3375 92.4749 64.7125C92.5374 64.9 92.6249 65.075 92.7999 65.2C93.0249 65.3625 93.8749 65.3625 93.7999 65.7375C93.7499 65.975 94.1124 66.075 94.1624 65.8375C94.2499 65.4125 93.9624 65.1625 93.5624 65.05C92.9874 64.8875 92.8499 64.6625 92.7624 64.15C92.7249 63.9125 92.6749 63.675 92.5124 63.475C92.1874 63.0875 91.6624 63.1375 91.2124 63.15C90.7249 63.175 90.2624 63.1375 89.9999 62.6625C89.7999 62.3125 89.7499 61.8875 89.7124 61.5C89.6749 61.275 89.2999 61.275 89.3249 61.5125Z" fill="black"/>
<path d="M90.6 66.1125C91.25 65.425 92.025 66.125 92.225 66.8125C92.3125 67.0875 92.325 67.35 92.525 67.5625C92.975 68.0625 93.8 67.7875 94.2125 68.3125C94.3625 68.5 94.625 68.2375 94.475 68.05C94.2 67.7 93.8125 67.65 93.4 67.5625C93.0125 67.475 92.8 67.3375 92.65 66.95C92.55 66.7125 92.5375 66.4625 92.4 66.225C91.975 65.4625 90.975 65.1625 90.3375 65.8375C90.1625 66.025 90.425 66.2875 90.6 66.1125Z" fill="black"/>
<path d="M135 64.85C134.763 64.4 135.263 64.0625 135.638 64.3375C135.75 64.4125 135.925 64.3125 135.925 64.175C135.888 63.75 136.313 63.4375 136.713 63.5875C136.938 63.675 137.038 63.3125 136.813 63.225C136.188 62.9875 135.5 63.5125 135.55 64.175C135.65 64.125 135.738 64.0625 135.838 64.0125C135.125 63.5 134.288 64.2875 134.688 65.0375C134.788 65.25 135.113 65.0625 135 64.85Z" fill="black"/>
<path d="M137.125 64.65C137.037 64.4375 137.637 64.4 137.737 64.4C138.05 64.4125 138.35 64.4625 138.662 64.4875C138.9 64.5125 138.9 64.1375 138.662 64.1125C138.175 64.0625 137.625 63.925 137.15 64.125C136.837 64.2625 136.662 64.5125 136.8 64.8375C136.887 65.0625 137.212 64.8625 137.125 64.65Z" fill="black"/>
<path d="M71.9877 79.65C72.8023 79.65 73.4627 78.9896 73.4627 78.175C73.4627 77.3603 72.8023 76.7 71.9877 76.7C71.1731 76.7 70.5127 77.3603 70.5127 78.175C70.5127 78.9896 71.1731 79.65 71.9877 79.65Z" fill="#F66F5D"/>
<path d="M85.9499 24.3624C87.0476 24.3624 87.9374 23.4726 87.9374 22.375C87.9374 21.2773 87.0476 20.3875 85.9499 20.3875C84.8522 20.3875 83.9624 21.2773 83.9624 22.375C83.9624 23.4726 84.8522 24.3624 85.9499 24.3624Z" fill="#F66F5D"/>
<path d="M49.9251 101.2C51.3127 101.2 52.4376 100.075 52.4376 98.6874C52.4376 97.2998 51.3127 96.1749 49.9251 96.1749C48.5375 96.1749 47.4126 97.2998 47.4126 98.6874C47.4126 100.075 48.5375 101.2 49.9251 101.2Z" fill="#F66F5D"/>
<path d="M135.687 92.3375C136.398 92.3375 136.975 91.761 136.975 91.05C136.975 90.3389 136.398 89.7625 135.687 89.7625C134.976 89.7625 134.4 90.3389 134.4 91.05C134.4 91.761 134.976 92.3375 135.687 92.3375Z" fill="#F66F5D"/>
<path d="M121.362 121.625C124.012 120.987 126.675 120.337 129.325 119.7C131.025 119.825 133.55 119.862 136.55 119.362C139.4 118.887 144.862 117.55 144.825 116.075C144.8 115.1 142.362 114.4 138.337 113.237C135.675 112.475 133.437 112.025 131.95 111.762C130.3 112.575 128.525 113.375 126.612 114.137C124.025 115.175 121.562 115.987 119.275 116.625C119.962 118.3 120.662 119.962 121.362 121.625Z" fill="#161616" stroke="#161616" stroke-miterlimit="10"/>
<path d="M114.812 119.087C117.462 118.45 120.125 117.8 122.775 117.162C124.475 117.287 127 117.325 130 116.825C132.85 116.35 138.312 115.012 138.275 113.537C138.25 112.562 135.812 111.862 131.787 110.7C129.125 109.937 126.887 109.487 125.4 109.225C123.75 110.037 121.975 110.837 120.062 111.6C117.475 112.637 115.012 113.45 112.725 114.087C113.412 115.775 114.112 117.437 114.812 119.087Z" fill="#161616" stroke="#161616" stroke-miterlimit="10"/>
<path d="M101.137 96C98.7748 97.275 96.7373 98.6875 96.3873 98.925C95.1873 99.7625 92.3873 101.725 89.6123 104.588C85.5123 108.813 82.0623 112.363 82.2873 116.863C82.4873 120.913 85.5498 123.725 85.8873 124.025C91.3498 128.9 103.025 127.125 114.812 119.613C114.387 117.375 113.975 115.15 113.55 112.912C114.6 112.7 116.975 112.063 119.137 110.025C121.825 107.488 122.425 104.412 122.575 103.412C122.562 102.275 122.425 100.938 122.037 99.4875C120.85 95.0375 118.025 92.225 116.525 90.9375C112.637 91.6125 106.787 92.975 101.137 96Z" fill="white" stroke="#161616" stroke-miterlimit="10"/>
<path d="M110.075 98.3375C107.675 99.6375 105.537 101.113 105.325 101.263C102.225 103.425 100.037 105.5 98.5499 106.925C93.2374 112.025 89.4624 115.488 89.9624 119.688C90.4499 123.725 94.4874 126.163 94.8249 126.35C97.1874 127.725 99.5874 127.763 101.512 127.663C110.162 127.213 119.862 123.525 123.75 121.938C123.325 119.7 122.912 117.475 122.487 115.238C123.537 114.888 126.512 113.713 128.475 110.613C128.775 110.138 129.825 108.4 130.112 105.913C130.2 105.2 130.3 103.7 129.512 100.588C129.025 98.6625 128.15 95.975 126.512 92.925C123.062 93.5375 116.325 94.9625 110.075 98.3375Z" fill="white" stroke="#161616" stroke-miterlimit="10"/>
<path d="M108.937 117.625C113.575 117.738 118.2 117.038 122.587 115.55C122.812 115.475 122.712 115.113 122.487 115.188C118.125 116.675 113.55 117.375 108.937 117.25C108.7 117.238 108.7 117.613 108.937 117.625Z" fill="#161616"/>
<path d="M107.725 116.312C108.037 116.85 108.512 117.275 109.087 117.512C109.312 117.6 109.5 117.287 109.275 117.187C108.75 116.962 108.337 116.612 108.05 116.125C107.925 115.912 107.6 116.1 107.725 116.312Z" fill="#161616"/>
<path opacity="0.12" d="M115.6 107.05C111.25 109.487 109 109.087 104.675 112.462C103.55 113.35 96.9747 118.487 97.8122 123.7C97.8872 124.137 98.2747 126.587 100.1 127.55C100.875 127.962 101.637 127.937 102.7 127.862C106.262 127.587 109.012 126.912 109.35 126.825C113.725 125.737 112.987 126.187 116 125.375C117.987 124.837 120.675 123.987 123.8 122.675C123.387 120.487 122.962 118.312 122.55 116.125C123.462 115.7 124.712 114.987 125.987 113.837C126.912 113 129.55 110.625 130.15 106.875C130.475 104.862 130.075 103.325 129.425 100.837C128.762 98.3 127.837 96.325 127.137 95.0125C123.237 101.85 118.862 105.237 115.6 107.05Z" fill="#3D3D3D"/>
<path opacity="0.11" d="M110.925 96.2625C110.75 95.9625 105.25 98.4625 98.9625 103.025C91.1875 108.663 86.875 112 86.6875 116.75C86.475 122.288 94.0625 126.913 94.3875 126.625C94.5625 126.463 89.9875 123.3 89.9125 118.725C89.8625 115.738 91.7625 113.375 95.1125 109.988C103.675 101.325 111.137 96.625 110.925 96.2625Z" fill="#3D3D3D"/>
<path opacity="0.12" d="M128.6 98.975C128.025 101.25 126.837 104.612 124.237 107.925C118.7 114.962 110.837 116.587 108.537 116.975C108.925 117.35 109.3 117.775 109.687 118.225C111.762 120.725 112.787 123.4 113.325 125.5C116.725 124.325 120.125 123.137 123.512 121.962C122.987 119.887 122.475 117.8 121.95 115.725C123.025 115.287 124.775 114.4 126.425 112.712C127.112 112 128.775 110.262 129.55 107.512C130.675 103.437 129.1 99.9625 128.6 98.975Z" fill="#3D3D3D"/>
<path d="M101.575 62.7C102.625 62.85 103.075 65.9875 103.225 67.025C103.837 71.2375 102.537 73.125 102.337 78.2875C102.175 82.3875 102.925 82.575 102.587 84.575C102.087 87.5 99.775 91.25 91.5625 94.65C90.95 95.3125 89.8625 96.35 88.2875 97.0125C84.975 98.4125 80.625 97.6875 80.0375 95.675C79.8375 95 80.025 94.0625 80.4875 93.625C81.2375 92.9 82.3875 93.9375 84.2875 93.25C84.3875 93.2125 85.2375 92.9 85.2125 92.675C85.2 92.5375 84.875 92.4875 84.4875 92.4375C82.725 92.1875 82.2 92.2375 82.1625 92.0875C82.1 91.8375 83.45 90.975 85.2 90.475C86.55 90.0875 88.375 89.75 90.625 89.8625C92.5875 87.65 94.5625 85.4375 96.525 83.225C96.3375 80.375 96.375 76.3125 97.45 71.7C98.2375 68.35 100.1 62.4875 101.575 62.7Z" fill="white" stroke="#161616" stroke-miterlimit="10"/>
<path opacity="0.12" d="M101.625 62.6375C100.088 62.6625 98.7001 68.775 98.4126 73.1125C98.0501 78.6 99.4876 80.3125 98.4126 83.675C97.7001 85.9 95.9001 88.7625 91.0626 91.3625C87.2501 94.55 84.7126 94.8875 83.0376 94.4875C82.0126 94.25 80.7376 93.5875 80.1626 94.15C79.6751 94.625 79.9001 95.7999 80.4126 96.5999C81.6376 98.4624 85.3251 98.0125 87.4251 97.275C89.3751 96.5875 90.6626 95.3874 91.4001 94.5749C93.1126 94.1124 97.1126 92.775 100.438 89C103.675 85.325 104.438 81.4124 104.825 79.2874C106.313 71.1999 103.5 62.6 101.625 62.6375Z" fill="#3D3D3D"/>
<path d="M120.588 55.45C125.038 56.3875 128.413 60.15 129.875 63.6125C131.488 67.4125 130.55 70.3875 129.65 76.675C129.038 80.9875 128.375 87.2 128.375 94.9625C127.025 95.9875 120.638 100.662 111.938 99.475C106.413 98.725 102.638 95.9875 100.975 94.6C101.25 92.6 101.525 89.5 101.2 85.75C100.725 80.475 99.4502 78.4125 99.2127 74.2375C99.0627 71.6 99.2877 67.7125 101.313 62.8375C102.45 62.0625 104.063 61.0375 106.075 59.9625C112.325 56.625 116.238 54.5375 120.588 55.45Z" fill="#F66F5D"/>
<path opacity="0.14" d="M116.262 61.2875C117.412 64.3625 119.038 70.0625 118.175 77.1125C116.738 88.825 109.4 96.0625 107.125 98.1375C108.95 98.8625 112.725 100.062 117.537 99.5125C122.975 98.8875 126.7 96.3625 128.262 95.1625C128.125 89.9625 128.438 85.6375 128.788 82.425C129.863 72.75 131.8 69.2625 129.738 63.95C129.25 62.6875 127.612 58.4625 123.475 56.5125C122.387 56 121.4 55.775 120.713 55.6625C120.463 56.55 119.888 58.1375 118.488 59.5875C117.713 60.4125 116.9 60.9375 116.262 61.2875Z" fill="#3D3D3D"/>
<path opacity="0.21" d="M130.175 65.75C126.888 74.675 123.588 83.5875 120.3 92.5125C117.438 94.85 114.563 97.1875 111.7 99.525C113.838 99.7125 117.238 99.725 121.15 98.575C124.4 97.6125 126.863 96.1875 128.475 95.075C128.438 93.75 128.413 91.8 128.475 89.45C128.65 83.55 128.725 80.6 129.538 77.025C130.288 73.725 131.3 71.2125 130.6 67.4625C130.463 66.7125 130.3 66.125 130.175 65.75Z" fill="#3D3D3D"/>
<path d="M77.2124 91.5626C78.6999 95.1626 80.1999 98.7626 81.6874 102.35C87.7374 100.25 93.7999 98.1376 99.8499 96.0376C98.3999 92.5751 96.9499 89.1001 95.5124 85.6376C89.4124 87.6126 83.3124 89.5876 77.2124 91.5626Z" fill="white" stroke="#161616" stroke-width="0.5" stroke-miterlimit="10"/>
<path d="M75.2622 79.6625C77.2872 81.1375 79.7122 83.2 82.0997 85.975C84.0372 88.225 85.4872 90.4125 86.5747 92.2875C88.9497 88.6 91.3122 84.9125 93.6872 81.2375C90.9247 78.1625 88.1622 75.1 85.3997 72.025C82.0122 74.575 78.6372 77.1125 75.2622 79.6625Z" fill="white" stroke="#161616" stroke-width="0.5" stroke-miterlimit="10"/>
<path d="M64.3125 62.5125C64.3125 65.8875 64.3125 69.2625 64.3125 72.65C66.9 71.375 69.4875 70.1 72.075 68.8375C73.7875 68 75.5 67.1625 77.2125 66.3375C76.725 63.875 76.25 61.425 75.7625 58.9625C71.95 60.1375 68.1375 61.325 64.3125 62.5125Z" fill="white" stroke="#161616" stroke-width="0.5" stroke-miterlimit="10"/>
<path d="M56.7749 40.9626C58.0499 43.9876 59.3249 47.0125 60.5874 50.0375C65.0999 47.45 69.6249 44.8626 74.1374 42.2751C72.2499 38.6751 70.3624 35.075 68.4749 31.4875C67.2874 32.8625 65.8499 34.3501 64.1374 35.8251C61.5249 38.1001 58.9624 39.7501 56.7749 40.9626Z" fill="white" stroke="#161616" stroke-width="0.5" stroke-miterlimit="10"/>
<path d="M38.0874 44.9125C37.6874 47.2375 37.2999 49.5625 36.8999 51.8875C41.4999 50.8375 46.1124 49.7875 50.7124 48.725C50.6249 46.175 50.5374 43.6375 50.4499 41.0875C46.3374 42.3625 42.2124 43.6375 38.0874 44.9125Z" fill="white" stroke="#161616" stroke-width="0.5" stroke-miterlimit="10"/>
<path d="M77.3497 91.8751C81.6747 92.5126 85.9622 93.3126 90.2122 94.2751C90.4497 94.3251 90.5497 93.9626 90.3122 93.9126C86.0497 92.9501 81.7622 92.1376 77.4497 91.5126C77.2122 91.4876 77.1122 91.8501 77.3497 91.8751Z" fill="#161616"/>
<path d="M95.2625 85.8126C93.875 88.7001 92.1875 91.4376 90.225 93.9626C90.075 94.1501 90.3375 94.4126 90.4875 94.2251C92.475 91.6751 94.1875 88.9126 95.5875 86.0001C95.6875 85.7876 95.3625 85.6001 95.2625 85.8126Z" fill="#161616"/>
<path d="M78.3626 80.4126C80.4626 78.1876 82.8001 76.2001 85.3501 74.5001C85.5501 74.3626 85.3626 74.0376 85.1626 74.1751C82.5876 75.9001 80.2251 77.9001 78.1001 80.1501C77.9251 80.3126 78.2001 80.5876 78.3626 80.4126Z" fill="#161616"/>
<path d="M80.1747 81.5376C81.7497 79.8001 83.4872 78.2251 85.3622 76.8376C85.5497 76.7001 85.3622 76.3751 85.1747 76.5126C83.2622 77.9251 81.4997 79.5126 79.9122 81.2751C79.7372 81.4501 79.9997 81.7126 80.1747 81.5376Z" fill="#161616"/>
<path d="M81.7497 83.6375C83.7872 81.35 86.0247 79.2375 88.4497 77.35C88.6372 77.2 88.3747 76.9375 88.1872 77.0875C85.7747 78.975 83.5247 81.075 81.4872 83.375C81.3247 83.55 81.5997 83.8125 81.7497 83.6375Z" fill="#161616"/>
<path d="M84.4249 86.1751C85.1374 85.0251 86.0874 84.0501 87.0249 83.0751C88.0499 82.0376 89.0749 80.9876 90.0999 79.9501C90.2749 79.7751 89.9999 79.5126 89.8374 79.6876C88.7624 80.7876 87.6874 81.8751 86.6124 82.9751C85.6874 83.9126 84.7999 84.8751 84.0999 85.9876C83.9749 86.1876 84.2999 86.3751 84.4249 86.1751Z" fill="#161616"/>
<path d="M81.1873 97.05C81.4123 98.075 81.7873 99.0375 82.2998 99.9375C82.4123 100.15 82.7373 99.9625 82.6248 99.75C82.1248 98.8625 81.7623 97.9375 81.5498 96.95C81.4998 96.7125 81.1373 96.8125 81.1873 97.05Z" fill="#161616"/>
<path d="M81.4874 97.275C82.7374 96.525 84.0874 96.0625 85.5249 95.8625C85.4499 95.825 85.3749 95.775 85.2999 95.7375C85.5499 96.55 85.7874 97.35 86.0374 98.1625C86.1124 98.3875 86.4749 98.3 86.3999 98.0625C86.1499 97.25 85.9124 96.45 85.6624 95.6375C85.6249 95.525 85.5374 95.4875 85.4374 95.5125C83.9624 95.7125 82.5874 96.2 81.3124 96.9625C81.0874 97.075 81.2749 97.4 81.4874 97.275Z" fill="#161616"/>
<path d="M82.5374 100.088C83.7249 99.6001 84.8874 99.0501 86.0374 98.4626C86.2499 98.3501 86.0624 98.0251 85.8499 98.1376C84.7374 98.7126 83.5999 99.2376 82.4374 99.7251C82.2124 99.8251 82.3124 100.188 82.5374 100.088Z" fill="#161616"/>
<path d="M92.1 94.4501C93.475 93.7126 94.9375 93.2001 96.4625 92.8876C96.7 92.8376 96.6 92.4751 96.3625 92.5251C94.8 92.8376 93.3125 93.3751 91.9125 94.1251C91.6875 94.2376 91.8875 94.5626 92.1 94.4501Z" fill="#161616"/>
<path d="M92.5497 95.525C93.3872 95.1625 94.2247 94.8 95.0497 94.4375C95.2747 94.3375 95.0747 94.0125 94.8622 94.1125C94.0247 94.475 93.1872 94.8375 92.3622 95.2C92.1372 95.3 92.3372 95.6125 92.5497 95.525Z" fill="#161616"/>
<path d="M65.4373 63.825C68.4123 62.8375 71.3873 61.6375 74.4748 61.0375C74.7123 60.9875 74.6123 60.625 74.3748 60.675C71.2998 61.2875 68.3123 62.475 65.3373 63.4625C65.1123 63.5375 65.2123 63.9 65.4373 63.825Z" fill="#161616"/>
<path d="M65.3874 65.4375C68.2374 64.125 71.1874 63.0625 74.2124 62.2625C74.4499 62.2 74.3499 61.8375 74.1124 61.9C71.0499 62.7125 68.0749 63.7875 65.1999 65.1125C64.9874 65.2125 65.1749 65.5375 65.3874 65.4375Z" fill="#161616"/>
<path d="M65.1623 67.0626C66.4123 66.5501 67.6373 66.0001 68.8498 65.4126C69.0623 65.3126 68.8748 64.9876 68.6623 65.0876C67.4748 65.6626 66.2748 66.2001 65.0623 66.7001C64.8498 66.7876 64.9373 67.1501 65.1623 67.0626Z" fill="#161616"/>
<path d="M65.85 68.4125C68.4875 67.075 71.1875 65.85 73.9375 64.7625C74.1625 64.675 74.0625 64.3125 73.8375 64.4C71.05 65.5 68.325 66.7375 65.6625 68.0875C65.4375 68.2 65.6375 68.525 65.85 68.4125Z" fill="#161616"/>
<path d="M58.3623 41.7375C61.9123 40.0125 65.2123 37.8375 68.2123 35.2875C68.3998 35.125 68.1248 34.8625 67.9498 35.025C64.9748 37.5625 61.6873 39.7 58.1748 41.425C57.9498 41.525 58.1373 41.85 58.3623 41.7375Z" fill="#161616"/>
<path d="M59.1247 43.3625C60.6122 42.5 62.0372 41.55 63.4122 40.5125C63.5997 40.375 63.4122 40.0375 63.2247 40.1875C61.8497 41.225 60.4247 42.175 58.9372 43.0375C58.7247 43.1625 58.9122 43.4875 59.1247 43.3625Z" fill="#161616"/>
<path d="M60.0749 44.5C63.2749 42.7875 66.3499 40.8875 69.3124 38.7875C69.5124 38.65 69.3249 38.325 69.1249 38.4625C66.1749 40.5625 63.0874 42.4625 59.8874 44.175C59.6749 44.2875 59.8624 44.6125 60.0749 44.5Z" fill="#161616"/>
<path d="M60.875 46.4375C64.4125 44.8375 67.7875 42.9125 70.9625 40.6625C71.1625 40.525 70.975 40.2 70.775 40.3375C67.6125 42.5875 64.2375 44.5125 60.6875 46.1125C60.4625 46.2125 60.65 46.525 60.875 46.4375Z" fill="#161616"/>
<path opacity="0.13" d="M78.2622 77.5875C79.5997 77.2875 80.9372 76.9875 82.2747 76.6875C84.1747 80.6875 86.0747 84.6875 87.9747 88.675C89.8747 86.2125 91.7747 83.7625 93.6747 81.3C90.8747 78.2875 88.0747 75.2625 85.2872 72.25C82.9372 74.0375 80.5997 75.8125 78.2622 77.5875Z" fill="#3D3D3D"/>
<path opacity="0.21" d="M68.4374 61.6376C67.7374 64.8501 67.0374 68.075 66.3374 71.2875C69.9124 69.575 73.4874 67.85 77.0749 66.1376C76.5499 63.8626 76.0374 61.575 75.5124 59.3C73.1499 60.0875 70.7874 60.8626 68.4374 61.6376Z" fill="#3D3D3D"/>
<path opacity="0.08" d="M84.5625 89.4C85.2625 91.1 85.9625 92.8 86.6625 94.5C87.825 94.7625 88.975 95.025 90.1375 95.275C91.4 96.15 92.65 97.0375 93.9125 97.9125C95.825 97.25 97.75 96.5875 99.6625 95.9375C98.2 92.625 96.75 89.3 95.2875 85.9875C93.375 86.5625 91.45 87.15 89.5375 87.725C88.5375 89.325 87.5375 90.925 86.5375 92.525C85.875 91.475 85.225 90.4375 84.5625 89.4Z" fill="#3D3D3D"/>
<path opacity="0.15" d="M40.4374 45.0625C39.8374 47.15 39.2499 49.2501 38.6499 51.3376C42.6374 50.4126 46.6249 49.4875 50.6124 48.5625C50.4749 46.1625 50.3499 43.7625 50.2124 41.3625C46.9499 42.6 43.6874 43.8375 40.4374 45.0625Z" fill="#3D3D3D"/>
<path opacity="0.11" d="M62.4375 37.9251C62.9 44.6751 63.25 48.0376 63.5 48.0376C63.575 48.0376 63.6375 47.7001 63.7 47.0501C66.975 45.4001 70.2625 43.7501 73.5375 42.1001C71.8875 39.0126 70.2375 35.9376 68.5875 32.8501C66.525 34.5376 64.475 36.2376 62.4375 37.9251Z" fill="#3D3D3D"/>
<path d="M127.025 60.4875C128.713 60.2625 130.763 65.1625 131.638 68.0875C133.113 73.0375 132.588 77.375 132.088 81.4C131.55 85.6875 131.288 87.8375 130.263 90.0875C126.95 97.3625 118.625 100.15 115.363 101.05C114.475 101.7 112.888 102.737 110.7 103.412C106.063 104.837 99.9752 104.225 99.1377 101.837C98.8627 101.037 99.1252 99.9375 99.7627 99.425C100.825 98.575 102.413 99.7875 105.088 98.975C105.225 98.9375 106.413 98.5625 106.375 98.3C106.35 98.1375 105.913 98.0875 105.363 98.025C102.9 97.7375 102.163 97.7875 102.113 97.6125C102.038 97.3125 103.925 96.3125 106.363 95.7125C108.263 95.25 110.813 94.85 113.963 94.9875C117.038 92.1625 120.113 89.325 123.188 86.5C123.163 79.6 123.713 73.9125 124.275 69.7375C125.45 61.2625 126.463 60.5625 127.025 60.4875Z" fill="white" stroke="#161616" stroke-miterlimit="10"/>
<path d="M98.9501 101.737C99.4251 102.25 100.3 102.4 100.938 102.587C101.875 102.85 102.838 103.05 103.813 103.175C104.05 103.212 104.15 102.85 103.913 102.812C103.1 102.7 102.288 102.55 101.488 102.337C100.8 102.162 99.7001 102.012 99.2126 101.462C99.0501 101.3 98.7876 101.562 98.9501 101.737Z" fill="#161616"/>
<path d="M99.1623 100.6C100.725 101.562 102.475 102.1 104.312 102.187C104.55 102.2 104.55 101.825 104.312 101.812C102.537 101.737 100.862 101.212 99.3498 100.275C99.1498 100.15 98.9498 100.475 99.1623 100.6Z" fill="#161616"/>
<path d="M99.8249 99.7249C101.575 100.612 103.475 101.075 105.437 101.075C105.675 101.075 105.675 100.7 105.437 100.7C103.537 100.7 101.7 100.262 100.012 99.3999C99.7999 99.2874 99.6124 99.6124 99.8249 99.7249Z" fill="#161616"/>
<path opacity="0.15" d="M126.375 61.0374C127.5 63.4874 128.988 67.4625 129.425 72.55C129.75 76.3625 130.288 82.8624 126.375 89.3375C122.525 95.7 116.688 98.2249 114.525 99.1499C112.35 100.087 108.7 101.612 103.963 101.112C102.05 100.912 100.5 100.437 99.4252 100.025C99.1877 100.55 98.9627 101.3 99.2252 101.987C100.075 104.225 105.375 104.187 108.225 103.75C109.813 103.512 112.45 102.875 115.4 100.912C118.95 99.8624 127.775 96.7374 130.425 89.675C131.2 87.6125 131.663 84.6499 131.913 83.0374C132.263 80.7624 132.775 77.3499 132.45 72.9499C132.45 72.9499 131.975 66.5874 128.45 61.3749C128.288 61.1249 127.913 60.5999 127.363 60.5624C126.938 60.5374 126.563 60.8499 126.375 61.0374Z" fill="#3D3D3D"/>
<path opacity="0.09" d="M132.2 77.7624C131.825 77.6999 131.025 81.8499 130.175 84.4624C128.7 88.9874 125.1 94.9749 115.55 100.912C117.713 100.425 120.788 99.3999 123.875 97.1874C125.438 96.0624 128.075 94.1749 129.9 90.6874C131.163 88.2749 131.5 86.1124 131.925 83.3124C132.313 80.8499 132.513 77.8124 132.2 77.7624Z" fill="#3D3D3D"/>
<path d="M97.6874 37.525C97.6249 40.4125 97.5624 43.2875 97.4999 46.175C96.6249 49.825 97.9874 53.525 100.825 55.4C103.912 57.4375 107.362 56.4125 107.862 56.25C107.887 56.95 107.862 57.825 107.675 58.8125C107.512 59.725 107.25 60.4875 107.012 61.0875C108.537 62.5125 109.95 62.875 110.725 62.9875C114.4 63.525 118.6 60.575 120.8 55.475C120.137 54.775 119.25 53.725 118.425 52.3375C117.95 51.55 116.85 49.5625 116.237 46.725C115.612 43.825 116.225 43.4375 115.762 41.3125C115.237 38.8875 113.725 36.1375 111.675 34.75C108.225 32.4625 102.425 33.475 97.6874 37.525Z" fill="white" stroke="#161616" stroke-miterlimit="10"/>
<path d="M97.1749 47.3126C96.2999 47.7876 96.2374 49.1876 96.1499 51.0376C96.0624 52.7626 95.9749 54.8251 97.2749 56.8876C98.2624 58.4626 99.5999 59.2376 100.15 59.5501C103 61.1751 105.9 60.6751 106.812 60.4751C106.237 60.2376 105.65 60.0001 105.075 59.7626C105.787 59.7376 106.987 59.6001 108.25 58.9376C109.55 58.2626 110.287 57.3626 110.912 56.5751C111.65 55.6501 112.812 53.9376 113.475 51.3501C113.15 50.7876 111.9 48.5126 112.55 45.7126C112.912 44.1626 113.7 43.1001 114.187 42.5376C114.95 42.5876 115.362 42.9001 115.525 43.0501C116.362 43.8126 116.462 45.3751 115.625 46.8501C115.987 46.5876 116.85 45.8626 117.262 44.5876C117.7 43.2626 117.35 42.1501 117.162 41.5126C116.925 40.7501 116.575 39.6126 115.525 39.0501C115.225 38.8876 114.75 38.6876 114.187 38.7376C112.387 38.9126 112.012 41.8001 109.912 44.4626C108.337 46.4501 105.1 49.1751 101.912 48.8126C99.5124 48.5376 98.3624 46.6626 97.1749 47.3126Z" fill="#161616" stroke="#161616" stroke-miterlimit="10"/>
<path d="M101.575 42.325C101.725 44.3 101.75 46.2875 101.638 48.2625C101.625 48.4375 101.85 48.5 101.963 48.4C102.588 47.85 103.213 47.3 103.825 46.75C104 46.5875 103.738 46.325 103.563 46.4875C102.938 47.0375 102.313 47.5875 101.7 48.1375C101.813 48.1875 101.913 48.225 102.025 48.275C102.138 46.3 102.113 44.3125 101.963 42.3375C101.938 42.0875 101.563 42.0875 101.575 42.325Z" fill="#161616"/>
<path d="M98.875 44.2501C98.825 44.1126 98.6625 43.5626 98.9625 43.5626C99.1375 43.5626 99.1375 43.8626 99.1375 43.9751C99.1375 44.0876 99.1375 44.2751 99.05 44.3751C98.9625 44.4876 98.8375 44.4001 98.8 44.2751C98.7625 44.1501 98.7875 44.0126 98.8 43.8876C98.8375 43.6501 98.475 43.5501 98.4375 43.7876C98.375 44.1876 98.425 44.8376 98.9875 44.8001C99.3875 44.7751 99.5 44.3001 99.5 43.9626C99.5 43.6126 99.35 43.1251 98.9 43.1751C98.3125 43.2501 98.35 43.9251 98.4875 44.3376C98.5875 44.5751 98.95 44.4751 98.875 44.2501Z" fill="#161616"/>
<path d="M99.1377 44.1375C99.0502 44.0375 99.0502 43.8625 99.1377 43.75C99.0377 43.7375 98.9377 43.725 98.8377 43.7125C98.9377 43.85 98.9627 44.05 98.8502 44.1875C98.9502 44.2 99.0502 44.2125 99.1502 44.225C99.1127 44.1625 98.8502 43.8 99.0627 43.7875C99.0377 43.7875 99.0627 43.75 99.0502 43.8125C99.0502 43.8625 99.0627 43.925 99.0627 43.9875C99.0627 44.025 99.0377 44.1875 98.9752 44.15C98.7752 44.0125 98.5877 44.3375 98.7877 44.475C99.0127 44.625 99.3002 44.475 99.3877 44.25C99.4752 44.0375 99.4752 43.6125 99.2502 43.475C99.0502 43.35 98.7752 43.4625 98.6627 43.65C98.5127 43.9125 98.6627 44.2 98.8127 44.425C98.8752 44.5125 99.0252 44.5625 99.1127 44.4625C99.3252 44.2 99.3627 43.825 99.1627 43.5375C99.1002 43.45 98.9502 43.4 98.8627 43.5C98.6377 43.775 98.6377 44.1375 98.8627 44.4125C99.0252 44.575 99.2877 44.3125 99.1377 44.1375Z" fill="#161616"/>
<path d="M106.15 43.7375C106.025 43.625 105.875 43.3625 106.1 43.25C106.325 43.1375 106.362 43.4375 106.362 43.5875C106.362 43.675 106.387 44.025 106.237 44.025C106.1 44.025 106.025 43.7375 105.987 43.65C105.925 43.425 105.562 43.5125 105.625 43.75C105.725 44.075 105.975 44.5125 106.375 44.375C106.762 44.25 106.775 43.675 106.712 43.35C106.637 42.9625 106.25 42.7125 105.887 42.9375C105.487 43.1875 105.575 43.7125 105.887 44C106.062 44.1625 106.325 43.9 106.15 43.7375Z" fill="#161616"/>
<path d="M106.413 43.8375C106.363 43.675 106.35 43.5125 106.388 43.35C106.3 43.3875 106.2 43.425 106.113 43.4625C106.2 43.5125 106.2 43.675 106.113 43.725C106.2 43.7625 106.3 43.8 106.388 43.8375C106.313 43.675 106.25 43.5 106.175 43.3375C106.138 43.25 106.05 43.175 105.95 43.2125C105.863 43.2375 105.775 43.35 105.825 43.4375C105.9 43.6 105.963 43.775 106.038 43.9375C106.088 44.05 106.2 44.125 106.313 44.05C106.638 43.85 106.638 43.3375 106.313 43.1375C106.213 43.075 106.063 43.125 106.038 43.25C105.988 43.4875 106 43.7125 106.063 43.9375C106.125 44.1625 106.475 44.0625 106.413 43.8375Z" fill="#161616"/>
<path d="M98.3376 41.975C98.7376 41.2375 99.7251 41.1375 100.225 41.8375C100.363 42.0375 100.688 41.85 100.55 41.65C99.8876 40.7375 98.5626 40.775 98.0126 41.7875C97.9001 42 98.2251 42.1875 98.3376 41.975Z" fill="#161616"/>
<path d="M104.9 41.9375C105.437 41.05 106.7 41.125 107.087 42.1C107.175 42.325 107.537 42.225 107.45 42C106.937 40.725 105.287 40.5625 104.575 41.75C104.45 41.95 104.775 42.1375 104.9 41.9375Z" fill="#161616"/>
<path d="M93.0501 38.6375C99.5501 39.0125 106.038 39.5375 112.513 40.2125C113.238 40.2875 113.225 39.1625 112.513 39.0875C106.038 38.4 99.5501 37.875 93.0501 37.5125C92.3251 37.475 92.3251 38.6 93.0501 38.6375Z" fill="#161616"/>
<path d="M97.2627 37.8125C97.3627 36.85 97.7752 34.375 99.7627 32.35C102.45 29.6125 107.138 28.6625 110.838 30.85C113.738 32.575 115.425 35.8625 115.225 39.35C109.238 38.85 103.25 38.325 97.2627 37.8125Z" fill="#F66F5D"/>
<path opacity="0.11" d="M115.437 46.7125C115.425 46.8125 115.262 47.65 114.512 48.025C114.125 48.2125 113.762 48.2125 113.587 48.1875C114.35 49.1625 117.475 53.3875 116.487 58.5625C116.225 59.9125 115.737 61.05 115.237 61.95C116.062 61.4375 117.137 60.65 118.187 59.4875C119.487 58.05 120.225 56.6125 120.65 55.6125C119.862 54.625 119 53.4125 118.187 51.95C117.125 50.0375 116.45 48.2375 116 46.7625C115.8 46.75 115.625 46.725 115.437 46.7125Z" fill="#3D3D3D"/>
<path opacity="0.12" d="M101.563 42.4C101.113 44.125 100.65 45.8625 100.2 47.5875C100.713 47.7875 101.225 47.9875 101.725 48.1875C101.675 46.25 101.625 44.325 101.563 42.4Z" fill="#3D3D3D"/>
<path opacity="0.69" d="M105.475 30.1625C104.187 31.3375 104.9 34.8875 107.162 38.65C109.837 38.8875 112.512 39.1375 115.187 39.375C115.275 38.275 115.287 36.1375 114.05 34.0875C111.937 30.6 107.062 28.725 105.475 30.1625Z" fill="#F2513C"/>
</svg>
