<svg width="200" height="159" viewBox="0 0 200 159" fill="none" xmlns="http://www.w3.org/2000/svg">
<path fill-rule="evenodd" clip-rule="evenodd" d="M107.306 0.1265C131.713 1.89199 146.533 25.5221 159.824 46.068C171.03 63.3882 177.68 82.8733 173.965 103.165C170.022 124.705 159.901 146.738 139.803 155.431C120.342 163.849 99.9137 152.143 80.5121 143.588C59.7726 134.443 35.212 127.526 27.8785 106.079C19.9003 82.7464 29.5186 57.4425 44.3095 37.7122C59.7406 17.1278 81.6468 -1.72957 107.306 0.1265Z" fill="#E8ECFB"/>
<path d="M33.9623 141.825H62.3748C62.8623 141.825 62.8623 141.075 62.3748 141.075C52.8998 141.075 43.4248 141.075 33.9623 141.075C33.4748 141.075 33.4748 141.825 33.9623 141.825Z" fill="#E8E8E8"/>
<path d="M43.2249 138.887H71.7374H79.8249C80.3124 138.887 80.3124 138.137 79.8249 138.137C70.3249 138.137 60.8249 138.137 51.3124 138.137C48.6124 138.137 45.9124 138.137 43.2249 138.137C42.7499 138.137 42.7499 138.887 43.2249 138.887Z" fill="#E8E8E8"/>
<path d="M79.2123 134.262H98.5123C98.9998 134.262 98.9998 133.512 98.5123 133.512C92.0748 133.512 85.6373 133.512 79.2123 133.512C78.7248 133.512 78.7248 134.262 79.2123 134.262Z" fill="#E8E8E8"/>
<path d="M95.7377 144.762H135.925H147.163C147.65 144.762 147.65 144.012 147.163 144.012C133.763 144.012 120.363 144.012 106.975 144.012C103.225 144.012 99.4877 144.012 95.7377 144.012C95.2502 144.012 95.2502 144.762 95.7377 144.762Z" fill="#E8E8E8"/>
<path d="M127.4 141.825H153.962C154.45 141.825 154.45 141.075 153.962 141.075C145.112 141.075 136.25 141.075 127.4 141.075C126.912 141.075 126.912 141.825 127.4 141.825Z" fill="#E8E8E8"/>
<path d="M57.4123 50.825C56.7623 50.9375 55.7373 51.1999 54.6623 51.8624C53.9873 52.2749 52.6124 53.2749 51.7499 55.1124C51.4374 55.7624 50.7374 57.275 51.0874 59.15C51.5999 61.925 54.0373 63.3125 54.4248 63.525C55.6623 61.6375 56.8874 59.7374 58.1249 57.8499C57.8749 55.5124 57.6373 53.175 57.4123 50.825Z" fill="#F66F5D"/>
<path d="M58.3374 57.625C60.1624 56.6375 61.9749 55.65 63.7999 54.65C64.1999 55.15 64.9499 56.2625 64.9374 57.7625C64.9374 58.1 64.8999 58.4125 64.8374 58.7C62.6624 58.3375 60.4999 57.975 58.3374 57.625Z" fill="#010000"/>
<path d="M38.7627 66.25C38.9877 69.1875 39.2002 72.1375 39.4252 75.075C40.2252 75.025 41.0252 74.9625 41.8127 74.9125C41.5502 71.925 41.2877 68.95 41.0252 65.9625C40.2627 66.0625 39.5127 66.15 38.7627 66.25Z" fill="#F66F5D"/>
<path d="M43.2251 69.3125C43.3501 71.125 43.4751 72.925 43.6126 74.7375C44.4126 74.6625 45.2126 74.6 46.0001 74.525C45.8251 72.7125 45.6626 70.9125 45.4876 69.1C44.7251 69.1625 43.9751 69.2375 43.2251 69.3125Z" fill="#F66F5D"/>
<path d="M71.6623 80.5124C59.2623 81.6499 46.8748 82.7749 34.4748 83.9124C33.3373 65.7624 32.1873 47.6125 31.0498 29.45C43.4123 29.0125 55.7873 28.575 68.1498 28.1375C69.3248 45.6 70.4998 63.0624 71.6623 80.5124V80.5124Z" stroke="#161616" stroke-width="0.5" stroke-miterlimit="10"/>
<path d="M43.8372 26.0125C43.9747 27 44.1247 27.9875 44.2622 28.975C44.2997 29.2125 44.6622 29.1125 44.6247 28.875C44.4872 27.8875 44.3372 26.9 44.1997 25.9125C44.1622 25.675 43.7997 25.775 43.8372 26.0125Z" fill="black"/>
<path d="M44.1 25.9875C46.9125 25.8 49.7375 25.6875 52.55 25.625C52.7875 25.625 52.7875 25.25 52.55 25.25C49.725 25.3125 46.9125 25.4375 44.1 25.6125C43.8625 25.625 43.8625 26 44.1 25.9875Z" fill="black"/>
<path d="M52.4372 25.475C52.5622 26.5375 52.6622 27.5875 52.7247 28.65C52.7372 28.8875 53.1122 28.8875 53.0997 28.65C53.0372 27.5875 52.9372 26.525 52.8122 25.475C52.7747 25.2375 52.3997 25.2375 52.4372 25.475Z" fill="black"/>
<path d="M44.1125 25.975C44.2 26.9 44.2875 27.8375 44.375 28.7625C44.3875 28.8625 44.45 28.95 44.5625 28.95C47.25 28.975 49.925 28.55 52.625 28.6375C52.8625 28.65 52.8625 28.275 52.625 28.2625C49.9375 28.175 47.2625 28.5875 44.5625 28.575L44.75 28.7625C44.6625 27.8375 44.575 26.9 44.4875 25.975C44.4625 25.7375 44.0875 25.7375 44.1125 25.975Z" fill="black"/>
<path d="M44.3126 26.1C44.7251 26.35 45.2626 26.225 45.7126 26.2C46.4626 26.1625 47.2126 26.125 47.9626 26.0875C49.4626 26.0125 50.9501 25.925 52.4501 25.85C52.3876 25.7875 52.3251 25.725 52.2626 25.6625C52.3001 26.475 52.3376 27.2875 52.3751 28.1125C52.3876 28.35 52.7626 28.35 52.7501 28.1125C52.7126 27.3 52.6751 26.4875 52.6376 25.6625C52.6376 25.5625 52.5501 25.475 52.4501 25.475C51.1251 25.55 49.7876 25.6125 48.4626 25.6875C47.8001 25.725 47.1376 25.7625 46.4626 25.7875C45.9376 25.8125 44.9626 26.0625 44.5001 25.775C44.3001 25.65 44.1126 25.975 44.3126 26.1Z" fill="black"/>
<path d="M44.2998 26.175C44.4873 26.9375 44.6123 27.7125 44.6873 28.5C44.8123 28.4875 44.9373 28.4625 45.0498 28.45C44.9123 27.775 44.9498 27.1125 45.0748 26.425C44.9498 26.4125 44.8248 26.3875 44.7123 26.375C44.7373 27.125 44.7873 27.8375 45.0748 28.525C45.1623 28.725 45.4748 28.575 45.4123 28.375C45.1998 27.575 44.9998 26.7875 45.2123 25.9625C45.0873 25.9625 44.9748 25.9625 44.8498 25.9625C44.9623 26.7125 45.0748 27.4625 45.1873 28.2125C45.2248 28.45 45.5873 28.35 45.5498 28.1125C45.4373 27.3625 45.3248 26.6125 45.2123 25.8625C45.1873 25.675 44.8873 25.7 44.8498 25.8625C44.6248 26.75 44.8248 27.6125 45.0498 28.475C45.1623 28.425 45.2748 28.375 45.3873 28.325C45.1248 27.7 45.0998 27.025 45.0748 26.3625C45.0748 26.1625 44.7498 26.1 44.7123 26.3125C44.5748 27.0625 44.5248 27.7875 44.6873 28.5375C44.7248 28.7375 45.0748 28.7 45.0498 28.4875C44.9748 27.675 44.8373 26.8625 44.6498 26.0625C44.5998 25.8375 44.2498 25.9375 44.2998 26.175Z" fill="black"/>
<path d="M45.2623 26.8375C45.3998 26.6125 45.5373 26.3875 45.6748 26.1625C45.5623 26.1 45.4623 26.0375 45.3498 25.975C45.1873 26.3375 45.0373 26.7 44.8748 27.0625C44.7998 27.2375 45.0248 27.475 45.1748 27.2875C45.4248 26.975 45.6623 26.65 45.9123 26.3375C45.8123 26.275 45.6998 26.2125 45.5998 26.15C45.4998 26.45 45.3748 26.725 45.1998 27C45.0873 27.175 45.3623 27.4 45.4998 27.225C45.6873 26.9875 45.8748 26.75 46.0748 26.5125C45.9748 26.4375 45.8748 26.3625 45.7748 26.2875C45.5248 26.875 45.2748 27.45 45.0248 28.0375C44.9498 28.2125 45.1748 28.45 45.3248 28.2625C45.7748 27.7 46.2373 27.125 46.6873 26.5625C46.5873 26.4875 46.4873 26.4125 46.3873 26.3375C46.0498 26.8875 45.7123 27.45 45.3748 28C45.2873 28.1375 45.4248 28.325 45.5873 28.275C45.7873 28.2125 45.8123 28.1875 45.9623 28.0625C45.8623 28 45.7498 27.9375 45.6498 27.875C45.5748 28.0875 45.4498 28.25 45.2623 28.3875C45.0748 28.525 45.2373 28.8375 45.4498 28.7125C45.6498 28.6 45.8373 28.525 46.0623 28.5C45.9873 28.425 45.9123 28.35 45.8373 28.275C45.5123 28.1125 45.4123 27.8875 45.5373 27.5875C45.5748 27.425 45.6373 27.275 45.7123 27.1375C45.8123 26.9625 45.9998 26.5375 46.1873 26.9125C46.3248 27.1875 45.7498 28.725 45.6748 27.775C45.6623 27.525 45.6873 27.275 45.7623 27.05C45.8123 26.875 45.8873 26.7125 45.9748 26.55C46.0998 26.3 46.1623 26.3 46.1748 26.55C46.4123 27.05 46.1248 27.8375 45.8873 28.275C45.9998 28.2875 46.1123 28.3 46.2248 28.325C46.1248 27.975 46.0873 27.6375 46.1623 27.2875C46.1873 27.15 46.3123 26.4875 46.4498 26.7C46.7373 27.1125 46.2623 28.05 46.0623 28.4125C46.1748 28.45 46.2998 28.475 46.4123 28.5125C46.3748 28.175 46.3623 27.85 46.4248 27.5125C46.4623 27.2875 46.5998 26.5625 46.8373 26.5375C47.1748 26.5 46.5248 28.0375 46.3748 28.2625C46.4873 28.275 46.5998 28.2875 46.7123 28.3125C46.5998 27.75 46.5998 26.55 47.3623 26.3625C47.2873 26.325 47.2123 26.275 47.1373 26.2375C47.2748 27 47.0623 27.7375 46.5373 28.3C46.6373 28.325 46.7498 28.35 46.8498 28.3875C46.7623 28.0375 46.7498 27.7 46.8373 27.35C46.8873 27.1625 47.1498 26.375 47.3998 26.4375C47.5748 26.475 47.3498 27.2 47.2998 27.3625C47.1623 27.7625 46.9498 28.1125 46.6373 28.4125C46.7373 28.4375 46.8498 28.4625 46.9498 28.5C46.7498 27.6625 47.0998 26.825 47.8373 26.375C47.7498 26.3375 47.6498 26.3 47.5623 26.2625C47.8498 27.025 47.1123 28.0125 46.6248 28.525C46.7248 28.55 46.8373 28.575 46.9373 28.6125C46.8498 28.25 46.8498 27.9 46.9623 27.5375C46.9998 27.425 47.3748 26.575 47.5498 26.6375C47.7998 26.725 47.3748 27.4875 47.2998 27.6C47.2123 27.7625 47.0498 28.05 46.8873 28.15C46.6998 28.275 46.7123 28.3 46.6998 28.025C46.6873 27.65 46.9373 27.225 47.1498 26.95C47.2623 26.8 47.4498 26.5625 47.6248 26.5C47.8248 26.4125 47.7998 26.3875 47.7748 26.65C47.6873 27.425 47.2498 28.125 46.6998 28.6625C46.7998 28.6875 46.9123 28.7125 47.0123 28.75C46.8998 28.0125 47.1498 27.25 47.6998 26.7375C47.8623 26.5875 48.0498 26.4875 48.1123 26.8C48.1373 26.925 47.9873 27.225 47.9373 27.3375C47.7623 27.75 47.5123 28.1 47.1998 28.4125H47.4623C47.2373 28.15 47.5248 27.575 47.6623 27.325C47.7248 27.2125 48.2623 26.3875 48.4123 26.4625C48.5873 26.55 48.1998 27.3875 48.1498 27.475C47.9748 27.8125 47.7498 28.1125 47.4873 28.3875C47.5998 28.4375 47.6998 28.475 47.8123 28.525C47.8248 27.6125 48.2498 26.8375 49.0248 26.35C48.9248 26.3 48.8373 26.2375 48.7373 26.1875C48.7498 27.025 48.4498 27.7625 47.8498 28.35C47.9623 28.4 48.0623 28.4375 48.1748 28.4875C48.2498 27.575 48.6748 26.7875 49.3748 26.2C49.2748 26.1875 49.1748 26.175 49.0748 26.1625C49.4748 26.7625 48.5998 27.8875 48.2498 28.3375C48.3623 28.3875 48.4623 28.425 48.5748 28.475C48.5873 28.125 48.6498 27.8 48.7873 27.475C48.8623 27.275 49.1748 26.5875 49.3998 26.5375C49.6998 26.475 49.3873 27.05 49.2873 27.2625C49.1123 27.625 48.8748 27.9375 48.5998 28.225C48.6998 28.2875 48.8123 28.35 48.9123 28.4125C49.0248 27.6375 49.3373 26.6125 50.1498 26.325C50.0748 26.2625 49.9873 26.2 49.9123 26.15C49.8123 27 49.4373 27.725 48.8123 28.3C48.9248 28.35 49.0248 28.3875 49.1373 28.4375C49.1748 28.0375 49.2623 27.65 49.4373 27.275C49.5498 27.0375 49.8498 26.4125 50.1248 26.3625C50.2623 26.3375 50.1248 26.55 50.0748 26.6875C49.9998 26.8875 49.8998 27.075 49.7998 27.25C49.5998 27.6 49.3498 27.9125 49.0623 28.2C49.1748 28.25 49.2748 28.2875 49.3873 28.3375C49.4373 27.5375 49.8123 26.85 50.4373 26.3625C50.3498 26.2875 50.2498 26.225 50.1623 26.15C50.0623 26.7375 49.7623 27.2 49.3623 27.6375C49.1248 27.9 49.0498 27.8375 49.0248 27.4875C48.9998 27.0125 49.2873 26.5375 49.7623 26.4125C49.6873 26.35 49.5998 26.2875 49.5248 26.2375C49.4873 26.9875 49.2623 27.6625 48.8623 28.2875C48.9748 28.325 49.0998 28.35 49.2123 28.3875C49.2498 28.0125 49.3498 27.65 49.5248 27.3125C49.6373 27.0875 49.9248 26.525 50.1748 26.4625C50.5373 26.3625 50.1748 27.075 50.0873 27.25C49.9123 27.6 49.6748 27.9 49.3998 28.1875C49.5123 28.2375 49.6123 28.275 49.7248 28.325C49.6748 27.4125 50.2248 26.6125 51.0873 26.3375C51.0123 26.275 50.9248 26.2125 50.8498 26.1625C50.7498 27.05 50.3248 27.8 49.6373 28.375C49.7498 28.425 49.8498 28.4625 49.9623 28.5125C50.0623 27.65 50.4998 26.9125 51.2123 26.4125C51.1248 26.375 51.0248 26.3375 50.9373 26.3C51.1373 26.95 50.4498 27.8 50.0748 28.2625C50.1873 28.3125 50.2873 28.35 50.3998 28.4C50.4498 27.7625 50.8123 26.6 51.5748 26.4875C51.4998 26.4125 51.4248 26.3375 51.3498 26.2625C51.2123 26.975 50.9248 27.6125 50.4623 28.175C50.5748 28.225 50.6748 28.2625 50.7873 28.3125C50.8248 27.55 51.1248 26.8875 51.6498 26.35C51.5498 26.3375 51.4498 26.325 51.3498 26.3125C51.6373 26.8375 51.0498 27.7625 50.7873 28.225L51.1248 28.375C51.2498 27.775 51.3498 26.7625 51.9123 26.4C51.8373 26.3875 51.7623 26.375 51.6873 26.375C51.9998 26.725 51.3998 27.9 51.2623 28.25C51.3873 28.2875 51.4998 28.3125 51.6248 28.35C51.7998 27.7125 51.9623 27.0875 52.1373 26.45C52.0123 26.4375 51.8873 26.4125 51.7748 26.4C51.7998 27 51.7123 27.5625 51.5123 28.1375C51.6373 28.15 51.7623 28.175 51.8748 28.1875C51.9373 27.625 51.8748 26.75 52.1998 26.275C52.0873 26.2625 51.9748 26.25 51.8623 26.225C52.0373 26.8375 51.9748 27.425 51.8873 28.0625C52.0123 28.075 52.1373 28.1 52.2498 28.1125C52.1998 27.4125 52.1498 26.7 52.0998 26C51.9873 26.05 51.8873 26.0875 51.7748 26.1375C52.2498 26.625 52.0623 27.2625 51.8498 27.825C51.9623 27.8125 52.0748 27.8 52.1873 27.775C52.0498 27.5125 51.7748 27.075 51.7873 26.7625C51.6623 26.5625 51.7123 26.4625 51.9498 26.475C52.0623 26.675 52.0998 26.8875 52.0498 27.1C52.1623 27.05 52.2623 27.0125 52.3748 26.9625C52.1748 26.725 52.0748 26.5 52.0123 26.2125C51.9248 26.2875 51.8248 26.35 51.7373 26.425C51.7873 26.5625 51.8373 26.7125 51.8873 26.85C51.9998 26.8625 52.1123 26.875 52.2248 26.9C52.1373 26.65 52.0998 26.425 52.1123 26.1625C52.0373 26.225 51.9498 26.2875 51.8748 26.3375C52.3623 26.5375 52.0248 27.8375 51.9623 28.175C52.0248 28.125 52.0873 28.0875 52.1373 28.0375C51.1873 28.0625 50.2373 28.0875 49.2873 28.1125C49.0498 28.125 49.0498 28.475 49.2873 28.4875C50.1248 28.5125 50.9498 28.3875 51.7748 28.2625C51.7373 28.1375 51.7123 28.025 51.6748 27.9C50.6998 28.1625 49.7248 28.3375 48.7248 28.4125C48.4873 28.425 48.4873 28.775 48.7248 28.7875C49.6998 28.825 50.6498 28.4875 51.6248 28.525C51.6123 28.4 51.5873 28.275 51.5748 28.1625C50.8248 28.4125 50.0748 28.4875 49.2873 28.4V28.775C50.1873 28.6875 51.0873 28.6 51.9873 28.5125C51.9748 28.3875 51.9498 28.2625 51.9373 28.15C51.3373 28.325 50.7498 28.3875 50.1248 28.3625V28.7375C50.7373 28.7375 51.3248 28.6625 51.9123 28.5125C52.1498 28.45 52.0498 28.1 51.8123 28.15C51.1123 28.3 50.4123 28.375 49.6998 28.375V28.75C50.5498 28.6375 51.3998 28.5 52.2498 28.325C52.4498 28.2875 52.4123 27.9375 52.1998 27.9625C51.3873 28.0625 50.5873 28.05 49.7873 27.925C49.5498 27.8875 49.4498 28.25 49.6873 28.2875C50.5248 28.4125 51.3623 28.4375 52.1998 28.3375C52.1873 28.2125 52.1623 28.0875 52.1498 27.975C51.3373 28.1375 50.5248 28.2875 49.6998 28.3875C49.4623 28.4125 49.4498 28.7625 49.6998 28.7625C50.4498 28.7625 51.1748 28.6875 51.9123 28.525C51.8748 28.4 51.8498 28.2875 51.8123 28.1625C51.2498 28.3 50.6998 28.375 50.1248 28.375C49.8873 28.375 49.8873 28.7375 50.1248 28.75C50.7748 28.775 51.3998 28.7 52.0373 28.525C52.2373 28.4625 52.1998 28.1375 51.9873 28.1625C51.0873 28.25 50.1873 28.3375 49.2873 28.425C49.0498 28.45 49.0498 28.775 49.2873 28.8C50.1123 28.8875 50.8998 28.8 51.6748 28.55C51.8748 28.4875 51.8373 28.1875 51.6248 28.1875C50.6498 28.15 49.6998 28.4875 48.7248 28.45V28.825C49.7623 28.75 50.7748 28.575 51.7748 28.3C52.0123 28.2375 51.9123 27.9 51.6748 27.9375C50.8748 28.0625 50.0873 28.175 49.2873 28.15V28.525C50.2373 28.5 51.1873 28.475 52.1373 28.45C52.2123 28.45 52.2998 28.3875 52.3123 28.3125C52.4373 27.6125 52.8248 26.375 51.9623 26.0125C51.8373 25.9625 51.7373 26.0875 51.7248 26.1875C51.6998 26.5 51.7373 26.7375 51.8498 27.025C51.8998 27.1625 52.1123 27.225 52.1873 27.075C52.3623 26.7125 52.2623 26.35 51.8998 26.1375C51.7498 26.05 51.5873 26.1875 51.6248 26.35C51.6998 26.7125 51.8498 26.9875 52.0873 27.275C52.1998 27.4125 52.3998 27.2875 52.4123 27.1375C52.4498 26.7375 52.0998 25.55 51.4623 25.9125C50.8873 26.25 51.6498 27.6125 51.8373 28C51.9123 28.1625 52.1248 28.0875 52.1748 27.95C52.4498 27.2375 52.5748 26.4875 51.9998 25.9C51.8873 25.7875 51.6623 25.8625 51.6748 26.0375C51.7248 26.7375 51.7748 27.45 51.8248 28.15C51.8373 28.35 52.1623 28.425 52.1873 28.2C52.2873 27.5125 52.3623 26.85 52.1623 26.1625C52.1123 26 51.9123 25.9875 51.8248 26.1125C51.4373 26.6625 51.5123 27.575 51.4498 28.2125C51.4248 28.4375 51.7498 28.45 51.8123 28.2625C52.0248 27.6625 52.1123 27.0625 52.0873 26.425C52.0748 26.2125 51.7748 26.1625 51.7248 26.375C51.5498 27.0125 51.3873 27.6375 51.2123 28.275C51.1498 28.5125 51.4873 28.6 51.5748 28.375C51.7998 27.8 52.3998 26.7 51.8998 26.125C51.8498 26.0625 51.7373 26.05 51.6748 26.1C50.9873 26.55 50.8623 27.5625 50.7123 28.3C50.6748 28.5 50.9498 28.6375 51.0498 28.45C51.3873 27.8375 51.9873 26.85 51.6123 26.15C51.5498 26.05 51.3998 26.025 51.3123 26.1125C50.7123 26.7375 50.3873 27.475 50.3373 28.3375C50.3248 28.4875 50.5498 28.6 50.6623 28.475C51.1748 27.8625 51.4998 27.175 51.6498 26.4C51.6748 26.25 51.5623 26.15 51.4248 26.175C50.4873 26.3125 50.0373 27.6375 49.9748 28.45C49.9623 28.6125 50.1873 28.7 50.2998 28.5875C50.7873 28 51.5123 27.075 51.2623 26.2625C51.2248 26.15 51.0873 26.075 50.9873 26.15C50.1623 26.725 49.6623 27.5625 49.5498 28.5625C49.5248 28.7375 49.7623 28.7875 49.8748 28.7C50.6373 28.0625 51.0748 27.2 51.1873 26.225C51.1998 26.1 51.0623 26.0125 50.9498 26.05C49.9248 26.375 49.2498 27.325 49.3123 28.4C49.3248 28.5625 49.5123 28.65 49.6373 28.5375C49.9248 28.25 51.4248 26.2125 50.4873 25.9875C50.0998 25.8875 49.6623 26.4875 49.4748 26.7375C49.0873 27.25 48.8873 27.8375 48.8123 28.475C48.7873 28.675 49.0748 28.7125 49.1623 28.575C49.6123 27.9 49.8498 27.15 49.8873 26.3375C49.8873 26.2125 49.7623 26.125 49.6498 26.1625C49.1373 26.3 48.8248 26.675 48.6998 27.1875C48.6123 27.5125 48.5248 28.125 48.8748 28.3375C49.2123 28.55 49.4873 28.175 49.6748 27.95C50.0748 27.4875 50.3998 26.9875 50.4998 26.375C50.5248 26.2375 50.3748 26.05 50.2248 26.1625C49.4748 26.7375 49.0498 27.525 48.9873 28.4625C48.9748 28.625 49.1998 28.7 49.3123 28.6C49.6123 28.3 51.2123 26.325 50.3498 26C49.9623 25.85 49.5498 26.475 49.3748 26.725C48.9873 27.275 48.7998 27.8875 48.7373 28.55C48.7248 28.725 48.9498 28.7875 49.0623 28.6875C49.7623 28.0375 50.1748 27.225 50.2748 26.275C50.2873 26.1625 50.1498 26.0625 50.0373 26.1C49.0873 26.4375 48.6748 27.525 48.5373 28.45C48.5123 28.625 48.7123 28.7875 48.8498 28.6375C49.1498 28.325 50.5748 26.3625 49.6998 26.1125C49.2998 26 48.8623 26.6875 48.6873 26.9625C48.3623 27.4625 48.2123 28.0375 48.1873 28.625C48.1748 28.775 48.3998 28.8875 48.5123 28.7625C48.9873 28.175 49.9123 26.925 49.3998 26.1375C49.3248 26.025 49.1998 26.025 49.0998 26.1C48.3248 26.75 47.8748 27.65 47.7873 28.6625C47.7748 28.825 47.9998 28.9 48.1123 28.8C48.7748 28.1375 49.1123 27.3 49.0998 26.375C49.0998 26.2375 48.9373 26.1375 48.8123 26.2125C47.9248 26.7625 47.4248 27.675 47.4123 28.7125C47.4123 28.875 47.6248 28.9625 47.7373 28.85C48.2123 28.35 48.5998 27.75 48.7623 27.075C48.8373 26.7875 48.8873 26.225 48.4248 26.25C47.9373 26.275 47.4248 27.125 47.2498 27.5C47.0623 27.925 46.8623 28.475 47.1998 28.8625C47.2623 28.9375 47.3998 28.925 47.4623 28.8625C47.9623 28.375 48.3373 27.7625 48.4748 27.075C48.5373 26.7625 48.5623 26.2375 48.1123 26.2375C47.6373 26.2375 47.1248 26.9375 46.9373 27.3C46.6373 27.8375 46.5623 28.425 46.6623 29.025C46.6873 29.175 46.8873 29.2 46.9748 29.1125C47.5373 28.5625 47.9498 27.875 48.1248 27.1C48.1998 26.7625 48.2998 26.1875 47.7998 26.2C46.9373 26.225 45.7498 28.3875 46.5623 28.95C46.6248 28.9875 46.6998 28.975 46.7498 28.95C47.1873 28.7375 48.7373 26.6375 47.7873 26.3625C47.3873 26.2375 46.9373 26.9125 46.7873 27.2C46.4998 27.7375 46.4373 28.325 46.5748 28.9C46.5998 29.0375 46.7998 29.0875 46.8873 28.9875C47.4748 28.3625 48.2623 27.25 47.9248 26.3625C47.8873 26.25 47.7623 26.1875 47.6498 26.25C46.7623 26.7875 46.3498 27.8 46.5873 28.8C46.6248 28.9375 46.7998 28.975 46.8998 28.8875C47.3998 28.4 47.6748 27.7875 47.7998 27.1C47.8498 26.8 47.9623 26.25 47.5748 26.125C47.1623 26 46.7748 26.7 46.6373 27C46.3873 27.5375 46.3498 28.125 46.4873 28.7125C46.5248 28.85 46.6998 28.9 46.7998 28.8C47.4248 28.125 47.6748 27.275 47.4998 26.375C47.4748 26.275 47.3623 26.225 47.2748 26.25C46.2998 26.4875 46.1998 27.8625 46.3623 28.6625C46.3998 28.8375 46.6248 28.825 46.6998 28.7125C47.0248 28.25 47.2373 27.7375 47.2873 27.1625C47.3123 26.8875 47.3873 26.3125 47.0123 26.2125C46.6373 26.1125 46.4123 26.6625 46.2998 26.925C46.0373 27.5125 45.9748 28.1375 46.0498 28.775C46.0748 28.95 46.2998 29.05 46.3998 28.875C46.7873 28.2 47.1123 27.1875 46.7623 26.4375C46.7373 26.375 46.6623 26.3375 46.5998 26.35C45.6748 26.3625 45.7248 28.125 45.8873 28.7125C45.9248 28.8625 46.1498 28.9 46.2248 28.7625C46.5748 28.15 46.7998 27.25 46.4998 26.5625C46.2873 26.075 45.8998 26.3 45.6623 26.6625C45.3248 27.1875 45.1123 28.175 45.4498 28.75C45.7123 29.2 46.0498 28.8625 46.2373 28.525C46.4623 28.1125 46.8248 27.1 46.4498 26.6625C46.1123 26.275 45.6748 26.8125 45.4873 27.0875C45.1998 27.525 44.9248 28.325 45.2873 28.8C45.5623 29.1625 46.0623 29.0875 46.2123 28.675C46.2748 28.525 46.1123 28.425 45.9873 28.45C45.7248 28.4875 45.5123 28.5625 45.2873 28.7C45.3498 28.8125 45.4123 28.9125 45.4748 29.025C45.7373 28.825 45.9123 28.6 46.0373 28.2875C46.1123 28.1 45.8498 28 45.7248 28.1C45.6498 28.1375 45.5873 28.175 45.5123 28.2125C45.5873 28.3 45.6498 28.4 45.7248 28.4875C46.0623 27.9375 46.3998 27.375 46.7373 26.825C46.8498 26.65 46.5748 26.425 46.4373 26.6C45.9873 27.1625 45.5248 27.7375 45.0748 28.3C45.1748 28.375 45.2748 28.45 45.3748 28.525C45.6248 27.9375 45.8748 27.3625 46.1248 26.775C46.1998 26.6 45.9748 26.3625 45.8248 26.55C45.6373 26.7875 45.4498 27.025 45.2498 27.2625C45.3498 27.3375 45.4498 27.4125 45.5498 27.4875C45.7373 27.1875 45.8748 26.8875 45.9873 26.55C46.0373 26.375 45.7873 26.2125 45.6748 26.3625C45.4248 26.675 45.1873 27 44.9373 27.3125C45.0373 27.3875 45.1373 27.4625 45.2373 27.5375C45.3998 27.175 45.5498 26.8125 45.7123 26.45C45.8123 26.2375 45.5123 26.05 45.3873 26.2625C45.2498 26.4875 45.1123 26.7125 44.9748 26.9375C44.8123 26.8625 45.1373 27.05 45.2623 26.8375Z" fill="black"/>
<path d="M52.0498 25.7749C52.0498 26.1999 52.0623 26.6374 52.0748 27.0624C52.0873 27.3749 52.2248 28.0374 52.0248 28.2749C51.8998 28.4249 52.0623 28.6874 52.2498 28.5749C52.3373 28.5124 52.3623 28.4999 52.4373 28.4249C52.5123 28.3249 52.4998 28.1499 52.3498 28.1124C52.1248 28.0624 51.9623 28.0624 51.7373 28.1374C51.5123 28.2124 51.5998 28.5749 51.8373 28.4999C51.9748 28.4874 52.1123 28.4874 52.2498 28.4749C52.2248 28.3749 52.1998 28.2624 52.1623 28.1624C52.1248 28.1999 52.0873 28.2249 52.0623 28.2624C52.1373 28.3624 52.2123 28.4624 52.2873 28.5624C52.5623 28.2374 52.4873 28.0124 52.4623 27.5749C52.4373 26.9874 52.4248 26.3874 52.4248 25.7999C52.4248 25.5249 52.0498 25.5249 52.0498 25.7749Z" fill="black"/>
<path d="M33.5624 36.6625C38.6999 36.375 43.8499 36.2625 48.9999 36.325C49.2374 36.325 49.2374 35.95 48.9999 35.95C43.8499 35.8875 38.6999 36 33.5624 36.2875C33.3249 36.3 33.3249 36.675 33.5624 36.6625Z" fill="black"/>
<path d="M34.2248 40.0875C37.9123 39.7 41.6123 39.5 45.3123 39.5C45.5498 39.5 45.5498 39.125 45.3123 39.125C41.6123 39.125 37.9123 39.3125 34.2248 39.7125C33.9873 39.7375 33.9748 40.1125 34.2248 40.0875Z" fill="black"/>
<path d="M34.5624 46.4749C39.4874 45.9624 44.4249 45.675 49.3749 45.6375C49.6124 45.6375 49.6124 45.2625 49.3749 45.2625C44.4249 45.3 39.4874 45.5874 34.5624 46.0999C34.3249 46.1249 34.3249 46.4999 34.5624 46.4749Z" fill="black"/>
<path d="M54.7875 63.5749C52.3625 62.6374 50.925 59.9499 51.1625 57.3999C51.4125 54.8124 53.3375 52.5999 55.65 51.5624C57.2375 50.8499 58.9875 50.6999 60.55 51.5374C61.775 52.1874 62.825 53.1874 63.5625 54.3624C65.1 56.8124 64.9875 59.7749 63.3625 62.1749C62.3875 63.6124 60.55 64.0249 58.9375 64.2749C57.3375 64.5249 55.65 64.4374 54.3 63.4499C54.1 63.3124 53.9125 63.6374 54.1125 63.7749C55.3625 64.6874 56.9 64.8749 58.4 64.7249C59.8875 64.5749 61.65 64.2499 62.85 63.2999C64.0375 62.3624 64.75 60.5874 65 59.1374C65.2375 57.7499 64.975 56.3499 64.3875 55.0749C63.075 52.2374 60.05 49.9624 56.8375 50.7499C54.0625 51.4249 51.6125 53.6624 50.9375 56.4749C50.2125 59.4624 51.775 62.7999 54.675 63.9249C54.9125 64.0249 55.0125 63.6624 54.7875 63.5749Z" fill="black"/>
<path d="M57.4251 50.8125C57.5751 53.125 57.7251 55.4375 57.8876 57.75C57.9001 57.9875 58.2751 57.9875 58.2626 57.75C58.1126 55.4375 57.9626 53.125 57.8001 50.8125C57.7876 50.575 57.4126 50.575 57.4251 50.8125Z" fill="black"/>
<path d="M58.2375 57.975C60.1375 56.9375 62.0125 55.85 63.8625 54.7C64.0625 54.575 63.875 54.25 63.675 54.375C61.8375 55.525 59.9625 56.6125 58.05 57.65C57.8375 57.775 58.025 58.1 58.2375 57.975Z" fill="black"/>
<path d="M58.3124 58.0375C60.4624 58.0375 62.5874 58.55 64.6999 58.9125C64.9374 58.95 65.0374 58.5875 64.7999 58.55C62.6624 58.1875 60.4999 57.6625 58.3124 57.6625C58.0749 57.6625 58.0749 58.0375 58.3124 58.0375Z" fill="black"/>
<path d="M57.9873 57.7876C56.7873 59.7751 55.5873 61.7501 54.3748 63.7376C54.2498 63.9501 54.5748 64.1376 54.6998 63.9251C55.8998 61.9376 57.0998 59.9626 58.3123 57.9751C58.4373 57.7751 58.1123 57.5751 57.9873 57.7876Z" fill="black"/>
<path d="M36.7001 75.5C42.1376 75.0875 47.5626 74.6125 52.9751 74.05C53.2126 74.025 53.2126 73.65 52.9751 73.675C47.5501 74.225 42.1251 74.7125 36.7001 75.125C36.4626 75.15 36.4626 75.525 36.7001 75.5Z" fill="black"/>
<path d="M38.55 66.2875C38.75 69.1625 38.9625 72.05 39.1625 74.925C39.175 75.1625 39.55 75.1625 39.5375 74.925C39.3375 72.05 39.125 69.1625 38.925 66.2875C38.9 66.05 38.525 66.05 38.55 66.2875Z" fill="black"/>
<path d="M38.9124 66.325C39.6249 66.2 40.3374 66.1625 41.0624 66.2C40.9999 66.1375 40.9374 66.075 40.8749 66.0125C41.0624 68.9375 41.3374 71.85 41.6749 74.75C41.6999 74.9875 42.0749 74.9875 42.0499 74.75C41.6999 71.85 41.4374 68.925 41.2499 66.0125C41.2374 65.9125 41.1749 65.825 41.0624 65.825C40.2999 65.7875 39.5624 65.8375 38.8124 65.9625C38.5749 66.0125 38.6874 66.375 38.9124 66.325Z" fill="black"/>
<path d="M42.8499 69.25C43.1374 70.9875 43.3124 72.75 43.3749 74.5125C43.3874 74.75 43.7624 74.75 43.7499 74.5125C43.6874 72.7125 43.5124 70.925 43.2124 69.15C43.1749 68.9125 42.8124 69.0125 42.8499 69.25Z" fill="black"/>
<path d="M43.2997 69.4375C44.0247 69.4375 44.7372 69.4 45.4497 69.3C45.3872 69.2375 45.3247 69.175 45.2622 69.1125C45.4372 70.85 45.6247 72.575 45.7997 74.3125C45.8247 74.55 46.1997 74.55 46.1747 74.3125C45.9997 72.575 45.8122 70.85 45.6372 69.1125C45.6247 69.025 45.5622 68.9125 45.4497 68.925C44.7372 69.0125 44.0122 69.0625 43.2997 69.0625C43.0622 69.0625 43.0622 69.4375 43.2997 69.4375Z" fill="black"/>
<path d="M47.3 66.2625C47.6 68.9625 47.7875 71.6625 47.8625 74.3875C47.875 74.625 48.25 74.625 48.2375 74.3875C48.15 71.675 47.9625 68.9625 47.675 66.2625C47.65 66.025 47.275 66.025 47.3 66.2625Z" fill="black"/>
<path d="M47.4873 66.4125C47.8873 66.4375 48.2998 66.45 48.6998 66.475C49.2623 66.5 49.2748 66.5125 49.2873 67.075C49.3248 67.8875 49.3623 68.6875 49.4123 69.5C49.5248 71.05 49.6998 72.5875 49.9873 74.1125C50.0373 74.35 50.3873 74.25 50.3498 74.0125C49.9873 72.0875 49.8123 70.125 49.7123 68.1625C49.6873 67.7125 49.6748 67.275 49.6498 66.825C49.6373 66.65 49.6623 66.3875 49.5248 66.2375C49.3748 66.0875 49.1123 66.1125 48.9248 66.1C48.4373 66.075 47.9623 66.05 47.4748 66.025C47.2498 66.025 47.2498 66.4 47.4873 66.4125Z" fill="black"/>
<path d="M52.3501 78.1625C57.1751 77.825 61.9876 77.2125 66.7376 76.325C66.9751 76.275 66.8751 75.925 66.6376 75.9625C61.9126 76.85 57.1376 77.45 52.3501 77.7875C52.1001 77.8 52.1001 78.175 52.3501 78.1625Z" fill="black"/>
<path d="M59.7001 75.7751C61.7501 75.5626 63.8126 75.35 65.8626 75.1375C66.1001 75.1125 66.1001 74.7375 65.8626 74.7625C63.8126 74.975 61.7501 75.1876 59.7001 75.4001C59.4626 75.4251 59.4626 75.8001 59.7001 75.7751Z" fill="black"/>
<path d="M63.1997 73.275C64.1372 73.2375 65.0872 73.2 66.0247 73.1625C66.2622 73.15 66.2622 72.775 66.0247 72.7875C65.0872 72.825 64.1372 72.8625 63.1997 72.9C62.9497 72.9125 62.9497 73.2875 63.1997 73.275Z" fill="black"/>
<path d="M53.3001 31.2374C53.5376 31.9249 53.6376 32.6249 53.6001 33.3499C53.5876 33.5874 53.9626 33.5874 53.9751 33.3499C54.0126 32.5874 53.9126 31.8624 53.6626 31.1374C53.5751 30.9124 53.2126 31.0124 53.3001 31.2374Z" fill="black"/>
<path d="M53.6122 31.275C57.0497 30.925 60.4872 30.7 63.9372 30.5875C64.1747 30.575 64.1747 30.2 63.9372 30.2125C60.4872 30.325 57.0372 30.55 53.6122 30.9C53.3747 30.925 53.3747 31.3 53.6122 31.275Z" fill="black"/>
<path d="M53.975 33.55C57.4 33.3 60.8125 33.05 64.2375 32.8C64.475 32.7875 64.475 32.4125 64.2375 32.425C60.8125 32.675 57.4 32.925 53.975 33.175C53.7375 33.1875 53.7375 33.5625 53.975 33.55Z" fill="black"/>
<path d="M63.9876 30.65C64.1001 31.425 64.2126 32.1875 64.3251 32.9625C64.3626 33.2 64.7251 33.1 64.6876 32.8625C64.5751 32.0875 64.4626 31.325 64.3501 30.55C64.3126 30.3125 63.9501 30.4125 63.9876 30.65Z" fill="black"/>
<path d="M124.438 40.825C124.45 41.3 124.475 41.7625 124.537 42.2375C124.575 42.475 124.95 42.475 124.912 42.2375C124.85 41.775 124.812 41.3 124.812 40.825C124.812 40.5875 124.438 40.5875 124.438 40.825Z" fill="black"/>
<path d="M124.712 41.0125H148.975C149.212 41.0125 149.212 40.6375 148.975 40.6375C140.887 40.6375 132.8 40.6375 124.712 40.6375C124.475 40.6375 124.475 41.0125 124.712 41.0125Z" fill="black"/>
<path d="M148.75 40.975V41.8C148.75 42.0375 149.125 42.0375 149.125 41.8C149.125 41.525 149.125 41.25 149.125 40.975C149.125 40.725 148.75 40.725 148.75 40.975Z" fill="black"/>
<path d="M124.938 42.375H148.887C149.125 42.375 149.125 42 148.887 42C140.9 42 132.913 42 124.938 42C124.688 42 124.688 42.375 124.938 42.375Z" fill="black"/>
<path d="M124.9 36.5125C125.212 37.925 125.475 39.35 125.687 40.775C125.725 41.0125 126.087 40.9125 126.05 40.675C125.825 39.25 125.562 37.825 125.262 36.4125C125.2 36.175 124.85 36.275 124.9 36.5125Z" fill="#F66F5D"/>
<path d="M125.125 36.4875C126.762 36.5375 128.475 36.7375 130.112 36.5375C130.35 36.5125 130.35 36.1375 130.112 36.1625C128.475 36.3625 126.762 36.1625 125.125 36.1125C124.887 36.1 124.887 36.475 125.125 36.4875Z" fill="#F66F5D"/>
<path d="M129.925 36.6125C129.75 37.9625 129.587 39.3125 129.412 40.675C129.387 40.9125 129.762 40.9125 129.787 40.675C129.962 39.325 130.125 37.975 130.3 36.6125C130.325 36.375 129.95 36.375 129.925 36.6125Z" fill="#F66F5D"/>
<path d="M126.987 36.075C126.737 35.9625 126.437 35.85 126.25 35.65C125.925 35.325 125.95 34.8875 125.9 34.4625C125.825 33.9 125.512 33.4 125.475 32.825C125.375 32.875 125.287 32.9375 125.187 32.9875C126.35 33.7375 127.375 34.8 127.337 36.275C127.325 36.5125 127.7 36.5125 127.712 36.275C127.762 34.6625 126.65 33.4875 125.375 32.6625C125.262 32.5875 125.087 32.6875 125.087 32.825C125.112 33.1625 125.212 33.4625 125.325 33.7875C125.487 34.2375 125.487 34.675 125.575 35.1375C125.712 35.825 126.187 36.125 126.787 36.4C127.012 36.4875 127.2 36.175 126.987 36.075Z" fill="#F66F5D"/>
<path d="M127.35 34.4749C127.212 33.5249 127.837 32.6124 128.187 31.7749C128.462 31.1124 128.662 30.4374 128.625 29.7124C128.5 29.7249 128.375 29.7499 128.262 29.7624C128.725 31.9249 129.3 33.9749 128.312 36.0999C128.212 36.3124 128.537 36.5124 128.637 36.2874C129.087 35.3124 129.325 34.2624 129.275 33.1874C129.212 31.9999 128.875 30.8249 128.625 29.6624C128.587 29.4499 128.25 29.4999 128.262 29.7124C128.337 31.4499 126.737 32.8499 127 34.5749C127.025 34.8124 127.387 34.7124 127.35 34.4749Z" fill="#F66F5D"/>
<path d="M133.462 27.2375C133.612 31.7875 133.662 36.325 133.575 40.875C133.575 41.1125 133.95 41.1125 133.95 40.875C134.025 36.325 133.987 31.775 133.837 27.2375C133.837 26.9875 133.462 26.9875 133.462 27.2375Z" fill="#F66F5D"/>
<path d="M133.75 27.3C134.287 26.85 135.2 27.05 135.8 27.2375C136.025 27.3125 136.125 26.95 135.9 26.875C135.137 26.6375 134.137 26.4875 133.487 27.0375C133.3 27.1875 133.562 27.45 133.75 27.3Z" fill="#F66F5D"/>
<path d="M135.65 27.2375C135.675 31.725 135.7 36.2 135.725 40.6875C135.725 40.925 136.1 40.925 136.1 40.6875C136.075 36.2 136.05 31.725 136.025 27.2375C136.025 26.9875 135.65 26.9875 135.65 27.2375Z" fill="#F66F5D"/>
<path d="M134.025 30.2625C134.525 29.85 135.262 29.8875 135.725 30.325C135.9 30.4875 136.162 30.225 135.987 30.0625C135.362 29.475 134.412 29.4625 133.762 30C133.575 30.15 133.837 30.4125 134.025 30.2625Z" fill="#F66F5D"/>
<path d="M133.862 28.825C134.412 28.35 135.2 28.3375 135.775 28.775C135.975 28.925 136.15 28.5875 135.962 28.45C135.237 27.9125 134.262 27.9875 133.587 28.5625C133.412 28.725 133.687 28.9875 133.862 28.825Z" fill="#F66F5D"/>
<path d="M136.038 30.45C136.6 30.45 137.15 30.5125 137.7 30.65C137.65 30.5875 137.613 30.525 137.563 30.475C137.638 33.85 137.6 37.2125 137.425 40.5875C137.413 40.825 137.788 40.825 137.8 40.5875C137.975 37.225 138.013 33.85 137.938 30.475C137.938 30.4 137.875 30.3125 137.8 30.3C137.213 30.15 136.638 30.0875 136.038 30.0875C135.788 30.075 135.788 30.45 136.038 30.45Z" fill="#F66F5D"/>
<path d="M136.125 34C136.625 33.675 137.225 33.6625 137.738 33.9625C137.95 34.0875 138.138 33.7625 137.925 33.6375C137.3 33.2625 136.538 33.275 135.938 33.675C135.738 33.8 135.925 34.125 136.125 34Z" fill="#F66F5D"/>
<path d="M136.062 32.2125C136.5 32 137 31.9875 137.45 32.175C137.675 32.2625 137.862 31.95 137.637 31.85C137.05 31.6 136.45 31.6125 135.875 31.8875C135.662 32 135.85 32.325 136.062 32.2125Z" fill="#F66F5D"/>
<path d="M138.762 40.6251C138.762 40.4126 138.625 39.6376 138.75 39.4876C138.925 39.2751 139.887 39.3501 140.137 39.3376C141 39.2876 141.875 39.2501 142.737 39.2376C144.475 39.2126 146.212 39.2751 147.937 39.4126C147.875 39.3501 147.812 39.2876 147.75 39.2251C147.825 39.7876 147.862 40.3501 147.85 40.9251C147.85 41.1626 148.225 41.1626 148.225 40.9251C148.225 40.3501 148.2 39.7876 148.125 39.2251C148.112 39.1126 148.05 39.0501 147.937 39.0376C145.8 38.8751 143.637 38.8251 141.5 38.9001C141 38.9126 140.512 38.9376 140.012 38.9751C139.65 39.0001 138.975 38.9251 138.637 39.0876C138.15 39.3126 138.375 40.2251 138.387 40.6376C138.387 40.8626 138.762 40.8751 138.762 40.6251Z" fill="#F66F5D"/>
<path d="M140.05 38.9125C140.025 38.775 139.9 38.3625 139.925 38.225C140.012 37.85 140.375 37.9375 140.65 37.9375C141.1 37.925 141.562 37.925 142.012 37.9125C142.962 37.9 143.912 37.875 144.875 37.8625C145.787 37.85 146.7 37.825 147.612 37.8125C148.112 37.8 148.612 37.8 149.1 37.7875C149.45 37.7875 149.65 37.6625 149.762 38.1125C149.812 38.3125 149.775 38.575 149.762 38.775C149.75 39.0125 150.125 39.0125 150.137 38.775C150.15 38.45 150.25 37.8125 149.987 37.5375C149.75 37.3 149.262 37.4125 148.975 37.425C147.562 37.45 146.162 37.475 144.75 37.5C143.387 37.525 142.012 37.55 140.65 37.575C140.375 37.575 139.787 37.4625 139.587 37.7125C139.35 38 139.637 38.7125 139.687 39.025C139.737 39.25 140.1 39.15 140.05 38.9125Z" fill="#F66F5D"/>
<path d="M147.862 39.4C148.425 39.4125 149 39.425 149.562 39.3875C149.837 39.3625 150.112 39.2625 150.087 38.9375C150.062 38.7 149.687 38.7 149.712 38.9375C149.725 39.075 148.025 39.0375 147.862 39.025C147.625 39.0125 147.625 39.3875 147.862 39.4Z" fill="#F66F5D"/>
<path d="M141.15 37.65C141.137 37.4375 141.075 37.1499 141.1 36.9374C141.125 36.6874 141.062 36.6499 141.35 36.6124C141.75 36.5624 142.262 36.6999 142.662 36.7249C143.5 36.7874 144.35 36.825 145.187 36.8375C146.025 36.85 146.875 36.8499 147.712 36.8124C148.087 36.7999 148.537 36.6999 148.912 36.7499C149.087 36.6749 149.225 36.725 149.312 36.8875C149.45 36.95 149.5 37.0625 149.487 37.2C149.525 37.3 149.537 37.4249 149.575 37.5374C149.662 37.7624 150.025 37.6624 149.937 37.4374C149.825 37.1624 149.9 36.75 149.675 36.5125C149.475 36.3 149.187 36.3499 148.912 36.3624C147.675 36.4249 146.425 36.4625 145.187 36.45C143.987 36.425 142.787 36.3624 141.587 36.2499C141.337 36.2249 140.95 36.1249 140.775 36.3749C140.575 36.6749 140.75 37.3125 140.775 37.6375C140.8 37.8875 141.175 37.8875 141.15 37.65Z" fill="#F66F5D"/>
<path d="M150.737 50.025V55.5875C150.737 55.825 151.112 55.825 151.112 55.5875C151.112 53.7375 151.112 51.875 151.112 50.025C151.112 49.7875 150.737 49.7875 150.737 50.025Z" fill="#E8E8E8"/>
<path d="M151.05 50.025H160.8C161.037 50.025 161.037 49.65 160.8 49.65C157.55 49.65 154.3 49.65 151.05 49.65C150.812 49.65 150.812 50.025 151.05 50.025Z" fill="#E8E8E8"/>
<path d="M160.625 49.9V55.4625C160.625 55.7 161 55.7 161 55.4625C161 53.6125 161 51.75 161 49.9C161 49.6625 160.625 49.6625 160.625 49.9Z" fill="#E8E8E8"/>
<path d="M150.925 55.9H160.675C160.912 55.9 160.912 55.525 160.675 55.525C157.425 55.525 154.175 55.525 150.925 55.525C150.687 55.525 150.687 55.9 150.925 55.9Z" fill="#E8E8E8"/>
<path d="M155.175 49.65C155.175 49.325 155.2 49.025 155.288 48.7125C155.325 48.575 155.375 48.3625 155.463 48.2625C155.5 48.1375 155.588 48.1 155.738 48.15C155.938 48.0625 156.038 48.125 156.05 48.35C156.2 48.875 156.225 49.475 156.3 50.025C156.338 50.2625 156.7 50.1625 156.663 49.925C156.588 49.375 156.563 48.7875 156.413 48.25C156.338 47.95 156.113 47.6375 155.775 47.6125C154.938 47.5625 154.788 49.0875 154.788 49.65C154.813 49.8875 155.188 49.8875 155.175 49.65Z" fill="#E8E8E8"/>
<path d="M151.35 50.8375V54.9625C151.35 55.2 151.725 55.2 151.725 54.9625C151.725 53.5875 151.725 52.2125 151.725 50.8375C151.725 50.6 151.35 50.6 151.35 50.8375Z" fill="#E8E8E8"/>
<path d="M151.737 50.8375H160.237C160.475 50.8375 160.475 50.4625 160.237 50.4625C157.4 50.4625 154.562 50.4625 151.737 50.4625C151.5 50.4625 151.5 50.8375 151.737 50.8375Z" fill="#E8E8E8"/>
<path d="M160 50.7125V55.0875C160 55.325 160.375 55.325 160.375 55.0875C160.375 53.625 160.375 52.175 160.375 50.7125C160.375 50.475 160 50.475 160 50.7125Z" fill="#E8E8E8"/>
<path d="M151.612 55.15H159.737C159.975 55.15 159.975 54.775 159.737 54.775C157.025 54.775 154.312 54.775 151.612 54.775C151.375 54.775 151.375 55.15 151.612 55.15Z" fill="#E8E8E8"/>
<path d="M151.962 53.4875C152.237 53.0875 152.487 53 152.7 53.2C152.737 53.225 152.762 53.25 152.8 53.275C152.887 53.3125 152.95 53.375 153.037 53.4C153.187 53.45 153.362 53.4375 153.512 53.375C153.625 53.325 153.725 53.2375 153.762 53.1125C153.825 52.9125 153.675 52.875 153.662 52.7C153.6 52.625 153.625 52.55 153.737 52.45C153.762 52.1625 153.937 52.1 154.237 52.275C154.312 52.275 154.387 52.3 154.45 52.2875C154.675 52.25 154.7 52.175 154.862 52.0375C155.387 51.6125 155.975 51.825 156.112 52.5C156.125 52.5875 156.187 53.1625 156.087 53.225C155.987 53.1 155.887 52.9875 155.787 52.8625C156.112 52.9125 156.35 53.0875 156.487 53.3625C156.562 53.4875 156.725 53.475 156.812 53.3625C157.062 53.1 157.312 53.0875 157.562 53.3375C157.65 53.25 157.737 53.1625 157.825 53.075C157.725 52.9875 157.637 52.9 157.537 52.8125C157.212 52.5375 157.237 52.225 157.625 51.8625C158.15 51.8875 158.425 52.4 158.2 52.8625C157.912 53.425 157.225 53.5 156.662 53.45V53.825C157.475 53.875 158.3 53.925 159.112 53.975C159.35 53.9875 159.35 53.6125 159.112 53.6C158.3 53.55 157.475 53.5 156.662 53.45C156.425 53.4375 156.425 53.8 156.662 53.825C157.312 53.8875 158.025 53.7625 158.437 53.1875C158.762 52.725 158.737 52.025 158.262 51.6625C157.9 51.3875 157.35 51.4375 157.05 51.8C156.6 52.3625 157.125 52.975 157.55 53.35C157.725 53.5125 157.987 53.2625 157.812 53.0875C157.412 52.6625 156.8 52.7375 156.475 53.1875H156.8C156.487 52.675 155.9 52.3 155.312 52.6125C154.862 52.8625 154.7 53.5125 155.112 53.8875C155.537 54.275 156.15 53.975 156.375 53.5375C156.625 53.0375 156.575 52.25 156.212 51.8C155.85 51.35 155.212 51.3 154.762 51.6375C154.45 51.875 154.637 51.9125 154.112 51.875C153.937 51.8625 153.787 51.825 153.612 51.875C153.425 51.925 153.25 52.0375 153.162 52.225C153.1 52.3625 153.075 52.4875 153.137 52.6375C153.15 52.6875 153.287 52.8 153.275 52.8375C153.225 53.1125 152.5 52.6125 152.375 52.5875C151.812 52.5 151.437 53.1 151.6 53.5875C151.675 53.8125 152.037 53.725 151.962 53.4875Z" fill="#E8E8E8"/>
<path d="M162.675 42.925V47.225C162.675 47.4625 163.05 47.4625 163.05 47.225C163.05 45.7875 163.05 44.3625 163.05 42.925C163.05 42.6875 162.675 42.6875 162.675 42.925Z" fill="#E8E8E8"/>
<path d="M163.075 42.9H169.975C170.212 42.9 170.212 42.525 169.975 42.525C167.675 42.525 165.375 42.525 163.075 42.525C162.825 42.525 162.825 42.9 163.075 42.9Z" fill="#E8E8E8"/>
<path d="M162.962 47.525H169.862C170.1 47.525 170.1 47.15 169.862 47.15C167.562 47.15 165.262 47.15 162.962 47.15C162.725 47.15 162.725 47.525 162.962 47.525Z" fill="#E8E8E8"/>
<path d="M169.788 42.875V47.2875C169.788 47.525 170.163 47.525 170.163 47.2875C170.163 45.8125 170.163 44.35 170.163 42.875C170.163 42.625 169.788 42.625 169.788 42.875Z" fill="#E8E8E8"/>
<path d="M163.1 43.0875V47.175C163.1 47.4125 163.475 47.4125 163.475 47.175C163.475 45.8125 163.475 44.45 163.475 43.0875C163.475 42.8375 163.1 42.8375 163.1 43.0875Z" fill="#E8E8E8"/>
<path d="M163.237 47.2H169.825C170.062 47.2 170.062 46.825 169.825 46.825C167.625 46.825 165.437 46.825 163.237 46.825C162.987 46.825 162.987 47.2 163.237 47.2Z" fill="#E8E8E8"/>
<path d="M163.337 43.1625H169.712C169.95 43.1625 169.95 42.7875 169.712 42.7875C167.587 42.7875 165.462 42.7875 163.337 42.7875C163.1 42.7875 163.1 43.1625 163.337 43.1625Z" fill="#E8E8E8"/>
<path d="M169.625 43.025V46.95C169.625 47.1875 170 47.1875 170 46.95C170 45.6375 170 44.325 170 43.025C170 42.7875 169.625 42.7875 169.625 43.025Z" fill="#E8E8E8"/>
<path d="M164.55 46.2125C165.587 45.7125 166.762 45.475 167.812 46.0875C168.025 46.2125 168.212 45.8875 168 45.7625C166.837 45.075 165.525 45.325 164.362 45.8875C164.137 45.9875 164.337 46.3125 164.55 46.2125Z" fill="#E8E8E8"/>
<path d="M164.55 45.6875C164.325 45.4125 164.9 45.325 164.975 45.175C165.037 45.0625 164.95 44.7125 164.987 44.725C165.1 44.75 165.225 44.675 165.225 44.55C165.212 43.9625 165.85 44.9 165.825 44.8625C165.9 44.95 165.975 45.0375 166.1 45.0875C166.275 45.1625 166.65 44.9625 166.75 45.0375C166.862 45.1375 167.012 45.0875 167.062 44.95C167.162 44.9125 167.262 44.875 167.375 44.85C167.362 45.0125 167.587 45.1 167.7 44.9875C168.037 45.25 168.087 45.4625 167.837 45.6125C167.65 45.775 167.925 46.0375 168.1 45.875C168.425 45.6 168.65 45.125 168.35 44.7375C168.1 44.4125 167.687 44.4375 167.425 44.725C167.537 44.775 167.637 44.8125 167.75 44.8625C167.775 44.5875 167.612 44.3625 167.312 44.3375C166.987 44.3125 166.8 44.5875 166.7 44.8625C166.8 44.8375 166.912 44.8125 167.012 44.775C166.8 44.6 166.762 44.675 166.525 44.6625C165.887 44.6375 166.075 44.2375 165.662 44C165.25 43.7625 164.85 44.125 164.85 44.55C164.925 44.4875 165.012 44.425 165.087 44.375C164.9 44.3375 164.675 44.325 164.55 44.4875C164.412 44.6625 164.625 44.8 164.575 44.925C164.5 45.125 164.137 45.0625 164.05 45.325C163.962 45.575 164.137 45.8 164.287 45.975C164.437 46.15 164.7 45.875 164.55 45.6875Z" fill="#E8E8E8"/>
<path d="M166.05 42.4001C165.975 42.2376 165.937 42.0751 165.975 41.9001C165.987 41.7876 166.087 41.4251 166.262 41.4751C166.387 41.5126 166.512 41.8376 166.537 41.9501C166.6 42.1501 166.612 42.3376 166.587 42.5501C166.562 42.7876 166.937 42.7876 166.962 42.5501C167 42.2126 166.95 41.8876 166.787 41.5876C166.662 41.3376 166.425 41.0001 166.1 41.1001C165.85 41.1751 165.687 41.4876 165.625 41.7251C165.55 42.0251 165.587 42.3251 165.725 42.6001C165.837 42.8126 166.15 42.6251 166.05 42.4001Z" fill="#E8E8E8"/>
<path d="M163.225 49.3625V55.1C163.225 55.3375 163.6 55.3375 163.6 55.1C163.6 53.1875 163.6 51.275 163.6 49.3625C163.6 49.1125 163.225 49.1125 163.225 49.3625Z" fill="#E8E8E8"/>
<path d="M163.413 49.225H169.225C169.463 49.225 169.463 48.85 169.225 48.85C167.288 48.85 165.35 48.85 163.413 48.85C163.163 48.85 163.163 49.225 163.413 49.225Z" fill="#E8E8E8"/>
<path d="M169.038 49.0375V55.0875C169.038 55.325 169.413 55.325 169.413 55.0875C169.413 53.075 169.413 51.05 169.413 49.0375C169.413 48.8 169.038 48.8 169.038 49.0375Z" fill="#E8E8E8"/>
<path d="M163.562 55.525H169.062C169.3 55.525 169.3 55.15 169.062 55.15C167.225 55.15 165.4 55.15 163.562 55.15C163.325 55.15 163.325 55.525 163.562 55.525Z" fill="#E8E8E8"/>
<path d="M165.275 51.275C165.187 52 165.65 52.7875 166.425 52.875C167.237 52.9625 167.837 52.3375 167.812 51.55C167.8 51.3125 167.425 51.3125 167.437 51.55C167.462 52.1375 167.012 52.6125 166.4 52.4875C165.837 52.375 165.6 51.8 165.65 51.275C165.675 51.0375 165.3 51.0375 165.275 51.275Z" fill="#E8E8E8"/>
<path d="M166.537 52.7875C166.512 52.9625 166.625 53.1 166.575 53.2625C166.5 53.5125 166.175 53.75 166.012 53.9375C165.737 54.2625 165.537 54.5875 165.525 55.025C165.512 55.2625 165.887 55.2625 165.9 55.025C165.925 54.45 166.412 54.1125 166.737 53.6875C166.837 53.5625 166.937 53.425 166.975 53.275C167.012 53.1 166.887 52.9625 166.912 52.7875C166.937 52.55 166.562 52.55 166.537 52.7875Z" fill="#E8E8E8"/>
<path d="M165.675 52.775C165.237 52.75 164.412 52.475 164.612 51.8625C164.712 51.5375 165.125 51.525 165.3 51.3C165.537 51.0125 165.337 50.85 165.15 50.6375C164.975 50.4375 164.612 50.3625 165.1 49.925C165.375 49.675 165.825 49.9875 166.05 50.175C166.187 50.3 166.212 50.4375 166.4 50.525C166.525 50.5875 166.687 50.6125 166.825 50.5625C167.05 50.4625 167.3 49.8 167.537 50.625C167.562 50.725 167.675 50.7875 167.762 50.75C167.775 51.0125 167.787 51.2625 167.787 51.525C167.637 51.7125 167.9 51.975 168.05 51.7875C168.287 51.4875 168.562 51.1125 168.387 50.7125C168.25 50.4125 167.95 50.3 167.65 50.3875C167.725 50.425 167.8 50.475 167.875 50.5125C167.775 50.175 167.612 49.825 167.225 49.8C167.1 49.7875 166.987 49.8125 166.887 49.875C166.912 49.8625 166.737 50.0625 166.737 50.0625C166.475 50.2 166.4 49.9625 166.25 49.8125C165.987 49.525 165.775 49.3625 165.35 49.425C165.025 49.475 164.562 49.7 164.45 50.0375C164.312 50.4375 164.65 50.55 164.8 50.85C164.962 50.9125 164.962 50.9875 164.787 51.075C164.75 51.15 164.7 51.1875 164.637 51.2125C164.587 51.25 164.512 51.275 164.462 51.325C164.362 51.4375 164.287 51.55 164.237 51.6875C163.95 52.6 164.887 53.0875 165.637 53.1375C165.912 53.1625 165.912 52.7875 165.675 52.775Z" fill="#E8E8E8"/>
<path d="M165.812 49C165.8 48.8125 165.737 48.475 165.962 48.3625C166.2 48.25 166.162 48.6125 166.137 48.7375C166.087 48.975 166.45 49.075 166.5 48.8375C166.537 48.6375 166.562 48.4125 166.462 48.225C166.362 48.05 166.175 47.95 165.987 47.975C165.475 48.0375 165.412 48.5875 165.45 49C165.45 49.2375 165.825 49.2375 165.812 49Z" fill="#E8E8E8"/>
<path d="M163.688 49.325V54.8375C163.688 55.075 164.062 55.075 164.062 54.8375C164.062 53 164.062 51.1625 164.062 49.325C164.062 49.075 163.688 49.075 163.688 49.325Z" fill="#E8E8E8"/>
<path d="M163.912 55.1125H168.9C169.137 55.1125 169.137 54.7375 168.9 54.7375C167.237 54.7375 165.575 54.7375 163.912 54.7375C163.675 54.7375 163.675 55.1125 163.912 55.1125Z" fill="#E8E8E8"/>
<path d="M169.038 54.975C169.038 53.05 169.038 51.1125 169.038 49.1875C169.038 48.95 168.663 48.95 168.663 49.1875V54.975C168.663 55.2125 169.038 55.2125 169.038 54.975Z" fill="#E8E8E8"/>
<path d="M164 49.375H168.937C169.175 49.375 169.175 49 168.937 49C167.287 49 165.65 49 164 49C163.762 49 163.762 49.375 164 49.375Z" fill="#E8E8E8"/>
<path d="M94.15 116.925C93.3125 116.25 92.175 116.113 91.25 116.575C90.1625 117.125 89.575 118.413 89.85 119.7C90.075 121.413 90.3 123.138 90.525 124.85C85.9625 126.938 83.7875 128.3 83.975 128.925C84.2 129.688 87.9 129.363 95.0875 127.975C94.775 124.288 94.4625 120.613 94.15 116.925Z" fill="#191919"/>
<path d="M91.1002 76.35C90.9252 78.8625 90.6377 82.9375 90.1502 87.9875C89.5502 94.325 89.3002 100.713 88.4502 107.025C87.5752 113.575 86.6127 118.063 88.8252 119.625C89.6252 120.188 90.5877 120.188 91.2752 120.1C92.0002 119.913 92.7252 119.713 93.4502 119.525C94.1627 119.875 95.1252 120.213 95.9002 119.813C98.1752 118.65 96.0252 112.688 96.1877 104.138C96.3002 98.5 97.3877 92.875 98.8377 85.4875C99.9377 79.85 100.775 76.925 99.2127 75.4875C97.3127 73.725 93.1002 75.4125 91.1002 76.35Z" fill="white" stroke="#161616" stroke-miterlimit="10"/>
<path opacity="0.14" d="M94.6874 75.175C95.1624 77.3875 95.6999 80.7375 95.6624 84.8125C95.5999 91.3875 94.0624 95.5375 92.9499 100.475C91.9374 104.95 90.9624 111.475 91.3999 119.888C92.0624 119.763 92.7374 119.625 93.3999 119.5C93.5499 119.613 94.1624 120.025 95.0124 119.95C95.1374 119.938 95.9624 119.85 96.4999 119.238C97.1624 118.488 97.0249 117.375 96.9499 116.838C96.6624 114.5 96.5999 112.138 96.3624 109.788C96.1124 107.313 96.1499 105.388 96.1624 104.225C96.1749 103.35 96.2374 101.713 96.5499 99.05C97.0999 94.4125 97.5999 93.625 98.6874 86.8875C99.5124 81.8125 99.1499 82.7375 99.4624 81.5875C99.7499 80.5625 100.237 79.075 99.9749 77.1875C99.8499 76.3 99.6249 75.8 99.2624 75.4375C98.5124 74.7 97.3999 74.7125 96.7374 74.725C95.8499 74.7375 95.1249 74.9875 94.6874 75.175Z" fill="#6D6C6C"/>
<path opacity="0.1" d="M98.25 87.925C97.3125 90 96.325 92.725 95.725 96.0125C94.675 101.813 95.7125 104.763 94.825 110.963C94.5 113.25 93.8875 116.125 92.6875 119.375C93.1375 119.438 93.5875 119.5 94.05 119.575C94.725 119.813 95.575 119.988 96.1875 119.575C97.2875 118.838 96.9125 116.675 96.6375 114.138C96.6375 114.138 96.3 111.013 96.25 105.075C96.225 101.788 96.525 99.3625 96.9625 95.825C97.35 92.65 97.825 89.9625 98.25 87.925Z" fill="#6D6C6C"/>
<path d="M109.925 115.975C109.087 115.3 107.95 115.162 107.025 115.625C105.937 116.175 105.35 117.462 105.625 118.75C105.85 120.462 106.075 122.187 106.3 123.9C101.737 125.987 99.5624 127.35 99.7499 127.975C99.9749 128.737 103.675 128.412 110.862 127.025C110.537 123.337 110.225 119.662 109.925 115.975Z" fill="#191919"/>
<path d="M105.262 75.9625C105.987 81.9 106.762 88.025 107.587 94.3875C108.15 98.7625 108.287 99.8 108.725 101.5C109.475 104.45 110.487 106.962 111.362 111.525C111.775 113.65 111.987 115.375 111 116.675C110.262 117.65 108.825 118.425 108.5 118.125C108.362 117.987 108.45 117.637 108.575 117.325C108.275 117.612 106.375 119.4 104.862 118.775C103.975 118.412 103.612 117.375 103.437 116.812C101.662 111.375 101.375 105.925 101.375 105.925C101.262 103.825 100.987 101.675 100.45 97.3625C100.05 94.2 99.2998 89.625 97.6873 84.0625C97.4498 83.9125 95.1248 82.3625 94.9748 79.5C94.9623 79.2875 94.8748 77.125 96.2373 75.6625C98.0373 73.725 101.887 73.5875 105.262 75.9625Z" fill="white" stroke="#161616" stroke-miterlimit="10"/>
<path d="M95.1748 77.4625C94.7248 78.7625 94.5998 80.225 95.3123 81.4625C95.9248 82.525 96.9123 83.6875 98.1123 84.0625C98.3373 84.1375 98.4373 83.775 98.2123 83.7C97.1123 83.3625 96.1873 82.25 95.6373 81.275C94.9748 80.125 95.1248 78.775 95.5373 77.5625C95.6248 77.3375 95.2623 77.2375 95.1748 77.4625Z" fill="white"/>
<path d="M94.8001 79.7875C94.9126 81.7375 96.1626 83.3625 98.0626 83.9C98.3001 83.9625 98.4001 83.6 98.1626 83.5375C96.4376 83.05 95.2876 81.575 95.1751 79.7875C95.1626 79.55 94.7876 79.55 94.8001 79.7875Z" fill="white"/>
<path opacity="0.14" d="M100.337 74.3375C100.662 75.3125 101.162 76.8875 101.712 78.8375C103.312 84.4875 106.075 94.275 106.25 106.05C106.275 108.013 106.35 118 107.25 118.05C107.462 118.063 107.812 117.513 108.287 117.638C108.612 117.725 108.625 118.025 108.912 118.138C109.537 118.375 110.575 117.3 111.075 116.513C111.25 116.238 111.65 115.613 111.737 114.725C111.787 114.325 111.75 114.038 111.612 113.188C111.412 111.875 111.312 111.225 111.237 110.9C110.7 108.363 109.737 105.925 108.95 102.488C108.612 101.038 108.387 99.7375 108.112 98.2375C108.025 97.7625 107.787 96.375 107.525 94.65C106.937 90.7 106.75 87.9875 106.362 84.525C106.15 82.6375 105.825 79.975 105.325 76.7375C105.2 76.4625 104.975 76.0375 104.575 75.65C104.437 75.525 104.012 75.1375 102.862 74.775C102.3 74.575 101.437 74.3625 100.337 74.3375Z" fill="#6D6C6C"/>
<path opacity="0.2" d="M108.462 100.625C109.15 103.825 109.612 106.563 109.925 108.713C110.425 112.213 110.45 113.488 109.8 114.838C108.825 116.875 106.8 118.087 106.925 118.25C106.975 118.312 107.3 118.188 108.425 117.463C108.462 117.763 108.55 118.1 108.8 118.213C109.437 118.488 110.85 117.113 111.462 115.8C112.3 113.988 111.687 112.125 111.125 110.338C110.425 108.075 109.487 104.85 108.462 100.625Z" fill="#6D6C6C"/>
<path d="M91.8375 54.7125C90.6124 54.55 89.4875 56.15 87.3 59.3375C85.8 61.5125 84.7499 63.425 84.0624 64.75C82.5749 64.675 81.0874 64.6 79.5999 64.5125C78.2124 64.4375 76.8249 64.3625 75.4374 64.275C74.8874 64.0875 74.0625 63.8125 73.05 63.575C71.4125 63.175 68.0249 62.5125 67.8124 63.1C67.7499 63.2875 67.975 63.675 69.425 64.5875C69.325 64.8375 68.9625 65.8875 69.425 67.1C69.5 67.2875 69.9124 68.3 70.8874 68.825C72.1374 69.4875 73.8624 69.125 75.1249 67.8875C76.0999 68.475 81.3875 71.5625 86.3625 69.45C87.9875 68.7625 89.1249 67.7125 90.1374 66.7875C91.9749 65.1 94.3874 62.8875 94.4499 59.8125C94.4999 57.5875 93.3249 54.9125 91.8375 54.7125Z" fill="white" stroke="#161616" stroke-miterlimit="10"/>
<path d="M67.7124 63.25C68.1999 63.7375 68.6749 64.2625 69.2249 64.675C69.7624 65.075 70.3749 65.3 70.9999 65.5125C71.1749 65.575 71.2499 65.3 71.0749 65.2375C70.4124 65.0125 69.7749 64.7625 69.2249 64.3125C68.7499 63.925 68.3374 63.475 67.9124 63.05C67.7874 62.925 67.5874 63.125 67.7124 63.25Z" fill="#161616"/>
<path d="M73.6251 64.5375C73.1501 64.7125 72.7126 64.9875 72.3751 65.3625C72.1376 65.625 71.7876 66.0375 71.8751 66.4125C71.9626 66.8375 72.4876 66.8375 72.8376 66.8375C73.4001 66.825 73.9376 66.6625 74.4251 66.375C74.5751 66.2875 74.4376 66.0375 74.2876 66.1375C73.9751 66.325 73.6376 66.4625 73.2751 66.525C72.9626 66.575 72.0501 66.6875 72.2126 66.1C72.3751 65.5 73.1751 65.0125 73.7126 64.8125C73.8626 64.75 73.7876 64.475 73.6251 64.5375Z" fill="#161616"/>
<path d="M69.2627 64.8125C69.0002 65.65 69.0002 66.4625 69.9002 66.8625C70.5627 67.1625 71.5252 67.0125 71.8627 66.3C71.9377 66.1375 71.7002 66 71.6252 66.1625C71.3502 66.75 70.5627 66.85 70.0127 66.6C69.2502 66.2625 69.3252 65.575 69.5377 64.8875C69.5877 64.7125 69.3252 64.6375 69.2627 64.8125Z" fill="#161616"/>
<path d="M69.2001 66.6625C69.2501 67.375 69.6876 68.075 70.4376 68.2125C71.1001 68.3375 71.7126 67.9375 71.9501 67.3375C72.0126 67.175 71.7501 67.1 71.6751 67.2625C71.4751 67.7625 70.9126 68.0625 70.3751 67.9125C69.8251 67.75 69.5126 67.2 69.4751 66.6625C69.4751 66.4875 69.1876 66.4875 69.2001 66.6625Z" fill="#161616"/>
<path d="M71.8998 67.475C72.8748 67.3 72.5498 69.0375 71.8373 68.975C71.6623 68.9625 71.6623 69.2375 71.8373 69.2625C72.4373 69.3125 72.7623 68.575 72.7998 68.075C72.8373 67.525 72.3623 67.125 71.8248 67.225C71.6498 67.2375 71.7248 67.5 71.8998 67.475Z" fill="#161616"/>
<path d="M71.8251 66.4625C71.8251 66.45 71.8376 66.45 71.8376 66.4375C71.7876 66.45 71.7501 66.4625 71.7001 66.475C71.8001 66.5 71.8126 66.825 71.8001 66.8875C71.7876 67.05 71.7251 67.2 71.6001 67.325C71.4751 67.45 71.6751 67.65 71.8001 67.525C71.9876 67.3375 72.0876 67.075 72.0751 66.8C72.0626 66.6 72.0001 66.25 71.7626 66.2C71.7126 66.1875 71.6626 66.2 71.6251 66.2375C71.6251 66.25 71.6126 66.25 71.6126 66.2625C71.5126 66.4 71.7001 66.6 71.8251 66.4625Z" fill="#161616"/>
<path d="M71.1498 65.5375C71.4498 65.55 71.6373 65.8375 71.5623 66.125C71.5123 66.3 71.7873 66.375 71.8373 66.2C71.9623 65.7375 71.6498 65.275 71.1623 65.2625C70.9623 65.25 70.9623 65.5375 71.1498 65.5375Z" fill="#161616"/>
<path opacity="0.12" d="M93.6875 56.725C93.325 57.7875 92.725 59.225 91.775 60.8C90.8 62.4125 89.7125 64.2 87.6 65.7C86.825 66.25 84.4875 67.875 81.025 68C77.7625 68.1125 75.3625 66.8375 74.4125 66.2625C73.6625 66.825 73.15 66.8625 72.8125 66.7875C72.5125 66.7125 72.4 66.5625 71.875 66.4C71.425 66.2625 71.0625 66.2375 70.8625 66.225C70.1375 66.175 69.3875 66.125 69.1875 66.4625C68.925 66.925 69.775 67.9125 70.4375 68.45C70.7375 68.6875 71.2625 69.1 72 69.2125C73.7375 69.4875 75.025 67.975 75.1 67.8875C75.525 68.15 76.1375 68.5125 76.9125 68.8625C78.175 69.45 79.9625 70.2625 82.3375 70.25C85.0375 70.25 86.9875 69.1875 87.3875 68.9625C87.8625 68.6875 88.75 67.9125 90.5125 66.35C92.15 64.9 92.75 64.2625 93.3 63.3875C93.625 62.875 94.0375 62.2125 94.275 61.3C94.7875 59.35 94.1 57.575 93.6875 56.725Z" fill="#6D6C6C"/>
<path opacity="0.15" d="M94.3502 58.225C94.1127 59.05 93.7002 60.2125 92.9877 61.5C92.3252 62.7 90.5752 65.7875 86.8627 67.6875C85.7627 68.25 83.8627 69.2 81.2252 69.15C78.3002 69.0875 76.2002 67.8375 75.3127 67.2375C74.8127 67.55 74.0627 67.95 73.0877 68.2125C71.7877 68.55 70.8502 68.4375 70.8252 68.625C70.8002 68.8125 71.7002 69.2125 72.6377 69.1875C73.9502 69.15 74.8752 68.2875 75.2127 67.9375C76.0752 68.5625 79.3002 70.7625 83.5252 70.2C86.7877 69.7625 88.8502 67.925 90.6627 66.3C92.0127 65.0875 93.5752 63.65 94.1752 61.25C94.4877 60.025 94.4377 58.95 94.3502 58.225Z" fill="#6D6C6C"/>
<path d="M90.5124 54.7625C90.2624 55.05 89.8249 55.6625 89.4499 58.5875C88.9499 62.5625 89.2124 65.7125 89.4499 68.0625C89.7249 70.85 90.1124 74.2125 90.6749 78.0375C92.8499 78.7125 96.4624 79.475 100.8 78.7875C102.762 78.475 104.437 77.9375 105.787 77.375C105.5 74.25 105.537 71.725 105.625 70.0625C106.05 61.475 106.437 59.0875 106.437 59.0875C106.725 57.375 106.987 56.3125 106.35 55.35C105.712 54.3625 104.5 54.025 100.637 53.775C94.7749 53.375 91.8249 53.2125 90.5124 54.7625Z" fill="#F66F5D"/>
<path opacity="0.14" d="M98.9502 53.8C99.3377 55.175 99.6627 56.6375 99.9377 58.1875C101.363 66.3375 100.363 73.5625 98.9502 78.95C99.6752 78.9 100.438 78.8126 101.25 78.6751C102.975 78.3876 104.488 77.9375 105.738 77.475C105.563 74.9875 105.513 72.8626 105.513 71.1751C105.525 66.4626 105.938 62.8625 106.113 61.425C106.338 59.675 106.575 58.2126 106.775 57.1501C106.825 56.8501 106.875 56.3 106.613 55.725C106.313 55.0625 105.75 54.7126 105.513 54.5751C104.7 54.0876 103.875 54.0876 103.425 54.0876C102.35 54.0501 100.925 53.9875 98.9502 53.8Z" fill="#6D6C6C"/>
<path opacity="0.16" d="M106.675 56.75C104.463 62.4875 104 66.5875 104.05 69.35C104.063 70.3875 104.175 72.875 102.85 75.4875C102.038 77.075 100.975 78.1875 100.163 78.8875C100.913 78.7875 101.738 78.6375 102.625 78.4C103.763 78.1 104.75 77.725 105.588 77.3625C105.475 74.1375 105.488 70.6375 105.7 66.9C105.888 63.25 106.238 59.8625 106.675 56.75Z" fill="#6D6C6C"/>
<path d="M104.975 54.8C106.513 54.125 108.6 56.1 109.95 57.3625C111.425 58.75 114.413 61.5625 114.563 66.1625C114.688 70 112.775 72.775 111.825 73.9375C110.338 75.75 108.65 76.7 107.65 77.1625C107.638 77.5875 107.575 78.2625 107.288 79C107.125 79.4 106.3 81.5 104.725 81.5875C104.513 81.6 103.788 81.6 102.95 80.8125C102.9 80.8125 102.65 80.775 102.488 80.55C102.338 80.3375 102.325 80.025 102.475 79.775C102.438 79.75 102.113 79.5875 102.038 79.2C101.95 78.775 102.238 78.4625 102.263 78.45C102.275 78.2375 102.325 77.9625 102.525 77.825C102.75 77.675 102.988 77.8 103.35 77.775C103.588 77.75 103.925 77.6625 104.325 77.3125C103.875 77.1875 102.863 76.8625 102.888 76.5C102.9 76.075 104.363 75.825 104.688 75.7625C105.488 75.625 106.175 75.65 106.638 75.6875C106.913 75.1875 107.313 74.45 107.788 73.5625C108.588 72.0625 108.988 71.3125 109.225 70.775C109.675 69.775 110.175 68.2625 110.313 66.15C109.75 65.6 108.888 64.8125 107.788 63.95C105.413 62.1 104.613 62.0625 103.963 61.0125C102.738 59.05 103.325 55.525 104.975 54.8Z" fill="white" stroke="#161616" stroke-miterlimit="10"/>
<path d="M102.137 78.3C102.337 79.275 103.837 79.05 104.437 78.7C104.587 78.6125 104.45 78.3625 104.3 78.4625C103.862 78.725 102.562 79.0125 102.412 78.2375C102.375 78.05 102.1 78.125 102.137 78.3Z" fill="#161616"/>
<path d="M102.288 79.8625C103.038 80.4 104.138 80.15 104.925 79.7875C105.088 79.7125 104.95 79.475 104.788 79.55C104.088 79.8625 103.1 80.0875 102.438 79.625C102.288 79.5125 102.15 79.7625 102.288 79.8625Z" fill="#161616"/>
<path d="M102.85 80.9625C103.625 81.3375 104.525 81.2875 105.237 80.7875C105.387 80.6875 105.25 80.4375 105.1 80.55C104.475 80.9875 103.687 81.0625 103 80.725C102.837 80.6375 102.687 80.875 102.85 80.9625Z" fill="#161616"/>
<path opacity="0.18" d="M104.438 55.275C104.188 56.125 107.113 56.9375 109.675 59.6875C110.563 60.6375 112.375 62.575 112.8 65.45C113.338 69.0125 111.475 71.8625 110.788 72.8875C109.463 74.9 107.85 76.0875 106.875 76.7C106.875 77.05 106.825 78.325 105.85 79.4C105.65 79.625 104.863 80.4875 103.713 80.6125C103.05 80.6875 102.45 80.5 102.425 80.575C102.413 80.65 102.875 80.75 103.475 81.1625C103.863 81.425 103.875 81.5375 104.063 81.625C104.838 81.9875 106.063 80.8875 106.2 80.775C107.475 79.6125 107.625 77.8875 107.65 77.25C107.938 77.0875 108.325 76.8625 108.775 76.5625C109.238 76.25 110.6 75.35 111.675 74.1625C111.963 73.85 113.425 72.1875 114.138 69.525C114.388 68.5875 115.075 65.875 113.975 62.9125C113.488 61.625 112.863 60.7875 111.738 59.325C110.738 58.0125 110 57.3625 108.575 56.1C107.55 55.1875 106.938 54.7625 106.113 54.7125C105.55 54.675 104.575 54.8125 104.438 55.275Z" fill="#6D6C6C"/>
<path opacity="0.18" d="M113 61C113.425 62.05 114.037 63.9625 113.95 66.4C113.862 69.05 113 70.975 112.662 71.6375C111.112 74.7625 108.662 76.4375 107.462 77.1375C108.437 76.775 109.85 76.0875 111.187 74.8C115.1 71.025 114.525 65.7 114.475 65.325C114.25 63.45 113.575 61.9875 113 61Z" fill="#6D6C6C"/>
<path d="M98.675 45.175C99.425 47.6875 99.7 49.15 100.762 51.45C101.262 52.525 101.737 53.375 102.075 53.9375C100.987 54.45 99.225 55.1125 96.9625 55.2C95.625 55.25 94.475 55.075 93.5875 54.875C93.675 54.1875 93.725 53.325 93.6625 52.35C93.575 51.125 93.3125 50.0875 93.0625 49.325C91.8625 49.175 90.65 49.0125 89.45 48.8625C89.2125 48.3375 88.975 47.8 88.7375 47.275C88.4125 47.2625 88.075 47.25 87.75 47.2375C88 46.5125 88.375 45.375 88.8125 43.9625C89.625 41.3 89.6125 40.925 90.05 40.325C91.2625 38.6875 93.975 37.6375 95.7625 38.525C96.825 39.0375 97.45 41.0875 98.675 45.175Z" fill="white" stroke="#161616" stroke-miterlimit="10"/>
<path d="M87.7748 47.4375C88.3998 47.45 89.0123 47.4 89.6248 47.3125C89.8623 47.275 89.7623 46.9125 89.5248 46.95C88.9373 47.0375 88.3623 47.075 87.7748 47.0625C87.5373 47.0625 87.5373 47.4375 87.7748 47.4375Z" fill="#161616"/>
<path d="M87.5373 42.6625C87.8873 42.475 88.3498 42.575 88.5748 42.9C88.7123 43.1 89.0373 42.9125 88.8998 42.7125C88.5498 42.2125 87.8873 42.05 87.3498 42.3375C87.1373 42.45 87.3248 42.775 87.5373 42.6625Z" fill="#161616"/>
<path d="M90.4877 43.1C90.9377 42.9625 91.4252 43.1125 91.6877 43.5125C91.8252 43.7125 92.1502 43.525 92.0127 43.325C91.6502 42.8 91.0002 42.55 90.3877 42.75C90.1627 42.8125 90.2502 43.175 90.4877 43.1Z" fill="#161616"/>
<path d="M90.5749 44.5C90.5624 44.3625 90.5874 44.225 90.6624 44.1C90.6749 44.075 90.6999 44.0375 90.7249 44.0125C90.6749 43.95 90.6499 43.9375 90.6624 44C90.6374 44.025 90.6499 44.15 90.6374 44.1875C90.6249 44.25 90.5999 44.3125 90.5749 44.375C90.5624 44.4 90.5499 44.425 90.5374 44.4375C90.5999 44.55 90.6374 44.5625 90.6624 44.475C90.7124 44.425 90.7374 44.3125 90.7749 44.25C90.8124 44.175 90.8499 44.1 90.8874 44.025C90.9874 43.8375 90.7499 43.65 90.5874 43.8C90.4999 43.8875 90.4499 43.975 90.4124 44.0875C90.3499 44.325 90.7124 44.425 90.7749 44.1875C90.7874 44.125 90.8124 44.1 90.8499 44.0625C90.7499 43.9875 90.6499 43.9125 90.5499 43.8375C90.4624 44.0125 90.3624 44.1875 90.2874 44.375C90.2249 44.5125 90.2374 44.675 90.3749 44.7625C90.7124 44.975 90.9249 44.5375 90.9874 44.275C91.0374 44.025 91.0374 43.5 90.6249 43.6125C90.2999 43.7125 90.1749 44.1875 90.1874 44.475C90.2124 44.7375 90.5874 44.7375 90.5749 44.5Z" fill="#161616"/>
<path d="M89.6123 40.975C89.6998 40.4375 89.9123 39.5375 90.4998 38.6125C90.7123 38.2875 91.1498 37.6 91.8623 37.1375C93.2248 36.25 95.3123 36.325 96.8248 37.4125C98.3123 38.475 99.0498 40.375 98.7248 42.275C95.6998 41.85 92.6498 41.4125 89.6123 40.975Z" fill="#F66F5D"/>
<path d="M84.6377 41.0125C89.3252 41.6 94.0002 42.1875 98.6877 42.775C99.4002 42.8625 99.4002 41.7375 98.6877 41.65C94.0002 41.0625 89.3252 40.475 84.6377 39.8875C83.9127 39.8 83.9252 40.925 84.6377 41.0125Z" fill="#161616"/>
<path d="M95.7002 42.15C94.8752 42.45 94.3877 43.025 93.8377 43.6875C92.6627 45.1125 93.0127 45.6375 92.1877 46.525C90.8752 47.9375 89.5377 47.1 88.3627 48.4875C87.3627 49.6625 87.5002 51.25 87.5377 51.6125C87.5752 51.9625 87.7502 53.375 88.9127 54.35C89.9252 55.1875 91.2752 55.375 91.3627 55.1875C91.3877 55.125 91.2877 54.95 90.5377 54.45C90.7502 54.6 91.1002 54.7875 91.5377 54.875C92.0502 54.9625 92.5377 54.875 92.5377 54.8C92.5377 54.7375 92.2627 54.75 92.0502 54.525C91.9252 54.3875 91.8752 54.2375 91.8377 54.1C92.2502 54.3625 92.7627 54.6 93.2502 54.45C94.5877 54.05 94.8252 51.0875 94.9002 50.1C95.1502 46.925 94.2377 45.1875 95.3502 44.0625C95.4377 43.9625 95.8877 43.5125 96.3877 43.6125C97.0127 43.725 97.4877 44.6875 97.2877 45.325C97.1127 45.875 96.4877 46.025 96.5252 46.1375C96.5877 46.2625 97.6377 46.0625 98.5252 45.3625C98.8502 45.1125 99.1127 44.9 99.2502 44.525C99.4877 43.8625 99.2127 43.1125 98.8377 42.6625C98.0627 41.7625 96.6002 41.825 95.7002 42.15Z" fill="#161616" stroke="#161616" stroke-width="2" stroke-miterlimit="10"/>
<path opacity="0.22" d="M96.9373 46.25C96.7373 46.275 96.4498 46.275 96.4373 46.2125C96.4248 46.175 96.4998 46.125 96.4998 46.125C96.4998 46.125 96.2623 46.425 95.9623 46.4625C95.8248 46.475 95.6998 46.4375 95.6123 46.3875C96.1373 47.5 96.6748 48.8375 97.1373 50.3875C97.6373 52.0875 97.9248 53.625 98.0873 54.95C98.6248 54.95 99.3873 54.8874 100.262 54.6124C100.975 54.3874 101.537 54.0875 101.962 53.825C100.837 52.0625 100.262 50.65 99.9373 49.6875C99.7873 49.2375 99.4623 48.175 99.3123 47.65C99.0248 46.7 98.7873 45.9125 98.6373 45.3875C98.5623 45.4625 98.4248 45.575 98.2623 45.6875C98.0248 45.8625 97.5623 46.1875 96.9373 46.25Z" fill="#6D6C6C"/>
<path d="M93.5752 36.5875C94.7877 36.825 95.7002 37.8 95.8502 38.9375C96.0127 40.3 95.0127 41.2375 94.9127 41.3125C96.2127 41.475 97.5002 41.625 98.8002 41.7875C98.8252 41.4875 98.8377 41.075 98.7502 40.6C98.5002 39.075 97.6002 38.125 97.4127 37.9375C97.1127 37.6375 96.0502 36.625 94.4627 36.5375C94.1002 36.525 93.7877 36.5625 93.5752 36.5875Z" fill="#FF4B33"/>
<path d="M66.0625 91.3C66.125 91.975 66.175 92.6625 66.2375 93.3375L129.875 93.45C130.062 92.775 130.25 92.0875 130.438 91.4125C108.987 91.375 87.525 91.3375 66.0625 91.3Z" fill="white"/>
<path d="M66.9126 91.3875H67.5876C67.8251 91.3875 67.8251 91.0125 67.5876 91.0125C67.3626 91.0125 67.1376 91.0125 66.9126 91.0125C66.6626 91.0125 66.6626 91.3875 66.9126 91.3875Z" fill="#161616"/>
<path d="M66.2249 91.75H91.3124C91.3124 91.75 108.037 91.75 116.4 91.75H130.625C131.112 91.75 131.112 91 130.625 91C122.262 91 113.9 91 105.537 91C97.1749 91 88.8124 91 80.4499 91C75.7124 91 70.9624 91 66.2249 91C65.7499 91 65.7499 91.75 66.2249 91.75Z" fill="#161616"/>
<path d="M66.3998 93.6H115.8H129.775C130.262 93.6 130.262 92.85 129.775 92.85C113.312 92.85 96.8373 92.85 80.3748 92.85C75.7123 92.85 71.0623 92.85 66.3998 92.85C65.9123 92.85 65.9123 93.6 66.3998 93.6Z" fill="#161616"/>
<path d="M68.3877 95.425V126.837V135.812C68.3877 136.3 69.1377 136.3 69.1377 135.812C69.1377 125.337 69.1377 114.862 69.1377 104.4C69.1377 101.412 69.1377 98.4125 69.1377 95.425C69.1377 94.95 68.3877 94.95 68.3877 95.425Z" fill="#161616"/>
<path d="M120.612 94.925V123.362V131.437C120.612 131.925 121.362 131.925 121.362 131.437C121.362 121.962 121.362 112.475 121.362 103C121.362 100.312 121.362 97.625 121.362 94.925C121.362 94.4375 120.612 94.4375 120.612 94.925Z" fill="#161616"/>
<path d="M16.725 127.062H45.325H74.05H90.1625C90.65 127.062 90.65 126.312 90.1625 126.312C80.625 126.312 71.1 126.312 61.5625 126.312C51.9875 126.312 42.4125 126.312 32.8375 126.312C27.4625 126.312 22.1 126.312 16.725 126.312C16.2375 126.312 16.2375 127.062 16.725 127.062Z" fill="#161616"/>
<path d="M104.538 127.4H129.875H155.087H169.438C169.925 127.4 169.925 126.65 169.438 126.65C160.987 126.65 152.55 126.65 144.1 126.65C135.7 126.65 127.287 126.65 118.887 126.65C114.1 126.65 109.325 126.65 104.538 126.65C104.05 126.65 104.05 127.4 104.538 127.4Z" fill="#161616"/>
<path d="M68.5376 95.4125V126.137V134.887C68.5376 135.375 69.2876 135.375 69.2876 134.887C69.2876 124.65 69.2876 114.4 69.2876 104.163C69.2876 101.25 69.2876 98.3375 69.2876 95.4125C69.2876 94.925 68.5376 94.925 68.5376 95.4125Z" fill="#161616"/>
<path d="M68.7002 95.575V126.175V134.888C68.7002 135.375 69.4502 135.375 69.4502 134.888C69.4502 124.688 69.4502 114.488 69.4502 104.288C69.4502 101.388 69.4502 98.4875 69.4502 95.575C69.4502 95.1 68.7002 95.1 68.7002 95.575Z" fill="#161616"/>
<path d="M120.55 94.7375V122.575V130.525C120.55 131.012 121.3 131.012 121.3 130.525C121.3 121.25 121.3 111.962 121.3 102.687C121.3 100.037 121.3 97.3875 121.3 94.7375C121.3 94.2625 120.55 94.2625 120.55 94.7375Z" fill="#161616"/>
<path d="M120.725 94.9125V122.512V130.375C120.725 130.862 121.475 130.862 121.475 130.375C121.475 121.175 121.475 111.975 121.475 102.775C121.475 100.15 121.475 97.525 121.475 94.9125C121.475 94.425 120.725 94.425 120.725 94.9125Z" fill="#161616"/>
<path d="M66.8127 93.6626C67.4627 94.4501 68.0377 95.2751 68.5502 96.1501C68.8002 96.5626 69.4502 96.1876 69.2002 95.7751C68.6502 94.8501 68.0252 93.9751 67.3377 93.1376C67.0252 92.7626 66.5002 93.2876 66.8127 93.6626Z" fill="#161616"/>
<path d="M69.3501 95.8876C70.2751 95.1126 71.1876 94.3251 72.1126 93.5501C72.4751 93.2376 71.9501 92.7126 71.5876 93.0251C70.6626 93.8001 69.7501 94.5876 68.8251 95.3626C68.4501 95.6751 68.9876 96.2001 69.3501 95.8876Z" fill="#161616"/>
<path d="M118.463 94.05C119.238 94.5375 120.013 95.025 120.788 95.5125C121.2 95.775 121.575 95.125 121.163 94.8625C120.388 94.375 119.613 93.8875 118.838 93.4C118.425 93.15 118.05 93.8 118.463 94.05Z" fill="#161616"/>
<path d="M122.975 93.1625C122.325 93.6875 121.7 94.25 121.113 94.8375C120.775 95.175 121.3 95.7125 121.638 95.3625C122.225 94.775 122.85 94.2125 123.5 93.6875C123.875 93.3875 123.35 92.8625 122.975 93.1625Z" fill="#161616"/>
<path d="M119.05 94.0876C120.05 94.2376 121.025 94.2751 122.025 94.1751C121.963 93.9376 121.9 93.7125 121.838 93.475C121.425 93.7375 121 93.8126 120.513 93.8626C120.238 93.9001 119.963 94.2751 120.25 94.5001C120.638 94.8126 121.025 94.9125 121.513 94.7875C121.975 94.675 121.788 93.9501 121.313 94.0626C121.125 94.1376 120.938 94.1001 120.775 93.9626C120.688 94.1751 120.6 94.3875 120.513 94.6C121.113 94.5375 121.7 94.45 122.213 94.1C122.5 93.9125 122.425 93.3626 122.025 93.4001C121.1 93.4876 120.163 93.4751 119.238 93.3376C118.775 93.2876 118.575 94.0126 119.05 94.0876Z" fill="#161616"/>
<path d="M122.675 93.375C122.325 93.3 121.975 93.35 121.675 93.55C121.512 93.6625 121.437 93.875 121.537 94.0625C121.637 94.225 121.887 94.3125 122.05 94.2C122.187 94.1 122.325 94.0625 122.462 94.1C122.662 94.1375 122.862 94.0375 122.925 93.8375C122.987 93.65 122.875 93.4125 122.675 93.375Z" fill="#161616"/>
<path d="M67.6625 94.0125C67.8875 94.1625 68.725 94.55 68.6875 94.875L69.0625 94.5C69.0125 94.5 68.8625 93.925 68.825 93.825C68.7125 94.0125 68.6125 94.2 68.5 94.3875C69.25 94.35 69.9625 94.2 70.65 93.925C70.525 93.7125 70.4125 93.5125 70.2875 93.3C69.8625 93.7375 69.4125 94.15 68.925 94.525L69.4375 95.0375C69.8875 94.275 69.25 93.65 68.6 93.325C68.5375 93.5625 68.475 93.7875 68.4125 94.025C68.925 94 69.4375 93.9875 69.95 94.0125C70.4375 94.0375 70.425 93.2875 69.95 93.2625C69.4375 93.2375 68.925 93.2375 68.4125 93.275C68.0625 93.3 67.875 93.8 68.225 93.975C68.45 94.0875 69 94.325 68.8 94.6625C68.625 94.9625 69 95.4125 69.3125 95.175C69.85 94.7625 70.3625 94.325 70.825 93.8375C71.0625 93.5875 70.825 93.0625 70.4625 93.2125C69.825 93.4625 69.1875 93.6125 68.5125 93.65C68.2125 93.6625 68.075 93.95 68.1875 94.2125C68.4 94.6875 68.3875 95.2625 69.075 95.25C69.3 95.25 69.425 95.075 69.45 94.875C69.55 94.125 68.5625 93.7 68.0625 93.375C67.6375 93.1 67.2625 93.75 67.6625 94.0125Z" fill="#161616"/>
<path d="M71.7627 90.9125C71.7627 90.3 71.7627 89.6875 71.7627 89.0625C71.7627 88.825 71.3877 88.825 71.3877 89.0625V90.9125C71.3877 91.1625 71.7627 91.1625 71.7627 90.9125Z" fill="#F66F5D"/>
<path d="M71.5751 89.225H81.9501C82.1876 89.225 82.1876 88.85 81.9501 88.85C78.4876 88.85 75.0376 88.85 71.5751 88.85C71.3376 88.85 71.3376 89.225 71.5751 89.225Z" fill="#F66F5D"/>
<path d="M81.7627 89.0375V90.8C81.7627 91.0375 82.1377 91.0375 82.1377 90.8C82.1377 90.2125 82.1377 89.625 82.1377 89.0375C82.1377 88.7875 81.7627 88.7875 81.7627 89.0375Z" fill="#F66F5D"/>
<path d="M72.0502 89.925H79.9877C80.2252 89.925 80.2252 89.55 79.9877 89.55C77.3377 89.55 74.7002 89.55 72.0502 89.55C71.8127 89.55 71.8127 89.925 72.0502 89.925Z" fill="#F66F5D"/>
<path d="M73.8124 90.6375H79.8999C80.1374 90.6375 80.1374 90.2625 79.8999 90.2625C77.8749 90.2625 75.8374 90.2625 73.8124 90.2625C73.5749 90.2625 73.5749 90.6375 73.8124 90.6375Z" fill="#F66F5D"/>
<path d="M74.2373 88.9999C74.2373 88.5749 74.2373 88.1625 74.2373 87.7375C74.2373 87.5 73.8623 87.5 73.8623 87.7375V88.9999C73.8623 89.2374 74.2373 89.2374 74.2373 88.9999Z" fill="#F66F5D"/>
<path d="M74.2875 87.85H83.325C83.5625 87.85 83.5625 87.475 83.325 87.475C80.3125 87.475 77.3 87.475 74.2875 87.475C74.05 87.475 74.05 87.85 74.2875 87.85Z" fill="#F66F5D"/>
<path d="M82.0624 89.1375H83.2374C83.4749 89.1375 83.4749 88.7625 83.2374 88.7625C82.8499 88.7625 82.4499 88.7625 82.0624 88.7625C81.8249 88.7625 81.8249 89.1375 82.0624 89.1375Z" fill="#F66F5D"/>
<path d="M83.1377 87.7V88.9125C83.1377 89.15 83.5127 89.15 83.5127 88.9125C83.5127 88.5125 83.5127 88.1 83.5127 87.7C83.5127 87.45 83.1377 87.45 83.1377 87.7Z" fill="#F66F5D"/>
<path d="M76.1001 88.475H78.2626C78.5001 88.475 78.5001 88.1 78.2626 88.1C77.5376 88.1 76.8251 88.1 76.1001 88.1C75.8501 88.1 75.8501 88.475 76.1001 88.475Z" fill="#F66F5D"/>
<path d="M79.8251 88.7875H81.7501C81.9876 88.7875 81.9876 88.4125 81.7501 88.4125C81.1126 88.4125 80.4626 88.4125 79.8251 88.4125C79.5876 88.4125 79.5876 88.7875 79.8251 88.7875Z" fill="#F66F5D"/>
<path d="M76.3374 87.3C76.0374 87.0125 75.9749 86.575 75.9999 86.175C76.0499 85.5125 76.6499 85.4875 77.1499 85.6875C77.3749 85.775 77.4749 85.4125 77.2499 85.325C76.6874 85.1 75.9499 85.1125 75.6999 85.775C75.4874 86.3375 75.6374 87.15 76.0749 87.5625C76.2499 87.7375 76.5124 87.4625 76.3374 87.3Z" fill="#F66F5D"/>
<path d="M77.0873 85.5C78.2623 84.975 78.7498 86.95 77.7373 87.45C77.5248 87.5625 77.7123 87.8751 77.9248 87.7751C79.3748 87.0501 78.5248 84.4501 76.8998 85.1751C76.6748 85.2751 76.8748 85.6 77.0873 85.5Z" fill="#F66F5D"/>
<path d="M77.1251 85.4001C77.0626 85.0001 76.9126 84.6376 76.6751 84.3126C76.5376 84.1126 76.2126 84.3001 76.3501 84.5001C76.5626 84.8001 76.7001 85.1251 76.7626 85.5001C76.8001 85.7376 77.1626 85.6376 77.1251 85.4001Z" fill="#F66F5D"/>
<path d="M76.9498 84.7625C76.9873 84.6625 77.0373 84.5751 77.0998 84.4876C77.1248 84.4501 77.1623 84.4001 77.1998 84.3626C77.2123 84.3376 77.2373 84.3251 77.2623 84.3001C77.1998 84.1751 77.1623 84.1501 77.1373 84.2126C77.0748 84.2751 77.0123 84.4376 76.9748 84.5251C76.9123 84.6376 76.8373 84.7376 76.7623 84.8376C76.6248 85.0376 76.9498 85.2251 77.0873 85.0251C77.2248 84.8376 77.3498 84.6376 77.4498 84.4251C77.5373 84.2501 77.5873 84.0251 77.3623 83.9376C76.9873 83.8001 76.6998 84.3876 76.5998 84.6501C76.4998 84.8876 76.8623 84.9876 76.9498 84.7625Z" fill="#F66F5D"/>
<path d="M138.375 109.925C138.425 110.513 138.475 111.112 138.525 111.7C144.287 111.65 150.05 111.6 155.812 111.55C155.75 110.988 155.688 110.425 155.625 109.875C149.863 109.9 144.125 109.913 138.375 109.925Z" fill="white"/>
<path d="M138.487 111.9H155.762C156.25 111.9 156.25 111.15 155.762 111.15C150 111.15 144.25 111.15 138.487 111.15C138.012 111.15 138 111.9 138.487 111.9Z" fill="#161616"/>
<path d="M138.6 110.188H155.55C156.037 110.188 156.037 109.438 155.55 109.438C149.9 109.438 144.25 109.438 138.6 109.438C138.113 109.438 138.113 110.188 138.6 110.188Z" fill="#161616"/>
<path d="M138.013 109.925V111.2C138.013 111.687 138.763 111.687 138.763 111.2C138.763 110.775 138.763 110.35 138.763 109.925C138.763 109.437 138.013 109.437 138.013 109.925Z" fill="#161616"/>
<path d="M155.388 109.925V111.625C155.388 112.112 156.138 112.112 156.138 111.625C156.138 111.062 156.138 110.487 156.138 109.925C156.138 109.437 155.388 109.437 155.388 109.925Z" fill="#161616"/>
<path d="M146.962 111.737V133.275C146.962 133.762 147.712 133.762 147.712 133.275C147.712 126.1 147.712 118.925 147.712 111.737C147.712 111.25 146.962 111.25 146.962 111.737Z" fill="#161616"/>
<path d="M146.938 133.163C145.65 133.925 144.363 134.688 143.063 135.45C142.65 135.7 143.025 136.35 143.438 136.1C144.725 135.338 146.013 134.575 147.313 133.813C147.738 133.563 147.35 132.913 146.938 133.163Z" fill="#161616"/>
<path d="M147.15 133.7C148.612 134.513 150.062 135.338 151.525 136.15C151.95 136.388 152.325 135.738 151.9 135.5C150.437 134.688 148.987 133.863 147.525 133.05C147.1 132.813 146.725 133.463 147.15 133.7Z" fill="#161616"/>
<path d="M143.288 136.375C146.062 136.35 148.825 136.263 151.6 136.125C152.075 136.1 152.088 135.35 151.6 135.375C148.838 135.513 146.062 135.6 143.288 135.625C142.8 135.625 142.8 136.375 143.288 136.375Z" fill="#161616"/>
<path d="M143.7 112.013C144.825 113.613 145.85 115.288 146.775 117.013C147 117.438 147.65 117.063 147.425 116.638C146.5 114.913 145.475 113.238 144.35 111.638C144.075 111.238 143.425 111.613 143.7 112.013Z" fill="#161616"/>
<path d="M151.213 111.475C149.575 113.037 148.175 114.812 147.038 116.762C146.788 117.175 147.438 117.562 147.688 117.137C148.8 115.237 150.163 113.525 151.75 112.012C152.1 111.675 151.563 111.137 151.213 111.475Z" fill="#161616"/>
<path d="M120.663 126.175C120.563 127.963 120.475 129.75 120.375 131.538C115.6 133.613 113.3 134.975 113.488 135.6C113.7 136.35 117.375 136.088 124.488 134.838C124.538 131.775 124.588 128.713 124.625 125.65C123.313 125.825 121.988 126 120.663 126.175Z" fill="#161616"/>
<path d="M135.488 97.2125C134.425 98.1625 132.913 99.5375 131.15 101.238C126.95 105.313 123.863 108.3 121.775 111.388C120.05 113.95 117.488 118.825 117.288 126.8C119.013 127.275 121.188 127.675 123.713 127.65C124.563 127.638 125.375 127.588 126.113 127.5C125.788 125.688 125.525 122.85 126.188 119.525C126.65 117.188 127.425 115.313 128.125 113.95C133.75 111.45 137.55 108.388 139.975 106.05C142.425 103.688 145.213 100.988 144.463 99.075C143.775 97.2625 140.113 96.5625 135.488 97.2125Z" fill="#F66F5D"/>
<path opacity="0.18" d="M141.4 97.225C139.512 99.7375 137.25 102.462 134.537 105.237C131.137 108.725 127.775 111.537 124.762 113.775C123.712 118.387 122.662 123 121.612 127.6C122.062 127.675 122.575 127.737 123.137 127.737C124.275 127.762 125.25 127.6 126 127.4C125.762 125.825 125.6 123.662 125.9 121.15C126.275 118.05 127.225 115.612 128 114C130.825 112.7 133.062 111.375 134.675 110.325C134.675 110.325 139.725 107.05 143.637 102.025C143.725 101.912 144.025 101.525 144.262 100.925C144.45 100.437 144.687 99.8375 144.5 99.2125C144.325 98.65 143.9 98.3375 143.45 98.025C143.1 97.7875 142.412 97.375 141.4 97.225Z" fill="#6D6C6C"/>
<path opacity="0.16" d="M127.9 114.062C127.363 115.062 126.837 116.113 126.325 117.213C124.6 120.925 123.4 124.475 122.562 127.7C123.712 127.65 124.85 127.6 126 127.562C125.737 126.05 125.537 124.013 125.762 121.65C126.075 118.313 127.088 115.712 127.9 114.062Z" fill="#6D6C6C"/>
<path d="M128.375 127.9C128.95 129.687 129.525 131.475 130.1 133.262C125.85 135.812 123.837 137.35 124.075 137.862C124.362 138.487 128.025 137.562 135.075 135.087C134.1 132.25 133.125 129.412 132.15 126.575C130.887 127 129.625 127.45 128.375 127.9Z" fill="#161616"/>
<path d="M148.988 99.6375C149.875 104.15 148.538 106.687 147.9 107.662C146.625 109.612 144.925 110.213 139.963 112.675C138.025 113.638 135.075 115.138 131.463 117.125C131.713 118.713 132.113 120.538 132.75 122.525C133.35 124.4 134.05 126.038 134.725 127.413C134.063 128.05 132.725 129.175 130.688 129.825C128.488 130.537 126.6 130.325 125.675 130.163C123.713 126.288 123.213 122.888 123.075 120.813C122.913 118.313 122.725 115.475 124.188 112.675C125.313 110.525 126.4 110.325 130.95 106.85C137.788 101.637 138.475 99.6875 142 98.9625C144.888 98.375 147.45 99.0625 148.988 99.6375Z" fill="#F66F5D"/>
<path opacity="0.22" d="M144.313 98.8C144.375 100.25 144.263 102.525 143.1 104.85C142.125 106.812 140.825 108.212 136.538 111.112C132.725 113.687 129.688 115.675 127.725 116.95C128.975 121.137 130.225 125.325 131.475 129.512C131.85 129.387 132.3 129.2 132.763 128.937C133.613 128.45 134.213 127.862 134.6 127.412C134.05 126.237 133.5 124.925 133.013 123.487C132.213 121.187 131.713 119.037 131.4 117.175C134.5 115.45 136.675 114.325 137.95 113.687C139.85 112.737 140.788 112.262 141.75 111.8C142.075 111.65 142.8 111.312 143.75 110.812C144.813 110.262 145.338 110 145.813 109.675C146.2 109.412 147.175 108.725 147.963 107.587C149.088 105.962 149.188 104.262 149.263 103.025C149.313 102.225 149.3 101.062 149 99.6999C148.35 99.4249 147.475 99.1249 146.425 98.9499C145.613 98.7999 144.9 98.775 144.313 98.8Z" fill="#6D6C6C"/>
<path opacity="0.11" d="M149.25 102.137C149.05 102.8 148.687 103.762 148.05 104.8C146.087 107.95 143.087 109.2 140.987 110.25C138.5 111.5 135.15 113.562 131.425 117.125C132.475 116.537 133.762 115.837 135.262 115.037C137.912 113.625 139.225 112.925 140.587 112.275C141.65 111.775 142.862 111.237 144.675 110.275C145.975 109.587 146.687 109.162 147.362 108.375C148.125 107.487 148.462 106.6 148.687 106C148.962 105.25 149.35 103.912 149.25 102.137Z" fill="#6D6C6C"/>
<path opacity="0.17" d="M131.375 117.25C131.388 118.3 131.463 119.425 131.6 120.613C131.95 123.65 132.688 126.262 133.475 128.375C133.7 128.25 133.963 128.075 134.238 127.838C134.413 127.688 134.563 127.538 134.675 127.4C134.15 126.313 133.637 125.1 133.15 123.787C132.287 121.412 131.738 119.2 131.375 117.25Z" fill="#6D6C6C"/>
<path d="M140.75 75.1624C139.187 75.6874 138.912 77.5499 137.862 79.6749C137.862 79.6749 136.212 83.0499 132.6 85.8249C131.287 86.8374 128.45 88.6249 123.712 88.9374C123.25 88.7499 122.537 88.4999 121.637 88.3499C120.35 88.1374 118.55 87.8249 117.337 88.8624C116.787 89.3374 116.175 90.2374 116.45 90.7874C116.787 91.4624 118.287 91.1999 120.75 91.0874C124.162 90.9374 124 91.3124 126.375 91.1624C128.5 91.0249 131.85 90.8249 135.337 88.7874C138.675 86.8499 140.4 84.2624 140.812 83.5999C141.612 82.3499 141.975 81.3374 142.712 79.2999C143.687 76.6249 143.525 76.0249 143.25 75.6749C142.775 75.0249 141.625 74.8624 140.75 75.1624Z" fill="white" stroke="#161616" stroke-miterlimit="10"/>
<path d="M122.225 89.325C121.438 89.475 120.3 89.5125 119.725 90.1625C119.4 90.5375 119.45 91.2 120.05 91.2C120.225 91.2 120.238 90.9125 120.05 90.9125C119.75 90.6 119.775 90.35 120.15 90.175C120.275 90.0875 120.413 90.025 120.563 89.9625C120.725 89.9 120.888 89.8625 121.05 89.825C121.463 89.7375 121.875 89.6625 122.3 89.5875C122.475 89.5625 122.4 89.3 122.225 89.325Z" fill="#161616"/>
<path d="M116.325 90.4876C117.062 91.4126 118.212 90.3375 119.1 90.575C119.275 90.625 119.35 90.3501 119.175 90.3001C118.787 90.2001 118.45 90.2501 118.062 90.3751C117.55 90.5376 116.925 90.8125 116.512 90.2875C116.412 90.15 116.212 90.3501 116.325 90.4876Z" fill="#161616"/>
<path d="M116.775 89.35C116.8 89.725 117.05 89.875 117.412 89.875C118.225 89.875 118.937 89.55 119.75 89.8125C119.925 89.8625 120 89.6 119.825 89.5375C119.412 89.4 119.012 89.3875 118.587 89.425C118.287 89.45 117.087 89.7875 117.062 89.3375C117.037 89.175 116.762 89.175 116.775 89.35Z" fill="#161616"/>
<path d="M118 88.575C118.125 88.875 118.338 89.0125 118.663 89.0625C119.3 89.15 119.85 89.175 120.438 89.4375C120.6 89.5125 120.75 89.2625 120.575 89.2C120.25 89.0625 119.925 88.9375 119.575 88.875C119.175 88.8 118.438 88.925 118.263 88.5C118.2 88.3375 117.925 88.4125 118 88.575Z" fill="#161616"/>
<path opacity="0.16" d="M142.262 75.2001C141.55 75.3751 141.762 77.2876 141.387 79.0626C140.762 81.9251 138.725 83.7126 136.475 85.6876C134.95 87.0251 133.162 88.6001 130.437 89.3001C129.5 89.5376 127.95 89.8001 126.287 89.8876C124.037 90.0001 122.925 90.0626 122.85 90.0501C122.475 90.0126 121.562 89.9126 120.587 90.3376C120.387 90.4251 119.837 90.6626 119.875 90.8376C119.925 91.1001 121.225 91.0251 124.15 91.0001C126.312 90.9876 126.087 91.0251 126.75 91.0001C128 90.9501 130.175 90.8751 132.625 89.9876C136.112 88.7376 138.262 86.5251 139.25 85.5001C140.2 84.5001 140.725 83.7251 140.887 83.4876C141.662 82.3251 142.025 81.2876 142.737 79.2501C143.562 76.8751 143.562 76.2501 143.237 75.7626C143.012 75.4751 142.6 75.1126 142.262 75.2001Z" fill="#6D6C6C"/>
<path opacity="0.13" d="M116.663 90.8875C116.75 90.6625 117.125 89.7375 118.125 89.25C119.625 88.5375 121.088 89.5 121.15 89.5375C120.825 89.7125 120.55 89.8375 120.35 89.9125C120.038 90.05 119.913 90.075 119.8 90.2C119.613 90.4375 119.663 90.7875 119.713 91C119.313 91.0875 118.788 91.15 118.163 91.125C117.563 91.1125 117.05 91 116.663 90.8875Z" fill="#6D6C6C"/>
<path opacity="0.14" d="M143.225 77.25C142.7 79 141.55 81.95 139.025 84.8C135.587 88.6875 131.55 90.2 129.712 90.7625C131.125 90.5125 136.375 89.4 140.075 84.6C142.262 81.75 142.962 78.85 143.225 77.25Z" fill="#6D6C6C"/>
<path d="M140.325 75.2625C139.537 76.125 138.975 77.2625 138.612 81.4625C138.075 87.6 138.925 89.0125 137.975 92.05C137.537 93.4375 136.637 95.45 134.55 97.6125C136.025 98.5625 138.412 99.8625 141.612 100.613C144.775 101.35 147.462 101.238 149.212 101.038C151.462 94.125 151.275 88.5375 150.812 85.1C150.375 81.825 149.387 74.2875 145.462 73.3375C143.6 72.875 141.487 74 140.325 75.2625Z" fill="white" stroke="#161616" stroke-miterlimit="10"/>
<path opacity="0.12" d="M144.462 73.3625C144.4 73.875 144.312 74.6375 144.225 75.55C143.637 81.6625 144.325 82.775 143.875 86.375C143.625 88.425 143.1 92.2625 140.4 95.8375C139.275 97.325 138.087 98.3625 137.237 99C138.6 99.6875 140.675 100.55 143.325 100.95C145.7 101.3 147.712 101.163 149.137 100.95C149.537 99.8 150.012 98.2375 150.387 96.3625C151.087 92.8875 151.137 89.925 151.05 87.875C150.887 83.9125 150.525 75.4125 146.175 73.675C145.5 73.4125 144.887 73.3625 144.462 73.3625Z" fill="#6D6C6C"/>
<path opacity="0.24" d="M150.963 91.3126C150.813 91.2876 150.463 92.8376 149.95 94.2376C149.3 96.0501 148.075 98.4876 145.538 101.125C146.763 101.063 148 101.013 149.225 100.95C149.638 99.6251 150.163 97.6501 150.588 95.2126C150.863 93.5751 151.15 91.3501 150.963 91.3126Z" fill="#6D6C6C"/>
<path d="M147.75 75.1C149.162 75.375 149.762 77.6125 150.262 79.575C150.762 81.55 151.725 85.575 150.375 90.875C149.812 93.0625 149.312 95.1 147.575 97.1625C145.312 99.8625 142.425 100.912 141.075 101.3C139.575 102.337 138.8 102.862 138.362 103.137C138.05 103.337 137.862 103.45 137.525 103.687C137.037 104.037 136.95 104.15 136.712 104.25C136.462 104.35 136.062 104.425 135.462 104.237C135.412 104.25 135.025 104.3 134.737 104.012C134.562 103.837 134.525 103.637 134.525 103.55C134.487 103.55 134.25 103.525 134.087 103.325C133.937 103.137 133.925 102.875 134.037 102.65C133.987 102.55 133.937 102.412 133.937 102.237C133.875 101.362 134.912 100.662 135.487 100.262C136.1 99.8375 137.312 99.1625 139.187 98.9875C140.2 98.45 141.712 97.4875 143.05 95.875C143.475 95.375 146.312 91.85 146.087 87.1125C146 85.125 145.287 81.425 144.887 77.975C144.862 77.725 144.787 77.05 145.15 76.4C145.675 75.5125 146.875 74.9375 147.75 75.1Z" fill="white" stroke="#161616" stroke-miterlimit="10"/>
<path d="M134.075 102.737C134.25 102.737 134.263 102.45 134.075 102.45C133.9 102.45 133.9 102.737 134.075 102.737Z" fill="#161616"/>
<path d="M133.937 102.588V102.675C133.95 102.825 134.112 102.863 134.2 102.75C134.7 102.088 135.375 101.6 136.162 101.35C136.337 101.3 136.262 101.025 136.087 101.075C135.225 101.35 134.5 101.875 133.95 102.6C134.037 102.625 134.125 102.65 134.212 102.675C134.212 102.65 134.212 102.625 134.212 102.588C134.212 102.413 133.925 102.413 133.937 102.588Z" fill="#161616"/>
<path d="M134.638 103.6C135.275 102.875 136.063 102.325 136.963 101.963C137.125 101.9 137.063 101.625 136.888 101.688C135.938 102.063 135.113 102.625 134.438 103.388C134.325 103.538 134.525 103.738 134.638 103.6Z" fill="#161616"/>
<path d="M135.575 104.275C136.225 103.538 136.975 102.925 137.825 102.425C137.975 102.338 137.837 102.088 137.687 102.188C136.825 102.7 136.05 103.325 135.387 104.088C135.262 104.213 135.462 104.413 135.575 104.275Z" fill="#161616"/>
<path opacity="0.13" d="M147.2 75.575C146.725 76.2625 147.5 77.475 147.937 78.375C148.575 79.7 148.675 81.1375 148.875 84.0125C149.237 89.225 146.812 93.6875 146.637 94C144.425 97.9375 140.988 100.3 139.913 101.025C138.088 102.25 135.5 103.587 135.712 104.1C135.787 104.287 136.2 104.312 136.375 104.3C136.975 104.275 137.225 103.812 138.062 103.225C138.5 102.912 138.488 103.012 139.238 102.562C139.675 102.3 140.3 101.9 141.038 101.337C142.713 100.887 143.95 100.2 144.725 99.7C145.85 98.975 148.012 97.3125 149.337 94.4125C149.787 93.425 149.962 92.6375 150.312 91.075C150.675 89.4375 151.25 86.75 150.925 83.325C150.775 81.775 150.512 80.7375 150.15 79.375C149.587 77.1875 149.075 75.3 148.1 75.175C147.775 75.125 147.387 75.3125 147.2 75.575Z" fill="#6D6C6C"/>
<path opacity="0.16" d="M150.763 82.4125C150.65 82.4125 150.675 83.725 150.138 87.2125C149.65 90.3375 149.4 91.9375 148.713 93.4C147.713 95.525 146.35 96.8625 145.688 97.5C143.8 99.325 142.663 99.45 139.775 101.575C138.263 102.687 137.138 103.7 136.475 104.325C137.975 103.325 139.463 102.325 140.963 101.337C142.338 100.937 145.163 99.8875 147.438 97.2C149 95.35 149.613 93.5375 150.088 92.125C151.713 87.0875 150.963 82.4125 150.763 82.4125Z" fill="#6D6C6C"/>
<path d="M142.137 69.65C141.575 70.0375 141.475 70.7875 141.387 71.6125C141.3 72.45 141.287 73.9125 142.05 75.725C142.525 75.725 143.112 75.6875 143.762 75.5625C144.275 75.4625 144.725 75.325 145.1 75.1875C145.05 73.525 145.012 71.8625 144.962 70.2C143.912 69.425 142.812 69.1875 142.137 69.65Z" fill="white" stroke="#161616" stroke-width="2" stroke-miterlimit="10"/>
<path d="M139.163 61.3125C138.288 61.8125 137.913 62.65 137.175 64.275C136.35 66.125 135.775 67.725 135.55 68.9C135.513 69.075 135.6 69.25 135.763 69.325C135.975 69.425 136.35 69.4625 136.55 69.5125C136.55 70 136.613 70.8375 137.05 71.7375C137.85 73.375 139.325 74.0375 139.763 74.2125C141.15 73.975 142.175 73.5 142.788 73.1375C143.35 72.825 144.075 72.4 144.788 71.575C145.425 70.825 145.763 70.075 145.938 69.575C146.2 69.575 146.6 69.55 147.013 69.325C147.863 68.8625 148.588 67.65 148.138 66.9125C147.8 66.375 146.875 66.15 145.925 66.5C145.938 66.1 145.925 65.55 145.788 64.9C145.75 64.7375 145.488 63.55 144.888 62.7125C143.738 61.1 140.938 60.3 139.163 61.3125Z" fill="white" stroke="#161616" stroke-miterlimit="10"/>
<path d="M136.012 66.975C135.7 66.4875 135.012 65.2625 135.112 63.6375C135.15 63.0875 135.225 62.0375 135.987 61.05C136.912 59.85 138.2 59.5375 138.575 59.4625C138.75 59.175 139.05 58.75 139.55 58.4C139.75 58.2625 140.3 57.925 141.65 57.85C142.362 57.8125 143.45 57.8375 144.75 58.2125C145.762 58.5125 146.437 58.9375 146.85 59.275C148.437 60.525 148.312 61.5125 150.325 63.5375C150.787 64 151.112 64.1625 151.812 64.85C152.55 65.5625 153.137 66.25 153.462 66.6625C154.2 67.6 155.587 69.375 155.85 71.775C155.937 72.5875 156.187 74.875 154.762 76.625C152.825 79.0125 148.45 79.2 145.787 77.3C145.287 76.95 143.212 75.45 143.325 73.0375C143.425 70.8625 145.237 69.5625 145.487 69.375C145.7 69.4625 146.137 69.6 146.562 69.45C147.45 69.125 147.825 67.7625 147.362 67.075C147.175 66.8 146.875 66.6875 146.787 66.6625C146.062 66.4125 145.387 66.95 145.337 66.9875C144.362 66.275 143.625 65.5875 143.112 65.05C142.412 64.3375 142.062 63.8625 141.937 63.6875C141.55 63.1375 141.262 62.6375 141.075 62.2625C140.5 62.4 139.75 62.6625 138.962 63.175C138.775 63.2875 138.15 63.7125 137.5 64.45C137.425 64.5375 137.062 64.95 136.675 65.575C136.387 66.1125 136.162 66.5875 136.012 66.975Z" fill="black"/>
<path d="M138.562 68.0876C138.562 68.0751 138.562 68.0751 138.562 68.0876C138.562 68.1001 138.575 68.1251 138.575 68.1501V68.1626C138.562 68.1876 138.55 68.2001 138.537 68.2251C138.562 68.2001 138.537 68.2126 138.487 68.2501C138.462 68.2376 138.437 68.2376 138.412 68.2251C138.4 68.2126 138.387 68.2126 138.387 68.2001C138.375 68.1751 138.375 68.1501 138.362 68.1251V68.1126C138.375 68.0876 138.387 68.0751 138.4 68.0501C138.425 68.0501 138.45 68.0376 138.475 68.0376L138.575 68.1376V68.1751C138.512 68.1876 138.45 68.2126 138.387 68.2251L138.375 68.2126C138.362 68.1876 138.35 68.1751 138.337 68.1501C138.35 68.1126 138.375 68.0751 138.387 68.0501C138.412 68.0376 138.437 68.0376 138.462 68.0251H138.45C138.375 68.0376 138.312 68.0876 138.312 68.1626C138.312 68.2376 138.375 68.3126 138.45 68.3001C138.525 68.2876 138.6 68.2501 138.612 68.1626C138.637 68.0876 138.6 68.0001 138.525 67.9626C138.45 67.9251 138.375 67.9501 138.337 68.0126C138.262 68.1126 138.312 68.2751 138.437 68.2876C138.55 68.3001 138.65 68.2126 138.65 68.1001C138.65 67.9876 138.537 67.9126 138.425 67.9376C138.312 67.9751 138.262 68.0876 138.312 68.2001C138.35 68.2751 138.45 68.2876 138.5 68.2501C138.587 68.2376 138.587 68.1501 138.562 68.0876Z" fill="#161616"/>
<path d="M139.663 67.7876C139.688 67.9126 139.638 67.9001 139.525 67.7501C139.55 67.7376 139.563 67.7251 139.588 67.7126C139.638 67.7126 139.675 67.7376 139.7 67.8001C139.713 67.7251 139.625 67.6626 139.563 67.6626C139.475 67.6626 139.425 67.7251 139.425 67.8001C139.413 67.9126 139.525 68.0001 139.625 67.9876C139.75 67.9876 139.825 67.8626 139.788 67.7501C139.75 67.6376 139.625 67.5751 139.513 67.6376C139.4 67.7001 139.388 67.8126 139.438 67.9251C139.463 68.0001 139.575 68.0126 139.625 67.9751C139.688 67.9376 139.7 67.8626 139.663 67.7876Z" fill="#161616"/>
<path d="M139.312 68.6125C139.387 68.6125 139.4 68.6375 139.35 68.7C139.35 68.75 139.337 68.775 139.3 68.775C139.287 68.725 139.287 68.6625 139.275 68.6125C139.312 68.6 139.337 68.6 139.375 68.625C139.25 68.4875 139.05 68.6875 139.175 68.825C139.262 68.925 139.425 68.9 139.487 68.7875C139.55 68.675 139.487 68.5375 139.375 68.5C139.25 68.4625 139.125 68.55 139.112 68.675C139.112 68.8125 139.25 68.9125 139.375 68.8875C139.562 68.8375 139.487 68.5625 139.312 68.6125Z" fill="#161616"/>
<path d="M137 71.3375C137.775 71.2 138.45 70.75 138.888 70.0875C138.988 69.9375 138.75 69.7999 138.65 69.9499C138.25 70.5499 137.65 70.9374 136.938 71.0749C136.75 71.0999 136.825 71.3625 137 71.3375Z" fill="#161616"/>
<path opacity="0.1" d="M141.25 62.675C141.475 63.125 141.762 63.725 142.087 64.4375C143.087 66.6125 143.2 67.2125 143.238 67.7375C143.288 68.525 143.15 69.1251 143.038 69.5501C142.463 71.8751 140.775 73.425 139.938 74.1C140.35 74.05 140.85 73.9626 141.4 73.7751C142.25 73.4876 142.913 73.1001 143.363 72.7751C143.325 73.1626 143.325 73.7625 143.55 74.4375C143.8 75.2375 144.25 75.7376 144.625 76.2126C144.912 76.5751 145.425 77.1501 146.238 77.6126C147.025 78.0751 147.762 78.2375 148.212 78.3125C149.262 78.55 150.138 78.525 150.725 78.475C151.538 78.4 152.825 78.2876 154.025 77.3626C154.325 77.1251 155.013 76.5875 155.425 75.6375C155.525 75.4125 155.675 74.9876 155.75 73.8626C155.837 72.5376 155.9 71.6125 155.587 70.4375C155.262 69.225 154.675 68.2875 154.1 67.6C153.1 70.2875 150.687 71.8375 148.512 71.5125C146.812 71.25 145.788 69.9125 145.488 69.5C146.15 69.65 146.825 69.4501 147.212 68.9626C147.675 68.4126 147.812 67.4251 147.212 66.9001C146.737 66.4876 145.95 66.475 145.363 66.9375C144.65 66.425 143.837 65.75 143.012 64.875C142.275 64.1125 141.7 63.35 141.25 62.675Z" fill="#6D6C6C"/>
<path d="M138.363 66.7375C138.288 66.6125 138.275 66.425 138.4 66.325C138.363 66.3375 138.338 66.35 138.3 66.3625H138.338C138.3 66.35 138.275 66.3375 138.238 66.325C138.363 66.425 138.263 66.8125 138.213 66.925C138.238 66.9 138.263 66.8875 138.3 66.8625C138.288 66.8625 138.275 66.875 138.275 66.875C138.313 66.875 138.35 66.8875 138.388 66.8875C138.313 66.85 138.325 66.65 138.338 66.6C138.35 66.4875 138.375 66.3875 138.425 66.3C138.363 66.3125 138.3 66.3375 138.238 66.35C138.3 66.4 138.313 66.5 138.3 66.575C138.3 66.6125 138.288 66.65 138.275 66.675C138.263 66.7375 138.238 66.7375 138.3 66.75C138.325 66.775 138.35 66.7875 138.388 66.8125C138.388 66.8 138.375 66.8 138.375 66.7875C138.263 66.65 138.025 66.7875 138.138 66.925C138.2 67 138.288 67.05 138.388 67.0125C138.5 66.975 138.538 66.8625 138.563 66.7625C138.625 66.5125 138.625 66.2625 138.4 66.1C138.338 66.05 138.238 66.0875 138.213 66.15C138.088 66.4 138.013 66.7875 138.175 67.0375C138.238 67.1375 138.375 67.1875 138.475 67.1125C138.588 67.025 138.6 66.8 138.613 66.675C138.638 66.4875 138.6 65.95 138.275 66.1125C138.013 66.25 138.038 66.675 138.163 66.8875C138.213 67.0375 138.463 66.8875 138.363 66.7375Z" fill="#161616"/>
<path d="M137.787 65.4626C138.45 65.3501 139.012 65.7126 139.525 66.1001C139.675 66.2126 139.812 65.9626 139.662 65.8626C139.087 65.4251 138.462 65.0876 137.712 65.2001C137.537 65.2126 137.612 65.4876 137.787 65.4626Z" fill="#161616"/>
<path d="M138.537 69.9625C138.675 70.05 138.8 70.1625 138.912 70.2875C139.037 70.425 139.237 70.225 139.112 70.0875C138.987 69.95 138.837 69.825 138.675 69.7125C138.525 69.6125 138.387 69.8625 138.537 69.9625Z" fill="#161616"/>
</svg>
