<svg width="200" height="159" viewBox="0 0 200 159" fill="none" xmlns="http://www.w3.org/2000/svg">
<path fill-rule="evenodd" clip-rule="evenodd" d="M117.306 0.1265C141.713 1.89199 156.533 25.5221 169.824 46.068C181.03 63.3882 187.68 82.8733 183.965 103.165C180.022 124.705 169.901 146.738 149.803 155.431C130.342 163.849 109.914 152.143 90.5121 143.588C69.7726 134.443 45.212 127.526 37.8785 106.079C29.9003 82.7464 39.5186 57.4425 54.3095 37.7122C69.7406 17.1278 91.6468 -1.72957 117.306 0.1265Z" fill="#E8ECFB"/>
<path d="M135.863 21.0125C135.863 30.2125 135.863 39.4125 135.863 48.6C135.863 51.225 135.863 53.8375 135.863 56.4625C135.863 56.7 136.238 56.7 136.238 56.4625C136.238 47.2625 136.238 38.0625 136.238 28.875C136.238 26.25 136.238 23.6375 136.238 21.0125C136.238 20.775 135.863 20.775 135.863 21.0125Z" fill="white"/>
<path d="M135.863 20.875C145.75 21.0375 155.638 21.3125 165.525 21.7C165.763 21.7125 165.763 21.3375 165.525 21.325C155.638 20.9375 145.75 20.6625 135.863 20.5C135.625 20.5 135.625 20.875 135.863 20.875Z" fill="white"/>
<path d="M136.175 56.6875C145.438 57.3625 154.638 58.6625 163.825 59.975C164.063 60.0125 164.163 59.65 163.925 59.6125C154.7 58.3 145.463 57 136.175 56.3125C135.938 56.3 135.938 56.675 136.175 56.6875Z" fill="white"/>
<path d="M165.338 21.775C165.338 31.7375 165.338 41.6875 165.338 51.65C165.338 54.475 165.338 57.2875 165.338 60.1125C165.338 60.35 165.713 60.35 165.713 60.1125C165.713 50.15 165.713 40.2 165.713 30.2375C165.713 27.4125 165.713 24.6 165.713 21.775C165.713 21.5375 165.338 21.5375 165.338 21.775Z" fill="white"/>
<path d="M163.6 59.95C164.213 60.0375 164.825 60.15 165.425 60.2625C165.663 60.3125 165.763 59.95 165.525 59.9C164.913 59.775 164.313 59.675 163.7 59.5875C163.463 59.5625 163.363 59.9125 163.6 59.95Z" fill="white"/>
<path d="M136.225 37.4C141.25 37.4625 146.25 37.9625 151.225 38.65C153.663 38.9875 156.1 39.3625 158.525 39.7375C160.85 40.1 163.213 40.625 165.575 40.425C165.813 40.4 165.813 40.025 165.575 40.05C163.125 40.25 160.663 39.6875 158.263 39.3125C155.788 38.925 153.313 38.55 150.838 38.2125C145.988 37.5625 141.125 37.075 136.225 37.0125C135.975 37.0125 135.975 37.3875 136.225 37.4Z" fill="white"/>
<path d="M138.163 37.5375C138.375 43.15 138.6 48.7625 138.813 54.375C138.825 54.6125 139.2 54.6125 139.188 54.375C138.975 48.7625 138.75 43.15 138.538 37.5375C138.525 37.3 138.15 37.3 138.163 37.5375Z" fill="white"/>
<path d="M139.263 54.5875C147.788 55.625 156.325 56.525 164.863 57.4125C165.1 57.4375 165.1 57.0625 164.863 57.0375C156.325 56.1375 147.788 55.2375 139.263 54.2125C139.025 54.1875 139.025 54.5625 139.263 54.5875Z" fill="white"/>
<path d="M136.413 56.3625C137.35 55.825 138.275 55.2875 139.213 54.7375C139.425 54.6125 139.238 54.2875 139.025 54.4125C138.088 54.95 137.163 55.4875 136.225 56.0375C136.013 56.1625 136.2 56.4875 136.413 56.3625Z" fill="white"/>
<path d="M138.925 35.35C146.525 35.9375 154.138 36.5125 161.738 37.1C161.975 37.1125 161.975 36.7375 161.738 36.725C154.138 36.1375 146.525 35.5625 138.925 34.975C138.688 34.95 138.688 35.325 138.925 35.35Z" fill="white"/>
<path d="M138.05 32.675C146.325 32.7125 154.6 32.95 162.875 33.3875C163.113 33.4 163.113 33.025 162.875 33.0125C154.613 32.575 146.338 32.325 138.05 32.3C137.8 32.3 137.8 32.675 138.05 32.675Z" fill="white"/>
<path d="M139.525 28.8125C145.225 28.825 150.925 28.8375 156.625 28.85C156.863 28.85 156.863 28.475 156.625 28.475C150.925 28.4625 145.225 28.45 139.525 28.4375C139.275 28.4375 139.275 28.8125 139.525 28.8125Z" fill="white"/>
<path d="M138.225 25.0875C145.988 24.9875 153.738 25.2 161.488 25.7125C161.725 25.725 161.725 25.35 161.488 25.3375C153.75 24.825 145.988 24.6125 138.225 24.7125C137.975 24.7125 137.975 25.0875 138.225 25.0875Z" fill="white"/>
<path d="M157.475 55.925C157.313 55.5625 157.363 55.3625 157.625 55.3C157.725 55.2625 157.825 55.225 157.925 55.2125C158.05 55.1875 158.175 55.1625 158.288 55.1375C158.513 55.075 158.725 54.975 158.888 54.8C159.188 54.4875 159.263 54.0875 159.188 53.675C159.175 53.6 159.088 53.525 159.013 53.5375C157.975 53.625 158.063 52 159.125 52.325C159.313 52.3875 159.425 52.1375 159.313 52.0125C158.488 51.125 156.9 48.9625 157.988 47.775C158.275 47.4625 158.788 47.2625 159.175 47.5125C159.413 47.6625 159.563 47.95 159.688 48.2C159.863 48.5125 160.013 48.8625 160.313 49.0625C160.988 49.5125 161.675 48.8875 161.788 48.2125C161.888 47.5875 161.588 46.9625 161.588 46.3375C161.588 45.9 161.675 45.4125 162 45.0875C162.338 44.75 162.913 44.6375 163.313 44.9625C163.45 45.075 163.688 44.975 163.625 44.775C163.5 44.3625 163.45 43.925 163.688 43.5375C163.963 43.1125 164.625 42.95 164.9 43.475C165.013 43.6875 165.338 43.5 165.225 43.2875C164.938 42.75 164.238 42.625 163.725 42.9375C163.075 43.3375 163.063 44.2125 163.263 44.8625C163.363 44.8 163.475 44.7375 163.575 44.675C162.588 43.85 161.4 44.7875 161.238 45.875C161.188 46.2 161.213 46.525 161.263 46.85C161.338 47.3625 161.613 48.05 161.275 48.525C160.575 49.5125 160.013 47.9 159.688 47.5C158.975 46.6125 157.688 47.075 157.363 48.0875C156.888 49.55 158.088 51.2625 159.025 52.2625C159.088 52.1625 159.15 52.05 159.213 51.95C158.625 51.7625 157.913 52.1 157.813 52.75C157.725 53.425 158.363 53.9375 158.988 53.8875C158.925 53.8375 158.863 53.8 158.813 53.75C159.063 55.0875 157.175 54.5 156.85 55.4875C156.688 55.9875 157.175 56.4375 157.65 56.225C157.888 56.1375 157.7 55.8125 157.475 55.925Z" fill="white"/>
<path d="M156.8 65.075C156.8 68.9125 156.8 72.75 156.8 76.575C156.8 76.8125 157.175 76.8125 157.175 76.575C157.175 72.7375 157.175 68.9 157.175 65.075C157.175 64.8375 156.8 64.8375 156.8 65.075Z" fill="black"/>
<path d="M157.025 65.0625C161.738 66.1125 166.438 67.1625 171.15 68.2C171.388 68.25 171.488 67.8875 171.25 67.8375C166.538 66.7875 161.838 65.7375 157.125 64.7C156.888 64.65 156.788 65.0125 157.025 65.0625Z" fill="black"/>
<path d="M157.188 76.9C161.3 78.2375 165.425 79.5375 169.563 80.8C169.8 80.875 169.888 80.5125 169.663 80.4375C165.525 79.175 161.4 77.875 157.288 76.5375C157.063 76.4625 156.963 76.825 157.188 76.9Z" fill="black"/>
<path d="M171.088 68.0375C171.088 72.3125 171.088 76.5875 171.088 80.85C171.088 81.0875 171.463 81.0875 171.463 80.85C171.463 76.575 171.463 72.3 171.463 68.0375C171.463 67.7875 171.088 67.7875 171.088 68.0375Z" fill="black"/>
<path d="M169.338 80.8125C170 80.9 170.663 81 171.313 81.0875C171.55 81.125 171.65 80.7625 171.413 80.725C170.75 80.6375 170.088 80.5375 169.438 80.45C169.2 80.425 169.1 80.7875 169.338 80.8125Z" fill="black"/>
<path d="M158.1 66.55C157.913 69.5375 157.875 72.525 157.975 75.5125C157.988 75.75 158.363 75.75 158.35 75.5125C158.25 72.525 158.288 69.5375 158.475 66.55C158.488 66.3125 158.113 66.3125 158.1 66.55Z" fill="black"/>
<path d="M158.125 76.0375C162.013 77.075 166.05 77.9 169.738 79.525C169.963 79.625 170.15 79.3 169.925 79.2C166.2 77.5625 162.138 76.7125 158.213 75.675C158 75.6125 157.9 75.975 158.125 76.0375Z" fill="black"/>
<path d="M158.175 66.55C162.213 67.2375 166.238 68 170.25 68.8125C170.488 68.8625 170.588 68.5 170.35 68.45C166.338 67.625 162.313 66.875 158.275 66.1875C158.038 66.15 157.938 66.5125 158.175 66.55Z" fill="black"/>
<path d="M170.063 68.525C169.775 72.075 169.65 75.6375 169.663 79.2C169.663 79.4375 170.038 79.4375 170.038 79.2C170.013 75.6375 170.15 72.075 170.438 68.525C170.45 68.2875 170.075 68.2875 170.063 68.525Z" fill="black"/>
<path d="M158.388 71.1125C159.825 71.8125 161.325 72.3875 162.863 72.8375C163.1 72.9 163.2 72.5375 162.963 72.475C161.45 72.0375 159.988 71.4875 158.575 70.7875C158.363 70.6875 158.175 71.0125 158.388 71.1125Z" fill="black"/>
<path d="M163.988 67.5875C163.388 69.275 162.9 71 162.513 72.7625C162.463 73 162.825 73.1 162.875 72.8625C163.263 71.1125 163.75 69.3875 164.35 67.6875C164.425 67.45 164.063 67.3625 163.988 67.5875Z" fill="black"/>
<path d="M163.588 69.7375C164.713 69.525 165.6 70.75 165.788 71.7125C165.988 72.7375 165.525 73.675 164.775 74.375C163.975 75.1125 162.863 75.3375 161.888 74.775C160.888 74.2 160.575 72.8875 161.013 71.875C161.113 71.65 160.788 71.4625 160.688 71.6875C160.213 72.7875 160.438 74.1375 161.4 74.9C162.438 75.725 163.888 75.625 164.875 74.7875C165.913 73.9125 166.488 72.625 166.063 71.3C165.725 70.225 164.7 69.1625 163.488 69.3875C163.25 69.425 163.35 69.7875 163.588 69.7375Z" fill="black"/>
<path d="M165.763 76.075C166.238 76.375 166.663 76.7125 167.038 77.1125C167.2 77.2875 167.475 77.025 167.3 76.85C166.9 76.425 166.438 76.0625 165.95 75.75C165.75 75.625 165.563 75.95 165.763 76.075Z" fill="black"/>
<path d="M166.963 74.1875C167.375 74.2875 167.775 74.375 168.188 74.475C168.425 74.525 168.525 74.1625 168.288 74.1125C167.875 74.0125 167.475 73.925 167.063 73.825C166.825 73.775 166.725 74.125 166.963 74.1875Z" fill="black"/>
<path d="M166.6 70.1625C167.113 70.1375 167.563 69.9625 167.963 69.65C168.15 69.5 167.888 69.2375 167.7 69.3875C167.388 69.6375 167 69.775 166.6 69.8C166.35 69.8 166.35 70.175 166.6 70.1625Z" fill="black"/>
<path d="M164.213 66.0875C164.2 65.8125 164.163 65.4125 164.45 65.2625C164.725 65.1125 164.8 65.3875 164.788 65.5875C164.775 65.95 164.663 66.3 164.788 66.65C164.875 66.875 165.238 66.775 165.15 66.55C164.963 66.0625 165.438 65.2875 164.888 64.9375C164.625 64.7625 164.288 64.8625 164.075 65.075C163.813 65.35 163.813 65.7375 163.825 66.0875C163.838 66.325 164.213 66.325 164.213 66.0875Z" fill="black"/>
<path d="M79.1875 7.73749C79.1875 14.65 79.1875 21.55 79.1875 28.4625C79.1875 28.7 79.5625 28.7 79.5625 28.4625C79.5625 21.55 79.5625 14.65 79.5625 7.73749C79.5625 7.48749 79.1875 7.48749 79.1875 7.73749Z" fill="white"/>
<path d="M79.1128 28.575C74.5753 30.875 70.9003 34.6625 68.7503 39.275C68.6503 39.4875 68.9753 39.6875 69.0753 39.4625C71.2003 34.9125 74.8253 31.175 79.3003 28.9C79.5128 28.8 79.3253 28.475 79.1128 28.575Z" fill="white"/>
<path d="M79.35 28.8C83.7625 30.6375 87.325 34.275 89.075 38.7125C89.1625 38.9375 89.525 38.8375 89.4375 38.6125C87.625 34.025 84 30.325 79.45 28.4375C79.225 28.35 79.125 28.7125 79.35 28.8Z" fill="white"/>
<path d="M69.7251 39.6875C75.7501 36.95 82.5001 37.975 88.7876 39.0125C89.0251 39.05 89.1251 38.6875 88.8876 38.65C82.4751 37.6 75.6626 36.5875 69.5251 39.3625C69.3251 39.4625 69.5126 39.7875 69.7251 39.6875Z" fill="white"/>
<path d="M77.0751 38.0875C76.7126 38.875 76.5626 39.825 76.9501 40.6375C77.3751 41.5375 78.4251 41.9375 79.3751 41.9625C80.2626 41.9875 81.2001 41.6125 81.6501 40.8C82.0626 40.0375 82.0126 39.1125 81.4126 38.4625C81.2501 38.2875 80.9876 38.55 81.1501 38.725C81.6626 39.275 81.6501 40.125 81.2376 40.7375C80.8001 41.4 79.9501 41.625 79.1876 41.5625C78.4001 41.5 77.5751 41.1375 77.2626 40.375C76.9751 39.6875 77.1001 38.9125 77.4001 38.25C77.5001 38.05 77.1751 37.8625 77.0751 38.0875Z" fill="white"/>
<path d="M60.8752 49.9375C63.3002 48.3875 65.7377 46.8375 68.1627 45.3C68.3627 45.175 68.1752 44.85 67.9752 44.975C65.5502 46.525 63.1127 48.075 60.6877 49.6125C60.4752 49.75 60.6627 50.075 60.8752 49.9375Z" fill="white"/>
<path d="M62.2001 57.35C64.2626 55.4625 66.2251 53.475 68.0876 51.3875C68.2501 51.2125 67.9876 50.9375 67.8251 51.125C65.9626 53.2125 64.0001 55.2 61.9376 57.0875C61.7626 57.25 62.0251 57.5125 62.2001 57.35Z" fill="white"/>
<path d="M72.0377 56.15C70.1627 60.975 68.4127 65.8625 66.8002 70.7875C66.7252 71.0125 67.0877 71.1125 67.1627 70.8875C68.7752 65.9625 70.5252 61.0875 72.4002 56.25C72.4877 56.025 72.1252 55.9375 72.0377 56.15Z" fill="white"/>
<path d="M79.825 52.7375C81.2875 56.6 82.7625 60.4625 84.225 64.3125C84.3125 64.5375 84.675 64.4375 84.5875 64.2125C83.125 60.35 81.65 56.4875 80.1875 52.6375C80.1 52.4125 79.7375 52.5125 79.825 52.7375Z" fill="white"/>
<path d="M86.7125 47.375C88.9 49.2125 90.95 51.2125 92.85 53.35C93.0125 53.525 93.275 53.2625 93.1125 53.0875C91.2125 50.95 89.1625 48.9625 86.975 47.1125C86.8 46.95 86.5375 47.2125 86.7125 47.375Z" fill="white"/>
<path d="M90.0754 42.25C91.7754 43.0875 93.4879 43.9125 95.1879 44.75C95.4004 44.85 95.6004 44.5375 95.3754 44.425C93.6754 43.5875 91.9629 42.7625 90.2629 41.925C90.0504 41.825 89.8629 42.1375 90.0754 42.25Z" fill="white"/>
<path d="M79.4379 101.063C82.2004 98.6875 85.7629 97.7375 89.2254 96.8625C90.9879 96.4125 92.7379 95.9625 94.4629 95.3625C96.4504 94.675 98.3879 93.8375 100.313 93C100.538 92.9 100.338 92.5875 100.125 92.675C98.0754 93.5625 96.0254 94.45 93.9129 95.1625C92.1504 95.75 90.3504 96.1875 88.5504 96.65C85.2254 97.5125 81.8379 98.5125 79.1879 100.8C78.9879 100.95 79.2504 101.213 79.4379 101.063Z" fill="black"/>
<path d="M103.35 36.85C111.5 37.35 119.6 38.425 127.613 40.05C127.85 40.1 127.95 39.7375 127.713 39.6875C119.675 38.05 111.538 36.975 103.363 36.4625C103.1 36.4625 103.1 36.8375 103.35 36.85Z" fill="black"/>
<path d="M103.363 36.5625C103.45 36.0375 103.475 35.5 103.438 34.975C103.425 34.7375 103.05 34.7375 103.063 34.975C103.1 35.475 103.088 35.975 103 36.475C102.963 36.7 103.325 36.8 103.363 36.5625Z" fill="black"/>
<path d="M103.325 35.3375C111.475 36.175 119.663 36.9125 127.688 38.6375C127.925 38.6875 128.025 38.325 127.788 38.275C119.725 36.55 111.513 35.8 103.325 34.9625C103.088 34.9375 103.088 35.3125 103.325 35.3375Z" fill="black"/>
<path d="M127.525 38.3875C127.475 38.8625 127.513 39.3375 127.6 39.8125C127.65 40.05 128.013 39.95 127.963 39.7125C127.875 39.275 127.863 38.8375 127.9 38.3875C127.925 38.15 127.55 38.15 127.525 38.3875Z" fill="black"/>
<path d="M103.95 31.0375C103.788 32.4875 103.95 33.9125 104.45 35.2875C104.538 35.5125 104.9 35.4125 104.813 35.1875C104.325 33.85 104.163 32.4625 104.325 31.0375C104.35 30.7875 103.975 30.8 103.95 31.0375Z" fill="black"/>
<path d="M103.888 31.075C105.45 31.5 107.05 31.6875 108.663 31.6125C108.9 31.6 108.9 31.225 108.663 31.2375C107.075 31.3 105.513 31.125 103.988 30.7125C103.75 30.65 103.65 31.0125 103.888 31.075Z" fill="black"/>
<path d="M108.35 31.6C108.55 32.875 108.388 34.15 107.85 35.325C107.75 35.5375 108.075 35.7375 108.175 35.5125C108.75 34.2375 108.925 32.8875 108.713 31.5C108.675 31.2625 108.313 31.3625 108.35 31.6Z" fill="black"/>
<path d="M105.325 30.925C104.35 29.6375 103.988 28.025 104.338 26.45C104.238 26.475 104.125 26.5 104.025 26.5375C105.313 27.7875 106.125 29.425 106.338 31.2125C106.363 31.45 106.738 31.45 106.713 31.2125C106.5 29.325 105.663 27.6 104.288 26.275C104.188 26.175 104 26.2125 103.975 26.3625C103.613 28.0375 103.975 29.7625 105 31.125C105.138 31.3 105.463 31.1125 105.325 30.925Z" fill="black"/>
<path d="M106.3 29.45C106.475 28.5625 106.75 27.7125 107.163 26.9125C107.35 26.5375 107.575 26.175 107.825 25.825C108 25.5875 108 25.4375 108.113 25.7125C108.188 25.9 108.213 26.25 108.238 26.4375C108.425 28.1625 107.913 29.9125 106.838 31.275C106.688 31.4625 106.95 31.725 107.1 31.5375C108.388 29.9 109.038 27.575 108.45 25.525C108.175 24.5625 107.525 25.5875 107.263 25.9875C106.613 27.0125 106.175 28.1625 105.938 29.35C105.9 29.5875 106.263 29.6875 106.3 29.45Z" fill="black"/>
<path d="M111.9 36.125C111.95 35.95 111.95 35.825 111.938 35.6375C111.925 35.4875 111.788 35.175 111.838 35.05C112.025 34.5375 113.2 34.9125 113.55 34.95C114.788 35.1 116.013 35.2625 117.238 35.4375C119.613 35.775 121.975 36.1625 124.325 36.575C124.275 36.5125 124.238 36.45 124.188 36.4C124.225 36.6625 124.25 36.925 124.288 37.1875C124.313 37.425 124.688 37.425 124.663 37.1875C124.625 36.925 124.6 36.6625 124.563 36.4C124.55 36.325 124.513 36.2375 124.425 36.225C121.663 35.725 118.9 35.2875 116.125 34.9125C114.85 34.7375 113.525 34.4625 112.238 34.425C111.95 34.4125 111.663 34.4625 111.513 34.75C111.313 35.15 111.638 35.6 111.538 36.0125C111.475 36.2625 111.838 36.3625 111.9 36.125Z" fill="black"/>
<path d="M115.75 34.725C115.275 34 116.275 33.6125 116.825 33.6125C117.35 33.6125 117.875 33.7375 118.4 33.8125C119.35 33.95 120.313 34.0875 121.263 34.2375C122.2 34.375 123.15 34.5375 124.088 34.7125C124.513 34.8 124.938 34.8875 125.375 34.9875C125.75 35.075 127.275 35.2625 126.95 35.9625C126.85 36.175 127.175 36.375 127.275 36.15C127.8 35.0125 126.088 34.7625 125.363 34.6C123.85 34.2625 122.325 34.0125 120.788 33.7875C120.025 33.675 119.275 33.5625 118.513 33.4625C117.838 33.3625 117.1 33.1625 116.413 33.275C115.65 33.3875 114.963 34.1875 115.45 34.925C115.563 35.1125 115.888 34.925 115.75 34.725Z" fill="black"/>
<path d="M124.338 36.5625C125.213 36.7875 126.1 36.8375 127 36.6875C127.238 36.65 127.138 36.2875 126.9 36.325C126.075 36.45 125.25 36.4125 124.438 36.2C124.2 36.15 124.1 36.5125 124.338 36.5625Z" fill="black"/>
<path d="M68.9379 39.7C71.5254 40 74.1254 40.1625 76.7379 40.1875C76.9754 40.1875 76.9754 39.8125 76.7379 39.8125C74.1254 39.7875 71.5254 39.6125 68.9379 39.325C68.7004 39.3 68.7004 39.675 68.9379 39.7Z" fill="#F66F5D"/>
<path d="M81.9501 40.025C84.3876 40.025 86.7751 39.725 89.1626 39.25C89.4001 39.2 89.3001 38.8375 89.0626 38.8875C86.7126 39.3625 84.3626 39.65 81.9501 39.65C81.7126 39.65 81.7126 40.025 81.9501 40.025Z" fill="#F66F5D"/>
<path d="M72.9254 48.2125C71.6754 50.4375 70.4254 52.6625 69.1754 54.8875C69.0629 55.1 69.3754 55.2875 69.5004 55.075C70.7504 52.85 72.0004 50.625 73.2504 48.4C73.3629 48.1875 73.0379 48 72.9254 48.2125Z" fill="#F66F5D"/>
<path d="M81.3626 45.9125C82.1751 47.2 82.9126 48.5125 83.5876 49.875C83.7001 50.0875 84.0251 49.9 83.9126 49.6875C83.2376 48.3375 82.4876 47.0125 81.6876 45.725C81.5626 45.5125 81.2376 45.7 81.3626 45.9125Z" fill="#F66F5D"/>
<path d="M86.925 43.2375C87.875 43.7875 88.8125 44.325 89.7625 44.875C89.975 45 90.1625 44.675 89.95 44.55C89 44 88.0625 43.4625 87.1125 42.9125C86.9 42.7875 86.7125 43.1125 86.925 43.2375Z" fill="#F66F5D"/>
<path d="M111.85 122.488C121.112 119.975 130.237 117 139.2 113.575C143.625 111.888 148 110.088 152.325 108.175C154.525 107.213 156.7 106.213 158.875 105.188C161.012 104.188 163.112 103.1 165.275 102.175C167.75 101.113 170.4 100.275 173.125 100.45C175.862 100.625 178.337 101.913 180.725 103.163C180.937 103.275 181.125 102.95 180.912 102.838C178.912 101.788 176.862 100.713 174.625 100.263C172.45 99.8375 170.237 100.1 168.125 100.725C165.875 101.388 163.762 102.425 161.662 103.438C159.475 104.5 157.262 105.538 155.05 106.538C146.075 110.613 136.9 114.213 127.562 117.338C122.337 119.088 117.075 120.675 111.762 122.113C111.512 122.188 111.612 122.55 111.85 122.488Z" fill="#191919"/>
<path d="M174.15 103.913C175.912 104.263 177.575 103.588 179.312 103.4C181.3 103.188 183.237 103.763 185.087 104.425C188.662 105.7 192.087 107.35 195.312 109.338C195.525 109.463 195.712 109.138 195.5 109.013C192.312 107.05 188.925 105.413 185.4 104.138C183.675 103.513 181.862 102.938 180 102.975C178.062 103.025 176.187 103.925 174.25 103.55C174.012 103.5 173.912 103.863 174.15 103.913Z" fill="#191919"/>
<path d="M99.8499 131.888C98.4874 134.063 97.9999 136.6 97.7124 139.113C97.3749 142.05 97.1124 145 96.8249 147.938C96.7999 148.175 97.1749 148.175 97.1999 147.938C97.4749 145.138 97.7374 142.338 98.0374 139.538C98.3249 136.95 98.7624 134.325 100.175 132.075C100.3 131.875 99.9874 131.688 99.8499 131.888Z" fill="#191919"/>
<path d="M108.7 137.312C106.475 141.025 106.175 145.425 106.187 149.65C106.187 149.887 106.562 149.887 106.562 149.65C106.55 145.487 106.825 141.15 109.025 137.5C109.15 137.287 108.825 137.1 108.7 137.312Z" fill="#191919"/>
<path d="M89.7624 135.962C91.9374 133.575 94.4499 131.225 97.2124 129.537C100.087 127.787 103.412 127.475 106.687 127.237C106.925 127.225 106.925 126.85 106.687 126.862C103.425 127.112 100.087 127.412 97.2124 129.1C95.8124 129.925 94.5624 130.962 93.3374 132C91.9874 133.15 90.6999 134.375 89.4999 135.687C89.3374 135.875 89.5999 136.137 89.7624 135.962Z" fill="#191919"/>
<path d="M146.662 96.6125C153.587 97.875 160.475 99.3375 167.312 101C167.55 101.063 167.65 100.7 167.412 100.638C160.575 98.975 153.687 97.5125 146.762 96.25C146.525 96.2125 146.425 96.575 146.662 96.6125Z" fill="#191919"/>
<path d="M114.075 70.7375C114.275 71.575 114.55 72.95 114.55 74.6625C114.55 79.5125 112.375 83.95 111.713 85.2875C111.288 86.1375 110.438 87.7625 109.888 90.1625C109.7 90.95 109.6 91.6125 109.55 92.0625C110.05 92.1125 110.813 92.2 111.713 92.3375C113.738 92.6375 114.588 92.9 115.775 93.0875C116.8 93.2375 118.263 93.35 120.113 93.15C120.063 93.6125 119.975 94.3 119.838 95.1125C119.513 97.1375 119.35 98.1375 118.963 98.9C118.363 100.075 117.7 100.413 117.875 100.925C118 101.3 118.475 101.475 119.638 101.738C121.55 102.175 122.575 102.225 123.563 102.413C124.663 102.625 124.7 102.8 127.088 103.7C129.15 104.475 130.338 104.925 131.825 105.263C132.3 105.375 134.788 105.925 138.05 105.8C139.875 105.738 140.538 105.513 142.25 105.663C143.688 105.788 144.85 106.1 145.638 106.338C145.75 105.638 145.913 104.588 146.038 103.288C146.313 100.513 146.1 100.05 146.513 98.6875C146.825 97.625 146.988 97.8 148.2 95.2375C148.988 93.5625 149.388 92.725 149.688 91.7125C149.863 91.1 150.375 89.275 150.3 86.8375C150.225 84.3375 149.65 84.8125 149.425 82.1C149.4 81.75 149.35 80.9875 148.925 80.825C148.613 80.7 148.238 80.9625 147.8 81.25C146.6 82.0375 145.6 82.55 145.375 82.6625C144.75 82.9625 143.738 83.1875 142.1 82.7C142.275 82.1375 142.5 81.3625 142.738 80.4125C143.15 78.725 143.325 77.525 143.513 76.1875C143.513 76.1875 143.938 73.2125 143.375 71.475C143.263 71.1375 143.1 70.875 142.85 70.775C142.6 70.675 142.363 70.775 142.113 70.85C141.75 70.9625 141.238 71.0625 140.525 71.0625C140.425 70.8875 140.263 70.625 140.038 70.3625C139.75 70.025 139.175 69.4625 138.063 69.025C136.688 68.475 135.15 68.3875 133.663 68.3875C131.138 68.3875 130.95 68.6625 128.5 68.675C127.213 68.675 126.125 68.6875 124.663 68.4625C122.113 68.0875 121.925 67.5375 120.513 67.6875C119.525 67.7875 118.613 68.2625 116.788 69.2C115.638 69.7875 114.725 70.3375 114.075 70.7375Z" fill="white"/>
<path d="M127.738 79.725C130.7 79.3 133.388 80.9875 136.088 81.9C138.85 82.825 141.788 83.1625 144.7 82.925C144.938 82.9 144.938 82.525 144.7 82.55C141.588 82.8 138.463 82.3875 135.538 81.3125C132.975 80.3625 130.45 78.9625 127.638 79.375C127.4 79.4 127.5 79.75 127.738 79.725Z" fill="#191919"/>
<path d="M128.763 80.1125C127.75 79.6875 126.7 78.075 125.488 78.925C124.938 79.3 124.713 80 124.525 80.6C124.225 81.55 124 82.525 123.75 83.5C123.25 85.525 122.475 87.375 121.588 89.2625C120.775 90.9625 120.1 92.65 119.75 94.5125C119.425 96.25 119.263 98.0875 118.363 99.65C118.113 100.1 117.388 100.763 117.938 101.263C118.463 101.75 119.5 102.013 120.163 102.188C121.038 102.425 121.925 102.475 122.838 102.513C123.95 102.55 124.9 102.825 125.9 103.263C127.713 104.038 129.513 104.85 131.413 105.388C133.663 106.025 135.813 106.038 138.138 105.888C140.625 105.725 143.063 105.913 145.475 106.55C145.575 106.575 145.663 106.513 145.7 106.425C146.613 104.113 145.938 101.588 146.588 99.225C147.238 96.8625 148.913 94.95 149.65 92.6125C150.375 90.3625 150.5 87.9375 150.225 85.6C150.1 84.475 149.875 83.3625 149.575 82.275C149.425 81.7125 149.288 80.35 148.4 80.675C147.863 80.875 147.338 81.3 146.863 81.625C146.338 81.975 145.813 82.3375 145.263 82.6625C144.1 83.375 142.863 83.9375 141.475 83.925C141.238 83.925 141.238 84.3 141.475 84.3C143.488 84.3125 145.175 83.1875 146.788 82.1125C147.2 81.8375 147.613 81.55 148.05 81.3C148.1 81.2625 148.3 81.1125 148.388 81.1C149 81 148.8 81.2125 148.938 81.45C149.088 81.7 149.138 82.1 149.213 82.375C149.525 83.5 149.75 84.65 149.875 85.825C150.113 88.1 149.975 90.4375 149.25 92.625C148.538 94.7875 147.05 96.575 146.338 98.725C145.513 101.2 146.3 103.9 145.325 106.338C145.4 106.3 145.475 106.25 145.55 106.213C143.75 105.738 141.913 105.488 140.05 105.475C138.113 105.463 136.175 105.8 134.238 105.6C132.35 105.4 130.525 104.813 128.763 104.113C127.15 103.475 125.5 102.475 123.763 102.238C122.875 102.113 121.963 102.188 121.075 102.038C120.263 101.9 119.113 101.688 118.463 101.188C118.175 100.963 118.125 100.8 118.275 100.463C118.35 100.288 118.513 100.125 118.6 99.9625C118.775 99.6625 118.925 99.3625 119.05 99.0375C119.35 98.3 119.538 97.525 119.7 96.7375C120.025 95.1 120.225 93.4625 120.813 91.8875C121.438 90.2125 122.325 88.6375 123.013 86.9875C123.813 85.075 124.15 83.0375 124.75 81.05C125.013 80.1875 125.463 78.65 126.675 79.2C127.363 79.5125 127.838 80.1625 128.538 80.4625C128.8 80.525 128.988 80.2 128.763 80.1125Z" fill="#191919"/>
<path d="M134.063 84.1376C135.763 84.7376 137.525 84.9001 139.313 84.6376C139.55 84.6001 139.45 84.2376 139.213 84.2751C137.5 84.5251 135.8 84.3501 134.163 83.7751C133.925 83.6876 133.838 84.0501 134.063 84.1376Z" fill="#191919"/>
<path d="M142.488 82.975C143.75 83.05 144.988 82.9 146.188 82.5125C146.413 82.4375 146.313 82.075 146.088 82.15C144.913 82.525 143.725 82.675 142.488 82.5875C142.238 82.5875 142.25 82.9625 142.488 82.975Z" fill="#191919"/>
<path d="M114.475 70.825C115.525 70.1875 116.563 69.55 117.613 68.925C118.613 68.325 119.588 67.8625 120.788 67.9C122.038 67.95 123.263 68.3625 124.488 68.5875C125.575 68.775 126.688 68.8875 127.788 68.925C131.813 69.0375 137.188 67.325 140.225 70.9375C140.375 71.125 140.65 70.85 140.488 70.675C137.413 67.025 132.1 68.625 128.025 68.5625C126.713 68.5375 125.4 68.4 124.1 68.15C122.925 67.9125 121.75 67.525 120.55 67.5375C119.463 67.55 118.525 67.9625 117.6 68.5C116.488 69.15 115.388 69.8375 114.288 70.5125C114.075 70.625 114.263 70.95 114.475 70.825Z" fill="#191919"/>
<path d="M135.188 71.65C136.688 71.825 138.188 71.7875 139.675 71.525C140.363 71.4 141.038 71.1625 141.725 71.0625C142.1 71.0125 142.55 70.975 142.888 71.175C143.35 71.4375 143.388 72.025 143.4 72.5C143.45 75.8375 142.925 79.2125 141.988 82.4125C141.925 82.65 142.288 82.75 142.35 82.5125C142.875 80.725 143.263 78.9 143.5 77.0625C143.625 76.1125 143.7 75.15 143.75 74.1875C143.788 73.3875 143.925 72.425 143.688 71.65C143.3 70.35 141.788 70.65 140.8 70.9C138.95 71.375 137.075 71.5125 135.188 71.2875C134.95 71.2375 134.95 71.6125 135.188 71.65Z" fill="#191919"/>
<path d="M113.875 70.65C113.913 72.7375 114.625 74.75 114.488 76.8625C114.363 78.725 113.738 80.5 113.013 82.2C111.638 85.425 109.813 88.5125 109.388 92.05C109.375 92.15 109.488 92.2375 109.575 92.2375C110.525 92.2125 111.413 92.4625 112.325 92.6875C113.188 92.9 114.05 93.075 114.938 93.2C116.688 93.4375 118.463 93.475 120.225 93.325C120.463 93.3 120.463 92.925 120.225 92.95C118.375 93.1125 116.5 93.0625 114.663 92.7875C112.975 92.525 111.313 91.8375 109.588 91.875C109.65 91.9375 109.713 92 109.775 92.0625C110.225 88.3875 112.225 85.2 113.6 81.825C114.25 80.2375 114.763 78.5875 114.888 76.875C115.025 74.775 114.313 72.7625 114.275 70.6625C114.25 70.4 113.875 70.4 113.875 70.65Z" fill="#191919"/>
<path opacity="0.13" d="M131.2 79.6875C131.875 79.775 134.313 80.1125 136.063 79C137.463 78.1125 138.488 76.2375 138.488 74.5125C138.488 73.3375 138 72.275 138.613 71.7125C138.775 71.5625 138.875 71.5875 139.613 71.4C141.413 70.95 141.65 70.6 142.288 70.775C143.038 70.975 143.425 71.625 143.475 71.7125C143.888 72.425 143.7 73.2125 143.6 73.7C142.9 77.075 143.563 77.175 142.538 80.9875C142.338 81.7125 142.163 82.3 142.038 82.675C142.563 82.7375 143.263 82.775 144.088 82.675C144.8 82.5875 145.8 82.4625 146.825 81.8625C147.85 81.2625 148.163 80.6125 148.625 80.7375C149.038 80.85 149.2 81.45 149.313 81.8625C150.088 84.8375 150.063 86.2875 150.063 86.2875C150 89.5875 149.975 91.25 149.75 92.075C148.775 95.7 146.975 95.3 146.513 98.3625C146.225 100.275 146.788 101.325 146.138 104.088C145.913 105.025 145.65 105.775 145.45 106.263C144.575 106.013 143.188 105.688 141.463 105.575C138.925 105.413 137.95 105.863 135.488 105.825C133.338 105.8 129.738 105.4 129.638 104.513C129.475 103.238 136.875 102.588 137.363 99.5875C137.688 97.6 134.713 96.6125 133.375 93.2375C132.075 89.975 133.125 86.4875 134.188 84.0875C135.7 84.2375 137.213 84.375 138.738 84.525C131.188 80.775 129.738 79.7625 129.838 79.5375C129.875 79.45 130.338 79.5625 131.2 79.6875Z" fill="#6C6D6D"/>
<path opacity="0.16" d="M148.888 80.9375C148.488 80.9625 148.663 83.1875 147.888 86.9125C147.788 87.3875 146.988 91.1875 145.213 94.95C144.088 97.3375 141.75 101.438 137.05 105.475C139.875 105.825 142.7 106.175 145.525 106.538C145.7 105.95 145.963 105.025 146.15 103.863C146.6 101.15 146.188 100.338 146.65 98.5125C147.088 96.7875 147.613 96.85 148.638 94.525C148.775 94.2125 149.788 91.9 150.138 89.2375C150.688 84.975 149.438 80.9 148.888 80.9375Z" fill="#6C6D6D"/>
<path opacity="0.18" d="M143.413 75.575C143.163 75.5 142.713 77.425 141.175 78.9375C139.463 80.625 137.088 81.1 135.075 81.175C136.263 81.6625 137.8 82.1625 139.625 82.425C140.575 82.5625 141.45 82.6125 142.238 82.6125C143.5 77.0875 143.625 75.6375 143.413 75.575Z" fill="#6C6D6D"/>
<path d="M77.6626 127.325C78.0126 129.7 78.3626 132.062 78.7001 134.437C73.4501 141.35 71.1626 145.137 71.8501 145.787C72.5876 146.487 76.7876 143.55 84.4501 136.975C84.1876 132.887 83.9251 128.812 83.6626 124.725C81.6626 125.587 79.6626 126.462 77.6626 127.325Z" fill="#F66F5D"/>
<path d="M98.375 95.3125C95.6125 96.2125 90.1125 98.325 84.6375 102.95C82.325 104.9 79.975 106.913 78.05 110.388C76.4 113.363 75.9125 115.888 75.1875 119.838C74.6375 122.838 74.0625 127.138 74.1375 132.425C75.7875 132.3 77.5375 132.125 79.3875 131.85C81.725 131.513 83.8875 131.088 85.875 130.613C85.85 128 86.075 124.738 86.925 121.075C87.4875 118.663 88.2 116.563 88.925 114.775C94.1125 109.975 98.925 107.725 102.475 106.575C106.762 105.175 110.312 105.013 113.062 101.8C114.7 99.9 116.475 96.425 115.262 94.45C112.862 90.575 100.212 94.7125 98.375 95.3125Z" fill="white" stroke="#191919" stroke-miterlimit="10"/>
<path opacity="0.14" d="M113.763 93.375C113 93.525 113.213 95.5126 112.55 97.3001C111.35 100.5 107.775 101.913 104.9 103.05C87.9876 109.775 86.1251 111.1 84.6626 113.138C83.2751 115.075 82.6751 117.138 81.4876 121.263C80.2751 125.45 79.8376 129.088 79.6626 131.688C81.7376 131.35 83.8126 131.013 85.8876 130.675C85.8751 129.3 85.9376 127.825 86.0876 126.275C86.5501 121.638 87.7001 117.713 88.9251 114.638C89.7126 113.988 90.8126 113.113 92.1751 112.138C94.9501 110.15 96.9501 108.713 99.6876 107.6C101.825 106.725 102 107.038 107.338 105.238C108.813 104.738 109.613 104.438 110.588 103.813C112.838 102.375 113.95 100.525 114.45 99.6875C115.288 98.2625 115.9 97.225 115.663 95.9C115.438 94.55 114.425 93.2375 113.763 93.375Z" fill="#6C6D6D"/>
<path opacity="0.16" d="M95.7 109.35C91.1375 110.188 88.7 112.25 87.575 113.413C85.45 115.613 84.575 118.363 82.9 123.763C81.9375 126.875 81.325 129.5 80.9375 131.338C82.5 131.138 84.05 130.938 85.6125 130.725C85.6625 128.088 85.9375 125.863 86.225 124.163C86.4 123.088 86.7 121.363 87.375 119.15C87.925 117.35 88.5375 115.838 89.0625 114.688C91.275 112.913 93.4875 111.125 95.7 109.35Z" fill="#6C6D6D"/>
<path d="M80.0502 106.4C80.5377 105.9 81.2877 105.238 82.3377 104.775C85.1377 103.55 88.0252 104.575 89.7627 105.175C93.6502 106.525 97.7752 107.225 101.5 108.95C107.138 111.563 114.538 115 122.275 116.375C130.95 117.913 132.8 115.575 144.538 117.325C148.863 117.963 152.363 118.838 154.65 119.488C153.65 121.5 152.613 122.138 151.813 122.325C151.275 122.45 151 122.338 150.6 122.6C149.6 123.25 150.125 124.725 149.388 125.838C148.663 126.925 147.263 126.825 145.75 127.188C142.675 127.913 142.375 129.725 138.875 132.05C137.175 133.175 133.975 135.288 130.375 135.15C126.513 135 126.025 132.413 121.738 130.963C116.388 129.163 114.763 132.425 107.575 131.913C106.063 131.8 98.6127 131.275 93.4127 126.113C89.8627 122.6 90.5127 120.038 86.5377 116C83.5002 112.913 80.1002 111.313 77.7627 110.463C78.0502 109.863 78.3752 109.25 78.7252 108.613C79.1627 107.813 79.6127 107.088 80.0502 106.4Z" fill="white" stroke="#191919" stroke-miterlimit="10"/>
<path d="M81.5879 106.375C83.3254 106.425 85.0129 106.813 86.6004 107.525C86.7629 107.6 86.9129 107.363 86.7379 107.288C85.1004 106.55 83.3754 106.15 81.5879 106.088C81.4004 106.088 81.4004 106.375 81.5879 106.375Z" fill="#191919"/>
<path d="M85.7253 113.463C88.6753 115.15 90.2378 118.3 92.2878 120.875C94.4628 123.6 97.2628 125.788 100.425 127.263C100.588 127.338 100.725 127.1 100.563 127.025C97.2628 125.475 94.3628 123.163 92.1503 120.25C90.2503 117.75 88.6878 114.838 85.8753 113.225C85.7128 113.125 85.5628 113.375 85.7253 113.463Z" fill="#191919"/>
<path d="M139.513 122.188C143.038 122.225 146.563 122.025 150.063 121.6C150.238 121.575 150.238 121.3 150.063 121.313C146.563 121.738 143.038 121.938 139.513 121.9C139.325 121.913 139.325 122.188 139.513 122.188Z" fill="#191919"/>
<path d="M138.45 126.85C139.75 127.325 141.075 127.725 142.413 128.025C142.588 128.062 142.663 127.8 142.488 127.75C141.138 127.437 139.813 127.05 138.525 126.575C138.35 126.512 138.275 126.787 138.45 126.85Z" fill="#191919"/>
<path d="M94.6126 118.213C97.7001 120.95 101.438 123.125 105.438 124.213C107.45 124.75 109.5 124.838 111.538 124.4C113.688 123.938 115.688 123.013 117.6 121.938C117.763 121.85 117.613 121.6 117.463 121.7C115.638 122.725 113.725 123.613 111.688 124.088C109.55 124.588 107.413 124.488 105.3 123.888C101.425 122.788 97.8251 120.688 94.8126 118.025C94.6751 117.888 94.4751 118.088 94.6126 118.213Z" fill="#191919"/>
<path d="M112.025 116.563C112.85 116.725 113.6 117.088 114.2 117.688C114.85 118.338 115.538 119.85 114.263 120.275C114.088 120.338 114.163 120.6 114.338 120.55C115.313 120.225 115.45 119.125 115.013 118.3C114.438 117.213 113.263 116.525 112.1 116.3C111.925 116.263 111.85 116.538 112.025 116.563Z" fill="#191919"/>
<path d="M116.3 123.888C118.987 122.15 122.212 121.813 125.325 121.525C125.5 121.513 125.5 121.225 125.325 121.238C122.162 121.525 118.887 121.875 116.162 123.638C116.012 123.738 116.15 123.988 116.3 123.888Z" fill="#191919"/>
<path d="M90.1253 107.1C92.8878 107.838 95.0628 109.725 97.3628 111.313C99.7503 112.963 102.363 114.263 105.113 115.175C105.288 115.238 105.363 114.963 105.188 114.9C102.313 113.95 99.6253 112.575 97.1628 110.825C94.9628 109.275 92.8378 107.525 90.1878 106.813C90.0253 106.788 89.9503 107.05 90.1253 107.1Z" fill="#191919"/>
<path opacity="0.13" d="M87.0879 104.288C90.6254 105.938 93.1629 107.675 94.8254 108.963C96.6004 110.338 97.1754 111.05 99.1004 112.25C100.138 112.9 102.288 114.238 105.338 115.188C109.088 116.363 110.713 115.85 112.15 117.5C112.338 117.713 113.413 118.938 113.25 120.438C113.05 122.313 111.038 124 108.175 124.425C108.988 124.438 109.9 124.388 110.888 124.25C113.225 123.925 115.113 123.2 116.488 122.525C116.05 123.038 115.6 123.625 115.738 123.8C115.925 124.038 117.138 123.35 117.988 122.938C119.55 122.175 120.588 122.075 124.275 121.5C132.413 120.238 133.2 119.875 135.763 120.113C137.738 120.3 140.038 120.788 140.038 121.213C140.025 121.65 137.488 121.813 137.5 122.025C137.525 122.288 142.025 123.513 146.5 121.913C147.513 121.55 150.05 120.5 150.938 121.45C151.188 121.713 151.313 122.15 151.75 122.263C152.275 122.4 152.825 121.938 153.188 121.625C153.575 121.3 154.2 120.663 154.625 119.55C154.388 119.475 154.05 119.375 153.65 119.263C152.8 119.025 150.275 118.325 146.613 117.7C145.475 117.513 143.35 117.15 140.838 116.95C135.575 116.525 134.188 117.188 129.413 117.063C128.188 117.025 124.5 116.888 120 115.913C115.988 115.038 113.1 113.888 108.288 111.925C104.1 110.225 103.625 109.8 100.5 108.525C97.4379 107.263 92.9379 105.625 87.0879 104.288Z" fill="#6C6D6D"/>
<path opacity="0.18" d="M123.45 131.412C124.763 130.862 126.325 130.337 128.125 129.975C128.875 129.825 129.588 129.712 130.263 129.625C130.063 130.1 129.85 130.575 129.625 131.062C129.05 132.325 128.45 133.487 127.838 134.587C126.375 133.537 124.913 132.475 123.45 131.412Z" fill="#6C6D6D"/>
<path opacity="0.15" d="M146.062 124.262C142.887 124.987 140.537 124.775 140.525 124.95C140.512 125.1 142.1 125.388 149.125 126.05C149.337 125.563 149.562 125.025 149.762 124.438C149.95 123.888 150.1 123.363 150.225 122.875C149.25 123.312 147.837 123.862 146.062 124.262Z" fill="#6C6D6D"/>
<path opacity="0.22" d="M112.138 116.475C112.088 116.575 113.313 116.85 113.925 117.913C114.375 118.7 114.338 119.613 114.15 120.4C114.275 120.35 115 120.05 115.188 119.363C115.375 118.65 114.85 118.038 114.55 117.688C113.625 116.588 112.188 116.363 112.138 116.475Z" fill="#6C6D6D"/>
<path opacity="0.15" d="M129.675 116.938C134 116.513 139.513 116.413 145.775 117.463C148.975 118 151.863 118.738 154.375 119.538C154.275 119.888 154.05 120.475 153.563 121.038C153.563 121.038 153.063 121.613 152.288 122.013C150.375 123 147.388 122.013 147.213 121.95C148.038 121.838 148.95 121.65 149.925 121.375C150.488 121.213 151 121.038 151.488 120.85C149.838 120.163 148.025 119.513 146.063 118.95C139.825 117.138 134.15 116.788 129.675 116.938Z" fill="#6C6D6D"/>
<path d="M136.875 120.9C137.013 120.738 137.213 120.75 137.738 120.65C138.363 120.525 138.85 120.363 139.188 120.238C141.075 119.713 142.45 119.013 143.388 118.45C145.388 117.238 146.288 116.088 147.488 116.35C148.25 116.525 148.95 117.238 148.888 117.838C148.838 118.35 148.263 118.688 145.388 119.775C140.925 121.463 141.338 121.013 140 121.713C138.775 122.363 138.088 122.913 137.463 122.638C136.85 122.338 136.538 121.288 136.875 120.9Z" fill="#191919"/>
<path d="M160.438 110.838C158.6 112.288 158.638 114.65 158.638 114.85C158.663 115.625 158.863 116.238 159.013 116.6C156.8 117.725 156.438 118.188 156.5 118.4C156.675 118.95 159.963 119.038 161.475 117.188C161.825 116.763 161.963 116.337 162.225 115.512C162.75 113.875 163.463 110.575 162.438 110.038C161.85 109.738 160.888 110.488 160.438 110.838Z" fill="#191919"/>
<path d="M147.2 117.463C147.475 116.9 148.15 116.775 149.4 116.488C150.775 116.175 153.1 115.638 154.4 115.15C155.9 114.575 156.788 113.775 158.313 112.4C161.363 109.65 161.5 107.95 162.875 107.888C164.588 107.813 166.725 110.325 166.513 112.563C166.35 114.313 164.813 115.3 161.95 117.125C161.288 117.55 158.425 119.325 154.013 120.288C151.388 120.863 149.525 121.25 148.225 120.163C147.413 119.488 146.825 118.238 147.2 117.463Z" fill="#191919"/>
<path d="M163.675 111.6C161.838 113.05 161.875 115.413 161.875 115.613C161.9 116.388 162.1 117 162.25 117.363C160.038 118.488 159.675 118.95 159.738 119.163C159.913 119.713 163.2 119.8 164.713 117.95C165.063 117.525 165.2 117.1 165.463 116.275C165.988 114.638 166.7 111.338 165.675 110.8C165.075 110.488 164.113 111.25 163.675 111.6Z" fill="#191919"/>
<path d="M161.538 109.1C161.763 108.887 162.063 108.587 162.388 108.2C162.588 107.962 163.338 107.062 164.15 105.325C164.613 104.35 164.975 103.575 165.225 102.425C165.463 101.313 165.663 100.325 165.175 99.475C164.775 98.775 164.313 98.4 164.313 98.4C163.9 98.075 163.55 97.95 163.563 97.75C163.588 97.575 163.9 97.425 164.188 97.425C165.063 97.4125 165.713 98.95 165.825 99.2C166.4 100.562 166.188 101.862 166.088 102.312C166.025 102.575 166.025 102.5 165.55 103.925C165.088 105.325 165.1 105.35 164.9 105.912C164.225 107.812 163.85 108.862 162.975 109.187C162.725 109.287 162.25 109.375 161.538 109.1Z" fill="#191919"/>
<path d="M144.525 119.588C144.087 119.375 142.888 118.8 142.825 117.925C142.813 117.775 142.95 117.238 143.212 116.175C143.325 115.725 143.338 115.7 143.388 115.475C143.55 114.738 143.5 114.588 143.65 114.25C143.712 114.113 143.988 113.475 144.35 113.463C144.675 113.45 145.038 113.963 145.175 114.725C145.8 114.713 146.6 114.7 147.225 114.688C147.9 114.675 148.7 114.663 149.363 114.65C149.488 114.45 149.7 114.163 150.013 113.863C150.313 113.575 150.525 113.375 150.712 113.425C150.962 113.488 151.013 114 151.1 114.65C151.413 116.913 151.688 117.1 151.45 117.713C151.2 118.338 150.7 118.663 150.138 119.025C150.025 119.113 147.187 120.875 144.525 119.588Z" fill="#191919"/>
<path d="M144.138 116.625C144.575 116.538 144.95 116.8 145.288 117.05C145.338 117.088 145.388 117 145.338 116.975C144.975 116.7 144.588 116.45 144.113 116.538C144.063 116.538 144.088 116.638 144.138 116.625Z" fill="white"/>
<path d="M147.125 117.05C147.525 116.75 147.975 116.563 148.462 116.5C148.525 116.488 148.525 116.4 148.462 116.4C147.95 116.463 147.487 116.65 147.075 116.963C147.037 117 147.075 117.088 147.125 117.05Z" fill="white"/>
<path d="M144.95 115.7C145.075 115.6 145.225 115.563 145.388 115.6C145.45 115.613 145.475 115.525 145.413 115.513C145.225 115.463 145.038 115.513 144.888 115.638C144.838 115.675 144.9 115.738 144.95 115.7Z" fill="white"/>
<path d="M147.1 115.638C147.237 115.588 147.375 115.6 147.5 115.688C147.55 115.725 147.6 115.638 147.55 115.613C147.412 115.525 147.237 115.5 147.087 115.563C147.012 115.575 147.037 115.663 147.1 115.638Z" fill="white"/>
<path d="M146.088 117.588C146.1 117.575 146.113 117.563 146.125 117.538C146.1 117.525 146.088 117.513 146.063 117.5C146.075 117.563 146.063 117.625 146.025 117.675C146.038 117.663 146.063 117.663 146.075 117.65C146.038 117.6 146.038 117.55 146.063 117.513C146.038 117.525 146.013 117.525 145.988 117.538C145.988 117.588 145.988 117.638 146 117.688C146.025 117.7 146.05 117.713 146.075 117.725C146.075 117.688 146.075 117.638 146.088 117.588C146.05 117.588 146.025 117.588 145.988 117.588C146.013 117.725 146 117.875 145.925 118C145.9 118.05 145.838 118.138 145.775 118.175C145.575 118.275 145.575 118.013 145.575 117.925C145.575 117.863 145.475 117.863 145.475 117.925C145.475 118.038 145.488 118.163 145.575 118.25C145.663 118.325 145.763 118.313 145.85 118.238C146.05 118.088 146.113 117.813 146.063 117.575C146.05 117.525 145.975 117.538 145.975 117.588C145.975 117.638 145.975 117.688 145.975 117.738C145.975 117.775 146.025 117.8 146.05 117.775C146.125 117.688 146.125 117.575 146.038 117.5C146.013 117.475 145.975 117.488 145.963 117.525C145.925 117.625 145.913 117.738 146.038 117.775C146.063 117.788 146.075 117.775 146.088 117.75C146.15 117.675 146.163 117.588 146.138 117.5C146.125 117.475 146.1 117.463 146.075 117.463C146 117.488 145.975 117.525 145.963 117.6C145.988 117.65 146.088 117.65 146.088 117.588Z" fill="white"/>
<path d="M146.05 117.625C145.95 117.85 145.987 118.213 146.237 118.338C146.512 118.475 146.625 118.125 146.65 117.925C146.65 117.863 146.562 117.863 146.55 117.925C146.537 118.013 146.537 118.1 146.487 118.175C146.4 118.313 146.25 118.275 146.162 118.163C146.05 118.013 146.05 117.825 146.125 117.65C146.162 117.6 146.075 117.575 146.05 117.625Z" fill="white"/>
<path d="M145.012 117.35C144.725 117.2 144.45 117.037 144.187 116.862C144.137 116.825 144.087 116.912 144.137 116.937C144.4 117.112 144.675 117.275 144.962 117.425C145.025 117.462 145.075 117.375 145.012 117.35Z" fill="white"/>
<path d="M144.913 117.65C144.638 117.613 144.363 117.613 144.075 117.65C144.013 117.663 144.013 117.75 144.075 117.75C144.35 117.713 144.625 117.713 144.913 117.75C144.975 117.75 144.975 117.65 144.913 117.65Z" fill="white"/>
<path d="M144.9 117.8C144.637 117.887 144.4 118.05 144.225 118.262C144.187 118.312 144.25 118.375 144.287 118.325C144.45 118.112 144.675 117.962 144.925 117.887C144.987 117.862 144.962 117.775 144.9 117.8Z" fill="white"/>
<path d="M147.05 117.725C147.438 117.462 147.875 117.312 148.338 117.287C148.4 117.287 148.4 117.188 148.338 117.188C147.85 117.225 147.4 117.375 147 117.637C146.95 117.675 147 117.762 147.05 117.725Z" fill="white"/>
<path d="M147.225 117.95C147.587 117.837 147.95 117.875 148.275 118.05C148.325 118.075 148.375 118 148.325 117.975C147.975 117.787 147.587 117.75 147.2 117.862C147.137 117.875 147.162 117.962 147.225 117.95Z" fill="white"/>
<path d="M147.375 118.175C147.675 118.237 147.925 118.387 148.125 118.612C148.163 118.662 148.225 118.587 148.188 118.55C147.975 118.312 147.713 118.15 147.4 118.087C147.338 118.062 147.313 118.162 147.375 118.175Z" fill="white"/>
<path d="M150.475 114.05C150.312 114.3 150.2 114.575 150.15 114.863C150.15 114.9 150.175 114.925 150.212 114.925C150.262 114.913 150.262 114.9 150.312 114.875C150.287 114.888 150.562 114.688 150.475 114.875C150.45 114.913 150.5 114.963 150.537 114.938C150.587 114.938 150.637 114.95 150.687 114.95C150.65 115 150.712 115.063 150.75 115.013C150.787 114.963 150.8 114.9 150.75 114.85C150.675 114.775 150.575 114.813 150.487 114.863C150.512 114.888 150.525 114.9 150.55 114.925C150.587 114.85 150.625 114.75 150.525 114.688C150.387 114.6 150.287 114.8 150.187 114.838C150.212 114.863 150.225 114.875 150.25 114.9C150.3 114.613 150.412 114.35 150.562 114.113C150.587 114.05 150.512 114 150.475 114.05Z" fill="white"/>
<path d="M144.275 114.1C144.338 114.313 144.363 114.525 144.35 114.738C144.388 114.738 144.413 114.738 144.45 114.738C144.45 114.588 144.275 114.475 144.163 114.613C144.138 114.638 144.138 114.675 144.113 114.688C144.088 114.713 144.05 114.725 144.013 114.75C143.938 114.825 143.925 114.913 143.95 115C143.963 115.063 144.05 115.038 144.038 114.975C144.025 114.863 144.063 114.788 144.175 114.763C144.2 114.763 144.213 114.738 144.213 114.713C144.263 114.713 144.3 114.713 144.35 114.713C144.35 114.775 144.438 114.775 144.45 114.713C144.475 114.488 144.45 114.263 144.375 114.05C144.35 114.013 144.263 114.038 144.275 114.1Z" fill="white"/>
<path d="M139.6 122.75C139.737 122.587 139.937 122.6 140.462 122.5C141.087 122.375 141.575 122.212 141.912 122.087C143.8 121.562 145.175 120.862 146.112 120.3C148.112 119.087 149.012 117.937 150.212 118.2C150.975 118.375 151.675 119.087 151.612 119.687C151.562 120.2 150.987 120.537 148.112 121.625C143.65 123.312 144.062 122.862 142.725 123.562C141.5 124.212 140.812 124.762 140.187 124.487C139.562 124.2 139.262 123.15 139.6 122.75Z" fill="#191919"/>
<path d="M104.3 68.475C103.375 67.9875 102.175 68.525 101.513 68.825C100.338 69.35 99.0127 70.425 97.5002 73.9625C96.6502 75.9375 95.5752 79.0875 95.2377 83.2875C93.9127 83.8625 92.0377 84.4875 89.7502 84.6C87.2752 84.7125 85.9877 84.15 85.3002 84.95C84.4377 85.95 85.1752 88.35 86.5252 89.75C88.0377 91.325 90.1127 91.425 91.5002 91.4875C92.5127 91.5375 96.2002 91.5875 99.5252 89.05C102.738 86.5875 103.6 83.2375 104.588 79.4625C104.838 78.3875 106.975 69.875 104.3 68.475Z" fill="white" stroke="#191919" stroke-miterlimit="10"/>
<path opacity="0.12" d="M103.275 68.3375C102.188 68.725 102.8 71.85 102.525 75.375C102.463 76.125 102.025 81.3625 99.8127 84.5125C96.2502 89.575 88.0002 89.2875 86.0752 89.1875C86.3002 89.575 86.7002 90.1375 87.3627 90.6125C88.1127 91.1375 88.9252 91.3375 90.0002 91.425C91.1252 91.5125 92.9127 91.6625 95.2752 90.95C96.5002 90.575 99.6127 89.6375 101.7 86.75C102.275 85.9625 102.6 85.1875 103.263 83.6375C103.613 82.8125 104.45 80.725 105.088 77.6875C105.088 77.6875 105.513 75.65 105.488 70.65C105.488 70.0875 105.363 69.6 105.013 69.1625C104.613 68.6125 103.788 68.15 103.275 68.3375Z" fill="#6C6D6D"/>
<path opacity="0.25" d="M104.7 77.475C104.563 77.4375 104.188 79.45 102.463 82.55C101.338 84.5875 99.8504 87.175 97.1129 89.1125C94.3129 91.0875 91.6754 91.3375 91.7004 91.4125C91.7254 91.5125 97.0629 91.3375 100.7 87.825C104.763 83.9 104.938 77.5375 104.7 77.475Z" fill="#6C6D6D"/>
<path d="M104.463 66.3125C102.725 67.5125 101.7 68.8375 101.213 69.475C98.3253 73.275 97.9878 77.4125 97.8753 79.225C97.6128 83.25 98.7128 84.1125 98.8628 90.4125C98.9128 92.5 98.8378 94.2125 98.7753 95.2875C100.3 96.4 103.575 98.4875 108.25 99.075C113.988 99.8 118.4 97.85 120.075 97C121.05 96.0875 122.388 94.7 123.625 92.775C124.9 90.8 125.788 88.6875 126.988 83.775C127.7 80.85 128.525 76.9625 129.163 72.2625C128.163 70.825 124.638 66.175 118.175 64.5125C117.013 64.2125 110.088 62.4375 104.463 66.3125Z" fill="#F66F5D"/>
<path opacity="0.09" d="M117.325 64.3375C117.738 65.6125 118.213 67.475 118.363 69.75C118.625 73.5375 117.875 76.8625 116.275 81.0875C113.525 88.375 109.7 94.5125 106.638 98.8125C107.8 99.0125 109.138 99.15 110.613 99.1375C114.638 99.1125 117.875 98 120 97.05C120.738 96.3375 121.763 95.25 122.8 93.7875C123.25 93.1625 124.613 91.175 125.863 87.8C128.138 81.675 128.888 74.075 129.05 72.225C128.05 70.7375 126.063 68.25 122.725 66.3625C120.688 65.2 118.763 64.6375 117.325 64.3375Z" fill="#6C6D6D"/>
<path opacity="0.14" d="M128.725 74.375C126.963 79.15 125.138 82.95 123.713 85.65C122.163 88.5875 121.275 90.2375 119.738 92.1C116.625 95.8625 112.888 98.0125 109.963 99.2625C111.2 99.2375 112.663 99.1125 114.263 98.8125C116.5 98.375 118.363 97.7 119.8 97.05C120.688 96.35 121.9 95.275 123.063 93.725C124.563 91.7125 125.413 89.65 126.513 85.45C127.263 82.6 128.1 78.8625 128.725 74.375Z" fill="#6C6D6D"/>
<path d="M99.45 116.075C98.275 118.163 97.1 120.25 95.925 122.338C87.5375 124.588 83.4125 126.188 83.5625 127.125C83.7125 128.138 88.8375 128.388 98.9125 127.863C101.2 124.475 103.488 121.075 105.788 117.688C103.675 117.15 101.563 116.613 99.45 116.075Z" fill="#F66F5D"/>
<path d="M121.6 94.4625C124.812 96.3625 125.312 101.925 123.825 105.788C121.425 111.988 114.162 113.1 113.85 113.138C116.7 109.863 118.112 108.225 118.112 108.213C118.1 108.2 113.687 113.213 104.875 123.238C104.012 123.125 100.425 122.575 97.8874 119.425C96.4124 117.6 95.9374 115.688 95.7749 114.663C101.037 108.588 106.287 102.525 111.55 96.45C114.625 93.55 118.8 92.8125 121.6 94.4625Z" fill="white" stroke="#191919" stroke-miterlimit="10"/>
<path opacity="0.16" d="M121.838 94.7875C121.938 96.4125 121.875 98.8625 120.8 101.475C119.425 104.838 117.075 106.788 115.463 108.088C110.788 111.863 105.45 116.1 99.375 120.675C99.8125 121.088 100.363 121.538 101.05 121.95C102.488 122.825 103.863 123.163 104.8 123.3C107.825 119.9 110.85 116.5 113.875 113.1C114.738 112.975 115.95 112.713 117.3 112.15C118.575 111.613 120.825 110.625 122.562 108.25C124.062 106.175 124.388 104.113 124.55 102.988C124.738 101.663 124.988 99.9875 124.238 98.05C123.575 96.375 122.475 95.3125 121.838 94.7875Z" fill="#6C6D6D"/>
<path opacity="0.19" d="M124.225 99C123.95 100.65 123.362 102.938 122 105.375C119.4 109.975 115.575 112.262 113.8 113.188C115.2 112.962 118.125 112.288 120.725 109.925C121.462 109.25 122.937 107.888 123.837 105.55C124.937 102.638 124.475 100.05 124.225 99Z" fill="#6C6D6D"/>
<path opacity="0.12" d="M117.938 108.163C117.6 107.825 112.213 112.55 101.763 122.338C102.75 122.688 103.725 123.025 104.713 123.375C113.85 113.563 118.263 108.488 117.938 108.163Z" fill="#6C6D6D"/>
<path d="M83.7505 74.425C83.8755 74.425 84.013 74.425 84.138 74.425C84.1755 74.2875 84.213 74.1375 84.2505 74C84.4005 74.3125 84.6505 74.825 84.963 75.4625C86.338 78.25 86.613 78.7125 86.863 79.55C87.063 80.2375 87.3005 81.225 87.3755 82.4875C87.613 82.325 87.963 82.1 88.413 81.85C90.838 80.525 92.863 80.5125 94.688 80.1875C96.0505 79.9375 97.963 79.3875 100.2 78.05C100.063 78.2375 99.9255 78.4375 99.788 78.625C100 78.7 100.225 78.7875 100.438 78.8625C100.563 79.025 100.725 79.2875 100.863 79.625C101.588 81.4125 100.513 83.375 99.4755 85.175C95.238 92.625 94.8005 93.0125 94.038 93.3875C93.7255 93.55 90.5755 95.0875 88.338 93.6625C87.8755 93.375 87.038 92.6875 85.963 87.825C85.2255 84.5125 85.138 82.6625 84.438 78.3125C84.1755 76.6625 83.9255 75.3125 83.7505 74.425Z" fill="white" stroke="#191919" stroke-miterlimit="10"/>
<path d="M84.463 75.1125C85.5255 77.3875 86.5755 79.7 86.9005 82.2C86.913 82.2625 87.0005 82.2625 87.0005 82.2C86.6755 79.675 85.6255 77.35 84.5505 75.0625C84.513 75.0125 84.438 75.0625 84.463 75.1125Z" fill="#191919"/>
<path d="M84.0626 74.7125C84.6876 76.0375 85.2001 77.4 85.6251 78.8C85.6376 78.8625 85.7377 78.8375 85.7127 78.775C85.2877 77.3625 84.7626 76 84.1376 74.6625C84.1126 74.6125 84.0376 74.6625 84.0626 74.7125Z" fill="#191919"/>
<path d="M85.7755 78.725C86.188 79.85 86.463 81.0125 86.6255 82.2C86.638 82.2625 86.7255 82.2625 86.7255 82.2C86.563 81 86.288 79.8375 85.8755 78.7C85.8505 78.65 85.7505 78.675 85.7755 78.725Z" fill="#191919"/>
<path d="M84.6876 76.95C85.2626 78.3625 85.7626 79.8125 86.1751 81.2875C86.1876 81.35 86.2876 81.325 86.2626 81.2625C85.8501 79.7875 85.3501 78.3375 84.7751 76.925C84.7626 76.8625 84.6626 76.8875 84.6876 76.95Z" fill="#191919"/>
<path d="M87.6005 82.8C89.163 81.7625 90.913 81.0875 92.7755 80.825C92.838 80.8125 92.813 80.725 92.7505 80.7375C90.8755 81 89.1255 81.675 87.5505 82.7125C87.5005 82.75 87.5505 82.8375 87.6005 82.8Z" fill="#191919"/>
<path d="M88.3753 82.65C90.0003 81.6625 91.8378 81.2875 93.6628 80.875C95.6003 80.4375 97.4878 79.85 99.3253 79.1C99.3753 79.075 99.3503 78.9875 99.3003 79.0125C97.4003 79.8 95.4378 80.3875 93.4253 80.8375C91.6628 81.2375 89.8878 81.625 88.3253 82.575C88.2878 82.6 88.3253 82.675 88.3753 82.65Z" fill="#191919"/>
<path d="M88.0751 83.0875C90.0001 82.175 91.9626 81.6125 94.0251 81.1125C96.0501 80.6125 98.0126 79.8375 99.9876 79.1625C100.05 79.1375 100.025 79.05 99.9626 79.075C97.9251 79.775 95.8876 80.5875 93.7876 81.075C91.8001 81.55 89.8876 82.1375 88.0251 83.0125C87.9751 83.0375 88.0251 83.1125 88.0751 83.0875Z" fill="#191919"/>
<path d="M83.6878 74.4C84.6003 77.2875 85.5253 80.1625 86.4378 83.05C86.8878 83.2 87.3378 83.35 87.7878 83.5C92.0628 82.0875 96.3253 80.6875 100.6 79.275C100.75 79.4 100.9 79.525 101.05 79.6625C101.538 85.6 102.038 91.525 102.525 97.4625C102.35 97.575 102.188 97.675 102.013 97.7875C97.6753 98.45 93.3503 99.1125 89.0128 99.775C88.3878 99.625 87.7753 99.475 87.1503 99.325C86.6003 96.8875 86.0378 94.4625 85.4878 92.025C84.6753 86.2625 83.8628 80.5 83.0503 74.7375C83.2628 74.6125 83.4753 74.5125 83.6878 74.4Z" fill="white" stroke="#191919" stroke-miterlimit="10"/>
<path d="M86.2251 83.125C86.4251 88.5375 86.8126 93.9625 87.1126 99.375C87.1251 99.55 87.4001 99.55 87.4001 99.375C87.1001 93.9625 86.7126 88.55 86.5126 83.125C86.5001 82.95 86.2251 82.95 86.2251 83.125Z" fill="#191919"/>
<path d="M87.5255 83.475C87.7005 85.0125 87.7755 86.55 87.7755 88.1C87.7755 88.275 88.0505 88.275 88.063 88.1C88.063 86.55 87.988 85.0125 87.813 83.475C87.788 83.2875 87.5005 83.2875 87.5255 83.475Z" fill="#191919"/>
<path d="M90.938 83.9C91.013 84.8375 91.0755 85.775 91.1505 86.7125C93.913 85.875 96.6755 85.025 99.4255 84.1875C99.338 83.2125 99.2505 82.2375 99.1755 81.2625C96.4255 82.15 93.688 83.025 90.938 83.9Z" fill="#F66F5D"/>
<path opacity="0.16" d="M95.3004 81.15C95.3504 82.4 95.3129 85.2 93.7129 88.2125C92.0129 91.4125 89.5254 93.0625 88.4504 93.6875C88.4004 92.6625 88.3379 91.6375 88.2879 90.625C87.8629 91.3375 87.4504 92.05 87.0254 92.7625C87.1129 94.9875 87.2129 97.2125 87.3004 99.45C87.9004 99.575 88.5004 99.7 89.1129 99.8375C93.3254 99.1625 97.5504 98.4875 101.763 97.8125C101.988 97.725 102.2 97.625 102.425 97.5375C101.95 91.525 101.475 85.525 101 79.5125C99.1004 80.0625 97.2004 80.6 95.3004 81.15Z" fill="#6C6D6D"/>
<path opacity="0.1" d="M87.5879 83.5875C87.5004 83.5875 87.4004 85.9 87.4629 88.4125C87.5379 91.9875 87.8754 93.55 87.7754 96.9625C87.7379 98.075 87.6754 98.9875 87.6254 99.575C88.0879 99.6375 88.5629 99.7 89.0254 99.7625C88.9379 99.15 88.8129 98.2625 88.6879 97.2C87.7129 89.25 87.7254 83.5875 87.5879 83.5875Z" fill="#6C6D6D"/>
<path d="M83.7623 83.0875C83.6248 83.1375 83.6373 83.3875 83.5248 84.55C83.4498 85.3375 83.4248 85.35 83.4498 85.5375C83.5123 86.0625 83.6998 86.1625 83.7623 86.7625C83.7998 87.15 83.7248 87.2 83.7873 87.525C83.8623 87.925 84.0373 88.225 84.1748 88.4125C84.1748 88.5375 84.1998 88.75 84.2998 88.9625C84.4998 89.35 84.9623 89.6875 85.2123 89.5625C85.3498 89.5 85.3873 89.2375 85.4498 88.725C85.5123 88.25 85.4748 88.225 85.5248 87.675C85.5748 87.225 85.6123 87.1375 85.5748 86.9125C85.5373 86.6375 85.4373 86.55 85.3373 86.2625C85.1998 85.8625 85.2623 85.7125 85.1748 85.3C85.0498 84.6125 84.7248 84.125 84.5498 83.8625C84.3748 83.575 83.9873 83.0125 83.7623 83.0875Z" fill="white"/>
<path d="M83.6624 82.9625C82.9874 84.425 83.6624 86.0625 85.1874 86.6C85.3624 86.6625 85.4374 86.3875 85.2624 86.325C83.9124 85.85 83.3124 84.4 83.9124 83.1C83.9874 82.95 83.7374 82.8 83.6624 82.9625Z" fill="#191919"/>
<path d="M83.7122 83.2C84.6122 84.0375 85.1372 85.1375 85.2122 86.3625C85.2247 86.5375 85.4997 86.5375 85.4997 86.3625C85.4247 85.0625 84.8747 83.8875 83.9122 83C83.7747 82.875 83.5747 83.075 83.7122 83.2Z" fill="#191919"/>
<path d="M83.35 84.7125C83.025 86.175 83.8875 87.5625 85.375 87.875C85.55 87.9125 85.625 87.6375 85.45 87.6C84.125 87.325 83.325 86.1125 83.625 84.775C83.65 84.6125 83.3875 84.5375 83.35 84.7125Z" fill="#191919"/>
<path d="M83.6127 86.5625C83.3502 87.675 84.0252 88.7375 85.1502 88.95C85.3252 88.9875 85.4002 88.7125 85.2252 88.675C84.2502 88.5 83.6502 87.6125 83.8752 86.6375C83.9252 86.4625 83.6627 86.3875 83.6127 86.5625Z" fill="#191919"/>
<path d="M83.975 88.3375C83.925 88.875 84.2375 89.4125 84.7375 89.6125C84.95 89.7 85.225 89.7125 85.3875 89.525C85.5625 89.325 85.4875 89.025 85.3875 88.8125C85.325 88.65 85.05 88.725 85.1125 88.8875C85.175 89.025 85.3 89.3 85.1 89.3875C84.95 89.45 84.7125 89.3 84.6 89.2125C84.3375 89 84.2125 88.675 84.25 88.3375C84.275 88.1625 84 88.1625 83.975 88.3375Z" fill="#191919"/>
<path d="M85.2626 88.925C85.5376 88.925 85.6501 88.65 85.6876 88.4125C85.7376 88.125 85.6876 87.825 85.5376 87.575C85.4501 87.4125 85.2001 87.5625 85.3001 87.7125C85.3876 87.8625 85.4376 88.025 85.4376 88.1875C85.4376 88.275 85.4126 88.6375 85.2626 88.6375C85.0876 88.65 85.0876 88.925 85.2626 88.925Z" fill="#191919"/>
<path d="M85.6125 87.775C85.7875 87.6125 85.7875 87.3 85.75 87.075C85.7125 86.7875 85.5875 86.5375 85.3875 86.325C85.2625 86.1875 85.0625 86.3875 85.1875 86.525C85.3125 86.6625 85.4125 86.825 85.45 87.025C85.475 87.1625 85.5125 87.4625 85.4 87.575C85.2875 87.7125 85.4875 87.9125 85.6125 87.775Z" fill="#191919"/>
<path d="M125.538 70.15C122.338 70.2 120.263 75.1 119.638 76.575C118.738 78.7125 118.9 79.6 117.6 85.1375C117.15 87.0875 116.725 88.6625 116.45 89.675C115.288 90.2375 113.013 91.125 110.138 90.875C108.425 90.725 106.488 90.55 105.1 89.1375C103.75 87.7625 103.888 86.225 102.463 85.75C101.538 85.4375 100.425 85.725 100.288 86.15C100.2 86.45 100.613 86.6875 101.138 87.7C101.325 88.075 101.463 88.3875 101.538 88.625C99.8627 89.075 98.4627 89.25 97.4252 89.325C94.9127 89.5 93.2377 89.175 92.7377 90.0625C92.5377 90.4125 92.4627 91.1 92.8002 91.575C92.9752 91.825 93.2127 91.95 93.3627 92.0125C93.3377 92.05 92.9752 92.5125 93.1627 93.0875C93.3377 93.625 93.8252 93.8125 93.8752 93.825C93.8502 93.8875 93.6377 94.4 93.9377 94.9125C94.2252 95.4 94.7377 95.5 94.8002 95.5C94.7502 95.675 94.7002 95.975 94.8252 96.2625C95.0127 96.7125 95.5002 96.9125 95.9252 97.05C98.2127 97.7625 100.1 97.4625 100.1 97.4625C102.238 97.125 103.825 96.1625 104.75 95.475C105.725 96.3625 107.725 97.9375 110.7 98.7125C111.763 98.9875 115.063 99.8125 118.688 98.45C122.538 97.0125 124.475 93.975 126.15 91.35C127.95 88.525 128.613 86.1375 129.488 83C130.725 78.55 131.325 76.275 130.213 73.925C129.463 72.25 127.65 70.1125 125.538 70.15Z" fill="white" stroke="#191919" stroke-miterlimit="10"/>
<path d="M93.1875 92.025C94.825 92.5625 96.5375 92.625 98.2 92.225C98.375 92.1875 98.3 91.9125 98.125 91.95C96.5 92.3375 94.85 92.275 93.2625 91.75C93.0875 91.7 93.0125 91.9625 93.1875 92.025Z" fill="#191919"/>
<path d="M93.8628 93.9125C95.4628 94.3125 97.1003 94.325 98.7128 93.975C98.8878 93.9375 98.8128 93.6625 98.6378 93.7C97.0753 94.0375 95.4878 94.0125 93.9378 93.6375C93.7628 93.5875 93.6878 93.8625 93.8628 93.9125Z" fill="#191919"/>
<path d="M94.6377 95.55C96.0752 95.9875 97.5502 96.0625 99.0127 95.7625C99.1877 95.725 99.1127 95.45 98.9377 95.4875C97.5127 95.775 96.0877 95.7 94.7127 95.275C94.5377 95.225 94.4627 95.5 94.6377 95.55Z" fill="#191919"/>
<path opacity="0.12" d="M128.438 71.2875C128.338 73.5875 127.975 77.0375 126.725 81.025C125.275 85.65 123.738 90.55 119.1 93.6C117.938 94.3625 114.9 96.3375 110.738 95.9875C107.625 95.725 105.388 94.3 104.363 93.5375C102.35 94.4875 100.613 94.8625 99.4627 95.0125C97.9877 95.2125 96.9502 95.15 96.6752 95.125C95.4877 95.0375 94.5252 94.7875 93.8252 94.55C94.1127 94.875 94.4002 95.2 94.6752 95.5125C94.6377 95.75 94.6252 96.1375 94.8502 96.475C95.1002 96.8625 95.5377 97.0125 96.3252 97.1625C97.4002 97.3625 97.9377 97.4625 98.8877 97.45C99.7502 97.425 100.963 97.3875 102.413 96.825C103.013 96.5875 103.825 96.2 104.688 95.5125C105.225 95.9625 106.025 96.575 107.075 97.1625C108.288 97.85 110.8 99.2375 114.25 99.2125C115.238 99.2 117.525 99.1625 120 97.85C121.588 97 122.55 96 123.525 94.95C125.575 92.75 126.625 90.6625 127.45 88.975C128.763 86.3 129.288 84.2625 130.063 81.175C131 77.5125 130.913 76.4 130.75 75.6C130.363 73.5875 129.238 72.1375 128.438 71.2875Z" fill="#6C6D6D"/>
<path opacity="0.2" d="M130.375 78.8C129.188 82.925 127.725 86.15 126.575 88.3625C123.75 93.825 121.775 95.2 121.088 95.65C118.738 97.175 116.425 97.475 115.45 97.5875C109.463 98.2375 104.938 94.9875 104.75 95.3625C104.6 95.6625 107.338 97.95 111.125 98.775C112.25 99.025 115.613 99.7125 119.263 98.0875C121.963 96.8875 123.463 95.025 124.613 93.5875C126.263 91.5375 127.038 89.7 127.913 87.55C128.763 85.525 129.775 82.5625 130.375 78.8Z" fill="#6C6D6D"/>
<path opacity="0.12" d="M94.9126 96.275C95.7876 96.55 96.8751 96.7875 98.1626 96.85C101.238 96.9875 103.625 95.9625 104.875 95.3125C104.413 95.75 102.3 97.65 99.1251 97.5875C97.0751 97.55 95.5751 96.7125 94.9126 96.275Z" fill="#6C6D6D"/>
<path d="M103.875 49.5625C103.463 50.2625 103.363 51.5625 103.163 54.1625C102.95 56.975 103.1 58.25 103 60.3375C102.925 61.975 102.7 64.3125 102.038 67.15C103.163 69.2875 104.513 70.1 105.25 70.4375C108.975 72.1625 113.638 69.4375 116.725 67.625C118.238 66.7375 119.388 65.875 120.1 65.3C119.8 64.7 119.388 63.8 119.063 62.65C118.525 60.8 118.575 59.6875 118.425 57.6C118.063 52.6625 118.05 51.5625 117.3 50.0625C116.925 49.3125 116.613 48.6625 115.963 48.05C112.85 45.1375 105.888 46.1875 103.875 49.5625Z" fill="white" stroke="#161616" stroke-miterlimit="10"/>
<path d="M102.912 57.875C102.4 58.5875 101.437 60.125 101.125 62.325C101 63.25 100.887 65.025 101.625 67.0625C101.95 67.95 102.737 69.9875 104.85 71.425C106.05 72.25 107.237 72.55 107.95 72.6875C107.525 72.225 107.112 71.7625 106.687 71.3C107.137 71.55 108.212 72.0625 109.65 72C110.087 71.975 111.5 71.8625 112.812 70.8625C113.775 70.125 114.175 69.2875 114.837 67.8375C115.712 65.9375 116.325 64.575 116.287 62.7875C116.237 60.4625 115.125 59.9125 115.525 57.7375C115.612 57.25 115.887 55.75 116.787 55.525C117.212 55.425 117.675 55.6375 117.925 55.9C118.462 56.4625 118.412 57.6125 117.612 58.55C118 58.4625 118.887 58.175 119.512 57.35C120.462 56.075 120.225 54.2375 119.325 53.1875C119.1 52.925 118.687 52.4375 118.062 52.3625C117.225 52.2625 116.525 52.9875 115.287 54.45C112.7 57.5125 112.737 58.05 111.437 59C109.875 60.1375 108.462 60.35 108.05 60.4125C107.35 60.5 106.3 60.625 105.15 60.1C103.775 59.45 103.125 58.3 102.912 57.875Z" fill="#161616"/>
<path d="M106.725 54.35C106.4 55.975 106.213 57.65 106.225 59.3125C106.225 59.675 106.225 60.225 106.675 60.3375C107.15 60.45 107.85 59.8625 108.2 59.625C108.4 59.4875 108.213 59.1625 108.013 59.3C107.7 59.5125 106.663 60.275 106.6 59.55C106.563 59.0125 106.613 58.4375 106.638 57.9C106.7 56.7375 106.863 55.5875 107.088 54.45C107.138 54.225 106.775 54.125 106.725 54.35Z" fill="#161616"/>
<path d="M104.788 55.75C104.6 55.45 104.588 55.0875 104.775 54.7875C104.663 54.775 104.55 54.7625 104.438 54.7375C104.575 55.0875 104.638 55.4625 104.588 55.8375C104.675 55.8 104.775 55.7625 104.863 55.725C104.825 55.7 104.788 55.6875 104.75 55.6625C104.538 55.55 104.35 55.875 104.563 55.9875C104.6 56.0125 104.638 56.025 104.675 56.05C104.775 56.1 104.938 56.0625 104.95 55.9375C105.013 55.4875 104.975 55.05 104.8 54.6375C104.738 54.4875 104.55 54.45 104.463 54.5875C104.213 55 104.213 55.5125 104.475 55.925C104.588 56.15 104.913 55.9625 104.788 55.75Z" fill="#161616"/>
<path d="M110.162 55.6375C110.087 55.5 110.037 55.3625 110.037 55.2C110.037 55.125 110.05 55.0625 110.062 54.9875C110.075 54.95 110.087 54.9125 110.1 54.875C110.15 54.8 110.112 54.7875 109.987 54.825C109.975 54.8375 110.075 55.225 110.075 55.2625C110.087 55.4375 110.062 55.6125 110.025 55.7875C110.125 55.7625 110.237 55.7375 110.337 55.7C110.25 55.625 110.2 55.55 110.2 55.425C110.187 55.1875 109.812 55.1875 109.825 55.425C109.837 55.6375 109.912 55.825 110.075 55.9625C110.175 56.05 110.35 56.025 110.387 55.875C110.45 55.575 110.462 55.2625 110.412 54.9625C110.375 54.7625 110.3 54.4375 110.037 54.4625C109.787 54.4875 109.712 54.825 109.687 55.025C109.65 55.3 109.712 55.5625 109.85 55.8125C109.962 56.0375 110.287 55.85 110.162 55.6375Z" fill="#161616"/>
<path d="M109.825 54.9625C109.85 55.1875 109.862 55.4125 109.887 55.6375C109.912 55.875 110.287 55.875 110.262 55.6375C110.237 55.4125 110.225 55.1875 110.2 54.9625C110.175 54.725 109.8 54.725 109.825 54.9625Z" fill="#161616"/>
<path d="M109.8 55.475C109.763 55.6375 109.75 55.825 109.875 55.9375C110 56.05 110.2 56.075 110.313 55.9375C110.375 55.8625 110.388 55.75 110.313 55.675C110.25 55.6125 110.113 55.6 110.05 55.675C110.025 55.7125 110.075 55.6625 110.1 55.65C110.113 55.65 110.138 55.65 110.125 55.65C110.113 55.65 110.15 55.6625 110.125 55.65C110.138 55.6625 110.138 55.675 110.15 55.6875C110.163 55.7 110.15 55.6625 110.15 55.675C110.15 55.6875 110.15 55.65 110.15 55.6375C110.15 55.6625 110.15 55.625 110.15 55.625C110.15 55.6 110.163 55.5875 110.163 55.5625C110.188 55.4625 110.138 55.35 110.038 55.3375C109.938 55.325 109.825 55.375 109.8 55.475Z" fill="#161616"/>
<path d="M104.375 54.675C104.275 55.05 104.275 55.45 104.413 55.825C104.488 56.05 104.85 55.95 104.775 55.725C104.663 55.4125 104.65 55.1 104.738 54.775C104.8 54.55 104.438 54.45 104.375 54.675Z" fill="#161616"/>
<path d="M104.713 55.325C104.675 55.175 104.688 55.0125 104.725 54.8625C104.6 54.825 104.488 54.8 104.363 54.7625C104.313 55 104.313 55.225 104.35 55.4625C104.363 55.5625 104.488 55.6125 104.575 55.5875C104.675 55.5625 104.725 55.4625 104.7 55.3625C104.675 55.2 104.675 55.025 104.713 54.8625C104.763 54.625 104.413 54.525 104.35 54.7625C104.3 54.9875 104.3 55.2 104.338 55.425C104.4 55.6625 104.75 55.5625 104.713 55.325Z" fill="#161616"/>
<path d="M103.9 53.9625C104.1 53.375 104.812 53.2625 105.212 53.725C105.337 53.8625 105.525 53.6625 105.412 53.525C104.862 52.9 103.9 53.1125 103.637 53.8875C103.562 54.0625 103.837 54.1375 103.9 53.9625Z" fill="#161616"/>
<path d="M109.2 53.9625C109.65 53.2375 110.713 53.7125 110.975 54.3375C111.038 54.5 111.313 54.425 111.25 54.2625C110.9 53.4 109.55 52.8875 108.963 53.8125C108.863 53.975 109.113 54.1125 109.2 53.9625Z" fill="#161616"/>
<path d="M98.7751 50.3625C105.65 51.275 112.513 52.175 119.388 53.0875C120.1 53.1875 120.1 52.05 119.388 51.9625C112.513 51.05 105.65 50.15 98.7751 49.2375C98.0626 49.1375 98.0626 50.2625 98.7751 50.3625Z" fill="#161616"/>
<path d="M103.575 49.8875C103.738 49.0625 104.125 47.7125 105.1 46.3375C105.488 45.7875 106.163 44.825 107.325 44.1375C109.525 42.825 112.9 42.95 115.338 44.6C117.725 46.2125 118.9 49.0625 118.363 51.9C113.438 51.225 108.5 50.5625 103.575 49.8875Z" fill="#F66F5D"/>
<path d="M110.312 43.35C112.237 43.7375 113.675 45.3 113.85 47.1375C114 48.65 113.262 50.1625 111.95 51.0625C114.112 51.3375 116.263 51.625 118.425 51.9C118.538 51.375 118.65 50.5875 118.512 49.6625C118.212 47.5625 116.95 46.2375 116.387 45.6625C115.95 45.225 114.35 43.6375 111.838 43.35C111.225 43.275 110.688 43.3125 110.312 43.35Z" fill="#EF4C36"/>
<path opacity="0.24" d="M111.575 52.0625C111.775 52.7625 111.975 53.7 111.963 54.8125C111.938 56.975 111.175 58.625 110.688 59.475C111.1 59.275 111.688 58.9375 112.25 58.375C112.65 57.975 112.8 57.6875 113.225 57.0625C113.225 57.0625 113.938 56.0125 115 54.7375C115.412 54.2375 116.025 53.5375 116.875 52.75C115.1 52.5125 113.337 52.2875 111.575 52.0625Z" fill="#6C6D6D"/>
<path opacity="0.22" d="M116.65 55.5C116.325 55.625 116.138 55.875 116.013 56.05C115.863 56.2625 115.7 56.5625 115.588 57.3625C115.488 58.05 115.388 58.675 115.525 59.475C115.625 60.075 115.75 60.0875 115.95 60.825C116.038 61.1375 116.313 62.1625 116.25 63.3625C116.213 64.275 116 64.9125 115.7 65.8125C115.425 66.625 114.975 67.7375 114.225 69C115.6 68.225 117 67.375 118.413 66.4625C119 66.0875 119.563 65.7125 120.125 65.325C119.813 64.7875 119.5 64.1625 119.238 63.4625C118.463 61.4125 118.35 59.5375 118.413 58.225C118.175 58.325 117.938 58.425 117.713 58.525C118.45 57.3625 118.413 56.1625 117.863 55.7125C117.613 55.4875 117.1 55.325 116.65 55.5Z" fill="#6C6D6D"/>
<path opacity="0.21" d="M118.125 56.175C118.012 56.6375 117.85 57.175 117.575 57.7625C117.375 58.1875 117.162 58.55 116.962 58.8625C117.337 59.2625 117.95 60.05 118.212 61.1875C118.5 62.4125 118.237 63.4 117.937 64.4875C117.725 65.2875 117.3 66.475 116.462 67.7625C117.637 66.9625 118.812 66.175 119.987 65.375C119.537 64.375 119.062 63.0625 118.762 61.4625C118.537 60.2375 118.475 59.125 118.487 58.2125C118.187 58.325 117.9 58.4375 117.6 58.55C117.737 58.4125 118.075 58.0375 118.212 57.45C118.35 56.85 118.187 56.35 118.125 56.175Z" fill="#6C6D6D"/>
<path opacity="0.19" d="M111.488 52.0125C112.975 52.5375 114.475 53.0625 115.963 53.5875C116.3 53.3125 116.638 53.025 116.988 52.75C115.15 52.5 113.325 52.25 111.488 52.0125Z" fill="#6C6D6D"/>
</svg>
