<svg width="200" height="159" viewBox="0 0 200 159" fill="none" xmlns="http://www.w3.org/2000/svg">
<path fill-rule="evenodd" clip-rule="evenodd" d="M117.306 0.1265C141.713 1.89199 156.533 25.5221 169.824 46.068C181.03 63.3882 187.68 82.8733 183.965 103.165C180.022 124.705 169.901 146.738 149.803 155.431C130.342 163.849 109.914 152.143 90.5121 143.588C69.7726 134.443 45.212 127.526 37.8785 106.079C29.9003 82.7464 39.5186 57.4425 54.3095 37.7122C69.7406 17.1278 91.6468 -1.72957 117.306 0.1265Z" fill="#E8ECFB"/>
<path d="M173.4 123.2C171.537 120.35 170.325 117.125 169.862 113.75C169.8 113.825 169.737 113.912 169.687 113.987C170.112 113.95 170.475 114.037 170.812 114.3C171 114.45 171.262 114.187 171.075 114.037C170.65 113.712 170.212 113.562 169.687 113.612C169.55 113.625 169.487 113.725 169.512 113.85C169.987 117.262 171.2 120.512 173.087 123.387C173.212 123.587 173.537 123.4 173.4 123.2Z" fill="#040000"/>
<path d="M171.062 114.1C170.637 109.712 171.312 105.287 173.037 101.225C172.925 101.225 172.825 101.225 172.712 101.225C172.9 101.5 173.037 101.762 173.15 102.075C173.225 102.3 173.587 102.2 173.512 101.975C173.387 101.637 173.25 101.337 173.037 101.037C172.962 100.937 172.775 100.9 172.712 101.037C170.962 105.162 170.262 109.65 170.687 114.1C170.712 114.337 171.087 114.35 171.062 114.1Z" fill="#040000"/>
<path d="M173.625 101.913C174.063 100.85 174.55 99.8 175.1 98.8C175.563 97.9625 176.225 96.275 177.425 96.5125C178.638 96.75 179.038 98.3625 179.3 99.375C179.588 100.5 179.713 101.663 179.75 102.813C179.825 104.988 179.65 107.175 179.5 109.338C179.338 111.638 179.075 113.938 178.538 116.188C177.95 118.688 177.075 121.1 175.963 123.4C175.863 123.613 176.175 123.813 176.288 123.588C177.388 121.325 178.263 118.95 178.85 116.5C179.463 113.988 179.738 111.425 179.9 108.85C180.063 106.288 180.313 103.663 180 101.1C179.813 99.5625 179.363 96.1875 177.263 96.0875C176.163 96.0375 175.588 97.1875 175.125 97.9875C174.413 99.2125 173.8 100.488 173.263 101.8C173.175 102.038 173.538 102.138 173.625 101.913Z" fill="#040000"/>
<path d="M179.787 110.862C180.212 110.012 180.712 109.212 181.312 108.487C181.6 108.137 182.95 106.337 183.487 106.75C183.6 106.837 183.637 107.262 183.662 107.412C183.737 107.725 183.787 108.05 183.812 108.375C183.862 108.875 183.875 109.362 183.85 109.862C183.8 110.925 183.612 111.987 183.35 113.025C182.4 116.812 180.7 120.387 178.487 123.587C178.35 123.787 178.675 123.975 178.812 123.775C181.375 120.087 183.462 115.662 184.1 111.175C184.25 110.112 184.3 109.037 184.15 107.975C184.087 107.512 184 106.012 183.237 106.162C182.887 106.237 182.562 106.637 182.312 106.862C181.912 107.237 181.525 107.637 181.175 108.05C180.5 108.85 179.925 109.725 179.462 110.662C179.35 110.887 179.675 111.075 179.787 110.862Z" fill="#040000"/>
<path d="M81.5122 123.675C79.8622 121.788 78.4997 119.663 77.4747 117.375C77.4497 117.463 77.4247 117.55 77.4122 117.638C77.9122 117.413 78.4122 117.325 78.9622 117.363C79.1997 117.375 79.1997 117 78.9622 116.988C78.3497 116.95 77.7872 117.063 77.2247 117.313C77.1247 117.363 77.1247 117.488 77.1622 117.575C78.2122 119.9 79.5872 122.038 81.2622 123.95C81.3997 124.125 81.6747 123.863 81.5122 123.675Z" fill="#040000"/>
<path d="M78.9875 116.837C78 115.112 77.375 113.2 77.2 111.225C77.0875 109.975 76.8625 105.5 79.2 106.725C80.025 107.162 80.5 108.1 80.925 108.887C81.425 109.8 81.8625 110.75 82.25 111.712C82.95 113.475 83.4625 115.313 83.775 117.175C84.15 119.388 84.2375 121.637 84.0625 123.887C84.0375 124.125 84.425 124.125 84.4375 123.887C84.7875 119.375 84.025 114.812 82.2 110.662C81.75 109.637 81.25 108.587 80.625 107.65C80.175 106.975 79.5625 106.312 78.725 106.162C76.725 105.8 76.75 108.812 76.75 110.062C76.7625 112.512 77.425 114.912 78.65 117.037C78.7875 117.225 79.1125 117.037 78.9875 116.837Z" fill="#040000"/>
<path d="M83.3622 113.688C83.2872 112.75 83.5622 108.475 85.3372 109.375C86.7497 110.088 87.0497 112.3 87.1247 113.7C87.2122 115.288 87.1497 116.888 87.1122 118.475C87.0622 120.138 86.9372 121.788 86.3622 123.363C86.2747 123.588 86.6372 123.688 86.7247 123.463C87.4372 121.538 87.4747 119.488 87.5122 117.463C87.5497 115.55 87.7122 113.513 87.1997 111.638C86.9122 110.6 85.8872 108.313 84.4122 109C83.7872 109.3 83.5122 110.15 83.3122 110.763C83.0122 111.725 82.9122 112.713 82.9872 113.713C82.9997 113.938 83.3747 113.938 83.3622 113.688Z" fill="#040000"/>
<path d="M78.0374 106.475C79.6499 110.075 80.9749 113.787 81.9874 117.6C82.0499 117.837 82.4124 117.737 82.3499 117.5C81.3249 113.662 79.9999 109.912 78.3624 106.287C78.2624 106.062 77.9374 106.25 78.0374 106.475Z" fill="#040000"/>
<path d="M76.9999 111.412C78.9124 112.087 80.4624 113.475 81.3499 115.3C81.4624 115.512 81.7749 115.325 81.6749 115.112C80.7374 113.2 79.0999 111.762 77.0999 111.05C76.8749 110.975 76.7749 111.337 76.9999 111.412Z" fill="#040000"/>
<path d="M80.7373 108.163C80.3998 109.275 80.2248 110.413 80.1873 111.563C80.1748 111.8 80.5498 111.8 80.5623 111.563C80.5998 110.438 80.7748 109.338 81.0998 108.263C81.1623 108.025 80.7998 107.925 80.7373 108.163Z" fill="#040000"/>
<path d="M83.2624 111.412C84.4374 112.787 85.275 114.362 85.775 116.1C85.8375 116.337 86.1999 116.237 86.1374 116C85.6249 114.2 84.7499 112.562 83.5374 111.15C83.3749 110.962 83.1124 111.225 83.2624 111.412Z" fill="#040000"/>
<path d="M85.1248 111.312C85.9373 115.35 85.7998 119.337 85.3748 123.412C85.3498 123.65 85.7248 123.65 85.7498 123.412C86.1873 119.312 86.3123 115.287 85.4873 111.212C85.4373 110.975 85.0748 111.075 85.1248 111.312Z" fill="#040000"/>
<path d="M60.7749 78.8125C60.7749 79.7 60.7749 80.5875 60.7749 81.4875C60.7749 81.725 61.1499 81.725 61.1499 81.4875C61.1499 80.6 61.1499 79.7125 61.1499 78.8125C61.1499 78.575 60.7749 78.575 60.7749 78.8125Z" fill="#040000"/>
<path d="M60.9623 81.7375C65.3373 81.7375 69.6998 81.7375 74.0748 81.7375C74.3123 81.7375 74.3123 81.3625 74.0748 81.3625C69.6998 81.3625 65.3373 81.3625 60.9623 81.3625C60.7248 81.3625 60.7248 81.7375 60.9623 81.7375Z" fill="#040000"/>
<path d="M60.9623 78.9625C65.3623 78.9625 69.7623 78.9625 74.1623 78.9625C74.3998 78.9625 74.3998 78.5875 74.1623 78.5875C69.7623 78.5875 65.3623 78.5875 60.9623 78.5875C60.7248 78.5875 60.7248 78.9625 60.9623 78.9625Z" fill="#040000"/>
<path d="M73.9751 78.75C73.9751 79.6625 73.9751 80.575 73.9751 81.4875C73.9751 81.725 74.3501 81.725 74.3501 81.4875C74.3501 80.575 74.3501 79.6625 74.3501 78.75C74.3501 78.5 73.9751 78.5 73.9751 78.75Z" fill="#040000"/>
<path d="M65.7124 81.6875C65.7124 82.45 65.7124 83.2125 65.7124 83.975C65.7124 84.2125 66.0874 84.2125 66.0874 83.975C66.0874 83.2125 66.0874 82.45 66.0874 81.6875C66.0874 81.45 65.7124 81.45 65.7124 81.6875Z" fill="#040000"/>
<path d="M65.9248 84.3C69.4123 84.3 72.8998 84.3 76.3873 84.3C76.6248 84.3 76.6248 83.925 76.3873 83.925C72.8998 83.925 69.4123 83.925 65.9248 83.925C65.6748 83.925 65.6748 84.3 65.9248 84.3Z" fill="#040000"/>
<path d="M74.1875 81.7625C74.9625 81.7625 75.7375 81.7625 76.525 81.7625C76.7625 81.7625 76.7625 81.3875 76.525 81.3875C75.75 81.3875 74.975 81.3875 74.1875 81.3875C73.9375 81.3875 73.9375 81.7625 74.1875 81.7625Z" fill="#040000"/>
<path d="M76.3501 81.7125C76.3501 82.4875 76.3501 83.2626 76.3501 84.0501C76.3501 84.2876 76.7251 84.2876 76.7251 84.0501C76.7251 83.2751 76.7251 82.5 76.7251 81.7125C76.7251 81.475 76.3501 81.475 76.3501 81.7125Z" fill="#040000"/>
<path d="M75.1499 84.1625C75.1499 85.0125 75.1499 85.85 75.1499 86.7C75.1499 86.9375 75.5249 86.9375 75.5249 86.7C75.5249 85.85 75.5249 85.0125 75.5249 84.1625C75.5249 83.9125 75.1499 83.9125 75.1499 84.1625Z" fill="#040000"/>
<path d="M75.3872 86.9C78.2622 86.9 81.1372 86.9 84.0122 86.9C84.2497 86.9 84.2497 86.525 84.0122 86.525C81.1372 86.525 78.2622 86.525 75.3872 86.525C75.1372 86.525 75.1372 86.9 75.3872 86.9Z" fill="#040000"/>
<path d="M76.5624 84.325C79.0624 84.325 81.5624 84.325 84.0624 84.325C84.2999 84.325 84.2999 83.95 84.0624 83.95C81.5624 83.95 79.0624 83.95 76.5624 83.95C76.3249 83.95 76.3249 84.325 76.5624 84.325Z" fill="#040000"/>
<path d="M83.8501 84.1125C83.8501 84.925 83.8501 85.7249 83.8501 86.5374C83.8501 86.7749 84.2251 86.7749 84.2251 86.5374C84.2251 85.7249 84.2251 84.925 84.2251 84.1125C84.2251 83.875 83.8501 83.875 83.8501 84.1125Z" fill="#040000"/>
<path d="M75.325 86.5125C72.9375 86.5125 70.55 86.5125 68.1625 86.5125C67.925 86.5125 67.925 86.8875 68.1625 86.8875C70.55 86.8875 72.9375 86.8875 75.325 86.8875C75.5625 86.8875 75.5625 86.5125 75.325 86.5125Z" fill="#040000"/>
<path d="M68.3125 86.675C68.3125 85.875 68.3125 85.075 68.3125 84.2625C68.3125 84.025 67.9375 84.025 67.9375 84.2625C67.9375 85.0625 67.9375 85.8625 67.9375 86.675C67.9375 86.9125 68.3125 86.9125 68.3125 86.675Z" fill="#040000"/>
<path d="M52.8999 25.2125C52.8999 34.25 52.8999 43.275 52.8999 52.3125C52.8999 52.55 53.2749 52.55 53.2749 52.3125C53.2749 43.275 53.2749 34.25 53.2749 25.2125C53.2749 24.975 52.8999 24.975 52.8999 25.2125Z" fill="white"/>
<path d="M53.0624 52.5875C61.8624 52.5875 70.6624 52.5875 79.4624 52.5875C81.9499 52.5875 84.4499 52.5875 86.9374 52.5875C87.1749 52.5875 87.1749 52.2125 86.9374 52.2125C78.1374 52.2125 69.3374 52.2125 60.5374 52.2125C58.0499 52.2125 55.5499 52.2125 53.0624 52.2125C52.8249 52.2125 52.8249 52.5875 53.0624 52.5875Z" fill="white"/>
<path d="M53.1498 25.2125C61.8498 25.2125 70.5498 25.2125 79.2498 25.2125C81.7123 25.2125 84.1623 25.2125 86.6248 25.2125C86.8623 25.2125 86.8623 24.8375 86.6248 24.8375C77.9248 24.8375 69.2248 24.8375 60.5248 24.8375C58.0623 24.8375 55.6123 24.8375 53.1498 24.8375C52.9123 24.8375 52.9123 25.2125 53.1498 25.2125Z" fill="white"/>
<path d="M86.8247 25.1375C86.8247 34.175 86.8247 43.2125 86.8247 52.2625C86.8247 52.5 87.1997 52.5 87.1997 52.2625C87.1997 43.225 87.1997 34.1875 87.1997 25.1375C87.1997 24.9 86.8247 24.9 86.8247 25.1375Z" fill="white"/>
<path d="M54.75 26.5875C54.75 34.75 54.75 42.9125 54.75 51.0625C54.75 51.3 55.125 51.3 55.125 51.0625C55.125 42.9 55.125 34.7375 55.125 26.5875C55.125 26.3375 54.75 26.3375 54.75 26.5875Z" fill="white"/>
<path d="M54.9123 51.325C64.9373 51.325 74.9623 51.325 84.9748 51.325C85.2123 51.325 85.2123 50.95 84.9748 50.95C74.9498 50.95 64.9248 50.95 54.9123 50.95C54.6748 50.95 54.6623 51.325 54.9123 51.325Z" fill="white"/>
<path d="M54.9872 26.6C64.8872 26.6 74.7997 26.6 84.6997 26.6C84.9372 26.6 84.9372 26.225 84.6997 26.225C74.7997 26.225 64.8872 26.225 54.9872 26.225C54.7497 26.225 54.7497 26.6 54.9872 26.6Z" fill="white"/>
<path d="M84.8501 26.5125C84.8501 34.675 84.8501 42.85 84.8501 51.0125C84.8501 51.25 85.2251 51.25 85.2251 51.0125C85.2251 42.85 85.2251 34.675 85.2251 26.5125C85.2251 26.275 84.8501 26.275 84.8501 26.5125Z" fill="white"/>
<path d="M69.4624 26.625C69.4624 30.6125 69.4624 34.5875 69.4624 38.575C69.4624 38.8125 69.8374 38.8125 69.8374 38.575C69.8374 34.5875 69.8374 30.6125 69.8374 26.625C69.8374 26.375 69.4624 26.375 69.4624 26.625Z" fill="white"/>
<path d="M69.65 38.375C64.8875 38.375 60.1125 38.375 55.35 38.375C55.1125 38.375 55.1125 38.75 55.35 38.75C60.1125 38.75 64.8875 38.75 69.65 38.75C69.8875 38.75 69.8875 38.375 69.65 38.375Z" fill="white"/>
<path d="M71.3247 26.625C71.3247 30.575 71.3247 34.5125 71.3247 38.4625C71.3247 38.7 71.6997 38.7 71.6997 38.4625C71.6997 34.5125 71.6997 30.575 71.6997 26.625C71.6997 26.375 71.3247 26.375 71.3247 26.625Z" fill="white"/>
<path d="M71.5122 38.8625C75.9122 38.8625 80.3122 38.8625 84.7122 38.8625C84.9497 38.8625 84.9497 38.4875 84.7122 38.4875C80.3122 38.4875 75.9122 38.4875 71.5122 38.4875C71.2622 38.4875 71.2622 38.8625 71.5122 38.8625Z" fill="white"/>
<path d="M55.2375 40.6125C60.025 40.6125 64.8125 40.6125 69.5875 40.6125C69.825 40.6125 69.825 40.2375 69.5875 40.2375C64.8 40.2375 60.0125 40.2375 55.2375 40.2375C55 40.2375 54.9875 40.6125 55.2375 40.6125Z" fill="white"/>
<path d="M69.3999 40.475C69.3999 43.9875 69.3999 47.4875 69.3999 51C69.3999 51.2375 69.7749 51.2375 69.7749 51C69.7749 47.4875 69.7749 43.9875 69.7749 40.475C69.7749 40.2375 69.3999 40.2375 69.3999 40.475Z" fill="white"/>
<path d="M71.2622 40.75C71.2622 44.1625 71.2622 47.575 71.2622 51C71.2622 51.2375 71.6372 51.2375 71.6372 51C71.6372 47.5875 71.6372 44.175 71.6372 40.75C71.6372 40.5125 71.2622 40.5125 71.2622 40.75Z" fill="white"/>
<path d="M71.4001 41C75.9126 41 80.4251 41 84.9376 41C85.1751 41 85.1751 40.625 84.9376 40.625C80.4251 40.625 75.9126 40.625 71.4001 40.625C71.1626 40.625 71.1501 41 71.4001 41Z" fill="white"/>
<path d="M80.7497 26.7125C77.9372 29.8875 75.2997 33.2125 72.8247 36.6625C72.6872 36.8625 73.0122 37.05 73.1497 36.85C75.5997 33.425 78.2247 30.125 81.0122 26.975C81.1747 26.8 80.9122 26.525 80.7497 26.7125Z" fill="white"/>
<path d="M80.7251 31.3375C79.4251 32.9125 78.1251 34.4875 76.8251 36.05C76.6751 36.2375 76.9376 36.5 77.0876 36.3125C78.3876 34.7375 79.6876 33.1625 80.9876 31.6C81.1376 31.4125 80.8751 31.15 80.7251 31.3375Z" fill="white"/>
<path d="M56.675 50.8625C59.95 47.5875 63.225 44.3 66.5 41.025C66.675 40.85 66.4 40.5875 66.2375 40.7625C62.9625 44.0375 59.6875 47.325 56.4125 50.6C56.25 50.7625 56.5125 51.025 56.675 50.8625Z" fill="white"/>
<path d="M62.3376 49.7125C63.4501 48.2875 64.6251 46.9375 65.8876 45.65C66.0626 45.475 65.7876 45.2125 65.6251 45.3875C64.3626 46.675 63.1751 48.025 62.0751 49.45C61.9251 49.6375 62.1876 49.9125 62.3376 49.7125Z" fill="white"/>
<path d="M147.675 24.8C147.675 33.8375 147.675 42.8625 147.675 51.9C147.675 52.1375 148.05 52.1375 148.05 51.9C148.05 42.8625 148.05 33.8375 148.05 24.8C148.05 24.5625 147.675 24.5625 147.675 24.8Z" fill="white"/>
<path d="M147.837 52.175C156.637 52.175 165.437 52.175 174.237 52.175C176.725 52.175 179.225 52.175 181.712 52.175C181.95 52.175 181.95 51.8 181.712 51.8C172.912 51.8 164.112 51.8 155.312 51.8C152.825 51.8 150.325 51.8 147.837 51.8C147.6 51.8 147.6 52.175 147.837 52.175Z" fill="white"/>
<path d="M147.925 24.8125C156.625 24.8125 165.325 24.8125 174.025 24.8125C176.487 24.8125 178.937 24.8125 181.4 24.8125C181.637 24.8125 181.637 24.4375 181.4 24.4375C172.7 24.4375 164 24.4375 155.3 24.4375C152.837 24.4375 150.387 24.4375 147.925 24.4375C147.687 24.4375 147.687 24.8125 147.925 24.8125Z" fill="white"/>
<path d="M181.6 24.725C181.6 33.7625 181.6 42.8 181.6 51.85C181.6 52.0875 181.975 52.0875 181.975 51.85C181.975 42.8125 181.975 33.775 181.975 24.725C181.975 24.4875 181.6 24.4875 181.6 24.725Z" fill="white"/>
<path d="M149.525 26.175C149.525 34.3375 149.525 42.5001 149.525 50.6501C149.525 50.8876 149.9 50.8876 149.9 50.6501C149.9 42.4876 149.9 34.325 149.9 26.175C149.9 25.925 149.525 25.925 149.525 26.175Z" fill="white"/>
<path d="M149.688 50.9125C159.712 50.9125 169.737 50.9125 179.75 50.9125C179.987 50.9125 179.987 50.5375 179.75 50.5375C169.725 50.5375 159.7 50.5375 149.688 50.5375C149.438 50.5375 149.438 50.9125 149.688 50.9125Z" fill="white"/>
<path d="M149.763 26.1875C159.663 26.1875 169.575 26.1875 179.475 26.1875C179.713 26.1875 179.713 25.8125 179.475 25.8125C169.575 25.8125 159.663 25.8125 149.763 25.8125C149.525 25.8125 149.525 26.1875 149.763 26.1875Z" fill="white"/>
<path d="M179.625 26.1C179.625 34.2625 179.625 42.4375 179.625 50.6C179.625 50.8375 180 50.8375 180 50.6C180 42.4375 180 34.2625 180 26.1C180 25.8625 179.625 25.8625 179.625 26.1Z" fill="white"/>
<path d="M164.237 26.2125C164.237 30.2 164.237 34.175 164.237 38.1625C164.237 38.4 164.612 38.4 164.612 38.1625C164.612 34.175 164.612 30.2 164.612 26.2125C164.612 25.9625 164.237 25.9625 164.237 26.2125Z" fill="white"/>
<path d="M164.425 37.9625C159.662 37.9625 154.887 37.9625 150.125 37.9625C149.887 37.9625 149.887 38.3375 150.125 38.3375C154.887 38.3375 159.662 38.3375 164.425 38.3375C164.662 38.3375 164.662 37.9625 164.425 37.9625Z" fill="white"/>
<path d="M166.1 26.2125C166.1 30.1625 166.1 34.1 166.1 38.05C166.1 38.2875 166.475 38.2875 166.475 38.05C166.475 34.1 166.475 30.1625 166.475 26.2125C166.475 25.9625 166.1 25.9625 166.1 26.2125Z" fill="white"/>
<path d="M166.288 38.45C170.688 38.45 175.088 38.45 179.488 38.45C179.725 38.45 179.725 38.075 179.488 38.075C175.088 38.075 170.688 38.075 166.288 38.075C166.038 38.075 166.038 38.45 166.288 38.45Z" fill="white"/>
<path d="M150.012 40.2C154.8 40.2 159.587 40.2 164.362 40.2C164.6 40.2 164.6 39.825 164.362 39.825C159.575 39.825 154.787 39.825 150.012 39.825C149.762 39.825 149.762 40.2 150.012 40.2Z" fill="white"/>
<path d="M164.175 40.075C164.175 43.5875 164.175 47.0874 164.175 50.5999C164.175 50.8374 164.55 50.8374 164.55 50.5999C164.55 47.0874 164.55 43.5875 164.55 40.075C164.55 39.825 164.175 39.825 164.175 40.075Z" fill="white"/>
<path d="M166.038 40.35C166.038 43.7625 166.038 47.175 166.038 50.6C166.038 50.8375 166.413 50.8375 166.413 50.6C166.413 47.1875 166.413 43.775 166.413 40.35C166.413 40.1 166.038 40.1 166.038 40.35Z" fill="white"/>
<path d="M166.175 40.5875C170.687 40.5875 175.2 40.5875 179.712 40.5875C179.95 40.5875 179.95 40.2125 179.712 40.2125C175.2 40.2125 170.687 40.2125 166.175 40.2125C165.925 40.2125 165.925 40.5875 166.175 40.5875Z" fill="white"/>
<path d="M175.525 26.3C172.713 29.475 170.075 32.8 167.6 36.25C167.463 36.45 167.788 36.6375 167.925 36.4375C170.375 33.0125 173 29.7125 175.788 26.5625C175.95 26.3875 175.688 26.125 175.525 26.3Z" fill="white"/>
<path d="M175.5 30.925C174.2 32.5 172.9 34.075 171.6 35.6375C171.45 35.825 171.712 36.0875 171.862 35.9C173.162 34.325 174.462 32.75 175.762 31.1875C175.912 31 175.65 30.7375 175.5 30.925Z" fill="white"/>
<path d="M151.45 50.45C154.725 47.175 158 43.8874 161.275 40.6124C161.45 40.4374 161.175 40.1749 161.012 40.3499C157.737 43.6249 154.462 46.9124 151.187 50.1874C151.025 50.3499 151.287 50.6125 151.45 50.45Z" fill="white"/>
<path d="M157.112 49.3125C158.225 47.8875 159.4 46.5375 160.662 45.25C160.837 45.075 160.562 44.8125 160.4 44.9875C159.137 46.275 157.95 47.625 156.85 49.05C156.7 49.225 156.962 49.5 157.112 49.3125Z" fill="white"/>
<path d="M147 65.275C151.412 65.275 155.837 65.275 160.25 65.275C160.487 65.275 160.487 64.9 160.25 64.9C155.837 64.9 151.412 64.9 147 64.9C146.762 64.9 146.762 65.275 147 65.275Z" fill="#040000"/>
<path d="M153.475 65.25C153.475 66.0875 153.475 66.9125 153.475 67.75C153.475 67.9875 153.85 67.9875 153.85 67.75C153.85 66.9125 153.85 66.0875 153.85 65.25C153.85 65.0125 153.475 65.0125 153.475 65.25Z" fill="#040000"/>
<path d="M153.662 67.9375C157.137 67.9375 160.612 67.9375 164.075 67.9375C164.312 67.9375 164.312 67.5625 164.075 67.5625C160.6 67.5625 157.125 67.5625 153.662 67.5625C153.425 67.5625 153.425 67.9375 153.662 67.9375Z" fill="#040000"/>
<path d="M160.225 65.1625C160.225 65.9625 160.225 66.775 160.225 67.575C160.225 67.8125 160.6 67.8125 160.6 67.575C160.6 66.775 160.6 65.9625 160.6 65.1625C160.6 64.925 160.225 64.925 160.225 65.1625Z" fill="#040000"/>
<path d="M147.188 65C147.188 64.3375 147.188 63.6625 147.188 63C147.188 62.7625 146.812 62.7625 146.812 63C146.812 63.6625 146.812 64.3375 146.812 65C146.812 65.2375 147.188 65.2375 147.188 65Z" fill="#040000"/>
<path d="M147.162 63.1C150.387 63.1 153.612 63.1 156.825 63.1C157.062 63.1 157.062 62.725 156.825 62.725C153.6 62.725 150.375 62.725 147.162 62.725C146.925 62.725 146.925 63.1 147.162 63.1Z" fill="#040000"/>
<path d="M156.725 63.1625C156.725 63.8 156.725 64.4375 156.725 65.075C156.725 65.3125 157.1 65.3125 157.1 65.075C157.1 64.4375 157.1 63.8 157.1 63.1625C157.1 62.925 156.725 62.925 156.725 63.1625Z" fill="#040000"/>
<path d="M145 68.025C148.087 68.025 151.162 68.025 154.25 68.025C154.487 68.025 154.487 67.65 154.25 67.65C151.162 67.65 148.087 67.65 145 67.65C144.762 67.65 144.762 68.025 145 68.025Z" fill="#040000"/>
<path d="M144.725 68C144.725 68.7 144.725 69.3875 144.725 70.0875C144.725 70.325 145.1 70.325 145.1 70.0875C145.1 69.3875 145.1 68.7 145.1 68C145.1 67.7625 144.725 67.7625 144.725 68Z" fill="#040000"/>
<path d="M144.912 70.4375C147.862 70.4375 150.8 70.4375 153.75 70.4375C153.987 70.4375 153.987 70.0625 153.75 70.0625C150.8 70.0625 147.862 70.0625 144.912 70.0625C144.675 70.0625 144.675 70.4375 144.912 70.4375Z" fill="#040000"/>
<path d="M153.562 68C153.562 68.725 153.562 69.45 153.562 70.1625C153.562 70.4 153.938 70.4 153.938 70.1625C153.938 69.4375 153.938 68.7125 153.938 68C153.938 67.7625 153.562 67.7625 153.562 68Z" fill="#040000"/>
<path d="M83.1 59.7625C88.55 59.7625 93.9875 59.7625 99.4375 59.7625C99.675 59.7625 99.675 59.3875 99.4375 59.3875C93.9875 59.3875 88.55 59.3875 83.1 59.3875C82.8625 59.3875 82.8625 59.7625 83.1 59.7625Z" fill="#F66F5D"/>
<path d="M83.2124 59.575C83.2124 58.875 83.2124 58.175 83.2124 57.475C83.2124 57.2375 82.8374 57.2375 82.8374 57.475C82.8374 58.175 82.8374 58.875 82.8374 59.575C82.8374 59.8125 83.2124 59.8125 83.2124 59.575Z" fill="#F66F5D"/>
<path d="M83.2372 57.4375C86.1497 57.4375 89.0747 57.4375 91.9872 57.4375C92.2247 57.4375 92.2247 57.0625 91.9872 57.0625C89.0747 57.0625 86.1497 57.0625 83.2372 57.0625C82.9997 57.0625 82.9997 57.4375 83.2372 57.4375Z" fill="#F66F5D"/>
<path d="M91.7998 57.475C91.7998 58.15 91.7998 58.825 91.7998 59.5C91.7998 59.7375 92.1748 59.7375 92.1748 59.5C92.1748 58.825 92.1748 58.15 92.1748 57.475C92.1748 57.225 91.7998 57.225 91.7998 57.475Z" fill="#F66F5D"/>
<path d="M89.4126 59.8625C89.4126 60.5625 89.4126 61.2626 89.4126 61.9626C89.4126 62.2001 89.7876 62.2001 89.7876 61.9626C89.7876 61.2626 89.7876 60.5625 89.7876 59.8625C89.7876 59.6125 89.4126 59.6125 89.4126 59.8625Z" fill="#F66F5D"/>
<path d="M89.6747 62.2875C92.8497 62.2875 96.0372 62.2875 99.2122 62.2875C99.4497 62.2875 99.4497 61.9125 99.2122 61.9125C96.0372 61.9125 92.8497 61.9125 89.6747 61.9125C89.4372 61.9125 89.4372 62.2875 89.6747 62.2875Z" fill="#F66F5D"/>
<path d="M99.25 59.7875C99.25 60.5875 99.25 61.375 99.25 62.175C99.25 62.4125 99.625 62.4125 99.625 62.175C99.625 61.375 99.625 60.5875 99.625 59.7875C99.625 59.55 99.25 59.55 99.25 59.7875Z" fill="#F66F5D"/>
<path d="M91.7251 62.2375C91.7251 62.8875 91.7251 63.5375 91.7251 64.1875C91.7251 64.425 92.1001 64.425 92.1001 64.1875C92.1001 63.5375 92.1001 62.8875 92.1001 62.2375C92.1001 62 91.7251 62 91.7251 62.2375Z" fill="#F66F5D"/>
<path d="M91.7748 64.15C88.9998 64.15 86.2373 64.15 83.4623 64.15C83.2248 64.15 83.2248 64.525 83.4623 64.525C86.2373 64.525 88.9998 64.525 91.7748 64.525C92.0123 64.525 92.0123 64.15 91.7748 64.15Z" fill="#F66F5D"/>
<path d="M90.0373 61.9875C87.8623 61.9875 85.6998 61.9875 83.5248 61.9875C83.2873 61.9875 83.2873 62.3625 83.5248 62.3625C85.6998 62.3625 87.8623 62.3625 90.0373 62.3625C90.2748 62.3625 90.2748 61.9875 90.0373 61.9875Z" fill="#F66F5D"/>
<path d="M83.3501 62.175C83.3501 62.875 83.3501 63.5751 83.3501 64.2751C83.3501 64.5126 83.7251 64.5126 83.7251 64.2751C83.7251 63.5751 83.7251 62.875 83.7251 62.175C83.7251 61.925 83.3501 61.925 83.3501 62.175Z" fill="#F66F5D"/>
<path d="M169.8 90.4125C173.237 90.4125 176.675 90.4125 180.112 90.4125C180.35 90.4125 180.35 90.0375 180.112 90.0375C176.675 90.0375 173.237 90.0375 169.8 90.0375C169.562 90.0375 169.562 90.4125 169.8 90.4125Z" fill="#F66F5D"/>
<path d="M175.938 90.1249C175.938 89.3499 175.938 88.575 175.938 87.8C175.938 87.5625 175.562 87.5625 175.562 87.8C175.562 88.575 175.562 89.3499 175.562 90.1249C175.562 90.3624 175.938 90.3624 175.938 90.1249Z" fill="#F66F5D"/>
<path d="M175.85 87.9375C178.788 87.9375 181.725 87.9375 184.675 87.9375C184.913 87.9375 184.913 87.5625 184.675 87.5625C181.738 87.5625 178.8 87.5625 175.85 87.5625C175.6 87.5625 175.6 87.9375 175.85 87.9375Z" fill="#F66F5D"/>
<path d="M184.475 87.85C184.475 88.5125 184.475 89.175 184.475 89.8375C184.475 90.075 184.85 90.075 184.85 89.8375C184.85 89.175 184.85 88.5125 184.85 87.85C184.85 87.6 184.475 87.6 184.475 87.85Z" fill="#F66F5D"/>
<path d="M179.862 90.3625C181.412 90.3625 182.962 90.3625 184.525 90.3625C184.762 90.3625 184.762 89.9875 184.525 89.9875C182.975 89.9875 181.425 89.9875 179.862 89.9875C179.612 89.9875 179.612 90.3625 179.862 90.3625Z" fill="#F66F5D"/>
<path d="M169.413 90.425C169.413 91.025 169.413 91.6125 169.413 92.2125C169.413 92.45 169.788 92.45 169.788 92.2125C169.788 91.6125 169.788 91.025 169.788 90.425C169.788 90.1875 169.413 90.175 169.413 90.425Z" fill="#F66F5D"/>
<path d="M169.65 92.5875C172.9 92.5875 176.162 92.5875 179.412 92.5875C179.65 92.5875 179.65 92.2125 179.412 92.2125C176.162 92.2125 172.9 92.2125 169.65 92.2125C169.412 92.2125 169.412 92.5875 169.65 92.5875Z" fill="#F66F5D"/>
<path d="M179.325 90.275C179.325 90.95 179.325 91.625 179.325 92.3125C179.325 92.55 179.7 92.55 179.7 92.3125C179.7 91.6375 179.7 90.9625 179.7 90.275C179.7 90.0375 179.325 90.0375 179.325 90.275Z" fill="#F66F5D"/>
<path d="M170.787 84.9125C173.938 84.9125 177.1 84.9125 180.25 84.9125C180.487 84.9125 180.487 84.5375 180.25 84.5375C177.1 84.5375 173.938 84.5375 170.787 84.5375C170.55 84.5375 170.55 84.9125 170.787 84.9125Z" fill="#F66F5D"/>
<path d="M180.062 84.875C180.062 85.8375 180.062 86.7875 180.062 87.75C180.062 87.9875 180.438 87.9875 180.438 87.75C180.438 86.7875 180.438 85.8375 180.438 84.875C180.438 84.625 180.062 84.625 180.062 84.875Z" fill="#F66F5D"/>
<path d="M170.7 84.775C170.7 85.6625 170.7 86.5625 170.7 87.45C170.7 87.6875 171.075 87.6875 171.075 87.45C171.075 86.5625 171.075 85.6625 171.075 84.775C171.075 84.5375 170.7 84.5375 170.7 84.775Z" fill="#F66F5D"/>
<path d="M171.138 87.8375C173.363 87.8375 175.6 87.8375 177.825 87.8375C178.063 87.8375 178.063 87.4625 177.825 87.4625C175.6 87.4625 173.363 87.4625 171.138 87.4625C170.9 87.4625 170.9 87.8375 171.138 87.8375Z" fill="#F66F5D"/>
<path d="M66.7001 124.075C68.7501 124.075 70.8001 124.075 72.8501 124.075C73.0876 124.075 73.0876 123.7 72.8501 123.7C70.8001 123.7 68.7501 123.7 66.7001 123.7C66.4626 123.7 66.4626 124.075 66.7001 124.075Z" fill="#161616"/>
<path d="M50.9374 124.1C68.8249 124.1 86.6999 124.1 104.587 124.1C122.375 124.1 140.175 124.1 157.962 124.1C168 124.1 178.037 124.1 188.075 124.1C188.562 124.1 188.562 123.35 188.075 123.35C170.187 123.35 152.312 123.35 134.425 123.35C116.637 123.35 98.8374 123.35 81.0499 123.35C71.0124 123.35 60.9749 123.35 50.9374 123.35C50.4499 123.35 50.4499 124.1 50.9374 124.1Z" fill="#161616"/>
<path d="M164.113 126.625C172.788 126.625 181.45 126.625 190.125 126.625C190.613 126.625 190.613 125.875 190.125 125.875C181.45 125.875 172.788 125.875 164.113 125.875C163.638 125.875 163.638 126.625 164.113 126.625Z" fill="#161616"/>
<path d="M74.8998 136.075C84.6248 136.075 94.3373 136.075 104.062 136.075C104.55 136.075 104.55 135.325 104.062 135.325C94.3373 135.325 84.6248 135.325 74.8998 135.325C74.4123 135.325 74.4123 136.075 74.8998 136.075Z" fill="#161616"/>
<path d="M22.2499 132.412C28.7374 132.412 35.2249 132.412 41.7124 132.412C42.1999 132.412 42.1999 131.662 41.7124 131.662C35.2249 131.662 28.7374 131.662 22.2499 131.662C21.7624 131.662 21.7624 132.412 22.2499 132.412Z" fill="#161616"/>
<path d="M45.8124 129C52.9249 129 60.0374 129 67.1499 129C67.6374 129 67.6374 128.25 67.1499 128.25C60.0374 128.25 52.9249 128.25 45.8124 128.25C45.3249 128.25 45.3249 129 45.8124 129Z" fill="#161616"/>
<path d="M41.2374 118.875C50.8374 113.612 59.9999 107.575 68.9624 101.287C77.9374 94.9874 86.7499 88.4374 95.7124 82.1124C100.737 78.5749 105.812 75.0999 110.987 71.7874C111.187 71.6624 111 71.3374 110.8 71.4624C101.562 77.3749 92.6624 83.7874 83.7749 90.2124C74.8999 96.6374 66.0249 103.087 56.8374 109.05C51.6874 112.387 46.4499 115.587 41.0624 118.537C40.8374 118.662 41.0249 118.987 41.2374 118.875Z" fill="#F66F5D"/>
<path d="M34.2872 116.3C33.5372 116.713 33.0372 117.25 32.7747 117.538C32.3747 117.975 32.0997 118.263 31.8872 118.7C31.5622 119.4 31.5997 120.188 31.6997 121.738C31.7747 122.888 31.8497 122.775 31.7997 123.038C31.5247 124.463 29.9622 124.725 29.9997 125.688C30.0247 126.288 30.6247 126.775 31.1372 126.95C31.9247 127.225 32.8747 126.875 33.4372 126.063C32.8372 126.363 31.9622 126.938 31.4122 127.963C31.2122 128.338 30.9497 128.825 31.1247 129.063C31.4247 129.475 32.7872 128.988 33.9997 128.463C33.9372 128.75 33.9247 129.1 34.1247 129.35C34.6122 129.963 36.0497 129.475 36.4247 129.35C36.8497 129.2 36.9122 129.125 38.8247 127.925C39.8247 127.3 40.1747 127.088 40.7497 126.663C41.2372 126.3 41.6122 125.988 41.8872 125.75C42.7872 125.775 43.8747 125.725 45.0747 125.5C47.3372 125.063 49.0747 124.175 50.1872 123.475C50.2747 123.838 50.3497 124.213 50.4372 124.575C49.3497 125.25 48.5122 125.75 47.9372 126.088C47.5747 126.3 47.1997 126.525 47.2372 126.688C47.2997 126.925 48.1497 126.913 48.6872 126.913C49.2872 126.913 49.7872 126.838 50.1372 126.788C50.1622 126.875 50.2497 127.113 50.4872 127.225C50.8372 127.413 51.2872 127.2 51.2747 127.163C51.2747 127.138 51.0872 127.138 51.0872 127.125C51.0872 127.1 52.4497 127.1 53.3872 127.025C54.1747 126.963 55.3247 126.813 56.7372 126.363C56.9747 125.4 57.0247 124.65 57.0247 124.125C57.0247 123.738 56.9997 123.538 57.0622 123.15C57.1747 122.388 57.4122 122.138 57.5372 121.575C57.6247 121.2 57.6497 120.638 57.4122 119.9C57.8247 119.738 58.0997 119.513 58.2622 119.363C58.2997 119.325 59.1497 118.5 59.0497 117.375C59.0247 117.138 58.9997 116.825 58.7997 116.713C58.4747 116.538 57.9122 116.988 57.6372 117.313C57.1497 117.875 57.1247 118.575 57.1372 118.888C56.7997 118.363 56.1247 117.463 54.9622 116.9C54.4997 116.675 54.0372 116.538 53.5372 116.463C51.1872 116.063 48.4247 116.875 46.6872 117.5C44.4122 118.325 43.3247 119.038 41.9247 118.8C41.4997 118.725 40.5747 118.563 39.9372 117.85C39.6872 117.575 39.6622 117.413 39.3372 117.025C39.2247 116.888 38.6372 116.2 37.8872 115.863C36.3622 115.163 34.6372 116.113 34.2872 116.3Z" fill="white"/>
<path d="M40.6874 118.563C40.3999 119.225 39.9999 119.825 39.4999 120.363C39.3374 120.538 39.5999 120.8 39.7624 120.625C40.2874 120.075 40.6999 119.45 40.9999 118.75C41.1124 118.525 40.7874 118.338 40.6874 118.563Z" fill="#EC615B"/>
<path d="M40.8622 118.713C40.5747 119.513 40.1372 120.213 39.5497 120.813C39.3872 120.988 39.6497 121.25 39.8122 121.075C40.4497 120.425 40.9122 119.663 41.2247 118.813C41.2997 118.588 40.9372 118.488 40.8622 118.713Z" fill="#EC615B"/>
<path d="M34.7 119.238C34.9375 120.763 35.1625 122.338 35.9 123.725C36.425 124.725 37.525 125.675 38.7 125.063C39.8625 124.45 40.025 122.95 39.95 121.775C39.8625 120.488 39.4125 119.25 38.475 118.338C38.3 118.175 38.0375 118.438 38.2125 118.6C39 119.375 39.425 120.4 39.55 121.488C39.675 122.6 39.6375 124.213 38.4625 124.763C37.0375 125.413 36.15 123.538 35.8 122.488C35.425 121.4 35.25 120.275 35.0875 119.138C35.025 118.9 34.6625 119 34.7 119.238Z" fill="#161616"/>
<path d="M34.225 116.1C32.8125 117.088 31.525 118.363 31.3375 120.163C31.3 120.588 31.325 121.013 31.425 121.413C31.575 122 31.9 122.488 31.55 123.088C31 124.038 30.2125 124.925 29.5625 125.813C29.425 126.013 29.75 126.2 29.8875 126C30.5 125.163 31.1375 124.338 31.725 123.488C32.225 122.775 32.0875 122.3 31.85 121.5C31.175 119.338 32.7875 117.55 34.425 116.413C34.6125 116.288 34.425 115.963 34.225 116.1Z" fill="#161616"/>
<path d="M29.5499 126.137C30.0749 126.612 30.6499 127.125 31.3874 127.2C32.0624 127.262 32.7124 126.9 33.2374 126.525C34.4249 125.687 35.2749 124.5 35.8249 123.162C35.9124 122.937 35.5499 122.837 35.4624 123.062C35.0249 124.137 34.3499 125.125 33.4624 125.875C32.9624 126.287 32.3124 126.787 31.6374 126.825C30.8999 126.875 30.3124 126.325 29.8124 125.862C29.6374 125.712 29.3749 125.975 29.5499 126.137Z" fill="#161616"/>
<path d="M31.9498 121.712C32.1373 122.062 32.3498 122.387 32.6123 122.675C32.7748 122.862 33.0373 122.587 32.8748 122.412C32.6373 122.137 32.4373 121.837 32.2748 121.525C32.1498 121.312 31.8373 121.5 31.9498 121.712Z" fill="#161616"/>
<path d="M30.1249 125.475C30.3749 125.762 30.4499 126.125 30.4124 126.487C30.3874 126.725 30.7624 126.725 30.7874 126.487C30.8374 126.025 30.6999 125.562 30.3874 125.212C30.2249 125.037 29.9624 125.3 30.1249 125.475Z" fill="#161616"/>
<path d="M29.7872 126.025C29.9372 126.138 30.0747 126.263 30.2247 126.375C30.3747 126.5 30.6497 126.338 30.5247 126.15C30.4247 126 30.3622 125.825 30.3622 125.638C30.2497 125.675 30.1247 125.7 30.0122 125.738C30.0497 125.788 30.0872 125.838 30.1122 125.888C30.2497 126.088 30.5747 125.9 30.4372 125.7C30.3997 125.65 30.3622 125.6 30.3372 125.55C30.2372 125.413 29.9872 125.45 29.9872 125.65C29.9872 125.9 30.0622 126.138 30.1997 126.35C30.2997 126.275 30.3997 126.2 30.4997 126.125C30.3497 126.013 30.2122 125.888 30.0622 125.775C29.9872 125.713 29.8747 125.7 29.7997 125.775C29.7247 125.825 29.7122 125.963 29.7872 126.025Z" fill="#161616"/>
<path d="M37.2126 115.825C38.2876 116.088 39.0126 116.913 39.6626 117.75C40.2876 118.538 40.7126 118.963 41.7626 118.9C43.9376 118.763 46.0126 117.938 48.0751 117.313C50.2001 116.675 52.8876 115.975 54.9876 117.05C57.1626 118.163 57.9751 120.838 56.8876 123C56.7751 123.213 57.1001 123.4 57.2126 123.188C58.7751 120.063 56.7001 116.55 53.3001 116.188C49.4001 115.775 45.8751 118.088 42.0751 118.488C41.3626 118.563 40.7626 118.525 40.2626 117.925C39.9626 117.563 39.6876 117.175 39.3751 116.825C38.8001 116.188 38.1376 115.663 37.2876 115.45C37.0751 115.4 36.9751 115.763 37.2126 115.825Z" fill="#161616"/>
<path d="M53.175 119.4C52.2 120.175 51.4875 121.188 51.5625 122.488C51.6375 123.638 52.325 124.625 53.35 125.15C53.5625 125.263 53.75 124.938 53.5375 124.825C52.575 124.325 51.925 123.388 51.9375 122.275C51.95 121.15 52.6 120.325 53.4375 119.663C53.625 119.525 53.3625 119.25 53.175 119.4Z" fill="#161616"/>
<path d="M53.375 125.05C52.675 125.263 51.9875 125.513 51.3125 125.813C50.9375 125.988 50.0125 126.238 49.8875 126.7C49.625 127.675 52.05 127.288 52.4125 127.263C53.1375 127.213 53.8625 127.138 54.5875 127.025C55.225 126.925 56.0875 126.913 56.6625 126.6C57.1 126.375 57.0625 125.888 57.0875 125.45C57.15 124.588 57.225 123.738 57.2875 122.875C57.3125 122.638 56.9375 122.638 56.9125 122.875C56.875 123.425 56.825 123.963 56.7875 124.513C56.75 125.013 56.8625 126.013 56.375 126.3C56.0375 126.5 55.45 126.5 55.0625 126.563C54.45 126.663 53.85 126.75 53.225 126.813C52.7125 126.863 52.2 126.9 51.6875 126.913C51.4125 126.925 51.1375 126.95 50.8625 126.938C50.625 126.925 50.225 127.013 50.3875 126.675C50.4625 126.538 50.9375 126.375 51.0875 126.313C51.375 126.175 51.675 126.038 51.975 125.913C52.4625 125.713 52.9625 125.55 53.4625 125.4C53.7125 125.338 53.6125 124.975 53.375 125.05Z" fill="#161616"/>
<path d="M39.6375 122.488C39.725 124.575 38.0125 125.975 36.3375 126.875C35.625 127.25 32.9375 128.1 33.8875 129.375C34.725 130.5 36.7875 129.338 37.7 128.85C39.275 128.013 40.65 126.875 42.025 125.738C42.2125 125.588 41.95 125.325 41.7625 125.475C40.575 126.45 39.3875 127.438 38.0625 128.213C37.3875 128.613 36.675 128.963 35.925 129.213C35.5 129.35 34.9375 129.575 34.5125 129.363C33.6375 128.938 34.3625 128.3 34.8625 128.025C37.1125 126.838 40.15 125.513 40.0125 122.475C40 122.25 39.625 122.25 39.6375 122.488Z" fill="#161616"/>
<path d="M32.3374 121.725C32.3999 121.3 32.6249 120.913 33.0124 120.713C33.2249 120.6 33.0374 120.275 32.8249 120.388C32.3499 120.638 32.0499 121.113 31.9749 121.625C31.9374 121.863 32.2999 121.963 32.3374 121.725Z" fill="#161616"/>
<path d="M33.9 125.3C33.7 125.675 33.325 125.888 33 126.15C32.6625 126.425 32.3375 126.725 32.025 127.038C31.65 127.425 30.8125 128.1 30.775 128.688C30.6875 130.138 33.3875 128.888 33.9 128.725C34.125 128.65 34.025 128.288 33.8 128.363C33.2375 128.55 32.6875 128.75 32.1125 128.913C31.95 128.975 31.775 129.013 31.6125 129.025C31.3 128.663 31.2875 128.35 31.55 128.113C31.675 127.9 31.9 127.713 32.0625 127.538C32.4375 127.138 32.8375 126.763 33.2625 126.413C33.6125 126.125 34 125.9 34.2125 125.488C34.3375 125.275 34.0125 125.088 33.9 125.3Z" fill="#161616"/>
<path d="M41.9872 125.875C45.4997 125.888 48.9497 124.8 51.8122 122.763C52.0122 122.625 51.8247 122.3 51.6247 122.438C48.8122 124.438 45.4497 125.513 41.9872 125.5C41.7497 125.488 41.7497 125.863 41.9872 125.875Z" fill="#161616"/>
<path d="M49.875 123.65C49.95 123.863 50.0125 124.063 50.0875 124.275C50.2 124.588 50.3 124.688 49.9875 124.875C49.6 125.113 49.1375 125.288 48.725 125.488C48.3 125.688 47.875 125.875 47.4625 126.1C47.2625 126.2 47.075 126.313 46.9875 126.525C46.5375 127.725 49.4875 127.05 49.925 126.913C50.15 126.838 50.05 126.475 49.825 126.55C49.4875 126.663 49.1375 126.75 48.7875 126.788C48.5625 126.813 47.9375 126.95 47.7125 126.825C47.1125 126.488 48.075 126.213 48.275 126.113C48.5875 125.963 48.9 125.8 49.225 125.65C49.575 125.475 50.425 125.275 50.5875 124.888C50.7375 124.538 50.3375 123.863 50.225 123.538C50.1625 123.325 49.8 123.425 49.875 123.65Z" fill="#161616"/>
<path d="M57.3126 118.838C57.3001 118.35 57.3876 117.888 57.6501 117.463C57.7626 117.288 57.9251 117.05 58.1251 116.963C59.1751 116.525 58.9876 117.513 58.9001 117.863C58.6751 118.663 58.0501 119.313 57.3626 119.738C57.1501 119.863 57.3501 120.188 57.5501 120.063C58.2251 119.663 58.7751 119.088 59.1126 118.363C59.3251 117.888 59.5376 117.188 59.1251 116.763C58.7501 116.375 58.1501 116.475 57.7626 116.775C57.1501 117.25 56.9251 118.1 56.9501 118.85C56.9501 119.075 57.3251 119.088 57.3126 118.838Z" fill="#161616"/>
<path d="M34.3497 116.525C35.1747 115.975 36.4872 115.413 37.4497 115.913C37.6622 116.025 37.8497 115.7 37.6372 115.588C36.5372 115.013 35.1122 115.575 34.1622 116.2C33.9622 116.325 34.1497 116.65 34.3497 116.525Z" fill="#161616"/>
<path opacity="0.09" d="M38.5 118.312C38.875 118.463 39.825 118.887 40.5 119.912C40.7875 120.35 41.5 121.437 41.1 122.662C40.7375 123.762 39.7125 124.25 39.475 124.35C39.6375 124 39.8625 123.437 39.9125 122.725C39.975 121.825 39.75 121.15 39.5 120.412C39.325 119.875 39.025 119.137 38.5 118.312Z" fill="#6D6C6C"/>
<path opacity="0.13" d="M34.7498 122.225C34.3998 123.588 33.7498 124.475 33.3998 124.95C32.6748 125.938 31.8623 126.6 31.2373 127.013C31.7123 126.95 32.3998 126.775 33.1123 126.35C33.3123 126.225 34.2123 125.688 34.8998 124.563C35.2748 123.95 35.4623 123.388 35.5623 123C35.3498 121.825 35.1498 120.65 34.9373 119.463C35.0123 120.075 35.0498 121.063 34.7498 122.225Z" fill="#6D6C6C"/>
<path opacity="0.07" d="M56.3749 117.975C56.4874 118.562 56.6124 119.475 56.4374 120.575C56.1374 122.525 55.1124 123.8 54.6499 124.362C53.1874 126.15 51.3749 126.862 50.5249 127.15C52.4999 127.087 54.0999 126.912 55.2749 126.737C56.0749 126.625 56.5874 126.525 56.8999 126.112C57.4249 125.412 56.7999 124.662 57.0874 122.987C57.2749 121.85 57.6124 121.775 57.6499 120.95C57.6874 120.2 57.4624 119.2 56.3749 117.975Z" fill="#6D6C6C"/>
<path opacity="0.14" d="M50.1626 123.688C50.2501 123.825 50.5376 124.288 50.3876 124.725C50.3501 124.825 50.2501 125.05 49.6626 125.35C48.6626 125.875 48.1001 125.663 47.6251 126.2C47.5876 126.238 47.2626 126.613 47.3751 126.863C47.4876 127.1 47.9876 127.075 48.4126 127.05C48.8251 127.025 49.4126 126.938 50.1001 126.675C50.5001 126.413 50.9876 126.125 51.5751 125.863C52.2251 125.575 52.8251 125.388 53.3251 125.263C53.2751 125.1 53.1626 124.863 52.9751 124.6C52.6376 124.15 52.3251 124.088 52.0376 123.688C51.9126 123.513 51.7501 123.225 51.6876 122.775C51.1751 123.088 50.6626 123.388 50.1626 123.688Z" fill="#6D6C6C"/>
<path opacity="0.25" d="M58.8122 116.812C58.7872 117.137 58.7122 117.625 58.4997 118.162C58.1247 119.125 57.5622 119.637 57.6497 119.725C57.7247 119.8 58.2747 119.462 58.6247 118.975C58.9122 118.562 58.9872 118.162 58.9997 118.037C59.0872 117.45 58.8997 116.987 58.8122 116.812Z" fill="#6D6C6C"/>
<path d="M137.075 115.4C139.9 118.05 142.713 120.713 145.538 123.363C142.238 130.075 140.913 133.625 141.563 134.025C142.363 134.525 146.238 130.112 153.2 120.762C148.4 117.262 143.6 113.763 138.8 110.25C138.225 111.975 137.65 113.688 137.075 115.4Z" fill="#191919"/>
<path d="M124.975 76.7C123.925 78.3 124.525 79.7625 125.125 85.2875C125.737 90.8875 125.225 90.3 125.725 94.175C126.575 100.725 128.45 105.463 129.95 109.175C129.95 109.175 132.062 114.438 136.2 119.275C136.312 119.413 136.575 119.688 136.95 119.95C137.325 120.213 138.125 120.763 139.062 120.625C140.05 120.488 140.8 119.65 141.1 118.888C141.438 118.025 141.038 117.625 141.475 116.925C141.8 116.425 142.088 116.5 142.913 115.875C143.488 115.425 144.225 114.863 144.575 113.913C144.962 112.838 144.662 111.863 144.575 111.575C144.312 110.75 143.812 110.225 143.675 110.063C143.062 109.4 142.112 107.538 140.212 103.813C138.737 100.938 136.425 94.425 135.687 86.2625C135.037 79.0125 136.163 76.45 134.1 74.8875C131.663 73.0375 126.712 74.05 124.975 76.7Z" fill="white"/>
<path d="M135.137 79.35C135.025 83.7 135.562 88.0375 136.5 92.2875C137.412 96.4125 138.587 100.575 140.212 104.475C141.037 106.475 142.062 108.387 143.4 110.087C143.55 110.275 143.812 110.012 143.662 109.825C141.162 106.675 139.862 102.787 138.687 99C137.412 94.9125 136.4 90.7375 135.875 86.475C135.587 84.1125 135.462 81.725 135.525 79.35C135.525 79.1 135.15 79.1 135.137 79.35Z" fill="#161616"/>
<path d="M125.025 84.875C125.05 91.5625 125.937 98.2875 128.025 104.662C129.05 107.787 130.362 110.837 132 113.688C132.825 115.138 133.737 116.55 134.737 117.9C135.575 119.038 136.562 120.3 138.012 120.662C139.35 121 140.687 120.463 141.212 119.15C141.75 117.788 141.387 116.012 142.512 114.912C142.687 114.737 142.425 114.475 142.25 114.65C141.387 115.488 141.337 116.7 141.162 117.812C141.075 118.362 140.975 118.938 140.675 119.412C140.175 120.237 139.212 120.513 138.3 120.338C136.662 120.025 135.6 118.462 134.7 117.2C133.812 115.95 132.987 114.65 132.225 113.312C129.137 107.837 127.225 101.75 126.237 95.55C125.675 92.025 125.412 88.45 125.4 84.875C125.4 84.625 125.025 84.625 125.025 84.875Z" fill="#161616"/>
<path d="M143.1 109.738C144.113 110.938 144.9 112.5 144.363 114.088C144.088 114.925 143.463 115.238 142.775 115.675C142.175 116.063 141.675 116.575 141.263 117.163C141.125 117.363 141.45 117.55 141.588 117.35C141.938 116.875 142.338 116.425 142.825 116.088C143.138 115.875 143.488 115.713 143.8 115.488C144.388 115.063 144.713 114.4 144.838 113.7C145.113 112.1 144.363 110.663 143.363 109.463C143.213 109.288 142.95 109.563 143.1 109.738Z" fill="#161616"/>
<path opacity="0.16" d="M125.263 84.5875C125.238 86.2375 125.288 87.9625 125.413 89.775C125.863 96.1625 127.225 101.7 128.788 106.225C128.788 106.225 130.75 111.838 133.363 115.763C133.65 116.188 134.2 116.9 135.313 118.313C136.463 119.788 136.8 120.15 137.413 120.413C137.5 120.45 139.063 121.1 140.113 120.338C140.4 120.138 140.625 119.65 141.088 118.688C141.563 117.7 141.8 117.175 141.913 116.438C142.525 116.413 142.975 116.075 143.038 115.688C143.113 115.213 142.563 114.813 142.513 114.788C141.763 114.275 140.725 114.7 140.263 114.788C137.975 115.2 135.113 109.75 134.25 108.1C130.688 101.188 128.9 97.7375 127.638 93.9125C126.9 91.55 125.988 88.4 125.263 84.5875Z" fill="#6D6C6C"/>
<path opacity="0.13" d="M126.912 99.1626C127.025 99.1251 127.225 99.6876 129.162 103.588C132.937 111.175 133.837 112.275 134.8 113.125C135.95 114.15 138.012 115.55 141.562 116.125C141.6 116.35 142.05 118.825 140.587 119.95C139.95 120.45 139.212 120.475 139.012 120.475C136.75 120.55 134.4 117.463 132.325 113.788C128.287 106.638 126.5 99.3001 126.912 99.1626Z" fill="#6D6C6C"/>
<path d="M109.562 116.175C107.887 119.675 106.225 123.163 104.55 126.663C97.1625 125.563 93.3625 125.388 93.175 126.125C92.9375 127.038 98.3375 129.388 109.35 133.163C111.225 127.525 113.1 121.888 114.962 116.238C113.175 116.225 111.375 116.2 109.562 116.175Z" fill="#191919"/>
<path d="M124.425 75.55C123.137 76.65 122.762 77.8249 121.725 80.2249C120.125 83.9124 118.312 87.5124 116.687 91.1999C113.45 98.5499 112.4 100.175 109.95 105.95C108.537 109.275 108.55 109.512 107.787 110.9C107 112.325 106.187 113.525 105.625 115.575C105.287 116.8 105.212 117.712 105.537 118.637C105.662 119 106.05 120.137 107.062 120.525C107.712 120.775 108.375 120.625 109.125 120.437C109.737 120.287 110.225 120.075 110.562 119.9C110.787 120.187 111.187 120.612 111.825 120.887C113.012 121.425 114.15 121.062 114.7 120.887C115.025 120.787 116.237 120.362 117.125 119.175C117.737 118.362 117.912 117.55 118.025 117.112C118.475 115.25 119.4 113.537 120 111.712C120.325 110.712 120.95 109.187 125.125 103.087C129.625 96.5125 129.85 96.8999 132.05 93.2874C134.438 89.3624 135.775 87.2125 136.362 83.9375C136.837 81.2875 137.537 77.3999 135.212 75.0999C132.575 72.4249 127.237 73.125 124.425 75.55Z" fill="white"/>
<path d="M136.425 77.975C137.212 85.175 133.312 91.7125 129.225 97.2875C127.15 100.113 124.962 102.85 123.075 105.788C121.125 108.813 119.612 112.063 118.375 115.438C117.75 117.15 117.35 119.35 115.662 120.375C114.25 121.225 112.4 121.163 111.087 120.163C110.9 120.013 110.712 120.338 110.9 120.488C113.137 122.175 116.325 121.238 117.525 118.788C118.312 117.175 118.775 115.375 119.437 113.713C120.187 111.85 121.037 110.013 122.012 108.263C125.687 101.725 131.212 96.3875 134.462 89.5875C136.187 85.9625 137.25 81.9875 136.8 77.9625C136.775 77.7375 136.4 77.725 136.425 77.975Z" fill="#161616"/>
<path d="M124.225 74.425C120.8 81.9125 117.375 89.4125 113.937 96.9C112.212 100.687 110.475 104.462 108.75 108.25C107.937 110.037 107.087 111.812 106.3 113.612C105.675 115.025 105.075 116.612 105.312 118.175C105.512 119.437 106.3 120.775 107.687 120.875C108.687 120.95 109.7 120.475 110.625 120.175C111.712 119.825 112.812 119.462 113.9 119.112C114.125 119.037 114.025 118.675 113.8 118.75C112.937 119.025 112.087 119.3 111.225 119.587C110.325 119.875 109.425 120.237 108.5 120.437C106.687 120.812 105.687 119.262 105.625 117.637C105.562 115.837 106.462 114.1 107.187 112.512C107.987 110.775 108.775 109.037 109.575 107.287C112.762 100.325 115.95 93.3625 119.125 86.4C120.925 82.4625 122.725 78.525 124.525 74.6C124.65 74.3875 124.325 74.2 124.225 74.425Z" fill="#161616"/>
<path d="M110.575 120.25C110.7 120.325 110.825 120.412 110.937 120.5C111.012 120.562 111.125 120.575 111.2 120.5C111.262 120.437 111.275 120.3 111.2 120.237C111.062 120.125 110.912 120.025 110.762 119.925C110.562 119.8 110.375 120.125 110.575 120.25Z" fill="#161616"/>
<path opacity="0.09" d="M130.9 73.325C129.388 74.075 129.85 77.125 129.625 80.4625C129.463 82.925 129.05 83.675 123.313 96.7625C118.488 107.775 117.913 109.225 116.025 112.088C113.688 115.625 111.338 118.288 109.638 120.05C110.038 120.025 110.438 120 110.838 119.975C111.1 120.225 111.525 120.55 112.113 120.8C112.4 120.925 113.688 121.475 115.038 121.025C116.363 120.588 117.013 119.438 117.513 118.55C118.263 117.213 118.463 116.025 118.563 115.475C118.838 114.013 119.7 112.35 121.413 109.013C123.725 104.525 125.975 102.688 130.125 96.55C133.525 91.5 135.4 88.6625 136.288 84.3875C137 80.975 136.788 78.0375 136.513 76.125C134.675 74.3875 132.325 72.6125 130.9 73.325Z" fill="#6D6C6C"/>
<path opacity="0.16" d="M136.3 82.1126C136.088 82.0251 135.038 84.5501 132.925 88.2751C130.013 93.3751 129 93.8501 125.113 99.6876C121.188 105.588 121.25 106.575 117.15 112.6C115.025 115.725 113.15 118.2 111.888 119.813C111.525 120.4 111.588 120.675 111.663 120.788C111.975 121.325 113.55 120.963 114.288 120.788C115.238 120.563 115.725 120.45 116.238 120.113C117.325 119.4 117.563 118.288 118.338 115.988C118.75 114.75 119.275 113.55 119.688 112.313C120.588 109.663 121.863 107.8 123.963 104.8C131.163 94.5626 131.138 95.1376 132.375 92.8626C135.338 87.4626 136.6 82.2376 136.3 82.1126Z" fill="#6D6C6C"/>
<path d="M100.775 38.2375C100.45 38.7875 100.387 39.3125 100.362 39.55C100.237 40.575 100.587 41.375 100.737 41.6875C101.562 43.475 103.45 44.0875 103.787 44.1875C104.012 45.025 104.237 45.8625 104.487 46.7125C105.05 48.7 105.637 50.65 106.237 52.55C107.037 52.4375 107.837 52.325 108.637 52.2125C108.412 51.15 108.137 50.3 107.937 49.7375C107.337 48.0125 106.775 47.15 106.287 45.275C106.162 44.775 106.075 44.35 106.025 44.0875C106.225 43.95 106.5 43.7125 106.762 43.375C107.8 42.025 107.55 40.375 107.5 40.025C107.412 39.4875 107.275 38.5125 106.45 37.6875C105.4 36.625 104.05 36.6 103.85 36.6C102.637 36.5625 101.387 37.1875 100.775 38.2375Z" fill="#F66F5D"/>
<path d="M101.5 39.2499C101.45 39.3999 101.313 39.9374 101.463 40.5999C101.688 41.5749 102.463 42.4624 103.5 42.7624C104.313 42.9999 105.55 42.9749 106.213 42.1624C106.675 41.5999 106.663 40.9249 106.65 40.2999C106.638 39.5999 106.613 38.5249 105.763 37.8249C104.738 36.9749 103.375 37.3999 103.288 37.4249C102.4 37.7124 101.738 38.4249 101.5 39.2499Z" fill="white"/>
<path d="M103.763 47.1374C103.725 47.3249 103.675 47.5999 103.675 47.9124C103.675 48.0624 103.675 48.4749 103.825 49.0999C103.925 49.4874 103.988 49.5874 104.4 50.5874C104.85 51.6749 104.938 51.9749 105.275 52.1124C105.5 52.2124 105.738 52.1749 105.888 52.1374C105.525 51.5624 105.55 51.2249 105.638 51.0249C105.713 50.8374 105.838 50.7999 105.913 50.5624C105.938 50.4749 105.975 50.3124 105.838 49.7499C105.7 49.1999 105.638 49.1999 105.6 48.8749C105.55 48.4999 105.638 48.4874 105.588 48.1374C105.575 48.0749 105.525 47.7374 105.313 47.3499C105.113 46.9999 104.988 46.7749 104.738 46.6999C104.413 46.6249 104.05 46.8124 103.763 47.1374Z" fill="white"/>
<path d="M106.875 46.9875C106.563 47.3 106.125 47.8875 106.3 48.2C106.45 48.45 106.975 48.475 107.238 48.4875C107.425 48.5 107.575 48.4875 107.688 48.475C107.738 48.6125 107.788 48.7375 107.825 48.875C108.175 49.9 108.475 50.9125 108.725 51.9125C108.763 52.05 108.8 52.1875 108.825 52.3125C108.713 52.475 108.5 52.725 108.163 52.925C107.7 53.1875 107.263 53.225 107.05 53.225C107.288 53.8 107.638 54.525 108.163 55.3125C108.313 55.5375 108.75 56.2 109.475 56.9875C110.163 57.7375 110.85 58.4875 111.95 59.1375C113.438 60.025 114.838 60.225 115.613 60.325C116.775 60.475 117.688 60.4125 118.15 60.3625C118.55 60.325 120.138 60.125 121.975 59.1875C123.688 58.3125 124.725 57.2625 125.513 56.45C126.125 55.825 127.175 54.7125 128.088 52.95C128.713 51.725 128.95 50.8125 129.4 49.025C130.038 46.5 130.35 45.2375 129.725 44.6625C129.2 44.1875 128.275 44.3875 127.525 44.5625C126.288 44.8375 125.45 45.5 124.438 46.325C123.925 46.75 123.475 47.1875 122.613 48.0375C120.788 49.8375 120.675 50.125 119.675 50.95C119.075 51.45 118.588 51.775 117.613 52.4125C115.663 53.7125 115.113 53.825 114.688 53.85C113.913 53.8875 113.325 53.625 112.788 53.3875C111.188 52.6625 110.425 51.3875 110.188 50.9875C109.875 50.45 109.638 50.0375 109.625 49.4625C109.613 48.8 109.9 48.5875 109.913 47.775C109.925 47.3 109.938 46.6375 109.538 46.3C108.913 45.75 107.588 46.2875 106.875 46.9875Z" fill="white"/>
<path d="M109.412 50.15C110.587 52.175 112.4 54.3 115 53.9875C115.237 53.9625 115.237 53.5875 115 53.6125C112.525 53.9125 110.85 51.875 109.725 49.9625C109.612 49.75 109.287 49.9375 109.412 50.15Z" fill="#161616"/>
<path d="M112.263 54.4375C113.913 54.5875 115.438 53.875 116.825 53.075C118.263 52.25 119.588 51.25 120.788 50.1C123.188 47.7875 125.688 44.0625 129.525 44.75C129.763 44.7875 129.863 44.425 129.625 44.3875C126.213 43.775 123.688 46.5125 121.575 48.75C120.338 50.0625 119 51.2625 117.475 52.2375C115.925 53.2375 114.163 54.225 112.263 54.0625C112.025 54.0375 112.025 54.4125 112.263 54.4375Z" fill="#161616"/>
<path d="M106.412 52.575C108.25 56.0625 110.512 59.5 114.625 60.375C118.412 61.1875 122.262 59.8125 125.037 57.2125C126.662 55.6875 127.912 53.8125 128.812 51.7875C128.912 51.575 128.587 51.375 128.487 51.6C126.975 54.975 124.412 58.05 120.912 59.45C117.387 60.85 113.2 60.4 110.4 57.7375C108.825 56.2375 107.75 54.3 106.737 52.3875C106.625 52.1625 106.3 52.3625 106.412 52.575Z" fill="#161616"/>
<path d="M107.425 46.4625C106.787 46.7375 105.887 47.575 106.237 48.3625C106.625 49.2125 108 48.475 108.487 48.1125C108.675 47.975 108.487 47.65 108.3 47.7875C108.012 48 106.675 48.8 106.55 48.0625C106.45 47.5125 107.2 46.975 107.625 46.7875C107.837 46.6875 107.637 46.3625 107.425 46.4625Z" fill="#161616"/>
<path d="M107.5 46.8125C107.975 46.45 108.725 45.875 109.325 46.4C109.813 46.8375 109.713 47.6 109.625 48.1625C109.513 48.8875 109.225 49.9 109.688 50.55C109.825 50.75 110.15 50.5625 110.013 50.3625C109.563 49.725 109.975 48.575 110.05 47.875C110.113 47.35 110.088 46.8125 109.788 46.375C109.138 45.425 108.038 45.9375 107.313 46.4875C107.125 46.6375 107.313 46.9625 107.5 46.8125Z" fill="#161616"/>
<path d="M107.288 48.475C107.713 49.7375 108.1 51.0125 108.475 52.3C108.513 52.225 108.563 52.15 108.6 52.075C107.75 52.275 106.875 52.0625 106.075 52.475C106.163 52.5125 106.263 52.55 106.35 52.5875C106.2 52.05 106.013 51.5125 105.825 50.9875C105.738 50.7625 105.375 50.8625 105.463 51.0875C105.663 51.6125 105.838 52.15 105.988 52.6875C106.025 52.8125 106.15 52.85 106.263 52.8C107.013 52.4125 107.9 52.625 108.7 52.4375C108.8 52.4125 108.863 52.3 108.825 52.2125C108.45 50.925 108.063 49.6625 107.638 48.3875C107.575 48.1375 107.213 48.2375 107.288 48.475Z" fill="#161616"/>
<path d="M106.125 52.7125C106.675 53.6125 108.388 53.275 108.775 52.375C108.875 52.15 108.55 51.9625 108.45 52.1875C108.188 52.8125 106.85 53.1875 106.438 52.525C106.325 52.3125 106 52.5 106.125 52.7125Z" fill="#161616"/>
<path d="M106.462 52.825C107.1 52.9625 107.725 52.925 108.337 52.7C108.562 52.6125 108.462 52.25 108.237 52.3375C107.687 52.5375 107.125 52.575 106.562 52.4625C106.325 52.4125 106.225 52.775 106.462 52.825Z" fill="#161616"/>
<path d="M106.35 52.7624C106.8 52.0749 107.65 51.8874 108.35 52.2999C108.562 52.4249 108.75 52.0999 108.537 51.9749C107.637 51.4624 106.587 51.7124 106.012 52.5749C105.887 52.7749 106.212 52.9749 106.35 52.7624Z" fill="#161616"/>
<path d="M107.038 52.5375C107.188 52.0625 107.825 52.325 108.125 52.4625C108.338 52.5625 108.538 52.2375 108.313 52.1375C107.775 51.8875 106.913 51.675 106.675 52.4375C106.613 52.675 106.975 52.775 107.038 52.5375Z" fill="#161616"/>
<path d="M105.475 51.95C105.15 51.7375 104.938 51.375 104.95 50.975C104.963 50.8 105.013 50.6375 105.088 50.4875C105.125 50.425 105.475 49.975 105.563 50.0375C105.75 50.1875 106.013 49.925 105.825 49.775C105.35 49.4 104.775 50.1625 104.65 50.575C104.438 51.2375 104.725 51.9 105.288 52.275C105.488 52.4 105.675 52.075 105.475 51.95Z" fill="#161616"/>
<path d="M105.588 51.2249C106.138 50.9124 106.225 50.1749 105.738 49.7624C105.55 49.6124 105.288 49.8749 105.475 50.0249C105.775 50.2749 105.75 50.6999 105.4 50.8999C105.188 51.0249 105.375 51.3499 105.588 51.2249Z" fill="#161616"/>
<path d="M105.05 52.0625C105.325 52.3375 105.763 52.4 106.088 52.1875C106.288 52.0625 106.1 51.7375 105.9 51.8625C105.713 51.9875 105.475 51.9625 105.313 51.8C105.15 51.625 104.888 51.8875 105.05 52.0625Z" fill="#161616"/>
<path d="M104.75 50.8125C104.525 50.475 104.45 50.0875 104.538 49.6875C104.638 49.2125 105.063 48.6375 105.563 49.125C105.738 49.3 106 49.025 105.825 48.8625C105.338 48.375 104.738 48.5125 104.388 49.0875C104.025 49.675 104.063 50.4375 104.438 51C104.563 51.2 104.888 51.0125 104.75 50.8125Z" fill="#161616"/>
<path d="M104.313 49.9499C104.288 49.7749 104.225 49.6374 104.138 49.4749C103.975 49.1749 103.938 48.9499 104.025 48.6124C104.175 48.0374 104.663 47.6124 105.25 47.9624C105.463 48.0874 105.65 47.7624 105.438 47.6374C104.9 47.3249 104.213 47.4499 103.875 47.9874C103.7 48.2624 103.588 48.6249 103.588 48.9499C103.575 49.3624 103.888 49.6499 103.95 50.0499C103.988 50.2874 104.35 50.1874 104.313 49.9499Z" fill="#161616"/>
<path d="M103.95 48.1249C103.75 47.8374 103.738 47.4374 103.988 47.1749C104.238 46.9124 104.638 46.8999 104.938 47.0874C105.138 47.2124 105.325 46.8874 105.125 46.7624C104.688 46.4874 104.088 46.5374 103.725 46.9124C103.363 47.2874 103.338 47.8999 103.625 48.3249C103.763 48.5124 104.088 48.3249 103.95 48.1249Z" fill="#161616"/>
<path d="M105.113 47.9124C105.388 48.0499 105.488 48.4374 105.275 48.6749C105.113 48.8499 105.375 49.1249 105.538 48.9374C105.9 48.5374 105.8 47.8374 105.3 47.5874C105.088 47.4874 104.888 47.7999 105.113 47.9124Z" fill="#161616"/>
<path d="M104.788 47.0999C105.025 47.2124 105.163 47.4624 105.113 47.7374C105.063 47.9749 105.425 48.0749 105.475 47.8374C105.563 47.4124 105.363 46.9749 104.975 46.7874C104.763 46.6624 104.575 46.9874 104.788 47.0999Z" fill="#161616"/>
<path d="M105.538 49.2875C105.625 49.425 105.65 49.6 105.575 49.7625C105.538 49.85 105.55 49.9625 105.638 50.025C105.713 50.075 105.85 50.05 105.9 49.9625C106.025 49.6875 106.013 49.375 105.863 49.1125C105.738 48.8875 105.413 49.075 105.538 49.2875Z" fill="#161616"/>
<path d="M103.688 44.3375C103.838 45.1875 104.025 46.025 104.263 46.8625C104.325 47.1 104.688 47 104.625 46.7625C104.388 45.9375 104.2 45.0875 104.05 44.2375C104.013 44 103.65 44.1 103.688 44.3375Z" fill="#161616"/>
<path d="M105.788 44.1374C106.088 45.1374 106.388 46.1249 106.675 47.1249C106.75 47.3499 107.1 47.2624 107.038 47.0249C106.738 46.0249 106.438 45.0374 106.15 44.0374C106.075 43.7999 105.713 43.8999 105.788 44.1374Z" fill="#161616"/>
<path d="M103.725 43.975C102.138 43.825 100.688 41.8 100.463 40.325C100.188 38.5375 101.85 37.0625 103.5 36.75C107.038 36.1 108.913 42.3 105.888 43.925C105.675 44.0375 105.863 44.3625 106.075 44.25C108.7 42.8375 107.988 38.3625 105.788 36.9C103.138 35.1375 99.1626 37.975 100.263 41.05C100.775 42.475 102.113 44.1875 103.725 44.3375C103.963 44.375 103.963 44 103.725 43.975Z" fill="#161616"/>
<path d="M103.712 42.6624C102.5 42.3874 101.55 41.3249 101.562 40.0499C101.575 38.6999 102.687 37.4999 104.05 37.4499C105.687 37.3999 106.487 38.9874 106.462 40.4374C106.45 41.2749 106.325 42.0749 105.462 42.4124C104.8 42.6624 104.075 42.8874 103.375 42.6124C103.15 42.5249 103.05 42.8874 103.275 42.9749C104.075 43.2874 105 43.0249 105.762 42.6874C106.487 42.3624 106.7 41.7874 106.8 41.0249C107 39.3624 106.35 37.3249 104.437 37.0999C102.862 36.9124 101.462 38.1374 101.237 39.6749C101.012 41.2374 102.125 42.6749 103.637 43.0249C103.85 43.0749 103.95 42.7124 103.712 42.6624Z" fill="#161616"/>
<path d="M104.113 37.3125C103.6 38.925 103.088 40.55 102.588 42.1625C102.513 42.3875 102.875 42.4875 102.95 42.2625C103.463 40.65 103.975 39.025 104.475 37.4125C104.55 37.1875 104.188 37.0875 104.113 37.3125Z" fill="#161616"/>
<path d="M104.85 39.1125C104.462 40.275 104.037 41.425 103.6 42.5625C103.512 42.7875 103.875 42.8875 103.962 42.6625C104.4 41.525 104.825 40.3625 105.212 39.2125C105.287 38.975 104.925 38.875 104.85 39.1125Z" fill="#161616"/>
<path opacity="0.12" d="M129.6 44.7125C129.05 46.1 128.088 48.1625 126.438 50.3625C124.663 52.75 122.65 55.45 119.025 56.625C118.125 56.9125 115.438 57.75 112.213 56.75C109.4 55.875 107.713 54.075 107.05 53.2875C107.363 54.125 107.95 55.4125 109.05 56.6875C109.625 57.35 111.738 59.7375 115.375 60.3375C115.825 60.4125 118.175 60.775 120.913 59.725C123.925 58.575 125.55 56.4375 126.688 54.925C127.488 53.8625 128.913 51.9125 129.488 48.9625C129.825 47.2125 129.738 45.7125 129.6 44.7125Z" fill="#6D6C6C"/>
<path opacity="0.21" d="M109.663 56.875C110.6 57.475 112.3 58.3875 114.588 58.6375C117.425 58.95 119.575 58.0625 121.15 57.425C124.275 56.1375 126.463 54.2 127.838 52.6875C127.363 53.8125 126.363 55.7375 124.375 57.425C123.438 58.225 120.2 60.975 115.8 60.3375C112.45 59.85 110.35 57.6625 109.663 56.875Z" fill="#6D6C6C"/>
<path d="M127.387 43.4874C125.312 45.0249 124.55 47.0749 123.687 49.3499C122.087 53.5749 122.35 56.9374 122.525 62.2624C122.637 65.6499 122.737 70.5624 122.637 76.6874C124.787 77.2249 127.487 77.6874 130.612 77.7999C133.037 77.8749 135.2 77.7249 137.025 77.4749C138.05 72.7624 139.125 68.9624 139.925 66.3249C142.6 57.4999 145.312 51.0374 142.837 45.8624C142.712 45.6124 142.587 45.3999 142.45 45.2124C139.6 41.1874 131.612 40.3499 127.387 43.4874Z" fill="#F66F5D"/>
<path opacity="0.15" d="M136.413 41.8624C136.25 42.7749 135.975 44.2124 135.562 45.9374C133.225 55.6874 130.875 56.2249 130.462 61.6249C130.037 67.0624 132.237 69.0249 130.4 73.1124C129.437 75.2499 127.962 76.6749 126.875 77.5499C128.612 77.6749 130.475 77.7499 132.462 77.7374C134.025 77.7249 135.5 77.6624 136.9 77.5499C137.787 73.6874 138.637 70.5999 139.275 68.4374C139.587 67.3749 139.963 66.1124 140.675 63.7624C141.838 59.9124 142.137 58.9624 142.625 57.1374C143.337 54.4249 143.7 53.0374 143.775 51.6624C143.9 49.5999 144.038 47.2499 142.562 45.2749C141.625 44.0124 140.337 43.3374 139.65 42.9624C138.375 42.2749 137.2 41.9874 136.413 41.8624Z" fill="#6D6C6C"/>
<path opacity="0.17" d="M141.638 59.1875C141.375 59.0875 140.038 62.6375 137.688 67.45C135.5 71.925 133.425 75.45 131.975 77.7875C133.613 77.6625 135.263 77.55 136.9 77.425C137.325 75.7625 137.975 73.275 138.788 70.25C140.788 62.8 141.9 59.275 141.638 59.1875Z" fill="#6D6C6C"/>
<path d="M140.725 44.65C140.312 44.8 139.725 45.05 139.05 45.4375C136.675 46.8 135.412 48.675 134.637 49.8C134.637 49.8 132.025 53.6 128 58.7C126.75 60.2875 125.5 61.7625 123.962 63.3625C120.775 66.6875 119.362 67.375 118.75 67.6375C117.225 68.3125 115.887 68.9 114.125 68.7625C112.962 68.675 112.237 68.3125 111.437 68.8C110.587 69.3125 110.025 70.5375 110.137 71.2125C110.15 71.2875 110.2 71.525 110.225 71.8625C110.237 71.95 110.25 72.25 110.225 72.6875C110.187 73.3625 110.112 73.3 110.137 73.55C110.212 74.0875 110.587 74.3625 110.475 74.5375C110.4 74.6625 110.2 74.55 110.05 74.7125C109.875 74.8875 109.95 75.225 109.962 75.275C110.05 75.6625 110.375 75.8875 110.512 75.9625C111.05 76.3125 111.412 76.125 112.775 76.175C113.737 76.2125 114.025 76.325 114.5 76.0875C114.625 76.025 114.837 75.9125 115.212 75.4875C116.287 74.2875 116.162 73.4875 117.1 72.725C117.437 72.45 117.775 72.3 117.987 72.2125C118.675 71.9125 119.125 71.925 119.787 71.775C120.237 71.6875 120.687 71.5 121.587 71.125C123.05 70.525 124.175 69.9375 124.612 69.7C127.25 68.275 129.637 66.475 130.15 66.075C132.887 63.9875 134.637 62.225 136.912 59.9375C138.55 58.3 140.275 56.45 141.95 53.9375C142.462 53.1625 143.375 51.725 143.675 49.7C143.812 48.7875 143.95 47.7625 143.425 46.725C142.7 45.2125 141.112 44.75 140.725 44.65Z" fill="white"/>
<path d="M140.35 44.5375C137.987 45.275 136.187 47.4125 134.712 49.2875C133.037 51.425 131.525 53.675 129.9 55.8375C128.162 58.15 126.362 60.4125 124.4 62.5375C122.537 64.5375 120.5 66.5125 117.987 67.6625C116.525 68.325 114.912 68.7 113.312 68.5625C112.4 68.4875 111.237 68.2625 110.675 69.1875C110.55 69.3875 110.875 69.5875 111 69.375C111.337 68.8125 112.037 68.825 112.612 68.875C113.212 68.9125 113.8 68.9875 114.4 68.9625C115.587 68.9 116.762 68.6 117.862 68.1375C120.2 67.15 122.15 65.45 123.9 63.6375C127.675 59.7375 130.775 55.2875 133.975 50.925C134.875 49.7 135.8 48.5 136.862 47.4125C137.887 46.3625 139.05 45.35 140.487 44.9C140.675 44.825 140.575 44.4625 140.35 44.5375Z" fill="#161616"/>
<path d="M140.312 44.775C142.4 44.4875 143.562 46.7 143.55 48.4875C143.537 50.2625 142.787 52.0125 141.912 53.525C140.287 56.3625 137.925 58.7875 135.637 61.1C131.112 65.6375 125.837 69.75 119.6 71.5875C118.837 71.8125 117.912 71.8875 117.237 72.3375C116.6 72.7625 116.275 73.5875 115.837 74.2C115.512 74.65 115.162 75.0875 114.787 75.5C114.3 76.025 113.85 76.075 113.187 76.025C112.687 75.9875 112.187 75.95 111.675 75.9125C111.162 75.875 110.437 75.9125 110.187 75.3625C110.087 75.1375 109.762 75.3375 109.862 75.55C110.125 76.1375 110.75 76.2125 111.325 76.2625C111.787 76.3 112.25 76.3375 112.712 76.3625C113.162 76.4 113.675 76.5 114.125 76.4125C114.875 76.2625 115.437 75.325 115.875 74.775C116.4 74.1 116.837 72.9875 117.6 72.5625C118.025 72.325 118.562 72.2625 119.025 72.1375C119.487 72.0125 119.937 71.8875 120.387 71.7375C121.2 71.475 122.012 71.1625 122.8 70.825C124.45 70.1125 126.025 69.2625 127.537 68.2875C130.562 66.3375 133.312 63.975 135.85 61.4375C138.425 58.8625 141.137 56.1 142.762 52.7875C143.612 51.05 144.312 48.95 143.762 47.025C143.325 45.475 141.912 44.2 140.237 44.425C139.975 44.45 140.075 44.8125 140.312 44.775Z" fill="#161616"/>
<path d="M110.262 71.1251C110.375 70.3626 112.312 70.4376 112.825 70.3876C113.525 70.3251 114.15 70.1751 114.7 69.7126C114.887 69.5501 114.612 69.2876 114.437 69.4501C113.637 70.1251 112.537 69.9876 111.562 70.1126C111.05 70.1876 110 70.3751 109.912 71.0126C109.862 71.2626 110.225 71.3626 110.262 71.1251Z" fill="#161616"/>
<path d="M109.887 71.175C110.5 72.3875 111.825 73.05 113.15 72.7625C113.387 72.7125 113.287 72.35 113.05 72.4C111.875 72.6625 110.737 72.05 110.2 70.9875C110.1 70.775 109.775 70.9625 109.887 71.175Z" fill="#161616"/>
<path d="M110.062 71.525C109.812 72.175 110.1 72.9 110.65 73.3C111.275 73.7625 112.087 73.7125 112.812 73.5875C113.05 73.55 112.95 73.1875 112.712 73.225C112.15 73.325 111.512 73.375 110.987 73.075C110.475 72.7875 110.212 72.175 110.412 71.625C110.512 71.4 110.15 71.3 110.062 71.525Z" fill="#161616"/>
<path d="M110.087 72.5625C109.737 73.1375 109.887 73.9 110.375 74.3625C110.95 74.9125 111.825 74.85 112.487 74.525C112.7 74.425 112.512 74.1 112.3 74.2C111.787 74.4375 111.125 74.5125 110.662 74.1125C110.275 73.775 110.15 73.2 110.412 72.75C110.537 72.5375 110.212 72.35 110.087 72.5625Z" fill="#161616"/>
<path d="M110.25 75.4126C110 75.0126 110.337 74.5126 110.812 74.6876C111.037 74.7751 111.137 74.4126 110.912 74.3251C110.137 74.0376 109.525 74.9376 109.937 75.6001C110.05 75.8001 110.375 75.6126 110.25 75.4126Z" fill="#161616"/>
<path d="M110.662 69.4375C111.362 69.1875 112.1 69.525 112.4 70.2C112.5 70.425 112.825 70.225 112.725 70.0125C112.362 69.2 111.412 68.775 110.562 69.0875C110.337 69.1625 110.437 69.525 110.662 69.4375Z" fill="#161616"/>
<path d="M110.525 69.2126C110.025 69.5751 110.037 70.4376 110.6 70.7376C110.812 70.8501 111 70.5251 110.787 70.4126C110.487 70.2501 110.412 69.7376 110.712 69.5376C110.912 69.3876 110.725 69.0626 110.525 69.2126Z" fill="#161616"/>
<path d="M110.637 70.25C110.662 69.975 110.75 69.75 110.912 69.525C110.8 69.525 110.7 69.525 110.587 69.525C110.712 69.7375 110.712 69.9375 110.587 70.1375C110.7 70.15 110.812 70.1625 110.925 70.1875C110.9 70.1125 110.887 69.5375 111.037 69.6375C111.15 69.7125 110.9 70.1 110.85 70.1875C110.962 70.1875 111.062 70.1875 111.175 70.1875C111.125 70.1 111.087 70.0125 111.087 69.9125C111.137 69.6375 111.212 69.6125 111.3 69.85C111.362 69.9 111.425 69.9375 111.475 69.9875C111.437 69.85 111.475 69.775 111.587 69.8C111.7 69.75 111.725 69.7875 111.662 69.9C111.75 69.925 111.837 69.95 111.925 69.9625C111.962 70 111.987 70.0375 112.025 70.075C111.987 70.3125 112.35 70.4125 112.387 70.175C112.437 69.8625 112.15 69.4375 111.825 69.725C111.55 69.975 111.825 70.4375 112.175 70.25C112.512 70.0625 112.375 69.55 112.025 69.4625C111.625 69.375 111.425 69.85 111.6 70.15C111.65 70.2375 111.775 70.2625 111.862 70.2125C112.175 70.025 112.15 69.5 111.8 69.3625C111.35 69.175 111.062 69.7125 111.125 70.0875C111.137 70.175 111.225 70.225 111.3 70.225C111.825 70.25 111.95 69.475 111.462 69.3125C110.787 69.0875 110.6 69.9375 110.85 70.3875C110.925 70.525 111.1 70.5 111.175 70.3875C111.35 70.1375 111.712 69.2375 111.137 69.1875C110.6 69.15 110.45 69.925 110.562 70.3C110.612 70.45 110.825 70.4875 110.9 70.35C111.087 70.0375 111.087 69.675 110.9 69.35C110.825 69.225 110.65 69.2375 110.575 69.35C110.375 69.625 110.287 69.925 110.25 70.2625C110.237 70.5 110.612 70.4875 110.637 70.25Z" fill="#161616"/>
<path d="M110.325 70.6626C110.962 70.7751 112.512 70.9001 112.675 69.9751C112.712 69.7376 112.35 69.6376 112.312 69.8751C112.2 70.5126 110.862 70.3751 110.425 70.3001C110.187 70.2626 110.087 70.6251 110.325 70.6626Z" fill="#161616"/>
<path d="M111.837 70.4751C112.312 72.3876 112.262 74.3501 111.675 76.2251C111.6 76.4501 111.962 76.5501 112.037 76.3251C112.637 74.3876 112.7 72.3501 112.2 70.3751C112.137 70.1376 111.775 70.2376 111.837 70.4751Z" fill="#161616"/>
<path d="M111.762 70.5C111.85 71.45 111.9 72.3875 111.925 73.3375C111.95 74.25 112.012 75.1875 111.712 76.0625C111.637 76.2875 112 76.3875 112.075 76.1625C112.362 75.325 112.325 74.45 112.312 73.575C112.287 72.55 112.237 71.525 112.15 70.5C112.112 70.2625 111.737 70.2625 111.762 70.5Z" fill="#161616"/>
<path d="M112.25 70.4875C112.525 70.6875 112.475 71.675 112.487 71.9875C112.5 72.4125 112.5 72.825 112.475 73.25C112.425 74.15 112.287 75.05 112.062 75.925C112 76.1625 112.362 76.2625 112.425 76.025C112.7 74.925 112.85 73.8125 112.862 72.675C112.862 72.1 112.837 71.525 112.775 70.95C112.737 70.6125 112.712 70.3625 112.437 70.1625C112.237 70.025 112.05 70.35 112.25 70.4875Z" fill="#161616"/>
<path d="M112.162 70.3875C112.325 71.4 112.375 72.4125 112.3 73.425C112.287 73.6625 112.662 73.6625 112.675 73.425C112.75 72.375 112.7 71.325 112.525 70.2875C112.487 70.05 112.125 70.15 112.162 70.3875Z" fill="#161616"/>
<path d="M111.25 70.4626C111.662 71.8501 111.825 73.2876 111.712 74.7376C111.687 75.1126 111.3 76.8751 112.312 76.4001C112.687 76.2251 112.725 75.7876 112.762 75.4376C112.837 74.7251 112.85 74.0126 112.85 73.3001C112.85 72.1751 113 70.8126 112.35 69.8376C112.212 69.6376 111.887 69.8251 112.025 70.0251C112.562 70.8376 112.462 71.8876 112.475 72.8251C112.475 73.3376 112.475 73.8501 112.462 74.3626C112.45 74.6001 112.437 74.8376 112.425 75.0751C112.412 75.2001 112.337 76.2251 111.975 75.8001C111.975 75.8001 112.05 75.2501 112.062 75.1876C112.087 74.9626 112.112 74.7251 112.125 74.5001C112.15 74.0376 112.15 73.5751 112.125 73.1251C112.075 72.1876 111.9 71.2626 111.637 70.3626C111.55 70.1251 111.187 70.2251 111.25 70.4626Z" fill="#161616"/>
<path d="M111.712 70.4125C111.787 71.0125 111.85 71.6125 111.925 72.2C111.95 72.4375 112.325 72.4375 112.3 72.2C112.225 71.6 112.162 71 112.087 70.4125C112.05 70.175 111.675 70.175 111.712 70.4125Z" fill="#161616"/>
<path d="M111.337 70.0501C111.6 70.7251 111.812 71.4251 111.95 72.1376C112 72.3751 112.362 72.2751 112.312 72.0376C112.175 71.3251 111.975 70.6251 111.7 69.9501C111.612 69.7251 111.25 69.8251 111.337 70.0501Z" fill="#161616"/>
<path opacity="0.15" d="M142.975 45.9875C142.5 45.9875 142.375 48.5125 141.7 50.6625C141.113 52.525 140.113 54.0501 135.863 58.2001C129.963 63.9501 126.913 66.8625 121.888 69.3875C119.763 70.45 117.9 71.1375 116.6 71.575C116.188 71.9375 114.825 73.0375 112.838 73.0375C111.863 73.0375 111.075 72.7751 110.588 72.5501C110.5 72.6001 110.225 72.7625 110.1 73.1C109.963 73.4625 110.063 73.8875 110.338 74.2C110.238 74.2875 109.963 74.5876 109.975 74.9876C109.988 75.4501 110.35 75.7376 110.463 75.8376C110.888 76.1876 111.613 76.2 113.013 76.2C113.375 76.2 113.9 76.2 114.538 76.2C114.775 75.95 115.125 75.5626 115.513 75.0501C116.438 73.8001 116.538 73.1751 117.213 72.6126C117.988 71.9751 118.888 71.95 119.275 71.8875C122.613 71.3125 126.75 68.5626 129.063 67.0251C132.75 64.5751 134.85 62.2625 139.038 57.6625C139.038 57.6625 141.263 55.2126 142.988 51.4626C143.25 50.9001 143.813 49.5875 143.65 47.9375C143.563 47.15 143.3 46 142.975 45.9875Z" fill="#6D6C6C"/>
<path d="M137.713 33.375C137.813 36.4 137.7 38.1125 138.213 41C138.45 42.35 138.738 43.4375 138.95 44.1625C137.663 44.575 135.5 45.075 132.85 44.7875C131.113 44.6 129.7 44.1375 128.688 43.7125C129.15 42.8375 129.713 41.55 130.025 39.925C130.3 38.5125 130.3 37.2875 130.238 36.3625C128.938 35.8375 127.638 35.3 126.338 34.775C126.225 34.1125 126.125 33.45 126.013 32.8C125.65 32.6875 125.275 32.575 124.913 32.4625C125.4 31.725 126.163 30.5625 127.063 29.1125C128.75 26.375 128.85 25.95 129.525 25.4125C131.35 23.9375 134.7 23.5625 136.438 25.075C137.463 25.975 137.563 28.45 137.713 33.375Z" fill="white" stroke="#161616" stroke-miterlimit="10"/>
<path d="M124.888 32.675C125.575 32.875 126.275 33 126.988 33.075C127.225 33.1 127.225 32.725 126.988 32.7C126.313 32.625 125.638 32.5 124.988 32.3125C124.75 32.25 124.65 32.6125 124.888 32.675Z" fill="#161616"/>
<path d="M126.012 27.2625C126.475 27.15 126.975 27.4 127.15 27.85C127.237 28.075 127.6 27.975 127.512 27.75C127.262 27.1 126.6 26.7375 125.925 26.9C125.675 26.9625 125.775 27.325 126.012 27.2625Z" fill="#161616"/>
<path d="M128.825 28.4499C129.388 28.4249 129.9 28.7499 130.088 29.2749C130.163 29.4999 130.525 29.3999 130.45 29.1749C130.213 28.4874 129.563 28.0249 128.838 28.0624C128.588 28.0874 128.588 28.4624 128.825 28.4499Z" fill="#161616"/>
<path d="M128.95 30.0375C128.862 29.85 128.9 29.6875 128.925 29.4875C128.962 29.4375 128.962 29.4125 128.925 29.4375C128.887 29.45 128.887 29.475 128.925 29.5125C128.937 29.6 128.962 29.6875 128.975 29.775C128.975 29.8375 128.95 29.9625 128.962 30.0125C128.987 30.0375 129.012 30.0625 129.037 30.0875C129.037 30.05 129.05 30.0125 129.05 29.975C129.075 29.7875 129.1 29.6 129.125 29.4C129.15 29.2125 128.85 29.15 128.775 29.3C128.712 29.425 128.687 29.5375 128.687 29.675C128.7 29.9125 129.075 29.9125 129.062 29.675C129.062 29.6 129.062 29.5625 129.1 29.4875C128.987 29.45 128.862 29.425 128.75 29.3875C128.725 29.6125 128.662 29.85 128.662 30.075C128.662 30.2375 128.75 30.375 128.912 30.4C129.325 30.4625 129.362 29.9375 129.337 29.65C129.3 29.3875 129.1 28.825 128.737 29.125C128.425 29.375 128.5 29.9125 128.637 30.225C128.725 30.4375 129.05 30.25 128.95 30.0375Z" fill="#161616"/>
<path d="M128.825 26.025C129.075 25.4375 129.575 24.5125 130.513 23.65C130.838 23.35 131.538 22.7125 132.475 22.4C134.25 21.8125 136.563 22.5 137.938 24.1625C139.288 25.7875 139.55 28.1375 138.638 30.15C135.375 28.775 132.1 27.4 128.825 26.025Z" fill="#F66F5D"/>
<path d="M123.263 24.5125C128.325 26.55 133.388 28.575 138.438 30.6125C139.113 30.8875 139.4 29.8 138.738 29.525C133.675 27.4875 128.613 25.4625 123.563 23.425C122.9 23.1625 122.6 24.25 123.263 24.5125Z" fill="#161616"/>
<path d="M135.288 29.125C134.275 29.225 133.575 29.7125 132.75 30.3C131.013 31.55 131.25 32.2375 130.063 32.9875C128.175 34.1875 126.925 32.8625 125.213 34.0625C123.75 35.0875 123.438 36.8875 123.375 37.3125C123.313 37.7125 123.1 39.35 124.113 40.775C124.988 42.0125 126.45 42.625 126.6 42.4375C126.65 42.375 126.575 42.15 125.888 41.375C126.088 41.6125 126.413 41.925 126.888 42.1375C127.438 42.3875 128 42.4375 128.025 42.35C128.05 42.2875 127.738 42.2125 127.563 41.9C127.463 41.7125 127.45 41.525 127.45 41.375C127.825 41.7875 128.338 42.2 128.925 42.1875C130.538 42.125 131.675 38.8875 132.05 37.8125C133.263 34.3375 132.75 32.125 134.325 31.2C134.463 31.125 135.088 30.75 135.613 31C136.288 31.3125 136.525 32.525 136.113 33.1875C135.75 33.75 135.013 33.7375 135.025 33.8625C135.05 34.025 136.3 34.1125 137.488 33.5875C137.925 33.4 138.275 33.2375 138.55 32.8625C139.013 32.2 138.913 31.2625 138.638 30.6625C138.038 29.375 136.388 29.0125 135.288 29.125Z" fill="#161616" stroke="#161616" stroke-miterlimit="10"/>
<path opacity="0.22" d="M135.463 34.0625C135.238 34.025 134.913 33.95 134.913 33.875C134.913 33.8375 135 33.8 135 33.8C135 33.7875 134.65 34.0625 134.3 34.025C134.138 34 134.013 33.9125 133.938 33.8375C134.213 35.2 134.45 36.85 134.463 38.75C134.488 41.1625 134.175 43.225 133.825 44.8125C134.575 44.9 135.65 44.925 136.888 44.6625C137.663 44.5 138.325 44.25 138.838 44.0125C138.088 41.7125 137.863 39.9625 137.8 38.8C137.763 38.25 137.725 36.9625 137.7 36.3375C137.663 35.1875 137.625 34.2375 137.613 33.6C137.5 33.65 137.325 33.7375 137.1 33.825C136.8 33.95 136.175 34.175 135.463 34.0625Z" fill="#6D6C6C"/>
<path d="M134.538 22.2875C135.825 22.9125 136.563 24.2625 136.388 25.5875C136.175 27.1625 134.775 27.9 134.638 27.975C136.038 28.5375 137.438 29.0875 138.838 29.65C138.95 29.325 139.075 28.875 139.138 28.3125C139.313 26.5375 138.588 25.2125 138.425 24.95C138.175 24.525 137.288 23.0875 135.538 22.5125C135.15 22.3625 134.8 22.3125 134.538 22.2875Z" fill="#FF553E"/>
</svg>
