<svg width="200" height="159" viewBox="0 0 200 159" fill="none" xmlns="http://www.w3.org/2000/svg">
<path fill-rule="evenodd" clip-rule="evenodd" d="M117.306 0.1265C141.713 1.89199 156.533 25.5221 169.824 46.068C181.03 63.3882 187.68 82.8733 183.965 103.165C180.022 124.705 169.901 146.738 149.803 155.431C130.342 163.849 109.914 152.143 90.5121 143.588C69.7726 134.443 45.212 127.526 37.8785 106.079C29.9003 82.7464 39.5186 57.4425 54.3095 37.7122C69.7406 17.1278 91.6468 -1.72957 117.306 0.1265Z" fill="#E8ECFB"/>
<path d="M43.3373 129.787C47.7748 129.787 52.2123 129.787 56.6498 129.787C56.8873 129.787 56.8873 129.412 56.6498 129.412C52.2123 129.412 47.7748 129.412 43.3373 129.412C43.0998 129.412 43.0998 129.787 43.3373 129.787Z" fill="white"/>
<path d="M57.4496 133.412C66.8621 133.412 76.2621 133.412 85.6746 133.412C85.9121 133.412 85.9121 133.037 85.6746 133.037C76.2621 133.037 66.8621 133.037 57.4496 133.037C57.2121 133.037 57.2121 133.412 57.4496 133.412Z" fill="white"/>
<path d="M93.3373 129.987C102.525 129.987 111.7 129.987 120.887 129.987C130.025 129.987 139.175 129.987 148.312 129.987C153.512 129.987 158.7 129.987 163.9 129.987C164.137 129.987 164.137 129.612 163.9 129.612C154.712 129.612 145.537 129.612 136.35 129.612C127.212 129.612 118.062 129.612 108.925 129.612C103.725 129.612 98.5373 129.612 93.3373 129.612C93.0998 129.612 93.0998 129.987 93.3373 129.987Z" fill="white"/>
<path d="M134.062 127.362C144.737 127.362 155.412 127.362 166.087 127.362C169.125 127.362 172.15 127.362 175.187 127.362C175.425 127.362 175.425 126.987 175.187 126.987C164.512 126.987 153.837 126.987 143.162 126.987C140.125 126.987 137.1 126.987 134.062 126.987C133.825 126.987 133.825 127.362 134.062 127.362Z" fill="white"/>
<path d="M155.237 134.012C164.687 134.012 174.15 134.012 183.6 134.012C186.312 134.012 189.012 134.012 191.725 134.012C191.962 134.012 191.962 133.637 191.725 133.637C182.275 133.637 172.812 133.637 163.362 133.637C160.65 133.637 157.95 133.637 155.237 133.637C154.987 133.637 154.987 134.012 155.237 134.012Z" fill="white"/>
<path d="M157.375 13.7625C159.912 15 160.712 17.925 161 20.5125C161.387 23.9875 161.3 27.575 161.275 31.0625C161.225 38.6875 160.775 46.3125 160.362 53.925C159.55 69.1375 158.725 84.35 157.912 99.5625C157.45 108.125 156.987 116.688 156.537 125.25C156.525 125.488 156.9 125.488 156.912 125.25C157.75 109.7 158.587 94.15 159.412 78.6125C159.825 70.875 160.237 63.15 160.662 55.4125C161.075 47.7125 161.55 40.0125 161.65 32.3C161.675 30.15 161.675 28 161.625 25.8375C161.587 24 161.575 22.15 161.362 20.325C161.037 17.6625 160.175 14.6875 157.575 13.425C157.35 13.3375 157.162 13.6625 157.375 13.7625Z" fill="white"/>
<path d="M150.812 11.2875C153.662 11.7625 156.337 12.8625 158.7 14.5125C158.9 14.65 159.087 14.325 158.887 14.1875C156.5 12.525 153.775 11.4125 150.912 10.925C150.675 10.875 150.575 11.2375 150.812 11.2875Z" fill="white"/>
<path d="M139.75 7.63755C143.637 8.03755 147.825 8.55005 150.812 11.3375C150.987 11.5 151.25 11.2375 151.075 11.075C148.012 8.21255 143.75 7.67505 139.75 7.26255C139.5 7.23755 139.512 7.61255 139.75 7.63755Z" fill="white"/>
<path d="M150.725 11.35C150.187 15.35 147.975 19.0375 144.687 21.375C144.487 21.5125 144.675 21.8375 144.875 21.7C148.287 19.2625 150.55 15.5 151.1 11.35C151.137 11.1125 150.762 11.1125 150.725 11.35Z" fill="white"/>
<path d="M139.512 7.42503C142.787 11.4 144.55 16.4875 144.45 21.6375C144.45 21.875 144.825 21.875 144.825 21.6375C144.912 16.3875 143.112 11.2125 139.775 7.16253C139.625 6.97503 139.362 7.23753 139.512 7.42503Z" fill="white"/>
<path d="M141.475 11.7875C139.975 11.6875 138.587 13.575 139.312 14.975C139.85 16.0125 141.887 16.5625 142.6 15.4375C142.725 15.2375 142.4 15.05 142.275 15.25C141.712 16.15 139.962 15.5375 139.625 14.725C139.125 13.55 140.275 12.075 141.487 12.1625C141.712 12.175 141.712 11.8 141.475 11.7875Z" fill="white"/>
<path d="M139.412 7.35C139.55 9.1 139.825 10.8375 140.25 12.5375C140.312 12.775 140.675 12.675 140.612 12.4375C140.2 10.7625 139.925 9.0625 139.787 7.35C139.762 7.1125 139.387 7.1125 139.412 7.35Z" fill="white"/>
<path d="M141.75 16.1125C142.575 17.9875 143.4 19.8625 144.212 21.7375C144.312 21.9625 144.637 21.7625 144.537 21.55C143.712 19.675 142.887 17.8 142.075 15.925C141.987 15.7125 141.662 15.9 141.75 16.1125Z" fill="white"/>
<path d="M141.85 15.95C142.337 17.35 142.837 18.75 143.6 20.0375C143.725 20.25 144.037 20.0625 143.925 19.85C143.25 18.5875 142.762 17.2625 142.45 15.875C142.35 15.9375 142.237 16 142.137 16.0625C142.15 16.075 142.15 16.075 142.162 16.0875C142.15 16.0125 142.137 15.9375 142.137 15.8625C142.125 15.875 142.125 15.8875 142.112 15.9C142.212 15.8875 142.312 15.875 142.412 15.8625C142.4 15.8375 143.512 14.825 143.587 14.7625C143.487 14.7375 143.375 14.7125 143.275 14.675C143.537 15.8125 143.712 16.9625 143.825 18.125C143.95 18.1125 144.075 18.0875 144.187 18.075C143.975 17.2625 143.7 16.4625 143.375 15.6875C143.287 15.475 142.962 15.55 143.012 15.7875C143.225 16.8 143.425 17.8125 143.637 18.8375C143.762 18.8 143.875 18.775 144 18.7375C143.725 17.8875 143.425 17.0625 143.087 16.2375C143 16.0125 142.662 16.1 142.725 16.3375C142.975 17.275 143.225 18.225 143.475 19.1625C143.587 19.1125 143.7 19.0625 143.812 19.0125C143.462 18.2 143.125 17.3875 142.775 16.5625C142.687 16.375 142.362 16.5125 142.437 16.7125C142.937 18.0625 143.437 19.4125 143.912 20.775C143.987 21 144.337 20.9125 144.275 20.675C144.087 20.0125 143.95 19.3375 143.887 18.65C143.762 18.6625 143.637 18.6875 143.525 18.7C143.75 19.475 143.975 20.25 144.2 21.025C144.262 21.2625 144.612 21.1625 144.562 20.925C144.362 20.05 144.225 19.1625 144.137 18.2625C144.012 18.275 143.887 18.3 143.775 18.3125C143.937 19.225 144.087 20.1375 144.312 21.0375C144.362 21.2375 144.7 21.2 144.675 20.9875C144.575 19.8625 144.387 18.75 144.112 17.65C144.05 17.4125 143.7 17.5125 143.75 17.75C143.837 18.1375 143.837 18.5125 143.787 18.9125C143.9 18.875 144.025 18.85 144.137 18.8125C143.825 18.275 143.625 17.725 143.55 17.1125C143.525 16.925 143.312 16.85 143.2 17.0125C143.112 17.1375 143.037 17.2625 142.95 17.3875C143.062 17.3875 143.162 17.3875 143.275 17.3875C143.112 17.0125 143.05 16.6625 143.062 16.25C142.937 16.25 142.812 16.25 142.687 16.25C142.662 16.3375 142.637 16.425 142.612 16.5125C142.712 16.5375 142.825 16.5625 142.925 16.6C142.862 16.275 142.862 16.025 142.887 15.7125C142.762 15.725 142.637 15.75 142.525 15.7625C142.5 15.9 142.487 16.0375 142.462 16.175C142.575 16.175 142.675 16.175 142.787 16.175C142.837 16 142.9 15.825 142.95 15.65C142.862 15.6125 142.762 15.575 142.675 15.5375C142.612 15.7375 142.55 15.9375 142.487 16.1375C142.587 16.2 142.7 16.2625 142.8 16.325C142.887 15.925 143.062 15.6375 143.362 15.35C143.262 15.325 143.15 15.3 143.05 15.2625C143.1 15.6 143.062 15.875 142.95 16.2C143.075 16.2125 143.2 16.2375 143.312 16.25C143.312 15.975 143.35 15.7375 143.45 15.475C143.325 15.4625 143.2 15.4375 143.087 15.425C143.087 15.65 143.1 15.875 143.1 16.1C143.1 16.3 143.437 16.3625 143.462 16.15C143.5 15.925 143.537 15.7 143.575 15.475C143.45 15.475 143.337 15.475 143.212 15.475C143.212 15.6 143.2 15.725 143.2 15.8625C143.1 16.0875 143.425 16.275 143.525 16.05C143.637 15.8 143.662 15.65 143.575 15.375C143.525 15.2125 143.25 15.1875 143.212 15.375C143.175 15.6 143.137 15.825 143.1 16.05C143.225 16.0625 143.35 16.0875 143.462 16.1C143.462 15.875 143.45 15.65 143.45 15.425C143.45 15.2125 143.15 15.175 143.087 15.375C142.975 15.675 142.937 15.9375 142.937 16.25C142.937 16.4625 143.237 16.5 143.3 16.3C143.437 15.9125 143.462 15.575 143.4 15.1625C143.375 15.0125 143.175 15 143.087 15.075C142.75 15.3875 142.537 15.7625 142.425 16.2125C142.387 16.3875 142.6 16.5375 142.737 16.4C143 16.1125 143.087 15.825 143.012 15.4375C142.987 15.325 142.825 15.2625 142.737 15.325C142.362 15.575 142.262 15.95 142.437 16.3625C142.5 16.5 142.687 16.4625 142.762 16.3625C142.925 16.125 142.95 15.925 142.862 15.6625C142.787 15.45 142.512 15.5 142.5 15.7125C142.462 16.05 142.487 16.3625 142.55 16.7C142.575 16.8375 142.775 16.875 142.862 16.7875C143.012 16.625 143.075 16.5 143.05 16.2625C143.025 16.025 142.675 16.0125 142.675 16.2625C142.662 16.7375 142.75 17.15 142.937 17.5875C143 17.725 143.187 17.6875 143.262 17.5875C143.35 17.4625 143.425 17.3375 143.512 17.2125C143.4 17.175 143.275 17.15 143.162 17.1125C143.25 17.8 143.45 18.4125 143.8 19C143.9 19.175 144.125 19.075 144.15 18.9C144.212 18.4625 144.187 18.075 144.1 17.6375C143.975 17.675 143.862 17.7 143.737 17.7375C144.012 18.8 144.187 19.8875 144.287 20.975C144.412 20.9625 144.537 20.9375 144.65 20.925C144.437 20.025 144.275 19.1125 144.112 18.2C144.075 17.9875 143.725 18.0375 143.75 18.25C143.837 19.1875 143.975 20.1 144.187 21.0125C144.312 20.975 144.425 20.95 144.55 20.9125C144.325 20.1375 144.1 19.3625 143.875 18.5875C143.812 18.3875 143.487 18.425 143.512 18.6375C143.587 19.3625 143.712 20.0625 143.912 20.7625C144.037 20.725 144.15 20.7 144.275 20.6625C143.787 19.3 143.3 17.95 142.8 16.6C142.687 16.65 142.575 16.7 142.462 16.75C142.812 17.5625 143.15 18.375 143.5 19.2C143.587 19.4 143.9 19.25 143.837 19.05C143.587 18.1125 143.337 17.1625 143.087 16.225C142.962 16.2625 142.85 16.2875 142.725 16.325C143.05 17.15 143.35 17.9875 143.637 18.825C143.712 19.05 144.05 18.9625 144 18.725C143.787 17.7125 143.587 16.7 143.375 15.675C143.25 15.7125 143.137 15.7375 143.012 15.775C143.337 16.55 143.612 17.35 143.825 18.1625C143.875 18.3625 144.212 18.325 144.187 18.1125C144.075 16.9125 143.887 15.7375 143.625 14.5625C143.587 14.425 143.412 14.3875 143.312 14.475C142.962 14.8 142.35 15.1875 142.112 15.6125C142 15.825 142 15.9375 142.137 16.1C142.225 16.2 142.362 16.15 142.437 16.0625C142.45 16.05 142.45 16.0375 142.462 16.025C142.512 15.9625 142.487 15.85 142.437 15.8C142.425 15.7875 142.425 15.7875 142.412 15.775C142.275 15.6375 142.062 15.775 142.1 15.9625C142.412 17.3875 142.912 18.75 143.612 20.025C143.725 19.9625 143.825 19.9 143.937 19.8375C143.2 18.575 142.7 17.2125 142.225 15.8375C142.125 15.625 141.762 15.725 141.85 15.95Z" fill="white"/>
<path d="M139.612 7.88753C139.975 9.22503 140.237 10.575 140.412 11.9375C140.425 12.075 140.562 12.175 140.7 12.1C141.112 11.875 141.525 11.7125 141.987 11.6C142.1 11.575 142.162 11.425 142.1 11.325C141.525 10.4625 140.987 9.57503 140.487 8.67503C140.375 8.46253 140.062 8.65003 140.162 8.86253C140.5 9.60003 140.762 10.3625 140.975 11.1375C141.087 11.0875 141.2 11.0375 141.312 10.9875C141.025 10.4375 140.825 9.87503 140.7 9.26253C140.587 9.31253 140.475 9.36253 140.362 9.41253C140.825 10.0875 141.075 10.825 141.112 11.6375C141.225 11.5875 141.325 11.55 141.437 11.5C141.15 11.2375 140.987 10.95 140.9 10.5625C140.812 10.6375 140.712 10.7 140.625 10.775C140.887 10.975 140.975 11.2 140.912 11.4625C141.025 11.425 141.15 11.4 141.262 11.3625C140.95 10.95 140.7 10.5125 140.475 10.05C140.387 10.1375 140.3 10.225 140.212 10.3125C140.562 10.5375 141.025 12.775 141.912 11.7625C142.237 11.3875 142.05 10.9125 141.837 10.525C141.487 9.87503 141.05 9.27503 140.6 8.70003C140.462 8.52503 140.2 8.75003 140.3 8.92503C140.787 9.76253 141.15 10.6375 141.387 11.575C141.5 11.525 141.612 11.475 141.725 11.425C141.675 11.3125 141.625 11.2125 141.575 11.1C141.487 11.1875 141.4 11.275 141.312 11.3625C141.312 11.35 141.312 11.35 141.312 11.3375C141.237 11.4 141.15 11.4625 141.075 11.5125C141.237 11.575 141.412 11.6375 141.575 11.7C141.8 11.7875 141.9 11.425 141.675 11.3375C141.512 11.275 141.337 11.2125 141.175 11.15C141.062 11.1 140.937 11.225 140.937 11.325C140.925 12.3125 142.325 11.525 141.5 11.025C141.325 10.925 141.162 11.125 141.237 11.2875C141.287 11.4 141.337 11.5 141.387 11.6125C141.475 11.8125 141.775 11.6625 141.725 11.4625C141.475 10.4875 141.112 9.58753 140.6 8.72503C140.5 8.80003 140.4 8.87503 140.3 8.95003C140.575 9.31253 140.837 9.67503 141.087 10.05C141.187 10.2 141.287 10.35 141.375 10.5125C141.45 10.625 141.512 10.75 141.562 10.875C141.762 11.1375 141.612 11.2875 141.1 11.3125C140.925 11.175 140.9 10.7125 140.825 10.5125C140.725 10.2625 140.6 10.1 140.375 9.96253C140.2 9.86253 140.05 10.0625 140.112 10.225C140.337 10.7 140.587 11.125 140.9 11.5375C141.012 11.6875 141.225 11.6375 141.25 11.4375C141.3 11 141.137 10.675 140.775 10.425C140.637 10.325 140.462 10.4875 140.5 10.6375C140.6 11.075 140.812 11.4375 141.137 11.7375C141.25 11.8375 141.462 11.775 141.462 11.6C141.425 10.7125 141.15 9.91253 140.662 9.18753C140.537 9.01253 140.275 9.12503 140.325 9.33753C140.462 9.97503 140.675 10.575 140.975 11.15C141.075 11.3375 141.375 11.2125 141.312 11C141.1 10.1875 140.812 9.40003 140.462 8.63753C140.35 8.70003 140.25 8.76253 140.137 8.82503C140.637 9.73753 141.175 10.6125 141.75 11.475C141.787 11.3875 141.825 11.2875 141.862 11.2C141.375 11.3125 140.925 11.4875 140.487 11.7375C140.587 11.7875 140.675 11.85 140.775 11.9C140.6 10.5 140.337 9.11253 139.962 7.75003C139.912 7.55003 139.55 7.65003 139.612 7.88753Z" fill="white"/>
<path d="M139.625 14.2625C139.338 13.55 140.025 12.8875 140.575 12.5625C141.113 12.2375 141.713 12.125 142.338 12.1625C142.513 12.175 142.563 11.9625 142.475 11.8375C142.363 11.7 142.263 11.5625 142.15 11.425C142.05 11.3 141.813 11.4 141.825 11.5625C141.788 11.3125 141.438 11.4625 141.275 11.4625C140.675 11.45 140.913 11.3375 140.888 11C140.838 10.5875 140.6 10.1625 140.5 9.76251C140.35 9.17501 140.275 8.58751 140.225 7.98751C140.213 7.75001 139.838 7.75001 139.85 7.98751C139.9 8.70001 140 9.40001 140.188 10.0875C140.275 10.3875 140.488 10.7625 140.45 11.075C140.438 11.2125 140.338 11.3125 140.338 11.45C140.35 11.7375 140.638 11.9125 140.9 11.9125C141.188 11.9125 141.475 11.85 141.775 11.8625C141.938 11.875 141.963 11.9125 142.113 11.8125C142.163 11.775 142.213 11.7125 142.2 11.65C142.2 11.625 142.188 11.5875 142.188 11.5625C142.075 11.6125 141.975 11.65 141.863 11.7C141.975 11.8375 142.075 11.975 142.188 12.1125C142.238 12 142.275 11.9 142.325 11.7875C141.1 11.7125 138.588 12.725 139.25 14.3625C139.35 14.5875 139.713 14.4875 139.625 14.2625Z" fill="white"/>
<path d="M140.337 12.1625C139.787 12.6125 139.362 13.25 139.275 13.975C139.2 14.6125 139.587 15.175 140.062 15.575C141.337 16.6625 142.7 15.45 143.5 14.425C143.65 14.2375 143.387 13.975 143.237 14.1625C142.587 15 141.45 16.225 140.337 15.3125C139.85 14.9125 139.55 14.3625 139.712 13.725C139.85 13.2 140.187 12.7625 140.612 12.425C140.8 12.275 140.525 12.0125 140.337 12.1625Z" fill="white"/>
<path d="M144.075 16.7875C144.075 16.775 144.075 16.7625 144.062 16.75C144.037 16.825 144 16.8875 143.975 16.9625C143.987 16.95 144 16.95 144.012 16.9375C143.925 16.9125 143.837 16.8875 143.75 16.875C143.925 17.15 143.925 17.65 143.975 17.9625C144.037 18.375 144.1 18.8 144.15 19.2125C144.225 19.925 144.262 20.6375 144.287 21.3625C144.287 21.6 144.662 21.6 144.662 21.3625C144.637 20.4875 144.587 19.6125 144.475 18.7375C144.437 18.4 144.387 18.075 144.325 17.7375C144.275 17.4 144.262 16.9625 144.075 16.675C144.025 16.5875 143.912 16.5625 143.812 16.6125C143.8 16.625 143.787 16.625 143.775 16.6375C143.7 16.675 143.662 16.775 143.687 16.85C143.687 16.8625 143.687 16.875 143.7 16.8875C143.775 17.125 144.137 17.025 144.075 16.7875Z" fill="white"/>
<path d="M139.737 7.96255C140.175 8.51255 140.5 9.12505 140.712 9.80005C140.787 10.025 141.15 9.92505 141.075 9.70005C140.837 8.96255 140.487 8.30005 140 7.70005C139.862 7.50005 139.587 7.77505 139.737 7.96255Z" fill="white"/>
<path d="M129.65 9.88755C131.362 10.375 133.087 10.8 134.837 11.15C135.075 11.2 135.175 10.8375 134.937 10.7875C133.187 10.4375 131.462 10.0125 129.75 9.52505C129.525 9.45005 129.425 9.81255 129.65 9.88755Z" fill="white"/>
<path d="M125.275 15.725C128.55 15.4625 131.787 14.85 134.95 13.9C135.175 13.825 135.087 13.4625 134.85 13.5375C131.725 14.475 128.525 15.0875 125.275 15.3375C125.037 15.3625 125.037 15.7375 125.275 15.725Z" fill="white"/>
<path d="M137.175 15.9125C136.425 16.375 135.725 16.9 135.062 17.475C134.875 17.6375 135.15 17.9 135.325 17.7375C135.962 17.1875 136.65 16.6875 137.362 16.2375C137.575 16.1125 137.387 15.7875 137.175 15.9125Z" fill="white"/>
<path d="M137.412 19.925C134.737 22.2375 132.05 24.55 129.375 26.8625C129.187 27.025 129.462 27.2875 129.637 27.125C132.312 24.8125 135 22.5 137.675 20.1875C137.862 20.0375 137.6 19.7625 137.412 19.925Z" fill="white"/>
<path d="M138.425 22.775C137.612 24.325 136.787 25.8875 135.975 27.4375C135.862 27.65 136.187 27.8375 136.3 27.625C137.112 26.075 137.937 24.5125 138.75 22.9625C138.862 22.75 138.537 22.5625 138.425 22.775Z" fill="white"/>
<path d="M140.625 23.65C140.212 26.0875 139.962 28.55 139.862 31.025C139.85 31.2625 140.225 31.2625 140.237 31.025C140.337 28.5875 140.587 26.15 140.987 23.75C141.025 23.5125 140.662 23.4125 140.625 23.65Z" fill="white"/>
<path d="M151.825 11.6625C155.025 11.2375 157.912 13.325 159.487 15.975C161.35 19.1 161.412 22.9625 161.325 26.5C161.137 34.5125 160.8 42.5125 160.475 50.5125C159.825 66.625 159.012 82.7375 158.062 98.85C157.525 107.9 156.937 116.938 156.3 125.988C156.262 126.475 157.012 126.463 157.05 125.988C158.212 109.475 159.212 92.9625 160.05 76.4375C160.887 59.95 161.625 43.45 162.075 26.95C162.175 23.0875 162.15 18.85 160.05 15.45C158.337 12.675 155.225 10.475 151.837 10.925C151.35 10.975 151.35 11.725 151.825 11.6625Z" fill="white"/>
<path d="M151.15 11.5C152.05 11.525 152.95 11.5375 153.825 11.7375C154.737 11.95 155.437 12.4625 156.25 12.875C156.462 12.9875 156.65 12.6625 156.437 12.55C155.587 12.125 154.862 11.6 153.925 11.375C153.012 11.1625 152.075 11.1375 151.15 11.1125C150.912 11.1125 150.912 11.4875 151.15 11.5Z" fill="white"/>
<path d="M151.15 11.75C153.825 12.0125 156.362 12.9875 158.537 14.575C158.737 14.7125 158.925 14.3875 158.725 14.25C156.487 12.6375 153.887 11.65 151.15 11.375C150.912 11.35 150.912 11.725 151.15 11.75Z" fill="white"/>
<path d="M150.612 10.875C151.787 11.1 152.937 11.4 154.062 11.75C154.287 11.825 154.387 11.4625 154.162 11.3875C153.025 11.025 151.875 10.7375 150.712 10.5125C150.475 10.4625 150.375 10.825 150.612 10.875Z" fill="white"/>
<path d="M150.887 10.8375C152.35 11 153.775 11.3125 155.162 11.7625C155.387 11.8375 155.487 11.475 155.262 11.4C153.837 10.9375 152.375 10.625 150.887 10.4625C150.65 10.4375 150.65 10.8125 150.887 10.8375Z" fill="white"/>
<path d="M146.287 8.67502C148.212 9.35002 150.05 10.2 151.8 11.225C152.012 11.35 152.2 11.025 151.987 10.9C150.2 9.85002 148.325 8.98752 146.375 8.31252C146.162 8.23752 146.062 8.60002 146.287 8.67502Z" fill="white"/>
<path d="M145.762 8.55002C147.725 9.27502 149.612 10.15 151.425 11.1875C151.637 11.3125 151.825 10.9875 151.612 10.8625C149.762 9.81252 147.85 8.92502 145.85 8.18752C145.637 8.11252 145.537 8.47502 145.762 8.55002Z" fill="white"/>
<path d="M148.662 17.8625C149.8 15.8625 150.787 13.7875 151.625 11.6375C151.712 11.4125 151.35 11.3125 151.262 11.5375C150.437 13.65 149.462 15.7 148.337 17.675C148.225 17.875 148.55 18.0625 148.662 17.8625Z" fill="white"/>
<path d="M151.112 11.4875C150.887 11.8625 150.725 12.25 150.612 12.675C150.55 12.9125 150.912 13.0125 150.975 12.775C151.075 12.3875 151.225 12.025 151.437 11.675C151.562 11.4625 151.237 11.275 151.112 11.4875Z" fill="white"/>
<path d="M54.0625 75.7875C54.0625 76.3875 54.0625 76.9875 54.0625 77.5875C54.0625 77.825 54.4375 77.825 54.4375 77.5875C54.4375 76.9875 54.4375 76.3875 54.4375 75.7875C54.4375 75.55 54.0625 75.55 54.0625 75.7875Z" fill="#F66F5D"/>
<path d="M54.2499 77.85C63.0124 77.85 71.7749 77.85 80.5374 77.85C80.7749 77.85 80.7749 77.475 80.5374 77.475C71.7749 77.475 63.0124 77.475 54.2499 77.475C54.0124 77.475 54.0124 77.85 54.2499 77.85Z" fill="#F66F5D"/>
<path d="M54.4496 75.9125C63.0996 75.9125 71.7621 75.9125 80.4121 75.9125C80.6496 75.9125 80.6496 75.5375 80.4121 75.5375C71.7621 75.5375 63.0996 75.5375 54.4496 75.5375C54.2121 75.5375 54.2121 75.9125 54.4496 75.9125Z" fill="#F66F5D"/>
<path d="M80.2121 75.8625C80.2371 76.4625 80.2246 77.0625 80.1496 77.6625C80.1246 77.9 80.4996 77.9 80.5246 77.6625C80.5996 77.0625 80.6246 76.4625 80.5871 75.8625C80.5746 75.6125 80.1996 75.6125 80.2121 75.8625Z" fill="#F66F5D"/>
<path d="M69.1375 67.4376C68.425 70.1376 68.825 72.9251 69.475 75.5876C69.5375 75.8251 69.8875 75.7251 69.8375 75.4876C69.2 72.8751 68.8 70.1751 69.5 67.5376C69.5625 67.3001 69.2 67.2001 69.1375 67.4376Z" fill="#F66F5D"/>
<path d="M75.0999 67.9375C75.1874 68.5 75.2749 69.05 75.3624 69.6125C75.3999 69.85 75.7624 69.75 75.7249 69.5125C75.6374 68.95 75.5499 68.4 75.4624 67.8375C75.4249 67.6 75.0624 67.7 75.0999 67.9375Z" fill="#F66F5D"/>
<path d="M75.5748 69.675C76.5873 68.9125 77.1623 70.4 77.1748 71.175C77.1873 72.15 76.7248 73.025 75.6623 73.1C75.4248 73.1125 75.4248 73.4875 75.6623 73.475C77.1123 73.3875 77.6623 72.1125 77.5248 70.8125C77.4248 69.8125 76.4623 68.55 75.3873 69.3625C75.1873 69.5 75.3748 69.825 75.5748 69.675Z" fill="#F66F5D"/>
<path d="M75.4997 73.225C75.4247 73.975 75.2872 74.7 75.1122 75.4375C75.0497 75.675 75.4122 75.775 75.4747 75.5375C75.6622 74.775 75.7997 74.0125 75.8872 73.225C75.8997 72.975 75.5247 72.9875 75.4997 73.225Z" fill="#F66F5D"/>
<path d="M75.8373 70.2625C76.2373 69.9375 76.3998 70.9625 76.4123 71.1C76.4248 71.2625 76.3998 71.4375 76.3623 71.6C76.2623 71.9875 76.0498 72.3 75.7498 72.55C75.5623 72.7 75.8248 72.9625 76.0123 72.8125C76.5873 72.3375 76.8873 71.575 76.7623 70.8375C76.6748 70.2875 76.1873 69.4875 75.5748 70C75.3873 70.15 75.6498 70.4125 75.8373 70.2625Z" fill="#F66F5D"/>
<path d="M75.525 69.95C75.475 70.825 75.4875 71.7 75.55 72.5875C75.5625 72.825 75.9375 72.825 75.925 72.5875C75.8625 71.7125 75.85 70.8375 75.9 69.95C75.9125 69.7 75.5375 69.7 75.525 69.95Z" fill="#F66F5D"/>
<path d="M69.7621 67.8625C71.2746 68.35 72.8496 68.475 74.4246 68.2375C74.6621 68.2 74.5621 67.8375 74.3246 67.875C72.8121 68.1 71.3121 67.975 69.8621 67.5C69.6371 67.425 69.5371 67.7875 69.7621 67.8625Z" fill="#F66F5D"/>
<path d="M70.6247 66.9125C69.8872 66.45 70.7497 65.4375 70.8747 64.85C70.9997 64.2625 70.6622 63.975 70.4372 63.475C70.1122 62.75 70.8622 62.2125 70.9747 61.5125C71.0747 60.9 70.5747 60.3875 71.2497 59.8875C71.4372 59.75 71.2622 59.425 71.0622 59.5625C70.6497 59.8625 70.3997 60.325 70.4872 60.85C70.5497 61.2375 70.6497 61.4375 70.4622 61.8375C70.3747 62.0375 70.2497 62.2125 70.1497 62.4125C70.0247 62.6875 69.9122 62.975 69.9497 63.2875C69.9747 63.6 70.1372 63.7375 70.2872 63.9875C70.7247 64.725 70.3247 65.1 70.0747 65.8C69.8872 66.325 69.9372 66.9 70.4372 67.2125C70.6372 67.3625 70.8247 67.0375 70.6247 66.9125Z" fill="#F66F5D"/>
<path d="M72.8497 57.95C72.6622 58.4375 72.4247 58.9875 72.3872 59.5125C72.3497 59.9875 72.6997 60.25 72.8122 60.675C72.9497 61.1875 72.4622 61.6125 72.4122 62.1125C72.3497 62.7625 72.9247 63.1875 72.3622 63.8125C72.1997 63.9875 72.4622 64.2625 72.6247 64.075C72.9122 63.7625 73.0622 63.3875 73.0122 62.9625C72.9747 62.65 72.7497 62.3875 72.7997 62.05C72.8372 61.7875 73.0372 61.55 73.1247 61.3C73.2747 60.9 73.2122 60.5875 73.0122 60.225C72.6122 59.475 72.9372 58.7875 73.2122 58.05C73.2997 57.825 72.9372 57.725 72.8497 57.95Z" fill="#F66F5D"/>
<path d="M74.7 61.675C74.1125 62.2875 73.8375 63.125 74 63.975C74.05 64.25 74.1875 64.525 74.2 64.8125C74.225 65.175 74 65.35 73.9 65.6625C73.7625 66.0625 74.25 66.6375 73.95 66.95C73.7875 67.125 74.05 67.3875 74.2125 67.2125C74.4 67.0125 74.45 66.7875 74.4 66.5125C74.35 66.2125 74.175 66 74.3 65.6875C74.375 65.5 74.525 65.4 74.575 65.1875C74.675 64.7125 74.425 64.2625 74.35 63.8C74.2375 63.1125 74.4875 62.4375 74.9625 61.9375C75.1375 61.7625 74.8625 61.5 74.7 61.675Z" fill="#F66F5D"/>
<path d="M56.3247 75.5375C56.2872 75.05 56.2747 74.575 56.2872 74.0875C56.2247 74.15 56.1622 74.2125 56.0997 74.275C58.1122 74.075 60.1372 73.975 62.1622 73.95C63.1372 73.9375 64.1122 73.95 65.0747 73.9875C65.3122 74 65.5622 74 65.7997 74.0125C65.9622 74.025 66.3747 73.9625 66.5247 74.05C66.8872 74.2625 66.7372 75.4125 66.7497 75.775C66.7622 76.0125 67.1372 76.0125 67.1247 75.775C67.1122 75.2625 67.1997 74.5875 67.0622 74.1C66.9997 73.8875 66.9247 73.775 66.6997 73.6875C66.2497 73.525 65.5372 73.6125 65.0622 73.6C64.4997 73.575 63.9247 73.5625 63.3622 73.5625C60.9372 73.5375 58.4997 73.65 56.0872 73.8875C55.9872 73.9 55.8997 73.9625 55.8997 74.075C55.8747 74.5625 55.8872 75.0375 55.9372 75.525C55.9622 75.775 56.3372 75.775 56.3247 75.5375Z" fill="#F66F5D"/>
<path d="M59.4497 73.7376C59.4497 73.5126 59.3622 73.0376 59.4622 72.8376C59.6247 72.4751 60.2997 72.575 60.6247 72.5625C61.3372 72.5375 62.0372 72.5 62.7497 72.475C63.4122 72.45 64.0747 72.4251 64.7497 72.4001C65.1747 72.3876 65.6497 72.2626 65.8247 72.7376C65.9247 73.0126 65.8872 73.4375 65.9122 73.725C65.9372 73.9625 66.3122 73.9625 66.2872 73.725C66.2372 73.225 66.3872 72.175 65.7372 72C65.3747 71.9 64.8747 72.0126 64.4872 72.0251C63.8997 72.0501 63.3247 72.075 62.7372 72.1C61.7122 72.1375 60.5872 72.0501 59.5872 72.2376C58.8747 72.3626 59.0747 73.2001 59.0622 73.7376C59.0747 73.9751 59.4497 73.9751 59.4497 73.7376Z" fill="#F66F5D"/>
<path d="M63.5248 73.975C63.7373 74.55 63.8122 75.125 63.7372 75.725C63.7122 75.9625 64.0873 75.9625 64.1123 75.725C64.1998 75.0875 64.1247 74.475 63.8872 73.875C63.7997 73.65 63.4373 73.75 63.5248 73.975Z" fill="#F66F5D"/>
<path d="M63.5499 72.35C63.7749 72.8625 63.8249 73.4 63.7249 73.95C63.6749 74.1875 64.0374 74.2875 64.0874 74.05C64.2124 73.4 64.1374 72.775 63.8749 72.1625C63.7749 71.9375 63.4624 72.125 63.5499 72.35Z" fill="#F66F5D"/>
<path d="M64.9622 72.2375C65.0497 72.6875 65.1372 73.15 65.1872 73.6C65.2122 73.8375 65.5872 73.8375 65.5622 73.6C65.4997 73.1125 65.4247 72.6125 65.3247 72.1375C65.2747 71.9 64.9122 72 64.9622 72.2375Z" fill="#F66F5D"/>
<path d="M65.5999 74.0375C65.7874 74.5375 65.8249 75.0375 65.7124 75.55C65.6624 75.7875 66.0124 75.8875 66.0749 75.65C66.2124 75.075 66.1749 74.4875 65.9624 73.9375C65.8749 73.7125 65.5124 73.8125 65.5999 74.0375Z" fill="#F66F5D"/>
<path d="M52.0498 41.825C52.0498 42.3375 52.0748 42.85 52.1123 43.35C52.1373 43.5875 52.5123 43.5875 52.4873 43.35C52.4373 42.8375 52.4123 42.3375 52.4248 41.825C52.4248 41.5875 52.0498 41.5875 52.0498 41.825Z" fill="black"/>
<path d="M52.3998 43.7625C61.4123 43.7625 70.4123 43.7625 79.4248 43.7625C79.6623 43.7625 79.6623 43.3875 79.4248 43.3875C70.4123 43.3875 61.4123 43.3875 52.3998 43.3875C52.1623 43.3875 52.1623 43.7625 52.3998 43.7625Z" fill="black"/>
<path d="M52.3496 41.9625C61.3621 41.9625 70.3621 41.9625 79.3746 41.9625C79.6121 41.9625 79.6121 41.5875 79.3746 41.5875C70.3621 41.5875 61.3621 41.5875 52.3496 41.5875C52.0996 41.5875 52.0996 41.9625 52.3496 41.9625Z" fill="black"/>
<path d="M79.2998 41.825C79.2998 42.4125 79.2998 42.9875 79.2998 43.575C79.2998 43.8125 79.6748 43.8125 79.6748 43.575C79.6748 42.9875 79.6748 42.4125 79.6748 41.825C79.6748 41.5875 79.2998 41.5875 79.2998 41.825Z" fill="black"/>
<path d="M53.4246 36.425C53.8371 38.175 54.2496 39.925 54.6871 41.6625C54.7496 41.9 55.1121 41.8 55.0496 41.5625C54.6121 39.825 54.1996 38.075 53.7871 36.325C53.7371 36.0875 53.3746 36.1875 53.4246 36.425Z" fill="black"/>
<path d="M53.5999 36.4C54.5249 36.375 55.4374 36.3375 56.3499 36.275C56.7874 36.25 57.2249 36.2125 57.6624 36.175C58.1624 36.125 58.7124 36.0125 59.1874 36.2375C59.3999 36.3375 59.5999 36.0125 59.3749 35.9125C58.5999 35.5375 57.6374 35.8 56.8124 35.8625C55.7374 35.9375 54.6624 36 53.5749 36.025C53.3499 36.025 53.3499 36.4 53.5999 36.4Z" fill="black"/>
<path d="M59.0622 36.1C58.9122 37.95 58.5872 39.775 58.1122 41.575C58.0497 41.8125 58.4122 41.9125 58.4747 41.675C58.9622 39.85 59.2872 37.9875 59.4372 36.1C59.4497 35.8625 59.0747 35.8625 59.0622 36.1Z" fill="black"/>
<path d="M54.7374 35.95C54.0124 35.0875 53.4374 34.2 53.0749 33.125C52.7624 32.2125 52.5874 31.2625 52.4124 30.3125C52.3374 30.3875 52.2624 30.4625 52.1874 30.5375C54.4874 31.325 55.6374 33.5625 56.0874 35.8125C56.1374 36.05 56.4999 35.95 56.4499 35.7125C55.9749 33.325 54.7124 31.0125 52.2874 30.1875C52.1374 30.1375 52.0374 30.2875 52.0624 30.4125C52.2624 31.5 52.4624 32.5875 52.8624 33.6125C53.2374 34.575 53.8124 35.4125 54.4749 36.2C54.6249 36.4 54.8874 36.1375 54.7374 35.95Z" fill="black"/>
<path d="M55.8499 33.575C55.5249 32.4125 56.6124 31.5625 57.2374 30.7375C57.8374 29.95 58.3249 29.0875 58.7249 28.175C58.6124 28.1625 58.4999 28.15 58.3874 28.125C58.9999 30.6375 59.5874 33.65 57.6374 35.75C57.4749 35.925 57.7374 36.1875 57.8999 36.0125C59.9374 33.8 59.3874 30.675 58.7374 28.025C58.6999 27.875 58.4624 27.825 58.3999 27.975C57.8999 29.15 57.2249 30.2 56.3999 31.175C55.7874 31.8875 55.2249 32.6875 55.4999 33.675C55.5499 33.9 55.9124 33.8125 55.8499 33.575Z" fill="black"/>
<path d="M64.6499 41.6625C64.6499 40.95 64.6499 40.2375 64.6499 39.5375C64.6499 39.3 64.2749 39.3 64.2749 39.5375C64.2749 40.25 64.2749 40.9625 64.2749 41.6625C64.2749 41.9125 64.6499 41.9125 64.6499 41.6625Z" fill="black"/>
<path d="M64.4623 39.675C68.9998 39.675 73.5248 39.675 78.0623 39.675C78.2998 39.675 78.2998 39.3 78.0623 39.3C73.5248 39.3 68.9998 39.3 64.4623 39.3C64.2248 39.3 64.2248 39.675 64.4623 39.675Z" fill="black"/>
<path d="M77.9248 39.65C77.9248 40.3375 77.9248 41.0375 77.9248 41.725C77.9248 41.9625 78.2998 41.9625 78.2998 41.725C78.2998 41.0375 78.2998 40.3375 78.2998 39.65C78.2998 39.4 77.9248 39.4 77.9248 39.65Z" fill="black"/>
<path d="M67.1621 39.425C67.1621 39.0125 67.1621 38.5875 67.1621 38.175C67.1621 37.9375 66.7871 37.9375 66.7871 38.175C66.7871 38.5875 66.7871 39.0125 66.7871 39.425C66.7871 39.675 67.1621 39.675 67.1621 39.425Z" fill="black"/>
<path d="M66.975 38.2C70.5375 38.2 74.1125 38.2 77.675 38.2C77.9125 38.2 77.9125 37.825 77.675 37.825C74.1125 37.825 70.5375 37.825 66.975 37.825C66.7375 37.825 66.7375 38.2 66.975 38.2Z" fill="black"/>
<path d="M77.5498 38.0125C77.5498 38.4875 77.5498 38.9625 77.5498 39.4375C77.5498 39.675 77.9248 39.675 77.9248 39.4375C77.9248 38.9625 77.9248 38.4875 77.9248 38.0125C77.9248 37.7625 77.5498 37.7625 77.5498 38.0125Z" fill="black"/>
<path d="M70.0625 37.85C70.0625 37.2 70.0625 36.5375 70.0625 35.8875C70.0625 35.65 69.6875 35.65 69.6875 35.8875C69.6875 36.5375 69.6875 37.2 69.6875 37.85C69.6875 38.0875 70.0625 38.0875 70.0625 37.85Z" fill="black"/>
<path d="M70.0375 35.9625C72.425 35.9625 74.8 35.9625 77.1875 35.9625C77.425 35.9625 77.425 35.5875 77.1875 35.5875C74.8 35.5875 72.425 35.5875 70.0375 35.5875C69.8 35.5875 69.8 35.9625 70.0375 35.9625Z" fill="black"/>
<path d="M77.1123 35.7125C77.1123 36.425 77.1123 37.1376 77.1123 37.8376C77.1123 38.0751 77.4873 38.0751 77.4873 37.8376C77.4873 37.1251 77.4873 36.4125 77.4873 35.7125C77.4873 35.475 77.1123 35.475 77.1123 35.7125Z" fill="black"/>
<path d="M74.6122 35.875C74.7872 36.55 74.8247 37.2125 74.7622 37.9C74.7372 38.1375 75.1122 38.1375 75.1372 37.9C75.2122 37.175 75.1622 36.475 74.9747 35.775C74.9122 35.5375 74.5497 35.6375 74.6122 35.875Z" fill="black"/>
<path d="M75.7375 35.9875C75.8 36.5375 75.825 37.075 75.8 37.625C75.7875 37.8625 76.1625 37.8625 76.175 37.625C76.2 37.075 76.1875 36.5375 76.1125 35.9875C76.0875 35.75 75.7125 35.75 75.7375 35.9875Z" fill="black"/>
<path d="M74.2122 38.1125C74.2747 38.525 74.2622 38.95 74.2122 39.375C74.1872 39.6125 74.5622 39.6125 74.5872 39.375C74.6497 38.925 74.6372 38.475 74.5747 38.0125C74.5372 37.775 74.1747 37.875 74.2122 38.1125Z" fill="black"/>
<path d="M75.1625 38.05C75.2375 38.3875 75.2125 38.7125 75.1 39.05C75.025 39.275 75.3875 39.375 75.4625 39.15C75.6 38.7625 75.6125 38.3625 75.525 37.95C75.475 37.725 75.1125 37.825 75.1625 38.05Z" fill="black"/>
<path d="M72.3371 39.4875C72.4121 40.2375 72.4246 40.975 72.3746 41.725C72.3621 41.9625 72.7371 41.9625 72.7496 41.725C72.7996 40.975 72.7871 40.2375 72.7121 39.4875C72.6871 39.25 72.3121 39.25 72.3371 39.4875Z" fill="black"/>
<path d="M76.1874 39.5375C76.2749 40.2375 76.2749 40.925 76.1624 41.625C76.1249 41.8625 76.4874 41.9625 76.5249 41.725C76.6374 41 76.6624 40.275 76.5624 39.5375C76.5374 39.3 76.1624 39.3 76.1874 39.5375Z" fill="black"/>
<path d="M89.7246 18.925C89.7246 21.1 89.7246 23.275 89.7246 25.45C89.7246 25.6875 90.0996 25.6875 90.0996 25.45C90.0996 23.275 90.0996 21.1 90.0996 18.925C90.0996 18.675 89.7246 18.675 89.7246 18.925Z" fill="#F66F5D"/>
<path d="M84.475 25.725C87.9125 25.725 91.3625 25.725 94.8 25.725C95.0375 25.725 95.0375 25.35 94.8 25.35C91.3625 25.35 87.9125 25.35 84.475 25.35C84.2375 25.35 84.2375 25.725 84.475 25.725Z" fill="#F66F5D"/>
<path d="M92.9873 25.8C92.9873 27.9375 92.9873 30.0875 92.9873 32.225C92.9873 32.4625 93.3623 32.4625 93.3623 32.225C93.3623 30.0875 93.3623 27.9375 93.3623 25.8C93.3623 25.5625 92.9873 25.5625 92.9873 25.8Z" fill="#F66F5D"/>
<path d="M148.5 124.075C148.175 124.612 148.638 125.237 149.7 127.587C151.325 131.175 151.25 132 150.988 132.55C150.55 133.45 149.613 133.562 149.7 134C149.825 134.637 151.888 135.125 152.613 134.337C152.938 133.987 152.888 133.5 152.788 132.537C152.338 128.55 152.25 128.262 152.1 127.05C151.838 124.9 151.975 124.35 151.413 123.875C150.575 123.212 148.95 123.35 148.5 124.075Z" fill="#161616" stroke="#161616" stroke-miterlimit="10"/>
<path d="M167.95 123.525C168.888 122.862 170.525 123.562 171.375 124.387C172.088 125.062 171.925 125.512 172.75 126.1C172.938 126.237 173.8 126.85 174.888 126.787C175.725 126.737 175.888 126.325 176.513 126.45C176.95 126.525 177.138 126.775 177.975 127.562C179.288 128.812 179.775 129.1 179.688 129.275C179.6 129.437 179.188 129.35 177.375 129.1C176.05 128.912 175.363 128.825 174.888 128.8C173.8 128.75 173.75 128.887 172.15 128.925C170.5 128.975 169.663 128.975 169.063 128.662C167.725 127.962 167.375 126.412 167.35 126.262C167.313 126.062 166.95 124.225 167.95 123.525Z" fill="#161616" stroke="#161616" stroke-miterlimit="10"/>
<path d="M149.788 118.763C150.6 118.788 150.95 119.738 151.675 120.563C153.563 122.738 156.85 122.813 159.55 122.875C164.65 122.988 166.025 121.05 168.463 122.363C169.8 123.088 171.063 124.575 171.038 126.213C171 128.35 168.763 129.863 167.188 130.413C165.788 130.9 165.025 130.6 161.188 129.9C155.013 128.763 153.788 128.938 151.425 127.588C150.075 126.813 148.863 125.825 148.088 124.338C147.763 123.713 147.25 122.675 147.488 121.425C147.725 120.113 148.775 118.725 149.788 118.763Z" fill="#161616" stroke="#161616" stroke-miterlimit="10"/>
<path d="M167.775 122.45C168.038 122.088 169.075 123 170.175 122.538C171.113 122.138 171.538 120.975 171.8 120.225C172.288 118.888 171.963 118.413 172.488 117.913C172.988 117.425 173.425 117.738 174.888 117.313C175.875 117.025 176.675 116.8 177.113 116.113C177.463 115.563 177.213 115.288 177.45 113.888C177.525 113.463 177.813 111.763 178.225 111.75C178.525 111.738 178.888 112.638 178.913 113.463C178.925 113.8 178.875 114.038 178.4 115.6C178.1 116.575 177.95 117.063 177.888 117.138C177.275 117.9 176.463 117.525 174.888 118.25C174.125 118.6 173.388 118.938 173 119.7C172.65 120.4 172.95 120.713 172.575 121.75C172.225 122.7 171.663 123.263 171.55 123.375C171.138 123.788 170.3 124.6 169.325 124.4C168.225 124.2 167.513 122.813 167.775 122.45Z" fill="#161616" stroke="#161616" stroke-miterlimit="10"/>
<path d="M164.863 128.363C164.713 128.663 164.288 129.525 164.438 130.588C164.588 131.675 165.263 132.613 165.725 133.238C166.363 134.125 166.738 134.313 166.663 134.688C166.525 135.513 164.675 135.575 164.688 135.975C164.713 136.375 166.588 136.575 168.025 136.488C169.1 136.425 169.35 136.238 169.488 136.063C169.788 135.638 169.45 135.138 169.313 134.013C169.213 133.213 169.288 132.65 169.4 131.7C169.588 130.138 169.888 130.038 170 128.875C170.088 127.95 170.238 126.413 169.488 125.875C168.463 125.15 165.85 126.413 164.863 128.363Z" fill="#161616" stroke="#161616" stroke-miterlimit="10"/>
<path d="M139.425 120.475C139.625 121.488 140.725 122.125 142.338 122.788C144.05 123.5 148.9 125.5 149.788 124.163C150.013 123.825 149.938 123.35 149.788 123.05C149.413 122.338 148.388 122.413 146.613 122.113C145.063 121.85 143.625 121.613 142.163 120.825C140.813 120.113 140.013 119.25 139.588 119.538C139.288 119.75 139.413 120.413 139.425 120.475Z" fill="#161616" stroke="#161616" stroke-miterlimit="10"/>
<path d="M137.475 116.063C137.863 116.713 138.338 117.3 138.9 117.825C139.075 117.988 139.338 117.725 139.163 117.563C138.625 117.063 138.175 116.5 137.8 115.875C137.675 115.663 137.35 115.85 137.475 116.063Z" fill="#161616"/>
<path d="M135.863 117C136.25 117.475 136.75 117.813 137.313 118.013C137.538 118.1 137.638 117.738 137.413 117.65C136.9 117.463 136.463 117.15 136.125 116.738C135.975 116.55 135.713 116.813 135.863 117Z" fill="#161616"/>
<path d="M135.925 119.462C136.275 119.5 136.625 119.525 136.988 119.562C137.225 119.587 137.225 119.212 136.988 119.187C136.638 119.15 136.288 119.125 135.925 119.087C135.688 119.062 135.688 119.437 135.925 119.462Z" fill="#161616"/>
<path d="M146.187 116.963C145.75 117.138 145.062 117.463 144.387 118.075C143.812 118.6 143.262 119.1 143.187 119.788C143.05 121.038 144.575 122.225 145.762 122.7C145.975 122.788 148.487 123.738 149.875 122.275C150.812 121.275 150.6 119.85 150.562 119.625C150.275 117.763 148.6 116.888 148.425 116.8C148 116.225 147.562 115.663 147.137 115.088C146.825 115.713 146.512 116.338 146.187 116.963Z" fill="#161616" stroke="#161616" stroke-miterlimit="10"/>
<path d="M145.025 118.65C145.213 119.188 145.713 119.55 146.288 119.538C146.525 119.525 146.525 119.15 146.288 119.163C145.888 119.175 145.513 118.925 145.388 118.55C145.3 118.325 144.938 118.425 145.025 118.65Z" fill="white"/>
<path d="M143.2 119.537C143.313 119.537 143.363 119.575 143.375 119.662C143.338 119.7 143.313 119.75 143.275 119.787C143.2 119.812 143.188 119.775 143.163 119.75C143.15 119.737 143.163 119.725 143.15 119.737C143.138 119.75 143.138 119.787 143.125 119.812C143.2 119.775 143.275 119.725 143.35 119.687C143.363 119.7 143.363 119.7 143.35 119.687C143.363 119.687 143.363 119.7 143.363 119.7C143.375 119.712 143.363 119.712 143.363 119.687C143.375 119.7 143.375 119.7 143.363 119.687C143.35 119.587 143.225 119.537 143.138 119.562C143.038 119.587 142.988 119.687 143.013 119.787C143.038 119.912 143.138 120.012 143.263 120.05C143.363 120.087 143.45 120.012 143.488 119.925C143.538 119.812 143.55 119.687 143.488 119.587C143.425 119.475 143.288 119.412 143.163 119.45C143.038 119.487 142.975 119.625 143 119.75C143.038 119.875 143.163 119.962 143.288 119.925C143.388 119.9 143.45 119.8 143.413 119.7C143.4 119.575 143.3 119.512 143.2 119.537Z" fill="white"/>
<path d="M143.125 119.863C143.312 120.5 144.062 120.813 144.637 120.513C144.85 120.4 144.662 120.075 144.45 120.188C144.075 120.375 143.6 120.15 143.487 119.763C143.425 119.525 143.062 119.625 143.125 119.863Z" fill="white"/>
<path d="M58.8623 109.313C59.1373 109.363 59.5373 109.438 60.0373 109.5C62.4248 109.85 64.1248 109.838 66.2248 109.863C67.4873 109.875 69.3498 109.913 71.6873 110C74.1748 109.825 76.6748 109.65 79.1623 109.463C75.7248 109.113 72.2873 108.75 68.8498 108.4C65.5123 108.7 62.1873 109 58.8623 109.313Z" fill="black"/>
<path d="M66.2124 117.075C66.9249 117.225 67.6374 117.375 68.3499 117.525C70.8249 117.375 73.5374 117 76.3999 116.25C76.9499 116.113 77.4874 115.963 77.9999 115.8C74.0749 116.225 70.1499 116.65 66.2124 117.075Z" fill="black"/>
<path d="M59.0249 126.938C59.0374 127.988 59.0499 129.05 59.0624 130.1C64.8374 130.838 70.6249 131.575 76.3999 132.313C76.3999 131.263 76.3999 130.2 76.3999 129.15C79.9374 127.575 83.4624 126 86.9999 124.425C86.0124 124.275 85.0249 124.125 84.0374 123.975C83.9249 124.15 83.8124 124.325 83.7124 124.513C79.4249 125.838 75.1374 127.175 70.8499 128.5C66.9124 127.975 62.9624 127.45 59.0249 126.938Z" fill="black"/>
<path d="M52.5996 112.65C56.9246 113.175 61.2621 113.7 65.5871 114.225C70.4121 113.887 75.2371 113.537 80.0621 113.2C79.0121 112.862 77.9621 112.537 76.9121 112.2C74.7371 112.362 72.5496 112.525 70.3746 112.688C66.2621 112.4 62.1621 112.1 58.0496 111.812C56.2371 112.088 54.4121 112.363 52.5996 112.65Z" fill="#F66F5D"/>
<path d="M68.8374 120.313C70.1749 120.513 71.5249 120.713 72.8624 120.913C76.5624 119.95 80.2499 119 83.9499 118.038C82.7249 117.85 81.5124 117.675 80.2874 117.488C76.4624 118.438 72.6499 119.375 68.8374 120.313Z" fill="#F66F5D"/>
<path d="M53.4497 123.488C59.1497 124.3 64.8372 125.125 70.5372 125.938C72.2997 125.563 74.1372 125.125 76.0497 124.6C78.6747 123.888 81.1122 123.1 83.3747 122.3C82.5247 122.15 81.6747 122 80.8247 121.85C78.1622 122.588 75.4997 123.325 72.8247 124.063C68.0997 123.413 63.3747 122.775 58.6497 122.125C56.9247 122.588 55.1872 123.038 53.4497 123.488Z" fill="#F66F5D"/>
<path d="M58.0747 109.675C58.0747 110.425 58.0747 111.188 58.0747 111.938C58.0747 112.175 58.4497 112.175 58.4497 111.938C58.4497 111.188 58.4497 110.425 58.4497 109.675C58.4497 109.438 58.0747 109.438 58.0747 109.675Z" fill="#161616"/>
<path d="M58.3247 109.75C62.7497 109.9 67.1872 110.038 71.6122 110.188C71.8497 110.2 71.8497 109.825 71.6122 109.813C67.1872 109.663 62.7497 109.525 58.3247 109.375C58.0747 109.363 58.0747 109.738 58.3247 109.75Z" fill="#161616"/>
<path d="M58.3247 112.225C62.3497 112.3 66.3747 112.488 70.3872 112.788C70.6247 112.8 70.6247 112.425 70.3872 112.413C66.3747 112.125 62.3497 111.938 58.3247 111.85C58.0747 111.85 58.0747 112.225 58.3247 112.225Z" fill="#161616"/>
<path d="M71.7375 110.238C74.3 110.013 76.875 109.863 79.4375 109.775C79.675 109.763 79.675 109.388 79.4375 109.4C76.8625 109.475 74.3 109.638 71.7375 109.863C71.5 109.875 71.4875 110.25 71.7375 110.238Z" fill="#161616"/>
<path d="M70.4496 112.8C73.4621 112.5 76.4871 112.213 79.4996 111.913C79.7371 111.888 79.7371 111.513 79.4996 111.538C76.4871 111.838 73.4621 112.125 70.4496 112.425C70.2121 112.45 70.2121 112.825 70.4496 112.8Z" fill="#161616"/>
<path d="M71.5501 110.188C71.4626 110.325 71.4001 110.463 71.3751 110.625C71.3376 110.9 71.4501 111.113 71.3126 111.388C71.1501 111.738 71.0501 112.013 71.1126 112.4C71.1501 112.638 71.5126 112.538 71.4751 112.3C71.4126 111.888 71.6251 111.7 71.7501 111.363C71.8626 111.013 71.6501 110.713 71.8751 110.375C72.0001 110.175 71.6751 109.975 71.5501 110.188Z" fill="#161616"/>
<path d="M58.3747 109.638C61.7497 109.175 65.1373 108.85 68.5498 108.638C68.7873 108.625 68.7873 108.25 68.5498 108.263C65.1123 108.475 61.6872 108.813 58.2872 109.275C58.0372 109.313 58.1372 109.663 58.3747 109.638Z" fill="#161616"/>
<path d="M68.2997 108.65C71.9372 108.675 75.5622 109 79.1372 109.625C79.3747 109.663 79.4747 109.3 79.2372 109.263C75.6247 108.625 71.9622 108.288 68.2997 108.263C68.0622 108.275 68.0622 108.65 68.2997 108.65Z" fill="#161616"/>
<path d="M59.0626 110.913C60.1376 111.163 61.2626 110.9 62.3626 110.913C63.5876 110.925 64.8126 111.063 66.0376 111.213C66.2751 111.238 66.2751 110.863 66.0376 110.838C64.9001 110.713 63.7501 110.575 62.6001 110.55C61.4876 110.525 60.2626 110.813 59.1626 110.563C58.9251 110.488 58.8251 110.85 59.0626 110.913Z" fill="#161616"/>
<path d="M64.0121 111.725C65.9246 111.788 67.8496 111.875 69.7621 111.988C69.9996 112 69.9996 111.625 69.7621 111.613C67.8496 111.5 65.9246 111.413 64.0121 111.35C63.7746 111.338 63.7746 111.713 64.0121 111.725Z" fill="#161616"/>
<path d="M67.1374 111.063C68.2374 111.15 69.3499 111.263 70.4499 111.4C70.6874 111.425 70.6874 111.05 70.4499 111.025C69.3499 110.888 68.2499 110.775 67.1374 110.688C66.8874 110.663 66.8999 111.038 67.1374 111.063Z" fill="#161616"/>
<path d="M72.4749 111.25C73.3499 111.375 74.1999 111.162 75.0624 111.037C76.0874 110.875 77.1249 110.75 78.1624 110.688C78.3999 110.675 78.3999 110.3 78.1624 110.313C77.3249 110.363 76.4874 110.462 75.6624 110.575C74.6624 110.712 73.5999 111.038 72.5874 110.9C72.3374 110.85 72.2374 111.213 72.4749 111.25Z" fill="#161616"/>
<path d="M74.0497 111.9C74.8247 111.988 75.5372 111.713 76.2872 111.563C77.1622 111.375 78.0622 111.3 78.9497 111.288C79.1872 111.288 79.1872 110.913 78.9497 110.913C78.1747 110.925 77.4122 110.988 76.6497 111.113C75.7997 111.263 74.9247 111.638 74.0497 111.538C73.8122 111.5 73.8122 111.875 74.0497 111.9Z" fill="#161616"/>
<path d="M79.1123 109.925C79.1248 110.563 79.1373 111.188 79.1623 111.825C79.1623 112.063 79.5373 112.063 79.5373 111.825C79.5248 111.188 79.5123 110.563 79.4873 109.925C79.4873 109.675 79.1123 109.675 79.1123 109.925Z" fill="#161616"/>
<path d="M52.3248 112.738C52.3373 113.575 52.3123 114.413 52.2498 115.25C52.2373 115.488 52.6123 115.488 52.6248 115.25C52.6873 114.413 52.7123 113.575 52.6998 112.738C52.6873 112.488 52.3123 112.488 52.3248 112.738Z" fill="#161616"/>
<path d="M52.5124 115.613C56.8874 116.163 61.2749 116.638 65.6749 117.063C65.9124 117.088 65.9124 116.713 65.6749 116.688C61.2749 116.263 56.8874 115.788 52.5124 115.238C52.2624 115.213 52.2749 115.588 52.5124 115.613Z" fill="#161616"/>
<path d="M65.5999 114.388C65.5624 115.188 65.5124 115.975 65.4749 116.775C65.4624 117.013 65.8374 117.013 65.8499 116.775C65.8874 115.975 65.9374 115.188 65.9749 114.388C65.9874 114.15 65.6124 114.15 65.5999 114.388Z" fill="#161616"/>
<path d="M65.7875 114.462C70.6125 114.275 75.4375 113.912 80.2375 113.4C80.475 113.375 80.475 113 80.2375 113.025C75.4375 113.537 70.6125 113.887 65.7875 114.087C65.55 114.1 65.55 114.475 65.7875 114.462Z" fill="#161616"/>
<path d="M65.85 117.163C70.6125 116.6 75.3875 116.113 80.175 115.675C80.4125 115.65 80.4125 115.275 80.175 115.3C75.4 115.738 70.625 116.238 65.85 116.788C65.6125 116.813 65.6125 117.188 65.85 117.163Z" fill="#161616"/>
<path d="M80.0747 113.35C80.0747 114.025 80.0872 114.7 80.0872 115.375C80.0872 115.613 80.4622 115.613 80.4622 115.375C80.4622 114.7 80.4497 114.025 80.4497 113.35C80.4497 113.1 80.0747 113.1 80.0747 113.35Z" fill="#161616"/>
<path d="M52.5625 112.713C54.4375 112.463 56.3125 112.238 58.2 112.063C58.4375 112.038 58.4375 111.663 58.2 111.688C56.2875 111.863 54.375 112.088 52.4625 112.35C52.225 112.375 52.325 112.738 52.5625 112.713Z" fill="#161616"/>
<path d="M52.7499 112.963C57.0749 113.275 61.3874 113.725 65.6874 114.313C65.9249 114.35 66.0249 113.988 65.7874 113.95C61.4624 113.363 57.1124 112.9 52.7499 112.588C52.5124 112.575 52.5124 112.95 52.7499 112.963Z" fill="#161616"/>
<path d="M76.8375 112.325C77.9625 112.537 79.075 112.825 80.1625 113.2C80.3875 113.275 80.4875 112.912 80.2625 112.837C79.175 112.475 78.075 112.175 76.9375 111.962C76.7 111.912 76.6 112.275 76.8375 112.325Z" fill="#161616"/>
<path d="M54.6 114.688C56.85 114.575 59 115.363 61.2375 115.4C61.475 115.4 61.475 115.025 61.2375 115.025C59 114.988 56.8375 114.2 54.6 114.313C54.3625 114.325 54.3625 114.7 54.6 114.688Z" fill="#161616"/>
<path d="M58.8998 114.2C60.5498 114.812 62.3373 114.437 64.0373 114.812C64.2748 114.862 64.3748 114.5 64.1373 114.45C62.4373 114.075 60.6498 114.45 58.9998 113.837C58.7748 113.75 58.6748 114.112 58.8998 114.2Z" fill="#161616"/>
<path d="M66.5874 115.837C70.7374 114.9 75.0499 114.8 79.2749 114.55C79.5124 114.537 79.5124 114.162 79.2749 114.175C74.9999 114.437 70.6749 114.525 66.4874 115.475C66.2499 115.525 66.3499 115.887 66.5874 115.837Z" fill="#161616"/>
<path d="M73.5248 115.525C74.9998 115.563 76.4748 115.425 77.9123 115.113C78.1498 115.063 78.0498 114.7 77.8123 114.75C76.3998 115.05 74.9623 115.188 73.5248 115.15C73.2873 115.138 73.2873 115.513 73.5248 115.525Z" fill="#161616"/>
<path d="M54.9746 115.813C54.9746 116.75 54.9746 117.675 54.9746 118.613C54.9746 118.85 55.3496 118.85 55.3496 118.613C55.3496 117.675 55.3496 116.75 55.3496 115.813C55.3496 115.575 54.9746 115.575 54.9746 115.813Z" fill="#161616"/>
<path d="M55.1122 118.85C57.1372 119.45 59.3747 119.462 61.4747 119.662C63.6997 119.875 65.9372 120.1 68.1622 120.312C68.3997 120.337 68.3997 119.962 68.1622 119.937C66.0122 119.725 63.8622 119.525 61.7122 119.312C59.5747 119.1 57.2747 119.1 55.2122 118.487C54.9872 118.425 54.8872 118.787 55.1122 118.85Z" fill="#161616"/>
<path d="M68.1497 117.413C68.1622 118.275 68.1622 119.125 68.1372 119.988C68.1372 120.225 68.5122 120.225 68.5122 119.988C68.5372 119.125 68.5372 118.275 68.5247 117.413C68.5247 117.163 68.1497 117.163 68.1497 117.413Z" fill="#161616"/>
<path d="M66.1499 117.35C66.8374 117.413 67.5249 117.525 68.1999 117.688C68.4374 117.75 68.5374 117.388 68.2999 117.325C67.5874 117.15 66.8749 117.038 66.1499 116.975C65.8999 116.963 65.8999 117.338 66.1499 117.35Z" fill="#161616"/>
<path d="M68.3871 117.612C71.8871 117.325 75.3621 116.8 78.7996 116.012C79.0371 115.962 78.9371 115.6 78.6996 115.65C75.2996 116.425 71.8621 116.95 68.3871 117.237C68.1496 117.25 68.1496 117.625 68.3871 117.612Z" fill="#161616"/>
<path d="M68.3875 120.363C72.3625 119.6 76.3125 118.663 80.2 117.55C80.4375 117.488 80.3375 117.125 80.1 117.188C76.2 118.3 72.2625 119.25 68.2875 120C68.0625 120.05 68.1625 120.413 68.3875 120.363Z" fill="#161616"/>
<path d="M80.0121 115.537C80.0246 116.163 80.0121 116.788 79.9621 117.4C79.9371 117.638 80.3121 117.638 80.3371 117.4C80.3871 116.775 80.3996 116.15 80.3871 115.537C80.3871 115.3 80.0121 115.3 80.0121 115.537Z" fill="#161616"/>
<path d="M78.7997 116.012C79.2247 116.012 79.6497 115.95 80.0622 115.85C80.2997 115.787 80.1997 115.425 79.9622 115.487C79.5747 115.587 79.1997 115.637 78.7997 115.637C78.5622 115.637 78.5622 116.012 78.7997 116.012Z" fill="#161616"/>
<path d="M57.2123 118C60.2373 118.363 63.2498 118.713 66.2748 119.025C66.5123 119.05 66.5123 118.675 66.2748 118.65C63.2498 118.338 60.2248 118 57.2123 117.625C56.9748 117.6 56.9748 117.975 57.2123 118Z" fill="#161616"/>
<path d="M56.0497 116.963C57.3247 117.088 58.5997 117.188 59.8747 117.25C60.1122 117.263 60.1122 116.888 59.8747 116.875C58.5997 116.813 57.3247 116.713 56.0497 116.588C55.8122 116.575 55.8122 116.95 56.0497 116.963Z" fill="#161616"/>
<path d="M61.4748 117.65C63.0873 117.65 64.6873 117.763 66.2873 118.013C66.5248 118.05 66.6248 117.688 66.3873 117.65C64.7623 117.4 63.1248 117.275 61.4748 117.275C61.2373 117.275 61.2248 117.65 61.4748 117.65Z" fill="#161616"/>
<path d="M69 118.862C70.8 118.575 72.5875 118.25 74.375 117.887C74.6125 117.837 74.5125 117.475 74.275 117.525C72.4875 117.887 70.7 118.212 68.9 118.5C68.6625 118.537 68.7625 118.9 69 118.862Z" fill="#161616"/>
<path d="M72.3997 119.013C74.5622 118.288 76.7872 117.75 79.0372 117.425C79.2747 117.388 79.1747 117.025 78.9372 117.063C76.6747 117.388 74.4622 117.913 72.2997 118.65C72.0747 118.738 72.1747 119.1 72.3997 119.013Z" fill="#161616"/>
<path d="M77.8748 117.087C78.4873 116.9 79.0998 116.787 79.7373 116.737C79.9748 116.725 79.9748 116.35 79.7373 116.362C79.0748 116.412 78.4123 116.525 77.7748 116.725C77.5498 116.8 77.6498 117.162 77.8748 117.087Z" fill="#161616"/>
<path d="M57.8249 119.338C57.8124 120.225 57.7874 121.113 57.7749 122C57.7749 122.238 58.1499 122.238 58.1499 122C58.1624 121.113 58.1874 120.225 58.1999 119.338C58.2124 119.1 57.8374 119.1 57.8249 119.338Z" fill="#161616"/>
<path d="M57.9999 122.25C62.8499 122.9 67.7124 123.55 72.5624 124.188C72.7999 124.225 72.7999 123.85 72.5624 123.813C67.7124 123.163 62.8499 122.513 57.9999 121.875C57.7624 121.838 57.7624 122.213 57.9999 122.25Z" fill="#161616"/>
<path d="M68.6876 120.437C70.1376 120.662 71.5876 120.85 73.0501 120.987C73.2876 121.012 73.2876 120.637 73.0501 120.612C71.6251 120.475 70.2001 120.3 68.7876 120.075C68.5501 120.037 68.4501 120.4 68.6876 120.437Z" fill="#161616"/>
<path d="M73.1 120.95C76.825 120.6 80.2375 118.9 83.9 118.275C84.1375 118.238 84.0375 117.875 83.8 117.913C80.1625 118.525 76.7875 120.213 73.1 120.563C72.8625 120.6 72.8625 120.975 73.1 120.95Z" fill="#161616"/>
<path d="M80.1749 117.613C81.4374 117.8 82.7124 117.938 83.9874 118.013C84.2249 118.025 84.2249 117.65 83.9874 117.638C82.7374 117.563 81.4999 117.438 80.2749 117.25C80.0374 117.213 79.9374 117.575 80.1749 117.613Z" fill="#161616"/>
<path d="M72.6623 120.913C72.6248 121.888 72.5998 122.875 72.5623 123.85C72.5498 124.088 72.9248 124.088 72.9373 123.85C72.9748 122.875 72.9998 121.888 73.0373 120.913C73.0498 120.663 72.6748 120.663 72.6623 120.913Z" fill="#161616"/>
<path d="M72.7622 124.2C76.4997 123.3 80.1872 122.238 83.8372 121.025C84.0622 120.95 83.9622 120.588 83.7372 120.663C80.0872 121.875 76.3997 122.925 72.6622 123.838C72.4247 123.888 72.5247 124.25 72.7622 124.2Z" fill="#161616"/>
<path d="M83.7375 118.1C83.8375 119.013 83.8625 119.925 83.8125 120.838C83.8 121.075 84.175 121.075 84.1875 120.838C84.225 119.925 84.2 119.013 84.1125 118.1C84.0875 117.862 83.7125 117.862 83.7375 118.1Z" fill="#161616"/>
<path d="M58.9623 121.2C58.8748 121.212 58.7998 121.225 58.7123 121.225C58.4748 121.25 58.4748 121.575 58.7123 121.6C61.8873 121.937 65.0373 122.45 68.1998 122.95C68.4373 122.987 68.5373 122.625 68.2998 122.587C65.1123 122.075 61.9248 121.562 58.7123 121.225C58.7123 121.35 58.7123 121.475 58.7123 121.6C58.7998 121.587 58.8748 121.575 58.9623 121.575C59.1998 121.55 59.1998 121.175 58.9623 121.2Z" fill="#161616"/>
<path d="M59.9374 120.65C60.8874 120.888 61.8374 121.113 62.7999 121.3C63.0374 121.35 63.1374 120.987 62.8999 120.937C61.9374 120.75 60.9874 120.537 60.0374 120.287C59.8124 120.237 59.7124 120.6 59.9374 120.65Z" fill="#161616"/>
<path d="M63.9 121.138C66.4125 121.525 68.9125 121.913 71.425 122.3C71.6625 122.338 71.7625 121.975 71.525 121.938C69.0125 121.55 66.5125 121.163 64 120.775C63.7625 120.75 63.6625 121.113 63.9 121.138Z" fill="#161616"/>
<path d="M74.7372 121.7C76.8247 121.65 78.7122 120.637 80.7622 120.325C80.9997 120.287 80.8997 119.925 80.6622 119.962C78.6497 120.275 76.7997 121.275 74.7372 121.325C74.4997 121.337 74.4997 121.712 74.7372 121.7Z" fill="#161616"/>
<path d="M74.0625 122.962C74.975 122.737 75.8875 122.512 76.8 122.275C77.0375 122.212 76.9375 121.85 76.7 121.912C75.7875 122.137 74.875 122.362 73.9625 122.6C73.725 122.65 73.825 123.012 74.0625 122.962Z" fill="#161616"/>
<path d="M80.2749 121.287C81.3499 121 82.4249 120.712 83.4999 120.412C83.7374 120.35 83.6374 119.987 83.3999 120.05C82.3249 120.337 81.2499 120.625 80.1749 120.925C79.9374 120.987 80.0374 121.35 80.2749 121.287Z" fill="#161616"/>
<path d="M53.0121 123.613C54.9996 123.4 56.9621 122.988 58.8621 122.363C59.0871 122.288 58.9871 121.925 58.7621 122C56.8871 122.613 54.9746 123.025 53.0121 123.238C52.7746 123.263 52.7746 123.638 53.0121 123.613Z" fill="#161616"/>
<path d="M52.8621 123.575C52.8996 124.425 52.9496 125.263 52.9871 126.113C52.9996 126.35 53.3746 126.35 53.3621 126.113C53.3246 125.263 53.2746 124.425 53.2371 123.575C53.2246 123.338 52.8496 123.338 52.8621 123.575Z" fill="#161616"/>
<path d="M53.1998 126.362C58.9748 127.125 64.7373 127.887 70.5123 128.637C70.7498 128.675 70.7498 128.287 70.5123 128.262C64.7373 127.5 58.9748 126.737 53.1998 125.987C52.9623 125.95 52.9748 126.325 53.1998 126.362Z" fill="#161616"/>
<path d="M53.0873 123.775C58.6623 124.562 64.2373 125.275 69.8248 125.925C70.0623 125.95 70.0623 125.575 69.8248 125.55C64.2748 124.912 58.7248 124.2 53.1873 123.412C52.9623 123.387 52.8498 123.75 53.0873 123.775Z" fill="#161616"/>
<path d="M70.5249 128.713C74.9874 127.425 79.4249 126.05 83.8249 124.575C84.0499 124.5 83.9499 124.138 83.7249 124.213C79.3124 125.675 74.8874 127.063 70.4249 128.35C70.1874 128.413 70.2874 128.775 70.5249 128.713Z" fill="#161616"/>
<path d="M72.0122 125.775C75.9747 124.888 79.8747 123.763 83.6997 122.388C83.9247 122.313 83.8247 121.95 83.5997 122.025C79.7747 123.4 75.8747 124.525 71.9122 125.413C71.6747 125.463 71.7747 125.825 72.0122 125.775Z" fill="#161616"/>
<path d="M83.4749 122.275C83.4874 122.988 83.4999 123.688 83.5124 124.4C83.5124 124.638 83.8874 124.638 83.8874 124.4C83.8749 123.688 83.8624 122.988 83.8499 122.275C83.8374 122.038 83.4624 122.038 83.4749 122.275Z" fill="#161616"/>
<path d="M80.6371 122.063C81.5996 122.163 82.5496 122.263 83.5121 122.35C83.7496 122.375 83.7496 122 83.5121 121.975C82.5496 121.875 81.5996 121.775 80.6371 121.688C80.3996 121.663 80.3996 122.038 80.6371 122.063Z" fill="#161616"/>
<path d="M54.4499 125.65C57.2124 125.813 59.9499 126.15 62.6749 126.638C62.9124 126.675 63.0124 126.313 62.7749 126.275C60.0249 125.775 57.2499 125.45 54.4499 125.275C54.1999 125.263 54.2124 125.638 54.4499 125.65Z" fill="#161616"/>
<path d="M61.7125 125.613C63.925 125.938 66.1375 126.313 68.3375 126.725C68.575 126.775 68.675 126.413 68.4375 126.363C66.2375 125.95 64.025 125.575 61.8125 125.25C61.575 125.213 61.475 125.575 61.7125 125.613Z" fill="#161616"/>
<path d="M70.3372 126.513C70.3622 127.063 70.3997 127.613 70.4247 128.15C70.4372 128.388 70.8122 128.388 70.7997 128.15C70.7747 127.6 70.7372 127.05 70.7122 126.513C70.6997 126.275 70.3247 126.275 70.3372 126.513Z" fill="#161616"/>
<path d="M72.4248 126.625C74.2748 126.213 76.1123 125.75 77.9498 125.25C78.1873 125.188 78.0873 124.825 77.8498 124.888C76.0248 125.388 74.1748 125.85 72.3248 126.263C72.0873 126.313 72.1873 126.675 72.4248 126.625Z" fill="#161616"/>
<path d="M72.3622 127.313C72.8497 127.263 73.3247 127.188 73.7872 127.05C74.0247 126.988 73.9247 126.625 73.6872 126.688C73.2497 126.813 72.8122 126.888 72.3622 126.938C72.1247 126.963 72.1247 127.338 72.3622 127.313Z" fill="#161616"/>
<path d="M79.1121 125.325C80.2746 124.95 81.4371 124.575 82.5871 124.213C82.8121 124.138 82.7121 123.775 82.4871 123.85C81.3246 124.225 80.1621 124.6 79.0121 124.963C78.7871 125.038 78.8871 125.4 79.1121 125.325Z" fill="#161616"/>
<path d="M81.3622 124.013C81.8622 123.863 82.3747 123.725 82.8747 123.575C83.1122 123.513 83.0122 123.15 82.7747 123.213C82.2747 123.363 81.7622 123.5 81.2622 123.65C81.0372 123.713 81.1247 124.075 81.3622 124.013Z" fill="#161616"/>
<path d="M58.7624 127.063C58.8874 128.038 58.9374 129.013 58.8999 130C58.8874 130.238 59.2624 130.238 59.2749 130C59.3124 129.013 59.2624 128.038 59.1374 127.063C59.1124 126.825 58.7374 126.825 58.7624 127.063Z" fill="#161616"/>
<path d="M59.225 130.263C65 131.013 70.7625 131.75 76.5375 132.5C76.775 132.525 76.775 132.15 76.5375 132.125C70.7625 131.375 65 130.638 59.225 129.888C58.9875 129.85 58.9875 130.225 59.225 130.263Z" fill="#161616"/>
<path d="M76.2498 129.325C76.3123 130.3 76.3623 131.287 76.4248 132.262C76.4373 132.5 76.8123 132.5 76.7998 132.262C76.7373 131.287 76.6873 130.3 76.6248 129.325C76.6123 129.087 76.2373 129.075 76.2498 129.325Z" fill="#161616"/>
<path d="M76.4872 132.475C80.0997 130.725 83.7247 128.988 87.3372 127.238C87.5497 127.138 87.3622 126.812 87.1497 126.912C83.5372 128.662 79.9122 130.4 76.2997 132.15C76.0747 132.262 76.2747 132.588 76.4872 132.475Z" fill="#161616"/>
<path d="M76.4373 129.275C80.1373 127.95 83.7373 126.375 87.2248 124.55C87.4373 124.437 87.2498 124.112 87.0373 124.225C83.5873 126.025 80.0123 127.587 76.3373 128.912C76.1123 129 76.2123 129.362 76.4373 129.275Z" fill="#161616"/>
<path d="M86.8872 124.4C86.9122 125.338 86.9372 126.275 86.9622 127.2C86.9747 127.438 87.3497 127.438 87.3372 127.2C87.3122 126.263 87.2872 125.325 87.2622 124.4C87.2622 124.15 86.8872 124.15 86.8872 124.4Z" fill="#161616"/>
<path d="M83.85 124.2C84.8875 124.213 85.925 124.288 86.95 124.438C87.1875 124.475 87.2875 124.113 87.05 124.075C85.9875 123.925 84.925 123.838 83.85 123.825C83.6125 123.825 83.6125 124.2 83.85 124.2Z" fill="#161616"/>
<path d="M70.7247 128.75C71.9872 128.975 73.2622 129.113 74.5497 129.163C74.7872 129.175 74.7872 128.8 74.5497 128.788C73.2997 128.738 72.0622 128.613 70.8247 128.388C70.5872 128.338 70.4872 128.7 70.7247 128.75Z" fill="#161616"/>
<path d="M77.5373 129.837C78.9123 129.5 80.2248 129.025 81.4998 128.412C81.7123 128.312 81.5248 127.987 81.3123 128.087C80.0748 128.687 78.7873 129.137 77.4498 129.475C77.1998 129.525 77.2998 129.887 77.5373 129.837Z" fill="#161616"/>
<path d="M77.6874 130.813C78.7874 130.4 79.8499 129.913 80.8749 129.35C81.0874 129.238 80.8999 128.913 80.6874 129.025C79.6874 129.575 78.6624 130.05 77.5874 130.45C77.3624 130.538 77.4499 130.9 77.6874 130.813Z" fill="#161616"/>
<path d="M82.1746 127.688C83.5621 127.2 84.9371 126.638 86.2871 126.025C86.5121 125.925 86.3121 125.6 86.0996 125.7C84.7871 126.3 83.4496 126.838 82.0746 127.313C81.8496 127.4 81.9496 127.763 82.1746 127.688Z" fill="#161616"/>
<path d="M82.7124 128.512C84.0749 127.925 85.3749 127.225 86.6249 126.413C86.8249 126.275 86.6374 125.963 86.4374 126.088C85.1999 126.9 83.8874 127.6 82.5249 128.188C82.2999 128.288 82.4874 128.6 82.7124 128.512Z" fill="#161616"/>
<path d="M128.85 93.9875C131.413 103.438 133.975 112.888 136.525 122.338C137.25 125.038 137.988 127.725 138.713 130.425C138.838 130.888 139.563 130.688 139.438 130.225C136.875 120.775 134.313 111.325 131.763 101.875C131.038 99.175 130.3 96.4875 129.575 93.7875C129.45 93.325 128.725 93.525 128.85 93.9875Z" fill="#161616"/>
<path d="M121.463 94.3875C121.575 104.787 121.688 115.2 121.788 125.6C121.813 128.538 121.85 131.488 121.875 134.425C121.875 134.913 122.625 134.913 122.625 134.425C122.513 124.025 122.4 113.613 122.3 103.213C122.275 100.275 122.238 97.325 122.213 94.3875C122.213 93.9125 121.463 93.9125 121.463 94.3875Z" fill="#161616"/>
<path d="M111 93.05C108.775 103.213 106.625 113.388 104.55 123.588C103.963 126.475 103.388 129.363 102.813 132.238C102.713 132.713 103.438 132.913 103.538 132.438C105.575 122.238 107.675 112.05 109.863 101.875C110.475 99 111.1 96.125 111.738 93.25C111.825 92.775 111.1 92.575 111 93.05Z" fill="#161616"/>
<path d="M105.8 119.825C111.213 119.875 116.613 120 122.013 120.213C122.5 120.238 122.5 119.488 122.013 119.463C116.613 119.25 111.2 119.125 105.8 119.075C105.325 119.075 105.325 119.825 105.8 119.825Z" fill="#161616"/>
<path d="M122.288 120.05C122.788 120.125 123.175 119.925 123.638 119.738C124.2 119.513 124.763 119.275 125.325 119.038C126.325 118.613 127.325 118.188 128.325 117.75C130.488 116.8 132.625 115.813 134.738 114.8C135.175 114.588 134.788 113.95 134.363 114.15C132.425 115.088 130.475 115.988 128.5 116.863C127.513 117.3 126.525 117.725 125.525 118.15C125.013 118.363 124.513 118.575 124 118.788C123.6 118.95 122.913 119.388 122.475 119.325C122.013 119.263 121.8 119.988 122.288 120.05Z" fill="#161616"/>
<path d="M118.7 94.6C117.7 103.475 116.7 112.35 115.7 121.238C115.413 123.75 115.138 126.275 114.85 128.788C114.8 129.263 115.55 129.263 115.6 128.788C116.6 119.913 117.6 111.038 118.6 102.15C118.888 99.6375 119.163 97.1125 119.45 94.6C119.513 94.125 118.763 94.125 118.7 94.6Z" fill="#161616"/>
<path d="M116.638 115.763C122.575 115.625 128.488 115.25 134.413 114.863C134.888 114.838 134.9 114.075 134.413 114.113C128.488 114.5 122.575 114.863 116.638 115.013C116.15 115.025 116.15 115.775 116.638 115.763Z" fill="#161616"/>
<path d="M105.938 119.788C109.675 118.7 113.275 117.225 116.888 115.775C117.325 115.6 117.138 114.875 116.688 115.05C113.075 116.5 109.475 117.975 105.738 119.063C105.275 119.188 105.475 119.913 105.938 119.788Z" fill="#161616"/>
<path d="M124.488 84.4375C127.7 84.8625 130.363 85.75 132.4 86.625C132.438 88.8875 132.463 91.1375 132.5 93.4C130.15 94.45 126.55 95.7125 122.013 96.075C116.2 96.5375 111.538 95.3 108.85 94.3625C108.738 91.825 108.638 89.2875 108.525 86.75C111.475 85.475 117.288 83.4875 124.488 84.4375Z" fill="white" stroke="#161616" stroke-miterlimit="10"/>
<path d="M109.55 87.3375C110.525 88.425 111.925 88.8125 113.338 88.9875C115.163 89.225 117.038 89.3 118.888 89.3625C122.688 89.4875 126.538 89.275 130.15 87.975C130.375 87.9 130.275 87.5375 130.05 87.6125C126.613 88.85 122.963 89.1 119.35 89C117.625 88.95 115.9 88.85 114.175 88.7C112.613 88.5625 110.925 88.3 109.825 87.075C109.65 86.8875 109.388 87.1625 109.55 87.3375Z" fill="#161616"/>
<path d="M107.7 44.1125C106.85 44.2 106.325 44.85 105.287 46.2C102.487 49.825 100.462 53.0125 100.287 53.2875C99.925 53.85 98.6875 55.55 96.2 58.95C91.6125 65.2375 90.55 66.4 90.95 68.0375C91.4125 69.95 93.5 71.65 95.0375 71.375C95.9375 71.2125 96.475 70.4 97.2875 69.0375C98.3375 67.2625 99.6875 64.8625 101.125 61.875C104.875 59.325 107.337 56.65 108.875 54.7125C112 50.775 111.9 49.075 111.787 48.375C111.437 46.15 109.412 43.95 107.7 44.1125Z" fill="white" stroke="#161616" stroke-miterlimit="10"/>
<path opacity="0.09" d="M110.325 45.6875C109.712 45.7625 109.575 47.5375 109.337 48.6375C108.512 52.4375 105.525 52.825 100.575 58.4625C98.4998 60.8375 97.0248 63.0375 95.6623 65.1C94.3373 67.1 93.2998 68.85 92.5498 70.175C92.6748 70.4125 92.9998 70.9125 93.6123 71.1625C94.4373 71.4875 95.2373 71.125 95.4998 71C96.4873 70.5375 96.6623 69.825 98.2873 67.075C99.3248 65.3125 99.3123 65.5 99.7623 64.6125C100.587 62.975 100.525 62.4875 101.237 61.6625C101.862 60.925 102.312 60.9625 103.525 60.025C104.15 59.55 105.25 58.7 106.475 57.4875C106.837 57.1375 108.3 55.6625 109.837 53.3875C111.05 51.6 111.337 50.75 111.475 50.275C111.975 48.55 111.662 47.5375 111.562 47.25C111.337 46.6125 110.8 45.625 110.325 45.6875Z" fill="#3D3D3D"/>
<path opacity="0.18" d="M101.238 61.4875C101.075 61.3875 100.425 62.425 98.95 64.1125C95.2625 68.3 92.4875 69.6 92.8875 70.6625C93.125 71.275 94.275 71.4875 95.1 71.3125C96.275 71.0625 96.9 69.9125 98.125 67.625C101.125 62.0125 101.338 61.55 101.238 61.4875Z" fill="#3D3D3D"/>
<path d="M90.425 116.825C90.775 120.725 91.1125 124.625 91.4625 128.525C86.025 131.25 83.425 132.975 83.6875 133.713C84 134.613 88.65 134 97.6125 131.863C97.4375 126.438 97.2625 121 97.1 115.575C94.875 115.988 92.65 116.4 90.425 116.825Z" fill="#161616" stroke="#161616" stroke-miterlimit="10"/>
<path d="M108.263 72.2C106.35 73.6125 103.663 75.6 100.463 78.025C90.3876 85.6625 89.1251 86.825 88.0126 88.9625C86.9126 91.0625 86.5376 94.6 85.7751 101.688C85.2501 106.55 85.2126 110.3 85.2376 112.438C85.2626 114.825 85.3876 116.863 85.5126 118.438C86.1001 118.963 88.3251 120.8 91.7001 120.863C95.6876 120.925 98.2376 118.45 98.6876 118C98.3001 115.7 97.9876 113.213 97.7876 110.563C97.4251 105.713 97.5376 101.313 97.8751 97.475C100.55 95.3625 104.3 92.3125 108.625 88.425C117.863 80.125 118.475 78.1625 118.125 76.775C117.325 73.675 111.4 72.5875 108.263 72.2Z" fill="white" stroke="#161616" stroke-miterlimit="10"/>
<path opacity="0.12" d="M112.425 73.15C111.087 73.6 111.8 76.625 110.9 79.4375C109.875 82.65 107.512 83.5125 101.662 87.9625C99.7624 89.4 97.0499 91.6125 93.9499 94.6625C93.9999 100.275 93.8249 106.238 93.3374 112.525C93.1124 115.375 92.8374 118.163 92.5249 120.85C93.3499 120.738 94.3999 120.5 95.5749 120.038C96.8874 119.513 97.9124 118.85 98.6249 118.313C98.2249 115.938 97.9124 113.363 97.7124 110.6C97.3624 105.75 97.4874 101.35 97.8124 97.5C100.037 95.625 101.85 94.15 103.087 93.1375C104.762 91.775 105.612 91.1125 107.05 89.8875C107.875 89.1875 108.712 88.45 110.8 86.5375C116.175 81.6375 117.65 80.0875 118.012 77.9125C118.187 76.8 117.962 76.2 117.812 75.8875C117.35 74.975 116.387 74.5625 114.462 73.75C113.312 73.2875 112.737 73.0375 112.425 73.15Z" fill="#3D3D3D"/>
<path opacity="0.15" d="M97.7001 97.4125C97.1251 99.9 96.6126 102.538 96.1751 105.325C95.3376 110.675 94.9626 115.65 94.8501 120.15C96.1376 119.513 97.4251 118.863 98.7126 118.225C98.2501 115.15 97.8876 111.75 97.7001 108.075C97.5126 104.213 97.5376 100.65 97.7001 97.4125Z" fill="#3D3D3D"/>
<path opacity="0.09" d="M116.988 75.175C116.1 75.1 115.3 77.1375 114.75 78.325C113.563 80.925 110.338 84.325 103.888 91.1125C102.338 92.75 100.25 94.875 97.7002 97.3C98.3752 96.8125 99.2877 96.1625 100.338 95.375C102.713 93.5875 104.125 92.3875 108.663 88.475C108.663 88.475 110.3 87.0625 116.988 80.05C117.338 79.6875 118.188 78.7625 118.2 77.5125C118.225 76.4625 117.65 75.2375 116.988 75.175Z" fill="#3D3D3D"/>
<path d="M112.225 42.825C112.175 42.825 111.975 42.8375 111.7 42.8625C111.138 42.9125 110.25 43.0125 109.2 43.2875C108.35 43.5 107.675 43.75 107.275 43.9125C106.563 45.375 105.663 47.6375 105.325 50.5C104.838 54.575 105.813 57.2 106.475 61.2625C106.925 64.05 107.3 68.0875 106.788 73.2C107.863 74.2 110.663 76.5375 114.938 77.1375C120.975 78 125.413 74.75 126.325 74.05C126.6 72.325 126.863 70.575 127.125 68.8C127.125 68.8 127.513 66.125 127.888 63.1875C128.775 56.35 129.688 47.1375 129.8 45.9875C126.588 42.7375 123.925 41.9875 122.075 41.925C119.675 41.8375 114.175 42.725 112.225 42.825Z" fill="#F66F5D"/>
<path opacity="0.17" d="M116.95 45.5375C117.613 46.225 118.5 47.275 119.3 48.7C123.15 55.525 120.763 63.4875 119.7 67.025C118.963 69.5 117.563 73.1375 114.788 77.05C115.85 77.2375 117.175 77.3375 118.688 77.1875C122.3 76.825 124.913 75.15 126.225 74.1625C127.125 68.2 127.963 62.0875 128.713 55.8375C129.1 52.6125 129.45 49.4375 129.788 46.275C129.225 45.575 128.3 44.5625 126.913 43.7C125.813 43.0125 124.225 42.0125 122.25 42.1125C119.15 42.2875 117.238 45.1125 116.95 45.5375Z" fill="#3D3D3D"/>
<path d="M88.5874 52.5875C88.7124 52.5875 88.8499 52.5875 88.9749 52.5875C89.0124 52.45 89.0499 52.3 89.0874 52.1625C89.2374 52.475 89.4874 52.9875 89.7999 53.625C91.1749 56.4125 91.4499 56.875 91.6999 57.7125C91.8999 58.4 92.1374 59.3875 92.2124 60.65C92.4499 60.4875 92.7999 60.2625 93.2499 60.0125C95.6749 58.6875 97.6999 58.675 99.5249 58.35C100.887 58.1 102.8 57.55 105.037 56.2125C104.9 56.4 104.762 56.6 104.625 56.7875C104.837 56.8625 105.062 56.95 105.275 57.025C105.4 57.1875 105.562 57.45 105.7 57.7875C106.425 59.575 105.35 61.5375 104.312 63.3375C100.075 70.7875 99.6374 71.175 98.8749 71.55C98.5624 71.7125 95.4124 73.25 93.1749 71.825C92.7124 71.5375 91.8749 70.85 90.7999 65.9875C90.0624 62.675 89.9749 60.825 89.2749 56.475C88.9999 54.825 88.7499 53.475 88.5874 52.5875Z" fill="white" stroke="#191919" stroke-miterlimit="10"/>
<path d="M89.2999 53.275C90.3624 55.55 91.4124 57.8625 91.7374 60.3625C91.7499 60.425 91.8374 60.425 91.8374 60.3625C91.5124 57.8375 90.4624 55.5125 89.3874 53.225C89.3499 53.175 89.2749 53.2125 89.2999 53.275Z" fill="#191919"/>
<path d="M88.8873 52.875C89.5123 54.2 90.0248 55.5626 90.4498 56.9626C90.4623 57.0251 90.5623 57 90.5373 56.9375C90.1123 55.525 89.5873 54.1625 88.9623 52.825C88.9498 52.775 88.8623 52.8125 88.8873 52.875Z" fill="#191919"/>
<path d="M90.5998 56.8876C91.0123 58.0126 91.2873 59.1751 91.4498 60.3626C91.4623 60.4251 91.5499 60.4251 91.5499 60.3626C91.3874 59.1626 91.1123 58.0001 90.6998 56.8626C90.6748 56.8001 90.5873 56.8251 90.5998 56.8876Z" fill="#191919"/>
<path d="M89.525 55.1C90.1 56.5125 90.5999 57.9625 91.0124 59.4375C91.0249 59.5 91.1249 59.475 91.0999 59.4125C90.6874 57.9375 90.1875 56.4875 89.6125 55.075C89.5875 55.025 89.5 55.05 89.525 55.1Z" fill="#191919"/>
<path d="M92.4251 60.9625C93.9876 59.925 95.7376 59.25 97.6001 58.9875C97.6626 58.975 97.6376 58.8875 97.5751 58.9C95.7001 59.1625 93.9501 59.8375 92.3751 60.875C92.3376 60.9125 92.3751 61 92.4251 60.9625Z" fill="#191919"/>
<path d="M93.2123 60.8C94.8373 59.8125 96.6748 59.4375 98.4998 59.025C100.437 58.5875 102.325 58 104.162 57.25C104.212 57.225 104.187 57.1375 104.137 57.1625C102.237 57.95 100.275 58.5375 98.2623 58.9875C96.4998 59.3875 94.7248 59.775 93.1623 60.725C93.1123 60.75 93.1623 60.8375 93.2123 60.8Z" fill="#191919"/>
<path d="M92.9127 61.25C94.8377 60.3375 96.8002 59.775 98.8627 59.275C100.888 58.775 102.85 58 104.825 57.325C104.888 57.3 104.863 57.2125 104.8 57.2375C102.763 57.9375 100.725 58.75 98.6252 59.2375C96.6377 59.7125 94.7252 60.3 92.8627 61.175C92.8002 61.1875 92.8502 61.275 92.9127 61.25Z" fill="#191919"/>
<path d="M88.5125 52.5626C89.425 55.4501 90.35 58.3251 91.2625 61.2126C91.7125 61.3626 92.1625 61.5126 92.6125 61.6626C96.8875 60.2501 101.15 58.8501 105.425 57.4376C105.575 57.5626 105.725 57.6876 105.875 57.8251C106.362 63.7626 106.862 69.6876 107.35 75.6251C107.175 75.7376 107.013 75.8376 106.838 75.9501C102.5 76.6126 98.175 77.2751 93.8375 77.9376C93.2125 77.7876 92.6 77.6376 91.975 77.4876C91.425 75.0501 90.8625 72.6251 90.3125 70.1876C89.5 64.4251 88.6875 58.6626 87.875 52.9001C88.0875 52.7751 88.3 52.6626 88.5125 52.5626Z" fill="white" stroke="#191919" stroke-miterlimit="10"/>
<path d="M91.0624 61.2875C91.2624 66.7 91.6499 72.125 91.9499 77.5375C91.9624 77.7125 92.2374 77.7125 92.2374 77.5375C91.9374 72.125 91.5499 66.7125 91.3499 61.2875C91.3374 61.1 91.0499 61.1 91.0624 61.2875Z" fill="#191919"/>
<path d="M92.3624 61.625C92.5374 63.1625 92.6124 64.7 92.6124 66.25C92.6124 66.425 92.8874 66.425 92.8999 66.25C92.8999 64.7 92.8249 63.1625 92.6499 61.625C92.6124 61.45 92.3374 61.45 92.3624 61.625Z" fill="#191919"/>
<path opacity="0.16" d="M100.137 59.3125C100.187 60.5625 100.15 63.3625 98.5498 66.375C96.8498 69.575 94.3623 71.225 93.2873 71.85C93.2373 70.825 93.1748 69.8 93.1248 68.7875C92.6998 69.5 92.2873 70.2126 91.8623 70.9251C91.9498 73.1501 92.0498 75.3751 92.1373 77.6126C92.7373 77.7376 93.3373 77.8625 93.9498 78C98.1623 77.3251 102.387 76.65 106.6 75.975C106.825 75.8875 107.037 75.7875 107.262 75.7C106.787 69.6875 106.312 63.6875 105.837 57.675C103.937 58.2125 102.037 58.7625 100.137 59.3125Z" fill="#6C6D6D"/>
<path opacity="0.1" d="M92.4248 61.7501C92.3373 61.7501 92.2373 64.0626 92.2998 66.5751C92.3748 70.1501 92.7123 71.7126 92.6123 75.1251C92.5748 76.2376 92.5123 77.1501 92.4623 77.7376C92.9248 77.8001 93.3998 77.8626 93.8623 77.9251C93.7748 77.3126 93.6498 76.4251 93.5248 75.3626C92.5373 67.4126 92.5623 61.7501 92.4248 61.7501Z" fill="#6C6D6D"/>
<path d="M95.7874 62.4501C98.7624 61.7501 101.687 60.8751 104.562 59.8251C104.787 59.7376 104.687 59.3751 104.462 59.4626C101.587 60.5001 98.6624 61.3751 95.6874 62.0876C95.4624 62.1501 95.5624 62.5126 95.7874 62.4501Z" fill="#191919"/>
<path d="M89.0372 62.825C88.8997 62.875 88.9122 63.125 88.7997 64.2875C88.7247 65.075 88.6997 65.0875 88.7247 65.275C88.7872 65.8 88.9747 65.9 89.0372 66.5C89.0747 66.8875 88.9997 66.9375 89.0622 67.2625C89.1372 67.6625 89.3122 67.9625 89.4497 68.15C89.4497 68.275 89.4747 68.4875 89.5747 68.7C89.7747 69.0875 90.2372 69.425 90.4872 69.3C90.6247 69.2375 90.6622 68.975 90.7247 68.4625C90.7872 67.9875 90.7497 67.9625 90.7997 67.4125C90.8497 66.9625 90.8872 66.875 90.8497 66.65C90.8122 66.375 90.7122 66.2875 90.6122 66C90.4747 65.6 90.5372 65.45 90.4497 65.0375C90.3247 64.35 89.9997 63.8625 89.8247 63.6C89.6497 63.325 89.2747 62.75 89.0372 62.825Z" fill="white"/>
<path d="M88.95 62.7125C88.275 64.175 88.95 65.8125 90.475 66.35C90.65 66.4125 90.725 66.1375 90.55 66.075C89.2 65.6 88.6 64.15 89.2 62.85C89.2625 62.6875 89.025 62.55 88.95 62.7125Z" fill="#191919"/>
<path d="M88.9998 62.9375C89.8998 63.775 90.4248 64.875 90.4998 66.1C90.5123 66.275 90.7873 66.275 90.7873 66.1C90.7123 64.8 90.1623 63.625 89.1998 62.7375C89.0623 62.6125 88.8623 62.8125 88.9998 62.9375Z" fill="#191919"/>
<path d="M88.6249 64.4625C88.2999 65.925 89.1624 67.3125 90.6499 67.625C90.8249 67.6625 90.8999 67.3875 90.7249 67.35C89.3999 67.075 88.5999 65.8625 88.8999 64.525C88.9374 64.35 88.6624 64.275 88.6249 64.4625Z" fill="#191919"/>
<path d="M88.8998 66.3C88.6373 67.4125 89.3123 68.475 90.4373 68.6875C90.6123 68.725 90.6873 68.45 90.5123 68.4125C89.5373 68.2375 88.9373 67.35 89.1623 66.375C89.2123 66.2 88.9498 66.125 88.8998 66.3Z" fill="#191919"/>
<path d="M89.2626 68.0875C89.2126 68.625 89.5251 69.1625 90.0251 69.3625C90.2376 69.45 90.5126 69.4625 90.6751 69.275C90.8501 69.075 90.7751 68.775 90.6751 68.5625C90.6126 68.4 90.3376 68.475 90.4001 68.6375C90.4626 68.775 90.5876 69.05 90.3876 69.1375C90.2376 69.2 90.0001 69.05 89.8876 68.9625C89.6251 68.75 89.5001 68.425 89.5376 68.0875C89.5626 67.9 89.2751 67.9125 89.2626 68.0875Z" fill="#191919"/>
<path d="M90.5497 68.675C90.8247 68.675 90.9372 68.4 90.9747 68.1625C91.0247 67.875 90.9747 67.575 90.8247 67.325C90.7372 67.1625 90.4872 67.3125 90.5872 67.4625C90.6747 67.6125 90.7247 67.775 90.7247 67.9375C90.7247 68.025 90.6997 68.3875 90.5497 68.3875C90.3747 68.3875 90.3747 68.675 90.5497 68.675Z" fill="#191919"/>
<path d="M90.8996 67.525C91.0746 67.3625 91.0746 67.05 91.0371 66.825C90.9996 66.5375 90.8746 66.2875 90.6746 66.075C90.5496 65.9375 90.3496 66.1375 90.4746 66.275C90.5996 66.4125 90.6996 66.575 90.7371 66.775C90.7621 66.9125 90.7996 67.2125 90.6871 67.325C90.5621 67.45 90.7621 67.65 90.8996 67.525Z" fill="#191919"/>
<path d="M103.912 107.787C104.375 110.587 104.825 113.4 105.287 116.2C100.15 119.85 97.7622 122 98.1247 122.675C98.5497 123.462 102.75 122.2 110.725 118.887C110.437 114.312 110.15 109.75 109.85 105.175C107.875 106.05 105.887 106.912 103.912 107.787Z" fill="#161616" stroke="#161616" stroke-miterlimit="10"/>
<path d="M126.387 73.9625C126.587 75.625 126.662 78.2875 125.675 81.2875C125.25 82.5625 124.537 84.65 122.662 86.6125C121.462 87.8625 119.362 90.0625 116.3 89.975C113.825 89.9 112.075 88.3875 111.437 87.775C111.25 90.125 111.15 92.675 111.2 95.4125C111.275 99.625 111.687 103.438 112.237 106.763C110.737 109.538 107.862 111.25 104.825 111.163C100.925 111.05 98.7123 108.038 98.4623 107.688C97.5623 99.225 97.4873 92.1875 97.6498 86.9625C97.7873 82.7 98.0873 79.175 100.662 76.3125C103.175 73.5125 106.5 72.875 107.375 72.725C113.775 71.5875 118.612 76.1 119.187 76.6625C120.112 76.725 121.925 76.7 123.875 75.7625C125.025 75.2 125.85 74.5 126.387 73.9625Z" fill="white" stroke="#161616" stroke-miterlimit="10"/>
<path d="M111.637 84.1375C111.287 85.7 111.1 87.2875 111.062 88.8875C111.062 89.125 111.438 89.125 111.438 88.8875C111.475 87.3125 111.65 85.7625 111.988 84.2375C112.05 84 111.687 83.9 111.637 84.1375Z" fill="#161616"/>
<path d="M111.725 86.1375C111.9 85.75 112.062 85.3625 112.237 84.9625C112.337 84.7375 112.012 84.55 111.912 84.775C111.737 85.1625 111.575 85.55 111.4 85.95C111.3 86.1625 111.625 86.35 111.725 86.1375Z" fill="#161616"/>
<path d="M118.725 76.475C119.562 77.275 120.137 78.425 120.762 79.4C120.887 79.6 121.212 79.4125 121.087 79.2125C120.437 78.2125 119.85 77.05 118.987 76.2125C118.812 76.0375 118.55 76.3 118.725 76.475Z" fill="#161616"/>
<path opacity="0.09" d="M122.4 76.2125C122.425 76.8125 122.425 77.6375 122.325 78.625C122.087 80.9375 121.887 82.9 120.612 83.75C119.125 84.75 116.862 83.8 116.025 83.4375C113.125 82.2125 112.787 80.1625 111.125 80.0125C109.162 79.8375 107.125 82.4625 106.15 84.525C103.737 89.5875 106.475 93.55 106.775 102.638C106.887 106.288 106.562 109.238 106.312 111.038C106.962 110.963 107.812 110.775 108.725 110.338C110.837 109.325 111.9 107.588 112.3 106.838C112.212 106.15 112.087 105.088 111.912 103.8C111.487 100.663 111.35 100.325 111.212 98.975C111.15 98.3625 111.1 97.675 111.212 93.225C111.25 91.9125 111.287 90.1 111.362 87.9375C111.7 88.175 112.162 88.475 112.762 88.7875C113.175 89 114.625 89.7625 115.95 89.95C118.062 90.25 119.862 89.0625 120.775 88.475C123.262 86.8375 124.337 84.5375 125.05 82.95C126.637 79.4375 126.687 76.1375 126.525 74.0875C126.087 74.5625 125.275 75.325 124.037 75.8C123.412 76.05 122.85 76.1625 122.4 76.2125Z" fill="#3D3D3D"/>
<path opacity="0.11" d="M126.05 76.675C125.762 76.575 124.9 78.2625 124.8 78.4625C123.987 80.075 124.012 81.1125 123.712 82.1125C123.125 84.1125 121.225 86.125 119.287 86.625C116.025 87.4625 113.287 83.85 111.825 84.9875C111.137 85.525 111.175 86.75 111.437 87.475C112.187 89.5625 115.587 89.7125 116.025 89.725C118.987 89.825 121.162 87.9875 121.85 87.3875C126.25 83.5875 126.575 76.8625 126.05 76.675Z" fill="#3D3D3D"/>
<path opacity="0.11" d="M111.662 84.8375C111.45 84.8 110.787 86.9 110.337 88.9625C109.425 93.1625 109.537 96.4 109.562 97.975C109.6 100.9 109.35 105.088 108.087 110.413C108.6 110.288 109.387 110.013 110.187 109.4C111.412 108.463 111.937 107.288 112.125 106.763C111.875 104.025 111.7 101.7 111.575 99.925C111.275 95.6375 111.125 93.45 111.187 91.45C111.325 87.4625 111.9 84.8875 111.662 84.8375Z" fill="#3D3D3D"/>
<path d="M106.037 64.3875C106.15 64.0625 106.9 64.0625 107.1 64.0625C107.975 64.0625 108.675 64.6375 108.9 65.125C108.962 65.2625 108.975 65.375 108.975 65.4375C109 65.775 108.8 66.1125 108.625 66.225C107.975 66.6375 105.812 65.025 106.037 64.3875Z" fill="white" stroke="#161616" stroke-miterlimit="10"/>
<path d="M128.837 45.1375C130.825 46.3625 130.587 49.825 130.287 54.1625C129.95 58.95 128.8 62.3125 128.362 63.5375C127.587 65.65 126.725 67.3625 126.012 68.5875C123.437 69.6875 119.337 70.9875 114.262 70.7625C112.425 70.675 110.787 70.4125 109.375 70.075C107.687 71.2375 106.325 71.225 105.737 71.1625C104.825 71.075 103.625 70.6625 103.637 70.2625C103.637 69.9875 104.225 69.7625 104.487 69.6625C105.125 69.4125 105.687 69.4375 105.687 69.4125C105.687 69.3875 105.225 69.4125 104.737 69.3625C104.412 69.325 103.775 69.275 103.225 68.9875C103.025 68.8875 102.037 68.4 101.85 67.45C101.675 66.5875 102.2 65.6125 103.162 65.0375C104.05 64.8 105.612 64.5125 107.5 64.85C108.9 65.1 109.975 65.6 110.687 65.9875C114.05 65.1625 117.412 64.325 120.762 63.5C120.825 62.8 120.937 61.775 121.075 60.5125C121.512 56.525 121.725 54.525 122.062 52.8375C122.887 48.6875 123.425 45.975 125.525 45.025C126.462 44.6125 127.825 44.5125 128.837 45.1375Z" fill="white" stroke="#161616" stroke-miterlimit="10"/>
<path opacity="0.18" d="M126.875 44.85C127.287 47.4125 127.662 51.2 127.325 55.75C126.95 60.7625 126.737 63.2625 124.962 65.3375C122.3 68.45 116.562 70.0125 112.1 68.75C110.375 68.2625 107.887 67.15 104.837 67.775C103.962 67.95 102.625 68.3625 102.65 68.6875C102.675 68.9375 103.575 69.1875 104.212 69.2625C104.7 69.3125 105.012 69.275 105.037 69.375C105.112 69.6125 103.7 70.0125 103.737 70.425C103.762 70.775 104.875 71.05 105.787 71.075C106.487 71.1 107.725 71.0125 109.225 70.15C110.55 70.4625 112.062 70.725 113.725 70.825C119.037 71.15 123.387 69.7625 126.1 68.5875C126.65 67.6 127.35 66.2125 128.025 64.4875C130.112 59.1875 130.35 54.775 130.387 53.575C130.462 51.775 130.4 49.25 129.812 46.2625C129.725 46.075 129.35 45.3625 128.487 44.9875C127.762 44.675 127.1 44.8 126.875 44.85Z" fill="#3D3D3D"/>
<path opacity="0.21" d="M123.537 68.65C121.6 68.95 120.475 69.2625 119.6 69.4375C116.05 70.1875 113.175 69.85 112.162 69.725C111.125 69.6125 110.275 69.4375 109.687 69.3125C108.975 69.6 107.912 69.9625 106.587 70.1125C104.887 70.3 103.675 70.05 103.637 70.2625C103.6 70.4625 104.637 70.9875 105.737 71.1125C107.412 71.3 108.775 70.4875 109.387 70.0625C110.162 70.275 111.275 70.55 112.637 70.7125C119.875 71.6 126.237 68.6 126.162 68.325C126.15 68.2375 125.275 68.375 123.537 68.65Z" fill="#3D3D3D"/>
<path d="M102.6 68.675C103.775 68.175 105.05 68.075 106.287 68.3625C106.525 68.4125 106.625 68.05 106.387 68C105.037 67.6875 103.687 67.8 102.412 68.35C102.187 68.45 102.387 68.775 102.6 68.675Z" fill="#161616"/>
<path d="M101.937 67.475C103.325 66.975 104.775 66.8125 106.237 67C106.475 67.025 106.475 66.65 106.237 66.625C104.75 66.4375 103.25 66.6 101.837 67.1125C101.612 67.2 101.712 67.5625 101.937 67.475Z" fill="#161616"/>
<path d="M102.287 66.2C103.662 65.8 105.062 65.65 106.487 65.75C106.725 65.7625 106.725 65.3875 106.487 65.375C105.037 65.275 103.587 65.4375 102.187 65.8375C101.95 65.9 102.05 66.2625 102.287 66.2Z" fill="#161616"/>
<path d="M108.9 25.15C105.413 27.975 105.55 33.725 106.925 37.4375C107.788 39.7875 109.188 41.4 110.088 42.2875C110.313 43.2375 110.525 44.2 110.75 45.15C111.85 45.3875 113.3 45.575 114.988 45.425C118.788 45.075 121.463 43.225 122.65 42.2625C121.813 40.1875 120.975 38.1125 120.138 36.025C120.025 35.2625 119.863 34.0875 119.663 32.6625C119.15 28.925 119.175 28.725 118.95 28.125C118.85 27.875 117.438 24.3 114.125 23.6625C111.438 23.15 109.225 24.875 108.9 25.15Z" fill="white" stroke="#161616" stroke-miterlimit="10"/>
<path d="M106.025 34.7125C105.825 35.5 105.612 36.725 105.762 38.2125C105.862 39.2 106.025 40.9125 107.262 42.5625C108.6 44.35 110.412 45.025 111.175 45.275C111.112 45.075 111.05 44.825 111.012 44.5375C110.975 44.225 110.987 43.95 111.012 43.7375C111.837 44.175 112.662 44.625 113.475 45.0625C115.55 43.1625 116.237 41.4375 116.475 40.175C116.662 39.1875 116.775 37.375 117.225 34.075C117.3 33.4875 117.462 32.425 118.137 32.1625C118.45 32.0375 118.875 32.0875 119.162 32.325C119.987 33.0125 119.15 34.975 119.325 35.0375C119.5 35.0875 120.937 33.1125 120.45 30.8375C120.2 29.6625 119.512 28.85 119.112 28.45C118.212 29.8625 117.212 31.3125 116.112 32.8C115.412 33.75 114.712 34.65 114.025 35.5125C113.762 35.65 113.375 35.8125 112.925 35.775C112.575 35.75 112.45 35.625 112.187 35.55C111.212 35.275 110.687 36.4125 109.737 36.2625C108.95 36.1375 108.875 35.3 108.012 35.275C107.6 35.2625 107.425 35.45 107 35.3625C106.55 35.2625 106.237 34.9625 106.025 34.7125Z" fill="#161616" stroke="#161616" stroke-miterlimit="10"/>
<path d="M110.05 31.375C109.75 32.7375 109.563 34.1125 109.488 35.5C109.475 35.65 109.65 35.725 109.775 35.6625C110.263 35.4125 110.75 35.1625 111.25 34.9125C111.463 34.8 111.275 34.475 111.063 34.5875C110.575 34.8375 110.088 35.0875 109.588 35.3375C109.688 35.3875 109.775 35.45 109.875 35.5C109.963 34.1375 110.138 32.8 110.425 31.475C110.463 31.2375 110.1 31.1375 110.05 31.375Z" fill="#161616"/>
<path d="M108.088 32.1375C108.225 32.35 108.25 32.675 108.138 32.7375C108 32.8125 107.613 32.525 107.563 32.2C107.55 32.1 107.563 31.925 107.65 31.875C107.775 31.8125 107.988 31.975 108.088 32.1375Z" fill="#161616" stroke="#161616" stroke-miterlimit="10"/>
<path d="M107.438 30.85C107.875 30.625 108.4 30.6625 108.8 30.975C108.988 31.125 109.25 30.8625 109.063 30.7125C108.538 30.2875 107.85 30.2125 107.25 30.525C107.038 30.6375 107.225 30.9625 107.438 30.85Z" fill="#161616"/>
<path d="M111.8 31.0375C112.425 30.625 113.275 30.7625 113.7 31.3875C113.838 31.5875 114.163 31.4 114.025 31.2C113.488 30.425 112.413 30.1875 111.613 30.7125C111.413 30.85 111.6 31.175 111.8 31.0375Z" fill="#161616"/>
<path d="M103.275 28.65C108.263 28.9375 113.25 29.3625 118.213 29.9C118.938 29.975 118.925 28.85 118.213 28.775C113.25 28.2375 108.263 27.8125 103.275 27.525C102.55 27.4875 102.55 28.6125 103.275 28.65Z" fill="#161616"/>
<path d="M106.513 27.8875C106.588 27.125 106.9 25.1625 108.425 23.575C110.413 21.5 114.075 20.625 116.925 22.3875C119.163 23.775 120.35 26.45 119.95 29.175C115.463 28.75 110.988 28.3125 106.513 27.8875Z" fill="#F66F5D"/>
<path opacity="0.69" d="M112.813 21.8375C112.225 22.325 112.225 23.3375 112.438 24.425C112.663 25.6125 113.238 27.0625 114.113 28.5375C116.05 28.7625 118 28.9875 119.938 29.2125C120.025 28.8 120.1 28.1875 120.025 27.45C120.025 27.45 119.9 26.1125 119.188 24.9C117.763 22.5 114.038 20.8125 112.813 21.8375Z" fill="#EC5C49"/>
<path opacity="0.24" d="M118.9 35.625C118.463 35.8625 118.025 35.8 117.875 35.775C118.063 36.1375 118.45 36.9125 118.725 38C118.975 39.025 119.338 40.425 118.863 42.0375C118.438 43.475 117.538 44.425 116.925 44.95C117.675 44.8125 118.663 44.55 119.75 44.0125C121.013 43.3875 121.913 42.6375 122.5 42.0625C121.575 39.45 120.663 36.8375 119.738 34.225C119.738 34.275 119.688 35.2125 118.9 35.625Z" fill="#3D3D3D"/>
<path opacity="0.19" d="M114.525 29.475C114.663 30.075 114.787 30.975 114.637 32.0375C114.387 33.825 113.525 35.0625 113.062 35.625C113.338 35.5375 113.612 35.45 113.887 35.3625C114.437 34.7 114.987 34 115.537 33.275C116.437 32.0875 117.275 30.925 118.025 29.7875C116.863 29.7 115.688 29.5875 114.525 29.475Z" fill="#3D3D3D"/>
<path d="M112.825 32.25C112.962 32.4625 112.988 32.7875 112.875 32.85C112.738 32.925 112.35 32.6375 112.3 32.3125C112.288 32.2125 112.3 32.0375 112.387 31.9875C112.512 31.925 112.712 32.0875 112.825 32.25Z" fill="#161616" stroke="#161616" stroke-miterlimit="10"/>
<path d="M107.35 35.375C108.6 35.375 109.613 34.3621 109.613 33.1125C109.613 31.863 108.6 30.85 107.35 30.85C106.101 30.85 105.088 31.863 105.088 33.1125C105.088 34.3621 106.101 35.375 107.35 35.375Z" stroke="#161616" stroke-miterlimit="10"/>
<path d="M112.613 35.375C113.862 35.375 114.875 34.3621 114.875 33.1125C114.875 31.863 113.862 30.85 112.613 30.85C111.363 30.85 110.35 31.863 110.35 33.1125C110.35 34.3621 111.363 35.375 112.613 35.375Z" stroke="#161616" stroke-miterlimit="10"/>
<path d="M109.875 33.1875C109.925 33.125 110.025 33.1 110.088 33.15C110.163 33.2125 110.275 33.225 110.35 33.15C110.413 33.0875 110.425 32.95 110.35 32.8875C110.138 32.7 109.8 32.7 109.613 32.925C109.55 33 109.538 33.1125 109.613 33.1875C109.675 33.2625 109.813 33.2625 109.875 33.1875Z" fill="#161616"/>
<path d="M105.275 33.2625C105.513 33.1375 105.75 33 105.975 32.85C106.175 32.725 105.988 32.4 105.788 32.525C105.563 32.675 105.325 32.8125 105.088 32.9375C104.863 33.05 105.063 33.375 105.275 33.2625Z" fill="#161616"/>
<path d="M115.013 33.225C116.05 32.9625 117.1 32.7125 118.138 32.45C118.375 32.3875 118.275 32.025 118.038 32.0875C117 32.35 115.95 32.6 114.913 32.8625C114.675 32.925 114.775 33.2875 115.013 33.225Z" fill="#161616"/>
</svg>
