<svg width="32" height="32" viewBox="0 0 32 32" fill="none" xmlns="http://www.w3.org/2000/svg">
<path d="M29.6838 24.3056C29.6988 24.2594 29.709 24.2106 29.709 24.1593V7.21859C29.709 7.16693 29.6988 7.11783 29.6835 7.07127C29.6813 7.06489 29.68 7.05851 29.6774 7.05214C29.657 6.99761 29.627 6.9485 29.5894 6.90546C29.5869 6.90259 29.5866 6.89908 29.584 6.89621C29.5824 6.89462 29.5805 6.89398 29.5789 6.89238C29.5387 6.84965 29.4912 6.81522 29.438 6.78939C29.4338 6.78747 29.4306 6.78492 29.4265 6.78301C29.3761 6.76037 29.3213 6.74762 29.2635 6.74379C29.2578 6.74347 29.2524 6.74219 29.2466 6.74219C29.2412 6.74188 29.2364 6.7406 29.231 6.7406H2.69933C2.69391 6.7406 2.68881 6.74188 2.68339 6.74219C2.67828 6.74251 2.67318 6.74347 2.66808 6.74379C2.60973 6.74762 2.55392 6.76069 2.5029 6.78365C2.49972 6.78492 2.49716 6.78716 2.49398 6.78843C2.43977 6.81426 2.39162 6.84934 2.35112 6.8927C2.34953 6.8943 2.34761 6.89462 2.34602 6.89621C2.34347 6.89876 2.34315 6.90227 2.3406 6.90514C2.30297 6.94819 2.27268 6.99761 2.25227 7.05214C2.24972 7.05851 2.24844 7.06489 2.24621 7.07159C2.23091 7.11814 2.2207 7.16725 2.2207 7.21891V24.1599C2.2207 24.2122 2.23123 24.2619 2.24685 24.3091C2.24908 24.3155 2.25036 24.3216 2.25259 24.3279C2.27332 24.3828 2.30393 24.4322 2.34187 24.4753C2.34411 24.4778 2.34474 24.481 2.34698 24.4835C2.34889 24.4858 2.35144 24.4871 2.35367 24.4893C2.3693 24.5056 2.38652 24.5199 2.40437 24.5339C2.41234 24.54 2.41936 24.5473 2.42765 24.5531C2.4487 24.5677 2.47134 24.5795 2.49461 24.5904C2.50035 24.5929 2.50546 24.5971 2.51119 24.5993C2.56891 24.6239 2.63237 24.6379 2.69901 24.6379H29.2304C29.297 24.6379 29.3605 24.6242 29.4182 24.5993C29.4271 24.5955 29.4354 24.5897 29.444 24.5853C29.4638 24.5754 29.4836 24.5652 29.5017 24.5527C29.5113 24.546 29.5199 24.5374 29.5292 24.5301C29.5454 24.517 29.5614 24.504 29.5754 24.489C29.5779 24.4864 29.5808 24.4845 29.5834 24.482C29.5859 24.4791 29.5866 24.4753 29.5891 24.4724C29.6264 24.4297 29.6564 24.3806 29.6768 24.3263C29.68 24.3193 29.6816 24.3126 29.6838 24.3056ZM3.17764 8.30339L11.2282 15.6569L3.17764 23.069V8.30339ZM19.6779 15.2966C19.6448 15.3182 19.6097 15.3364 19.582 15.367C19.5714 15.3785 19.5679 15.3935 19.5587 15.4056L15.965 18.6881L3.93209 7.6969H27.9979L19.6779 15.2966ZM11.9373 16.3045L15.6423 19.6887C15.7338 19.7722 15.8493 19.814 15.965 19.814C16.0808 19.814 16.1962 19.7722 16.2874 19.6887L19.9464 16.3466L27.9957 23.6813H3.92507L11.9373 16.3045ZM20.6559 15.6986L28.7524 8.30339V23.0767L20.6559 15.6986Z" fill="#F66F5D"/>
</svg>
