<svg width="45" height="45" viewBox="0 0 45 45" fill="none" xmlns="http://www.w3.org/2000/svg">
<path fill-rule="evenodd" clip-rule="evenodd" d="M22.5 0C10.0736 0 0 10.0736 0 22.5C0 34.9264 10.0736 45 22.5 45C34.9264 45 45 34.9264 45 22.5C45 10.0736 34.9264 0 22.5 0ZM10.8014 18.6356H15.9004V33.9559H10.8014V18.6356ZM16.2361 13.8963C16.203 12.3941 15.1288 11.25 13.3845 11.25C11.6401 11.25 10.4998 12.3941 10.4998 13.8963C10.4998 15.3673 11.6064 16.5444 13.3183 16.5444H13.3509C15.1288 16.5444 16.2361 15.3673 16.2361 13.8963ZM28.4186 18.2758C31.7739 18.2758 34.2894 20.4659 34.2894 25.1716L34.2892 33.9559H29.1904V25.7595C29.1904 23.7007 28.4526 22.2959 26.6067 22.2959C25.198 22.2959 24.3589 23.2429 23.9904 24.1577C23.8556 24.4855 23.8225 24.9422 23.8225 25.4001V33.9563H18.7229C18.7229 33.9563 18.7901 20.0735 18.7229 18.6359H23.8225V20.8059C24.4993 19.7628 25.7113 18.2758 28.4186 18.2758Z" fill="#F66F5D"/>
</svg>
