<svg width="23" height="23" viewBox="0 0 23 23" fill="none" xmlns="http://www.w3.org/2000/svg">
<rect width="23" height="23" rx="5" fill="#262438"/>
<path fill-rule="evenodd" clip-rule="evenodd" d="M20.6813 0H2.31886C1.0379 0 0 1.02944 0 2.29928V20.7007C0 21.9707 1.0379 23 2.31886 23H20.6811C21.9621 23 23 21.9706 23 20.7007V2.29945C23.0002 1.02962 21.9623 0 20.6813 0ZM7.38025 18.1987H4.28577V8.36023H7.38025V18.1987ZM5.81263 7.15283C4.83559 7.15283 4.20445 6.46858 4.20445 5.62396C4.20445 4.75876 4.85569 4.09491 5.85338 4.09491C6.85071 4.09491 7.46174 4.75876 7.48185 5.62396C7.48185 6.46876 6.85071 7.15283 5.81263 7.15283ZM18.6783 18.1987H15.584V12.7462C15.584 11.4788 15.1358 10.6136 14.016 10.6136C13.161 10.6136 12.6523 11.1971 12.4283 11.7604C12.347 11.9617 12.3263 12.2432 12.3263 12.5251V18.1989H9.23203V11.4989C9.23203 10.2716 9.19128 9.24565 9.15071 8.36023H11.8379L11.9806 9.72837H12.0416C12.4488 9.0844 13.4464 8.13883 15.1157 8.13883C17.1514 8.13883 18.6781 9.48692 18.6781 12.3841V18.1987H18.6783Z" fill="white"/>
</svg>
