<svg width="168" height="72" viewBox="0 0 168 72" fill="none" xmlns="http://www.w3.org/2000/svg">
<path d="M33.488 35.72C33.488 33.64 33.856 31.608 34.592 29.624C35.36 27.608 36.464 25.784 37.904 24.152C39.344 22.488 41.104 21.176 43.184 20.216C45.264 19.224 47.632 18.728 50.288 18.728C53.424 18.728 56.128 19.416 58.4 20.792C60.704 22.168 62.416 23.96 63.536 26.168L58.448 29.672C57.872 28.392 57.12 27.384 56.192 26.648C55.264 25.88 54.272 25.352 53.216 25.064C52.16 24.744 51.12 24.584 50.096 24.584C48.432 24.584 46.976 24.92 45.728 25.592C44.512 26.264 43.488 27.144 42.656 28.232C41.824 29.32 41.2 30.536 40.784 31.88C40.4 33.224 40.208 34.568 40.208 35.912C40.208 37.416 40.448 38.872 40.928 40.28C41.408 41.656 42.08 42.888 42.944 43.976C43.84 45.032 44.896 45.88 46.112 46.52C47.36 47.128 48.72 47.432 50.192 47.432C51.248 47.432 52.32 47.256 53.408 46.904C54.496 46.552 55.504 45.992 56.432 45.224C57.36 44.456 58.08 43.464 58.592 42.248L64.016 45.368C63.344 47.064 62.24 48.504 60.704 49.688C59.2 50.872 57.504 51.768 55.616 52.376C53.728 52.984 51.856 53.288 50 53.288C47.568 53.288 45.344 52.792 43.328 51.8C41.312 50.776 39.568 49.432 38.096 47.768C36.656 46.072 35.52 44.184 34.688 42.104C33.888 39.992 33.488 37.864 33.488 35.72ZM66.1063 45.56C66.1063 43.928 66.5543 42.504 67.4503 41.288C68.3783 40.04 69.6583 39.08 71.2903 38.408C72.9223 37.736 74.7943 37.4 76.9062 37.4C77.9623 37.4 79.0343 37.48 80.1223 37.64C81.2103 37.8 82.1543 38.056 82.9543 38.408V37.064C82.9543 35.464 82.4743 34.232 81.5143 33.368C80.5863 32.504 79.1943 32.072 77.3383 32.072C75.9623 32.072 74.6503 32.312 73.4023 32.792C72.1543 33.272 70.8423 33.976 69.4663 34.904L67.4023 30.68C69.0663 29.592 70.7623 28.776 72.4903 28.232C74.2503 27.688 76.0903 27.416 78.0103 27.416C81.5943 27.416 84.3783 28.312 86.3623 30.104C88.3783 31.896 89.3863 34.456 89.3863 37.784V45.8C89.3863 46.472 89.4983 46.952 89.7223 47.24C89.9783 47.528 90.3783 47.704 90.9223 47.768V53C90.3463 53.096 89.8183 53.176 89.3383 53.24C88.8903 53.304 88.5063 53.336 88.1863 53.336C86.9063 53.336 85.9303 53.048 85.2583 52.472C84.6183 51.896 84.2183 51.192 84.0583 50.36L83.9143 49.064C82.8263 50.472 81.4663 51.56 79.8343 52.328C78.2023 53.096 76.5383 53.48 74.8423 53.48C73.1783 53.48 71.6743 53.144 70.3303 52.472C69.0183 51.768 67.9783 50.824 67.2103 49.64C66.4743 48.424 66.1063 47.064 66.1063 45.56ZM81.7543 46.856C82.1063 46.472 82.3943 46.088 82.6183 45.704C82.8423 45.32 82.9543 44.968 82.9543 44.648V42.104C82.1863 41.784 81.3543 41.544 80.4583 41.384C79.5623 41.192 78.7143 41.096 77.9143 41.096C76.2503 41.096 74.8743 41.464 73.7863 42.2C72.7303 42.904 72.2023 43.848 72.2023 45.032C72.2023 45.672 72.3783 46.28 72.7303 46.856C73.0823 47.432 73.5943 47.896 74.2663 48.248C74.9383 48.6 75.7383 48.776 76.6663 48.776C77.6263 48.776 78.5703 48.6 79.4983 48.248C80.4263 47.864 81.1783 47.4 81.7543 46.856ZM134.469 53H128.037V38.888C128.037 36.904 127.685 35.448 126.981 34.52C126.309 33.56 125.365 33.08 124.149 33.08C122.901 33.08 121.701 33.576 120.549 34.568C119.429 35.528 118.629 36.792 118.149 38.36V53H111.717V38.888C111.717 36.872 111.365 35.4 110.661 34.472C109.989 33.544 109.045 33.08 107.829 33.08C106.581 33.08 105.381 33.56 104.229 34.52C103.109 35.48 102.309 36.744 101.829 38.312V53H95.3968V27.848H101.205V32.504C102.165 30.872 103.445 29.624 105.045 28.76C106.645 27.864 108.485 27.416 110.565 27.416C112.645 27.416 114.261 27.928 115.413 28.952C116.597 29.976 117.349 31.24 117.669 32.744C118.693 31.016 119.989 29.704 121.557 28.808C123.157 27.88 124.949 27.416 126.933 27.416C128.501 27.416 129.765 27.704 130.725 28.28C131.717 28.824 132.485 29.576 133.029 30.536C133.573 31.464 133.941 32.52 134.133 33.704C134.357 34.888 134.469 36.088 134.469 37.304V53ZM155.141 53.48C153.189 53.48 151.461 53.048 149.957 52.184C148.485 51.288 147.333 50.088 146.501 48.584V63.224H140.069V27.848H145.685V32.168C146.645 30.696 147.861 29.544 149.333 28.712C150.805 27.848 152.485 27.416 154.373 27.416C156.069 27.416 157.621 27.752 159.029 28.424C160.469 29.096 161.717 30.04 162.773 31.256C163.829 32.44 164.645 33.816 165.221 35.384C165.829 36.92 166.133 38.584 166.133 40.376C166.133 42.808 165.653 45.016 164.693 47C163.765 48.984 162.469 50.568 160.805 51.752C159.173 52.904 157.285 53.48 155.141 53.48ZM152.981 48.008C153.973 48.008 154.869 47.8 155.669 47.384C156.469 46.968 157.157 46.408 157.733 45.704C158.341 44.968 158.789 44.152 159.077 43.256C159.397 42.328 159.557 41.368 159.557 40.376C159.557 39.32 159.381 38.344 159.029 37.448C158.709 36.552 158.229 35.768 157.589 35.096C156.949 34.392 156.197 33.848 155.333 33.464C154.501 33.08 153.589 32.888 152.597 32.888C151.989 32.888 151.365 33 150.725 33.224C150.117 33.416 149.525 33.704 148.949 34.088C148.373 34.472 147.861 34.92 147.413 35.432C146.997 35.944 146.693 36.504 146.501 37.112V43.016C146.885 43.944 147.397 44.792 148.037 45.56C148.709 46.328 149.477 46.936 150.341 47.384C151.205 47.8 152.085 48.008 152.981 48.008Z" fill="white"/>
<rect x="1" y="59" width="46" height="24" transform="rotate(-90 1 59)" fill="#EF5B48"/>
<path d="M20.09 48.214C20.09 49.15 19.91 50.002 19.55 50.77C19.178 51.526 18.686 52.18 18.074 52.732C17.462 53.272 16.772 53.692 16.004 53.992C15.224 54.292 14.426 54.442 13.61 54.442C12.758 54.442 11.948 54.286 11.18 53.974C10.4 53.662 9.71 53.224 9.11 52.66C8.498 52.096 8.018 51.436 7.67 50.68C7.31 49.912 7.13 49.072 7.13 48.16C7.13 47.236 7.316 46.396 7.688 45.64C8.06 44.872 8.558 44.218 9.182 43.678C9.806 43.126 10.508 42.706 11.288 42.418C12.056 42.118 12.842 41.968 13.646 41.968C14.462 41.968 15.254 42.118 16.022 42.418C16.778 42.706 17.45 43.114 18.038 43.642L20 41.896L20 44.236L19.172 44.992C19.46 45.448 19.688 45.952 19.856 46.504C20.012 47.044 20.09 47.614 20.09 48.214ZM17.894 48.196C17.894 47.872 17.858 47.572 17.786 47.296C17.702 47.008 17.594 46.744 17.462 46.504L15.266 48.448L15.266 46.108L16.256 45.226C15.872 44.986 15.452 44.8 14.996 44.668C14.54 44.536 14.078 44.47 13.61 44.47C12.866 44.47 12.17 44.62 11.522 44.92C10.874 45.22 10.346 45.652 9.938 46.216C9.53 46.768 9.326 47.428 9.326 48.196C9.326 49 9.536 49.678 9.956 50.23C10.376 50.782 10.916 51.202 11.576 51.49C12.236 51.778 12.914 51.922 13.61 51.922C14.354 51.922 15.05 51.778 15.698 51.49C16.346 51.19 16.874 50.764 17.282 50.212C17.69 49.648 17.894 48.976 17.894 48.196ZM7.22 36.7819L7.22 34.2619L20 29.5639L20 32.1199L16.814 33.3079L16.814 37.7719L20 38.9419L20 41.4979L7.22 36.7819ZM15.068 33.7579L9.794 35.5219L15.068 37.3579L15.068 33.7579ZM7.22 26.8301L11.936 23.6621L7.22 20.5121L7.22 17.8121L13.7 22.2401L20 17.9561L20 20.6561L15.464 23.6621L20 26.6861L20 29.4041L13.7 25.1201L7.22 29.5481L7.22 26.8301Z" fill="white"/>
</svg>
