<svg width="82" height="29" viewBox="0 0 82 29" fill="none" xmlns="http://www.w3.org/2000/svg">
<rect y="28" width="26" height="13" transform="rotate(-90 0 28)" fill="#F66F5D"/>
<path d="M10.05 22.0474C10.05 22.5674 9.95 23.0407 9.75 23.4674C9.54333 23.8874 9.27 24.2507 8.93 24.5574C8.59 24.8574 8.20667 25.0907 7.78 25.2574C7.34667 25.424 6.90333 25.5074 6.45 25.5074C5.97667 25.5074 5.52667 25.4207 5.1 25.2474C4.66667 25.0674 4.28333 24.824 3.95 24.5174C3.61 24.204 3.34333 23.8374 3.15 23.4174C2.95 22.9907 2.85 22.524 2.85 22.0174C2.85 21.504 2.95333 21.0374 3.16 20.6174C3.36667 20.1907 3.64333 19.8274 3.99 19.5274C4.33667 19.2274 4.72333 18.994 5.15 18.8274C5.57667 18.6607 6.01667 18.5774 6.47 18.5774C6.93667 18.5774 7.38667 18.664 7.82 18.8374C8.24667 19.0107 8.63 19.254 8.97 19.5674C9.30333 19.874 9.56667 20.2407 9.76 20.6674C9.95333 21.0874 10.05 21.5474 10.05 22.0474ZM8.83 22.0374C8.83 21.704 8.76333 21.4074 8.63 21.1474C8.49 20.8874 8.30667 20.6707 8.08 20.4974C7.84667 20.324 7.59 20.194 7.31 20.1074C7.02333 20.014 6.73667 19.9674 6.45 19.9674C6.14333 19.9674 5.84667 20.0174 5.56 20.1174C5.27333 20.2107 5.02 20.3474 4.8 20.5274C4.58 20.7007 4.40333 20.9174 4.27 21.1774C4.13667 21.4307 4.07 21.7174 4.07 22.0374C4.07 22.3774 4.14 22.6774 4.28 22.9374C4.41333 23.1907 4.59667 23.404 4.83 23.5774C5.05667 23.7507 5.31 23.884 5.59 23.9774C5.87 24.064 6.15667 24.1074 6.45 24.1074C6.75667 24.1074 7.05333 24.0607 7.34 23.9674C7.62667 23.874 7.88 23.7407 8.1 23.5674C8.32 23.3874 8.49667 23.1707 8.63 22.9174C8.76333 22.6574 8.83 22.364 8.83 22.0374ZM7.37 22.1774L7.37 20.8774L10 18.5374L10 19.8374L7.37 22.1774ZM2.9 15.6962L2.9 14.2962L10 11.6862L10 13.1062L8.23 13.7662L8.23 16.2462L10 16.8962L10 18.3162L2.9 15.6962ZM7.26 14.0162L4.33 14.9962L7.26 16.0162L7.26 14.0162ZM2.9 10.1675L5.52 8.40746L2.9 6.65746L2.9 5.15746L6.5 7.61746L10 5.23746L10 6.73746L7.48 8.40746L10 10.0875L10 11.5975L6.5 9.21746L2.9 11.6775L2.9 10.1675Z" fill="white"/>
<path d="M14.8534 14.36C14.8534 13.32 15.0374 12.304 15.4054 11.312C15.7894 10.304 16.3414 9.392 17.0614 8.576C17.7814 7.744 18.6614 7.088 19.7014 6.608C20.7414 6.112 21.9254 5.864 23.2534 5.864C24.8214 5.864 26.1734 6.208 27.3094 6.896C28.4614 7.584 29.3174 8.48 29.8774 9.584L27.3334 11.336C27.0454 10.696 26.6694 10.192 26.2054 9.824C25.7414 9.44 25.2454 9.176 24.7174 9.032C24.1894 8.872 23.6694 8.792 23.1574 8.792C22.3254 8.792 21.5974 8.96 20.9734 9.296C20.3654 9.632 19.8534 10.072 19.4374 10.616C19.0214 11.16 18.7094 11.768 18.5014 12.44C18.3094 13.112 18.2134 13.784 18.2134 14.456C18.2134 15.208 18.3334 15.936 18.5734 16.64C18.8134 17.328 19.1494 17.944 19.5814 18.488C20.0294 19.016 20.5574 19.44 21.1654 19.76C21.7894 20.064 22.4694 20.216 23.2054 20.216C23.7334 20.216 24.2694 20.128 24.8134 19.952C25.3574 19.776 25.8614 19.496 26.3254 19.112C26.7894 18.728 27.1494 18.232 27.4054 17.624L30.1174 19.184C29.7814 20.032 29.2294 20.752 28.4614 21.344C27.7094 21.936 26.8614 22.384 25.9174 22.688C24.9734 22.992 24.0374 23.144 23.1094 23.144C21.8934 23.144 20.7814 22.896 19.7734 22.4C18.7654 21.888 17.8934 21.216 17.1574 20.384C16.4374 19.536 15.8694 18.592 15.4534 17.552C15.0534 16.496 14.8534 15.432 14.8534 14.36ZM31.1625 19.28C31.1625 18.464 31.3865 17.752 31.8345 17.144C32.2985 16.52 32.9385 16.04 33.7545 15.704C34.5705 15.368 35.5065 15.2 36.5625 15.2C37.0905 15.2 37.6265 15.24 38.1705 15.32C38.7145 15.4 39.1865 15.528 39.5865 15.704V15.032C39.5865 14.232 39.3465 13.616 38.8665 13.184C38.4025 12.752 37.7065 12.536 36.7785 12.536C36.0905 12.536 35.4345 12.656 34.8105 12.896C34.1865 13.136 33.5305 13.488 32.8425 13.952L31.8105 11.84C32.6425 11.296 33.4905 10.888 34.3545 10.616C35.2345 10.344 36.1545 10.208 37.1145 10.208C38.9065 10.208 40.2985 10.656 41.2905 11.552C42.2985 12.448 42.8025 13.728 42.8025 15.392V19.4C42.8025 19.736 42.8585 19.976 42.9705 20.12C43.0985 20.264 43.2985 20.352 43.5705 20.384V23C43.2825 23.048 43.0185 23.088 42.7785 23.12C42.5545 23.152 42.3625 23.168 42.2025 23.168C41.5625 23.168 41.0745 23.024 40.7385 22.736C40.4185 22.448 40.2185 22.096 40.1385 21.68L40.0665 21.032C39.5225 21.736 38.8425 22.28 38.0265 22.664C37.2105 23.048 36.3785 23.24 35.5305 23.24C34.6985 23.24 33.9465 23.072 33.2745 22.736C32.6185 22.384 32.0985 21.912 31.7145 21.32C31.3465 20.712 31.1625 20.032 31.1625 19.28ZM38.9865 19.928C39.1625 19.736 39.3065 19.544 39.4185 19.352C39.5305 19.16 39.5865 18.984 39.5865 18.824V17.552C39.2025 17.392 38.7865 17.272 38.3385 17.192C37.8905 17.096 37.4665 17.048 37.0665 17.048C36.2345 17.048 35.5465 17.232 35.0025 17.6C34.4745 17.952 34.2105 18.424 34.2105 19.016C34.2105 19.336 34.2985 19.64 34.4745 19.928C34.6505 20.216 34.9065 20.448 35.2425 20.624C35.5785 20.8 35.9785 20.888 36.4425 20.888C36.9225 20.888 37.3945 20.8 37.8585 20.624C38.3225 20.432 38.6985 20.2 38.9865 19.928ZM65.3438 23H62.1278V15.944C62.1278 14.952 61.9518 14.224 61.5998 13.76C61.2638 13.28 60.7918 13.04 60.1838 13.04C59.5598 13.04 58.9598 13.288 58.3838 13.784C57.8238 14.264 57.4238 14.896 57.1838 15.68V23H53.9678V15.944C53.9678 14.936 53.7918 14.2 53.4398 13.736C53.1038 13.272 52.6318 13.04 52.0238 13.04C51.3998 13.04 50.7998 13.28 50.2238 13.76C49.6638 14.24 49.2638 14.872 49.0238 15.656V23H45.8078V10.424H48.7118V12.752C49.1918 11.936 49.8318 11.312 50.6318 10.88C51.4318 10.432 52.3518 10.208 53.3918 10.208C54.4318 10.208 55.2398 10.464 55.8158 10.976C56.4078 11.488 56.7838 12.12 56.9438 12.872C57.4558 12.008 58.1038 11.352 58.8878 10.904C59.6878 10.44 60.5838 10.208 61.5758 10.208C62.3598 10.208 62.9918 10.352 63.4718 10.64C63.9678 10.912 64.3518 11.288 64.6238 11.768C64.8958 12.232 65.0798 12.76 65.1758 13.352C65.2878 13.944 65.3438 14.544 65.3438 15.152V23ZM75.6797 23.24C74.7037 23.24 73.8397 23.024 73.0877 22.592C72.3517 22.144 71.7757 21.544 71.3597 20.792V28.112H68.1437V10.424H70.9517V12.584C71.4317 11.848 72.0397 11.272 72.7757 10.856C73.5117 10.424 74.3517 10.208 75.2957 10.208C76.1437 10.208 76.9197 10.376 77.6237 10.712C78.3437 11.048 78.9677 11.52 79.4957 12.128C80.0237 12.72 80.4317 13.408 80.7197 14.192C81.0237 14.96 81.1757 15.792 81.1757 16.688C81.1757 17.904 80.9357 19.008 80.4557 20C79.9917 20.992 79.3437 21.784 78.5117 22.376C77.6957 22.952 76.7517 23.24 75.6797 23.24ZM74.5997 20.504C75.0957 20.504 75.5437 20.4 75.9437 20.192C76.3437 19.984 76.6877 19.704 76.9757 19.352C77.2797 18.984 77.5037 18.576 77.6477 18.128C77.8077 17.664 77.8877 17.184 77.8877 16.688C77.8877 16.16 77.7997 15.672 77.6237 15.224C77.4637 14.776 77.2237 14.384 76.9037 14.048C76.5837 13.696 76.2077 13.424 75.7757 13.232C75.3597 13.04 74.9037 12.944 74.4077 12.944C74.1037 12.944 73.7917 13 73.4717 13.112C73.1677 13.208 72.8717 13.352 72.5837 13.544C72.2957 13.736 72.0397 13.96 71.8157 14.216C71.6077 14.472 71.4557 14.752 71.3597 15.056V18.008C71.5517 18.472 71.8077 18.896 72.1277 19.28C72.4637 19.664 72.8477 19.968 73.2797 20.192C73.7117 20.4 74.1517 20.504 74.5997 20.504Z" fill="white"/>
</svg>
