<svg width="125" height="42" viewBox="0 0 125 42" fill="none" xmlns="http://www.w3.org/2000/svg">
<path d="M22.3339 20.7915C22.3339 19.1876 22.6174 17.6208 23.1843 16.0909C23.7758 14.5364 24.6261 13.1299 25.7352 11.8714C26.8444 10.5883 28.2 9.57662 29.802 8.83637C31.4041 8.07143 33.228 7.68896 35.2737 7.68896C37.6891 7.68896 39.7718 8.21948 41.5218 9.28052C43.2964 10.3416 44.615 11.7234 45.4777 13.426L41.5588 16.1279C41.1151 15.1409 40.5359 14.3636 39.8211 13.7961C39.1064 13.2039 38.3423 12.7967 37.5289 12.5747C36.7156 12.3279 35.9145 12.2045 35.1258 12.2045C33.8442 12.2045 32.7227 12.4636 31.7615 12.9818C30.8249 13.5 30.0362 14.1786 29.3954 15.0175C28.7545 15.8565 28.2739 16.7941 27.9535 17.8305C27.6577 18.8669 27.5098 19.9032 27.5098 20.9396C27.5098 22.0993 27.6947 23.2221 28.0644 24.3078C28.4341 25.3688 28.9517 26.3188 29.6172 27.1578C30.3073 27.972 31.1207 28.6259 32.0573 29.1194C33.0185 29.5883 34.066 29.8227 35.1998 29.8227C36.0131 29.8227 36.8388 29.687 37.6768 29.4156C38.5148 29.1441 39.2912 28.7123 40.006 28.1201C40.7208 27.5279 41.2753 26.763 41.6697 25.8253L45.8474 28.2311C45.3298 29.5389 44.4795 30.6493 43.2964 31.5623C42.138 32.4753 40.8317 33.1662 39.3775 33.635C37.9233 34.1039 36.4814 34.3383 35.0519 34.3383C33.1787 34.3383 31.4657 33.9558 29.9129 33.1909C28.3602 32.4013 27.0169 31.3649 25.8831 30.0818C24.774 28.774 23.899 27.3182 23.2582 25.7143C22.642 24.0857 22.3339 22.4448 22.3339 20.7915Z" fill="white"/>
<path d="M47.4573 28.3792C47.4573 27.1208 47.8024 26.0227 48.4925 25.085C49.2073 24.1227 50.1932 23.3824 51.4502 22.8643C52.7072 22.3461 54.1491 22.087 55.7758 22.087C56.5891 22.087 57.4148 22.1487 58.2528 22.2721C59.0908 22.3954 59.8179 22.5928 60.4341 22.8643V21.8279C60.4341 20.5941 60.0644 19.6441 59.325 18.9779C58.6102 18.3117 57.538 17.9786 56.1085 17.9786C55.0487 17.9786 54.0381 18.1636 53.0769 18.5338C52.1157 18.9039 51.1051 19.4467 50.0453 20.1623L48.4555 16.9052C49.7372 16.0662 51.0435 15.437 52.3745 15.0175C53.7301 14.598 55.1473 14.3883 56.6261 14.3883C59.3866 14.3883 61.5309 15.0792 63.059 16.461C64.6118 17.8428 65.3882 19.8169 65.3882 22.3831V28.5643C65.3882 29.0824 65.4745 29.4526 65.647 29.6746C65.8442 29.8967 66.1523 30.0324 66.5713 30.0818V34.1162C66.1276 34.1902 65.7209 34.2519 65.3512 34.3013C65.0062 34.3506 64.7104 34.3753 64.4639 34.3753C63.478 34.3753 62.7263 34.1532 62.2087 33.7091C61.7158 33.2649 61.4077 32.722 61.2844 32.0805L61.1735 31.0811C60.3355 32.1668 59.288 33.0058 58.031 33.598C56.774 34.1902 55.4923 34.4863 54.186 34.4863C52.9044 34.4863 51.7459 34.2272 50.7108 33.7091C49.7002 33.1662 48.8992 32.4383 48.3077 31.5253C47.7408 30.5876 47.4573 29.5389 47.4573 28.3792ZM59.5098 29.3785C59.7809 29.0824 60.0028 28.7863 60.1753 28.4902C60.3478 28.1941 60.4341 27.9227 60.4341 27.6759V25.7143C59.8426 25.4675 59.2017 25.2824 58.5116 25.1591C57.8215 25.011 57.1683 24.937 56.5522 24.937C55.2705 24.937 54.2107 25.2208 53.3727 25.7883C52.5593 26.3311 52.1526 27.0591 52.1526 27.972C52.1526 28.4656 52.2882 28.9344 52.5593 29.3785C52.8304 29.8227 53.2248 30.1805 53.7424 30.4519C54.26 30.7233 54.8761 30.8591 55.5909 30.8591C56.3303 30.8591 57.0574 30.7233 57.7722 30.4519C58.487 30.1558 59.0662 29.798 59.5098 29.3785Z" fill="white"/>
<path d="M100.112 34.1162H95.1578V23.2344C95.1578 21.7045 94.8867 20.5818 94.3444 19.8662C93.8268 19.126 93.0997 18.7558 92.1631 18.7558C91.2019 18.7558 90.2776 19.1383 89.3903 19.9032C88.5277 20.6435 87.9115 21.6182 87.5418 22.8273V34.1162H82.5877V23.2344C82.5877 21.6799 82.3166 20.5448 81.7743 19.8292C81.2568 19.1136 80.5297 18.7558 79.5931 18.7558C78.6318 18.7558 77.7076 19.126 76.8203 19.8662C75.9576 20.6065 75.3414 21.5811 74.9717 22.7902V34.1162H70.0176V14.7214H74.4911V18.3117C75.2305 17.0532 76.2164 16.0909 77.4488 15.4247C78.6811 14.7338 80.0983 14.3883 81.7004 14.3883C83.3025 14.3883 84.5472 14.7831 85.4345 15.5727C86.3464 16.3623 86.9256 17.337 87.1721 18.4967C87.9608 17.1643 88.959 16.1526 90.1667 15.4617C91.3991 14.7461 92.7793 14.3883 94.3075 14.3883C95.5152 14.3883 96.4887 14.6104 97.2282 15.0545C97.9922 15.474 98.5838 16.0539 99.0028 16.7941C99.4218 17.5097 99.7052 18.324 99.8531 19.237C100.026 20.15 100.112 21.0753 100.112 22.013V34.1162Z" fill="white"/>
<path d="M116.034 34.4863C114.53 34.4863 113.199 34.1532 112.041 33.487C110.907 32.7961 110.02 31.8707 109.379 30.711V41.9999H104.425V14.7214H108.751V18.0526C109.49 16.9175 110.427 16.0292 111.56 15.3877C112.694 14.7214 113.988 14.3883 115.442 14.3883C116.749 14.3883 117.944 14.6474 119.029 15.1656C120.138 15.6838 121.099 16.4117 121.912 17.3493C122.726 18.2623 123.354 19.3234 123.798 20.5325C124.266 21.7169 124.5 23 124.5 24.3818C124.5 26.2571 124.131 27.9597 123.391 29.4896C122.676 31.0194 121.678 32.2409 120.396 33.1539C119.139 34.0422 117.685 34.4863 116.034 34.4863ZM114.37 30.2668C115.134 30.2668 115.824 30.1065 116.441 29.7857C117.057 29.4649 117.587 29.0331 118.03 28.4902C118.499 27.9227 118.844 27.2935 119.065 26.6026C119.312 25.887 119.435 25.1467 119.435 24.3818C119.435 23.5675 119.3 22.8149 119.029 22.124C118.782 21.4331 118.412 20.8286 117.919 20.3104C117.426 19.7675 116.847 19.348 116.182 19.0519C115.541 18.7558 114.839 18.6078 114.074 18.6078C113.606 18.6078 113.126 18.6941 112.633 18.8669C112.164 19.0149 111.708 19.237 111.265 19.5331C110.821 19.8292 110.427 20.1747 110.082 20.5695C109.761 20.9643 109.527 21.3961 109.379 21.8649V26.4175C109.675 27.1331 110.069 27.787 110.562 28.3792C111.08 28.9714 111.671 29.4402 112.337 29.7857C113.002 30.1065 113.68 30.2668 114.37 30.2668Z" fill="white"/>
<rect y="41.847" width="41.847" height="18.3928" rx="9.1964" transform="rotate(-90 0 41.847)" fill="#F66F5D"/>
<path d="M14.3768 30.8298C14.3768 31.5729 14.2338 32.2492 13.9477 32.8589C13.652 33.4591 13.261 33.9782 12.7746 34.4164C12.2882 34.8451 11.7399 35.1785 11.1295 35.4167C10.5096 35.6548 9.87537 35.7739 9.22686 35.7739C8.54973 35.7739 7.90598 35.6501 7.29561 35.4024C6.67571 35.1452 6.12733 34.7975 5.65048 34.3593C5.16409 33.9116 4.78261 33.3876 4.50604 32.7875C4.21993 32.1778 4.07687 31.511 4.07687 30.787C4.07687 30.0535 4.2247 29.3866 4.52034 28.7865C4.81599 28.1768 5.21178 27.6576 5.7077 27.229C6.20363 26.8003 6.75677 26.4669 7.36714 26.2287C7.97751 25.9906 8.60695 25.8715 9.25547 25.8715C9.92306 25.8715 10.5668 25.9953 11.1867 26.243C11.7971 26.4907 12.3455 26.8384 12.8318 27.2861C13.3087 27.7243 13.6854 28.2483 13.962 28.8579C14.2386 29.4581 14.3768 30.1154 14.3768 30.8298ZM12.6316 30.8156C12.6316 30.3393 12.5362 29.9153 12.3455 29.5438C12.1452 29.1723 11.8829 28.8627 11.5587 28.615C11.2249 28.3673 10.8577 28.1816 10.4571 28.0577C10.047 27.9244 9.63695 27.8577 9.22686 27.8577C8.78815 27.8577 8.36376 27.9291 7.95367 28.072C7.54358 28.2054 7.18117 28.4007 6.86645 28.6579C6.55173 28.9056 6.299 29.2152 6.10826 29.5867C5.91752 29.9487 5.82215 30.3583 5.82215 30.8156C5.82215 31.3014 5.92228 31.7301 6.12256 32.1016C6.3133 32.4636 6.57557 32.7684 6.90936 33.0161C7.23362 33.2638 7.59603 33.4543 7.99658 33.5877C8.39714 33.7115 8.80723 33.7734 9.22686 33.7734C9.66556 33.7734 10.09 33.7067 10.5 33.5734C10.9101 33.44 11.2725 33.2495 11.5873 33.0018C11.902 32.7446 12.1547 32.435 12.3455 32.073C12.5362 31.7015 12.6316 31.2823 12.6316 30.8156ZM10.543 31.0156V29.158L14.3053 25.8143V27.6719L10.543 31.0156Z" fill="white"/>
<path d="M4.1484 21.7545V19.754L14.3053 16.0245V18.0536L11.7732 18.9967V22.5404L14.3053 23.4692V25.4983L4.1484 21.7545ZM10.3856 19.3539L6.19409 20.7543L10.3856 22.2118V19.3539Z" fill="white"/>
<path d="M4.1484 13.8543L7.89644 11.3394L4.1484 8.83882V6.69544L9.29838 10.2106L14.3053 6.80975V8.95314L10.7003 11.3394L14.3053 13.74V15.8977L9.29838 12.4969L4.1484 16.012L4.1484 13.8543Z" fill="white"/>
</svg>
