<svg width="114" height="40" viewBox="0 0 114 40" fill="none" xmlns="http://www.w3.org/2000/svg">
<rect y="38.6207" width="35.8621" height="17.9146" transform="rotate(-90 0 38.6207)" fill="#F66F5D"/>
<path d="M14.069 30.4102C14.069 31.1274 13.931 31.7803 13.6552 32.3688C13.3701 32.9481 12.9931 33.4493 12.5241 33.8722C12.0552 34.286 11.5264 34.6079 10.9379 34.8378C10.3402 35.0676 9.72873 35.1826 9.10345 35.1826C8.45057 35.1826 7.82988 35.063 7.24138 34.824C6.64368 34.5757 6.11494 34.2401 5.65517 33.8171C5.18621 33.3849 4.81839 32.8791 4.55172 32.2998C4.27586 31.7113 4.13793 31.0676 4.13793 30.3688C4.13793 29.6607 4.28046 29.0171 4.56552 28.4378C4.85057 27.8493 5.23218 27.3481 5.71034 26.9343C6.1885 26.5205 6.72184 26.1987 7.31034 25.9688C7.89885 25.7389 8.50575 25.624 9.13103 25.624C9.77471 25.624 10.3954 25.7435 10.9931 25.9826C11.5816 26.2217 12.1103 26.5573 12.5793 26.9895C13.0391 27.4125 13.4023 27.9182 13.669 28.5067C13.9356 29.086 14.069 29.7205 14.069 30.4102ZM12.3862 30.3964C12.3862 29.9366 12.2943 29.5274 12.1103 29.1688C11.9172 28.8102 11.6644 28.5113 11.3517 28.2722C11.0299 28.0332 10.6759 27.8539 10.2897 27.7343C9.89425 27.6056 9.49885 27.5412 9.10345 27.5412C8.68046 27.5412 8.27126 27.6102 7.87586 27.7481C7.48046 27.8768 7.13103 28.0653 6.82758 28.3136C6.52414 28.5527 6.28046 28.8516 6.09655 29.2102C5.91264 29.5596 5.82069 29.955 5.82069 30.3964C5.82069 30.8653 5.91724 31.2791 6.11034 31.6378C6.29425 31.9872 6.54712 32.2814 6.86896 32.5205C7.18161 32.7596 7.53103 32.9435 7.91724 33.0722C8.30345 33.1918 8.69885 33.2516 9.10345 33.2516C9.52644 33.2516 9.93563 33.1872 10.331 33.0585C10.7264 32.9297 11.0759 32.7458 11.3793 32.5067C11.6828 32.2585 11.9264 31.9596 12.1103 31.6102C12.2943 31.2516 12.3862 30.847 12.3862 30.3964ZM10.3724 30.5895L10.3724 28.7964L14 25.5688L14 27.3619L10.3724 30.5895ZM4.20689 21.6499L4.20689 19.7189L14 16.1189L14 18.0775L11.5586 18.9879L11.5586 22.4086L14 23.3051L14 25.2637L4.20689 21.6499ZM10.2207 19.3327L6.17931 20.6844L10.2207 22.0913L10.2207 19.3327ZM4.20689 14.0241L7.82069 11.5965L4.20689 9.18269L4.20689 7.11373L9.17241 10.5068L14 7.22407L14 9.29304L10.5241 11.5965L14 13.9137L14 15.9965L9.17241 12.7137L4.20689 16.1068L4.20689 14.0241Z" fill="white"/>
<path d="M21.4269 20.0828C21.4269 18.6483 21.6807 17.2469 22.1883 15.8786C22.7179 14.4883 23.4793 13.2303 24.4724 12.1048C25.4655 10.9572 26.6793 10.0524 28.1138 9.39034C29.5483 8.7062 31.1814 8.36413 33.0131 8.36413C35.1759 8.36413 37.0407 8.83862 38.6076 9.78758C40.1966 10.7365 41.3772 11.9724 42.1497 13.4952L38.6407 15.9117C38.2435 15.029 37.7248 14.3338 37.0848 13.8262C36.4448 13.2965 35.7607 12.9324 35.0324 12.7338C34.3041 12.5131 33.5869 12.4028 32.8807 12.4028C31.7331 12.4028 30.729 12.6345 29.8683 13.0979C29.0297 13.5614 28.3235 14.1683 27.7497 14.9186C27.1759 15.669 26.7455 16.5076 26.4586 17.4345C26.1938 18.3614 26.0614 19.2883 26.0614 20.2152C26.0614 21.2524 26.2269 22.2566 26.5579 23.2276C26.889 24.1766 27.3524 25.0262 27.9483 25.7766C28.5662 26.5048 29.2945 27.0897 30.1331 27.531C30.9938 27.9503 31.9317 28.16 32.9469 28.16C33.6752 28.16 34.4145 28.0386 35.1648 27.7959C35.9152 27.5531 36.6103 27.1669 37.2503 26.6372C37.8903 26.1076 38.3869 25.4234 38.74 24.5848L42.4807 26.7366C42.0172 27.9062 41.2559 28.8993 40.1966 29.7159C39.1593 30.5324 37.9897 31.1503 36.6876 31.5697C35.3855 31.989 34.0945 32.1986 32.8145 32.1986C31.1372 32.1986 29.6035 31.8566 28.2131 31.1724C26.8228 30.4662 25.62 29.5393 24.6048 28.3917C23.6117 27.2221 22.8283 25.92 22.2545 24.4855C21.7028 23.029 21.4269 21.5614 21.4269 20.0828ZM43.9222 26.869C43.9222 25.7434 44.2312 24.7614 44.8491 23.9228C45.4891 23.0621 46.3719 22.4 47.4974 21.9366C48.6229 21.4731 49.914 21.2414 51.3705 21.2414C52.0988 21.2414 52.8381 21.2966 53.5885 21.4069C54.3388 21.5172 54.9898 21.6938 55.5416 21.9366L55.5416 21.0097C55.5416 19.9062 55.2105 19.0566 54.5485 18.4607C53.9085 17.8648 52.9485 17.5669 51.6685 17.5669C50.7195 17.5669 49.8147 17.7324 48.954 18.0634C48.0933 18.3945 47.1885 18.88 46.2395 19.52L44.816 16.6069C45.9636 15.8565 47.1333 15.2938 48.325 14.9186C49.5388 14.5434 50.8078 14.3559 52.1319 14.3559C54.6036 14.3559 56.5236 14.9738 57.8919 16.2097C59.2822 17.4455 59.9774 19.211 59.9774 21.5062L59.9774 27.0345C59.9774 27.4979 60.0547 27.829 60.2091 28.0276C60.3857 28.2262 60.6616 28.3476 61.0367 28.3917L61.0367 32C60.6395 32.0662 60.2754 32.1214 59.9443 32.1655C59.6354 32.2097 59.3705 32.2317 59.1498 32.2317C58.2671 32.2317 57.594 32.0331 57.1305 31.6359C56.6891 31.2386 56.4133 30.7531 56.3029 30.1793L56.2036 29.2855C55.4533 30.2566 54.5154 31.0069 53.3898 31.5366C52.2643 32.0662 51.1167 32.331 49.9471 32.331C48.7995 32.331 47.7622 32.0993 46.8353 31.6359C45.9305 31.1503 45.2133 30.4993 44.6836 29.6828C44.176 28.8441 43.9222 27.9062 43.9222 26.869ZM54.714 27.7628C54.9567 27.4979 55.1554 27.2331 55.3098 26.9683C55.4643 26.7034 55.5416 26.4607 55.5416 26.24L55.5416 24.4855C55.0119 24.2648 54.4381 24.0993 53.8202 23.989C53.2022 23.8566 52.6174 23.7903 52.0657 23.7903C50.9181 23.7903 49.9691 24.0441 49.2188 24.5517C48.4905 25.0372 48.1264 25.6883 48.1264 26.5048C48.1264 26.9462 48.2478 27.3655 48.4905 27.7628C48.7333 28.16 49.0864 28.48 49.5498 28.7228C50.0133 28.9655 50.565 29.0869 51.205 29.0869C51.8671 29.0869 52.5181 28.9655 53.1581 28.7228C53.7981 28.4579 54.3167 28.1379 54.714 27.7628ZM91.0688 32L86.6329 32L86.6329 22.2676C86.6329 20.8993 86.3902 19.8952 85.9047 19.2552C85.4412 18.5931 84.7902 18.2621 83.9516 18.2621C83.0909 18.2621 82.2633 18.6041 81.4688 19.2883C80.6964 19.9503 80.1447 20.8221 79.8136 21.9034L79.8136 32L75.3778 32L75.3778 22.2676C75.3778 20.8772 75.135 19.8621 74.6495 19.2221C74.186 18.5821 73.535 18.2621 72.6964 18.2621C71.8357 18.2621 71.0081 18.5931 70.2136 19.2552C69.4412 19.9172 68.8895 20.789 68.5585 21.8703L68.5585 32L64.1226 32L64.1226 14.6538L68.1281 14.6538L68.1281 17.8648C68.7902 16.7393 69.6729 15.8786 70.7764 15.2828C71.8798 14.6648 73.1488 14.3559 74.5833 14.3559C76.0178 14.3559 77.1323 14.709 77.9267 15.4152C78.7433 16.1214 79.2619 16.9931 79.4826 18.0303C80.1888 16.8386 81.0826 15.9338 82.164 15.3159C83.2674 14.6759 84.5033 14.3559 85.8716 14.3559C86.9529 14.3559 87.8247 14.5545 88.4867 14.9517C89.1709 15.3269 89.7005 15.8455 90.0757 16.5076C90.4509 17.1476 90.7047 17.8759 90.8371 18.6924C90.9916 19.509 91.0688 20.3366 91.0688 21.1752L91.0688 32ZM105.325 32.331C103.979 32.331 102.787 32.0331 101.75 31.4372C100.735 30.8193 99.9404 29.9917 99.3666 28.9545L99.3666 39.051L94.9308 39.051L94.9308 14.6538L98.8039 14.6538L98.8039 17.6331C99.466 16.6179 100.305 15.8234 101.32 15.2497C102.335 14.6538 103.494 14.3559 104.796 14.3559C105.965 14.3559 107.036 14.5876 108.007 15.051C109 15.5145 109.86 16.1655 110.589 17.0041C111.317 17.8207 111.88 18.7697 112.277 19.851C112.696 20.9103 112.906 22.0579 112.906 23.2938C112.906 24.971 112.575 26.4938 111.913 27.8621C111.273 29.2303 110.379 30.3228 109.231 31.1393C108.106 31.9338 106.804 32.331 105.325 32.331ZM103.836 28.5572C104.52 28.5572 105.138 28.4138 105.689 28.1269C106.241 27.84 106.716 27.4538 107.113 26.9683C107.532 26.4607 107.841 25.8979 108.04 25.28C108.26 24.64 108.371 23.9779 108.371 23.2938C108.371 22.5655 108.249 21.8924 108.007 21.2745C107.786 20.6566 107.455 20.1159 107.014 19.6524C106.572 19.1669 106.054 18.7917 105.458 18.5269C104.884 18.2621 104.255 18.1297 103.571 18.1297C103.151 18.1297 102.721 18.2069 102.28 18.3614C101.86 18.4938 101.452 18.6924 101.055 18.9572C100.658 19.2221 100.305 19.531 99.9956 19.8841C99.7087 20.2372 99.4991 20.6234 99.3666 21.0428L99.3666 25.1145C99.6315 25.7545 99.9846 26.3393 100.426 26.869C100.889 27.3986 101.419 27.8179 102.015 28.1269C102.611 28.4138 103.218 28.5572 103.836 28.5572Z" fill="white"/>
</svg>
