<svg width="138" height="42" viewBox="0 0 138 42" fill="none" xmlns="http://www.w3.org/2000/svg">
<path d="M1.28006 20.8178C1.28006 19.2578 1.55606 17.7338 2.10806 16.2458C2.68406 14.7338 3.51206 13.3658 4.59206 12.1418C5.67206 10.8938 6.99206 9.90983 8.55206 9.18983C10.1121 8.44583 11.8881 8.07383 13.8801 8.07383C16.2321 8.07383 18.2601 8.58983 19.9641 9.62183C21.6921 10.6538 22.9761 11.9978 23.8161 13.6538L20.0001 16.2818C19.5681 15.3218 19.0041 14.5658 18.3081 14.0138C17.6121 13.4378 16.8681 13.0418 16.0761 12.8258C15.2841 12.5858 14.5041 12.4658 13.7361 12.4658C12.4881 12.4658 11.3961 12.7178 10.4601 13.2218C9.54806 13.7258 8.78006 14.3858 8.15606 15.2018C7.53206 16.0178 7.06406 16.9298 6.75206 17.9378C6.46406 18.9458 6.32006 19.9538 6.32006 20.9618C6.32006 22.0898 6.50006 23.1818 6.86006 24.2378C7.22006 25.2698 7.72406 26.1938 8.37206 27.0098C9.04406 27.8018 9.83606 28.4378 10.7481 28.9178C11.6841 29.3738 12.7041 29.6018 13.8081 29.6018C14.6001 29.6018 15.4041 29.4698 16.2201 29.2058C17.0361 28.9418 17.7921 28.5218 18.4881 27.9458C19.1841 27.3698 19.7241 26.6258 20.1081 25.7138L24.1761 28.0538C23.6721 29.3258 22.8441 30.4058 21.6921 31.2938C20.5641 32.1818 19.2921 32.8538 17.8761 33.3098C16.4601 33.7658 15.0561 33.9938 13.6641 33.9938C11.8401 33.9938 10.1721 33.6218 8.66006 32.8778C7.14806 32.1098 5.84006 31.1018 4.73606 29.8538C3.65606 28.5818 2.80406 27.1658 2.18006 25.6058C1.58006 24.0218 1.28006 22.4258 1.28006 20.8178ZM25.7438 28.1978C25.7438 26.9738 26.0798 25.9058 26.7518 24.9938C27.4478 24.0578 28.4078 23.3378 29.6318 22.8338C30.8558 22.3298 32.2598 22.0778 33.8438 22.0778C34.6358 22.0778 35.4398 22.1378 36.2558 22.2578C37.0718 22.3778 37.7798 22.5698 38.3798 22.8338V21.8258C38.3798 20.6258 38.0198 19.7018 37.2998 19.0538C36.6038 18.4058 35.5598 18.0818 34.1678 18.0818C33.1358 18.0818 32.1518 18.2618 31.2158 18.6218C30.2798 18.9818 29.2958 19.5098 28.2638 20.2058L26.7158 17.0378C27.9638 16.2218 29.2358 15.6098 30.5318 15.2018C31.8518 14.7938 33.2318 14.5898 34.6718 14.5898C37.3598 14.5898 39.4478 15.2618 40.9358 16.6058C42.4478 17.9498 43.2038 19.8698 43.2038 22.3658V28.3778C43.2038 28.8818 43.2878 29.2418 43.4558 29.4578C43.6478 29.6738 43.9478 29.8058 44.3558 29.8538V33.7778C43.9238 33.8498 43.5278 33.9098 43.1678 33.9578C42.8318 34.0058 42.5438 34.0298 42.3038 34.0298C41.3438 34.0298 40.6118 33.8138 40.1078 33.3818C39.6278 32.9498 39.3278 32.4218 39.2078 31.7978L39.0998 30.8258C38.2838 31.8818 37.2638 32.6978 36.0398 33.2738C34.8158 33.8498 33.5678 34.1378 32.2958 34.1378C31.0478 34.1378 29.9198 33.8858 28.9118 33.3818C27.9278 32.8538 27.1478 32.1458 26.5718 31.2578C26.0198 30.3458 25.7438 29.3258 25.7438 28.1978ZM37.4798 29.1698C37.7438 28.8818 37.9598 28.5938 38.1278 28.3058C38.2958 28.0178 38.3798 27.7538 38.3798 27.5138V25.6058C37.8038 25.3658 37.1798 25.1858 36.5078 25.0658C35.8358 24.9218 35.1998 24.8498 34.5998 24.8498C33.3518 24.8498 32.3198 25.1258 31.5038 25.6778C30.7118 26.2058 30.3158 26.9138 30.3158 27.8018C30.3158 28.2818 30.4478 28.7378 30.7118 29.1698C30.9758 29.6018 31.3598 29.9498 31.8638 30.2138C32.3678 30.4778 32.9678 30.6098 33.6638 30.6098C34.3838 30.6098 35.0918 30.4778 35.7878 30.2138C36.4838 29.9258 37.0478 29.5778 37.4798 29.1698ZM77.0156 33.7778H72.1916V23.1938C72.1916 21.7058 71.9276 20.6138 71.3996 19.9178C70.8956 19.1978 70.1876 18.8378 69.2756 18.8378C68.3396 18.8378 67.4396 19.2098 66.5756 19.9538C65.7356 20.6738 65.1356 21.6218 64.7756 22.7978V33.7778H59.9516V23.1938C59.9516 21.6818 59.6876 20.5778 59.1596 19.8818C58.6556 19.1858 57.9476 18.8378 57.0356 18.8378C56.0996 18.8378 55.1996 19.1978 54.3356 19.9178C53.4956 20.6378 52.8956 21.5858 52.5356 22.7618V33.7778H47.7116V14.9138H52.0676V18.4058C52.7876 17.1818 53.7476 16.2458 54.9476 15.5978C56.1476 14.9258 57.5276 14.5898 59.0876 14.5898C60.6476 14.5898 61.8596 14.9738 62.7236 15.7418C63.6116 16.5098 64.1756 17.4578 64.4156 18.5858C65.1836 17.2898 66.1556 16.3058 67.3316 15.6338C68.5316 14.9378 69.8756 14.5898 71.3636 14.5898C72.5396 14.5898 73.4876 14.8058 74.2076 15.2378C74.9516 15.6458 75.5276 16.2098 75.9356 16.9298C76.3436 17.6258 76.6196 18.4178 76.7636 19.3058C76.9316 20.1938 77.0156 21.0938 77.0156 22.0058V33.7778ZM92.5195 34.1378C91.0555 34.1378 89.7595 33.8138 88.6315 33.1658C87.5275 32.4938 86.6635 31.5938 86.0395 30.4658V41.4458H81.2155V14.9138H85.4275V18.1538C86.1475 17.0498 87.0595 16.1858 88.1635 15.5618C89.2675 14.9138 90.5275 14.5898 91.9435 14.5898C93.2155 14.5898 94.3795 14.8418 95.4355 15.3458C96.5155 15.8498 97.4515 16.5578 98.2435 17.4698C99.0355 18.3578 99.6475 19.3898 100.08 20.5658C100.536 21.7178 100.764 22.9658 100.764 24.3098C100.764 26.1338 100.404 27.7898 99.6835 29.2778C98.9875 30.7658 98.0155 31.9538 96.7675 32.8418C95.5435 33.7058 94.1275 34.1378 92.5195 34.1378ZM90.8995 30.0338C91.6435 30.0338 92.3155 29.8778 92.9155 29.5658C93.5155 29.2538 94.0315 28.8338 94.4635 28.3058C94.9195 27.7538 95.2555 27.1418 95.4715 26.4698C95.7115 25.7738 95.8315 25.0538 95.8315 24.3098C95.8315 23.5178 95.6995 22.7858 95.4355 22.1138C95.1955 21.4418 94.8355 20.8538 94.3555 20.3498C93.8755 19.8218 93.3115 19.4138 92.6635 19.1258C92.0395 18.8378 91.3555 18.6938 90.6115 18.6938C90.1555 18.6938 89.6875 18.7778 89.2075 18.9458C88.7515 19.0898 88.3075 19.3058 87.8755 19.5938C87.4435 19.8818 87.0595 20.2178 86.7235 20.6018C86.4115 20.9858 86.1835 21.4058 86.0395 21.8618V26.2898C86.3275 26.9858 86.7115 27.6218 87.1915 28.1978C87.6955 28.7738 88.2715 29.2298 88.9195 29.5658C89.5675 29.8778 90.2275 30.0338 90.8995 30.0338Z" fill="white"/>
<rect x="101" width="37" height="14.2222" fill="#F66F5D"/>
<path d="M110.334 12.07C109.606 12.07 108.943 11.93 108.346 11.65C107.758 11.3607 107.249 10.978 106.82 10.502C106.4 10.026 106.073 9.48933 105.84 8.892C105.606 8.28533 105.49 7.66467 105.49 7.03C105.49 6.36733 105.611 5.73733 105.854 5.14C106.106 4.53333 106.446 3.99667 106.876 3.53C107.314 3.054 107.828 2.68067 108.416 2.41C109.013 2.13 109.666 1.99 110.376 1.99C111.094 1.99 111.748 2.13467 112.336 2.424C112.933 2.71333 113.442 3.10067 113.862 3.586C114.282 4.07133 114.608 4.61267 114.842 5.21C115.075 5.80733 115.192 6.42333 115.192 7.058C115.192 7.71133 115.07 8.34133 114.828 8.948C114.585 9.54533 114.244 10.082 113.806 10.558C113.376 11.0247 112.863 11.3933 112.266 11.664C111.678 11.9347 111.034 12.07 110.334 12.07ZM110.348 10.362C110.814 10.362 111.23 10.2687 111.594 10.082C111.958 9.886 112.261 9.62933 112.504 9.312C112.746 8.98533 112.928 8.626 113.05 8.234C113.18 7.83267 113.246 7.43133 113.246 7.03C113.246 6.60067 113.176 6.18533 113.036 5.784C112.905 5.38267 112.714 5.028 112.462 4.72C112.219 4.412 111.916 4.16467 111.552 3.978C111.197 3.79133 110.796 3.698 110.348 3.698C109.872 3.698 109.452 3.796 109.088 3.992C108.733 4.17867 108.434 4.43533 108.192 4.762C107.949 5.07933 107.762 5.434 107.632 5.826C107.51 6.218 107.45 6.61933 107.45 7.03C107.45 7.45933 107.515 7.87467 107.646 8.276C107.776 8.67733 107.963 9.032 108.206 9.34C108.458 9.648 108.761 9.89533 109.116 10.082C109.48 10.2687 109.89 10.362 110.348 10.362ZM110.152 8.318H111.972L115.248 12H113.428L110.152 8.318ZM119.225 2.06H121.185L124.839 12H122.851L121.927 9.522H118.455L117.545 12H115.557L119.225 2.06ZM121.577 8.164L120.205 4.062L118.777 8.164H121.577ZM126.966 2.06L129.43 5.728L131.88 2.06H133.98L130.536 7.1L133.868 12H131.768L129.43 8.472L127.078 12H124.964L128.296 7.1L124.852 2.06H126.966Z" fill="white"/>
</svg>
