<svg width="54" height="54" viewBox="0 0 54 54" fill="none" xmlns="http://www.w3.org/2000/svg">
<path fill-rule="evenodd" clip-rule="evenodd" d="M27 50.625C40.0477 50.625 50.625 40.0477 50.625 27C50.625 13.9523 40.0477 3.375 27 3.375C13.9523 3.375 3.375 13.9523 3.375 27C3.375 40.0477 13.9523 50.625 27 50.625Z" fill="#47426C"/>
<path fill-rule="evenodd" clip-rule="evenodd" d="M27 29.7263L40.6298 17.9138H13.3702L27 29.7263ZM23.3186 28.4187L27 31.4405L30.6238 28.4187L40.6298 36.9955H13.3702L23.3186 28.4187ZM12.4615 36.0869V18.8225L22.4567 27.4547L12.4615 36.0869ZM41.5385 36.0869V18.8225L31.5433 27.4547L41.5385 36.0869Z" fill="#EFEFEF"/>
</svg>
