<svg width="143" height="44" viewBox="0 0 143 44" fill="none" xmlns="http://www.w3.org/2000/svg">
<path d="M0.280029 23.0516C0.280029 21.4756 0.55854 19.936 1.11556 18.4328C1.6968 16.9053 2.53233 15.5233 3.62216 14.2867C4.71198 13.0259 6.04399 12.0318 7.61818 11.3045C9.19237 10.5528 10.9845 10.177 12.9946 10.177C15.368 10.177 17.4145 10.6983 19.134 11.7409C20.8777 12.7835 22.1734 14.1412 23.021 15.8142L19.1703 18.4691C18.7344 17.4993 18.1653 16.7355 17.4629 16.1779C16.7606 15.596 16.0098 15.1959 15.2106 14.9777C14.4114 14.7353 13.6243 14.614 12.8493 14.614C11.59 14.614 10.488 14.8686 9.54353 15.3778C8.62324 15.8869 7.84825 16.5537 7.21858 17.3781C6.5889 18.2024 6.11664 19.1238 5.80181 20.1421C5.51119 21.1604 5.36588 22.1787 5.36588 23.1971C5.36588 24.3366 5.54751 25.4398 5.91079 26.5066C6.27406 27.5492 6.78265 28.4827 7.43654 29.307C8.11465 30.1072 8.91386 30.7497 9.83415 31.2346C10.7787 31.6953 11.8079 31.9256 12.922 31.9256C13.7212 31.9256 14.5325 31.7922 15.3559 31.5255C16.1794 31.2588 16.9422 30.8345 17.6446 30.2526C18.3469 29.6707 18.8918 28.9191 19.2793 27.9978L23.3843 30.3617C22.8757 31.6468 22.0402 32.7378 20.8777 33.6349C19.7394 34.532 18.4559 35.2109 17.027 35.6716C15.5981 36.1323 14.1813 36.3626 12.7767 36.3626C10.9361 36.3626 9.25292 35.9868 7.72716 35.2352C6.20141 34.4593 4.88151 33.441 3.76747 32.1802C2.67764 30.8951 1.81789 29.4646 1.18822 27.8887C0.582758 26.2884 0.280029 24.6761 0.280029 23.0516Z" fill="white"/>
<path d="M24.9662 30.5072C24.9662 29.2707 25.3053 28.1917 25.9834 27.2704C26.6857 26.3248 27.6545 25.5974 28.8896 25.0883C30.1248 24.5791 31.5415 24.3245 33.1399 24.3245C33.9391 24.3245 34.7505 24.3851 35.5739 24.5064C36.3973 24.6276 37.1117 24.8216 37.7172 25.0883V24.0699C37.7172 22.8576 37.3539 21.9242 36.6274 21.2695C35.925 20.6149 34.8715 20.2876 33.4669 20.2876C32.4255 20.2876 31.4325 20.4694 30.488 20.8331C29.5435 21.1968 28.5506 21.7302 27.5092 22.4333L25.9471 19.2329C27.2064 18.4085 28.49 17.7902 29.7978 17.3781C31.1298 16.9659 32.5224 16.7598 33.9755 16.7598C36.6879 16.7598 38.7949 17.4387 40.2964 18.7964C41.8222 20.1542 42.5851 22.0939 42.5851 24.6155V30.6891C42.5851 31.1982 42.6698 31.5619 42.8394 31.7801C43.0331 31.9983 43.3358 32.1317 43.7476 32.1802V36.1444C43.3116 36.2171 42.912 36.2777 42.5487 36.3262C42.2097 36.3747 41.9191 36.399 41.6769 36.399C40.7082 36.399 39.9695 36.1808 39.4609 35.7443C38.9765 35.3079 38.6738 34.7745 38.5527 34.1441L38.4437 33.1621C37.6203 34.229 36.591 35.0533 35.3559 35.6352C34.1208 36.2171 32.8614 36.5081 31.5778 36.5081C30.3185 36.5081 29.1802 36.2535 28.1631 35.7443C27.1701 35.2109 26.383 34.4957 25.8018 33.5986C25.2448 32.6772 24.9662 31.6468 24.9662 30.5072ZM36.809 31.4892C37.0754 31.1982 37.2934 30.9073 37.4629 30.6163C37.6324 30.3254 37.7172 30.0587 37.7172 29.8162V27.8887C37.136 27.6462 36.5063 27.4644 35.8282 27.3431C35.15 27.1976 34.5083 27.1249 33.9028 27.1249C32.6435 27.1249 31.6021 27.4037 30.7786 27.9614C29.9794 28.4948 29.5798 29.2101 29.5798 30.1072C29.5798 30.5921 29.713 31.0527 29.9794 31.4892C30.2458 31.9256 30.6333 32.2772 31.1419 32.5439C31.6505 32.8106 32.256 32.9439 32.9583 32.9439C33.6848 32.9439 34.3993 32.8106 35.1016 32.5439C35.8039 32.2529 36.3731 31.9014 36.809 31.4892Z" fill="white"/>
<path d="M76.7045 36.1444H71.8366V25.4519C71.8366 23.9487 71.5702 22.8455 71.0374 22.1424C70.5288 21.415 69.8144 21.0513 68.8941 21.0513C67.9496 21.0513 67.0414 21.4271 66.1695 22.1787C65.3219 22.9061 64.7164 23.8638 64.3532 25.0519V36.1444H59.4853V25.4519C59.4853 23.9245 59.2189 22.8091 58.6861 22.106C58.1775 21.4029 57.4631 21.0513 56.5428 21.0513C55.5983 21.0513 54.6901 21.415 53.8182 22.1424C52.9706 22.8698 52.3651 23.8275 52.0018 25.0155V36.1444H47.134V17.0871H51.5296V20.6149C52.2561 19.3783 53.2249 18.4328 54.4358 17.7781C55.6467 17.0992 57.0392 16.7598 58.6134 16.7598C60.1876 16.7598 61.4106 17.1477 62.2825 17.9236C63.1786 18.6995 63.7477 19.6572 63.9899 20.7967C64.7649 19.4875 65.7457 18.4934 66.9324 17.8145C68.1433 17.1114 69.4996 16.7598 71.0011 16.7598C72.1878 16.7598 73.1444 16.978 73.871 17.4144C74.6217 17.8266 75.203 18.3964 75.6147 19.1238C76.0264 19.8269 76.3049 20.627 76.4502 21.5241C76.6198 22.4212 76.7045 23.3304 76.7045 24.2518V36.1444Z" fill="white"/>
<path d="M92.3494 36.5081C90.8721 36.5081 89.5643 36.1808 88.4261 35.5261C87.312 34.8472 86.4402 33.938 85.8105 32.7985V43.8909H80.9426V17.0871H85.1929V20.3603C85.9195 19.245 86.8398 18.3721 87.9538 17.7418C89.0679 17.0871 90.3393 16.7598 91.7682 16.7598C93.0518 16.7598 94.2264 17.0144 95.292 17.5235C96.3818 18.0327 97.3263 18.748 98.1255 19.6693C98.9247 20.5664 99.5423 21.609 99.9782 22.797C100.438 23.9608 100.668 25.2216 100.668 26.5794C100.668 28.4221 100.305 30.095 99.5786 31.5983C98.8763 33.1015 97.8954 34.3017 96.6361 35.1988C95.401 36.0716 93.9721 36.5081 92.3494 36.5081ZM90.7147 32.362C91.4655 32.362 92.1436 32.2044 92.749 31.8892C93.3545 31.574 93.8752 31.1497 94.3111 30.6163C94.7713 30.0587 95.1103 29.4404 95.3283 28.7615C95.5705 28.0584 95.6916 27.331 95.6916 26.5794C95.6916 25.7793 95.5584 25.0398 95.292 24.3609C95.0498 23.682 94.6865 23.088 94.2021 22.5788C93.7178 22.0454 93.1487 21.6332 92.4948 21.3423C91.8651 21.0513 91.1749 20.9058 90.4241 20.9058C89.9639 20.9058 89.4917 20.9907 89.0073 21.1604C88.5472 21.3059 88.0991 21.5241 87.6632 21.8151C87.2273 22.106 86.8398 22.4455 86.5007 22.8334C86.1859 23.2213 85.9558 23.6456 85.8105 24.1063V28.5797C86.1011 29.2828 86.4886 29.9253 86.973 30.5072C87.4816 31.0891 88.0628 31.5498 88.7167 31.8892C89.3706 32.2044 90.0366 32.362 90.7147 32.362Z" fill="white"/>
<rect x="100.907" width="41.373" height="18.1844" rx="9.09221" fill="#F66F5D"/>
<path d="M111.799 14.2141C111.065 14.2141 110.396 14.0727 109.793 13.7898C109.2 13.4975 108.687 13.1109 108.253 12.6301C107.83 12.1492 107.5 11.607 107.265 11.0036C107.029 10.3907 106.911 9.76366 106.911 9.12249C106.911 8.45303 107.034 7.81658 107.279 7.21313C107.533 6.60024 107.877 6.05808 108.31 5.58663C108.753 5.10575 109.271 4.7286 109.864 4.45516C110.467 4.17229 111.126 4.03085 111.842 4.03085C112.567 4.03085 113.226 4.177 113.82 4.4693C114.422 4.7616 114.936 5.1529 115.36 5.64321C115.783 6.13351 116.113 6.68039 116.348 7.28384C116.584 7.8873 116.702 8.50961 116.702 9.15078C116.702 9.8108 116.579 10.4473 116.334 11.0601C116.089 11.6636 115.746 12.2058 115.303 12.6866C114.87 13.1581 114.352 13.5305 113.749 13.804C113.156 14.0774 112.506 14.2141 111.799 14.2141ZM111.814 12.4886C112.284 12.4886 112.704 12.3943 113.071 12.2058C113.438 12.0078 113.744 11.7485 113.989 11.4279C114.234 11.0979 114.418 10.7348 114.54 10.3388C114.672 9.93338 114.738 9.52794 114.738 9.12249C114.738 8.68876 114.667 8.26917 114.526 7.86372C114.394 7.45828 114.201 7.09998 113.947 6.78882C113.702 6.47767 113.396 6.2278 113.029 6.03922C112.671 5.85064 112.266 5.75635 111.814 5.75635C111.333 5.75635 110.909 5.85536 110.542 6.05336C110.184 6.24194 109.883 6.50124 109.638 6.83125C109.393 7.15184 109.205 7.51014 109.073 7.90615C108.95 8.30217 108.889 8.70762 108.889 9.12249C108.889 9.55622 108.955 9.97581 109.087 10.3813C109.219 10.7867 109.407 11.145 109.652 11.4562C109.906 11.7673 110.212 12.0172 110.57 12.2058C110.938 12.3943 111.352 12.4886 111.814 12.4886ZM111.616 10.4237H113.452L116.758 14.1434H114.922L111.616 10.4237Z" fill="white"/>
<path d="M120.772 4.10157H122.75L126.437 14.1434H124.431L123.499 11.64H119.995L119.077 14.1434H117.071L120.772 4.10157ZM123.145 10.2681L121.761 6.12408L120.32 10.2681H123.145Z" fill="white"/>
<path d="M128.583 4.10157L131.069 7.80715L133.541 4.10157H135.66L132.185 9.19321L135.547 14.1434H133.428L131.069 10.5793L128.696 14.1434H126.562L129.925 9.19321L126.449 4.10157H128.583Z" fill="white"/>
</svg>
