<svg width="265" height="602" viewBox="0 0 265 602" fill="none" xmlns="http://www.w3.org/2000/svg">
<path d="M149.898 103.49C149.898 103.49 121.783 152.99 105.203 149.717C83.1755 145.326 52.7379 139.737 47.131 133.35C41.5241 126.963 29.1088 113.79 26.7059 114.588C24.3029 115.386 32.3128 126.564 31.5118 128.959C30.7108 131.354 17.094 132.951 8.28314 136.943C2.11554 139.737 -6.77542 145.166 8.28314 142.531C26.7059 139.338 13.8901 146.523 41.9246 144.128C52.6578 143.25 105.123 175.904 118.018 172.87C131.635 169.676 170.884 115.386 170.884 115.386L150.058 103.411" fill="#EFB68F"/>
<path d="M156.946 554.657C157.827 565.595 158.468 574.217 158.869 578.608C164.155 579.247 169.522 580.125 174.888 580.365L177.692 554.976C170.803 554.816 163.835 554.657 156.946 554.657Z" fill="#EFB68F"/>
<path d="M159.11 581.642C159.11 581.642 104.002 590.185 116.978 595.614C129.954 601.043 172.807 599.366 172.807 599.366L174.889 580.285C169.523 580.045 164.156 579.167 158.869 578.528C159.03 580.604 159.11 581.642 159.11 581.642Z" fill="#4E488C"/>
<path d="M204.525 289.433L214.938 221.571H154.864C154.864 221.571 144.451 404.4 146.854 447.513C148.376 474.977 152.221 525.275 154.784 558.009C162.874 558.009 170.964 558.169 179.054 558.328L190.188 457.014L204.525 289.433Z" fill="#4E488C"/>
<path d="M245.376 581.002C245.376 581.002 205.326 592.18 202.523 602H265C265 602 264.199 594.655 262.917 583.318C256.91 582.599 250.983 581.162 244.975 579.725C245.216 580.603 245.376 581.002 245.376 581.002Z" fill="#4E488C"/>
<path d="M237.046 554.017C240.891 566.712 243.934 576.452 244.976 579.805C250.983 581.242 256.91 582.679 262.918 583.398C261.957 574.935 260.835 564.317 259.554 552.82C252.104 553.379 244.575 553.778 237.046 554.017Z" fill="#EFB68F"/>
<path d="M252.185 457.492C251.384 431.943 250.583 218.775 250.583 218.775L168.481 226.36L171.685 259.892L182.098 285.44C182.098 285.44 198.518 423.96 209.732 467.871C216.38 493.978 227.754 532.14 235.844 558.806C244.415 558.567 253.066 558.168 261.556 557.369C257.471 518.648 252.665 471.783 252.185 457.492Z" fill="#4E488C"/>
<path d="M142.85 106.605L162.874 126.565C162.874 126.565 193.312 106.605 190.108 89.8393C186.904 73.0733 178.173 76.4265 171.685 81.0571C160.471 89.0409 142.85 106.605 142.85 106.605Z" fill="#5F50DD"/>
<path d="M194.914 71.4746C194.914 71.4746 175.69 85.0471 168.481 96.2245C161.272 107.402 155.665 150.514 154.064 164.885C152.462 179.256 146.054 227.958 146.855 231.151C147.656 234.345 235.364 244.324 244.976 236.341C254.587 228.357 242.573 198.817 242.573 166.881C242.573 134.946 234.963 117.781 233.361 107.402C231.759 97.0228 222.147 71.4746 208.531 71.4746C194.914 71.4746 194.914 71.4746 194.914 71.4746Z" fill="#6758EE"/>
<path d="M174.889 17.9822C174.889 17.9822 170.884 63.4899 189.307 65.8851V78.6592C189.307 78.6592 198.919 81.8527 210.133 78.739L215.74 23.5709C215.74 23.5709 205.327 13.1919 204.526 13.1919C203.725 13.1919 174.889 17.9822 174.889 17.9822Z" fill="#EFB68F"/>
<path d="M207.729 37.1438H204.525C204.525 37.1438 207.729 24.3697 203.724 22.7729C199.719 21.1762 180.496 34.7487 170.884 24.3697C161.272 13.9907 171.685 6.00693 177.292 2.8134C182.899 -0.380123 205.326 -2.77527 209.331 6.80531C209.331 6.80531 210.933 5.20855 214.938 7.60369C218.943 9.99884 221.346 54.7082 207.729 61.0953L208.53 45.1276C208.53 45.1276 213.576 41.0559 210.933 33.1519C209.331 28.3616 207.729 37.1438 207.729 37.1438Z" fill="#211F2F"/>
<path d="M227.754 113.631C227.754 113.631 235.924 165.925 241.771 198.818C244.174 212.391 246.257 280.652 247.779 297.817C247.779 297.817 247.779 306.759 249.381 317.458C250.982 328.156 251.783 312.109 251.783 310.272C251.783 308.516 252.905 318.575 254.987 329.034C256.589 337.098 260.594 344.203 261.395 331.749C262.196 319.214 262.196 296.859 259.793 289.754C257.39 282.648 262.196 234.346 259.793 194.108C257.39 153.869 250.582 112.593 250.582 112.593L227.754 113.631Z" fill="#EFB68F"/>
<path d="M224.55 118.58C224.55 118.58 215.739 89.8385 224.55 84.2498C233.361 78.6611 252.585 97.0239 254.988 115.387L224.55 118.58Z" fill="#6758EE"/>
</svg>
