<svg width="54" height="54" viewBox="0 0 54 54" fill="none" xmlns="http://www.w3.org/2000/svg">
<path fill-rule="evenodd" clip-rule="evenodd" d="M27 50.625C40.0477 50.625 50.625 40.0477 50.625 27C50.625 13.9523 40.0477 3.375 27 3.375C13.9523 3.375 3.375 13.9523 3.375 27C3.375 40.0477 13.9523 50.625 27 50.625Z" fill="#47426C"/>
<path d="M30.9745 38.999C30.1263 38.9924 29.2819 38.8812 28.4588 38.6676C25.6161 37.9511 22.6889 36.1335 20.2177 33.5494C17.7465 30.9654 16.0044 27.9068 15.3186 24.9398C14.5964 21.8189 15.1115 19.1487 16.7673 17.4189L17.2401 16.925C17.669 16.4777 18.2503 16.2266 18.8563 16.2266C19.4623 16.2266 20.0436 16.4777 20.4725 16.925L23.1894 19.7627C23.6177 20.2107 23.8583 20.818 23.8583 21.4512C23.8583 22.0845 23.6177 22.6918 23.1894 23.1398L21.5845 24.8158C22.3539 26.2262 23.4003 27.6377 24.637 28.9297C25.8737 30.2217 27.2259 31.3155 28.5753 32.1192L30.1796 30.4426C30.3919 30.2208 30.6438 30.0449 30.9211 29.9249C31.1985 29.8048 31.4957 29.743 31.7959 29.743C32.096 29.743 32.3933 29.8048 32.6706 29.9249C32.9479 30.0449 33.1999 30.2208 33.4121 30.4426L36.1284 33.2804C36.5568 33.7282 36.7975 34.3355 36.7975 34.9686C36.7975 35.6018 36.5568 36.209 36.1284 36.6568L35.6551 37.1508C34.4878 38.3725 32.8721 38.999 30.9745 38.999ZM18.8563 17.9247C18.7697 17.9243 18.6839 17.9419 18.604 17.9765C18.524 18.0111 18.4514 18.0621 18.3906 18.1264L17.9172 18.6203C16.6773 19.9157 16.3151 22.0188 16.8974 24.5388C17.5139 27.2084 19.1008 29.9821 21.3655 32.3475C23.6301 34.7129 26.2846 36.3691 28.8405 37.0154C31.2531 37.6237 33.2652 37.2454 34.5051 35.9499L34.9779 35.456C35.1014 35.3269 35.1708 35.1518 35.1708 34.9692C35.1708 34.7866 35.1014 34.6115 34.9779 34.4823L32.2621 31.6446C32.1385 31.5155 31.9709 31.443 31.7961 31.443C31.6214 31.443 31.4538 31.5155 31.3301 31.6446L29.2964 33.7692C29.1744 33.8968 29.0167 33.9805 28.8461 34.0082C28.6755 34.0359 28.501 34.0061 28.3476 33.9233C26.6804 33.0227 24.9997 31.7114 23.487 30.1311C21.9743 28.5508 20.7219 26.796 19.8577 25.0543C19.7783 24.8941 19.7498 24.7118 19.7762 24.5336C19.8026 24.3554 19.8826 24.1906 20.0046 24.063L22.0389 21.9384C22.1624 21.8092 22.2318 21.6341 22.2318 21.4515C22.2318 21.269 22.1624 21.0938 22.0389 20.9647L19.3226 18.1264C19.2615 18.0622 19.1888 18.0113 19.1088 17.9767C19.0287 17.9421 18.9429 17.9244 18.8563 17.9247Z" fill="#EFEFEF"/>
<path d="M33.7806 27.7728C33.5649 27.7728 33.358 27.6832 33.2055 27.5239C33.053 27.3646 32.9673 27.1485 32.9673 26.9231C32.9657 25.4326 32.3983 24.0036 31.3895 22.9496C30.3807 21.8956 29.0129 21.3026 27.5862 21.3008C27.3705 21.3008 27.1637 21.2113 27.0111 21.052C26.8586 20.8926 26.7729 20.6765 26.7729 20.4512C26.7729 20.2259 26.8586 20.0098 27.0111 19.8504C27.1637 19.6911 27.3705 19.6016 27.5862 19.6016C31.4503 19.6016 34.5938 22.8868 34.5938 26.9231C34.5938 27.1485 34.5082 27.3646 34.3556 27.5239C34.2031 27.6832 33.9963 27.7728 33.7806 27.7728Z" fill="#EFEFEF"/>
<path d="M38.1867 26.7623C37.971 26.7623 37.7642 26.6728 37.6117 26.5135C37.4591 26.3541 37.3735 26.138 37.3735 25.9127C37.3735 20.8324 33.4156 16.6993 28.555 16.6993C28.3393 16.6993 28.1324 16.6098 27.9799 16.4504C27.8274 16.2911 27.7417 16.075 27.7417 15.8496C27.7417 15.6243 27.8274 15.4082 27.9799 15.2489C28.1324 15.0895 28.3393 15 28.555 15C34.3145 15 39 19.8956 39 25.9127C39 26.138 38.9143 26.3541 38.7618 26.5135C38.6093 26.6728 38.4024 26.7623 38.1867 26.7623Z" fill="#EFEFEF"/>
</svg>
