<svg width="140" height="370" viewBox="0 0 140 370" fill="none" xmlns="http://www.w3.org/2000/svg">
<g opacity="0.5">
<path opacity="0.5" d="M67.5106 207.844C31.1108 205.633 0.213227 174.573 0.00160045 148.46C-0.210027 126.876 20.6352 121.295 21.2701 94.025C21.905 70.5451 6.56205 65.2806 9.20739 45.2754C11.9585 24.2172 32.5922 0.105551 57.5642 0.000259936C86.1338 -0.105031 105.603 31.798 107.297 57.2784C108.46 74.6514 97.7733 76.9679 98.0907 93.3933C98.7256 126.77 140.628 136.352 139.993 161.306C139.464 184.049 103.381 210.056 67.5106 207.844Z" fill="#968CF2"/>
</g>
<path d="M67.1929 35.2729H65.0767V225.534H67.1929V35.2729Z" fill="#F7F7F7"/>
<path d="M65.9232 101.289C48.2524 100.13 45.8187 74.2289 45.7129 73.176L47.8292 72.9653C47.8292 73.1759 50.2629 98.13 66.1349 99.1829L65.9232 101.289Z" fill="#F7F7F7"/>
<path d="M40.4219 224.058H91.1066C96.0798 224.058 99.9949 228.164 99.7833 233.113L92.9054 360.41C92.6938 364.832 89.0961 368.412 84.652 368.517L47.7231 369.991C42.9615 370.202 38.9405 366.517 38.7289 361.884L31.851 233.113C31.5336 228.164 35.4487 224.058 40.4219 224.058Z" fill="#4E488C"/>
<path d="M65.9237 167.727C53.2261 166.885 51.5331 148.564 51.4272 147.722L53.5435 147.511C53.5435 147.722 55.2365 164.884 66.0295 165.621L65.9237 167.727Z" fill="#F7F7F7"/>
<path d="M65.1825 140.142L65.0767 138.036C79.8906 137.299 82.1126 120.768 82.1126 120.663L84.2289 120.874C84.2289 121.084 81.7952 139.405 65.1825 140.142Z" fill="#F7F7F7"/>
<path d="M65.9232 188.998L65.8174 186.892C76.2929 186.365 77.7743 174.994 77.8801 174.573L79.9964 174.783C79.9964 174.889 78.1976 188.366 65.9232 188.998Z" fill="#F7F7F7"/>
</svg>
