<svg width="350" height="450" viewBox="0 0 350 450" fill="none" xmlns="http://www.w3.org/2000/svg">
<rect width="350" height="450" rx="6" fill="#35324B"/>
<path d="M82.1237 44V26.96H89.3477C90.1317 26.96 90.8517 27.12 91.5077 27.44C92.1637 27.76 92.7317 28.192 93.2117 28.736C93.7077 29.28 94.0917 29.888 94.3637 30.56C94.6357 31.232 94.7717 31.92 94.7717 32.624C94.7717 33.584 94.5477 34.496 94.0997 35.36C93.6517 36.224 93.0357 36.928 92.2517 37.472C91.4677 38.016 90.5397 38.288 89.4677 38.288H85.4357V44H82.1237ZM85.4357 35.384H89.2757C89.6757 35.384 90.0357 35.272 90.3557 35.048C90.6757 34.824 90.9317 34.504 91.1237 34.088C91.3157 33.656 91.4117 33.168 91.4117 32.624C91.4117 32.032 91.2997 31.528 91.0757 31.112C90.8677 30.696 90.5877 30.384 90.2357 30.176C89.8997 29.968 89.5317 29.864 89.1317 29.864H85.4357V35.384ZM104.253 34.208C103.277 34.208 102.405 34.4 101.637 34.784C100.869 35.152 100.317 35.688 99.9808 36.392V44H96.7648V31.424H99.7168V34.112C100.165 33.248 100.733 32.568 101.421 32.072C102.109 31.576 102.837 31.304 103.605 31.256C103.781 31.256 103.917 31.256 104.013 31.256C104.109 31.256 104.189 31.264 104.253 31.28V34.208ZM111.69 44.24C110.666 44.24 109.746 44.072 108.93 43.736C108.114 43.384 107.418 42.904 106.842 42.296C106.282 41.688 105.85 40.992 105.546 40.208C105.242 39.424 105.09 38.6 105.09 37.736C105.09 36.856 105.242 36.024 105.546 35.24C105.85 34.456 106.282 33.76 106.842 33.152C107.418 32.544 108.114 32.072 108.93 31.736C109.746 31.384 110.666 31.208 111.69 31.208C112.714 31.208 113.626 31.384 114.426 31.736C115.242 32.072 115.938 32.544 116.514 33.152C117.09 33.76 117.522 34.456 117.81 35.24C118.114 36.024 118.266 36.856 118.266 37.736C118.266 38.6 118.114 39.424 117.81 40.208C117.522 40.992 117.09 41.688 116.514 42.296C115.954 42.904 115.266 43.384 114.45 43.736C113.634 44.072 112.714 44.24 111.69 44.24ZM108.402 37.736C108.402 38.472 108.546 39.128 108.834 39.704C109.122 40.264 109.514 40.704 110.01 41.024C110.506 41.344 111.066 41.504 111.69 41.504C112.298 41.504 112.85 41.344 113.346 41.024C113.842 40.688 114.234 40.24 114.522 39.68C114.826 39.104 114.978 38.448 114.978 37.712C114.978 36.992 114.826 36.344 114.522 35.768C114.234 35.192 113.842 34.744 113.346 34.424C112.85 34.104 112.298 33.944 111.69 33.944C111.066 33.944 110.506 34.112 110.01 34.448C109.514 34.768 109.122 35.216 108.834 35.792C108.546 36.352 108.402 37 108.402 37.736ZM119.405 48.704C118.813 48.704 118.245 48.608 117.701 48.416C117.157 48.24 116.661 47.96 116.213 47.576L117.605 45.392C117.781 45.584 117.997 45.72 118.253 45.8C118.509 45.88 118.765 45.92 119.021 45.92C119.309 45.92 119.565 45.848 119.789 45.704C120.029 45.576 120.213 45.392 120.341 45.152C120.485 44.912 120.557 44.64 120.557 44.336V31.424H123.773V44.096C123.773 44.992 123.573 45.792 123.173 46.496C122.789 47.2 122.269 47.744 121.613 48.128C120.973 48.512 120.237 48.704 119.405 48.704ZM120.557 29.672V26.48H123.773V29.672H120.557ZM132.526 44.24C131.518 44.24 130.606 44.072 129.79 43.736C128.974 43.384 128.278 42.912 127.702 42.32C127.126 41.712 126.678 41.024 126.358 40.256C126.054 39.472 125.902 38.648 125.902 37.784C125.902 36.584 126.166 35.488 126.694 34.496C127.238 33.504 128.006 32.712 128.998 32.12C130.006 31.512 131.19 31.208 132.55 31.208C133.926 31.208 135.102 31.512 136.078 32.12C137.054 32.712 137.798 33.504 138.31 34.496C138.838 35.472 139.102 36.528 139.102 37.664C139.102 37.856 139.094 38.056 139.078 38.264C139.062 38.456 139.046 38.616 139.03 38.744H129.31C129.374 39.384 129.558 39.944 129.862 40.424C130.182 40.904 130.582 41.272 131.062 41.528C131.558 41.768 132.086 41.888 132.646 41.888C133.286 41.888 133.886 41.736 134.446 41.432C135.022 41.112 135.414 40.696 135.622 40.184L138.382 40.952C138.078 41.592 137.638 42.16 137.062 42.656C136.502 43.152 135.838 43.544 135.07 43.832C134.302 44.104 133.454 44.24 132.526 44.24ZM129.238 36.704H135.814C135.75 36.064 135.566 35.512 135.262 35.048C134.974 34.568 134.59 34.2 134.11 33.944C133.63 33.672 133.094 33.536 132.502 33.536C131.926 33.536 131.398 33.672 130.918 33.944C130.454 34.2 130.07 34.568 129.766 35.048C129.478 35.512 129.302 36.064 129.238 36.704ZM146.918 44.24C145.894 44.24 144.974 44.072 144.158 43.736C143.342 43.384 142.646 42.904 142.07 42.296C141.494 41.672 141.046 40.968 140.726 40.184C140.422 39.4 140.27 38.576 140.27 37.712C140.27 36.528 140.534 35.448 141.062 34.472C141.606 33.48 142.374 32.688 143.366 32.096C144.358 31.504 145.534 31.208 146.894 31.208C148.254 31.208 149.422 31.504 150.398 32.096C151.374 32.688 152.102 33.464 152.582 34.424L149.438 35.384C149.166 34.92 148.806 34.568 148.358 34.328C147.91 34.072 147.414 33.944 146.87 33.944C146.262 33.944 145.702 34.104 145.19 34.424C144.694 34.728 144.302 35.168 144.014 35.744C143.726 36.304 143.582 36.96 143.582 37.712C143.582 38.448 143.726 39.104 144.014 39.68C144.318 40.24 144.718 40.688 145.214 41.024C145.71 41.344 146.262 41.504 146.87 41.504C147.254 41.504 147.614 41.44 147.95 41.312C148.302 41.184 148.614 41.008 148.886 40.784C149.158 40.56 149.358 40.304 149.486 40.016L152.63 40.976C152.342 41.6 151.918 42.16 151.358 42.656C150.814 43.152 150.166 43.544 149.414 43.832C148.678 44.104 147.846 44.24 146.918 44.24ZM162.145 43.352C161.873 43.464 161.545 43.592 161.161 43.736C160.777 43.88 160.361 43.992 159.913 44.072C159.481 44.168 159.041 44.216 158.593 44.216C158.001 44.216 157.457 44.112 156.961 43.904C156.465 43.696 156.065 43.368 155.761 42.92C155.473 42.456 155.329 41.856 155.329 41.12V33.896H153.673V31.424H155.329V27.344H158.545V31.424H161.185V33.896H158.545V40.04C158.561 40.472 158.681 40.784 158.905 40.976C159.129 41.168 159.409 41.264 159.745 41.264C160.081 41.264 160.409 41.208 160.729 41.096C161.049 40.984 161.305 40.888 161.497 40.808L162.145 43.352ZM183.793 44V32.816L179.425 41.144H177.577L173.209 32.816V44H169.897V26.96H173.449L178.489 36.656L183.577 26.96H187.105V44H183.793ZM189.346 40.28C189.346 39.464 189.57 38.752 190.018 38.144C190.482 37.52 191.122 37.04 191.938 36.704C192.754 36.368 193.69 36.2 194.746 36.2C195.274 36.2 195.81 36.24 196.354 36.32C196.898 36.4 197.37 36.528 197.77 36.704V36.032C197.77 35.232 197.53 34.616 197.05 34.184C196.586 33.752 195.89 33.536 194.962 33.536C194.274 33.536 193.618 33.656 192.994 33.896C192.37 34.136 191.714 34.488 191.026 34.952L189.994 32.84C190.826 32.296 191.674 31.888 192.538 31.616C193.418 31.344 194.338 31.208 195.298 31.208C197.09 31.208 198.482 31.656 199.474 32.552C200.482 33.448 200.986 34.728 200.986 36.392V40.4C200.986 40.736 201.042 40.976 201.154 41.12C201.282 41.264 201.482 41.352 201.754 41.384V44C201.466 44.048 201.202 44.088 200.962 44.12C200.738 44.152 200.546 44.168 200.386 44.168C199.746 44.168 199.258 44.024 198.922 43.736C198.602 43.448 198.402 43.096 198.322 42.68L198.25 42.032C197.706 42.736 197.026 43.28 196.21 43.664C195.394 44.048 194.562 44.24 193.714 44.24C192.882 44.24 192.13 44.072 191.458 43.736C190.802 43.384 190.282 42.912 189.898 42.32C189.53 41.712 189.346 41.032 189.346 40.28ZM197.17 40.928C197.346 40.736 197.49 40.544 197.602 40.352C197.714 40.16 197.77 39.984 197.77 39.824V38.552C197.386 38.392 196.97 38.272 196.522 38.192C196.074 38.096 195.65 38.048 195.25 38.048C194.418 38.048 193.73 38.232 193.186 38.6C192.658 38.952 192.394 39.424 192.394 40.016C192.394 40.336 192.482 40.64 192.658 40.928C192.834 41.216 193.09 41.448 193.426 41.624C193.762 41.8 194.162 41.888 194.626 41.888C195.106 41.888 195.578 41.8 196.042 41.624C196.506 41.432 196.882 41.2 197.17 40.928ZM215.679 44H212.463V36.944C212.463 35.936 212.287 35.2 211.935 34.736C211.583 34.272 211.095 34.04 210.471 34.04C210.039 34.04 209.599 34.152 209.151 34.376C208.719 34.6 208.327 34.912 207.975 35.312C207.623 35.696 207.367 36.144 207.207 36.656V44H203.991V31.424H206.895V33.752C207.215 33.208 207.623 32.752 208.119 32.384C208.615 32 209.183 31.712 209.823 31.52C210.479 31.312 211.167 31.208 211.887 31.208C212.671 31.208 213.311 31.352 213.807 31.64C214.319 31.912 214.703 32.288 214.959 32.768C215.231 33.232 215.415 33.76 215.511 34.352C215.623 34.944 215.679 35.544 215.679 36.152V44ZM217.612 40.28C217.612 39.464 217.836 38.752 218.284 38.144C218.748 37.52 219.388 37.04 220.204 36.704C221.02 36.368 221.956 36.2 223.012 36.2C223.54 36.2 224.076 36.24 224.62 36.32C225.164 36.4 225.636 36.528 226.036 36.704V36.032C226.036 35.232 225.796 34.616 225.316 34.184C224.852 33.752 224.156 33.536 223.228 33.536C222.54 33.536 221.884 33.656 221.26 33.896C220.636 34.136 219.98 34.488 219.292 34.952L218.26 32.84C219.092 32.296 219.94 31.888 220.804 31.616C221.684 31.344 222.604 31.208 223.564 31.208C225.356 31.208 226.748 31.656 227.74 32.552C228.748 33.448 229.252 34.728 229.252 36.392V40.4C229.252 40.736 229.308 40.976 229.42 41.12C229.548 41.264 229.748 41.352 230.02 41.384V44C229.732 44.048 229.468 44.088 229.228 44.12C229.004 44.152 228.812 44.168 228.652 44.168C228.012 44.168 227.524 44.024 227.188 43.736C226.868 43.448 226.668 43.096 226.588 42.68L226.516 42.032C225.972 42.736 225.292 43.28 224.476 43.664C223.66 44.048 222.828 44.24 221.98 44.24C221.148 44.24 220.396 44.072 219.724 43.736C219.068 43.384 218.548 42.912 218.164 42.32C217.796 41.712 217.612 41.032 217.612 40.28ZM225.436 40.928C225.612 40.736 225.756 40.544 225.868 40.352C225.98 40.16 226.036 39.984 226.036 39.824V38.552C225.652 38.392 225.236 38.272 224.788 38.192C224.34 38.096 223.916 38.048 223.516 38.048C222.684 38.048 221.996 38.232 221.452 38.6C220.924 38.952 220.66 39.424 220.66 40.016C220.66 40.336 220.748 40.64 220.924 40.928C221.1 41.216 221.356 41.448 221.692 41.624C222.028 41.8 222.428 41.888 222.892 41.888C223.372 41.888 223.844 41.8 224.308 41.624C224.772 41.432 225.148 41.2 225.436 40.928ZM237.177 44.072C236.345 44.072 235.577 43.912 234.873 43.592C234.185 43.256 233.585 42.792 233.073 42.2C232.577 41.608 232.193 40.928 231.921 40.16C231.649 39.392 231.513 38.576 231.513 37.712C231.513 36.8 231.657 35.952 231.945 35.168C232.233 34.384 232.633 33.696 233.145 33.104C233.673 32.496 234.289 32.032 234.993 31.712C235.713 31.376 236.505 31.208 237.369 31.208C238.345 31.208 239.201 31.432 239.937 31.88C240.673 32.312 241.281 32.896 241.761 33.632V31.424H244.569V43.4C244.569 44.648 244.265 45.712 243.657 46.592C243.065 47.488 242.241 48.168 241.185 48.632C240.129 49.112 238.929 49.352 237.585 49.352C236.225 49.352 235.073 49.12 234.129 48.656C233.185 48.208 232.377 47.568 231.705 46.736L233.457 45.032C233.937 45.624 234.537 46.088 235.257 46.424C235.993 46.76 236.769 46.928 237.585 46.928C238.273 46.928 238.897 46.8 239.457 46.544C240.033 46.304 240.489 45.92 240.825 45.392C241.177 44.88 241.353 44.216 241.353 43.4V41.816C240.937 42.536 240.345 43.096 239.577 43.496C238.825 43.88 238.025 44.072 237.177 44.072ZM238.257 41.504C238.609 41.504 238.945 41.448 239.265 41.336C239.585 41.224 239.881 41.072 240.153 40.88C240.425 40.688 240.665 40.464 240.873 40.208C241.081 39.936 241.241 39.664 241.353 39.392V36.392C241.161 35.896 240.889 35.464 240.537 35.096C240.201 34.728 239.817 34.448 239.385 34.256C238.969 34.048 238.529 33.944 238.065 33.944C237.569 33.944 237.121 34.048 236.721 34.256C236.321 34.464 235.977 34.76 235.689 35.144C235.401 35.512 235.177 35.928 235.017 36.392C234.873 36.84 234.801 37.312 234.801 37.808C234.801 38.32 234.889 38.8 235.065 39.248C235.241 39.696 235.481 40.088 235.785 40.424C236.105 40.76 236.473 41.024 236.889 41.216C237.321 41.408 237.777 41.504 238.257 41.504ZM253.3 44.24C252.292 44.24 251.38 44.072 250.564 43.736C249.748 43.384 249.052 42.912 248.476 42.32C247.9 41.712 247.452 41.024 247.132 40.256C246.828 39.472 246.676 38.648 246.676 37.784C246.676 36.584 246.94 35.488 247.468 34.496C248.012 33.504 248.78 32.712 249.772 32.12C250.78 31.512 251.964 31.208 253.324 31.208C254.7 31.208 255.876 31.512 256.852 32.12C257.828 32.712 258.572 33.504 259.084 34.496C259.612 35.472 259.876 36.528 259.876 37.664C259.876 37.856 259.868 38.056 259.852 38.264C259.836 38.456 259.82 38.616 259.804 38.744H250.084C250.148 39.384 250.332 39.944 250.636 40.424C250.956 40.904 251.356 41.272 251.836 41.528C252.332 41.768 252.86 41.888 253.42 41.888C254.06 41.888 254.66 41.736 255.22 41.432C255.796 41.112 256.188 40.696 256.396 40.184L259.156 40.952C258.852 41.592 258.412 42.16 257.836 42.656C257.276 43.152 256.612 43.544 255.844 43.832C255.076 44.104 254.228 44.24 253.3 44.24ZM250.012 36.704H256.588C256.524 36.064 256.34 35.512 256.036 35.048C255.748 34.568 255.364 34.2 254.884 33.944C254.404 33.672 253.868 33.536 253.276 33.536C252.7 33.536 252.172 33.672 251.692 33.944C251.228 34.2 250.844 34.568 250.54 35.048C250.252 35.512 250.076 36.064 250.012 36.704ZM269.323 34.208C268.347 34.208 267.475 34.4 266.707 34.784C265.939 35.152 265.387 35.688 265.051 36.392V44H261.835V31.424H264.787V34.112C265.235 33.248 265.803 32.568 266.491 32.072C267.179 31.576 267.907 31.304 268.675 31.256C268.851 31.256 268.987 31.256 269.083 31.256C269.179 31.256 269.259 31.264 269.323 31.28V34.208Z" fill="#E9E8EA"/>
<path opacity="0.15" d="M285.207 122.686V185.836C285.207 189.454 282.368 192.39 278.874 192.39H203.441C199.948 192.39 197.117 189.454 197.117 185.836V122.686C197.117 119.076 199.948 116.142 203.441 116.142H278.874C282.368 116.142 285.207 119.075 285.207 122.686Z" fill="#F66F5D"/>
<path d="M282.146 301.818C282.146 303.077 275.744 304.096 267.847 304.096C259.95 304.096 253.551 303.076 253.551 301.818C253.551 300.561 260.155 300.211 268.051 300.211C275.946 300.211 282.146 300.562 282.146 301.818Z" fill="#0A3F6B"/>
<path d="M294.316 240.791C294.316 240.791 294.308 240.918 294.3 241.151C294.159 244.013 292.803 263.407 281.999 279.934C270.294 297.831 276.503 304.587 276.503 304.587H269.677C269.677 304.587 272.686 252.145 294.02 240.945C294.117 240.891 294.219 240.84 294.316 240.791Z" fill="#F66F5D"/>
<path d="M294.316 240.791C294.316 240.791 294.308 240.918 294.3 241.151C293.158 243.079 286.019 255.395 279.606 271.075C272.427 288.604 273.794 302.58 273.809 302.723C273.823 302.814 273.752 302.906 273.656 302.912H273.637C273.554 302.912 273.478 302.848 273.465 302.757C273.451 302.615 272.077 288.547 279.285 270.94C285.734 255.191 292.913 242.833 294.021 240.946C294.117 240.891 294.219 240.84 294.316 240.791Z" fill="#F1F1F1"/>
<g opacity="0.24">
<g opacity="0.24">
<path opacity="0.24" d="M272.165 285.077L275.703 292.957C275.703 292.957 274.505 297.744 274.917 299.962C275.33 302.179 275.513 302.738 275.513 302.738H273.517L271.96 286.224L272.165 285.077Z" fill="black"/>
</g>
</g>
<path d="M269.474 304.588H263.6C263.6 304.588 260.345 287.899 246.765 274.984C246.58 274.806 246.533 274.567 246.587 274.353C246.615 274.241 246.668 274.135 246.744 274.042C246.895 273.852 247.133 273.739 247.408 273.788C250.594 274.387 257.255 276.741 264.339 285.849C274.192 298.518 269.474 304.588 269.474 304.588Z" fill="#F66F5D"/>
<path d="M275.704 305.437H270.021C270.021 305.437 269.07 302.631 264.339 285.849C259.927 270.234 269.671 245.59 271.06 242.224V242.218C271.162 241.964 271.217 241.837 271.217 241.837C271.266 241.808 271.318 241.779 271.368 241.767C273.678 241.031 277.7 253.644 274.375 264.058C267.901 284.38 275.704 305.437 275.704 305.437Z" fill="#F66F5D"/>
<path d="M271.634 303.96C271.668 304.051 271.62 304.148 271.537 304.186C271.517 304.193 271.498 304.199 271.477 304.199C271.408 304.199 271.341 304.157 271.313 304.088C268.544 296.584 265.522 279.929 268.544 264.801C271.156 251.73 271.114 243.973 271.06 242.225V242.219C271.162 241.965 271.217 241.838 271.217 241.838C271.266 241.809 271.318 241.78 271.368 241.768C271.381 241.789 271.387 241.809 271.387 241.831C271.395 241.907 271.859 249.947 268.879 264.873C265.869 279.928 268.879 296.497 271.634 303.96Z" fill="#F1F1F1"/>
<path d="M266.957 303.407C266.964 303.507 266.895 303.592 266.8 303.597C266.8 303.597 266.794 303.597 266.786 303.597C266.697 303.597 266.622 303.534 266.614 303.443C265.064 285.297 247.319 274.776 246.587 274.352C246.615 274.24 246.668 274.134 246.743 274.041C247.306 274.361 265.371 284.987 266.957 303.407Z" fill="#F1F1F1"/>
<path d="M279.292 331.784C279.292 331.784 275.974 333.034 267.847 332.84C261.662 332.694 255.548 331.784 255.548 331.784L253.551 301.719C253.551 301.719 257.681 302.678 268.051 302.678C279.037 302.678 282.146 301.719 282.146 301.719L279.292 331.784Z" fill="#0E538C"/>
<path d="M221.515 179.678L217.399 175.427" stroke="white" stroke-width="4" stroke-miterlimit="10" stroke-linecap="round" stroke-linejoin="round"/>
<path d="M221.515 175.427L217.399 179.678" stroke="white" stroke-width="4" stroke-miterlimit="10" stroke-linecap="round" stroke-linejoin="round"/>
<path d="M232.418 179.678L228.303 175.427" stroke="white" stroke-width="4" stroke-miterlimit="10" stroke-linecap="round" stroke-linejoin="round"/>
<path d="M252.443 153.587C255.084 153.587 257.225 151.374 257.225 148.645C257.225 145.916 255.084 143.703 252.443 143.703C249.801 143.703 247.66 145.916 247.66 148.645C247.66 151.374 249.801 153.587 252.443 153.587Z" fill="#F1F1F1"/>
<path d="M231.183 171.097C233.825 171.097 235.966 168.884 235.966 166.155C235.966 163.426 233.825 161.213 231.183 161.213C228.542 161.213 226.401 163.426 226.401 166.155C226.401 168.884 228.542 171.097 231.183 171.097Z" fill="#F1F1F1"/>
<path d="M209.612 153.562C212.254 153.562 214.396 151.349 214.396 148.619C214.396 145.889 212.254 143.676 209.612 143.676C206.97 143.676 204.829 145.889 204.829 148.619C204.829 151.349 206.97 153.562 209.612 153.562Z" fill="#F1F1F1"/>
<path d="M208.873 147.717V147.191H210.745V147.601C210.59 147.759 210.433 147.984 210.272 148.277C210.114 148.572 209.993 148.884 209.907 149.215C209.824 149.545 209.785 149.84 209.785 150.101H209.257C209.267 149.693 209.348 149.277 209.501 148.854C209.656 148.43 209.86 148.051 210.117 147.717H208.873Z" fill="#F66F5D"/>
<path d="M220.042 148.51C219.9 148.448 219.798 148.364 219.734 148.254C219.67 148.147 219.637 148.028 219.637 147.9C219.637 147.679 219.711 147.5 219.86 147.354C220.009 147.21 220.219 147.139 220.493 147.139C220.765 147.139 220.975 147.21 221.124 147.354C221.275 147.5 221.348 147.679 221.348 147.9C221.348 148.037 221.314 148.159 221.247 148.264C221.179 148.371 221.08 148.452 220.955 148.51C221.114 148.575 221.235 148.671 221.316 148.796C221.399 148.923 221.441 149.068 221.441 149.233C221.441 149.505 221.356 149.726 221.187 149.898C221.021 150.068 220.797 150.153 220.519 150.153C220.258 150.153 220.043 150.084 219.87 149.941C219.666 149.775 219.565 149.547 219.565 149.257C219.565 149.098 219.602 148.951 219.68 148.818C219.756 148.684 219.877 148.581 220.042 148.51ZM220.104 149.203C220.104 149.358 220.141 149.48 220.221 149.566C220.296 149.654 220.393 149.698 220.508 149.698C220.621 149.698 220.714 149.656 220.79 149.571C220.863 149.488 220.899 149.368 220.899 149.208C220.899 149.071 220.861 148.959 220.788 148.876C220.712 148.793 220.616 148.751 220.502 148.751C220.368 148.751 220.268 148.798 220.201 148.894C220.138 148.988 220.104 149.091 220.104 149.203ZM220.155 147.939C220.155 148.051 220.185 148.139 220.248 148.204C220.308 148.266 220.391 148.298 220.494 148.298C220.597 148.298 220.68 148.266 220.743 148.202C220.806 148.138 220.838 148.051 220.838 147.938C220.838 147.832 220.806 147.747 220.745 147.682C220.683 147.619 220.602 147.587 220.499 147.587C220.396 147.587 220.311 147.618 220.248 147.684C220.185 147.749 220.155 147.834 220.155 147.939Z" fill="#F66F5D"/>
<path d="M230.284 149.418L230.814 149.358C230.827 149.468 230.861 149.551 230.915 149.605C230.969 149.659 231.042 149.685 231.131 149.685C231.244 149.685 231.341 149.631 231.42 149.524C231.5 149.418 231.549 149.195 231.571 148.856C231.433 149.022 231.262 149.104 231.055 149.104C230.831 149.104 230.637 149.014 230.475 148.834C230.312 148.655 230.231 148.422 230.231 148.136C230.231 147.836 230.316 147.596 230.488 147.413C230.661 147.228 230.879 147.138 231.146 147.138C231.436 147.138 231.672 147.254 231.857 147.485C232.044 147.716 232.136 148.097 232.136 148.627C232.136 149.167 232.04 149.555 231.845 149.794C231.653 150.034 231.401 150.152 231.091 150.152C230.867 150.152 230.687 150.09 230.548 149.968C230.411 149.845 230.324 149.663 230.284 149.418ZM231.522 148.183C231.522 148 231.482 147.861 231.401 147.759C231.32 147.658 231.225 147.608 231.119 147.608C231.018 147.608 230.935 147.649 230.868 147.732C230.8 147.815 230.767 147.95 230.767 148.137C230.767 148.327 230.803 148.468 230.875 148.557C230.948 148.645 231.039 148.691 231.148 148.691C231.252 148.691 231.341 148.647 231.413 148.562C231.486 148.476 231.522 148.351 231.522 148.183Z" fill="#F66F5D"/>
<path d="M241.264 150.101H240.718V147.97C240.518 148.163 240.284 148.306 240.012 148.4V147.886C240.153 147.837 240.309 147.746 240.476 147.611C240.643 147.476 240.758 147.32 240.82 147.139H241.264V150.101Z" fill="#F66F5D"/>
<path d="M243.006 147.139C243.282 147.139 243.5 147.242 243.655 147.445C243.839 147.686 243.932 148.088 243.932 148.647C243.932 149.204 243.839 149.605 243.653 149.849C243.498 150.05 243.282 150.152 243.006 150.152C242.728 150.152 242.503 150.041 242.334 149.82C242.164 149.599 242.078 149.206 242.078 148.64C242.078 148.085 242.173 147.685 242.36 147.442C242.514 147.239 242.73 147.139 243.006 147.139ZM243.006 147.607C242.94 147.607 242.881 147.628 242.828 147.672C242.777 147.716 242.735 147.794 242.707 147.906C242.669 148.052 242.65 148.299 242.65 148.645C242.65 148.99 242.667 149.228 242.701 149.358C242.735 149.487 242.779 149.573 242.83 149.616C242.881 149.66 242.939 149.681 243.006 149.681C243.073 149.681 243.131 149.658 243.182 149.616C243.236 149.572 243.275 149.494 243.305 149.382C243.341 149.236 243.36 148.99 243.36 148.646C243.36 148.299 243.343 148.061 243.309 147.933C243.277 147.802 243.234 147.716 243.182 147.672C243.131 147.628 243.073 147.607 243.006 147.607Z" fill="#F66F5D"/>
<path d="M252.074 150.101H251.528V147.97C251.328 148.163 251.094 148.306 250.822 148.4V147.886C250.965 147.837 251.121 147.746 251.286 147.611C251.455 147.476 251.57 147.32 251.632 147.139H252.074V150.101Z" fill="#F66F5D"/>
<path d="M254.071 150.101H253.526V147.97C253.325 148.163 253.091 148.306 252.819 148.4V147.886C252.96 147.837 253.116 147.746 253.284 147.611C253.452 147.476 253.565 147.32 253.627 147.139H254.071V150.101Z" fill="#F66F5D"/>
<path d="M262.664 150.101H262.118V147.97C261.918 148.163 261.684 148.306 261.412 148.4V147.886C261.553 147.837 261.709 147.746 261.876 147.611C262.045 147.476 262.158 147.32 262.22 147.139H262.664V150.101Z" fill="#F66F5D"/>
<path d="M265.329 149.574V150.1H263.413C263.432 149.901 263.494 149.712 263.598 149.535C263.701 149.358 263.907 149.122 264.214 148.829C264.46 148.591 264.611 148.43 264.668 148.345C264.744 148.23 264.781 148.115 264.781 148C264.781 147.875 264.747 147.777 264.683 147.708C264.617 147.642 264.526 147.607 264.411 147.607C264.297 147.607 264.205 147.643 264.139 147.714C264.071 147.784 264.033 147.903 264.022 148.068L263.478 148.011C263.51 147.699 263.612 147.477 263.782 147.342C263.954 147.206 264.167 147.138 264.424 147.138C264.706 147.138 264.927 147.216 265.088 147.374C265.251 147.53 265.33 147.726 265.33 147.959C265.33 148.092 265.308 148.217 265.26 148.338C265.215 148.458 265.143 148.584 265.043 148.716C264.977 148.802 264.858 148.928 264.684 149.092C264.511 149.254 264.402 149.363 264.357 149.417C264.309 149.471 264.271 149.523 264.243 149.573H265.329V149.574Z" fill="#F66F5D"/>
<path d="M273.364 150.101H272.818V147.97C272.618 148.163 272.384 148.306 272.112 148.4V147.886C272.253 147.837 272.409 147.746 272.576 147.611C272.745 147.476 272.858 147.32 272.92 147.139H273.364V150.101Z" fill="#F66F5D"/>
<path d="M274.162 149.317L274.691 149.251C274.71 149.391 274.753 149.498 274.827 149.571C274.903 149.644 274.992 149.682 275.097 149.682C275.211 149.682 275.305 149.637 275.383 149.548C275.458 149.46 275.498 149.341 275.498 149.19C275.498 149.048 275.46 148.936 275.387 148.853C275.313 148.77 275.222 148.727 275.117 148.727C275.047 148.727 274.964 148.742 274.865 148.77L274.925 148.309C275.074 148.314 275.186 148.28 275.264 148.209C275.343 148.139 275.381 148.045 275.381 147.929C275.381 147.83 275.353 147.75 275.296 147.692C275.239 147.634 275.161 147.604 275.067 147.604C274.975 147.604 274.895 147.636 274.827 147.704C274.762 147.772 274.722 147.87 274.708 147.999L274.204 147.909C274.24 147.731 274.293 147.588 274.363 147.482C274.433 147.375 274.531 147.292 274.658 147.229C274.787 147.169 274.928 147.138 275.085 147.138C275.353 147.138 275.567 147.228 275.729 147.404C275.864 147.549 275.932 147.714 275.932 147.895C275.932 148.155 275.793 148.361 275.519 148.514C275.684 148.549 275.815 148.631 275.912 148.758C276.011 148.883 276.059 149.036 276.059 149.214C276.059 149.473 275.966 149.694 275.784 149.877C275.601 150.059 275.373 150.15 275.101 150.15C274.842 150.15 274.629 150.072 274.459 149.919C274.288 149.766 274.19 149.566 274.162 149.317Z" fill="#F66F5D"/>
<path d="M209.164 158.868H208.618V156.737C208.418 156.93 208.184 157.074 207.912 157.167V156.654C208.053 156.605 208.209 156.514 208.377 156.379C208.543 156.244 208.658 156.088 208.72 155.907H209.164V158.868Z" fill="#F66F5D"/>
<path d="M211.054 158.868V158.274H209.886V157.779L211.124 155.907H211.584V157.778H211.939V158.274H211.584V158.868H211.054ZM211.054 157.778V156.769L210.398 157.778H211.054Z" fill="#F66F5D"/>
<path d="M219.864 158.868H219.318V156.737C219.117 156.93 218.883 157.074 218.611 157.167V156.654C218.753 156.605 218.908 156.514 219.076 156.379C219.242 156.244 219.357 156.088 219.419 155.907H219.864V158.868Z" fill="#F66F5D"/>
<path d="M220.69 158.11L221.234 158.051C221.249 158.178 221.296 158.279 221.372 158.354C221.45 158.428 221.537 158.466 221.637 158.466C221.752 158.466 221.848 158.417 221.928 158.32C222.007 158.224 222.047 158.081 222.047 157.887C222.047 157.706 222.007 157.571 221.928 157.48C221.85 157.388 221.748 157.345 221.622 157.345C221.465 157.345 221.323 157.416 221.198 157.56L220.756 157.493L221.036 155.958H222.481V156.487H221.45L221.365 156.988C221.487 156.926 221.61 156.894 221.739 156.894C221.981 156.894 222.187 156.985 222.356 157.167C222.526 157.349 222.609 157.585 222.609 157.877C222.609 158.119 222.541 158.336 222.405 158.526C222.22 158.787 221.963 158.917 221.632 158.917C221.369 158.917 221.154 158.844 220.987 158.697C220.821 158.55 220.722 158.357 220.69 158.11Z" fill="#F66F5D"/>
<path d="M230.564 158.868H230.016V156.737C229.816 156.93 229.582 157.074 229.31 157.167V156.654C229.453 156.605 229.609 156.514 229.776 156.379C229.943 156.244 230.058 156.088 230.12 155.907H230.564V158.868Z" fill="#F66F5D"/>
<path d="M233.235 156.642L232.704 156.702C232.692 156.59 232.658 156.507 232.603 156.453C232.548 156.399 232.478 156.373 232.391 156.373C232.276 156.373 232.177 156.428 232.096 156.533C232.017 156.64 231.967 156.863 231.947 157.204C232.083 157.038 232.253 156.955 232.455 156.955C232.683 156.955 232.879 157.045 233.04 157.224C233.205 157.405 233.286 157.636 233.286 157.92C233.286 158.222 233.199 158.464 233.029 158.647C232.857 158.83 232.636 158.92 232.367 158.92C232.079 158.92 231.843 158.805 231.657 158.573C231.472 158.341 231.379 157.963 231.379 157.435C231.379 156.894 231.476 156.505 231.67 156.265C231.863 156.028 232.114 155.908 232.422 155.908C232.64 155.908 232.819 155.971 232.961 156.096C233.104 156.222 233.195 156.403 233.235 156.642ZM231.993 157.874C231.993 158.058 232.035 158.199 232.118 158.301C232.199 158.4 232.292 158.45 232.398 158.45C232.498 158.45 232.583 158.409 232.651 158.326C232.719 158.245 232.752 158.111 232.752 157.925C232.752 157.734 232.716 157.592 232.645 157.504C232.571 157.415 232.48 157.369 232.371 157.369C232.267 157.369 232.178 157.413 232.105 157.498C232.031 157.582 231.993 157.708 231.993 157.874Z" fill="#F66F5D"/>
<path d="M241.264 158.868H240.716V156.737C240.516 156.93 240.282 157.074 240.01 157.167V156.654C240.153 156.605 240.309 156.514 240.476 156.379C240.643 156.244 240.758 156.088 240.82 155.907H241.264V158.868Z" fill="#F66F5D"/>
<path d="M242.08 156.485V155.959H243.952V156.369C243.797 156.527 243.64 156.752 243.479 157.045C243.321 157.34 243.2 157.652 243.117 157.983C243.031 158.313 242.992 158.608 242.992 158.868H242.464C242.474 158.46 242.555 158.045 242.708 157.621C242.863 157.198 243.067 156.818 243.325 156.485H242.08Z" fill="#F66F5D"/>
<path d="M251.964 158.868H251.416V156.737C251.215 156.93 250.981 157.074 250.709 157.167V156.654C250.853 156.605 251.008 156.514 251.176 156.379C251.342 156.244 251.457 156.088 251.519 155.907H251.964V158.868Z" fill="#F66F5D"/>
<path d="M253.249 157.278C253.108 157.216 253.005 157.132 252.941 157.022C252.877 156.915 252.844 156.795 252.844 156.667C252.844 156.447 252.92 156.267 253.067 156.122C253.216 155.978 253.426 155.907 253.702 155.907C253.972 155.907 254.182 155.978 254.331 156.122C254.482 156.267 254.557 156.447 254.557 156.667C254.557 156.804 254.521 156.927 254.454 157.032C254.386 157.139 254.287 157.22 254.164 157.278C254.321 157.342 254.442 157.438 254.525 157.564C254.607 157.691 254.648 157.836 254.648 158.001C254.648 158.272 254.563 158.494 254.397 158.665C254.228 158.836 254.004 158.921 253.726 158.921C253.465 158.921 253.25 158.851 253.078 158.709C252.873 158.543 252.772 158.315 252.772 158.025C252.772 157.866 252.809 157.719 252.887 157.586C252.963 157.452 253.085 157.35 253.249 157.278ZM253.312 157.972C253.312 158.126 253.351 158.248 253.429 158.335C253.504 158.423 253.603 158.467 253.716 158.467C253.829 158.467 253.924 158.424 253.998 158.34C254.071 158.257 254.109 158.136 254.109 157.977C254.109 157.84 254.071 157.728 253.996 157.645C253.92 157.562 253.826 157.519 253.71 157.519C253.576 157.519 253.476 157.567 253.409 157.663C253.346 157.757 253.312 157.859 253.312 157.972ZM253.363 156.708C253.363 156.82 253.395 156.908 253.456 156.972C253.518 157.034 253.599 157.067 253.704 157.067C253.805 157.067 253.888 157.035 253.951 156.97C254.013 156.908 254.046 156.819 254.046 156.706C254.046 156.601 254.014 156.516 253.953 156.45C253.891 156.388 253.81 156.356 253.708 156.356C253.604 156.356 253.519 156.387 253.456 156.452C253.395 156.518 253.363 156.603 253.363 156.708Z" fill="#F66F5D"/>
<path d="M262.664 158.868H262.116V156.737C261.916 156.93 261.682 157.074 261.41 157.167V156.654C261.553 156.605 261.709 156.514 261.876 156.379C262.043 156.244 262.158 156.088 262.22 155.907H262.664V158.868Z" fill="#F66F5D"/>
<path d="M263.491 158.187L264.023 158.126C264.034 158.237 264.068 158.32 264.123 158.374C264.178 158.428 264.25 158.453 264.341 158.453C264.452 158.453 264.549 158.399 264.628 158.292C264.708 158.187 264.759 157.964 264.779 157.625C264.641 157.791 264.47 157.872 264.264 157.872C264.039 157.872 263.846 157.782 263.683 157.603C263.52 157.424 263.439 157.191 263.439 156.905C263.439 156.605 263.524 156.364 263.697 156.182C263.869 155.997 264.087 155.907 264.355 155.907C264.644 155.907 264.882 156.022 265.065 156.254C265.252 156.485 265.345 156.866 265.345 157.396C265.345 157.936 265.248 158.324 265.053 158.563C264.861 158.802 264.609 158.921 264.299 158.921C264.077 158.921 263.895 158.859 263.758 158.737C263.62 158.613 263.531 158.431 263.491 158.187ZM264.73 156.95C264.73 156.768 264.69 156.628 264.609 156.527C264.528 156.426 264.435 156.376 264.327 156.376C264.227 156.376 264.143 156.417 264.076 156.499C264.01 156.583 263.975 156.718 263.975 156.905C263.975 157.095 264.011 157.235 264.085 157.325C264.156 157.413 264.247 157.458 264.357 157.458C264.46 157.458 264.549 157.415 264.621 157.33C264.696 157.243 264.73 157.118 264.73 156.95Z" fill="#F66F5D"/>
<path d="M273.811 158.343V158.868H271.893C271.914 158.67 271.977 158.481 272.08 158.304C272.184 158.127 272.388 157.89 272.697 157.597C272.942 157.36 273.093 157.199 273.15 157.114C273.224 156.999 273.262 156.883 273.262 156.769C273.262 156.643 273.23 156.545 273.163 156.477C273.099 156.411 273.008 156.376 272.893 156.376C272.778 156.376 272.687 156.411 272.621 156.483C272.553 156.553 272.514 156.671 272.502 156.837L271.958 156.779C271.99 156.468 272.093 156.245 272.264 156.11C272.435 155.975 272.649 155.907 272.907 155.907C273.188 155.907 273.41 155.985 273.57 156.143C273.731 156.299 273.812 156.495 273.812 156.727C273.812 156.861 273.79 156.986 273.743 157.106C273.697 157.227 273.624 157.352 273.523 157.484C273.457 157.571 273.338 157.696 273.166 157.86C272.992 158.023 272.884 158.132 272.837 158.186C272.791 158.24 272.754 158.291 272.726 158.342H273.811V158.343Z" fill="#F66F5D"/>
<path d="M275.106 155.907C275.382 155.907 275.598 156.01 275.753 156.213C275.939 156.454 276.032 156.855 276.032 157.415C276.032 157.972 275.937 158.372 275.751 158.616C275.598 158.818 275.382 158.919 275.106 158.919C274.826 158.919 274.603 158.809 274.434 158.587C274.263 158.367 274.178 157.974 274.178 157.408C274.178 156.852 274.273 156.452 274.458 156.21C274.614 156.008 274.828 155.907 275.106 155.907ZM275.106 156.376C275.04 156.376 274.979 156.397 274.928 156.44C274.875 156.485 274.835 156.563 274.807 156.675C274.769 156.821 274.75 157.067 274.75 157.414C274.75 157.759 274.767 157.996 274.801 158.127C274.835 158.256 274.877 158.342 274.928 158.384C274.979 158.428 275.039 158.449 275.106 158.449C275.173 158.449 275.231 158.427 275.282 158.384C275.336 158.34 275.375 158.262 275.403 158.15C275.441 158.005 275.46 157.759 275.46 157.415C275.46 157.067 275.443 156.83 275.409 156.701C275.375 156.571 275.334 156.485 275.282 156.44C275.229 156.397 275.173 156.376 275.106 156.376Z" fill="#F66F5D"/>
<path d="M209.612 167.11V167.635H207.694C207.715 167.436 207.777 167.248 207.881 167.071C207.985 166.894 208.191 166.658 208.497 166.363C208.743 166.128 208.894 165.966 208.951 165.882C209.027 165.765 209.065 165.649 209.065 165.534C209.065 165.409 209.031 165.313 208.964 165.245C208.9 165.177 208.809 165.143 208.694 165.143C208.581 165.143 208.488 165.178 208.422 165.249C208.354 165.32 208.316 165.437 208.305 165.603L207.761 165.547C207.793 165.236 207.896 165.013 208.065 164.878C208.237 164.74 208.45 164.674 208.707 164.674C208.989 164.674 209.211 164.752 209.371 164.908C209.534 165.066 209.613 165.26 209.613 165.494C209.613 165.627 209.591 165.754 209.544 165.874C209.498 165.993 209.425 166.12 209.324 166.25C209.258 166.338 209.141 166.464 208.967 166.627C208.795 166.791 208.685 166.9 208.638 166.952C208.592 167.006 208.555 167.059 208.526 167.109H209.612V167.11Z" fill="#F66F5D"/>
<path d="M211.381 167.636H210.835V165.505C210.635 165.699 210.399 165.841 210.129 165.934V165.421C210.27 165.372 210.426 165.28 210.594 165.146C210.76 165.013 210.875 164.855 210.937 164.675H211.381V167.636Z" fill="#F66F5D"/>
<path d="M220.312 167.11V167.635H218.396C218.415 167.436 218.477 167.248 218.58 167.071C218.684 166.894 218.89 166.658 219.197 166.363C219.443 166.128 219.594 165.966 219.651 165.882C219.726 165.765 219.764 165.649 219.764 165.534C219.764 165.409 219.73 165.313 219.663 165.245C219.599 165.177 219.508 165.143 219.393 165.143C219.28 165.143 219.187 165.178 219.121 165.249C219.054 165.32 219.016 165.437 219.004 165.603L218.46 165.547C218.492 165.236 218.595 165.013 218.764 164.878C218.936 164.74 219.149 164.674 219.407 164.674C219.688 164.674 219.91 164.752 220.071 164.908C220.233 165.066 220.313 165.26 220.313 165.494C220.313 165.627 220.29 165.754 220.243 165.874C220.197 165.993 220.124 166.12 220.025 166.25C219.959 166.338 219.84 166.464 219.666 166.627C219.494 166.791 219.385 166.9 219.337 166.952C219.292 167.006 219.254 167.059 219.226 167.109H220.312V167.11Z" fill="#F66F5D"/>
<path d="M222.529 167.11V167.635H220.611C220.631 167.436 220.694 167.248 220.797 167.071C220.901 166.894 221.107 166.658 221.414 166.363C221.66 166.128 221.811 165.966 221.868 165.882C221.943 165.765 221.981 165.649 221.981 165.534C221.981 165.409 221.947 165.313 221.88 165.245C221.816 165.177 221.726 165.143 221.61 165.143C221.497 165.143 221.404 165.178 221.338 165.249C221.271 165.32 221.233 165.437 221.221 165.603L220.677 165.547C220.709 165.236 220.812 165.013 220.981 164.878C221.154 164.74 221.367 164.674 221.624 164.674C221.906 164.674 222.127 164.752 222.288 164.908C222.45 165.066 222.53 165.26 222.53 165.494C222.53 165.627 222.507 165.754 222.46 165.874C222.415 165.993 222.341 166.12 222.24 166.25C222.175 166.338 222.057 166.464 221.883 166.627C221.711 166.791 221.602 166.9 221.554 166.952C221.509 167.006 221.471 167.059 221.443 167.109H222.529V167.11Z" fill="#F66F5D"/>
<path d="M231.012 167.11V167.635H229.094C229.114 167.436 229.177 167.248 229.281 167.071C229.384 166.894 229.588 166.658 229.895 166.363C230.143 166.128 230.294 165.966 230.351 165.882C230.425 165.765 230.462 165.649 230.462 165.534C230.462 165.409 230.43 165.313 230.364 165.245C230.297 165.177 230.209 165.143 230.094 165.143C229.978 165.143 229.887 165.178 229.82 165.249C229.754 165.32 229.714 165.437 229.703 165.603L229.159 165.547C229.191 165.236 229.293 165.013 229.465 164.878C229.635 164.74 229.85 164.674 230.107 164.674C230.389 164.674 230.61 164.752 230.771 164.908C230.932 165.066 231.013 165.26 231.013 165.494C231.013 165.627 230.991 165.754 230.943 165.874C230.898 165.993 230.824 166.12 230.724 166.25C230.658 166.338 230.539 166.464 230.365 166.627C230.192 166.791 230.085 166.9 230.037 166.952C229.992 167.006 229.954 167.059 229.926 167.109H231.012V167.11Z" fill="#F66F5D"/>
<path d="M231.361 166.854L231.891 166.788C231.908 166.928 231.953 167.033 232.027 167.107C232.102 167.181 232.192 167.217 232.295 167.217C232.408 167.217 232.503 167.173 232.581 167.085C232.658 166.995 232.696 166.876 232.696 166.727C232.696 166.585 232.66 166.471 232.587 166.388C232.513 166.305 232.422 166.265 232.316 166.265C232.245 166.265 232.162 166.278 232.065 166.307L232.125 165.846C232.272 165.849 232.386 165.817 232.464 165.746C232.541 165.675 232.581 165.582 232.581 165.465C232.581 165.365 232.553 165.287 232.494 165.228C232.436 165.169 232.361 165.14 232.267 165.14C232.174 165.14 232.093 165.173 232.027 165.241C231.961 165.307 231.922 165.405 231.906 165.534L231.402 165.446C231.438 165.267 231.491 165.125 231.563 165.017C231.632 164.912 231.731 164.827 231.858 164.767C231.985 164.705 232.126 164.675 232.283 164.675C232.551 164.675 232.766 164.763 232.929 164.941C233.064 165.086 233.129 165.249 233.129 165.431C233.129 165.69 232.993 165.897 232.719 166.051C232.882 166.087 233.012 166.168 233.11 166.294C233.209 166.421 233.257 166.572 233.257 166.751C233.257 167.01 233.166 167.23 232.983 167.412C232.8 167.594 232.571 167.685 232.299 167.685C232.04 167.685 231.829 167.609 231.657 167.456C231.486 167.302 231.388 167.101 231.361 166.854Z" fill="#F66F5D"/>
<path d="M241.712 167.11V167.635H239.794C239.815 167.436 239.877 167.248 239.981 167.071C240.085 166.894 240.289 166.658 240.595 166.363C240.843 166.128 240.994 165.966 241.051 165.882C241.125 165.765 241.163 165.649 241.163 165.534C241.163 165.409 241.131 165.313 241.064 165.245C240.997 165.177 240.909 165.143 240.794 165.143C240.679 165.143 240.588 165.178 240.52 165.249C240.454 165.32 240.415 165.437 240.403 165.603L239.859 165.547C239.891 165.236 239.994 165.013 240.165 164.878C240.335 164.74 240.55 164.674 240.807 164.674C241.089 164.674 241.311 164.752 241.471 164.908C241.632 165.066 241.713 165.26 241.713 165.494C241.713 165.627 241.691 165.754 241.644 165.874C241.598 165.993 241.525 166.12 241.424 166.25C241.358 166.338 241.239 166.464 241.065 166.627C240.893 166.791 240.785 166.9 240.738 166.952C240.692 167.006 240.654 167.059 240.626 167.109H241.712V167.11Z" fill="#F66F5D"/>
<path d="M243.154 167.636V167.042H241.986V166.548L243.224 164.675H243.684V166.546H244.037V167.042H243.684V167.636H243.154ZM243.154 166.546V165.538L242.498 166.546H243.154Z" fill="#F66F5D"/>
<path d="M252.412 167.11V167.635H250.494C250.514 167.436 250.577 167.248 250.68 167.071C250.784 166.894 250.988 166.658 251.295 166.363C251.543 166.128 251.694 165.966 251.751 165.882C251.824 165.765 251.862 165.649 251.862 165.534C251.862 165.409 251.83 165.313 251.763 165.245C251.697 165.177 251.608 165.143 251.493 165.143C251.378 165.143 251.287 165.178 251.219 165.249C251.154 165.32 251.114 165.437 251.102 165.603L250.558 165.547C250.59 165.236 250.693 165.013 250.864 164.878C251.037 164.74 251.249 164.674 251.507 164.674C251.788 164.674 252.01 164.752 252.171 164.908C252.331 165.066 252.413 165.26 252.413 165.494C252.413 165.627 252.39 165.754 252.343 165.874C252.297 165.993 252.224 166.12 252.123 166.25C252.058 166.338 251.938 166.464 251.766 166.627C251.592 166.791 251.485 166.9 251.437 166.952C251.392 167.006 251.354 167.059 251.326 167.109H252.412V167.11Z" fill="#F66F5D"/>
<path d="M252.788 166.878L253.334 166.819C253.349 166.946 253.394 167.048 253.472 167.122C253.548 167.195 253.637 167.233 253.736 167.233C253.85 167.233 253.948 167.185 254.026 167.089C254.105 166.992 254.145 166.848 254.145 166.656C254.145 166.473 254.105 166.338 254.028 166.247C253.948 166.157 253.846 166.111 253.722 166.111C253.565 166.111 253.423 166.183 253.298 166.326L252.854 166.26L253.135 164.727H254.581V165.256H253.55L253.465 165.755C253.585 165.693 253.71 165.661 253.839 165.661C254.081 165.661 254.287 165.752 254.456 165.934C254.624 166.116 254.709 166.354 254.709 166.644C254.709 166.888 254.641 167.105 254.505 167.293C254.318 167.554 254.061 167.684 253.732 167.684C253.467 167.684 253.254 167.611 253.087 167.464C252.921 167.321 252.82 167.124 252.788 166.878Z" fill="#F66F5D"/>
<path d="M263.112 167.11V167.635H261.194C261.214 167.436 261.277 167.248 261.381 167.071C261.484 166.894 261.688 166.658 261.997 166.363C262.243 166.128 262.394 165.966 262.451 165.882C262.525 165.765 262.562 165.649 262.562 165.534C262.562 165.409 262.53 165.313 262.464 165.245C262.4 165.177 262.309 165.143 262.194 165.143C262.078 165.143 261.988 165.178 261.92 165.249C261.854 165.32 261.814 165.437 261.803 165.603L261.259 165.547C261.291 165.236 261.393 165.013 261.565 164.878C261.737 164.74 261.95 164.674 262.207 164.674C262.489 164.674 262.71 164.752 262.871 164.908C263.032 165.066 263.113 165.26 263.113 165.494C263.113 165.627 263.091 165.754 263.043 165.874C262.998 165.993 262.924 166.12 262.824 166.25C262.758 166.338 262.639 166.464 262.467 166.627C262.292 166.791 262.185 166.9 262.138 166.952C262.092 167.006 262.054 167.059 262.026 167.109H263.112V167.11Z" fill="#F66F5D"/>
<path d="M265.335 165.409L264.806 165.47C264.792 165.358 264.758 165.273 264.704 165.221C264.649 165.167 264.579 165.14 264.492 165.14C264.377 165.14 264.278 165.193 264.199 165.3C264.117 165.407 264.068 165.631 264.048 165.97C264.184 165.804 264.354 165.721 264.556 165.721C264.784 165.721 264.98 165.81 265.141 165.992C265.306 166.171 265.387 166.403 265.387 166.687C265.387 166.988 265.3 167.23 265.13 167.413C264.957 167.596 264.739 167.686 264.468 167.686C264.18 167.686 263.944 167.571 263.757 167.339C263.573 167.108 263.48 166.729 263.48 166.2C263.48 165.662 263.578 165.27 263.771 165.033C263.964 164.794 264.215 164.675 264.523 164.675C264.741 164.675 264.92 164.737 265.062 164.863C265.204 164.989 265.295 165.17 265.335 165.409ZM264.094 166.642C264.094 166.827 264.134 166.968 264.217 167.068C264.298 167.169 264.391 167.217 264.497 167.217C264.598 167.217 264.682 167.176 264.75 167.095C264.818 167.013 264.851 166.878 264.851 166.693C264.851 166.501 264.815 166.361 264.744 166.271C264.67 166.181 264.579 166.138 264.47 166.138C264.366 166.138 264.277 166.18 264.204 166.265C264.131 166.351 264.094 166.476 264.094 166.642Z" fill="#F66F5D"/>
<path d="M273.811 167.11V167.635H271.893C271.914 167.436 271.977 167.248 272.08 167.071C272.184 166.894 272.388 166.658 272.697 166.363C272.942 166.128 273.093 165.966 273.15 165.882C273.224 165.765 273.262 165.649 273.262 165.534C273.262 165.409 273.23 165.313 273.163 165.245C273.099 165.177 273.008 165.143 272.893 165.143C272.778 165.143 272.687 165.178 272.621 165.249C272.553 165.32 272.514 165.437 272.502 165.603L271.958 165.547C271.99 165.236 272.093 165.013 272.264 164.878C272.436 164.74 272.649 164.674 272.907 164.674C273.188 164.674 273.41 164.752 273.57 164.908C273.731 165.066 273.812 165.26 273.812 165.494C273.812 165.627 273.79 165.754 273.743 165.874C273.697 165.993 273.624 166.12 273.523 166.25C273.457 166.338 273.338 166.464 273.166 166.627C272.992 166.791 272.884 166.9 272.837 166.952C272.791 167.006 272.754 167.059 272.726 167.109H273.811V167.11Z" fill="#F66F5D"/>
<path d="M274.18 165.251V164.728H276.052V165.138C275.897 165.294 275.74 165.521 275.581 165.814C275.421 166.107 275.3 166.419 275.217 166.75C275.131 167.081 275.092 167.376 275.092 167.637H274.564C274.574 167.23 274.655 166.815 274.808 166.389C274.963 165.966 275.169 165.586 275.425 165.252H274.18V165.251Z" fill="#F66F5D"/>
<path d="M208.504 175.879V176.403H206.586C206.607 176.205 206.669 176.017 206.773 175.84C206.876 175.663 207.083 175.427 207.389 175.132C207.635 174.896 207.786 174.735 207.843 174.65C207.917 174.533 207.955 174.418 207.955 174.303C207.955 174.178 207.923 174.081 207.856 174.013C207.792 173.945 207.701 173.912 207.586 173.912C207.473 173.912 207.38 173.946 207.314 174.018C207.246 174.089 207.206 174.206 207.197 174.371L206.653 174.315C206.685 174.004 206.786 173.782 206.957 173.646C207.129 173.509 207.342 173.443 207.599 173.443C207.881 173.443 208.103 173.521 208.263 173.677C208.424 173.835 208.505 174.029 208.505 174.263C208.505 174.395 208.483 174.522 208.436 174.643C208.39 174.762 208.316 174.889 208.216 175.019C208.15 175.107 208.031 175.232 207.859 175.395C207.685 175.559 207.577 175.668 207.53 175.721C207.484 175.774 207.446 175.828 207.418 175.878H208.504V175.879Z" fill="#F66F5D"/>
<path d="M209.343 174.812C209.202 174.75 209.097 174.666 209.036 174.558C208.97 174.449 208.937 174.331 208.937 174.204C208.937 173.983 209.012 173.802 209.159 173.658C209.308 173.514 209.52 173.443 209.794 173.443C210.064 173.443 210.274 173.514 210.425 173.658C210.574 173.802 210.65 173.983 210.65 174.204C210.65 174.341 210.616 174.461 210.546 174.568C210.478 174.673 210.382 174.756 210.257 174.812C210.416 174.877 210.535 174.973 210.618 175.1C210.701 175.225 210.741 175.371 210.741 175.537C210.741 175.809 210.657 176.03 210.489 176.2C210.321 176.371 210.098 176.456 209.818 176.456C209.559 176.456 209.342 176.386 209.17 176.245C208.966 176.079 208.864 175.851 208.864 175.561C208.864 175.402 208.904 175.254 208.979 175.122C209.058 174.988 209.177 174.886 209.343 174.812ZM209.404 175.506C209.404 175.663 209.444 175.783 209.521 175.871C209.599 175.957 209.696 176.001 209.811 176.001C209.924 176.001 210.017 175.959 210.09 175.876C210.164 175.791 210.202 175.671 210.202 175.513C210.202 175.374 210.164 175.264 210.088 175.181C210.013 175.096 209.918 175.054 209.803 175.054C209.668 175.054 209.569 175.103 209.504 175.197C209.438 175.291 209.404 175.396 209.404 175.506ZM209.457 174.243C209.457 174.356 209.487 174.444 209.547 174.507C209.609 174.57 209.693 174.601 209.795 174.601C209.898 174.601 209.982 174.571 210.043 174.507C210.105 174.443 210.138 174.354 210.138 174.241C210.138 174.136 210.106 174.051 210.045 173.987C209.983 173.924 209.902 173.89 209.801 173.89C209.696 173.89 209.612 173.923 209.549 173.989C209.487 174.052 209.457 174.137 209.457 174.243Z" fill="#F66F5D"/>
<path d="M221.618 141.314H221.072V139.182C220.872 139.376 220.638 139.52 220.366 139.612V139.1C220.507 139.051 220.665 138.959 220.83 138.825C220.999 138.689 221.114 138.533 221.176 138.352H221.618V141.314Z" fill="#F66F5D"/>
<path d="M232.766 140.788V141.314H230.849C230.87 141.116 230.933 140.926 231.036 140.749C231.14 140.572 231.344 140.336 231.651 140.043C231.898 139.805 232.049 139.644 232.105 139.56C232.18 139.444 232.218 139.329 232.218 139.214C232.218 139.089 232.184 138.991 232.119 138.923C232.053 138.856 231.962 138.821 231.847 138.821C231.734 138.821 231.643 138.857 231.575 138.928C231.507 138.998 231.47 139.117 231.458 139.282L230.914 139.225C230.946 138.913 231.049 138.691 231.218 138.555C231.39 138.42 231.605 138.352 231.861 138.352C232.142 138.352 232.364 138.43 232.525 138.588C232.687 138.744 232.766 138.94 232.766 139.172C232.766 139.306 232.744 139.432 232.699 139.552C232.653 139.672 232.58 139.798 232.479 139.93C232.413 140.016 232.294 140.141 232.12 140.306C231.948 140.469 231.838 140.577 231.793 140.631C231.747 140.686 231.71 140.737 231.682 140.787H232.766V140.788Z" fill="#F66F5D"/>
<path d="M241.6 140.531L242.129 140.465C242.147 140.605 242.191 140.712 242.266 140.785C242.34 140.858 242.428 140.895 242.534 140.895C242.647 140.895 242.742 140.852 242.819 140.762C242.897 140.674 242.935 140.555 242.935 140.404C242.935 140.262 242.897 140.15 242.823 140.067C242.752 139.984 242.661 139.942 242.553 139.942C242.484 139.942 242.4 139.956 242.302 139.984L242.362 139.523C242.511 139.528 242.623 139.494 242.702 139.423C242.78 139.354 242.818 139.259 242.818 139.143C242.818 139.044 242.789 138.964 242.732 138.906C242.675 138.848 242.598 138.818 242.504 138.818C242.411 138.818 242.332 138.85 242.266 138.918C242.2 138.986 242.158 139.084 242.145 139.212L241.641 139.123C241.677 138.945 241.73 138.802 241.799 138.696C241.869 138.589 241.97 138.506 242.097 138.444C242.223 138.383 242.365 138.352 242.521 138.352C242.789 138.352 243.005 138.442 243.168 138.618C243.3 138.763 243.368 138.928 243.368 139.11C243.368 139.368 243.23 139.575 242.956 139.728C243.12 139.764 243.251 139.845 243.349 139.972C243.448 140.098 243.496 140.25 243.496 140.428C243.496 140.687 243.403 140.908 243.22 141.09C243.038 141.273 242.81 141.364 242.538 141.364C242.278 141.364 242.066 141.286 241.895 141.133C241.725 140.98 241.627 140.78 241.6 140.531Z" fill="#F66F5D"/>
<path d="M253.391 141.314V140.719H252.225V140.225L253.461 138.352H253.92V140.223H254.275V140.719H253.92V141.314H253.391ZM253.391 140.224V139.216L252.735 140.224H253.391Z" fill="#F66F5D"/>
<path d="M263.027 140.556L263.573 140.497C263.588 140.624 263.633 140.726 263.711 140.8C263.787 140.875 263.876 140.912 263.975 140.912C264.088 140.912 264.185 140.863 264.265 140.767C264.344 140.67 264.384 140.528 264.384 140.333C264.384 140.152 264.344 140.018 264.267 139.926C264.187 139.835 264.085 139.791 263.959 139.791C263.802 139.791 263.662 139.863 263.537 140.006L263.093 139.94L263.374 138.405H264.818V138.933H263.788L263.701 139.435C263.824 139.372 263.949 139.34 264.076 139.34C264.32 139.34 264.526 139.432 264.694 139.613C264.863 139.796 264.948 140.032 264.948 140.323C264.948 140.566 264.88 140.783 264.744 140.972C264.557 141.233 264.299 141.364 263.97 141.364C263.706 141.364 263.492 141.291 263.326 141.144C263.159 140.997 263.059 140.804 263.027 140.556Z" fill="#F66F5D"/>
<path d="M275.572 139.087L275.042 139.148C275.031 139.036 274.997 138.953 274.942 138.899C274.887 138.845 274.817 138.819 274.728 138.819C274.615 138.819 274.516 138.873 274.435 138.978C274.355 139.085 274.306 139.309 274.286 139.649C274.422 139.483 274.589 139.4 274.794 139.4C275.02 139.4 275.218 139.49 275.379 139.669C275.542 139.85 275.623 140.081 275.623 140.366C275.623 140.668 275.538 140.91 275.366 141.092C275.195 141.275 274.975 141.366 274.706 141.366C274.418 141.366 274.182 141.25 273.995 141.019C273.81 140.786 273.718 140.408 273.718 139.88C273.718 139.339 273.814 138.95 274.007 138.711C274.201 138.474 274.451 138.353 274.761 138.353C274.979 138.353 275.158 138.416 275.3 138.542C275.443 138.667 275.534 138.85 275.572 139.087ZM274.332 140.319C274.332 140.504 274.374 140.645 274.455 140.746C274.538 140.846 274.631 140.895 274.737 140.895C274.837 140.895 274.921 140.855 274.99 140.772C275.056 140.69 275.091 140.557 275.091 140.37C275.091 140.18 275.055 140.038 274.981 139.95C274.91 139.86 274.819 139.814 274.709 139.814C274.606 139.814 274.517 139.858 274.443 139.943C274.37 140.028 274.332 140.153 274.332 140.319Z" fill="#F66F5D"/>
<path d="M208.026 130.288L208.567 130.232C208.601 130.42 208.668 130.559 208.766 130.647C208.866 130.735 209 130.779 209.17 130.779C209.35 130.779 209.484 130.74 209.575 130.662C209.666 130.584 209.713 130.491 209.713 130.388C209.713 130.32 209.693 130.262 209.654 130.215C209.616 130.167 209.55 130.127 209.454 130.091C209.39 130.069 209.24 130.028 209.008 129.967C208.708 129.891 208.499 129.796 208.38 129.686C208.212 129.53 208.125 129.337 208.125 129.113C208.125 128.968 208.167 128.832 208.246 128.706C208.325 128.579 208.439 128.483 208.589 128.416C208.739 128.352 208.92 128.318 209.132 128.318C209.478 128.318 209.739 128.396 209.913 128.552C210.089 128.708 210.181 128.919 210.189 129.181L209.632 129.205C209.609 129.059 209.558 128.952 209.481 128.89C209.401 128.826 209.284 128.793 209.128 128.793C208.965 128.793 208.838 128.827 208.747 128.896C208.688 128.94 208.658 128.999 208.658 129.074C208.658 129.14 208.686 129.199 208.741 129.247C208.811 129.309 208.981 129.371 209.253 129.437C209.523 129.503 209.724 129.572 209.854 129.642C209.983 129.712 210.085 129.81 210.158 129.932C210.232 130.054 210.268 130.205 210.268 130.386C210.268 130.548 210.224 130.701 210.135 130.843C210.048 130.987 209.923 131.093 209.764 131.161C209.602 131.23 209.403 131.265 209.163 131.265C208.816 131.265 208.547 131.182 208.36 131.016C208.173 130.85 208.062 130.606 208.026 130.288Z" fill="#F1F1F1"/>
<path d="M272.169 130.288L272.71 130.232C272.744 130.42 272.811 130.559 272.908 130.647C273.009 130.735 273.143 130.779 273.313 130.779C273.493 130.779 273.627 130.74 273.719 130.662C273.81 130.584 273.856 130.491 273.856 130.388C273.856 130.32 273.836 130.262 273.797 130.215C273.759 130.167 273.693 130.127 273.597 130.091C273.533 130.069 273.383 130.028 273.15 129.967C272.851 129.891 272.644 129.796 272.523 129.686C272.355 129.53 272.27 129.337 272.27 129.113C272.27 128.968 272.309 128.832 272.389 128.706C272.468 128.579 272.583 128.483 272.732 128.416C272.881 128.352 273.063 128.318 273.275 128.318C273.621 128.318 273.882 128.396 274.056 128.552C274.232 128.708 274.324 128.919 274.332 129.181L273.777 129.205C273.752 129.059 273.701 128.952 273.624 128.89C273.544 128.826 273.427 128.793 273.27 128.793C273.11 128.793 272.981 128.827 272.89 128.896C272.831 128.94 272.801 128.999 272.801 129.074C272.801 129.14 272.829 129.199 272.884 129.247C272.954 129.309 273.124 129.371 273.396 129.437C273.666 129.503 273.867 129.572 273.997 129.642C274.128 129.712 274.227 129.81 274.301 129.932C274.375 130.054 274.41 130.205 274.41 130.386C274.41 130.548 274.367 130.701 274.278 130.843C274.191 130.987 274.066 131.093 273.907 131.161C273.747 131.23 273.546 131.265 273.306 131.265C272.959 131.265 272.69 131.182 272.503 131.016C272.316 130.85 272.205 130.606 272.169 130.288Z" fill="#F1F1F1"/>
<path d="M218.798 131.214V128.365H219.631L220.133 130.309L220.626 128.365H221.461V131.214H220.944V128.972L220.398 131.214H219.861L219.317 128.972V131.214H218.798Z" fill="#F1F1F1"/>
<path d="M230.5 131.214V128.847H229.681V128.366H231.872V128.847H231.056V131.214H230.5Z" fill="#F1F1F1"/>
<path d="M239.875 131.214L239.217 128.365H239.788L240.204 130.322L240.707 128.365H241.371L241.853 130.356L242.277 128.365H242.838L242.169 131.214H241.578L241.028 129.085L240.482 131.214H239.875Z" fill="#F1F1F1"/>
<path d="M252.132 131.214V128.847H251.313V128.366H253.504V128.847H252.688V131.214H252.132Z" fill="#F1F1F1"/>
<path d="M262.099 131.214V128.365H263.989V128.846H262.654V129.522H263.805V130.004H262.654V131.213H262.099V131.214Z" fill="#F1F1F1"/>
<path opacity="0.15" d="M188.662 122.689V292.039C188.662 295.649 185.817 298.589 182.324 298.589H62.0045C58.51 298.589 55.6842 295.65 55.6842 292.039V122.689C55.6842 119.079 58.51 116.139 62.0045 116.139H182.324C185.817 116.14 188.662 119.079 188.662 122.689Z" fill="#F66F5D"/>
<path opacity="0.9" d="M96.522 144.864H154.006H173.418C174.062 144.864 174.57 144.332 174.57 143.673V142.171C174.57 141.505 174.062 140.98 173.418 140.98H154.006H96.522C95.8852 140.98 95.3694 141.505 95.3694 142.171V143.673C95.3694 144.332 95.8852 144.864 96.522 144.864Z" fill="#F66F5D"/>
<path opacity="0.9" d="M173.42 148.318H145.399H96.522C95.8833 148.318 95.3713 148.847 95.3713 149.508V151.009C95.3713 151.668 95.8833 152.205 96.522 152.205H145.399H173.42C174.058 152.205 174.572 151.668 174.572 151.009V149.508C174.573 148.848 174.058 148.318 173.42 148.318Z" fill="#F66F5D"/>
<path opacity="0.9" d="M173.42 155.866H162.077H96.5259C95.8891 155.866 95.3733 156.401 95.3733 157.06V158.559C95.3733 159.219 95.8891 159.751 96.5259 159.751H162.077H173.42C174.066 159.751 174.574 159.219 174.574 158.559V157.06C174.575 156.401 174.066 155.866 173.42 155.866Z" fill="#F66F5D"/>
<path opacity="0.9" d="M96.5259 184.83H154.008H173.42C174.066 184.83 174.574 184.298 174.574 183.638V182.137C174.574 181.472 174.066 180.946 173.42 180.946H154.008H96.5259C95.8891 180.946 95.3733 181.472 95.3733 182.137V183.638C95.3733 184.298 95.8891 184.83 96.5259 184.83Z" fill="#F66F5D"/>
<path opacity="0.9" d="M173.424 188.284H145.401H96.5259C95.8872 188.284 95.3733 188.813 95.3733 189.473V190.975C95.3733 191.634 95.8872 192.171 96.5259 192.171H145.401H173.424C174.062 192.171 174.574 191.634 174.574 190.975V189.473C174.575 188.813 174.062 188.284 173.424 188.284Z" fill="#F66F5D"/>
<path opacity="0.9" d="M173.42 195.832H162.077H96.5259C95.8891 195.832 95.3733 196.366 95.3733 197.026V198.525C95.3733 199.184 95.8891 199.717 96.5259 199.717H162.077H173.42C174.066 199.717 174.574 199.184 174.574 198.525V197.026C174.575 196.366 174.066 195.832 173.42 195.832Z" fill="#F66F5D"/>
<path d="M79.9291 143.956C83.683 144.766 86.0965 148.58 85.3117 152.457C84.5288 156.336 80.8378 158.83 77.0859 158.02C73.332 157.209 70.9165 153.396 71.7014 149.519C72.4852 145.642 76.1772 143.146 79.9291 143.956ZM80.2939 142.155C75.5723 141.135 70.9456 144.265 69.9585 149.143C68.9733 154.02 71.9994 158.802 76.721 159.821C81.4427 160.841 86.0694 157.712 87.0546 152.833C88.0417 147.955 85.0136 143.175 80.2939 142.155Z" fill="#F66F5D"/>
<path d="M73.7539 149.69L76.6194 155.443C76.9127 156.032 77.7236 156.047 78.0333 155.465C79.5739 152.585 83.4972 145.849 88.7123 141.342C89.0239 141.071 88.6746 140.541 88.3359 140.776C83.9336 143.814 79.9988 148.147 77.2223 153.196L74.1323 149.405C73.9407 149.21 73.633 149.443 73.7539 149.69Z" fill="white"/>
<path d="M79.9291 183.922C83.683 184.732 86.0965 188.546 85.3117 192.423C84.5288 196.302 80.8378 198.796 77.0859 197.986C73.332 197.175 70.9165 193.362 71.7014 189.485C72.4852 185.606 76.1772 183.11 79.9291 183.922ZM80.2939 182.121C75.5723 181.101 70.9456 184.231 69.9585 189.109C68.9733 193.985 71.9994 198.768 76.721 199.787C81.4427 200.807 86.0694 197.677 87.0546 192.799C88.0417 187.921 85.0136 183.14 80.2939 182.121Z" fill="#F66F5D"/>
<path d="M73.7539 189.656L76.6194 195.409C76.9127 195.998 77.7236 196.013 78.0333 195.431C79.5739 192.551 83.4972 185.815 88.7123 181.308C89.0239 181.036 88.6746 180.506 88.3359 180.741C83.9336 183.78 79.9988 188.112 77.2223 193.162L74.1323 189.371C73.9407 189.176 73.633 189.409 73.7539 189.656Z" fill="white"/>
<path d="M155.163 226.694V228.195C155.163 228.853 154.647 229.387 154.009 229.387H96.5259C95.8891 229.387 95.3733 228.853 95.3733 228.195V226.694C95.3733 226.026 95.8891 225.503 96.5259 225.503H154.008C154.647 225.503 155.163 226.026 155.163 226.694Z" fill="#F66F5D"/>
<path opacity="0.4" d="M174.575 226.694V228.195C174.575 228.853 174.067 229.387 173.421 229.387H154.009C154.647 229.387 155.163 228.853 155.163 228.195V226.694C155.163 226.026 154.647 225.503 154.009 225.503H173.421C174.066 225.503 174.575 226.026 174.575 226.694Z" fill="#F66F5D"/>
<path d="M146.555 234.268V235.769C146.555 236.43 146.041 236.966 145.401 236.966H96.5259C95.8872 236.966 95.3733 236.43 95.3733 235.769V234.268C95.3733 233.609 95.8872 233.078 96.5259 233.078H145.401C146.041 233.077 146.555 233.608 146.555 234.268Z" fill="#F66F5D"/>
<path opacity="0.4" d="M174.575 234.268V235.769C174.575 236.43 174.063 236.966 173.425 236.966H145.402C146.042 236.966 146.556 236.43 146.556 235.769V234.268C146.556 233.609 146.042 233.078 145.402 233.078H173.425C174.062 233.077 174.575 233.608 174.575 234.268Z" fill="#F66F5D"/>
<path d="M163.23 219.512V221.013C163.23 221.671 162.715 222.205 162.078 222.205H96.5259C95.8891 222.205 95.3733 221.671 95.3733 221.013V219.512C95.3733 218.855 95.8891 218.321 96.5259 218.321H162.077C162.715 218.32 163.23 218.854 163.23 219.512Z" fill="#F66F5D"/>
<path opacity="0.4" d="M174.575 219.512V221.013C174.575 221.671 174.067 222.205 173.421 222.205H162.078C162.715 222.205 163.23 221.671 163.23 221.013V219.512C163.23 218.855 162.715 218.321 162.078 218.321H173.421C174.066 218.32 174.575 218.854 174.575 219.512Z" fill="#F66F5D"/>
<path d="M79.9291 220.611C83.683 221.421 86.0965 225.235 85.3117 229.112C84.5288 232.991 80.8378 235.485 77.0859 234.675C73.332 233.864 70.9165 230.051 71.7014 226.174C72.4852 222.296 76.1772 219.8 79.9291 220.611ZM80.2939 218.811C75.5723 217.791 70.9456 220.921 69.9585 225.799C68.9733 230.675 71.9994 235.458 76.721 236.477C81.4427 237.497 86.0694 234.367 87.0546 229.489C88.0417 224.61 85.0136 219.829 80.2939 218.811Z" fill="#F66F5D"/>
<path d="M155.163 263.739V265.24C155.163 265.898 154.647 266.432 154.009 266.432H96.5259C95.8891 266.432 95.3733 265.898 95.3733 265.24V263.739C95.3733 263.071 95.8891 262.548 96.5259 262.548H154.008C154.647 262.548 155.163 263.071 155.163 263.739Z" fill="#F66F5D"/>
<path d="M174.575 263.739V265.24C174.575 265.898 174.067 266.432 173.421 266.432H154.009C154.647 266.432 155.163 265.898 155.163 265.24V263.739C155.163 263.071 154.647 262.548 154.009 262.548H173.421C174.066 262.548 174.575 263.071 174.575 263.739Z" fill="#F66F5D"/>
<path d="M146.555 271.312V272.813C146.555 273.474 146.041 274.01 145.401 274.01H96.5259C95.8872 274.01 95.3733 273.474 95.3733 272.813V271.312C95.3733 270.653 95.8872 270.122 96.5259 270.122H145.401C146.041 270.122 146.555 270.653 146.555 271.312Z" fill="#F66F5D"/>
<path opacity="0.4" d="M174.575 271.312V272.813C174.575 273.474 174.063 274.01 173.425 274.01H145.402C146.042 274.01 146.556 273.474 146.556 272.813V271.312C146.556 270.653 146.042 270.122 145.402 270.122H173.425C174.062 270.122 174.575 270.653 174.575 271.312Z" fill="#F66F5D"/>
<path d="M163.23 256.557V258.058C163.23 258.716 162.715 259.25 162.078 259.25H96.5259C95.8891 259.25 95.3733 258.716 95.3733 258.058V256.557C95.3733 255.9 95.8891 255.366 96.5259 255.366H162.077C162.715 255.365 163.23 255.899 163.23 256.557Z" fill="#F66F5D"/>
<path opacity="0.4" d="M174.575 256.557V258.058C174.575 258.716 174.067 259.25 173.421 259.25H162.078C162.715 259.25 163.23 258.716 163.23 258.058V256.557C163.23 255.9 162.715 255.366 162.078 255.366H173.421C174.066 255.365 174.575 255.899 174.575 256.557Z" fill="#F66F5D"/>
<path d="M79.9291 257.656C83.683 258.466 86.0965 262.28 85.3117 266.157C84.5288 270.036 80.8378 272.53 77.0859 271.72C73.332 270.909 70.9165 267.096 71.7014 263.219C72.4852 259.341 76.1772 256.845 79.9291 257.656ZM80.2939 255.855C75.5723 254.835 70.9456 257.965 69.9585 262.843C68.9733 267.719 71.9994 272.502 76.721 273.521C81.4427 274.541 86.0694 271.411 87.0546 266.533C88.0417 261.655 85.0136 256.874 80.2939 255.855Z" fill="#F66F5D"/>
<path d="M196.729 207.786C197.116 208.379 196.969 209.186 196.396 209.591L183.381 218.738C182.804 219.14 182.024 218.987 181.632 218.394L169.165 199.451C168.774 198.858 168.925 198.051 169.497 197.647L182.513 188.5C183.087 188.098 183.869 188.249 184.259 188.843L196.729 207.786Z" fill="#D3D3D3"/>
<path d="M183.774 190.25L194.364 206.341C194.704 206.857 194.576 207.562 194.074 207.913L182.723 215.892C182.223 216.246 181.541 216.111 181.201 215.593L170.611 199.502C170.269 198.984 170.399 198.28 170.901 197.929L182.251 189.95C182.754 189.599 183.434 189.732 183.774 190.25Z" fill="#CCE9FF"/>
<path d="M189.095 213.74C189.512 213.74 189.849 213.391 189.849 212.961C189.849 212.531 189.512 212.182 189.095 212.182C188.679 212.182 188.341 212.531 188.341 212.961C188.341 213.391 188.679 213.74 189.095 213.74Z" fill="#2A94F4"/>
<path d="M180.896 216.433C180.896 216.433 178.79 214.476 177.771 213.657C176.752 212.838 174.841 210.428 174.558 210.288C174.276 210.146 170.625 202.404 170.029 202.094C169.436 201.784 170.592 200.74 171.853 202.614C173.112 204.487 175.327 206.897 176.168 206.721C177.009 206.545 176.285 204.194 176.835 203.69C177.385 203.186 177.358 203.544 177.627 203.808C177.895 204.077 177.569 206.996 178.35 207.889C179.129 208.78 179.267 210.59 179.853 211.279C180.439 211.967 183.267 215.321 183.267 215.321L180.896 216.433Z" fill="#EEA886"/>
<path d="M226.243 321.102C226.243 321.102 226.699 324.371 226.755 324.861C226.812 325.352 231.822 324.572 231.822 324.572L232.226 320.682C232.227 320.682 226.869 320.641 226.243 321.102Z" fill="#424773"/>
<path d="M226.703 324.444C226.703 324.444 225.115 326.413 223.58 327.271C222.043 328.129 217.21 328.469 216.302 329.356C215.646 329.999 216.336 332.758 222.712 332.703C229.089 332.645 232.165 333.093 232.845 332.034C233.529 330.977 231.858 324.223 231.858 324.223C231.858 324.223 230.348 324.785 226.703 324.444Z" fill="#0E538C"/>
<path d="M190.346 321.102C190.346 321.102 190.801 324.371 190.858 324.861C190.915 325.352 195.925 324.572 195.925 324.572L196.329 320.682C196.33 320.682 190.972 320.641 190.346 321.102Z" fill="#424773"/>
<path d="M190.803 324.444C190.803 324.444 189.217 326.413 187.682 327.271C186.146 328.129 178.077 328.833 177.17 329.721C176.514 330.363 177.844 332.944 186.815 332.702C193.191 332.531 196.266 333.092 196.95 332.033C197.635 330.976 195.962 324.222 195.962 324.222C195.962 324.222 194.538 324.822 190.803 324.444Z" fill="#0E538C"/>
<path d="M214.239 172.183C214.239 172.183 207.921 169.745 205.006 174.713C202.093 179.683 202.375 189.633 205.557 190.858C208.744 192.081 213.528 191.441 215.159 188.333C216.789 185.222 218.261 180.726 218.191 177.722C218.12 174.717 215.899 173.049 214.239 172.183Z" fill="#EEA886"/>
<path d="M206.246 191.085C206.246 191.085 206.508 192.847 206.073 193.717C205.639 194.585 214.259 194.608 214.259 194.608C214.259 194.608 214.959 189.884 216.286 185.893C217.613 181.902 206.246 191.085 206.246 191.085Z" fill="#EEA886"/>
<path d="M216.286 185.893C216.286 185.893 215.691 186.908 213.262 186.513C210.833 186.119 207.869 182.782 206.856 182.415C205.843 182.048 205.833 181.432 205.833 181.432L205.198 182.391L204.121 182.46C204.121 182.46 205.105 179.475 203.62 178.257C202.138 177.038 205.159 168.589 212.948 171.402C212.948 171.402 218.931 173.107 218.713 176.623C218.495 180.137 217.624 184.143 216.286 185.893Z" fill="#211F2F"/>
<path d="M205.994 180.153C206.13 179.563 207.58 177.879 208.137 179.682C208.693 181.488 207.296 183.914 206.519 183.705C205.741 183.499 205.648 181.649 205.994 180.153Z" fill="#EEA886"/>
<path d="M176.567 213.215C176.571 213.214 176.575 213.214 176.578 213.214C176.529 213.236 176.521 213.237 176.567 213.215Z" fill="#323657"/>
<path d="M229.275 217.59C229.025 218.434 227.873 219.142 227.129 219.458C226.653 219.658 226.12 219.725 225.579 219.617L225.201 219.551V219.542H225.191C225.167 219.759 225.134 219.976 225.112 220.2V220.234C225.628 222.717 224.852 231.721 224.426 236.064C224.287 237.514 224.184 238.45 224.184 238.45C224.184 238.45 197.309 238.207 197.666 238.45C196.841 238.108 196.438 236.074 196.269 233.397C195.93 228.103 196.528 220.325 196.681 218.433C196.415 220.4 195.059 225.736 193.445 228.752C192.808 229.937 190.695 233.647 189.671 232.795C184.725 228.72 177.068 213.338 176.577 213.213C176.989 213.03 180.208 211.496 180.659 211.337C181.054 211.205 184.629 215.107 186.791 217.532C187.751 218.607 188.437 219.39 188.437 219.39C189.058 217.941 191.333 208.794 192.044 205.626C193.632 198.49 193.39 198.197 193.39 198.197C198.223 196.689 205.564 193.612 205.564 193.612L215.246 193.203C215.246 193.203 224.129 195.223 227.63 196.855C227.639 196.855 227.647 196.872 227.662 196.897C228.115 197.699 231.534 210.079 229.275 217.59Z" fill="#6758EE"/>
<path d="M188.435 219.392L187.626 222.941C187.626 222.941 186.746 219.38 186.787 217.531C187.753 218.608 188.435 219.392 188.435 219.392Z" fill="#6758EE"/>
<path d="M232.995 305.532C232.88 301.179 229.653 281.919 228.865 273.783C228.156 266.485 226.1 258.858 226.451 251.873C226.661 247.701 226.679 243.572 225.362 240.676C225.644 239.583 224.274 238.092 224.462 236.763C224.462 236.763 199.944 233.893 197.312 238.206C197.312 238.206 193.765 257.352 193.296 261.628C192.83 265.903 192.517 282.319 192.281 284.993C192.049 287.665 190.722 319.962 189.473 323.933H197.728C197.728 323.933 204.066 300.454 204.066 289.344C204.066 279.097 208.23 267.217 211.358 259.682C213.242 267.307 218.065 284.031 219.208 286.825C220.612 290.261 226.037 323.933 226.037 323.933L232.496 323.78C232.496 323.78 233.112 309.883 232.995 305.532Z" fill="#0A4971"/>
<path d="M208.264 178.688C211.184 178.688 213.551 176.59 213.551 174.003C213.551 171.416 211.184 169.318 208.264 169.318C205.344 169.318 202.977 171.416 202.977 174.003C202.977 176.59 205.344 178.688 208.264 178.688Z" fill="#211F2F"/>
</svg>
