<svg width="120" height="80" viewBox="0 0 120 80" fill="none" xmlns="http://www.w3.org/2000/svg">
<g opacity="0.8">
<path d="M40.6722 69.3788C39.6516 69.3788 38.5525 69.11 37.3749 68.5724C36.1973 68.0604 34.8103 67.2413 33.214 66.1148C31.6178 64.9884 29.6681 63.5292 27.3653 61.7372C23.6493 61.5068 20.81 60.2141 18.8473 57.8588C16.8847 55.5036 15.9033 52.2012 15.9033 47.9516C15.9033 43.1645 17.1071 39.542 19.5146 37.0844C21.9222 34.6012 25.2456 33.3596 29.485 33.3596C33.7243 33.3596 36.9431 34.5628 39.1413 36.9692C41.3656 39.35 42.4778 42.678 42.4778 46.9532C42.4778 50.358 41.7844 53.2508 40.3974 55.6316C39.0104 57.9869 37.0347 59.6765 34.4701 60.7004C35.9879 61.622 37.2179 62.2748 38.16 62.6588C39.1282 63.0428 40.0049 63.2348 40.7899 63.2348C41.4704 63.2348 42.1377 63.1068 42.7919 62.8508C43.446 62.6204 44.1788 62.2748 44.99 61.814L47.777 66.5372C46.2854 67.4333 44.99 68.1245 43.8909 68.6108C42.818 69.1229 41.7451 69.3788 40.6722 69.3788ZM24.5391 47.7212C24.5391 49.718 24.683 51.318 24.9708 52.5212C25.2587 53.6988 25.7297 54.5436 26.384 55.0556C27.0644 55.5677 27.9672 55.8236 29.0924 55.8236C30.27 55.8236 31.199 55.5548 31.8794 55.0172C32.586 54.4796 33.0832 53.5836 33.3711 52.3292C33.6851 51.0749 33.8421 49.3853 33.8421 47.2604C33.8421 45.2892 33.6851 43.7276 33.3711 42.5756C33.0832 41.3981 32.5991 40.566 31.9187 40.0796C31.2382 39.5676 30.3093 39.3116 29.1317 39.3116C28.0065 39.3116 27.1036 39.5804 26.4232 40.118C25.7428 40.6556 25.2587 41.5388 24.9708 42.7676C24.683 43.9709 24.5391 45.6221 24.5391 47.7212ZM57.4392 57.3596V61.1996H46.5268V57.3596L48.0969 56.7068L56.6934 34.0124L64.9759 33.8204L73.1406 56.7452L74.5929 57.3596V61.1996H62.3067V57.3596L64.1123 56.5532L63.4843 54.2876H56.1046L55.4373 56.4764L57.4392 57.3596ZM57.7925 48.9116H62.0319L60.1477 41.3468L57.7925 48.9116Z" fill="#F49422"/>
<path d="M88.6685 57.3597V61.1997H78.1094V57.3597L79.915 56.5149L87.0984 47.7981L79.915 38.4669L78.5019 37.9677V34.1277L91.1807 33.9357V37.7757L89.4928 38.5821L92.8686 43.0365L96.2444 38.6973L94.5958 37.9677V34.1277L105.037 33.9357V37.7757L103.271 38.8125L96.5584 47.1069L104.134 56.7837L105.469 57.3597V61.1997H92.5546V57.3597L94.635 56.4381L90.8667 51.7149L87.0591 56.5917L88.6685 57.3597Z" fill="white"/>
<path d="M79.9737 43.0504C79.9719 43.0518 79.9702 43.0518 79.9702 43.055L79.9668 43.0578C79.9616 43.0625 79.9598 43.064 79.9616 43.064L74.9968 47.6376L73.8275 48.7152C73.8254 48.7138 73.823 48.7128 73.8205 48.7122L73.7999 48.7032L69.0181 46.8324L69.1925 46.7614L69.9985 46.43L71.1224 45.9683C71.1244 45.9669 71.1267 45.9658 71.1293 45.9653H71.131L79.5172 42.5222C79.5973 42.4893 79.688 42.4814 79.774 42.5C79.8597 42.5186 79.9358 42.5625 79.9892 42.6243C80.0427 42.6862 80.0703 42.7623 80.0675 42.8398C80.0646 42.9173 80.0314 42.9917 79.9737 43.0504Z" fill="url(#paint0_linear)"/>
<g style="mix-blend-mode:multiply" opacity="0.2">
<g style="mix-blend-mode:multiply" opacity="0.2">
<g style="mix-blend-mode:multiply" opacity="0.2">
<path d="M64.13 45.3376H64.1326C64.13 45.3402 64.13 45.3426 64.1276 45.3452C64.1273 45.3439 64.1274 45.3424 64.1279 45.3411C64.1283 45.3399 64.129 45.3387 64.13 45.3376Z" fill="black"/>
</g>
</g>
</g>
<g style="mix-blend-mode:multiply" opacity="0.2">
<g style="mix-blend-mode:multiply" opacity="0.2">
<g style="mix-blend-mode:multiply" opacity="0.2">
<path d="M73.8278 48.7153C73.8278 48.7153 73.6706 48.6654 73.3979 48.5746C73.1244 48.4792 72.735 48.3522 72.2707 48.1857C71.8063 48.0221 71.2659 47.827 70.6912 47.6121C70.1165 47.3971 69.5053 47.1611 68.8942 46.9249C68.5904 46.8039 68.2867 46.6842 67.988 46.5647C67.6893 46.4482 67.3975 46.3251 67.1128 46.2106C66.5466 45.979 66.0201 45.7579 65.5711 45.5628C65.345 45.4674 65.1414 45.3765 64.9584 45.295C64.8686 45.255 64.7824 45.2161 64.7063 45.1845C64.638 45.1563 64.5623 45.1447 64.4871 45.1511C64.3782 45.1599 64.2761 45.2016 64.1986 45.2692C64.1917 45.2748 64.1855 45.2809 64.1796 45.2874C64.1743 45.2919 64.1692 45.2979 64.1644 45.3024C64.1593 45.3065 64.1547 45.3109 64.1506 45.3157C64.2111 45.2301 64.3053 45.1669 64.4153 45.1381C64.5255 45.1095 64.6439 45.1171 64.7479 45.1599L69.0187 46.8322L69.1931 46.761C69.7398 46.9774 70.2858 47.194 70.7968 47.4043C71.3629 47.6358 71.8894 47.8583 72.3399 48.0521C72.7904 48.2458 73.16 48.4137 73.4206 48.5287C73.6156 48.6166 73.7469 48.6771 73.8003 48.7029L73.8209 48.712C73.8234 48.7127 73.8257 48.7138 73.8278 48.7153Z" fill="black"/>
</g>
</g>
</g>
<path d="M73.8271 48.7168L71.9439 50.4528C71.9426 50.4541 71.9415 50.4557 71.9406 50.4574C71.9406 50.4574 71.9388 50.4558 71.9388 50.4574L70.437 51.842C70.4153 51.8623 70.3922 51.8815 70.368 51.8995C70.2735 51.9697 70.1635 52.022 70.0448 52.0531C69.9262 52.0842 69.8016 52.0934 69.6786 52.0802C69.5557 52.067 69.4372 52.0316 69.3308 51.9763C69.2242 51.921 69.1318 51.847 69.0595 51.7589L66.0644 48.1114V48.1099C66.0608 48.1082 66.0608 48.1068 66.0608 48.1068L66.0248 48.0629L64.1604 45.7942C64.1064 45.7314 64.0742 45.6563 64.0679 45.5779C64.0614 45.4994 64.081 45.4211 64.124 45.3522C64.1256 45.3504 64.1269 45.3484 64.1276 45.3462C64.1279 45.3462 64.1281 45.3462 64.1282 45.3461C64.1285 45.3461 64.1287 45.346 64.1288 45.3457C64.129 45.3456 64.1291 45.3455 64.1292 45.3452C64.1292 45.345 64.1293 45.3449 64.1292 45.3446V45.3432C64.1291 45.3424 64.1292 45.3415 64.1294 45.3408C64.1298 45.34 64.1303 45.3392 64.1309 45.3386H64.1328C64.1361 45.3325 64.1431 45.3265 64.1499 45.3175C64.2104 45.2318 64.3046 45.1686 64.4148 45.1399C64.5248 45.1111 64.6432 45.1189 64.7472 45.1615L69.0181 46.834L73.7998 48.7046L73.8204 48.7138C73.8228 48.7144 73.8252 48.7154 73.8271 48.7168Z" fill="url(#paint1_linear)"/>
<g style="mix-blend-mode:multiply" opacity="0.2">
<g style="mix-blend-mode:multiply" opacity="0.2">
<g style="mix-blend-mode:multiply" opacity="0.2">
<path d="M74.9968 47.637L73.8275 48.7146C73.8254 48.7133 73.823 48.7122 73.8205 48.7116L69.0181 46.8318L69.1925 46.7608L69.9985 46.4293L74.9968 47.637Z" fill="black"/>
</g>
</g>
</g>
<g style="mix-blend-mode:screen" opacity="0.5">
<g style="mix-blend-mode:screen" opacity="0.5">
<g style="mix-blend-mode:screen" opacity="0.5">
<path d="M64.1297 45.3376H64.1321C64.1297 45.3421 64.1275 45.3445 64.1275 45.3466C64.1272 45.3435 64.1279 45.3403 64.1297 45.3376Z" fill="#F49422"/>
</g>
</g>
</g>
<g style="mix-blend-mode:screen" opacity="0.5">
<g style="mix-blend-mode:screen" opacity="0.5">
<g style="mix-blend-mode:screen" opacity="0.5">
<path d="M73.8278 48.7153C73.8278 48.7153 73.6706 48.6654 73.3979 48.5746C73.1244 48.4792 72.735 48.3522 72.2707 48.1857C71.8063 48.0221 71.2659 47.827 70.6912 47.6121C70.1165 47.3971 69.5053 47.1611 68.8942 46.9249C68.5904 46.8039 68.2867 46.6842 67.988 46.5647C67.6893 46.4482 67.3975 46.3251 67.1128 46.2106C66.5466 45.979 66.0201 45.7579 65.5711 45.5628C65.345 45.4674 65.1414 45.3765 64.9584 45.295C64.8686 45.255 64.7824 45.2161 64.7063 45.1845C64.638 45.1563 64.5623 45.1447 64.4871 45.1511C64.3782 45.1599 64.2761 45.2016 64.1986 45.2692C64.1917 45.2748 64.1855 45.2809 64.1796 45.2874C64.1741 45.292 64.1689 45.297 64.1644 45.3024C64.1593 45.3065 64.1547 45.3109 64.1506 45.3157C64.2111 45.2301 64.3053 45.1669 64.4153 45.1381C64.5255 45.1095 64.6439 45.1171 64.7479 45.1599L69.0187 46.8322L73.8005 48.7029L73.8211 48.712C73.8235 48.7127 73.8258 48.7138 73.8278 48.7153Z" fill="#F49422"/>
</g>
</g>
</g>
<g style="mix-blend-mode:multiply" opacity="0.2">
<g style="mix-blend-mode:multiply" opacity="0.2">
<g style="mix-blend-mode:multiply" opacity="0.2">
<path d="M71.9393 50.4574L70.4375 51.8421C70.4158 51.8624 70.3927 51.8816 70.3686 51.8997C70.2741 51.9698 70.1641 52.0221 70.0455 52.0532C69.9269 52.0843 69.8021 52.0935 69.6792 52.0803C69.5563 52.0671 69.4379 52.0317 69.3313 51.9764C69.2247 51.9211 69.1325 51.8471 69.0601 51.759L66.0649 48.1115C66.0858 48.1311 66.172 48.2204 66.3079 48.3644C66.4598 48.5309 66.6843 48.7655 66.9415 49.0531C67.1987 49.3407 67.4973 49.678 67.8098 50.0444C68.124 50.4076 68.4502 50.8033 68.7782 51.1962L69.0199 51.4944L69.139 51.6426L69.17 51.6789C69.178 51.6895 69.1866 51.6997 69.196 51.7093C69.2142 51.7309 69.2345 51.7512 69.2567 51.7698C69.3363 51.8403 69.4326 51.8947 69.5389 51.9289C69.6451 51.9632 69.7586 51.9765 69.8714 51.968C69.9817 51.9601 70.0888 51.9316 70.1856 51.8847C70.2319 51.8624 70.2754 51.8356 70.315 51.8049L70.3496 51.7792L70.3633 51.7686L70.3785 51.7533L70.4422 51.6989C70.6115 51.5505 70.7738 51.4129 70.9256 51.2862C71.2243 51.0318 71.4833 50.8275 71.6593 50.6792C71.8172 50.5533 71.917 50.4734 71.9393 50.4574Z" fill="black"/>
</g>
</g>
</g>
<g style="mix-blend-mode:screen" opacity="0.5">
<g style="mix-blend-mode:screen" opacity="0.5">
<g style="mix-blend-mode:screen" opacity="0.5">
<path d="M80.0186 42.9778C80.0397 42.9359 80.0501 42.8905 80.0489 42.8447C80.0476 42.799 80.0349 42.754 80.0117 42.7129C79.9807 42.652 79.9272 42.6017 79.8599 42.5704C79.7928 42.5391 79.7156 42.5283 79.6405 42.5399C79.546 42.5673 79.4556 42.6043 79.3712 42.6504C79.2729 42.6942 79.1692 42.7411 79.0621 42.7895C78.6305 42.9849 78.1248 43.2073 77.5809 43.4419C77.3076 43.557 77.027 43.6816 76.7386 43.799C76.4502 43.9165 76.1603 44.0398 75.8686 44.1608C75.2817 44.4005 74.6947 44.6375 74.1405 44.854C73.5864 45.0704 73.0686 45.2686 72.6219 45.4336C72.1748 45.6016 71.7984 45.7302 71.536 45.8256C71.3098 45.9055 71.1648 45.9527 71.1304 45.9648L79.5166 42.5218C79.5966 42.4891 79.687 42.4816 79.7727 42.5003C79.8585 42.519 79.9342 42.5628 79.9875 42.6246C80.0409 42.6864 80.0684 42.7622 80.0654 42.8396C80.0627 42.917 80.0297 42.9913 79.9722 43.05C79.9906 43.0275 80.006 43.0033 80.0186 42.9778Z" fill="#F49422"/>
</g>
</g>
</g>
<g style="mix-blend-mode:screen" opacity="0.3">
<g style="mix-blend-mode:screen" opacity="0.3">
<g style="mix-blend-mode:screen" opacity="0.3">
<path d="M79.6237 42.9361L78.9937 43.5158C78.5397 43.9336 78.0863 44.3513 77.6335 44.7689L71.374 46.1992C72.8414 45.5968 74.3094 44.9945 75.7782 44.3921C76.9468 43.9127 78.1161 43.4324 79.2864 42.9512C79.3985 42.9059 79.5107 42.8588 79.623 42.8135C79.7605 42.7559 79.6822 42.8815 79.6237 42.9361Z" fill="#F49422"/>
</g>
</g>
</g>
<g style="mix-blend-mode:screen" opacity="0.3">
<g style="mix-blend-mode:screen" opacity="0.3">
<g style="mix-blend-mode:screen" opacity="0.3">
<path d="M73.2428 48.8158C72.9561 49.0777 72.6707 49.3406 72.3865 49.6043C72.3071 49.677 72.2278 49.7508 72.1484 49.8238L64.5579 45.4318C64.6452 45.4453 64.7289 45.473 64.8047 45.5135C66.0339 45.9947 67.2635 46.476 68.4936 46.9573C70.0769 47.5776 71.6599 48.1972 73.2428 48.8158Z" fill="#F49422"/>
</g>
</g>
</g>
</g>
<path d="M16.264 24V15.184H20.296C20.872 15.184 21.384 15.328 21.832 15.616C22.28 15.8933 22.6267 16.2507 22.872 16.688C23.128 17.1147 23.256 17.5627 23.256 18.032C23.256 18.5227 23.1333 18.9867 22.888 19.424C22.6533 19.8613 22.3227 20.2187 21.896 20.496C21.4693 20.7627 20.968 20.896 20.392 20.896H17.544V24H16.264ZM17.544 19.76H20.312C20.6427 19.76 20.9307 19.6853 21.176 19.536C21.4213 19.376 21.6133 19.168 21.752 18.912C21.8907 18.6453 21.96 18.352 21.96 18.032C21.96 17.7013 21.88 17.408 21.72 17.152C21.56 16.896 21.3467 16.6933 21.08 16.544C20.824 16.3947 20.5413 16.32 20.232 16.32H17.544V19.76ZM28.9344 24.064C28.2517 24.064 27.633 23.9413 27.0784 23.696C26.5237 23.44 26.0437 23.0987 25.6384 22.672C25.233 22.2453 24.9184 21.7653 24.6944 21.232C24.481 20.6987 24.3744 20.1493 24.3744 19.584C24.3744 18.9973 24.4864 18.4373 24.7104 17.904C24.945 17.3707 25.265 16.896 25.6704 16.48C26.0864 16.064 26.5717 15.7387 27.1264 15.504C27.6917 15.2587 28.2997 15.136 28.9504 15.136C29.633 15.136 30.2517 15.264 30.8064 15.52C31.361 15.776 31.8357 16.1173 32.2304 16.544C32.6357 16.9707 32.945 17.4507 33.1584 17.984C33.3824 18.5173 33.4944 19.0613 33.4944 19.616C33.4944 20.2027 33.377 20.7627 33.1424 21.296C32.9184 21.8293 32.6037 22.304 32.1984 22.72C31.793 23.136 31.313 23.4667 30.7584 23.712C30.2037 23.9467 29.5957 24.064 28.9344 24.064ZM25.6704 19.6C25.6704 20.0267 25.745 20.4373 25.8944 20.832C26.0544 21.2267 26.2784 21.584 26.5664 21.904C26.8544 22.2133 27.201 22.4587 27.6064 22.64C28.0117 22.8213 28.4597 22.912 28.9504 22.912C29.4517 22.912 29.8997 22.816 30.2944 22.624C30.6997 22.432 31.041 22.176 31.3184 21.856C31.5957 21.536 31.809 21.1787 31.9584 20.784C32.1077 20.3893 32.1824 19.9893 32.1824 19.584C32.1824 19.1573 32.1024 18.7467 31.9424 18.352C31.793 17.9573 31.5744 17.6053 31.2864 17.296C30.9984 16.9867 30.6517 16.7413 30.2464 16.56C29.8517 16.3787 29.4144 16.288 28.9344 16.288C28.433 16.288 27.9797 16.384 27.5744 16.576C27.169 16.7573 26.8224 17.008 26.5344 17.328C26.257 17.648 26.0437 18.0053 25.8944 18.4C25.745 18.7947 25.6704 19.1947 25.6704 19.6ZM38.5809 15.232H39.7809L41.0449 18.256L42.3249 15.232H43.5249L41.8449 19.12L43.4289 22.448L46.7089 15.184H48.1169L44.0689 24H42.9649L41.0609 19.968L39.1569 24H38.0369L34.0049 15.184H35.3969L38.6929 22.448L40.2449 19.12L38.5809 15.232ZM56.1841 22.864V24H49.5921V15.184H56.0561V16.32H50.8721V18.976H55.3841V20.032H50.8721V22.864H56.1841ZM58.0765 24V15.184H62.2365C62.8125 15.184 63.3192 15.328 63.7565 15.616C64.2045 15.8933 64.5512 16.2507 64.7965 16.688C65.0525 17.1147 65.1805 17.5627 65.1805 18.032C65.1805 18.4267 65.0952 18.8053 64.9245 19.168C64.7645 19.52 64.5352 19.8293 64.2365 20.096C63.9378 20.352 63.5858 20.5333 63.1805 20.64L65.5165 24H64.0445L61.8685 20.896H59.3565V24H58.0765ZM59.3565 19.76H62.2365C62.5672 19.76 62.8552 19.68 63.1005 19.52C63.3458 19.36 63.5378 19.152 63.6765 18.896C63.8152 18.6293 63.8845 18.3413 63.8845 18.032C63.8845 17.712 63.8045 17.424 63.6445 17.168C63.4952 16.912 63.2872 16.7093 63.0205 16.56C62.7645 16.4 62.4765 16.32 62.1565 16.32H59.3565V19.76ZM73.8873 22.864V24H67.2953V15.184H73.7593V16.32H68.5753V18.976H73.0873V20.032H68.5753V22.864H73.8873ZM75.7796 24V15.184H79.1556C80.1903 15.184 81.0543 15.3813 81.7476 15.776C82.441 16.1707 82.9636 16.6987 83.3156 17.36C83.6676 18.0213 83.8436 18.7573 83.8436 19.568C83.8436 20.464 83.6463 21.2427 83.2516 21.904C82.8676 22.5653 82.3236 23.0827 81.6196 23.456C80.9263 23.8187 80.105 24 79.1556 24H75.7796ZM82.5316 19.568C82.5316 18.928 82.3983 18.368 82.1316 17.888C81.8756 17.3973 81.497 17.0133 80.9956 16.736C80.4943 16.4587 79.881 16.32 79.1556 16.32H77.0596V22.864H79.1556C79.8916 22.864 80.5103 22.72 81.0116 22.432C81.513 22.144 81.8916 21.7547 82.1476 21.264C82.4036 20.7627 82.5316 20.1973 82.5316 19.568ZM97.2345 21.728C97.2345 22.1867 97.1065 22.5867 96.8505 22.928C96.5945 23.2693 96.2478 23.536 95.8105 23.728C95.3838 23.9093 94.9092 24 94.3865 24H89.8265V15.184H94.6425C95.0905 15.184 95.4745 15.296 95.7945 15.52C96.1252 15.7333 96.3758 16.016 96.5465 16.368C96.7278 16.7093 96.8185 17.0667 96.8185 17.44C96.8185 17.8667 96.7012 18.2667 96.4665 18.64C96.2318 19.0133 95.8958 19.2907 95.4585 19.472C96.0025 19.6213 96.4345 19.8933 96.7545 20.288C97.0745 20.6827 97.2345 21.1627 97.2345 21.728ZM95.9385 21.488C95.9385 21.232 95.8745 20.9973 95.7465 20.784C95.6185 20.5707 95.4425 20.4 95.2185 20.272C95.0052 20.1333 94.7598 20.064 94.4825 20.064H91.1065V22.896H94.3865C94.6745 22.896 94.9358 22.832 95.1705 22.704C95.4052 22.576 95.5918 22.4053 95.7305 22.192C95.8692 21.968 95.9385 21.7333 95.9385 21.488ZM91.1065 16.304V19.024H94.1145C94.3918 19.024 94.6372 18.9653 94.8505 18.848C95.0638 18.7307 95.2345 18.5707 95.3625 18.368C95.4905 18.1547 95.5545 17.92 95.5545 17.664C95.5545 17.3973 95.4958 17.1627 95.3785 16.96C95.2612 16.7573 95.1012 16.5973 94.8985 16.48C94.6958 16.3627 94.4612 16.304 94.1945 16.304H91.1065ZM99.132 15.184L102.028 19.68L104.94 15.184H106.348L102.668 20.816V24H101.388V20.8L97.74 15.184H99.132Z" fill="#D6D6D6"/>
<rect x="0.5" y="0.5" width="119" height="79" stroke="#D6D6D6"/>
<defs>
<linearGradient id="paint0_linear" x1="66.0237" y1="45.6027" x2="80.0676" y2="45.6027" gradientUnits="userSpaceOnUse">
<stop stop-color="white"/>
<stop offset="1" stop-color="white"/>
</linearGradient>
<linearGradient id="paint1_linear" x1="72.7046" y1="47.358" x2="66.0848" y2="50.3001" gradientUnits="userSpaceOnUse">
<stop stop-color="white"/>
<stop offset="1" stop-color="white"/>
</linearGradient>
</defs>
</svg>
