<svg width="350" height="450" viewBox="0 0 350 450" fill="none" xmlns="http://www.w3.org/2000/svg">
<rect width="350" height="450" rx="6" fill="#35324B"/>
<path d="M26.3371 44.12C25.0891 44.12 23.9531 43.88 22.9291 43.4C21.9211 42.904 21.0491 42.248 20.3131 41.432C19.5931 40.616 19.0331 39.696 18.6331 38.672C18.2331 37.632 18.0331 36.568 18.0331 35.48C18.0331 34.344 18.2411 33.264 18.6571 32.24C19.0891 31.2 19.6731 30.28 20.4091 29.48C21.1611 28.664 22.0411 28.024 23.0491 27.56C24.0731 27.08 25.1931 26.84 26.4091 26.84C27.6411 26.84 28.7611 27.088 29.7691 27.584C30.7931 28.08 31.6651 28.744 32.3851 29.576C33.1051 30.408 33.6651 31.336 34.0651 32.36C34.4651 33.384 34.6651 34.44 34.6651 35.528C34.6651 36.648 34.4571 37.728 34.0411 38.768C33.6251 39.792 33.0411 40.712 32.2891 41.528C31.5531 42.328 30.6731 42.96 29.6491 43.424C28.6411 43.888 27.5371 44.12 26.3371 44.12ZM26.3611 41.192C27.1611 41.192 27.8731 41.032 28.4971 40.712C29.1211 40.376 29.6411 39.936 30.0571 39.392C30.4731 38.832 30.7851 38.216 30.9931 37.544C31.2171 36.856 31.3291 36.168 31.3291 35.48C31.3291 34.744 31.2091 34.032 30.9691 33.344C30.7451 32.656 30.4171 32.048 29.9851 31.52C29.5691 30.992 29.0491 30.568 28.4251 30.248C27.8171 29.928 27.1291 29.768 26.3611 29.768C25.5451 29.768 24.8251 29.936 24.2011 30.272C23.5931 30.592 23.0811 31.032 22.6651 31.592C22.2491 32.136 21.9291 32.744 21.7051 33.416C21.4971 34.088 21.3931 34.776 21.3931 35.48C21.3931 36.216 21.5051 36.928 21.7291 37.616C21.9531 38.304 22.2731 38.912 22.6891 39.44C23.1211 39.968 23.6411 40.392 24.2491 40.712C24.8731 41.032 25.5771 41.192 26.3611 41.192ZM26.0251 37.688H29.1451L34.7611 44H31.6411L26.0251 37.688ZM36.7503 39.296V31.424H39.9663V38.6C39.9663 39.56 40.1423 40.288 40.4943 40.784C40.8463 41.264 41.3663 41.504 42.0543 41.504C42.4703 41.504 42.8783 41.424 43.2783 41.264C43.6943 41.088 44.0703 40.832 44.4063 40.496C44.7583 40.16 45.0543 39.736 45.2943 39.224V31.424H48.5103V40.4C48.5103 40.736 48.5663 40.976 48.6783 41.12C48.8063 41.264 49.0063 41.352 49.2783 41.384V44C48.9583 44.048 48.6863 44.08 48.4623 44.096C48.2543 44.128 48.0623 44.144 47.8863 44.144C47.3103 44.144 46.8383 44.016 46.4703 43.76C46.1183 43.488 45.9103 43.12 45.8463 42.656L45.7743 41.648C45.2143 42.496 44.4943 43.144 43.6143 43.592C42.7343 44.024 41.7663 44.24 40.7103 44.24C39.4143 44.24 38.4303 43.824 37.7583 42.992C37.0863 42.144 36.7503 40.912 36.7503 39.296ZM50.8422 40.28C50.8422 39.464 51.0662 38.752 51.5142 38.144C51.9782 37.52 52.6182 37.04 53.4342 36.704C54.2502 36.368 55.1862 36.2 56.2422 36.2C56.7702 36.2 57.3062 36.24 57.8502 36.32C58.3942 36.4 58.8662 36.528 59.2662 36.704V36.032C59.2662 35.232 59.0262 34.616 58.5462 34.184C58.0822 33.752 57.3862 33.536 56.4582 33.536C55.7702 33.536 55.1142 33.656 54.4902 33.896C53.8662 34.136 53.2102 34.488 52.5222 34.952L51.4902 32.84C52.3222 32.296 53.1702 31.888 54.0342 31.616C54.9142 31.344 55.8342 31.208 56.7942 31.208C58.5862 31.208 59.9782 31.656 60.9702 32.552C61.9782 33.448 62.4822 34.728 62.4822 36.392V40.4C62.4822 40.736 62.5382 40.976 62.6502 41.12C62.7782 41.264 62.9782 41.352 63.2502 41.384V44C62.9622 44.048 62.6982 44.088 62.4582 44.12C62.2342 44.152 62.0422 44.168 61.8822 44.168C61.2422 44.168 60.7542 44.024 60.4182 43.736C60.0982 43.448 59.8982 43.096 59.8182 42.68L59.7462 42.032C59.2022 42.736 58.5222 43.28 57.7062 43.664C56.8902 44.048 56.0582 44.24 55.2102 44.24C54.3782 44.24 53.6262 44.072 52.9542 43.736C52.2982 43.384 51.7782 42.912 51.3942 42.32C51.0262 41.712 50.8422 41.032 50.8422 40.28ZM58.6662 40.928C58.8422 40.736 58.9862 40.544 59.0982 40.352C59.2102 40.16 59.2662 39.984 59.2662 39.824V38.552C58.8822 38.392 58.4662 38.272 58.0182 38.192C57.5702 38.096 57.1462 38.048 56.7462 38.048C55.9142 38.048 55.2262 38.232 54.6822 38.6C54.1542 38.952 53.8902 39.424 53.8902 40.016C53.8902 40.336 53.9782 40.64 54.1542 40.928C54.3302 41.216 54.5862 41.448 54.9222 41.624C55.2582 41.8 55.6582 41.888 56.1222 41.888C56.6022 41.888 57.0742 41.8 57.5382 41.624C58.0022 41.432 58.3782 41.2 58.6662 40.928ZM65.4634 26.48H68.6794V39.968C68.6794 40.544 68.7754 40.936 68.9674 41.144C69.1594 41.336 69.4234 41.432 69.7594 41.432C70.0154 41.432 70.2794 41.4 70.5514 41.336C70.8234 41.272 71.0634 41.192 71.2714 41.096L71.7034 43.544C71.2714 43.752 70.7674 43.912 70.1914 44.024C69.6154 44.136 69.0954 44.192 68.6314 44.192C67.6234 44.192 66.8394 43.928 66.2794 43.4C65.7354 42.856 65.4634 42.088 65.4634 41.096V26.48ZM73.1046 44V31.424H76.3206V44H73.1046ZM73.1046 29.672V26.48H76.3206V29.672H73.1046ZM86.7578 43.352C86.4858 43.464 86.1578 43.592 85.7738 43.736C85.3898 43.88 84.9738 43.992 84.5258 44.072C84.0938 44.168 83.6538 44.216 83.2058 44.216C82.6138 44.216 82.0698 44.112 81.5738 43.904C81.0778 43.696 80.6778 43.368 80.3738 42.92C80.0858 42.456 79.9418 41.856 79.9418 41.12V33.896H78.2858V31.424H79.9418V27.344H83.1578V31.424H85.7978V33.896H83.1578V40.04C83.1738 40.472 83.2938 40.784 83.5178 40.976C83.7418 41.168 84.0218 41.264 84.3578 41.264C84.6938 41.264 85.0218 41.208 85.3418 41.096C85.6618 40.984 85.9178 40.888 86.1098 40.808L86.7578 43.352ZM88.6499 46.448C88.9379 46.512 89.2019 46.568 89.4419 46.616C89.6979 46.664 89.9139 46.688 90.0899 46.688C90.3939 46.688 90.6419 46.608 90.8339 46.448C91.0419 46.304 91.2419 46.032 91.4339 45.632C91.6259 45.248 91.8259 44.704 92.0339 44L87.0659 31.424H90.4019L93.7859 40.712L96.7619 31.424H99.8339L94.5539 46.496C94.3619 47.056 94.0659 47.56 93.6659 48.008C93.2819 48.472 92.7939 48.832 92.2019 49.088C91.6259 49.36 90.9779 49.496 90.2579 49.496C90.0019 49.496 89.7459 49.472 89.4899 49.424C89.2339 49.392 88.9539 49.328 88.6499 49.232V46.448ZM110.931 26.96H114.291L120.555 44H117.147L115.563 39.752H109.611L108.051 44H104.643L110.931 26.96ZM114.963 37.424L112.611 30.392L110.163 37.424H114.963ZM126.557 44.24C125.485 44.24 124.461 44.064 123.485 43.712C122.509 43.36 121.669 42.84 120.965 42.152L122.117 40.064C122.869 40.672 123.605 41.12 124.325 41.408C125.061 41.696 125.765 41.84 126.437 41.84C127.061 41.84 127.557 41.728 127.925 41.504C128.309 41.28 128.501 40.944 128.501 40.496C128.501 40.192 128.397 39.96 128.189 39.8C127.981 39.624 127.677 39.472 127.277 39.344C126.893 39.216 126.421 39.072 125.861 38.912C124.933 38.608 124.157 38.312 123.533 38.024C122.909 37.736 122.437 37.376 122.117 36.944C121.813 36.496 121.661 35.928 121.661 35.24C121.661 34.408 121.869 33.696 122.285 33.104C122.717 32.496 123.309 32.024 124.061 31.688C124.829 31.352 125.725 31.184 126.749 31.184C127.645 31.184 128.493 31.328 129.293 31.616C130.093 31.888 130.821 32.336 131.477 32.96L130.181 35C129.541 34.504 128.933 34.144 128.357 33.92C127.781 33.68 127.197 33.56 126.605 33.56C126.269 33.56 125.949 33.6 125.645 33.68C125.357 33.76 125.117 33.896 124.925 34.088C124.749 34.264 124.661 34.52 124.661 34.856C124.661 35.16 124.741 35.4 124.901 35.576C125.077 35.736 125.333 35.88 125.669 36.008C126.021 36.136 126.445 36.28 126.941 36.44C127.949 36.728 128.797 37.024 129.485 37.328C130.189 37.632 130.717 38.008 131.069 38.456C131.421 38.888 131.597 39.488 131.597 40.256C131.597 41.504 131.141 42.48 130.229 43.184C129.317 43.888 128.093 44.24 126.557 44.24ZM138.416 44.24C137.344 44.24 136.32 44.064 135.344 43.712C134.368 43.36 133.528 42.84 132.824 42.152L133.976 40.064C134.728 40.672 135.464 41.12 136.184 41.408C136.92 41.696 137.624 41.84 138.296 41.84C138.92 41.84 139.416 41.728 139.784 41.504C140.168 41.28 140.36 40.944 140.36 40.496C140.36 40.192 140.256 39.96 140.048 39.8C139.84 39.624 139.536 39.472 139.136 39.344C138.752 39.216 138.28 39.072 137.72 38.912C136.792 38.608 136.016 38.312 135.392 38.024C134.768 37.736 134.296 37.376 133.976 36.944C133.672 36.496 133.52 35.928 133.52 35.24C133.52 34.408 133.728 33.696 134.144 33.104C134.576 32.496 135.168 32.024 135.92 31.688C136.688 31.352 137.584 31.184 138.608 31.184C139.504 31.184 140.352 31.328 141.152 31.616C141.952 31.888 142.68 32.336 143.336 32.96L142.04 35C141.4 34.504 140.792 34.144 140.216 33.92C139.64 33.68 139.056 33.56 138.464 33.56C138.128 33.56 137.808 33.6 137.504 33.68C137.216 33.76 136.976 33.896 136.784 34.088C136.608 34.264 136.52 34.52 136.52 34.856C136.52 35.16 136.6 35.4 136.76 35.576C136.936 35.736 137.192 35.88 137.528 36.008C137.88 36.136 138.304 36.28 138.8 36.44C139.808 36.728 140.656 37.024 141.344 37.328C142.048 37.632 142.576 38.008 142.928 38.456C143.28 38.888 143.456 39.488 143.456 40.256C143.456 41.504 143 42.48 142.088 43.184C141.176 43.888 139.952 44.24 138.416 44.24ZM145.524 39.296V31.424H148.74V38.6C148.74 39.56 148.916 40.288 149.268 40.784C149.62 41.264 150.14 41.504 150.828 41.504C151.244 41.504 151.652 41.424 152.052 41.264C152.468 41.088 152.844 40.832 153.18 40.496C153.532 40.16 153.828 39.736 154.068 39.224V31.424H157.284V40.4C157.284 40.736 157.34 40.976 157.452 41.12C157.58 41.264 157.78 41.352 158.052 41.384V44C157.732 44.048 157.46 44.08 157.236 44.096C157.028 44.128 156.836 44.144 156.66 44.144C156.084 44.144 155.612 44.016 155.244 43.76C154.892 43.488 154.684 43.12 154.62 42.656L154.548 41.648C153.988 42.496 153.268 43.144 152.388 43.592C151.508 44.024 150.54 44.24 149.484 44.24C148.188 44.24 147.204 43.824 146.532 42.992C145.86 42.144 145.524 40.912 145.524 39.296ZM167.968 34.208C166.992 34.208 166.12 34.4 165.352 34.784C164.584 35.152 164.032 35.688 163.696 36.392V44H160.48V31.424H163.432V34.112C163.88 33.248 164.448 32.568 165.136 32.072C165.824 31.576 166.552 31.304 167.32 31.256C167.496 31.256 167.632 31.256 167.728 31.256C167.824 31.256 167.904 31.264 167.968 31.28V34.208ZM168.827 40.28C168.827 39.464 169.051 38.752 169.499 38.144C169.963 37.52 170.603 37.04 171.419 36.704C172.235 36.368 173.171 36.2 174.227 36.2C174.755 36.2 175.291 36.24 175.835 36.32C176.379 36.4 176.851 36.528 177.251 36.704V36.032C177.251 35.232 177.011 34.616 176.531 34.184C176.067 33.752 175.371 33.536 174.443 33.536C173.755 33.536 173.099 33.656 172.475 33.896C171.851 34.136 171.195 34.488 170.507 34.952L169.475 32.84C170.307 32.296 171.155 31.888 172.019 31.616C172.899 31.344 173.819 31.208 174.779 31.208C176.571 31.208 177.963 31.656 178.955 32.552C179.963 33.448 180.467 34.728 180.467 36.392V40.4C180.467 40.736 180.523 40.976 180.635 41.12C180.763 41.264 180.963 41.352 181.235 41.384V44C180.947 44.048 180.683 44.088 180.443 44.12C180.219 44.152 180.027 44.168 179.867 44.168C179.227 44.168 178.739 44.024 178.403 43.736C178.083 43.448 177.883 43.096 177.803 42.68L177.731 42.032C177.187 42.736 176.507 43.28 175.691 43.664C174.875 44.048 174.043 44.24 173.195 44.24C172.363 44.24 171.611 44.072 170.939 43.736C170.283 43.384 169.763 42.912 169.379 42.32C169.011 41.712 168.827 41.032 168.827 40.28ZM176.651 40.928C176.827 40.736 176.971 40.544 177.083 40.352C177.195 40.16 177.251 39.984 177.251 39.824V38.552C176.867 38.392 176.451 38.272 176.003 38.192C175.555 38.096 175.131 38.048 174.731 38.048C173.899 38.048 173.211 38.232 172.667 38.6C172.139 38.952 171.875 39.424 171.875 40.016C171.875 40.336 171.963 40.64 172.139 40.928C172.315 41.216 172.571 41.448 172.907 41.624C173.243 41.8 173.643 41.888 174.107 41.888C174.587 41.888 175.059 41.8 175.523 41.624C175.987 41.432 176.363 41.2 176.651 40.928ZM195.16 44H191.944V36.944C191.944 35.936 191.768 35.2 191.416 34.736C191.064 34.272 190.576 34.04 189.952 34.04C189.52 34.04 189.08 34.152 188.632 34.376C188.2 34.6 187.808 34.912 187.456 35.312C187.104 35.696 186.848 36.144 186.688 36.656V44H183.472V31.424H186.376V33.752C186.696 33.208 187.104 32.752 187.6 32.384C188.096 32 188.664 31.712 189.304 31.52C189.96 31.312 190.648 31.208 191.368 31.208C192.152 31.208 192.792 31.352 193.288 31.64C193.8 31.912 194.184 32.288 194.44 32.768C194.712 33.232 194.896 33.76 194.992 34.352C195.104 34.944 195.16 35.544 195.16 36.152V44ZM203.812 44.24C202.788 44.24 201.868 44.072 201.052 43.736C200.236 43.384 199.54 42.904 198.964 42.296C198.388 41.672 197.94 40.968 197.62 40.184C197.316 39.4 197.164 38.576 197.164 37.712C197.164 36.528 197.428 35.448 197.956 34.472C198.5 33.48 199.268 32.688 200.26 32.096C201.252 31.504 202.428 31.208 203.788 31.208C205.148 31.208 206.316 31.504 207.292 32.096C208.268 32.688 208.996 33.464 209.476 34.424L206.332 35.384C206.06 34.92 205.7 34.568 205.252 34.328C204.804 34.072 204.308 33.944 203.764 33.944C203.156 33.944 202.596 34.104 202.084 34.424C201.588 34.728 201.196 35.168 200.908 35.744C200.62 36.304 200.476 36.96 200.476 37.712C200.476 38.448 200.62 39.104 200.908 39.68C201.212 40.24 201.612 40.688 202.108 41.024C202.604 41.344 203.156 41.504 203.764 41.504C204.148 41.504 204.508 41.44 204.844 41.312C205.196 41.184 205.508 41.008 205.78 40.784C206.052 40.56 206.252 40.304 206.38 40.016L209.524 40.976C209.236 41.6 208.812 42.16 208.252 42.656C207.708 43.152 207.06 43.544 206.308 43.832C205.572 44.104 204.74 44.24 203.812 44.24ZM217.218 44.24C216.21 44.24 215.298 44.072 214.482 43.736C213.666 43.384 212.97 42.912 212.394 42.32C211.818 41.712 211.37 41.024 211.05 40.256C210.746 39.472 210.594 38.648 210.594 37.784C210.594 36.584 210.858 35.488 211.386 34.496C211.93 33.504 212.698 32.712 213.69 32.12C214.698 31.512 215.882 31.208 217.242 31.208C218.618 31.208 219.794 31.512 220.77 32.12C221.746 32.712 222.49 33.504 223.002 34.496C223.53 35.472 223.794 36.528 223.794 37.664C223.794 37.856 223.786 38.056 223.77 38.264C223.754 38.456 223.738 38.616 223.722 38.744H214.002C214.066 39.384 214.25 39.944 214.554 40.424C214.874 40.904 215.274 41.272 215.754 41.528C216.25 41.768 216.778 41.888 217.338 41.888C217.978 41.888 218.578 41.736 219.138 41.432C219.714 41.112 220.106 40.696 220.314 40.184L223.074 40.952C222.77 41.592 222.33 42.16 221.754 42.656C221.194 43.152 220.53 43.544 219.762 43.832C218.994 44.104 218.146 44.24 217.218 44.24ZM213.93 36.704H220.506C220.442 36.064 220.258 35.512 219.954 35.048C219.666 34.568 219.282 34.2 218.802 33.944C218.322 33.672 217.786 33.536 217.194 33.536C216.618 33.536 216.09 33.672 215.61 33.944C215.146 34.2 214.762 34.568 214.458 35.048C214.17 35.512 213.994 36.064 213.93 36.704ZM243.663 41.096V44H231.831V26.96H243.447V29.864H235.143V33.968H242.319V36.656H235.143V41.096H243.663ZM257.55 44H254.334V36.944C254.334 35.936 254.158 35.2 253.806 34.736C253.454 34.272 252.966 34.04 252.342 34.04C251.91 34.04 251.47 34.152 251.022 34.376C250.59 34.6 250.198 34.912 249.846 35.312C249.494 35.696 249.238 36.144 249.078 36.656V44H245.862V31.424H248.766V33.752C249.086 33.208 249.494 32.752 249.99 32.384C250.486 32 251.054 31.712 251.694 31.52C252.35 31.312 253.038 31.208 253.758 31.208C254.542 31.208 255.182 31.352 255.678 31.64C256.19 31.912 256.574 32.288 256.83 32.768C257.102 33.232 257.286 33.76 257.382 34.352C257.494 34.944 257.55 35.544 257.55 36.152V44ZM265.267 44.072C264.435 44.072 263.667 43.912 262.963 43.592C262.275 43.256 261.675 42.792 261.163 42.2C260.667 41.608 260.283 40.928 260.011 40.16C259.739 39.392 259.603 38.576 259.603 37.712C259.603 36.8 259.747 35.952 260.035 35.168C260.323 34.384 260.723 33.696 261.235 33.104C261.763 32.496 262.379 32.032 263.083 31.712C263.803 31.376 264.595 31.208 265.459 31.208C266.435 31.208 267.291 31.432 268.027 31.88C268.763 32.312 269.371 32.896 269.851 33.632V31.424H272.659V43.4C272.659 44.648 272.355 45.712 271.747 46.592C271.155 47.488 270.331 48.168 269.275 48.632C268.219 49.112 267.019 49.352 265.675 49.352C264.315 49.352 263.163 49.12 262.219 48.656C261.275 48.208 260.467 47.568 259.795 46.736L261.547 45.032C262.027 45.624 262.627 46.088 263.347 46.424C264.083 46.76 264.859 46.928 265.675 46.928C266.363 46.928 266.987 46.8 267.547 46.544C268.123 46.304 268.579 45.92 268.915 45.392C269.267 44.88 269.443 44.216 269.443 43.4V41.816C269.027 42.536 268.435 43.096 267.667 43.496C266.915 43.88 266.115 44.072 265.267 44.072ZM266.347 41.504C266.699 41.504 267.035 41.448 267.355 41.336C267.675 41.224 267.971 41.072 268.243 40.88C268.515 40.688 268.755 40.464 268.963 40.208C269.171 39.936 269.331 39.664 269.443 39.392V36.392C269.251 35.896 268.979 35.464 268.627 35.096C268.291 34.728 267.907 34.448 267.475 34.256C267.059 34.048 266.619 33.944 266.155 33.944C265.659 33.944 265.211 34.048 264.811 34.256C264.411 34.464 264.067 34.76 263.779 35.144C263.491 35.512 263.267 35.928 263.107 36.392C262.963 36.84 262.891 37.312 262.891 37.808C262.891 38.32 262.979 38.8 263.155 39.248C263.331 39.696 263.571 40.088 263.875 40.424C264.195 40.76 264.563 41.024 264.979 41.216C265.411 41.408 265.867 41.504 266.347 41.504ZM275.558 44V31.424H278.774V44H275.558ZM275.558 29.672V26.48H278.774V29.672H275.558ZM293.363 44H290.147V36.944C290.147 35.936 289.971 35.2 289.619 34.736C289.267 34.272 288.779 34.04 288.155 34.04C287.723 34.04 287.283 34.152 286.835 34.376C286.403 34.6 286.011 34.912 285.659 35.312C285.307 35.696 285.051 36.144 284.891 36.656V44H281.675V31.424H284.579V33.752C284.899 33.208 285.307 32.752 285.803 32.384C286.299 32 286.867 31.712 287.507 31.52C288.163 31.312 288.851 31.208 289.571 31.208C290.355 31.208 290.995 31.352 291.491 31.64C292.003 31.912 292.387 32.288 292.643 32.768C292.915 33.232 293.099 33.76 293.195 34.352C293.307 34.944 293.363 35.544 293.363 36.152V44ZM301.991 44.24C300.983 44.24 300.071 44.072 299.255 43.736C298.439 43.384 297.743 42.912 297.167 42.32C296.591 41.712 296.143 41.024 295.823 40.256C295.519 39.472 295.367 38.648 295.367 37.784C295.367 36.584 295.631 35.488 296.159 34.496C296.703 33.504 297.471 32.712 298.463 32.12C299.471 31.512 300.655 31.208 302.015 31.208C303.391 31.208 304.567 31.512 305.543 32.12C306.519 32.712 307.263 33.504 307.775 34.496C308.303 35.472 308.567 36.528 308.567 37.664C308.567 37.856 308.559 38.056 308.543 38.264C308.527 38.456 308.511 38.616 308.495 38.744H298.775C298.839 39.384 299.023 39.944 299.327 40.424C299.647 40.904 300.047 41.272 300.527 41.528C301.023 41.768 301.551 41.888 302.111 41.888C302.751 41.888 303.351 41.736 303.911 41.432C304.487 41.112 304.879 40.696 305.087 40.184L307.847 40.952C307.543 41.592 307.103 42.16 306.527 42.656C305.967 43.152 305.303 43.544 304.535 43.832C303.767 44.104 302.919 44.24 301.991 44.24ZM298.703 36.704H305.279C305.215 36.064 305.031 35.512 304.727 35.048C304.439 34.568 304.055 34.2 303.575 33.944C303.095 33.672 302.559 33.536 301.967 33.536C301.391 33.536 300.863 33.672 300.383 33.944C299.919 34.2 299.535 34.568 299.231 35.048C298.943 35.512 298.767 36.064 298.703 36.704ZM316.359 44.24C315.351 44.24 314.439 44.072 313.623 43.736C312.807 43.384 312.111 42.912 311.535 42.32C310.959 41.712 310.511 41.024 310.191 40.256C309.887 39.472 309.735 38.648 309.735 37.784C309.735 36.584 309.999 35.488 310.527 34.496C311.071 33.504 311.839 32.712 312.831 32.12C313.839 31.512 315.023 31.208 316.383 31.208C317.759 31.208 318.935 31.512 319.911 32.12C320.887 32.712 321.631 33.504 322.143 34.496C322.671 35.472 322.935 36.528 322.935 37.664C322.935 37.856 322.927 38.056 322.911 38.264C322.895 38.456 322.879 38.616 322.863 38.744H313.143C313.207 39.384 313.391 39.944 313.695 40.424C314.015 40.904 314.415 41.272 314.895 41.528C315.391 41.768 315.919 41.888 316.479 41.888C317.119 41.888 317.719 41.736 318.279 41.432C318.855 41.112 319.247 40.696 319.455 40.184L322.215 40.952C321.911 41.592 321.471 42.16 320.895 42.656C320.335 43.152 319.671 43.544 318.903 43.832C318.135 44.104 317.287 44.24 316.359 44.24ZM313.071 36.704H319.647C319.583 36.064 319.399 35.512 319.095 35.048C318.807 34.568 318.423 34.2 317.943 33.944C317.463 33.672 316.927 33.536 316.335 33.536C315.759 33.536 315.231 33.672 314.751 33.944C314.287 34.2 313.903 34.568 313.599 35.048C313.311 35.512 313.135 36.064 313.071 36.704ZM332.382 34.208C331.406 34.208 330.534 34.4 329.766 34.784C328.998 35.152 328.446 35.688 328.11 36.392V44H324.894V31.424H327.846V34.112C328.294 33.248 328.862 32.568 329.55 32.072C330.238 31.576 330.966 31.304 331.734 31.256C331.91 31.256 332.046 31.256 332.142 31.256C332.238 31.256 332.318 31.264 332.382 31.28V34.208Z" fill="#E9E8EA"/>
<path d="M91.9052 156.625C92.6975 159.331 93.7978 161.941 95.1886 164.391L91.2246 169.368C89.9306 170.996 90.0772 173.316 91.5326 174.781L98.3579 181.579C99.8307 183.046 102.158 183.174 103.792 181.886L108.757 177.969C111.313 179.436 114.03 180.579 116.861 181.386L117.607 187.749C117.85 189.812 119.596 191.358 121.667 191.358H131.324C133.396 191.358 135.142 189.812 135.385 187.749L136.098 181.611C139.138 180.822 142.051 179.644 144.783 178.115L149.587 181.9C151.221 183.189 153.551 183.043 155.021 181.594L161.846 174.796C163.319 173.329 163.448 171.011 162.154 169.383L158.419 164.663C159.971 161.988 161.186 159.136 161.993 156.155L167.75 155.495C169.822 155.252 171.374 153.513 171.374 151.45V141.831C171.374 139.768 169.822 138.029 167.75 137.787L162.072 137.126C161.295 134.177 160.133 131.36 158.642 128.718L162.137 124.319C163.431 122.691 163.284 120.371 161.829 118.906L155.019 112.123C153.546 110.656 151.219 110.527 149.584 111.816L145.297 115.201C142.516 113.573 139.54 112.333 136.418 111.495L135.772 105.968C135.529 103.905 133.783 102.359 131.712 102.359H122.055C119.983 102.359 118.237 103.905 117.994 105.968L117.348 111.495C114.147 112.348 111.089 113.637 108.243 115.329L103.795 111.816C102.16 110.527 99.8307 110.673 98.3603 112.123L91.5351 118.921C90.0623 120.388 89.9331 122.706 91.2271 124.334L94.9477 129.022C93.46 131.696 92.3274 134.548 91.5823 137.512L85.6289 138.19C83.5574 138.432 82.0051 140.172 82.0051 142.235V151.853C82.0051 153.916 83.5574 155.655 85.6289 155.898L91.9052 156.625ZM126.891 130.605C135.69 130.605 142.856 137.742 142.856 146.507C142.856 155.272 135.69 162.409 126.891 162.409C118.091 162.409 110.925 155.272 110.925 146.507C110.925 137.742 118.093 130.605 126.891 130.605Z" fill="#F66F5D"/>
<path d="M222.354 158.993L217.26 154.708C215.691 153.387 213.378 153.451 211.891 154.854L209.077 157.481C206.7 156.338 204.176 155.532 201.571 155.064L200.779 151.197C200.374 149.199 198.513 147.813 196.477 147.977L189.828 148.541C187.789 148.719 186.189 150.376 186.125 152.422L185.996 156.353C183.44 157.271 181.031 158.528 178.83 160.106L175.465 157.882C173.751 156.754 171.468 157.075 170.142 158.639L165.84 163.745C164.514 165.308 164.578 167.611 165.984 169.093L168.927 172.218C167.909 174.506 167.181 176.906 166.759 179.37L162.554 180.223C160.547 180.626 159.157 182.479 159.32 184.508L159.887 191.13C160.066 193.161 161.73 194.755 163.784 194.819L168.329 194.965C169.153 197.124 170.239 199.17 171.548 201.088L169.009 204.905C167.877 206.612 168.2 208.885 169.769 210.206L174.864 214.491C176.433 215.812 178.746 215.748 180.233 214.345L183.566 211.235C185.75 212.25 188.047 213.007 190.409 213.459L191.331 218.001C191.735 220 193.596 221.385 195.632 221.222L202.281 220.658C204.32 220.48 205.92 218.823 205.984 216.777L206.131 212.331C208.557 211.478 210.855 210.317 212.974 208.883L216.644 211.3C218.358 212.428 220.638 212.106 221.967 210.543L226.269 205.469C227.595 203.905 227.531 201.602 226.122 200.12L223.162 196.996C224.245 194.708 225.039 192.291 225.491 189.809L229.535 188.988C231.542 188.585 232.933 186.732 232.769 184.703L232.202 178.081C232.024 176.05 230.359 174.457 228.305 174.392L224.245 174.264C223.403 171.911 222.27 169.69 220.864 167.626L223.08 164.306C224.247 162.602 223.924 160.314 222.354 158.993ZM197.301 197.273C190.121 197.886 183.78 192.553 183.181 185.398C182.566 178.247 187.92 171.931 195.103 171.335C202.284 170.724 208.625 176.055 209.223 183.209C209.837 190.361 204.482 196.677 197.301 197.273Z" fill="#F7F7F7"/>
<path d="M115.165 215.09C113.126 215.3 111.559 217.007 111.541 219.053L111.492 223.13C111.459 225.175 112.979 226.915 115.019 227.174L118.026 227.56C118.528 229.381 119.238 231.12 120.162 232.765L118.223 235.15C116.929 236.746 117.025 239.031 118.466 240.498L121.33 243.415C122.77 244.882 125.065 245.043 126.699 243.786L129.109 241.933C130.807 242.933 132.603 243.722 134.478 244.269L134.801 247.361C135.012 249.392 136.726 250.953 138.78 250.97L142.873 251.02C144.927 251.052 146.673 249.538 146.934 247.507L147.307 244.575C149.346 244.076 151.286 243.319 153.129 242.319L155.394 244.14C156.996 245.429 159.293 245.332 160.763 243.898L163.692 241.045C165.165 239.61 165.326 237.325 164.064 235.697L162.333 233.458C163.401 231.687 164.226 229.802 164.792 227.82L167.477 227.545C169.516 227.335 171.083 225.628 171.101 223.582L171.148 219.505C171.18 217.46 169.66 215.72 167.621 215.461L165.001 215.122C164.499 213.155 163.756 211.255 162.785 209.484L164.419 207.485C165.713 205.889 165.617 203.604 164.176 202.137L161.312 199.22C159.872 197.753 157.577 197.592 155.943 198.849L153.985 200.348C152.143 199.237 150.168 198.381 148.099 197.802L147.841 195.274C147.63 193.243 145.916 191.682 143.862 191.665L139.769 191.615C137.715 191.583 135.969 193.097 135.708 195.128L135.385 197.642C133.249 198.188 131.195 199.027 129.287 200.123L127.266 198.48C125.664 197.191 123.366 197.288 121.896 198.723L118.953 201.59C117.48 203.025 117.318 205.31 118.58 206.938L120.311 209.162C119.308 210.934 118.516 212.819 117.999 214.8L115.165 215.09ZM141.579 210.483C147.451 210.548 152.157 215.364 152.093 221.212C152.028 227.061 147.192 231.748 141.321 231.684C135.45 231.62 130.743 226.803 130.807 220.955C130.872 215.107 135.708 210.419 141.579 210.483Z" stroke="#F7F7F7" stroke-width="3" stroke-miterlimit="10"/>
<path d="M294.563 311.475H53.291C51.6542 311.475 50.313 310.142 50.313 308.509V292.813C50.313 291.182 51.6517 289.847 53.291 289.847H294.563C296.2 289.847 297.541 291.18 297.541 292.813V308.509C297.541 310.142 296.202 311.475 294.563 311.475Z" fill="#F2F2F2"/>
<path d="M80.5021 298.617C86.2544 298.617 88.6835 294.04 89.6397 289.186C90.7176 283.709 89.9278 277.881 89.9278 277.881H71.0765C71.0765 277.881 71.0467 278.104 71.0069 278.499C70.6542 281.945 69.5217 298.617 80.5021 298.617Z" fill="#9E96DE"/>
<path d="M71.0767 277.881C71.0767 278.291 75.2965 278.623 80.4998 278.623C85.7057 278.623 89.9255 278.291 89.9255 277.881C89.9255 277.47 85.7057 277.139 80.4998 277.139C75.2965 277.139 71.0767 277.47 71.0767 277.881Z" fill="#847DB8"/>
<path d="M54.9822 225.836C54.9822 225.836 64.922 240.897 70.8854 250.09C76.8487 259.282 78.411 261.192 79.1213 264.161C79.8317 267.132 80.47 278.091 80.47 278.091H80.9096C80.9096 278.091 80.7556 268.789 80.2191 265.658C79.7 262.632 80.2564 261.544 80.6811 258.362C81.1083 255.181 81.6746 250.09 78.4458 246.552C75.2145 243.017 76.0664 239.551 74.9313 237.218C73.7963 234.885 64.9915 232.055 63.8565 229.653C62.7189 227.251 57.749 225.767 54.9822 225.836Z" fill="#6455E4"/>
<path d="M54.9822 225.836C54.9822 225.836 58.1067 229.372 60.2352 230.574C62.3662 231.776 63.3597 230.715 64.9915 233.614C66.6233 236.514 66.6879 237.785 68.1831 239.272C69.6783 240.756 71.4516 240.828 71.5957 244.081C71.7373 247.334 70.8854 250.093 70.8854 250.093C70.8854 250.093 55.6205 226.616 54.9822 225.836Z" fill="#4E488C"/>
<path d="M79.6802 278.094H79.2356C79.2356 278.094 79.1015 275.083 77.9018 273.621C77.1269 272.678 73.8385 271.607 70.5848 270.323C68.7941 269.616 67.0133 268.846 65.672 267.995C61.8918 265.603 58.288 257.895 57.98 256.522C57.8707 256.044 57.8235 255.752 57.826 255.554V255.55C57.8335 255.181 58.0173 255.124 58.3352 254.753C58.4867 254.572 58.9487 254.634 59.51 254.805C61.1418 255.3 62.5153 256.413 63.3697 257.882C64.157 259.243 65.4187 260.943 66.9636 261.353C69.6311 262.063 69.41 262.504 70.3961 265.207C71.3771 267.911 73.8608 268.352 76.9704 271.54C80.0825 274.727 79.6802 278.094 79.6802 278.094Z" fill="#6455E4"/>
<path d="M70.5848 270.321C68.7941 269.613 67.0133 268.844 65.672 267.993C61.8918 265.601 58.288 257.892 57.98 256.519C57.8707 256.042 57.8235 255.75 57.826 255.552C57.836 255.644 58.0123 256.863 59.9819 257.672C62.026 258.511 62.4258 258.511 62.6941 259.797C62.9598 261.081 63.1859 262.454 64.2514 262.721C65.3194 262.986 65.985 261.791 66.8295 263.738C67.6764 265.687 68.0788 266.35 68.8537 266.618C69.6311 266.882 70.2197 266.484 70.3936 267.991C70.4954 268.913 70.555 269.784 70.5848 270.321Z" fill="#4E488C"/>
<path d="M82.9485 278.093H83.4775C83.4775 278.093 84.5083 259.448 85.9314 257.716C86.8479 256.598 89.8731 254.597 93.7253 253.075C95.8464 252.239 97.9551 251.324 99.5446 250.317C104.023 247.485 108.29 238.354 108.657 236.728C108.787 236.162 108.844 235.818 108.841 235.583V235.575C108.831 235.138 108.613 235.071 108.238 234.63C108.056 234.418 107.51 234.489 106.844 234.692C104.912 235.279 103.283 236.595 102.274 238.336C101.34 239.947 99.8477 241.96 98.0196 242.445C94.8604 243.286 95.1212 243.808 93.9563 247.01C92.7939 250.211 89.8532 250.733 86.1699 254.51C82.4741 258.29 82.9485 278.093 82.9485 278.093Z" fill="#6455E4"/>
<path d="M93.7231 253.076C95.8442 252.24 97.9529 251.324 99.5425 250.317C104.021 247.485 108.288 238.354 108.655 236.729C108.784 236.162 108.841 235.818 108.839 235.583C108.827 235.69 108.618 237.134 106.286 238.097C103.864 239.091 103.39 239.091 103.074 240.615C102.759 242.136 102.493 243.764 101.229 244.078C99.9647 244.392 99.1749 242.977 98.1764 245.283C97.1755 247.591 96.6986 248.378 95.7772 248.692C94.8582 249.006 94.1578 248.534 93.9541 250.32C93.8275 251.406 93.7579 252.44 93.7231 253.076Z" fill="#4E488C"/>
<path d="M80.5023 298.617C86.2545 298.617 88.6836 294.04 89.6398 289.186C84.0018 287.056 76.9009 283.643 71.0095 278.499C70.6544 281.945 69.5218 298.617 80.5023 298.617Z" fill="#A59DEB"/>
<path d="M279.433 298.616C283.054 298.616 284.584 295.734 285.185 292.679C285.865 289.231 285.366 285.562 285.366 285.562H273.499C273.499 285.562 273.482 285.7 273.454 285.953C273.233 288.122 272.52 298.616 279.433 298.616Z" fill="#9E96DE"/>
<path d="M273.499 285.562C273.499 285.819 276.157 286.029 279.433 286.029C282.709 286.029 285.366 285.819 285.366 285.562C285.366 285.305 282.709 285.094 279.433 285.094C276.157 285.094 273.499 285.305 273.499 285.562Z" fill="#847DB8"/>
<path d="M267.685 263.305C267.685 263.305 271.944 269.759 274.5 273.697C277.056 277.636 277.724 278.454 278.029 279.726C278.335 280.998 278.608 285.695 278.608 285.695H278.797C278.797 285.695 278.732 281.71 278.501 280.367C278.278 279.07 278.516 278.605 278.7 277.24C278.881 275.877 279.124 273.695 277.741 272.181C276.358 270.667 276.723 269.18 276.236 268.181C275.749 267.181 271.976 265.969 271.49 264.937C271 263.911 268.872 263.272 267.685 263.305Z" fill="#6758EE"/>
<path d="M267.685 263.305C267.685 263.305 269.023 264.819 269.935 265.336C270.846 265.85 271.274 265.395 271.974 266.639C272.674 267.881 272.702 268.428 273.34 269.064C273.981 269.699 274.741 269.729 274.803 271.124C274.862 272.517 274.5 273.7 274.5 273.7C274.5 273.7 267.958 263.636 267.685 263.305Z" fill="#4E488C"/>
<path d="M280.113 285.695H280.513C280.513 285.695 281.295 271.56 282.373 270.249C283.069 269.403 285.361 267.884 288.279 266.731C289.886 266.095 291.486 265.405 292.69 264.641C296.086 262.493 299.319 255.574 299.598 254.339C299.697 253.909 299.739 253.649 299.737 253.471V253.466C299.729 253.135 299.565 253.085 299.28 252.751C299.143 252.59 298.728 252.645 298.224 252.798C296.761 253.244 295.524 254.241 294.759 255.562C294.052 256.781 292.919 258.308 291.533 258.676C289.136 259.314 289.335 259.71 288.453 262.137C287.572 264.564 285.344 264.96 282.55 267.824C279.753 270.684 280.113 285.695 280.113 285.695Z" fill="#6758EE"/>
<path d="M288.28 266.731C289.887 266.095 291.486 265.405 292.691 264.641C296.086 262.493 299.32 255.574 299.598 254.34C299.697 253.909 299.739 253.649 299.737 253.471C299.727 253.553 299.57 254.649 297.802 255.376C295.967 256.131 295.606 256.131 295.368 257.286C295.13 258.439 294.928 259.673 293.97 259.911C293.011 260.148 292.412 259.074 291.655 260.823C290.895 262.572 290.535 263.169 289.837 263.409C289.139 263.646 288.61 263.29 288.453 264.643C288.359 265.467 288.307 266.249 288.28 266.731Z" fill="#4E488C"/>
<path d="M279.433 298.617C283.054 298.617 284.584 295.735 285.185 292.679C281.636 291.338 277.165 289.189 273.454 285.95C273.233 288.122 272.52 298.617 279.433 298.617Z" fill="#A59DEB"/>
<path d="M230.75 134.724L232.26 131.142C232.26 131.142 230.479 128.562 229.351 128.032C228.221 127.503 225.767 128.675 225.767 128.675L224.985 130.15L225.581 132.309L228.902 137.744L231.624 136.376L230.75 134.724Z" fill="#FCD2B1"/>
<path d="M253.587 169.726C245.791 164.756 234.937 156.301 232.401 135.1C230.461 134.951 227.478 135.1 227.478 135.1C227.478 135.1 229.818 165.489 247.745 175.238C249.621 176.257 252.415 185.816 254.648 186.328C255.234 184.312 253.587 169.726 253.587 169.726Z" fill="#0E538C"/>
<path d="M261.247 291.442L249.074 302.889L253.565 303.594C254.799 303.789 256.066 303.604 257.193 303.064L264.272 299.675V290.517L261.247 291.442Z" fill="#072735"/>
<path d="M245.212 292.684L239.465 294.433C237.187 295.126 235.111 296.355 233.412 298.018H251.503L250.654 290.522L245.212 292.684Z" fill="#072735"/>
<path d="M251.503 220.299C251.503 220.299 239.939 251.623 238.923 253.904C237.905 256.187 245.214 292.684 245.214 292.684H251.449L247.132 256.672L262.484 230.843L260.147 218.676L251.503 220.299Z" fill="#0A3B56"/>
<path d="M251.503 211.9L258.721 293.476H265.588L265.792 209.531L251.503 211.9Z" fill="#0B4870"/>
<path d="M249.926 176.215L249.077 179.404V207.922L265.939 207.509L260.472 172.133L257.474 170.038L251.858 173.071L249.926 176.215Z" fill="#F7F7F7"/>
<path d="M251.503 175.612L249.077 192.493L248.183 223.805H268.773C268.773 223.805 264.421 173.521 260.944 171.49C257.72 170.315 255.082 169.981 252.243 172.722C252.191 173.734 251.503 175.612 251.503 175.612Z" fill="#0E538C"/>
<path d="M251.503 164.727C251.503 164.887 252.04 170.481 252.04 170.481H256.16L257.929 167.604L252.619 164.403L251.503 164.727Z" fill="#FCD2B1"/>
<path d="M252.989 152.016C252.743 152.382 247.967 160.066 249.315 164.459C251.521 166.166 254.581 167.386 254.581 167.386C254.581 167.386 257.519 166.533 259.479 162.508C261.438 158.48 261.073 152.503 252.989 152.016Z" fill="#FFE3CA"/>
<path d="M266.42 158.285C267.213 159.972 263.149 168.937 256.719 169.57C255.164 168.534 254.772 167.386 254.772 167.386L253.766 156.365L265.988 156.637L266.42 158.285Z" fill="#211F2F"/>
<path d="M253.768 156.365C252.186 153.382 250.835 150.178 253.768 147.172C256.185 148.375 269.468 153.961 266.276 158.515C265.069 159.7 253.768 156.365 253.768 156.365Z" fill="#211F2F"/>
<path d="M253.768 154.844C253.786 154.972 252.618 158.77 252.618 158.77L253.192 159.059L256.158 156.049L253.768 154.844Z" fill="#211F2F"/>
<path d="M255.215 160.44C256 159.394 256.196 158.218 255.653 157.814C255.11 157.41 254.034 157.931 253.249 158.977C252.464 160.023 252.268 161.199 252.81 161.603C253.353 162.007 254.43 161.486 255.215 160.44Z" fill="#FFE3CA"/>
<path d="M259.404 169.571C256.394 169.338 252.273 169.125 250.41 172.049C249.981 173.976 249.909 176.688 249.909 176.688C249.909 176.688 253.11 170.194 260.144 171.05C260.658 170.407 260.944 169.907 260.944 169.907L259.404 169.571Z" fill="#F2F2F2"/>
<path d="M258.823 206.796L234.496 199.846L232.578 206.507L256.905 213.457L258.823 206.796Z" fill="#CCE9FF"/>
<path d="M244.139 203.673L244.097 202.354L232.083 198.923L231.735 200.127L231.082 202.396L226.599 217.966L254.136 225.833L259.272 207.994L244.139 203.673Z" fill="#6758EE"/>
<path d="M238.041 216.039C238.041 216.039 235.766 219.691 234.644 221.027C234.373 221.351 233.931 221.477 233.529 221.346C231.932 220.829 228.295 218.986 228.295 218.986L236.261 214.001L238.041 216.039Z" fill="#FCD2B1"/>
<path d="M262.958 181.846C264.175 176.445 257.71 170.573 254.772 173.912C248.319 181.242 250.775 204.608 233.531 214.464C234.582 215.51 237.07 218.209 237.07 218.209C237.07 218.209 248.446 215.015 262.958 181.846Z" fill="#1B75B2"/>
<path d="M234.294 130.884L234.058 132.005L224.123 129.635L222.946 128.853H224.436L234.294 130.884Z" fill="#0E538C"/>
<path d="M223.035 131.023L215.209 132.792L216.89 134.68L181.89 165.34L161.598 156.689L148.32 171.49L129.029 163.93L113.322 182.707L96.6515 174.338L64.3037 209.073L66.5614 211.159L97.3345 178.115L114.119 186.541L129.973 167.597L149.187 175.124L162.42 160.375L182.464 168.92L218.929 136.978L220.218 138.413L223.035 131.023Z" fill="#F7F7F7" stroke="#CCE9FF" stroke-miterlimit="10"/>
<path d="M222.936 128.876L215.109 130.645L216.791 132.532L181.79 163.191L161.499 154.542L148.221 169.341L128.93 161.783L113.223 180.56L96.5521 172.188L64.2043 206.926L66.462 209.011L97.2352 175.966L114.02 184.394L129.874 165.447L149.088 172.977L162.321 158.228L182.364 166.773L218.83 134.828L220.117 136.265L222.936 128.876Z" fill="#6758EE"/>
<path d="M277.632 149.109C277.632 149.307 277.557 149.488 277.433 149.624C277.557 149.76 277.632 149.941 277.632 150.138V150.782C277.632 150.923 277.595 151.054 277.527 151.168C277.595 151.281 277.632 151.413 277.632 151.554V152.197C277.632 152.622 277.284 152.969 276.857 152.969H270.138C269.711 152.969 269.364 152.622 269.364 152.197V151.554C269.364 151.413 269.401 151.281 269.468 151.168C269.401 151.054 269.364 150.923 269.364 150.782V150.138C269.364 149.941 269.438 149.76 269.562 149.624C269.438 149.488 269.364 149.307 269.364 149.109V148.466C269.364 148.041 269.711 147.694 270.138 147.694H276.857C277.284 147.694 277.632 148.041 277.632 148.466V149.109Z" fill="#D3D3D3"/>
<path d="M282.994 134.538C282.994 138.286 280.806 141.525 277.632 143.056V146.544C277.632 146.806 277.416 147.019 277.155 147.019H269.843C269.58 147.019 269.366 146.804 269.366 146.544V143.056C266.192 141.525 264.004 138.286 264.004 134.538C264.004 129.314 268.256 125.081 273.499 125.081C278.742 125.081 282.994 129.316 282.994 134.538Z" fill="#F66F5D"/>
<path d="M276.733 149.842H270.369C270.28 149.842 270.206 149.77 270.206 149.678C270.206 149.589 270.278 149.515 270.369 149.515H276.735C276.825 149.515 276.899 149.587 276.899 149.678C276.897 149.77 276.825 149.842 276.733 149.842Z" fill="#F7F7F7"/>
<path d="M276.733 151.296H270.369C270.28 151.296 270.206 151.225 270.206 151.133C270.206 151.044 270.278 150.97 270.369 150.97H276.735C276.825 150.97 276.899 151.041 276.899 151.133C276.897 151.225 276.825 151.296 276.733 151.296Z" fill="#F7F7F7"/>
<path d="M275.126 135.704C275.006 135.597 274.845 135.548 274.669 135.565C274.453 135.587 274.236 135.709 274.107 135.884C273.991 136.04 273.928 136.226 273.894 136.404C273.797 136.354 273.697 136.3 273.601 136.24L273.563 136.218H273.432L273.394 136.24C273.295 136.3 273.198 136.354 273.101 136.404C273.067 136.226 273.005 136.04 272.888 135.884C272.759 135.709 272.543 135.587 272.326 135.565C272.153 135.548 271.991 135.597 271.869 135.704C271.713 135.845 271.656 136.055 271.718 136.28C271.797 136.567 272.046 136.807 272.322 136.864C272.498 136.898 272.669 136.886 272.838 136.842V136.846C273.101 140.218 273.198 143.64 273.126 147.021H273.439C273.509 143.632 273.412 140.201 273.149 136.822C273.146 136.792 273.144 136.762 273.141 136.73C273.26 136.676 273.38 136.611 273.494 136.545C273.611 136.611 273.727 136.676 273.847 136.73C273.844 136.762 273.842 136.792 273.839 136.822C273.576 140.201 273.479 143.63 273.548 147.021H273.861C273.812 143.647 273.983 140.255 274.15 136.846V136.842C274.318 136.886 274.49 136.901 274.666 136.864C274.942 136.807 275.19 136.569 275.27 136.28C275.339 136.055 275.285 135.847 275.126 135.704ZM272.384 136.557C272.225 136.525 272.068 136.369 272.021 136.198C272.001 136.122 271.994 136.015 272.081 135.936C272.135 135.887 272.202 135.874 272.259 135.874C272.272 135.874 272.284 135.874 272.297 135.877C272.426 135.889 272.56 135.966 272.637 136.07C272.731 136.196 272.779 136.352 272.806 136.527C272.664 136.569 272.523 136.587 272.384 136.557ZM274.974 136.198C274.927 136.372 274.77 136.525 274.611 136.557C274.472 136.584 274.331 136.569 274.189 136.525C274.217 136.349 274.264 136.193 274.358 136.067C274.435 135.963 274.569 135.887 274.698 135.874C274.761 135.867 274.847 135.874 274.914 135.934C275.004 136.015 274.996 136.122 274.974 136.198Z" fill="white"/>
<path d="M264.942 135.788C264.816 135.788 264.706 135.689 264.699 135.56C264.386 130.657 268.054 127.508 270.598 126.585C270.724 126.538 270.866 126.605 270.911 126.731C270.958 126.857 270.891 126.998 270.764 127.043C268.36 127.914 264.888 130.892 265.186 135.528C265.193 135.662 265.091 135.778 264.957 135.788C264.952 135.788 264.947 135.788 264.942 135.788Z" fill="white"/>
</svg>
