<svg width="600" height="480" viewBox="0 0 600 480" fill="none" xmlns="http://www.w3.org/2000/svg">
<path opacity="0.1" d="M513.798 460.377C516.855 460.018 628.693 378.688 575.349 293.836C522.005 208.983 405.771 222.666 423.368 185.698C440.965 148.731 405.589 -28.6786 266.322 4.44742C127.055 37.5735 112.64 136.494 173.132 199.102C233.623 261.71 144.492 332.858 92.1759 271.439C39.8598 210.02 -32.9777 304.942 17.2912 347.86C67.56 390.777 24.4699 517.511 513.798 460.377Z" fill="#817BB8"/>
<path d="M443.176 356.493C443.176 356.493 433.782 381.569 431.73 391.365C429.678 401.161 429.727 410.746 429.727 410.746L412.152 406.806C412.152 406.806 416.251 354.057 420.146 350.341C424.037 346.625 442.941 348.183 442.941 348.183L443.176 356.493Z" fill="#0E538C"/>
<path d="M463.356 343.273C463.356 343.273 466.608 384.4 468.66 391.365C470.712 398.329 489.319 425.469 489.319 425.469L469.444 420.326C469.444 420.326 448.413 398.751 439.453 353.289C433.134 321.199 454.972 329.537 463.356 343.273Z" fill="#0E538C"/>
<path d="M423.46 285.879C423.46 285.879 401.06 283.03 390.163 278.116C379.267 273.198 346.413 252.798 346.413 252.798L351.753 246.251C351.753 246.251 382.493 262.311 388.542 265.533C394.59 268.755 424.285 273.557 424.285 273.557L423.46 285.879Z" fill="#FFE3CA"/>
<path d="M459.709 293.903C460.502 313.907 462.536 342.546 463.356 343.273C463.356 343.273 453.528 351.279 445.263 352.629C437.003 353.98 418.618 354.088 418.618 354.088C418.618 354.088 424.228 315.505 424.414 309.205C424.6 302.904 422.211 279.637 422.211 279.637C463.356 255.149 459.683 293.22 459.709 293.903Z" fill="#6758EE"/>
<path d="M437.389 267.637L437.442 271.631C437.482 274.566 439.919 276.881 442.817 276.733L443.637 276.693C446.437 276.549 448.604 274.144 448.485 271.304L448.316 267.215C448.183 264.061 445.321 261.759 442.254 262.347L441.55 262.481C439.112 262.948 437.358 265.124 437.389 267.637Z" fill="#FCD2B1"/>
<path d="M428.912 243.787C428.912 243.787 424.131 257.514 428.345 265.264C432.559 273.013 448.104 270.141 450.758 259.367C456.599 235.647 435.621 236.719 428.912 243.787Z" fill="#FFE3CA"/>
<path d="M439.4 288.742C439.4 288.742 424.649 292.197 408.142 285.148L411.372 270.595L437.442 271.636C437.442 271.632 438.328 279.444 439.4 288.742Z" fill="#6758EE"/>
<path d="M456.82 275.338C456.102 276.079 465.837 308.186 453.252 319.346C446.313 325.499 413.667 334.253 413.667 334.253C413.379 334.644 411.372 335.232 409.347 335.734C406.21 336.515 402.899 335.51 400.697 333.118C400.533 332.939 400.382 332.773 400.249 332.625C399.837 332.162 399.651 331.543 399.731 330.924C399.922 329.47 401.007 328.303 402.43 328.02C403.037 327.899 403.657 327.805 404.158 327.787C407.18 327.688 409.568 328.936 412.555 328.828L414.434 328.761C414.434 328.761 440.774 317.821 444.292 315.065C454.967 306.701 449.871 292.148 450.806 286.243L456.82 275.338Z" fill="#FCD2B1"/>
<path d="M419.881 329.923C419.881 329.923 414.178 326.427 410.58 326.234C408.949 326.149 406.215 325.193 405.359 324.332C404.504 323.466 403.822 326.818 405.275 327.338C406.729 327.859 410.331 328.68 409.512 330.529L419.881 329.923Z" fill="#FCD2B1"/>
<path d="M450.35 272.363C450.35 272.363 463.356 271.438 464.685 301.046L448.121 305.668C448.121 305.668 435.629 288.217 450.35 272.363Z" fill="#6758EE"/>
<path d="M346.954 254.001C346.954 254.001 349.866 254.337 354.408 253.884C358.95 253.426 356.521 251.676 356.521 251.676L353.814 248.006C353.814 248.006 351.434 242.087 348.443 240.224C347.743 239.789 347.477 239.421 346.963 238.806C346.498 238.25 340.99 237.653 345.873 241.481C347.154 242.486 346.976 243.321 346.219 243.33C345.461 243.339 340.25 238.838 338.393 239.933C333.253 242.975 336.443 249.567 339.102 250.891C341.685 252.17 346.954 254.001 346.954 254.001Z" fill="#FFE3CA"/>
<path d="M453.602 240.094C453.461 240.422 453.013 240.457 452.84 240.148C451.449 237.635 446.685 230.424 438.713 232.268C430.365 234.202 426.217 240.256 424.014 239.089C423.673 238.905 423.279 239.206 423.39 239.578C423.784 240.911 424.794 242.558 427.396 242.176C427.635 242.14 427.856 242.329 427.87 242.576C427.927 243.617 427.737 245.977 424.839 245.806C424.489 245.784 424.254 246.165 424.44 246.466C424.972 247.323 426.097 248.494 427.989 247.646C428.1 247.597 428.184 247.498 428.224 247.382C428.499 246.556 429.899 243.145 434.043 243.46C434.198 243.473 434.335 243.581 434.402 243.724C434.667 244.326 435.766 245.914 440.087 246.731C445.143 247.687 446.592 251.483 444.35 254.095C444.133 254.346 444.261 254.745 444.585 254.804C445.648 254.983 447.598 254.943 448.693 252.663C450.248 249.419 452.628 252.569 451.533 254.427C450.531 256.119 450.824 261.441 448.311 264.187C448.054 264.465 448.28 264.923 448.657 264.9C449.982 264.811 452.127 264.393 453.279 262.679C455.02 260.081 459.873 256.469 458.313 249.329C456.877 242.737 455.566 240.175 457.945 238.51C458.233 238.308 458.198 237.864 457.87 237.743C456.806 237.357 454.874 237.164 453.602 240.094Z" fill="#211F2F"/>
<path d="M273.129 193.039C273.129 193.039 290.189 217.034 298.986 225.192C306.616 232.273 326.588 241.844 333.222 245.403C334.237 245.946 334.808 246.251 334.808 246.251L337.591 240.709C337.591 240.709 310.795 221.7 305.464 217.361C300.138 213.026 284.757 189.405 284.757 189.405L273.129 193.039Z" fill="#B97A59"/>
<path d="M260.277 185.424C259.404 184.881 221.756 191.007 213.266 187.363C204.775 183.719 185.982 155.767 185.982 155.767L180.168 152.195C177.855 150.773 175.985 148.717 174.78 146.263L173.548 143.759C172.241 141.098 174.159 137.974 177.097 137.988L182.49 139.657C186.695 140.959 189.944 144.36 191.082 148.664L191.57 150.503C191.57 150.503 213.926 174.529 217.719 176.88C221.508 179.232 240.031 173.681 245.92 173.277L260.277 185.424Z" fill="#B97A59"/>
<path d="M206.818 270.02C206.818 270.02 246.053 266.502 263.814 232.582L240.58 234.224C240.58 234.224 195.616 259.497 192.195 264.339C188.774 269.181 198.35 329.873 198.35 329.873H207.753L206.818 270.02Z" fill="#0E538C"/>
<path d="M240.581 234.225C240.581 234.225 245.712 294.899 257.335 318.099C268.963 341.299 283.666 373.851 283.666 373.851L295.095 370.732L269.646 302.86C269.646 302.86 266.606 270.308 267.253 266.153C267.9 261.997 273.993 245.39 267.838 232.578L240.581 234.225Z" fill="#0E538C"/>
<path d="M228.187 176.27L229.511 190.733C229.511 190.733 240.373 192.258 240.24 192.927C236.225 212.532 229.6 240.448 228.674 241.027C228.674 241.027 239.15 241.988 247.082 244.689C255.014 247.391 270.164 255.154 270.164 255.154C270.164 255.154 271.755 220.112 272.593 213.87C273.426 207.623 279.537 185.065 279.537 185.065C258.621 164.266 228.187 176.27 228.187 176.27Z" fill="#6758EE"/>
<path d="M266.495 170.705L265.799 174.636C265.285 177.526 262.507 179.406 259.675 178.778L258.873 178.599C256.13 177.993 254.384 175.26 254.96 172.478L256.999 162.61L263.225 164.921C265.556 165.796 266.934 168.233 266.495 170.705Z" fill="#A86D52"/>
<path d="M280.162 151.194C280.162 151.194 278.664 167.376 272.145 173.268C265.627 179.16 252.488 169.216 253.512 158.163C255.78 133.819 276.147 142.269 280.162 151.194Z" fill="#B97A59"/>
<path d="M268.582 176.979C268.582 176.979 282.466 183.099 291.572 198.72L280.414 208.458L267.833 196.252C267.838 196.252 263.974 185.087 268.582 176.979Z" fill="#6758EE"/>
<path d="M36.563 479.815C36.563 479.815 102.045 337.035 179.154 337.138C268.463 337.255 204.288 386.482 294.049 389.08C383.81 391.678 561.244 445.59 561.244 445.59L599.712 479.811H36.563V479.815Z" fill="#453B60"/>
<path d="M200.145 329.869L199.485 330.259C195.762 332.458 191.716 334.015 187.533 335.052C178.883 337.188 178.05 341.473 178.05 341.473C177.727 342.066 180.421 343.735 181.086 343.681L195.217 340.567C197.637 340.033 200.118 339.876 202.582 340.1L206.561 340.459C208.409 340.423 209.756 338.678 209.34 336.851L207.753 329.869H200.145Z" fill="#0B4870"/>
<path d="M283.666 373.846C283.666 373.846 280.418 385.836 271.44 385.06C271.44 385.06 266.491 393.07 279.904 391.032C285.036 390.252 286.117 383.503 296.832 385.19C299.792 385.657 301.449 382.076 301.449 382.076C302.566 378.194 299.601 375.946 296.969 372.903L295.095 370.731L283.666 373.846Z" fill="#0B4870"/>
<path d="M163.019 339.463L158.517 339.127L186.647 69.6265L191.145 69.963L163.019 339.463Z" fill="#0B4870"/>
<path d="M186.594 72.3099C186.594 72.3099 150.966 44.8335 136.631 63.1466C117.709 87.3158 104.92 78.1749 98.3222 70.8156C98.3222 70.8156 104.118 85.4804 79.7373 108.761C79.7373 108.761 111.98 132.63 129.971 117.911C147.957 103.192 178.272 119.67 181.959 131.068L186.594 72.3099Z" fill="#F66F5D"/>
<path d="M335.181 247.593C335.181 247.593 332.859 245.784 329.907 242.253C326.961 238.725 329.907 239.174 329.907 239.174L334.374 238.443C334.374 238.443 340.148 235.867 343.578 236.639C344.38 236.818 344.823 236.742 345.616 236.661C346.33 236.589 350.699 240.04 344.562 239.349C342.953 239.17 342.506 239.892 343.042 240.435C343.578 240.978 350.415 241.418 350.996 243.514C352.596 249.32 345.772 251.806 342.953 250.882C340.219 249.989 335.181 247.593 335.181 247.593Z" fill="#B97A59"/>
<path d="M259.423 146.567C259.423 146.567 261.953 154.438 270.931 153.402C279.909 152.361 278.81 159.146 278.81 159.146C278.81 159.146 286.365 152.289 280.33 146.572C274.29 140.851 271.999 133.41 259.423 139.729C246.847 146.047 249.847 157.912 253.259 162.668L254.331 163.759C255 164.436 256.117 164.306 256.609 163.489L256.613 163.48C256.906 162.996 256.897 162.39 256.596 161.91C255.718 160.505 254.154 157.467 255.639 155.69C256.547 154.604 257.252 154.833 257.752 155.399C258.572 156.332 259.848 156.696 260.987 156.211L261.076 156.175C261.076 156.171 265.33 151.768 259.423 146.567Z" fill="#211F2F"/>
</svg>
