<svg width="800" height="800" viewBox="0 0 800 800" fill="none" xmlns="http://www.w3.org/2000/svg">
<path d="M400 654.893C548.167 654.893 668.28 534.78 668.28 386.613C668.28 238.446 548.167 118.333 400 118.333C251.833 118.333 131.72 238.446 131.72 386.613C131.72 534.78 251.833 654.893 400 654.893Z" fill="#2F2C45"/>
<path d="M152.707 506.413C273.347 484.627 427.32 490.067 526.6 498.24C625.88 506.413 662.347 556.013 594.227 563.36C526.107 570.707 571.76 632.027 673.88 649.387C776.013 666.747 549.667 731.093 363.093 706.573C176.52 682.067 89.9468 623.827 177.653 602.893C265.36 581.96 -124.4 556.453 152.707 506.413Z" fill="#453B60"/>
<path d="M455.387 581.946C455.387 581.946 453.533 549.666 439.92 535.413C439.92 535.413 454.453 548.84 458.533 570.08C462.613 591.32 455.387 581.946 455.387 581.946Z" fill="#2C2A3F"/>
<path d="M310.253 618.4C307.173 616.867 309.053 612.88 311.027 610.053L308.173 610.12C311.68 605.053 313.28 598.893 312.653 592.76L310.613 572.706C310.907 571.986 311.573 571.466 312.333 571.346L322.213 570.066C320.8 586.4 320.573 607.88 326.053 613.146" fill="#FFE3CA"/>
<path d="M311.493 574.507C310.88 574.294 310.453 573.747 310.333 573.107C306.467 551.08 302.613 525.427 302.787 519.267C302.907 515.134 303.773 509.8 305.147 504.68C307.133 497.294 307.707 489.587 306.427 482.04C300.333 446.2 296.587 397.307 300.107 388.627C305.44 375.467 319.387 365.027 330.84 366.96C342.307 368.893 349.24 386.707 346.76 401.467C344.867 412.694 336.347 477.054 327.32 506.387C327.347 507.08 327.347 507.8 327.32 508.507C327.133 514.774 324.813 547.294 322.507 572.747C322.453 573.387 322.08 573.96 321.493 574.227C318.227 575.747 314.72 575.627 311.493 574.507Z" fill="#0B4870"/>
<path d="M307.187 592.173L316.64 595.613L317.28 602.027L319.973 597.107H326.693C326.693 597.107 321.84 605.24 325.347 608.453C328.853 611.667 334.453 613.307 340.72 613.267C346.987 613.227 349.68 618.213 349.68 618.213L348.64 624.747C348.64 624.747 324.387 630.48 314.44 624.933C307.573 621.107 306.64 618.413 306.64 618.413C306.64 618.413 311.12 606.733 307.187 592.173Z" fill="#0B4870"/>
<path d="M314.88 282.493C314.88 282.493 285.28 282.947 275.133 293.6C264.987 304.253 263.187 358.187 265.573 374.32C267.96 390.453 322.96 390.24 331.987 381.48C341.013 372.72 314.88 282.493 314.88 282.493Z" fill="#F66F5D"/>
<path d="M347.266 353.613L351.08 367.947H306.973L309.64 353.613H347.266Z" fill="#FFE3CA"/>
<path d="M367.427 571.933L365.107 587.2C364.627 590.6 365.027 594.053 366.267 597.253C367.827 601.267 371.213 604.467 375.453 605.293C379.653 606.107 383.547 609.32 383.533 611.573C383.533 612.827 364.76 612.627 354.12 599.613C353.507 598.867 353.213 597.933 353.44 596.987C353.72 595.827 354.053 594.44 354.573 593.72C356.213 591.48 357.96 589.187 358.293 586.427C358.693 583.08 359.64 563.347 359.64 563.347L367.427 571.933Z" fill="#FFE3CA"/>
<path d="M359.827 385.693C366.107 398.08 390.493 462.867 385.707 477.627C385.493 482.24 384.773 487.333 384.04 491.773C382.72 499.773 373.92 546.12 367.613 572.04C364.667 571.453 361.293 567.987 359.533 564.933C358.653 537.307 358.907 495.347 360.147 487.827C360.387 486.373 360.8 484.867 361.36 483.373C364.8 474.147 362.653 463.787 356.453 456.147C340.307 436.227 322.827 410 318.933 402.333C312.16 388.987 317.08 373.227 327.453 367.96C337.84 362.72 353.053 372.36 359.827 385.693Z" fill="#0B4870"/>
<path d="M351.6 578.147L360.586 581.587L361.2 588L363.76 583.08H370.146C370.146 583.08 365.533 591.213 368.866 594.427C372.2 597.64 377.533 599.28 383.493 599.24C389.453 599.2 392.013 604.187 392.013 604.187L391.026 610.72C391.026 610.72 367.946 616.453 358.493 610.907C351.96 607.08 351.066 604.387 351.066 604.387C351.066 604.387 355.346 592.693 351.6 578.147Z" fill="#0B4870"/>
<path d="M328.08 228.213C328.08 228.213 316.254 220.787 304.454 230.72C292.654 240.653 298.72 248.213 290.067 253.293C281.414 258.373 293.054 267.52 288.68 269.413C284.307 271.307 281.707 274.84 284.894 283.373C288.08 291.907 275.24 292.107 279.12 300.067C283 308.027 279.334 320.373 315.854 316.987C352.373 313.6 354.467 306.84 349.387 302.653C344.307 298.467 345.573 296.787 347.28 290.507C348.987 284.227 336.147 286.32 338.24 282.147C340.333 277.96 336.654 277.96 335.654 273.133C334.654 268.307 334.067 260.653 334.067 260.653L328.08 228.213Z" fill="#211F2F"/>
<path d="M343.36 286.64C343.36 286.64 348.08 289.72 349.573 292.707C351.067 295.693 384.413 332.413 382.813 339.28C381.227 346.147 357.88 378.88 357.88 378.88L354.12 369.04C354.12 369.04 363.707 347.733 365.893 342.853C368.08 337.973 370.467 338.08 370.467 338.08L349.173 320.16L343.36 286.64Z" fill="#FFE3CA"/>
<path d="M343.36 286.64C343.36 286.64 349.08 289.133 351.413 290.427C353.747 291.72 360.427 341.173 349.373 351.026C338.32 360.88 347.267 339.28 347.267 339.28C347.267 339.28 352.467 315.8 343.36 286.64Z" fill="#F66F5D"/>
<path d="M314.88 282.493C314.88 282.493 309.64 285.16 302.44 290.413C302.44 290.413 301 312.707 302.8 331.507C303.96 343.64 302.773 352.8 301.8 357.76C301.413 359.693 303.08 361.4 305.04 361.107C309.16 360.507 317.08 359.693 332 358.973C359.533 357.627 354.466 352.707 354.466 352.707C354.466 352.707 348.093 331.653 351.426 321.053C354.76 310.453 354.426 306.293 347.28 293.587C343.36 286.627 343.36 286.627 343.36 286.627L332.6 283.373L314.88 282.493Z" fill="#CCE9FF"/>
<path d="M330.867 263.693L319.387 262.92L314.88 282.493L328.173 293.6L332.6 283.373L330.867 263.693Z" fill="#FFE3CA"/>
<path d="M331.986 276.32C330.946 277.067 329.773 277.493 328.453 277.573C324.306 277.8 320.68 271.773 317.973 269.04L319.386 262.92L330.853 263.707L331.986 276.32Z" fill="#FCD2B1"/>
<path d="M339.04 246.187C338.24 244.307 337.36 242.173 336.52 240.027C333.667 232.853 325.787 229.08 318.427 231.4C310.507 233.907 306.227 242.48 309 250.307L311.947 258.64C312.973 261.893 316.84 265.973 320.867 267.733C327.893 270.8 332.467 271.387 336.16 270.227C342 267.16 342.827 255.053 339.04 246.187Z" fill="#FFE3CA"/>
<path d="M308.12 251.44C306.04 252.093 304.107 253.907 305.213 257.413C306.32 260.92 310.067 264.8 312.134 264.147C314.214 263.493 314.987 260.12 313.88 256.6C312.774 253.107 310.2 250.787 308.12 251.44Z" fill="#FFE3CA"/>
<path d="M326.48 234.04C326.48 234.04 326.48 243.4 321.8 243.4C317.12 243.4 324.133 248.08 317.12 250.413C310.107 252.747 308.12 251.453 308.12 251.453C308.12 251.453 301 242.053 306.573 234.04C312.147 226.027 322.893 225.627 328.067 228.213C333.24 230.8 338.213 240.947 338.213 240.947C338.213 240.947 330.467 237.973 326.48 234.04Z" fill="#211F2F"/>
<path d="M300.413 366.52L351.413 361.987L368.92 407.8L299.48 422.533C299.48 422.533 297.36 398.413 299.48 384.987C301.6 371.56 300.413 366.52 300.413 366.52Z" fill="#0B4870"/>
<path d="M292.054 247.027C296.509 247.027 300.12 242.221 300.12 236.293C300.12 230.366 296.509 225.56 292.054 225.56C287.598 225.56 283.987 230.366 283.987 236.293C283.987 242.221 287.598 247.027 292.054 247.027Z" fill="#211F2F"/>
<path d="M302.44 290.427C302.44 290.427 287.214 317.547 279.907 330.733C267.76 352.627 275.92 356.814 275.92 356.814C275.92 356.814 284.147 368.494 297.52 348.947C310.627 329.8 311.134 321.84 311.134 321.84L308.147 317.573C308.147 317.573 288.027 336.827 286.267 341.88C283.36 342.107 301.934 315.2 301.934 315.2C301.934 315.2 306.92 304.8 308.134 299.28C309.36 293.747 302.44 290.427 302.44 290.427Z" fill="#FFE3CA"/>
<path d="M315.84 376.307L303.787 393.627L306.973 396.907L319.813 378.893L315.84 376.307Z" fill="#093D60"/>
<path d="M308.147 286.493C308.147 286.493 306.347 285.36 301.734 286.493C297.12 287.627 294.854 303.947 294.854 303.947L302.44 290.413C302.44 290.413 317.2 308.187 314.893 327.173C313.8 336.173 296.534 360.253 296.534 360.253L305.04 361.12C305.04 361.12 321.28 338.293 323.027 328.333C324.76 318.373 322.333 309.253 316.733 296.88C312.747 288.133 308.147 286.493 308.147 286.493Z" fill="#F66F5D"/>
<path d="M308.146 317.56C308.146 317.56 312.653 312.013 315.84 308.627C319.026 305.24 323.52 306.933 323.013 308.627C322.506 310.32 324.173 310.413 323.733 313C323.293 315.587 326.493 316.387 324.746 318.373C323 320.36 321.906 321.853 319.013 322.253C316.12 322.653 316.613 322.347 314.386 323.747C312.146 325.133 309.64 327.173 309.64 327.173L308.146 317.56Z" fill="#FFE3CA"/>
<path d="M307.467 318.48L312.28 325.173L309.187 328.346L303.787 321.826L307.467 318.48Z" fill="#0B4870"/>
<path d="M306.973 325.347C308.733 325.347 310.16 323.92 310.16 322.16C310.16 320.4 308.733 318.973 306.973 318.973C305.213 318.973 303.787 320.4 303.787 322.16C303.787 323.92 305.213 325.347 306.973 325.347Z" fill="white"/>
<path d="M482.987 580.933C482.987 580.933 484.72 557.48 494.427 550.16C494.427 550.16 486.587 565.56 488.707 579.347C488.707 579.347 487.227 568.947 494.427 562.667C494.427 562.667 491.16 571.267 492.093 581.973H471.16L482.987 580.933Z" fill="#2C2A3F"/>
<path d="M462.627 141.64L420.613 167.053L408.173 202.24L430.147 207.493L465.893 178.307L462.627 141.64Z" fill="#F66F5D"/>
<path d="M476.093 181.134L580.813 202.44L600.32 235.827L570.12 249.267L477.507 223.187L476.093 181.134Z" fill="#F66F5D"/>
<path d="M455.386 581.947L463.293 100.507C463.36 96.8134 466.293 93.8134 469.987 93.6934C473.853 93.5601 477.067 96.6134 477.147 100.48L486.6 582.04C486.627 583.253 486.333 584.453 485.747 585.52C482.973 590.467 473.707 603.027 457.4 586.947C456.066 585.627 455.36 583.813 455.386 581.947Z" fill="#F2F2F2"/>
<path d="M471 107.854L558.827 41.9202L577.973 61.3202L559.747 110.014L471.827 150.08L471 107.854Z" fill="#F66F5D"/>
<path d="M502.32 580.293C502.32 580.293 503.014 562.48 515.267 548.066C515.267 548.066 507.76 567.507 512.573 579.933C512.573 579.933 511.187 570.613 523.44 563.373C523.44 563.373 516.627 573.04 520.04 586.2L485.76 585.533L502.32 580.293Z" fill="#2C2A3F"/>
<path d="M414.493 578.147C414.493 578.147 418.413 563.64 429.813 559.707C429.813 559.707 424.027 567.547 422.16 576.467C422.16 576.467 426.24 569.294 434.92 567.134C434.92 567.134 426.747 571.414 428.453 578.147L443.773 581.987H404.987L414.493 578.147Z" fill="#2C2A3F"/>
<path d="M408.773 580.453C408.773 580.453 406.24 546.12 392.013 535.413C392.013 535.413 403.48 557.96 400.387 578.146C400.387 578.146 402.56 562.92 392.013 553.733C392.013 553.733 396.787 566.333 395.427 581.986H426.066L408.773 580.453Z" fill="#2C2A3F"/>
</svg>
