<svg width="600" height="427" viewBox="0 0 600 427" fill="none" xmlns="http://www.w3.org/2000/svg">
<path opacity="0.1" d="M39.8756 392.811C39.8756 392.811 27.6786 217.206 109.032 114.338C190.386 11.4703 321.803 -36.0379 395.623 32.9925C547.967 175.437 664.158 378.583 557.294 392.811C450.431 407.04 39.8756 392.811 39.8756 392.811Z" fill="#817BB8"/>
<path d="M292.546 392.812H190.187L293.224 162.246L395.623 392.812H292.546Z" fill="#FF9182"/>
<path opacity="0.1" d="M292.347 425.732C453.489 425.732 584.12 412.367 584.12 395.88C584.12 379.393 453.489 366.028 292.347 366.028C131.205 366.028 0.574219 379.393 0.574219 395.88C0.574219 412.367 131.205 425.732 292.347 425.732Z" fill="#2A94F4"/>
<path d="M337.388 303.375L341.653 306.205C342.371 306.683 343.248 305.846 342.809 305.128L342.331 304.291C341.574 302.976 342.809 301.422 344.244 301.9L350.184 303.853C352.416 304.889 355.007 303.375 355.206 300.944C355.365 299.27 352.575 297.237 351.419 296.639C348.669 295.204 336.91 290.74 336.91 290.74C336.91 290.74 333.522 291.577 333.363 295.922C333.243 298.871 334.877 301.701 337.388 303.375Z" fill="#FFE3CA"/>
<path d="M274.53 383.604C274.53 383.604 289.836 344.665 292.825 336.933C290.514 311.386 270.624 289.226 270.624 289.226C270.624 289.226 265.561 281.334 259.742 282.171C258.028 282.41 256.234 283.287 254.6 284.722C253.285 277.189 248.382 271.211 235.706 271.769C235.706 271.769 216.454 288.708 220.081 337.69C219.922 347.136 202.384 399.945 202.384 399.945L227.735 399.348L214.501 391.775C214.501 391.775 235.388 352.995 240.25 343.788C245.113 334.582 249.777 312.223 249.777 312.223C249.777 312.223 250.096 311.505 250.574 310.27C256.832 325.176 274.211 339.922 274.211 339.922L264.246 391.456L287.564 390.978L274.53 383.604Z" fill="#2A94F4"/>
<path d="M274.53 383.605C274.53 383.605 269.946 384.641 265.8 383.645L264.286 391.456L287.604 390.978L274.53 383.605Z" fill="#0E538C"/>
<path d="M214.541 391.775C214.541 391.775 208.881 393.369 205.094 391.815C203.5 396.757 202.424 399.945 202.424 399.945L227.775 399.348L214.541 391.775Z" fill="#0E538C"/>
<path d="M291.47 241.359C291.47 241.359 300.917 252.001 308.65 264.954C316.343 277.867 337.309 290.302 337.309 290.302C337.309 290.302 335.914 298.074 333.602 297.516C331.29 296.958 301.435 281.016 301.435 281.016C301.435 281.016 285.212 267.624 283.139 259.852C281.944 255.189 285.212 242.555 291.47 241.359Z" fill="#0E538C"/>
<path d="M267.395 229.442C267.395 229.442 287.763 234.902 291.47 241.359C295.177 247.815 286.886 264.874 277.559 271.131C272.935 274.638 270.623 289.345 270.623 289.345C270.623 289.345 245.313 290.541 235.667 272.127C238.218 267.624 257.789 234.742 267.395 229.442Z" fill="#0E538C"/>
<path d="M279.911 227.728L273.613 237.373C273.613 237.373 272.975 242.475 278.436 243.79C283.857 245.105 285.491 242.156 285.491 242.156L287.364 229.482C287.324 229.482 282.541 226.891 279.911 227.728Z" fill="#FFE3CA"/>
<path d="M281.983 210.072C281.983 210.072 272.018 217.884 272.098 221.79C272.178 225.656 275.845 230.08 286.049 233.587C289.756 233.866 296.134 224.022 296.532 221.75C299.243 206.923 286.408 208.438 281.983 210.072Z" fill="#FFE3CA"/>
<path d="M277.399 205.847C279.871 210.391 284.494 214.974 289.238 216.409C292.108 217.246 292.546 219.956 291.35 221.152C290.115 222.388 285.969 224.34 288.241 225.337C290.513 226.333 291.589 222.547 292.705 224.699C293.822 226.851 288.879 229.96 290.314 231.475C291.749 232.989 298.366 233.069 298.286 228.525C298.206 224.022 300.917 222.666 305.022 221.59C309.088 220.514 308.689 212.623 303.986 211.985C299.282 211.347 298.047 208.278 295.735 204.094C292.905 198.952 288.799 204.333 284.933 201.902C283.418 200.945 282.82 198.713 281.146 197.996C277.2 196.362 275.287 200.945 276.522 203.894C276.762 204.612 277.041 205.249 277.399 205.847Z" fill="#211F2F"/>
<path d="M196.644 267.385L194.133 280.218L191.023 273.921L177.152 281.294C177.152 281.294 178.707 273.562 179.384 271.569C180.022 269.577 189.668 263.12 192.179 263C194.691 262.921 197.281 264.236 196.644 267.385Z" fill="#FCD2B1"/>
<path d="M267.435 229.362C267.435 229.362 239.255 227.13 228.134 233.467C218.448 238.369 192.18 263.04 192.18 263.04C192.18 263.04 194.173 266.627 196.684 267.424C199.156 265.949 227.695 248.652 227.695 248.652C227.695 248.652 249.299 250.565 257.869 248.851C267.635 246.858 272.737 234.742 267.435 229.362Z" fill="#0E538C"/>
<path d="M293.224 38.134C227.814 136.538 29.1934 392.812 29.1934 392.812H190.864L293.224 162.285L395.584 392.812H557.255C557.255 392.812 358.634 136.538 293.224 38.134Z" fill="#2E286B"/>
<path opacity="0.4" d="M293.224 162.245L190.864 392.811C190.864 392.811 190.346 329.799 157.542 322.107C157.542 322.107 206.529 315.969 293.224 162.245Z" fill="white"/>
<path opacity="0.4" d="M293.224 162.245L395.583 392.771C395.583 392.771 396.101 329.759 428.906 322.067C428.906 322.107 379.918 315.969 293.224 162.245Z" fill="white"/>
<path d="M29.3676 365.57L28.8276 392.587L39.9064 392.808L40.4464 365.791L29.3676 365.57Z" fill="#0E538C"/>
<path d="M21.454 357.29L21.2915 365.419L48.4704 365.963L48.6329 357.833L21.454 357.29Z" fill="#0E538C"/>
<path d="M553.468 365.67H542.427V392.692H553.468V365.67Z" fill="#0E538C"/>
<path d="M561.559 357.579H534.375V365.71H561.559V357.579Z" fill="#0E538C"/>
<path d="M493.041 314.216C493.041 318.202 489.812 321.43 485.826 321.43H434.288C430.302 321.43 427.073 318.202 427.073 314.216V309.154C427.073 305.169 430.302 301.94 434.288 301.94H485.826C489.812 301.94 493.041 305.169 493.041 309.154V314.216Z" fill="#2A94F4"/>
<path d="M487.899 383.805C487.899 385 486.942 385.957 485.747 385.957H434.965C433.77 385.957 432.813 385 432.813 383.805V334.782C432.813 333.586 433.77 332.63 434.965 332.63H485.747C486.942 332.63 487.899 333.586 487.899 334.782V383.805Z" fill="#CCE9FF"/>
<path d="M485.707 396.04C485.707 398.033 483.993 399.667 481.841 399.667H438.792C436.68 399.667 434.926 398.033 434.926 396.04V385.996H485.667V396.04H485.707Z" fill="#CCE9FF"/>
<path d="M489.294 325.496C489.294 320.673 484.95 316.767 479.608 316.767H441.024C435.683 316.767 431.338 320.673 431.338 325.496C431.338 325.496 431.418 338.489 431.538 338.648C433.451 345.702 445.568 351.163 460.277 351.163C474.985 351.163 487.102 345.702 489.015 338.648C489.215 338.449 489.294 325.496 489.294 325.496Z" fill="#2A94F4"/>
<path d="M486.744 336.774C486.704 336.774 486.664 336.774 486.624 336.774C486.425 336.694 486.345 336.495 486.385 336.336C486.465 336.097 486.505 335.898 486.584 335.659C486.624 335.459 486.823 335.34 487.023 335.38C487.222 335.42 487.342 335.619 487.302 335.818C487.262 336.057 487.182 336.296 487.102 336.535C487.023 336.694 486.903 336.774 486.744 336.774Z" fill="#0E538C"/>
<path d="M460.436 349.368C460.157 349.368 459.878 349.368 459.639 349.368C459.44 349.368 459.28 349.209 459.28 349.009C459.28 348.81 459.44 348.651 459.639 348.651C459.918 348.651 460.157 348.651 460.436 348.651C460.636 348.651 460.835 348.651 461.034 348.651C461.233 348.651 461.393 348.81 461.393 349.009C461.393 349.209 461.233 349.368 461.034 349.368C460.835 349.368 460.636 349.368 460.436 349.368ZM457.527 349.288C457.048 349.249 456.57 349.209 456.092 349.169C455.892 349.169 455.733 348.97 455.773 348.77C455.773 348.571 455.972 348.412 456.171 348.451C456.65 348.491 457.088 348.531 457.566 348.571C457.766 348.571 457.925 348.77 457.885 348.97C457.885 349.129 457.726 349.288 457.527 349.288ZM463.147 349.288C462.947 349.288 462.788 349.129 462.788 348.97C462.788 348.77 462.908 348.611 463.107 348.571C463.585 348.531 464.024 348.491 464.502 348.451C464.701 348.412 464.861 348.571 464.901 348.77C464.901 348.97 464.781 349.129 464.582 349.169C464.103 349.209 463.665 349.249 463.147 349.288ZM454.059 348.93H454.019C453.541 348.85 453.102 348.77 452.624 348.691C452.424 348.651 452.305 348.451 452.345 348.292C452.385 348.093 452.544 347.973 452.743 348.013C453.182 348.093 453.66 348.172 454.138 348.252C454.338 348.292 454.457 348.451 454.457 348.651C454.378 348.77 454.218 348.93 454.059 348.93ZM466.654 348.93C466.495 348.93 466.336 348.81 466.296 348.611C466.256 348.412 466.415 348.212 466.615 348.212C467.093 348.133 467.531 348.053 468.01 347.973C468.209 347.933 468.408 348.053 468.408 348.252C468.448 348.451 468.328 348.651 468.129 348.691C467.651 348.77 467.212 348.85 466.734 348.93C466.694 348.93 466.654 348.93 466.654 348.93ZM450.591 348.292C450.551 348.292 450.551 348.292 450.511 348.292C450.033 348.172 449.594 348.053 449.116 347.933C448.917 347.893 448.797 347.694 448.877 347.495C448.917 347.296 449.116 347.176 449.315 347.256C449.754 347.375 450.192 347.495 450.671 347.575C450.87 347.614 450.99 347.814 450.95 348.013C450.91 348.172 450.75 348.292 450.591 348.292ZM470.082 348.252C469.923 348.252 469.763 348.133 469.724 347.973C469.684 347.774 469.803 347.575 470.003 347.535C470.441 347.415 470.919 347.336 471.358 347.216C471.557 347.176 471.756 347.296 471.796 347.455C471.836 347.614 471.717 347.854 471.557 347.893C471.119 348.013 470.64 348.133 470.202 348.252C470.162 348.252 470.122 348.252 470.082 348.252ZM447.203 347.335C447.163 347.335 447.123 347.335 447.083 347.335C446.645 347.176 446.166 347.017 445.728 346.857C445.529 346.778 445.449 346.578 445.529 346.379C445.608 346.18 445.808 346.1 446.007 346.18C446.446 346.339 446.884 346.499 447.322 346.618C447.522 346.698 447.601 346.897 447.562 347.057C447.522 347.256 447.362 347.335 447.203 347.335ZM473.47 347.335C473.311 347.335 473.191 347.256 473.112 347.096C473.032 346.897 473.152 346.698 473.351 346.658C473.789 346.499 474.228 346.339 474.666 346.18C474.866 346.1 475.065 346.22 475.144 346.379C475.224 346.578 475.105 346.778 474.945 346.857C474.507 347.017 474.068 347.176 473.59 347.335C473.55 347.335 473.51 347.335 473.47 347.335ZM443.934 346.1C443.894 346.1 443.855 346.1 443.775 346.06C443.336 345.861 442.898 345.662 442.499 345.462C442.34 345.383 442.26 345.143 442.34 344.984C442.42 344.825 442.659 344.745 442.818 344.825C443.217 345.024 443.655 345.223 444.054 345.422C444.253 345.502 444.333 345.701 444.253 345.901C444.213 346.02 444.094 346.1 443.934 346.1ZM476.739 346.06C476.619 346.06 476.46 345.98 476.42 345.861C476.34 345.662 476.42 345.462 476.619 345.383C477.058 345.183 477.456 344.984 477.855 344.785C478.014 344.705 478.254 344.785 478.333 344.944C478.413 345.104 478.333 345.343 478.174 345.422C477.775 345.622 477.337 345.821 476.898 346.02C476.858 346.06 476.819 346.06 476.739 346.06ZM440.825 344.466C440.746 344.466 440.706 344.466 440.626 344.426C440.227 344.187 439.829 343.908 439.43 343.669C439.271 343.549 439.231 343.35 439.35 343.151C439.47 342.991 439.669 342.951 439.869 343.071C440.227 343.31 440.626 343.589 441.025 343.828C441.184 343.948 441.264 344.147 441.144 344.306C441.064 344.426 440.945 344.466 440.825 344.466ZM479.848 344.466C479.728 344.466 479.609 344.386 479.529 344.306C479.409 344.147 479.489 343.908 479.649 343.828C480.047 343.589 480.446 343.35 480.805 343.071C480.964 342.951 481.203 342.991 481.323 343.151C481.442 343.31 481.402 343.549 481.243 343.669C480.844 343.948 480.446 344.187 480.047 344.426C480.007 344.426 479.928 344.466 479.848 344.466ZM437.955 342.433C437.876 342.433 437.796 342.393 437.716 342.354C437.357 342.035 436.999 341.716 436.68 341.397C436.52 341.238 436.52 341.038 436.68 340.879C436.839 340.719 437.039 340.719 437.198 340.879C437.517 341.198 437.836 341.517 438.195 341.796C438.354 341.915 438.354 342.154 438.234 342.314C438.155 342.393 438.075 342.433 437.955 342.433ZM482.718 342.433C482.598 342.433 482.519 342.393 482.439 342.314C482.319 342.154 482.319 341.915 482.479 341.796C482.837 341.477 483.156 341.158 483.475 340.879C483.635 340.719 483.834 340.719 483.993 340.879C484.153 341.038 484.153 341.238 483.993 341.397C483.674 341.716 483.316 342.035 482.957 342.354C482.877 342.393 482.798 342.433 482.718 342.433ZM435.564 339.882C435.444 339.882 435.325 339.843 435.285 339.723C435.006 339.324 434.727 338.926 434.488 338.527C434.408 338.368 434.448 338.129 434.607 338.049C434.767 337.969 435.006 338.009 435.086 338.169C435.325 338.567 435.564 338.926 435.843 339.324C435.962 339.484 435.923 339.723 435.763 339.843C435.723 339.882 435.644 339.882 435.564 339.882ZM485.109 339.882C485.03 339.882 484.95 339.843 484.91 339.803C484.751 339.683 484.711 339.444 484.83 339.285C485.109 338.926 485.349 338.527 485.588 338.129C485.667 337.969 485.907 337.89 486.066 338.009C486.226 338.089 486.305 338.328 486.186 338.487C485.946 338.886 485.667 339.285 485.388 339.683C485.349 339.803 485.229 339.882 485.109 339.882Z" fill="#0E538C"/>
<path d="M433.93 336.774C433.77 336.774 433.65 336.694 433.571 336.535C433.491 336.296 433.411 336.057 433.371 335.818C433.332 335.619 433.451 335.42 433.65 335.38C433.85 335.34 434.049 335.459 434.089 335.659C434.129 335.898 434.209 336.097 434.288 336.336C434.368 336.535 434.248 336.734 434.049 336.774C434.009 336.774 433.969 336.774 433.93 336.774Z" fill="#0E538C"/>
<path d="M481.481 380.776C481.481 381.971 480.525 382.928 479.329 382.928H440.227C439.031 382.928 438.074 381.971 438.074 380.776V365.391H481.521V380.776H481.481Z" fill="#CCE9FF"/>
<path d="M442.499 373.203H441.702V380.935H442.499V373.203Z" fill="#0E538C"/>
<path d="M477.655 373.203H476.858V380.935H477.655V373.203Z" fill="#0E538C"/>
<path d="M481.481 366.945C481.481 370.931 478.253 374.159 474.267 374.159H445.289C441.303 374.159 438.074 370.931 438.074 366.945V356.623H481.521V366.945H481.481Z" fill="#2A94F4"/>
<path d="M472.314 372.366H470.879C470.68 372.366 470.52 372.207 470.52 372.007C470.52 371.808 470.68 371.649 470.879 371.649H472.314C472.513 371.649 472.673 371.808 472.673 372.007C472.673 372.207 472.513 372.366 472.314 372.366ZM468.727 372.366H467.292C467.092 372.366 466.933 372.207 466.933 372.007C466.933 371.808 467.092 371.649 467.292 371.649H468.727C468.926 371.649 469.085 371.808 469.085 372.007C469.085 372.207 468.926 372.366 468.727 372.366ZM465.099 372.366H463.664C463.465 372.366 463.306 372.207 463.306 372.007C463.306 371.808 463.465 371.649 463.664 371.649H465.099C465.299 371.649 465.458 371.808 465.458 372.007C465.458 372.207 465.299 372.366 465.099 372.366ZM461.472 372.366H460.037C459.838 372.366 459.678 372.207 459.678 372.007C459.678 371.808 459.838 371.649 460.037 371.649H461.472C461.671 371.649 461.831 371.808 461.831 372.007C461.831 372.207 461.671 372.366 461.472 372.366ZM457.885 372.366H456.45C456.25 372.366 456.091 372.207 456.091 372.007C456.091 371.808 456.25 371.649 456.45 371.649H457.885C458.084 371.649 458.243 371.808 458.243 372.007C458.243 372.207 458.084 372.366 457.885 372.366ZM454.257 372.366H452.823C452.623 372.366 452.464 372.207 452.464 372.007C452.464 371.808 452.623 371.649 452.823 371.649H454.257C454.457 371.649 454.616 371.808 454.616 372.007C454.616 372.207 454.457 372.366 454.257 372.366ZM450.63 372.366H449.195C448.996 372.366 448.837 372.207 448.837 372.007C448.837 371.808 448.996 371.649 449.195 371.649H450.63C450.83 371.649 450.989 371.808 450.989 372.007C450.989 372.207 450.83 372.366 450.63 372.366ZM447.043 372.366H445.608C445.409 372.366 445.249 372.207 445.249 372.007C445.249 371.808 445.409 371.649 445.608 371.649H447.043C447.242 371.649 447.402 371.808 447.402 372.007C447.402 372.207 447.242 372.366 447.043 372.366ZM474.506 372.366C474.307 372.366 474.147 372.207 474.147 372.007C474.147 371.808 474.307 371.649 474.506 371.649C474.945 371.649 475.383 371.529 475.822 371.409C476.021 371.33 476.22 371.449 476.3 371.649C476.38 371.848 476.26 372.047 476.061 372.087C475.543 372.246 475.024 372.366 474.506 372.366ZM443.456 372.047C443.416 372.047 443.376 372.047 443.336 372.007C442.858 371.808 442.419 371.569 441.981 371.25C441.821 371.13 441.781 370.891 441.901 370.732C442.021 370.572 442.26 370.533 442.419 370.652C442.778 370.931 443.177 371.13 443.575 371.29C443.774 371.37 443.854 371.569 443.774 371.768C443.735 371.928 443.615 372.047 443.456 372.047ZM477.735 371.011C477.655 371.011 477.536 370.971 477.456 370.891C477.336 370.732 477.336 370.533 477.456 370.373C477.775 370.054 478.054 369.696 478.293 369.337C478.412 369.178 478.612 369.098 478.771 369.217C478.931 369.337 479.01 369.536 478.891 369.696C478.612 370.134 478.293 370.533 477.934 370.891C477.934 370.971 477.815 371.011 477.735 371.011ZM440.825 369.696C440.705 369.696 440.586 369.616 440.506 369.496C440.267 369.058 440.067 368.54 439.988 368.062C439.948 367.862 440.067 367.663 440.267 367.623C440.466 367.583 440.665 367.703 440.705 367.902C440.785 368.341 440.944 368.779 441.144 369.178C441.223 369.337 441.184 369.576 440.984 369.656C440.944 369.656 440.865 369.696 440.825 369.696ZM479.329 367.822C479.289 367.822 479.289 367.822 479.329 367.822C479.09 367.783 478.931 367.623 478.97 367.424C478.97 367.264 479.01 367.105 479.01 366.946V366.029C479.01 365.83 479.17 365.67 479.369 365.67C479.568 365.67 479.728 365.83 479.728 366.029V366.946C479.728 367.145 479.728 367.304 479.688 367.504C479.648 367.703 479.489 367.822 479.329 367.822ZM440.227 366.188C440.028 366.188 439.868 366.029 439.868 365.83V364.395C439.868 364.196 440.028 364.036 440.227 364.036C440.426 364.036 440.586 364.196 440.586 364.395V365.83C440.586 366.029 440.426 366.188 440.227 366.188ZM479.329 364.235C479.13 364.235 478.97 364.076 478.97 363.877V362.442C478.97 362.243 479.13 362.083 479.329 362.083C479.529 362.083 479.688 362.243 479.688 362.442V363.877C479.688 364.036 479.529 364.235 479.329 364.235ZM440.227 362.561C440.028 362.561 439.868 362.402 439.868 362.203V360.768C439.868 360.569 440.028 360.409 440.227 360.409C440.426 360.409 440.586 360.569 440.586 360.768V362.203C440.586 362.402 440.426 362.561 440.227 362.561ZM479.329 360.609C479.13 360.609 478.97 360.449 478.97 360.25V358.815C478.97 358.616 479.13 358.456 479.329 358.456C479.529 358.456 479.688 358.616 479.688 358.815V360.25C479.688 360.449 479.529 360.609 479.329 360.609Z" fill="#0E538C"/>
<path d="M481.481 380.776C481.481 381.971 480.525 382.927 479.329 382.927H440.227C439.031 382.927 438.074 381.971 438.074 380.776V380.377H481.521V380.776H481.481Z" fill="#0E538C"/>
<path d="M447.681 366.108C447.681 367.224 446.764 368.141 445.648 368.141C444.532 368.141 443.615 367.224 443.615 366.108C443.615 364.992 444.532 364.075 445.648 364.075C446.764 364.035 447.681 364.952 447.681 366.108Z" fill="#0E538C"/>
<path d="M475.702 366.108C475.702 367.224 474.785 368.141 473.669 368.141C472.553 368.141 471.636 367.224 471.636 366.108C471.636 364.992 472.553 364.075 473.669 364.075C474.785 364.035 475.702 364.952 475.702 366.108Z" fill="#0E538C"/>
<path d="M447.083 358.217C447.083 359.771 446.126 361.047 444.93 361.047H444.691C443.495 361.047 442.539 359.771 442.539 358.217V300.824H447.122V358.217H447.083Z" fill="#0E538C"/>
<path d="M476.858 358.217C476.858 359.771 475.901 361.047 474.706 361.047H474.466C473.271 361.047 472.314 359.771 472.314 358.217V300.824H476.898V358.217H476.858Z" fill="#0E538C"/>
<path d="M447.76 325.775H441.781V327.209H447.76V325.775Z" fill="#CCE9FF"/>
<path d="M447.76 332.311H441.781V333.745H447.76V332.311Z" fill="#CCE9FF"/>
<path d="M477.576 325.775H471.597V327.209H477.576V325.775Z" fill="#CCE9FF"/>
<path d="M477.576 332.311H471.597V333.745H477.576V332.311Z" fill="#CCE9FF"/>
<path d="M464.502 361.206H455.095V364.314H464.502V361.206Z" fill="#0E538C"/>
<path d="M454.417 316.727C454.616 314.017 456.849 311.905 459.599 311.905C462.349 311.905 464.581 314.057 464.781 316.727H466.933C466.734 312.821 463.505 309.713 459.559 309.713C455.613 309.713 452.384 312.821 452.185 316.727H454.417Z" fill="#0E538C"/>
</svg>
