<svg width="200" height="159" viewBox="0 0 200 159" fill="none" xmlns="http://www.w3.org/2000/svg">
<path fill-rule="evenodd" clip-rule="evenodd" d="M107.306 0.1265C131.713 1.89199 146.533 25.5221 159.824 46.068C171.03 63.3882 177.68 82.8733 173.965 103.165C170.022 124.705 159.901 146.738 139.803 155.431C120.342 163.849 99.9137 152.143 80.5121 143.588C59.7726 134.443 35.212 127.526 27.8785 106.079C19.9003 82.7464 29.5186 57.4425 44.3095 37.7122C59.7406 17.1278 81.6468 -1.72957 107.306 0.1265Z" fill="#E8ECFB"/>
<path d="M137.338 91.7125C137.325 93.7375 137.3 95.775 137.288 97.8C137.288 98.3 137.275 98.8 137.275 99.2875C137.275 99.625 137.2 100.05 137.338 100.375C137.55 100.925 138.263 100.775 138.525 101.238C138.55 101.15 138.575 101.063 138.588 100.975C137.675 101.425 137.438 102.438 137.363 103.375C137.3 104.275 137.263 105.725 138.438 105.9C138.425 105.788 138.413 105.675 138.388 105.563C136.613 106.375 137.325 109.55 138.075 110.825C138.625 111.763 139.438 112.525 140.275 113.2C140.75 113.588 141.225 113.95 141.713 114.325C142 114.55 142.288 114.763 142.563 114.988C142.713 115.1 143.35 115.45 143.375 115.663C143.425 115.6 143.463 115.538 143.513 115.488C143.525 115.488 143.525 115.488 143.538 115.488C143.563 115.575 143.588 115.663 143.6 115.75C143.613 115.738 143.613 115.725 143.625 115.713C143.725 115.5 143.413 115.313 143.3 115.525C143.288 115.538 143.288 115.55 143.275 115.563C143.225 115.663 143.25 115.75 143.338 115.825C143.425 115.9 143.488 115.9 143.6 115.863C143.675 115.838 143.75 115.763 143.738 115.688C143.688 115.3 143.3 115.125 143 114.9C142.563 114.55 142.113 114.213 141.675 113.863C140.85 113.225 140.013 112.588 139.3 111.838C138.5 111 137.95 110.025 137.788 108.863C137.65 107.913 137.525 106.388 138.575 105.9C138.713 105.838 138.688 105.575 138.525 105.563C137.525 105.413 137.663 103.988 137.738 103.225C137.813 102.475 138.025 101.688 138.763 101.325C138.85 101.275 138.875 101.15 138.825 101.063C138.563 100.613 137.925 100.7 137.688 100.3C137.5 100 137.625 99.3 137.638 98.9375C137.638 98.4375 137.65 97.9375 137.65 97.45C137.663 95.55 137.675 93.6375 137.7 91.7375C137.713 91.475 137.338 91.4625 137.338 91.7125Z" fill="#E8E8E8"/>
<path d="M137.538 91.8125C139.288 91.9 140.513 93.2375 141.563 94.4875C142.063 95.0875 142.588 95.65 143.1 96.2125C143.625 96.775 144.313 97.9125 143.363 98.4625C143.2 98.5625 143.275 98.8125 143.463 98.8125C144.913 98.85 145.55 100.613 146 101.725C146.538 103.075 146.963 104.463 147.275 105.875C147.913 108.775 148.038 111.763 147.675 114.7C147.65 114.938 148.025 114.938 148.05 114.7C148.438 111.425 148.238 108.1 147.425 104.913C147.05 103.413 146.55 101.9 145.875 100.5C145.4 99.5 144.663 98.4625 143.463 98.4375C143.5 98.55 143.525 98.675 143.563 98.7875C145.388 97.7375 143.125 95.7375 142.388 94.875C141.075 93.35 139.75 91.5375 137.55 91.425C137.3 91.425 137.3 91.8 137.538 91.8125Z" fill="#E8E8E8"/>
<path d="M143.813 96.3125C144.688 93.2125 145.913 90.225 147.488 87.4125C147.4 87.4375 147.313 87.4625 147.225 87.475C147.563 87.675 147.913 87.875 148.25 88.075C148.425 88.175 148.588 87.975 148.513 87.8125C147.613 86.0125 150.313 84.8625 151.225 83.7875C151.15 83.8 151.075 83.8125 151 83.8125C151.175 83.9125 151.363 84.0125 151.538 84.1125C151.625 84.1625 151.738 84.1375 151.8 84.05C152.8 82.35 154.563 81.4 156.263 80.525C156.175 80.45 156.075 80.3875 155.988 80.3125C155.45 82.075 156.3 84 156.463 85.7625C156.55 86.7125 156.563 87.675 156.488 88.6375C156.45 89.1125 156.488 89.825 156.3 90.25C156.3 90.5625 156.125 90.7375 155.763 90.8C155.65 90.8125 155.55 90.825 155.438 90.8375C155.188 90.8625 154.925 90.8875 154.675 90.9125C154.575 90.925 154.475 90.9875 154.488 91.1C154.5 91.35 154.575 91.425 154.763 91.5875C155 91.7875 155.188 91.8125 155.3 92.1625C155.363 92.35 155.363 92.5625 155.363 92.75C155.35 93.7625 155.2 94.8 155.025 95.8C154.85 96.775 154.6 97.7375 154.3 98.675C154.038 99.4625 153.688 100.637 152.713 100.762C152.588 100.775 152.463 100.912 152.55 101.05C153.275 102.162 152.2 103.512 151.675 104.475C151.1 105.5 150.575 106.55 150.088 107.612C149.113 109.725 148.313 111.912 147.663 114.15C147.6 114.387 147.963 114.487 148.025 114.25C148.763 111.675 149.725 109.175 150.9 106.775C151.45 105.637 152.113 104.562 152.688 103.437C153.1 102.625 153.425 101.675 152.888 100.85C152.838 100.95 152.775 101.037 152.725 101.137C153.463 101.05 153.938 100.525 154.263 99.8875C154.75 98.9125 155.013 97.7875 155.25 96.725C155.513 95.55 155.688 94.35 155.75 93.15C155.775 92.75 155.813 92.3 155.638 91.925C155.538 91.675 154.9 91.2875 154.888 91.1125C154.825 91.175 154.763 91.2375 154.7 91.3C155.4 91.225 156.4 91.4 156.638 90.6C156.95 89.6 156.938 88.3625 156.925 87.3375C156.925 86.2375 156.813 85.15 156.613 84.075C156.388 82.8625 155.988 81.65 156.363 80.425C156.413 80.2625 156.225 80.1375 156.088 80.2125C154.325 81.125 152.513 82.1125 151.488 83.875C151.575 83.85 151.663 83.825 151.75 83.8125C151.575 83.7125 151.388 83.6125 151.213 83.5125C151.15 83.475 151.038 83.475 150.988 83.5375C149.938 84.775 147.175 85.95 148.213 88.0125C148.3 87.925 148.388 87.8375 148.475 87.75C148.138 87.55 147.788 87.35 147.45 87.15C147.363 87.1 147.238 87.125 147.188 87.2125C145.613 90.0625 144.363 93.075 143.475 96.2C143.375 96.45 143.738 96.55 143.813 96.3125Z" fill="#E8E8E8"/>
<path d="M134.975 83.5375C132.875 83.6875 131.763 81.225 132.113 79.45C132.45 77.7125 134.15 76.4875 135.888 76.5375C138.175 76.5875 139.35 78.825 138.938 80.9125C138.575 82.775 136.7 84.15 134.825 83.4125C134.6 83.325 134.5 83.6875 134.725 83.775C136.225 84.3625 137.975 83.675 138.8 82.3125C139.675 80.8625 139.575 78.7875 138.563 77.4375C137.538 76.0625 135.575 75.875 134.088 76.5375C132.6 77.1875 131.625 78.65 131.663 80.275C131.7 82.05 133.013 84.05 134.963 83.9125C135.213 83.9 135.225 83.525 134.975 83.5375Z" fill="#E8E8E8"/>
<path d="M154.163 56.0749C153.438 57.4249 152.6 58.6999 151.65 59.8999C151.5 60.0874 151.763 60.3499 151.913 60.1624C152.888 58.9374 153.75 57.6374 154.488 56.2624C154.6 56.0499 154.275 55.8624 154.163 56.0749Z" fill="#E8E8E8"/>
<path d="M154.15 56.375C154.6 57.5625 155.075 58.75 155.563 59.925C155.65 60.15 156.013 60.05 155.925 59.825C155.438 58.65 154.962 57.4625 154.512 56.275C154.425 56.05 154.062 56.15 154.15 56.375Z" fill="#E8E8E8"/>
<path d="M154.063 56.55C153.975 61.2 153.375 65.8251 152.263 70.3376C152.2 70.5751 152.563 70.675 152.625 70.4375C153.75 65.8875 154.35 61.2375 154.438 56.55C154.45 56.3 154.075 56.3 154.063 56.55Z" fill="#E8E8E8"/>
<path d="M156.225 64.1875C156.55 66.8625 156.475 69.5625 155.988 72.2125C155.95 72.45 156.3 72.55 156.35 72.3125C156.838 69.625 156.925 66.9 156.6 64.1875C156.563 63.95 156.188 63.95 156.225 64.1875Z" fill="#E8E8E8"/>
<path d="M154.788 69.3875C155.225 70.3875 155.988 71.3 156.038 72.425C156.05 72.6125 156.288 72.6875 156.388 72.525C156.825 71.7625 157.275 71 157.713 70.2375C157.838 70.025 157.513 69.8375 157.388 70.05C156.95 70.8125 156.5 71.575 156.063 72.3375C156.175 72.375 156.3 72.4 156.413 72.4375C156.363 71.225 155.575 70.2875 155.113 69.2125C155.013 68.975 154.688 69.1625 154.788 69.3875Z" fill="#E8E8E8"/>
<path d="M69.5 132.675C77.0375 131.975 84.5875 131.063 92.15 130.75C99.775 130.438 107.438 130.638 115.063 130.838C119.438 130.95 123.813 131.163 128.163 131.575C128.4 131.6 128.4 131.225 128.163 131.2C120.513 130.475 112.838 130.388 105.163 130.3C101.313 130.25 97.4625 130.213 93.625 130.338C89.8875 130.45 86.1625 130.763 82.4375 131.1C78.125 131.5 73.8125 131.9 69.5 132.3C69.2625 132.313 69.2625 132.688 69.5 132.675Z" fill="#E8E8E8"/>
<path d="M108.725 127.15C111.863 127.737 114.963 127.712 118.125 127.425C121.375 127.125 124.613 126.937 127.875 126.787C134.425 126.5 140.975 126.237 147.513 125.962C151.25 125.8 154.988 125.65 158.725 125.487C158.963 125.475 158.963 125.1 158.725 125.112C152.163 125.387 145.613 125.662 139.05 125.937C132.6 126.212 126.113 126.35 119.675 126.9C117.925 127.05 116.175 127.25 114.425 127.275C112.55 127.3 110.675 127.125 108.825 126.775C108.588 126.75 108.488 127.112 108.725 127.15Z" fill="#E8E8E8"/>
<path d="M23.675 124.5C29.5 124.662 35.3251 124.637 41.1501 124.425C41.3876 124.412 41.3876 124.037 41.1501 124.05C35.3251 124.262 29.5 124.287 23.675 124.125C23.425 124.112 23.425 124.487 23.675 124.5Z" fill="#E8E8E8"/>
<path d="M30.0376 129.525C32.1626 129.075 34.4126 129.363 36.5626 129.463C38.7251 129.575 40.8751 129.675 43.0376 129.788C47.4376 130.013 51.8251 130.238 56.2251 130.45C56.4626 130.463 56.4626 130.088 56.2251 130.075C51.7501 129.85 47.2626 129.625 42.7876 129.4C40.5501 129.288 38.3126 129.175 36.0751 129.063C34.0376 128.963 31.9626 128.725 29.9501 129.163C29.7126 129.213 29.8126 129.575 30.0376 129.525Z" fill="#E8E8E8"/>
<path d="M63.7376 120C71.4626 120.525 79.0626 118.525 86.7751 118.55C87.0126 118.55 87.0126 118.175 86.7751 118.175C79.0626 118.15 71.4626 120.138 63.7376 119.625C63.5001 119.6 63.5001 119.988 63.7376 120Z" fill="#E8E8E8"/>
<path d="M57.9501 81.1499C58.0126 80.9374 58.0751 80.7249 58.1751 80.5249C58.2376 80.4374 58.2876 80.3624 58.3501 80.2749C58.6126 80.2499 58.8876 80.2124 59.1501 80.1874C59.2251 80.2374 59.2876 80.3874 59.3376 80.4624C59.5251 80.7249 59.7251 80.9499 60.0126 81.1249C60.5626 81.4499 61.2251 81.5249 61.8126 81.2999C63.3501 80.7374 63.9251 78.6999 65.8001 78.8999C66.3001 78.9499 66.7751 79.1499 67.1376 79.4999C67.4126 79.7624 67.6251 80.0874 67.9126 80.3374C68.4251 80.7624 69.0626 80.8249 69.6751 80.5999C70.4251 80.3374 71.0001 79.7749 71.5626 79.2374C72.3251 78.5249 73.4376 77.6624 74.4501 78.4249C75.1126 78.9124 75.5001 79.6624 76.3251 79.9249C77.1001 80.1749 77.9251 80.0249 78.5751 79.5374C78.7626 79.3999 78.5751 79.0624 78.3876 79.2124C77.4876 79.8874 76.3626 79.7749 75.5751 78.9874C75.0501 78.4749 74.6001 77.8374 73.8251 77.7499C72.0001 77.5249 71.0501 79.7499 69.5001 80.2624C68.3251 80.6499 67.9376 79.5999 67.1626 79.0249C66.5876 78.5999 65.8626 78.4249 65.1501 78.5374C64.4001 78.6499 63.8251 79.0999 63.3001 79.6124C62.6876 80.2249 62.0376 81.0624 61.0876 81.0624C60.4501 81.0624 59.9626 80.7124 59.6126 80.2124C59.4126 79.9374 59.2501 79.7124 58.8876 79.6749C58.1001 79.5999 57.7626 80.4249 57.5751 81.0374C57.5126 81.2749 57.8751 81.3749 57.9501 81.1499Z" fill="#E8E8E8"/>
<path d="M77.2251 74.6875C77.6751 73.375 79.2501 74.4875 79.8501 74.975C80.3751 75.4 80.9876 75.8375 81.7001 75.8125C82.8751 75.7625 83.5001 74.5625 84.4626 74.0625C85.8001 73.375 86.6126 75.1625 87.9126 74.9875C88.4876 74.9125 88.7876 74.45 89.1501 74.05C89.5376 73.625 89.9376 73.625 90.4876 73.75C91.0001 73.875 91.5251 74 92.0376 74.125C92.2751 74.1875 92.3751 73.825 92.1376 73.7625C91.6251 73.6375 91.1001 73.5125 90.5876 73.3875C90.2376 73.3 89.8876 73.2 89.5376 73.3C88.8501 73.5125 88.6501 74.425 87.9626 74.5875C87.2251 74.7625 86.5001 73.9375 85.8626 73.675C85.3251 73.45 84.8001 73.45 84.2876 73.725C83.7376 74.0125 83.3251 74.5 82.8376 74.8875C82.5126 75.15 82.1501 75.3875 81.7251 75.4125C81.0751 75.45 80.5376 75 80.0626 74.625C79.4876 74.175 78.8751 73.6375 78.0876 73.7C77.5251 73.7375 77.0626 74.0375 76.8751 74.575C76.7876 74.8125 77.1501 74.9125 77.2251 74.6875Z" fill="#E8E8E8"/>
<path d="M133.738 38.2125C133.625 40.55 133.55 42.9 133.525 45.25C133.525 45.4875 133.9 45.4875 133.9 45.25C133.925 42.9 134 40.5625 134.113 38.2125C134.125 37.975 133.75 37.975 133.738 38.2125Z" fill="#E8E8E8"/>
<path d="M133.988 38.3875C136.875 37.9875 139.813 37.6 142.688 38.275C142.925 38.325 143.025 37.975 142.788 37.9125C139.85 37.2125 136.838 37.6125 133.888 38.025C133.65 38.05 133.75 38.4125 133.988 38.3875Z" fill="#E8E8E8"/>
<path d="M142.45 38.4C142.513 43.15 142.425 47.9125 142.175 52.6625C142.163 52.9 142.538 52.9 142.55 52.6625C142.8 47.9125 142.888 43.1625 142.825 38.4C142.825 38.1625 142.45 38.1625 142.45 38.4Z" fill="#E8E8E8"/>
<path d="M133.837 51.3875C133.9 51.9875 133.925 52.6125 134.038 53.2C134.1 53.4875 134.2 53.6875 134.45 53.8625C135.238 54.375 136.513 54.075 137.375 54.025C138.6 53.95 139.838 53.875 141.063 53.8C141.613 53.7625 142.487 53.6125 142.15 52.85C142.05 52.625 141.725 52.825 141.825 53.0375C141.888 53.175 141.188 53.4 141.063 53.425C140.863 53.4625 140.65 53.45 140.45 53.4625C140.088 53.4875 139.713 53.5125 139.35 53.525C138.613 53.575 137.875 53.6125 137.138 53.6625C136.463 53.7 135.713 53.8375 135.038 53.6875C134.188 53.4875 134.3 52.1125 134.212 51.4C134.187 51.15 133.812 51.15 133.837 51.3875Z" fill="#E8E8E8"/>
<path d="M131.563 50.925C130.463 52.5375 129.325 54.125 128.175 55.7C128.138 55.75 128.138 55.8375 128.175 55.8875C128.375 56.2 128.713 56.325 129.075 56.2125C129.613 56.05 129.875 55.4375 130.15 55.0125C130.6 54.3125 131.113 53.65 131.663 53.0125C131.9 52.75 132.138 52.4875 132.388 52.2375C132.675 51.95 133.163 51.3375 133.575 51.275C133.813 51.2375 133.713 50.875 133.475 50.9125C133.1 50.975 132.85 51.275 132.575 51.525C132.213 51.8625 131.863 52.2125 131.525 52.5875C130.875 53.3125 130.275 54.0875 129.75 54.9C129.6 55.125 129.475 55.4 129.288 55.6C129.088 55.8875 128.875 55.9125 128.625 55.675C128.7 55.575 128.775 55.475 128.838 55.375C129.175 54.9125 129.513 54.45 129.838 53.9875C130.525 53.025 131.2 52.0625 131.863 51.0875C132.025 50.9125 131.7 50.725 131.563 50.925Z" fill="#E8E8E8"/>
<path d="M133.513 51.3875C135.063 51.425 136.55 50.4875 137.163 49.0625C137.713 47.775 137.413 46.1 136.25 45.25C134.913 44.2875 133.2 45.0125 132.163 46.0625C131.55 46.6875 131.038 47.475 130.913 48.35C130.863 48.7 130.875 49.05 130.963 49.3875C131.013 49.5875 131.088 49.775 131.188 49.95C131.213 50 131.788 50.8125 131.538 50.8C131.3 50.775 131.3 51.15 131.538 51.175C131.925 51.2125 132.125 50.8625 132.013 50.5125C131.925 50.225 131.65 50.025 131.5 49.7625C131.275 49.35 131.225 48.875 131.288 48.4125C131.5 46.8125 133.2 45.1375 134.85 45.1625C136.475 45.175 137.325 46.9875 136.988 48.4125C136.613 49.9625 135.088 51.05 133.513 51C133.263 51.0125 133.263 51.3875 133.513 51.3875Z" fill="#E8E8E8"/>
<path d="M135.288 39.7125L135.275 39.7C135.275 39.7875 135.275 39.875 135.275 39.9625C135.438 39.775 136.563 39.7875 136.863 39.75C137.338 39.7 137.825 39.6625 138.3 39.6375C138.775 39.6125 139.263 39.5875 139.75 39.575C139.963 39.575 141.075 39.6749 141.15 39.4749C141.063 39.6999 141.425 39.8 141.513 39.575C141.525 39.55 141.525 39.5375 141.538 39.5125C141.563 39.45 141.538 39.375 141.488 39.325C141.213 39.05 140.713 39.175 140.35 39.175C139.663 39.175 138.988 39.2 138.3 39.25C137.663 39.2875 137.025 39.3499 136.375 39.4124C136.05 39.4499 135.238 39.4 135 39.675C134.938 39.75 134.925 39.8625 135 39.9375L135.013 39.95C135.2 40.15 135.463 39.875 135.288 39.7125Z" fill="#E8E8E8"/>
<path d="M135.113 41.5374C136.375 41.7124 137.6 41.6624 138.863 41.6124C139.1 41.5999 139.1 41.2249 138.863 41.2374C137.625 41.2874 136.438 41.3374 135.213 41.1749C134.975 41.1499 134.875 41.5124 135.113 41.5374Z" fill="#E8E8E8"/>
<path d="M134.263 42.95C134.225 42.9875 134.188 43.0375 134.15 43.075C134.038 43.2 134.113 43.3875 134.288 43.4C136.463 43.4375 138.638 43.3375 140.8 43.1C141.038 43.075 141.038 42.7 140.8 42.725C138.638 42.9625 136.463 43.0625 134.288 43.025C134.338 43.1375 134.375 43.2375 134.425 43.35C134.463 43.3125 134.5 43.2625 134.538 43.225C134.688 43.0375 134.425 42.775 134.263 42.95Z" fill="#E8E8E8"/>
<path d="M136.95 45C138.088 45.0875 139.225 45.0375 140.35 44.85C140.588 44.8125 140.488 44.45 140.25 44.4875C139.15 44.6625 138.05 44.7125 136.95 44.625C136.7 44.6125 136.7 44.9875 136.95 45Z" fill="#E8E8E8"/>
<path d="M133.9 50.0625C132.888 50.1125 132.025 49.225 132.35 48.2C132.6 47.3875 133.538 46.525 134.388 46.3875C134.8 46.325 135.25 46.425 135.563 46.7125C136.025 47.1375 135.9 47.7625 135.688 48.275C135.325 49.175 134.663 49.9875 133.65 50.1C133.413 50.125 133.413 50.5 133.65 50.475C134.95 50.3375 135.875 49.225 136.188 48C136.488 46.85 135.638 45.9 134.45 46C133.35 46.1 132.138 47.2125 131.938 48.3C131.725 49.5125 132.713 50.5 133.9 50.4375C134.138 50.425 134.138 50.05 133.9 50.0625Z" fill="#E8E8E8"/>
<path d="M134.113 46.5499C133.613 47.6249 133.15 48.7124 132.738 49.8124C132.65 50.0374 133.013 50.1374 133.1 49.9124C133.513 48.8374 133.95 47.7749 134.438 46.7374C134.538 46.5124 134.225 46.3249 134.113 46.5499Z" fill="#E8E8E8"/>
<path d="M134.688 47.625C134.363 48.3 134.05 48.975 133.725 49.65C133.625 49.8625 133.95 50.0625 134.05 49.8375C134.375 49.1625 134.688 48.4875 135.013 47.8125C135.113 47.6 134.8 47.4 134.688 47.625Z" fill="#E8E8E8"/>
<path d="M41.7626 27.2124C41.7626 28.3499 41.7626 29.4999 41.7626 30.6374C41.7626 30.8749 42.1376 30.8749 42.1376 30.6374C42.1376 29.4999 42.1376 28.3499 42.1376 27.2124C42.1376 26.9749 41.7626 26.9749 41.7626 27.2124Z" fill="#E8E8E8"/>
<path d="M42 30.7999C43.0625 30.7999 44.1125 30.7999 45.175 30.7999C45.4125 30.7999 45.4125 30.4249 45.175 30.4249C44.1125 30.4249 43.0625 30.4249 42 30.4249C41.7625 30.4249 41.7625 30.7999 42 30.7999Z" fill="#E8E8E8"/>
<path d="M45.4 30.4C45.4 29.1625 45.4 27.9125 45.4 26.675C45.4 26.4375 45.025 26.4375 45.025 26.675C45.025 27.9125 45.025 29.1625 45.025 30.4C45.025 30.6375 45.4 30.6375 45.4 30.4Z" fill="#E8E8E8"/>
<path d="M45.2626 26.4375C44.1751 26.4375 43.0876 26.4375 42.0126 26.4375C41.7751 26.4375 41.7751 26.8125 42.0126 26.8125C43.1001 26.8125 44.1876 26.8125 45.2626 26.8125C45.5001 26.8125 45.5001 26.4375 45.2626 26.4375Z" fill="#E8E8E8"/>
<path d="M43.3501 31C43.3501 32.275 43.3501 33.5375 43.3501 34.8125C43.3501 35.05 43.7251 35.05 43.7251 34.8125C43.7251 33.5375 43.7251 32.275 43.7251 31C43.7251 30.7625 43.3501 30.7625 43.3501 31Z" fill="#E8E8E8"/>
<path d="M38.9501 34.7625C40.3376 33.4375 41.7876 32.1625 43.2876 30.95C43.4751 30.8 43.2126 30.5375 43.0251 30.6875C41.5251 31.9 40.0876 33.1625 38.6876 34.5C38.5126 34.6625 38.7751 34.925 38.9501 34.7625Z" fill="#E8E8E8"/>
<path d="M43.75 31.075C45.25 32.2125 46.75 33.35 48.25 34.4875C48.4375 34.6375 48.625 34.3125 48.4375 34.1625C46.9375 33.025 45.4375 31.8875 43.9375 30.75C43.75 30.6 43.5625 30.925 43.75 31.075Z" fill="#E8E8E8"/>
<path d="M37.5 35.2125C38.325 35.2125 39.15 35.2125 39.9875 35.2125C40.225 35.2125 40.225 34.8375 39.9875 34.8375C39.1625 34.8375 38.3375 34.8375 37.5 34.8375C37.2625 34.8375 37.2625 35.2125 37.5 35.2125Z" fill="#E8E8E8"/>
<path d="M39.7626 35.2875C39.7626 36.225 39.7626 37.175 39.7626 38.1125C39.7626 38.35 40.1376 38.35 40.1376 38.1125C40.1376 37.175 40.1376 36.225 40.1376 35.2875C40.1376 35.0375 39.7626 35.0375 39.7626 35.2875Z" fill="#E8E8E8"/>
<path d="M37.2251 35.1124C37.2251 36.2124 37.2251 37.3124 37.2251 38.4124C37.2251 38.6499 37.6001 38.6499 37.6001 38.4124C37.6001 37.3124 37.6001 36.2124 37.6001 35.1124C37.6001 34.8624 37.2251 34.8624 37.2251 35.1124Z" fill="#E8E8E8"/>
<path d="M37.375 38.6375C38.15 38.6375 38.9125 38.6375 39.6875 38.6375C39.925 38.6375 39.925 38.2625 39.6875 38.2625C38.9125 38.2625 38.15 38.2625 37.375 38.2625C37.1375 38.2625 37.1375 38.6375 37.375 38.6375Z" fill="#E8E8E8"/>
<path d="M42.2001 35.2C42.2001 36.2875 42.2001 37.375 42.2001 38.45C42.2001 38.6875 42.5751 38.6875 42.5751 38.45C42.5751 37.3625 42.5751 36.275 42.5751 35.2C42.5751 34.95 42.2001 34.95 42.2001 35.2Z" fill="#E8E8E8"/>
<path d="M42.3876 38.5499C43.1501 38.5499 43.9001 38.5499 44.6626 38.5499C44.9001 38.5499 44.9001 38.1749 44.6626 38.1749C43.9001 38.1749 43.1501 38.1749 42.3876 38.1749C42.1501 38.1749 42.1501 38.5499 42.3876 38.5499Z" fill="#E8E8E8"/>
<path d="M42.5126 35.3875C43.1876 35.3875 43.8501 35.3875 44.5251 35.3875C44.7626 35.3875 44.7626 35.0125 44.5251 35.0125C43.8501 35.0125 43.1876 35.0125 42.5126 35.0125C42.2751 35.0125 42.2751 35.3875 42.5126 35.3875Z" fill="#E8E8E8"/>
<path d="M44.3876 35.1499C44.3876 36.1749 44.3876 37.1999 44.3876 38.2374C44.3876 38.4749 44.7626 38.4749 44.7626 38.2374C44.7626 37.2124 44.7626 36.1874 44.7626 35.1499C44.7626 34.9124 44.3876 34.9124 44.3876 35.1499Z" fill="#E8E8E8"/>
<path d="M47.5 35.1499C47.4625 35.9624 47.4375 36.7749 47.4375 37.5874C47.4375 37.8249 47.8125 37.8249 47.8125 37.5874C47.8125 36.7749 47.8375 35.9624 47.875 35.1499C47.8875 34.9124 47.5125 34.9124 47.5 35.1499Z" fill="#E8E8E8"/>
<path d="M47.6626 35.2375C48.4876 35.15 49.3126 35.05 50.1376 34.9625C50.3751 34.9375 50.3751 34.5625 50.1376 34.5875C49.3126 34.675 48.4876 34.775 47.6626 34.8625C47.4251 34.8875 47.4126 35.2625 47.6626 35.2375Z" fill="#E8E8E8"/>
<path d="M50.0125 34.85C49.925 35.6875 49.95 36.5125 50.1 37.3375C50.1375 37.575 50.5 37.475 50.4625 37.2375C50.325 36.4375 50.3 35.65 50.3875 34.85C50.4125 34.6125 50.0375 34.6125 50.0125 34.85Z" fill="#E8E8E8"/>
<path d="M47.7876 37.9125C48.6126 37.7875 49.4376 37.6625 50.2626 37.5375C50.5001 37.5 50.4001 37.1375 50.1626 37.175C49.3376 37.3 48.5126 37.425 47.6876 37.55C47.4501 37.5875 47.5501 37.9375 47.7876 37.9125Z" fill="#E8E8E8"/>
<path d="M43.3 38.6625C42.8375 39.3625 42.4375 40.1 42.075 40.85C41.975 41.0625 42.3 41.2625 42.4 41.0375C42.7625 40.275 43.175 39.55 43.625 38.85C43.75 38.65 43.425 38.4625 43.3 38.6625Z" fill="#E8E8E8"/>
<path d="M43.4125 38.8124C43.875 39.4374 44.275 40.0874 44.6125 40.7749C44.725 40.9874 45.05 40.7999 44.9375 40.5874C44.5875 39.8999 44.1875 39.2374 43.7375 38.6249C43.6 38.4249 43.275 38.6124 43.4125 38.8124Z" fill="#E8E8E8"/>
<path d="M41.4 41.3375C41.6625 41.3375 41.925 41.3375 42.2 41.35C42.325 41.35 42.4375 41.3625 42.5625 41.375C42.7875 41.3875 42.7625 41.3125 42.8 41.5125C42.8875 41.9875 42.7875 42.6 42.75 43.0875C42.725 43.325 43.1 43.325 43.125 43.0875C43.15 42.7125 43.175 42.325 43.175 41.95C43.175 41.7375 43.2375 41.3875 43.125 41.1875C43.0125 41 42.75 41.025 42.5625 41.0125C42.175 40.9875 41.7875 40.975 41.4 40.975C41.1625 40.9625 41.1625 41.3375 41.4 41.3375Z" fill="#E8E8E8"/>
<path d="M41.15 41.3249C41.1875 41.7624 41.225 42.1874 41.2625 42.6249C41.2875 42.9749 41.2375 43.4874 41.375 43.8249C41.425 43.9624 41.4875 44.0124 41.625 44.0374C41.95 44.0999 42.4375 43.9374 42.7625 43.8874C43 43.8499 42.9 43.4999 42.6625 43.5249C42.4375 43.5499 42.0875 43.6874 41.875 43.6374C41.6375 43.5749 41.6875 43.2499 41.675 42.9999C41.625 42.4374 41.575 41.8874 41.525 41.3249C41.5 41.0874 41.125 41.0749 41.15 41.3249Z" fill="#E8E8E8"/>
<path d="M43.975 41.2749C43.95 41.6374 43.9376 42.0124 43.9501 42.3749C43.9501 42.4624 44.0626 43.2874 44.0251 43.3124C44.0876 43.2999 44.1501 43.2749 44.2126 43.2624C44.2001 43.2624 44.1875 43.2499 44.1625 43.2499C44.2125 43.3124 44.25 43.3749 44.3 43.4249C44.3 43.4124 44.3 43.3999 44.3 43.3749C44.25 43.4374 44.2125 43.4999 44.1625 43.5499C44.175 43.5499 44.1876 43.5499 44.2001 43.5374C44.4376 43.4874 44.3375 43.1249 44.1 43.1749C44.0875 43.1749 44.075 43.1749 44.0625 43.1874C43.975 43.1999 43.925 43.2874 43.925 43.3624C43.925 43.3749 43.925 43.3874 43.925 43.4124C43.925 43.4874 43.9875 43.5749 44.0625 43.5874C44.3875 43.6499 44.3875 43.3499 44.375 43.1124C44.325 42.4874 44.3 41.8749 44.35 41.2374C44.3625 41.0249 43.9875 41.0374 43.975 41.2749Z" fill="#E8E8E8"/>
<path d="M44.2001 41.3625C44.2001 41.275 45.0001 41.25 45.1126 41.2625C45.4251 41.3125 45.3626 41.3375 45.4126 41.5625C45.4501 41.7125 45.4001 41.925 45.3876 42.075C45.3751 42.3875 45.3751 42.6875 45.3876 43C45.3876 43.175 45.5126 43.7 45.4251 43.825C45.5126 43.8 45.6001 43.775 45.6876 43.7625C45.6751 43.7625 45.6626 43.75 45.6501 43.75C45.6751 43.825 45.7126 43.8875 45.7376 43.9625C45.7376 43.95 45.7501 43.9375 45.7501 43.925C45.8126 43.6875 45.4501 43.5875 45.3876 43.825C45.3876 43.8375 45.3751 43.85 45.3751 43.8625C45.3501 43.9375 45.3876 44.0375 45.4626 44.075C45.4751 44.075 45.4876 44.0875 45.5001 44.0875C45.6001 44.125 45.7001 44.1125 45.7626 44.025C45.8501 43.9 45.8126 43.775 45.8001 43.625C45.7876 43.2875 45.7626 42.9375 45.7626 42.6C45.7626 42.2625 45.7751 41.9125 45.7876 41.575C45.8001 41.425 45.8376 41.225 45.7376 41.0875C45.5251 40.8 44.8501 40.8875 44.5751 40.925C44.2626 40.9625 43.8501 41 43.8251 41.375C43.8251 41.6 44.2001 41.6 44.2001 41.3625Z" fill="#E8E8E8"/>
<path d="M44.2375 43.9C44.6125 43.875 44.9875 43.9125 45.35 44C45.5875 44.0625 45.6876 43.7 45.4501 43.6375C45.0501 43.525 44.65 43.4875 44.2375 43.5125C43.9875 43.5375 43.9875 43.9125 44.2375 43.9Z" fill="#E8E8E8"/>
<path d="M48.9376 37.9874C48.6376 38.6499 48.3751 39.3374 48.1376 40.0249C48.0626 40.2499 48.4251 40.3499 48.5001 40.1249C48.7251 39.4624 48.9751 38.8124 49.2626 38.1749C49.3626 37.9499 49.0376 37.7624 48.9376 37.9874Z" fill="#E8E8E8"/>
<path d="M47.0251 40.9499C47.6501 40.7749 48.2876 40.6874 48.9501 40.7124C49.1876 40.7249 49.1876 40.3499 48.9501 40.3374C48.2626 40.3124 47.5876 40.3999 46.9251 40.5874C46.6876 40.6499 46.7876 41.0124 47.0251 40.9499Z" fill="#E8E8E8"/>
<path d="M47.0126 40.775C46.9001 41.125 46.9876 41.45 47.0251 41.8C47.0626 42.225 47.0626 42.6375 47.0501 43.0625C47.0251 43.6125 47.1626 43.675 47.7126 43.625C48.0876 43.5875 48.6001 43.6875 48.7376 43.275C48.8626 42.875 48.8251 42.3375 48.8626 41.9125C48.9001 41.4625 48.9501 41 48.9876 40.55C49.0126 40.3125 48.6376 40.3125 48.6126 40.55C48.5626 41.075 48.5126 41.6125 48.4626 42.1375C48.4376 42.35 48.4501 42.6125 48.4001 42.825C48.3251 43.175 48.2876 43.2 47.9251 43.2375C47.8126 43.25 47.7126 43.2625 47.6001 43.275C47.3876 43.35 47.3251 43.2875 47.4126 43.075C47.3626 42.9 47.4376 42.625 47.4251 42.4375C47.4126 41.9625 47.2251 41.325 47.3626 40.875C47.4501 40.6375 47.0876 40.5375 47.0126 40.775Z" fill="#E8E8E8"/>
<path d="M49.4625 38.3375C49.75 38.775 50 39.2375 50.2375 39.7125C50.3375 39.925 50.6625 39.7375 50.5625 39.525C50.3375 39.05 50.075 38.6 49.7875 38.15C49.65 37.9375 49.325 38.125 49.4625 38.3375Z" fill="#E8E8E8"/>
<path d="M49.8876 40.2625C50.5126 40.2625 51.1376 40.2625 51.7626 40.2625C52.0001 40.2625 52.0001 39.8875 51.7626 39.8875C51.7251 39.8875 51.6876 39.8875 51.6501 39.8875C51.4126 39.8875 51.4126 40.2625 51.6501 40.2625C51.6876 40.2625 51.7251 40.2625 51.7626 40.2625C52.0001 40.2625 52.0001 39.8875 51.7626 39.8875C51.1376 39.8875 50.5126 39.8875 49.8876 39.8875C49.6376 39.8875 49.6376 40.2625 49.8876 40.2625Z" fill="#E8E8E8"/>
<path d="M49.7 40.25C49.75 40.725 49.7875 41.2 49.8 41.675C49.8125 42.0125 49.7 42.5875 49.85 42.9C49.9375 43.0875 50.05 43.1125 50.25 43.1125C50.7125 43.1 51.2125 42.9875 51.675 42.925C51.75 42.9125 51.8125 42.8125 51.8125 42.75C51.8 41.9 51.7875 41.0625 51.775 40.2125C51.775 39.975 51.4 39.975 51.4 40.2125C51.4125 41.0625 51.425 41.9 51.4375 42.75C51.4875 42.6875 51.525 42.625 51.575 42.575C51.275 42.6125 50.975 42.65 50.675 42.7C50.575 42.7125 50.2875 42.8 50.2 42.725C50.1375 42.675 50.2 42.2875 50.2 42.2125C50.1875 41.5625 50.15 40.9125 50.0875 40.275C50.05 40.0125 49.675 40.0125 49.7 40.25Z" fill="#E8E8E8"/>
<path d="M35.8251 41.275C36.4751 40.675 37.1376 40.1125 37.8501 39.6C38.0376 39.4625 37.8501 39.1375 37.6626 39.275C36.9251 39.8125 36.2251 40.3875 35.5626 41.0125C35.3876 41.175 35.6501 41.4375 35.8251 41.275Z" fill="#E8E8E8"/>
<path d="M37.7376 39.4374C38.1126 39.9749 38.4251 40.5374 38.6751 41.1249C38.7751 41.3499 39.1001 41.1499 39.0001 40.9374C38.7376 40.3374 38.4251 39.7749 38.0626 39.2499C37.9251 39.0499 37.6001 39.2374 37.7376 39.4374Z" fill="#E8E8E8"/>
<path d="M34.1626 41.9625C34.5001 41.9375 34.8251 41.9125 35.1626 41.8875C35.3126 41.875 35.4751 41.8375 35.6126 41.85C35.7876 41.7875 35.8376 41.8 35.7626 41.9C35.7126 41.975 35.6876 42.05 35.7001 42.1375C35.5626 42.75 35.5376 43.4 35.5126 44.025C35.6251 43.975 35.7251 43.9375 35.8376 43.8875C35.8251 43.875 35.8126 43.8625 35.8001 43.8375C35.6376 43.6625 35.3751 43.925 35.5376 44.1C35.5501 44.1125 35.5626 44.125 35.5751 44.15C35.6876 44.275 35.8876 44.175 35.9001 44.0125C35.9126 43.475 35.9626 42.9375 36.0376 42.4125C36.0751 42.1875 36.2376 41.8125 36.1001 41.5875C35.9876 41.4125 35.8001 41.45 35.6251 41.4625C35.1376 41.5 34.6626 41.5375 34.1751 41.575C33.9251 41.6125 33.9251 41.9875 34.1626 41.9625Z" fill="#E8E8E8"/>
<path d="M34.4125 41.6C34.4 41.6 34.3875 41.6 34.3625 41.6C34.3 41.6 34.2375 41.6375 34.2 41.6875C34 42.025 34.0125 42.6125 33.95 43C33.8625 43.55 33.775 44.1 33.6875 44.65C33.675 44.75 33.7125 44.8625 33.8125 44.875C34.4 45 34.95 44.975 35.5125 44.7625C35.7375 44.675 35.6375 44.3125 35.4125 44.4C34.9125 44.5875 34.4375 44.625 33.9125 44.5125C33.95 44.5875 34 44.6625 34.0375 44.7375C34.075 44.4875 34.5125 41.975 34.3875 41.9625C34.65 42 34.65 41.625 34.4125 41.6Z" fill="#E8E8E8"/>
<path d="M37.8126 41.5375L37.8001 41.55C37.8876 41.55 37.9751 41.55 38.0626 41.55C38.0501 41.55 38.0501 41.5375 38.0376 41.5375C38.0376 41.625 38.0376 41.7125 38.0376 41.8C38.0501 41.7875 38.2751 41.7875 38.3251 41.7875C38.4626 41.775 38.6126 41.7625 38.7501 41.7625C39.0126 41.75 39.2751 41.7625 39.5376 41.7875C39.4876 41.675 39.4501 41.575 39.4001 41.4625C39.3751 41.475 39.3501 41.5 39.3376 41.5125C39.1001 41.5375 39.1001 41.9125 39.3376 41.8875C39.4751 41.875 39.5751 41.8375 39.6751 41.725C39.7876 41.6 39.7126 41.4125 39.5376 41.4C39.1751 41.375 38.8126 41.3625 38.4501 41.3875C38.2751 41.4 37.9126 41.3625 37.7876 41.525C37.7251 41.6 37.7001 41.725 37.7876 41.7875C37.8001 41.7875 37.8001 41.8 37.8126 41.8C37.8876 41.8625 38.0126 41.8875 38.0751 41.8L38.0876 41.7875C38.2376 41.625 37.9751 41.3625 37.8126 41.5375Z" fill="#E8E8E8"/>
<path d="M37.6626 41.625C37.6251 42.1375 37.5876 42.65 37.5626 43.1625C37.5501 43.45 37.3876 44.1875 37.5626 44.45C37.6501 44.575 37.7376 44.625 37.9001 44.6125C38.0626 44.6125 38.2376 44.5 38.3876 44.4625C38.6876 44.375 39.0001 44.35 39.3126 44.35C39.5501 44.35 39.5501 43.975 39.3126 43.975C39.0376 43.975 38.7626 44 38.4876 44.0625C38.3626 44.0875 38.1251 44.225 38.0126 44.2C37.9251 44.2625 37.8876 44.25 37.9126 44.15C37.9001 44.05 37.9001 43.95 37.9126 43.8375C37.9251 43.1125 37.9876 42.375 38.0376 41.65C38.0626 41.375 37.6876 41.375 37.6626 41.625Z" fill="#E8E8E8"/>
<path d="M39.275 41.6625C39.175 42.5 39.125 43.3375 39.1375 44.1875C39.1375 44.425 39.5125 44.425 39.5125 44.1875C39.5 43.3375 39.55 42.5 39.65 41.6625C39.6875 41.425 39.3125 41.425 39.275 41.6625Z" fill="#E8E8E8"/>
<path d="M139.125 94.0999C142.075 100.587 144.138 107.437 145.275 114.475C145.313 114.712 145.675 114.612 145.638 114.375C144.488 107.312 142.413 100.425 139.45 93.9124C139.35 93.6999 139.025 93.8874 139.125 94.0999Z" fill="#E8E8E8"/>
<path d="M154.688 83.1249C151.038 88.6999 147.863 94.5749 145.613 100.862C145.525 101.087 145.888 101.187 145.975 100.962C148.213 94.6999 151.375 88.8624 155.013 83.3124C155.138 83.1124 154.813 82.9249 154.688 83.1249Z" fill="#E8E8E8"/>
<path d="M137.85 100.95C139.875 101.5 141.613 102.75 142.775 104.5C142.913 104.7 143.238 104.513 143.1 104.313C141.888 102.488 140.075 101.163 137.95 100.588C137.713 100.525 137.613 100.888 137.85 100.95Z" fill="#E8E8E8"/>
<path d="M142.725 95.7625C142.037 96.9 141.575 98.1375 141.387 99.4625C141.35 99.7 141.712 99.8 141.75 99.5625C141.937 98.275 142.375 97.0625 143.05 95.95C143.175 95.75 142.85 95.5625 142.725 95.7625Z" fill="#E8E8E8"/>
<path d="M146.613 88.7375C147.225 89.4125 147.65 90.1875 147.975 91.025C148.125 91.4 148.25 91.7875 148.363 92.1625C148.475 92.525 148.738 93.0625 148.588 93.425C148.5 93.65 148.863 93.75 148.95 93.525C149.1 93.1625 148.95 92.8 148.838 92.45C148.688 91.9375 148.525 91.425 148.325 90.925C147.975 90.025 147.513 89.1875 146.863 88.4625C146.713 88.2875 146.45 88.55 146.613 88.7375Z" fill="#E8E8E8"/>
<path d="M150.85 90.1749C152.413 88.3749 154.438 87.0999 156.738 86.4749C156.975 86.4124 156.875 86.0499 156.638 86.1124C154.288 86.7499 152.188 88.0624 150.588 89.8999C150.438 90.0874 150.7 90.3624 150.85 90.1749Z" fill="#E8E8E8"/>
<path d="M146.437 100.212C147.562 99.2124 148.887 98.5124 150.287 97.9874C150.925 97.7499 151.562 97.5624 152.212 97.3749C152.575 97.2749 152.925 97.1874 153.287 97.0874C153.462 97.0499 154.2 96.7499 154.337 96.8249C154.312 96.7374 154.287 96.6499 154.275 96.5624C154.262 96.5749 154.262 96.5874 154.25 96.5999C154.337 96.5749 154.425 96.5499 154.512 96.5374C154.5 96.5374 154.487 96.5249 154.475 96.5249C154.262 96.4124 154.075 96.7374 154.287 96.8499C154.3 96.8499 154.312 96.8624 154.325 96.8624C154.412 96.9124 154.525 96.8874 154.587 96.7999C154.6 96.7874 154.6 96.7749 154.612 96.7624C154.662 96.6749 154.637 96.5624 154.55 96.4999C154.375 96.3999 154.187 96.4874 154 96.5249C153.575 96.6249 153.15 96.7249 152.725 96.8374C151.912 97.0499 151.1 97.2874 150.3 97.5624C148.8 98.0999 147.375 98.8374 146.187 99.9124C146 100.1 146.262 100.375 146.437 100.212Z" fill="#E8E8E8"/>
<path d="M140.062 115.637C142.9 116.325 145.787 115.812 148.625 115.475C151.7 115.112 154.787 115.05 157.875 115C158.112 115 158.112 114.625 157.875 114.625C154.862 114.675 151.85 114.737 148.862 115.075C145.975 115.412 143.038 115.975 140.163 115.275C139.938 115.213 139.837 115.575 140.062 115.637Z" fill="#E8E8E8"/>
<path d="M149.013 114.575C154.063 114.312 159.113 114.037 164.163 113.775C164.4 113.762 164.4 113.387 164.163 113.4C159.113 113.662 154.063 113.937 149.013 114.2C148.775 114.212 148.775 114.587 149.013 114.575Z" fill="#E8E8E8"/>
<path d="M134.55 78.4875C133.312 78.725 131.8 77.5375 131.837 76.225C131.887 74.7375 133.75 74.2375 134.937 74.225C136.25 74.225 137.175 75.2375 136.862 76.5625C136.725 77.1375 136.362 77.6125 135.912 77.975C135.65 78.1875 134.588 78.9625 134.288 78.5875C134.138 78.4 133.875 78.6625 134.025 78.85C134.425 79.35 135.25 78.8375 135.675 78.6C136.325 78.2125 136.912 77.625 137.162 76.9C137.662 75.4375 136.775 73.975 135.237 73.8625C133.775 73.75 131.513 74.425 131.475 76.225C131.45 77.8 133.175 79.125 134.663 78.85C134.888 78.8125 134.787 78.45 134.55 78.4875Z" fill="#E8E8E8"/>
<path d="M38.6 84.375C38.1375 84.9 37.7375 85.475 37.4 86.1C37.2875 86.3125 37.6125 86.5 37.725 86.2875C38.05 85.7 38.425 85.15 38.875 84.6375C39.025 84.4625 38.7625 84.1875 38.6 84.375Z" fill="#161616"/>
<path d="M38.5876 84.525C38.9626 85.05 39.3376 85.5625 39.7126 86.0875C39.8501 86.2875 40.1751 86.1 40.0376 85.9C39.6626 85.375 39.2876 84.8625 38.9126 84.3375C38.7626 84.1375 38.4376 84.325 38.5876 84.525Z" fill="#161616"/>
<path d="M38.5626 85.2624C38.6751 89.6749 38.7751 94.0874 38.8876 98.5124C38.8876 98.7499 39.2626 98.7499 39.2626 98.5124C39.1501 94.0999 39.0501 89.6874 38.9376 85.2624C38.9251 85.0249 38.5501 85.0124 38.5626 85.2624Z" fill="#161616"/>
<path d="M39.3001 98.8625C44.8501 98.8625 50.4001 98.8625 55.9501 98.8625C56.1876 98.8625 56.1876 98.4875 55.9501 98.4875C50.4001 98.4875 44.8501 98.4875 39.3001 98.4875C39.0626 98.4875 39.0626 98.8625 39.3001 98.8625Z" fill="#161616"/>
<path d="M55.225 98.4875C55.6125 98.6375 55.9875 98.7875 56.375 98.9375C56.325 98.8 56.2625 98.6625 56.2125 98.525C56.025 98.8625 55.7625 99.125 55.4375 99.325C55.125 99.5125 55.4125 100 55.725 99.8125C56.1375 99.575 56.475 99.225 56.7125 98.8125C56.8125 98.6375 56.7125 98.4625 56.55 98.4C56.1625 98.25 55.7875 98.1 55.4 97.95C55.0375 97.8125 54.8875 98.35 55.225 98.4875Z" fill="#161616"/>
<path d="M151.225 30.975C150.725 30.3125 151.437 29.3 152.212 29.8C152.562 30.025 152.725 30.4875 152.475 30.85C152.25 31.175 151.787 31.3125 151.437 31.1375C151.225 31.025 151.037 31.35 151.25 31.4625C151.762 31.7125 152.387 31.5625 152.75 31.1125C153.137 30.625 153 29.9375 152.525 29.5625C152.062 29.2 151.412 29.2 151.012 29.65C150.65 30.0625 150.587 30.725 150.925 31.175C151.037 31.35 151.363 31.1625 151.225 30.975Z" fill="#3E3E3E"/>
<path d="M161.625 78.5124C161.6 77.9249 162.037 77.5249 162.612 77.5249C162.85 77.5249 163.037 77.5874 163.262 77.4874C163.687 77.2999 163.85 76.8124 163.987 76.3999C164.187 75.7999 164.337 75.5124 165.087 75.6999C165.287 75.7499 165.412 75.8499 165.625 75.7749C166.25 75.5374 165.875 74.4624 166.825 74.6374C167.062 74.6874 167.162 74.3249 166.925 74.2749C166.625 74.2124 166.337 74.2374 166.075 74.4249C165.837 74.5999 165.812 74.8124 165.675 75.0374C165.662 75.2749 165.5 75.3749 165.2 75.3374C165.137 75.2999 165.062 75.2624 165 75.2374C164.862 75.2249 164.787 75.1499 164.637 75.1624C164.362 75.1749 164.15 75.3499 163.987 75.5499C163.75 75.8374 163.687 76.1874 163.55 76.5374C163.412 76.8874 163.275 77.1374 162.85 77.1749C162.662 77.1874 162.487 77.1249 162.3 77.1499C161.637 77.2499 161.212 77.8624 161.237 78.5124C161.262 78.7624 161.637 78.7624 161.625 78.5124Z" fill="#3E3E3E"/>
<path d="M43.0376 98.15C44.8001 94.6125 45.0751 90.625 46.1126 86.8625C46.3751 85.9 46.6376 84.775 47.3626 84.05C48.4251 82.9875 49.7751 83.7375 50.2126 84.9875C50.5376 85.9375 50.5501 87.0375 50.6126 88.0375C50.6751 89.1125 50.7251 90.1875 50.7876 91.2625C50.9251 93.5625 51.1626 95.875 51.9376 98.0625C52.0126 98.2875 52.3751 98.1875 52.3001 97.9625C51.4876 95.6625 51.2626 93.225 51.1376 90.8C51.0751 89.6125 51.0251 88.4125 50.9376 87.225C50.8626 86.275 50.8251 85.2375 50.3751 84.375C50.0251 83.7 49.3501 83.15 48.5626 83.15C47.7501 83.15 47.0751 83.7125 46.6626 84.3625C46.1251 85.225 45.8751 86.3125 45.6251 87.2875C45.3501 88.375 45.1251 89.475 44.9001 90.575C44.4001 93.1 43.8876 95.6375 42.7251 97.9625C42.6001 98.175 42.9251 98.3625 43.0376 98.15Z" fill="#3E3E3E"/>
<path d="M44.7501 82.65C44.5001 82.2875 45.0126 81.8 45.3126 82.2C45.6001 82.575 45.0626 82.95 44.7626 82.6625C44.5876 82.5 44.3251 82.7625 44.5001 82.925C44.7626 83.175 45.1876 83.2 45.4876 82.9875C45.8251 82.75 45.8626 82.3 45.6126 81.975C45.3626 81.65 44.9001 81.5625 44.5876 81.8375C44.3126 82.0875 44.2251 82.525 44.4376 82.8375C44.5626 83.0375 44.8876 82.85 44.7501 82.65Z" fill="#3E3E3E"/>
<path d="M47.5125 80.9875C47.3125 80.7 47.75 80.4375 47.9375 80.7375C48.1375 81.0625 47.575 81.425 47.3875 81.0625C47.275 80.85 46.9625 81.0375 47.0625 81.25C47.225 81.5875 47.6625 81.675 47.975 81.4875C48.3 81.3 48.45 80.875 48.25 80.5375C48.075 80.25 47.6625 80.1 47.3625 80.2875C47.075 80.475 46.975 80.875 47.1625 81.1625C47.325 81.375 47.65 81.1875 47.5125 80.9875Z" fill="#3E3E3E"/>
<path d="M46.4251 78.2375C46.3251 77.95 46.6376 77.65 46.8876 77.8875C47.1376 78.125 46.8501 78.4625 46.5626 78.3625C46.3376 78.2875 46.2376 78.65 46.4626 78.725C47.1126 78.9375 47.6626 78.1125 47.1501 77.625C46.9251 77.4 46.5751 77.3625 46.3126 77.55C46.0751 77.725 45.9501 78.05 46.0626 78.3375C46.1501 78.5625 46.5126 78.475 46.4251 78.2375Z" fill="#3E3E3E"/>
<path d="M51.2 81.575C51.1625 81.55 51.2125 81.5875 51.225 81.6125C51.225 81.625 51.225 81.6375 51.225 81.65C51.225 81.6625 51.225 81.6625 51.225 81.6375V81.65C51.25 81.6375 51.225 81.65 51.225 81.65C51.2125 81.65 51.2625 81.65 51.275 81.65C51.3125 81.65 51.35 81.6625 51.3875 81.675C51.3375 81.6125 51.3 81.55 51.25 81.5C51.25 81.6 51.25 81.7 51.25 81.8C51.3 81.7375 51.3375 81.675 51.3875 81.625C51.2875 81.6625 51.1875 81.675 51.0875 81.65C50.8625 81.575 50.7625 81.9375 50.9875 82.0125C51.15 82.0625 51.3375 82.0625 51.4875 81.9875C51.5625 81.95 51.625 81.9 51.625 81.8125C51.625 81.7125 51.625 81.6125 51.625 81.5125C51.625 81.425 51.5625 81.35 51.4875 81.3375C51.2875 81.2875 51.05 81.2625 50.925 81.4625C50.825 81.6125 50.8375 81.85 51.025 81.925C51.1125 81.975 51.225 81.95 51.2875 81.8625C51.325 81.75 51.3 81.625 51.2 81.575Z" fill="#3E3E3E"/>
<path d="M72.0751 31.8124C72.1376 31.8374 72.0001 32.4624 72.0626 32.6124C72.1501 32.7999 72.3501 32.9124 72.5501 32.9374C72.8251 32.9874 73.0626 32.8624 73.2876 32.7249C73.5126 32.5874 74.0501 32.1124 74.2126 32.6374C74.2501 32.7499 74.1251 33.0249 74.1626 33.1749C74.2751 33.6749 74.7501 33.6499 75.0876 33.3874C75.2126 33.2874 75.2876 33.1624 75.3876 33.0499C75.5126 32.7499 75.7001 32.6874 75.9376 32.8624C75.9376 32.9374 75.9501 33.0124 75.9751 33.0749C76.1001 33.2624 76.1626 33.3874 76.4126 33.3749C76.6501 33.3624 76.6501 32.9874 76.4126 32.9999C76.4251 32.9999 76.1501 32.4374 76.0001 32.3749C75.8251 32.2999 75.6251 32.3624 75.4626 32.4624C75.3501 32.5249 75.2626 32.6249 75.1751 32.7124C74.9876 32.8999 75.0001 33.1749 74.7001 32.9874C74.4126 32.8124 74.6501 32.5374 74.4501 32.2874C74.1251 31.8749 73.5751 32.0999 73.2251 32.3249C73.0251 32.4499 72.5251 32.8999 72.4001 32.2374C72.3876 32.1499 72.4626 32.0124 72.4626 31.9249C72.4626 31.7249 72.4251 31.6124 72.2501 31.5249C72.0501 31.3749 71.8626 31.6999 72.0751 31.8124Z" fill="#3E3E3E"/>
<path d="M59.0001 61.05C59.1501 62.8 59.3001 64.55 59.4626 66.3C59.4876 66.5375 59.8126 66.5375 59.8376 66.3C59.8376 66.2625 59.8501 66.2125 59.8501 66.175C59.8751 65.9375 59.5001 65.9375 59.4751 66.175C59.4751 66.2125 59.4626 66.2625 59.4626 66.3C59.5876 66.3 59.7126 66.3 59.8376 66.3C59.6876 64.55 59.5376 62.8 59.3751 61.05C59.3501 60.8125 58.9751 60.8 59.0001 61.05Z" fill="#F66F5D"/>
<path d="M59.2876 61.1875C59.8126 61.075 60.7251 60.9125 61.1251 61.35C61.4876 61.7375 61.4001 62.5 61.4501 63.025C61.5376 64.075 61.6251 65.125 61.7126 66.1625C61.7376 66.4 62.1126 66.4 62.0876 66.1625C61.9626 64.6625 61.9501 63.0875 61.7001 61.6C61.5126 60.4375 60.0626 60.65 59.1876 60.825C58.9501 60.875 59.0501 61.2375 59.2876 61.1875Z" fill="#F66F5D"/>
<path d="M62.4875 54.1374C62.8875 58.1374 63.025 62.1499 62.9 66.1749C62.8875 66.4124 63.2625 66.4124 63.275 66.1749C63.4 62.1624 63.2625 58.1374 62.8625 54.1374C62.8375 53.8999 62.4625 53.8874 62.4875 54.1374Z" fill="#F66F5D"/>
<path d="M62.9376 54.1375C63.4501 54.2125 64.0751 54.2125 64.5501 54.3875C65.1876 54.6125 65.0876 55.7625 65.1501 56.35C65.2626 57.4875 65.3376 58.625 65.4126 59.7625C65.5501 62.125 65.6001 64.4875 65.6501 66.85C65.6501 67.0875 66.0251 67.0875 66.0251 66.85C65.9626 64.125 65.9001 61.3875 65.7126 58.6625C65.6251 57.3875 65.5626 56.1 65.3626 54.8375C65.1876 53.7625 63.9001 53.9 63.0376 53.7625C62.8001 53.75 62.7001 54.1 62.9376 54.1375Z" fill="#F66F5D"/>
<path d="M66.1126 51.7875C66.5376 56.5375 66.9751 61.275 67.4001 66.025C67.4251 66.2625 67.8001 66.2625 67.7751 66.025C67.3501 61.275 66.9126 56.5375 66.4876 51.7875C66.4751 51.55 66.1001 51.55 66.1126 51.7875Z" fill="#F66F5D"/>
<path d="M66.3501 51.975C66.9501 51.8625 67.5626 51.825 68.1751 51.8875C68.6876 51.9375 69.0501 52.0375 69.0751 52.5875C69.0876 52.775 69.0876 52.975 69.0876 53.1625C69.1251 54.1 69.1626 55.0375 69.2126 55.975C69.3751 59.5625 69.5626 63.1375 69.7501 66.725C69.7626 66.9625 70.1376 66.9625 70.1251 66.725C69.9251 62.85 69.7251 58.9875 69.5501 55.1125C69.5126 54.3 69.4751 53.5 69.4501 52.6875C69.4376 52.325 69.4376 51.9625 69.1001 51.725C68.7876 51.5125 68.3001 51.5 67.9376 51.4875C67.3751 51.45 66.8126 51.5 66.2501 51.6125C66.0126 51.6625 66.1126 52.025 66.3501 51.975Z" fill="#F66F5D"/>
<path d="M56.3125 50.5875C55.9 51.4 55.5 52.2125 55.0875 53.025C54.975 53.2375 55.3 53.425 55.4125 53.2125C55.825 52.4 56.225 51.5875 56.6375 50.775C56.7375 50.5625 56.4125 50.3625 56.3125 50.5875Z" fill="#161616"/>
<path d="M56.3626 50.9625C56.5376 51.6875 56.9251 52.325 57.5001 52.8C57.6876 52.95 57.9501 52.6875 57.7626 52.5375C57.2376 52.1 56.8876 51.5375 56.7251 50.875C56.6626 50.625 56.3001 50.725 56.3626 50.9625Z" fill="#161616"/>
<path d="M56.1001 51.1375C56.0251 56.6125 56.7376 62.075 58.2251 67.35C58.2876 67.5875 58.6501 67.4875 58.5876 67.25C57.1126 62.0125 56.4001 56.5875 56.4751 51.1375C56.4751 50.9 56.1001 50.9 56.1001 51.1375Z" fill="#161616"/>
<path d="M58.6751 67.6749C61.6001 67.3999 64.5376 67.2499 67.4751 67.2374C70.2126 67.2249 73.1751 67.1124 75.7001 68.3499C75.9126 68.4499 76.1001 68.1374 75.8876 68.0249C73.4376 66.8249 70.6376 66.8499 67.9626 66.8624C64.8626 66.8624 61.7626 67.0124 58.6751 67.2999C58.4376 67.3249 58.4376 67.6999 58.6751 67.6749Z" fill="#161616"/>
<path d="M74.1626 67.0625C74.8376 67.475 75.4876 67.925 76.0876 68.425C76.1001 68.325 76.1126 68.225 76.1251 68.125C75.6126 68.5125 75.1126 68.9 74.6001 69.2875C74.4126 69.4375 74.6001 69.7625 74.7876 69.6125C75.3001 69.225 75.8001 68.8375 76.3126 68.45C76.4001 68.3875 76.4501 68.2375 76.3501 68.15C75.7126 67.625 75.0501 67.15 74.3501 66.7375C74.1376 66.625 73.9501 66.9375 74.1626 67.0625Z" fill="#161616"/>
<path d="M57.2626 57.4749C57.4501 57.6999 57.6376 57.9249 57.8251 58.1499C57.9001 58.2374 58.0626 58.2124 58.1251 58.1124C59.1251 56.1499 60.1126 54.1749 61.1251 52.2124C61.3876 51.7124 61.7501 52.1249 62.1251 52.2624C62.3626 52.3499 62.6126 52.3249 62.8501 52.2374C63.4501 52.0124 63.8501 51.3874 64.1251 50.8374C64.5751 49.8999 64.9751 48.9249 65.4126 47.9749C65.5251 47.7124 65.6501 47.4499 65.7626 47.1999C65.8251 47.0499 65.9001 46.7374 66.0251 46.6249C66.4126 46.2749 67.3626 47.0749 67.6876 47.2749C68.2251 47.5999 69.0001 48.3249 69.7001 48.1374C70.2251 47.9999 70.4751 47.4249 70.6251 46.9499C71.3501 44.8124 72.2751 42.8749 73.7001 41.1124C73.8126 40.9749 73.7126 40.7374 73.5126 40.7999C72.8626 41.0124 72.2751 41.3374 71.7376 41.7499C71.5626 41.8874 71.7876 42.1374 71.9626 42.0499C72.4501 41.8124 72.9501 41.5624 73.4376 41.3249C73.3501 41.2874 73.2501 41.2499 73.1626 41.2124C73.3126 41.9624 73.4626 42.7124 73.6001 43.4624C73.6501 43.6999 74.0126 43.5999 73.9626 43.3624C73.8126 42.6124 73.6626 41.8624 73.5251 41.1124C73.5001 40.9874 73.3501 40.9499 73.2501 40.9999C72.7626 41.2374 72.2626 41.4874 71.7751 41.7249C71.8501 41.8249 71.9251 41.9249 72.0001 42.0249C72.4876 41.6374 73.0126 41.3624 73.6126 41.1624C73.5501 41.0624 73.4876 40.9499 73.4251 40.8499C72.3376 42.1999 71.4376 43.6874 70.7876 45.2999C70.6126 45.7249 70.4626 46.1624 70.3251 46.5999C70.2126 46.9499 70.0376 47.6999 69.5751 47.7749C69.0501 47.8624 68.3751 47.2624 67.9501 46.9999C67.5251 46.7374 67.1126 46.4499 66.6751 46.2124C66.1751 45.9499 65.8626 46.0499 65.6126 46.5374C65.1376 47.4749 64.7501 48.4749 64.3126 49.4374C63.9876 50.1624 63.5751 51.6249 62.6876 51.8624C62.0876 52.0249 61.5376 51.1249 61.0001 51.6499C60.6876 51.9499 60.5251 52.5124 60.3376 52.8874C60.0501 53.4499 59.7751 53.9999 59.4876 54.5624C58.9251 55.6749 58.3501 56.7874 57.7876 57.8999C57.8876 57.8874 57.9876 57.8749 58.0876 57.8624C57.9001 57.6374 57.7126 57.4124 57.5251 57.1874C57.3626 57.0249 57.1001 57.2874 57.2626 57.4749Z" fill="#161616"/>
<path d="M111.675 26.4125C110.45 25.7375 109.925 24.025 110.7 22.8125C111.488 21.575 113.4 21.35 114.513 22.2625C115.65 23.2125 115.663 25.1625 114.575 26.15C113.45 27.1875 111.563 26.9125 110.638 25.7625C110.488 25.575 110.225 25.8375 110.375 26.025C111.238 27.075 112.775 27.45 114.038 26.925C115.263 26.4125 115.9 25.0875 115.738 23.8C115.575 22.475 114.588 21.4875 113.263 21.3375C112 21.1875 110.65 21.8125 110.175 23.0375C109.65 24.3875 110.238 26.025 111.5 26.7125C111.7 26.85 111.888 26.525 111.675 26.4125Z" fill="#F66F5D"/>
<path d="M117.1 28.7125C116.575 27.7375 117.925 26.6625 118.6 27.7125C119.2 28.6375 117.725 29.3375 117.25 28.475C117.138 28.2625 116.813 28.45 116.925 28.6625C117.225 29.2125 117.925 29.3625 118.475 29.125C119.125 28.85 119.288 28.1 118.925 27.525C118.55 26.925 117.775 26.6875 117.175 27.1125C116.613 27.5125 116.438 28.3 116.763 28.9125C116.9 29.1125 117.225 28.925 117.1 28.7125Z" fill="#F66F5D"/>
<path d="M110.525 123.262C120.363 123.262 130.188 123.262 140.025 123.262C140.263 123.262 140.263 122.887 140.025 122.887C130.188 122.887 120.363 122.887 110.525 122.887C110.275 122.887 110.275 123.262 110.525 123.262Z" fill="#161616"/>
<path d="M146.2 123.262C148.075 123.262 149.95 123.262 151.825 123.262C152.063 123.262 152.063 122.887 151.825 122.887C149.95 122.887 148.075 122.887 146.2 122.887C145.963 122.887 145.963 123.262 146.2 123.262Z" fill="#161616"/>
<path d="M82.1875 128.938C88.725 128.938 95.275 128.938 101.813 128.938C102.05 128.938 102.05 128.562 101.813 128.562C95.275 128.562 88.725 128.562 82.1875 128.562C81.95 128.562 81.95 128.938 82.1875 128.938Z" fill="#161616"/>
<path d="M101.563 127.438C107.225 127.438 112.9 127.438 118.563 127.438C118.8 127.438 118.8 127.062 118.563 127.062C112.9 127.062 107.225 127.062 101.563 127.062C101.325 127.062 101.325 127.438 101.563 127.438Z" fill="#161616"/>
<path d="M55.875 126.412C57.5875 126.412 59.2875 126.412 61 126.412C61.3625 126.412 61.3625 125.85 61 125.85C59.2875 125.85 57.5875 125.85 55.875 125.85C55.5125 125.85 55.5125 126.412 55.875 126.412Z" fill="#161616"/>
<path d="M62.75 126.412C63.3375 126.412 63.9125 126.412 64.5 126.412C64.8625 126.412 64.8625 125.85 64.5 125.85C63.9125 125.85 63.3375 125.85 62.75 125.85C62.3875 125.85 62.3875 126.412 62.75 126.412Z" fill="#161616"/>
<path d="M48.6001 103.712C48.8376 103.75 49.1626 104.05 49.4126 105.475C50.1501 105.525 50.8876 105.575 51.6251 105.625C52.2376 105.112 52.8501 104.6 53.4626 104.075C53.5501 104.575 53.6626 105.312 53.7626 106.212C53.9876 108.3 53.8501 108.8 53.9876 109.962C54.0501 110.475 54.3376 112.637 55.6751 114.737C56.7001 116.35 57.3751 116.4 58.1751 117.975C58.8001 119.212 58.9876 120.375 59.0626 121.137C59.1876 121.125 60.7751 121 61.7876 122.237C62.2501 122.812 62.7626 123.887 62.3751 124.737C62.0001 125.562 61.1376 125.437 59.5751 126.8C59.0251 127.275 58.5001 127.75 58.6251 128.125C58.7501 128.512 59.4251 128.437 60.6126 129.075C61.2376 129.412 61.5376 129.587 61.6376 129.887C62.0126 130.975 59.6376 132.65 59.2876 132.9C58.1376 133.7 56.7376 134.325 56.5626 134.075C56.3001 133.7 59.1251 131.637 58.7001 130.837C58.3876 130.237 56.6126 130.987 56.2001 130.325C55.7501 129.6 57.3376 127.787 58.1876 126.8C59.8251 124.9 60.8626 124.425 60.6876 123.787C60.5001 123.112 59.0751 122.662 58.3376 123.125C57.7126 123.512 57.8376 124.387 57.6001 124.962C57.1501 126.062 55.0001 126.962 47.6001 126.137C47.7001 125.937 47.8501 125.7 48.0376 125.475C48.6751 124.737 49.4751 124.475 49.8751 124.375C49.7626 124.187 49.1126 123.075 49.5126 121.725C49.8126 120.7 50.5251 120.137 50.7626 119.962C50.2626 118.975 49.7626 117.9 49.2876 116.725C48.9876 115.962 48.7126 115.225 48.4751 114.512C47.7751 114.512 46.9626 114.387 46.3376 113.85C45.4001 113.025 45.7751 112.012 44.8001 111.275C43.8876 110.575 42.8001 110.887 42.6126 110.287C42.5251 110 42.7001 109.662 42.8876 109.487C43.3626 109.037 44.2126 109.262 45.1376 109.512C45.7751 109.687 46.6876 110.012 47.7001 110.625C47.3626 110.137 46.7501 109.112 46.7126 107.75C46.6251 105.7 47.8751 103.612 48.6001 103.712Z" fill="#161616"/>
<path d="M48.1626 112.687C47.3001 113.062 47.6251 115.6 47.9376 117.912C48.1376 119.375 48.4751 121.312 49.1126 123.575C47.3626 124.925 47.4501 125.312 47.5001 125.412C47.6626 125.75 48.8251 125.55 49.1876 125.487C49.5751 125.425 50.1251 125.325 50.4376 125.125C51.3251 124.537 50.8626 122.75 50.5876 119.9C50.1876 115.775 50.6626 114.05 49.3376 113.062C49.1626 112.925 48.5876 112.5 48.1626 112.687Z" fill="#161616"/>
<path d="M39.6125 117.862C39.65 117.85 39.9751 117.687 39.9626 117.675C39.9376 117.662 39.9376 117.862 39.9376 117.912C39.9251 118.075 39.8751 118.275 39.9001 118.45C39.9501 118.7 40.1376 118.825 40.3876 118.8C40.5251 118.787 40.625 118.725 40.7375 118.637C40.7625 118.612 40.9376 118.462 40.9501 118.462C40.9751 118.475 40.975 118.75 40.9875 118.775C41.0375 119.012 41.2125 119.212 41.475 119.187C41.7125 119.162 41.7125 118.787 41.475 118.812C41.35 118.825 41.3125 118.15 41.1 118.075C41.0125 118.037 40.9126 118.062 40.8376 118.1C40.6501 118.187 40.375 118.587 40.2875 118.237C40.225 117.975 40.4876 117.6 40.2501 117.375C40.0251 117.162 39.6501 117.412 39.4376 117.525C39.2126 117.65 39.4 117.975 39.6125 117.862Z" fill="white"/>
<path d="M48.2126 107.787C48.4251 107.587 48.7876 107.637 48.9376 107.887C49.0376 108.037 49.2751 107.9 49.1751 107.75C48.9251 107.35 48.3501 107.275 48.0126 107.587C47.8876 107.712 48.0876 107.912 48.2126 107.787Z" fill="white"/>
<path d="M50.8875 107.7C51.1125 107.475 51.4875 107.462 51.725 107.675C51.8625 107.8 52.0625 107.6 51.925 107.475C51.575 107.15 51.025 107.162 50.6875 107.5C50.5625 107.625 50.7625 107.825 50.8875 107.7Z" fill="white"/>
<path d="M48.7 109.162C48.5625 109.437 47.975 110.387 48.6125 110.462C48.875 110.487 49.125 110.25 49.275 110.075C49.4875 109.825 49.6125 109.512 49.725 109.212C49.8125 108.987 49.45 108.887 49.3625 109.112C49.225 109.462 49.075 109.787 48.775 110.037C48.7125 110.087 48.675 110.175 48.7 110.062C48.7125 109.987 48.75 109.912 48.7875 109.85C48.8625 109.687 48.9375 109.525 49.025 109.362C49.125 109.125 48.8 108.937 48.7 109.162Z" fill="#F66F5D"/>
<path d="M49.0376 109.362C49.2001 109.287 49.3251 109.187 49.4751 109.087C49.4251 109.1 49.3751 109.1 49.3251 109.112C49.3376 109.112 49.3501 109.125 49.3626 109.125C49.3251 109.1 49.2876 109.062 49.2501 109.037C49.2501 108.962 49.2376 108.962 49.1876 109.05C49.1501 109.087 49.1251 109.125 49.0876 109.175C49.0251 109.25 48.9751 109.325 48.9251 109.4C48.8126 109.575 48.7126 109.75 48.6126 109.937C48.5001 110.15 48.8251 110.337 48.9376 110.125C49.0501 109.925 49.1626 109.712 49.2876 109.525C49.3876 109.375 49.6001 109.212 49.6126 109.025C49.6251 108.887 49.5126 108.762 49.3876 108.762C49.3001 108.75 49.2376 108.8 49.1751 108.85C49.0626 108.937 48.9626 109 48.8251 109.062C48.6376 109.125 48.8251 109.45 49.0376 109.362Z" fill="#F66F5D"/>
<path d="M48.6626 109.15C49.0751 109.162 49.4626 108.862 49.5376 108.45C49.5626 108.275 49.3001 108.2 49.2626 108.375C49.2126 108.675 48.9626 108.887 48.6626 108.875C48.4751 108.862 48.4751 109.137 48.6626 109.15Z" fill="white"/>
<path d="M49.3001 108.362C49.3501 108.862 49.7876 109.262 50.3001 109.225C50.4751 109.212 50.4751 108.925 50.3001 108.937C49.9501 108.962 49.6126 108.725 49.5751 108.362C49.5626 108.187 49.2876 108.187 49.3001 108.362Z" fill="white"/>
<path d="M125.263 84.8C121.125 89.8125 117 94.8125 112.863 99.825C119.35 101.438 125.838 103.05 132.325 104.663C132.538 101.975 132.588 96.4875 129.6 90.75C128.25 88.15 126.638 86.2 125.263 84.8Z" fill="#3E3E3E"/>
<path d="M111.65 100.838C118.2 102.488 124.763 104.125 131.313 105.775C131.238 106.825 131.025 108.288 130.4 109.913C129.663 111.863 128.625 113.275 127.875 114.15C122.475 109.713 117.063 105.275 111.65 100.838Z" fill="#F66F5D"/>
<path d="M110.688 123.075C122.72 123.075 132.475 113.074 132.475 100.738C132.475 88.4009 122.72 78.4 110.688 78.4C98.6546 78.4 88.9 88.4009 88.9 100.738C88.9 113.074 98.6546 123.075 110.688 123.075Z" stroke="#161616" stroke-width="1.5" stroke-miterlimit="10"/>
<path d="M110.963 100.263C111.013 100.213 111.138 100.25 111.163 100.313C111.175 100.263 111.175 100.213 111.188 100.163C111.175 100.188 111.138 100.175 111.125 100.163C111.025 100.125 110.925 100.2 110.9 100.288C110.875 100.388 110.938 100.488 111.025 100.513C111.175 100.563 111.35 100.525 111.45 100.413C111.575 100.288 111.538 100.113 111.425 100C111.225 99.8001 110.913 99.7876 110.713 99.9751C110.513 100.15 110.775 100.425 110.963 100.263Z" fill="#161616"/>
<path d="M124.138 83.3126C120.15 89.1126 115.863 94.7126 111.3 100.075C111.15 100.263 111.413 100.525 111.563 100.338C116.15 94.9501 120.45 89.3376 124.463 83.5001C124.6 83.3001 124.275 83.1126 124.138 83.3126Z" fill="#161616"/>
<path d="M111.112 100.5C118.162 101.762 125.162 103.25 132.112 104.975C132.35 105.037 132.45 104.675 132.212 104.612C125.262 102.9 118.262 101.4 111.212 100.137C110.975 100.1 110.875 100.462 111.112 100.5Z" fill="#161616"/>
<path d="M111.088 100.438C116.425 105.325 121.925 110.025 127.588 114.55C127.775 114.7 128.038 114.438 127.85 114.288C122.2 109.775 116.688 105.063 111.35 100.175C111.175 100.013 110.9 100.275 111.088 100.438Z" fill="#161616"/>
<path opacity="0.21" d="M110.7 78.45C111.163 80.5125 111.475 83.45 110.338 86.45C107.75 93.3 100.238 93.6376 97.3875 99.225C95.8375 102.263 95.45 107.288 100.35 116.038C100.35 117.513 100.35 118.975 100.35 120.45C98.9 119.638 97.3 118.538 95.7625 117.038C89.925 111.325 89.025 103.863 88.8375 101.025C88.85 98.9751 89.1375 92.3126 94.05 86.3626C95.1625 85.0126 99.1125 80.3876 105.838 78.9001C107.8 78.4751 109.5 78.4125 110.7 78.45Z" fill="#6D6C6C"/>
<path d="M73.7 113.5C74.5625 115.675 75.425 117.837 76.275 120.012C75.7625 121.137 74.975 122.8 73.8875 124.787C72.4625 127.387 71.7875 128.263 72.0125 128.525C72.3375 128.9 74.45 127.962 82.65 121.825C82.1375 120.4 81.6125 118.963 81.1 117.5C80.35 115.375 79.625 113.275 78.9125 111.188C77.1875 111.962 75.45 112.737 73.7 113.5Z" fill="#161616"/>
<path d="M96.75 75.4C98.1375 77.7625 97.15 81.425 97.0125 81.9125C96.25 84.75 94.525 85.025 88.2 91.0125C84.2375 94.775 83.1 96.3 82.2625 97.975C81.125 100.275 80.7125 102.413 80.55 103.863C81.0625 106.863 81.575 109.85 82.0875 112.85C80.775 113.7 78.9375 114.713 76.5875 115.425C74.9375 115.925 73.4375 116.175 72.2 116.287C71.05 113.375 69.4 108 70.2875 101.463C71.3625 93.5 75.575 88.2875 79.075 83.9625C84.4 77.3875 90.5625 73.125 95.8375 70.375C95.6625 71.3125 95.5625 72.6625 96.0875 74.0875C96.3375 74.7625 96.6125 75.1625 96.75 75.4Z" fill="#F66F5D"/>
<path opacity="0.2" d="M94.675 72.0125C93.1125 76.2375 91.2375 79.5125 89.5375 81.975C84.475 89.3375 80.7375 89.9375 77.75 96.775C75.8375 101.15 75.425 105.325 75.3 106.825C74.9875 110.312 75.2625 113.275 75.6125 115.45C76.3125 115.425 77.1875 115.325 78.15 115.05C80.0125 114.512 81.3375 113.575 82.1 112.912C81.8875 111.9 81.575 110.4 81.225 108.562C80.75 106.012 80.5125 104.725 80.5125 103.812C80.5125 101.125 81.65 99.1 82.575 97.4875C83.0125 96.725 84.2875 94.6125 88.75 90.525C93.4625 86.2125 95.425 85.4625 96.6625 82.3C97.4 80.4125 97.3875 78.9125 97.375 78.425C97.2625 75.1375 95.4125 72.8375 94.675 72.0125Z" fill="#6D6C6C"/>
<path opacity="0.27" d="M97.3625 79.45C94.8 81.6 91.1375 84.8125 86.925 88.9375C80.8125 94.9375 79.725 96.6875 79.25 97.5625C77.925 100 75.65 105.55 77.9 114.812C78.6375 114.512 79.4 114.175 80.2 113.787C80.8375 113.475 81.45 113.15 82.025 112.837C81.525 109.912 81.025 106.987 80.525 104.05C80.5625 102.95 80.7375 101.3 81.475 99.4625C81.65 99.025 82.1625 97.8125 83.45 96.0625C84.475 94.6625 85.4625 93.7125 87.4 91.875C88.95 90.4 90.45 88.85 92.0625 87.45C94.9625 84.9375 96.2625 84.25 96.9625 82.3125C97.375 81.175 97.4 80.1375 97.3625 79.45Z" fill="#6D6C6C"/>
<path d="M87.4625 113.225C89.3625 114.687 91.2625 116.15 93.1625 117.613C90.6375 124.013 90.6375 125.675 91.15 125.963C92 126.45 94.7875 123.437 96.375 121.225C97.7875 119.237 98.6125 117.375 99.0875 116.075C98.3125 115.087 97.425 114.062 96.4375 113.012C95.075 111.562 93.7375 110.325 92.475 109.25C90.8125 110.587 89.1375 111.9 87.4625 113.225Z" fill="#161616"/>
<path d="M106.963 75.4C108.075 78.35 107.4 81.2 107.225 81.9125C105.95 87.2125 101.213 91.5875 99.5375 93.1125C96.675 95.7375 94.3 97.05 92.975 100.55C92.5125 101.75 92.325 102.812 92.25 103.537C93.1625 105.625 94.075 107.712 94.9875 109.787C94.3875 111.075 93.075 113.45 90.425 115.262C89.3 116.037 88.2 116.512 87.3 116.825C85.4 114.887 80.25 109.137 80.525 101.45C80.7375 95.55 84.075 90.8 86.65 87.1125C89.2375 83.425 89.9 83.875 93.1625 79.1625C95.9875 75.075 96.525 73.2125 98.9 72.3875C101.288 71.55 104.788 72.0125 106.325 74.0875C106.625 74.525 106.763 74.8875 106.963 75.4Z" fill="#F66F5D"/>
<path opacity="0.24" d="M101.15 74.8374C101.287 75.9874 101.387 77.9624 100.812 80.2374C98.8125 87.9749 91.4875 88.6499 87.9625 97.0249C87.275 98.6624 85.675 102.625 86.9375 107.212C87.9125 110.787 90.1875 113.112 91.475 114.237C91.975 113.975 92.8 113.45 93.525 112.525C94.425 111.375 94.7125 110.2 94.8125 109.612C93.925 107.475 93.0375 105.325 92.1625 103.187C92.325 102.237 92.6625 100.875 93.45 99.4124C94.525 97.3874 95.825 96.3624 97.5 94.8499C100.575 92.0874 102.537 90.3374 104.237 87.9249C105.312 86.3874 106.875 84.1249 107.387 80.8124C107.812 78.1124 107.362 75.8499 106.975 74.4874C105.037 74.6124 103.087 74.7249 101.15 74.8374Z" fill="#6D6C6C"/>
<path opacity="0.25" d="M107.512 78.85C106.525 80.6625 104.825 83.4875 102.2 86.5125C97.15 92.325 93.725 93.5375 91.375 98.0125C90.3625 99.9375 89.4375 103.112 90.575 108.212C92.0125 108.787 93.4625 109.362 94.9 109.95C93.9875 107.8 93.0875 105.662 92.175 103.512C92.2625 102.45 92.525 100.875 93.4125 99.25C94.2 97.8 95.075 97.0375 97 95.2875C100.187 92.3875 101.787 90.9375 102.437 90.2125C103.925 88.575 105.55 86.7375 106.575 83.9C107.325 81.8875 107.487 80.075 107.512 78.85Z" fill="#6D6C6C"/>
<path d="M77.0875 57.975C76.75 57.225 76.1625 56.1375 75.0875 55.15C73.7375 53.9125 71.85 53.025 71.55 53.3875C71.425 53.5375 71.4375 54.0625 73.7125 56.575" fill="white"/>
<path d="M77.0875 57.975C76.75 57.225 76.1625 56.1375 75.0875 55.15C73.7375 53.9125 71.85 53.025 71.55 53.3875C71.425 53.5375 71.4375 54.0625 73.7125 56.575" stroke="#161616" stroke-miterlimit="10"/>
<path d="M72.375 55.9249C71.8875 56.2249 71.025 56.8624 70.5625 57.9624C70.3875 58.3874 70.1625 58.9374 70.325 59.5749C70.6125 60.6749 71.9375 61.1374 72.05 61.1874C72.5875 61.3749 72.725 61.2374 73.1125 61.4624C73.7375 61.8249 73.7125 62.3124 74.175 62.7624C75.125 63.6749 77.05 63.3124 77.1375 62.9249C77.1875 62.7124 76.6375 62.5124 76.6875 62.1249C76.7125 61.8874 76.95 61.7874 77.1125 61.6374C77.9875 60.8374 77.15 58.4999 77 58.1124C76.8625 57.7499 76.65 57.2249 76.275 56.6374" fill="white"/>
<path d="M72.375 55.9249C71.8875 56.2249 71.025 56.8624 70.5625 57.9624C70.3875 58.3874 70.1625 58.9374 70.325 59.5749C70.6125 60.6749 71.9375 61.1374 72.05 61.1874C72.5875 61.3749 72.725 61.2374 73.1125 61.4624C73.7375 61.8249 73.7125 62.3124 74.175 62.7624C75.125 63.6749 77.05 63.3124 77.1375 62.9249C77.1875 62.7124 76.6375 62.5124 76.6875 62.1249C76.7125 61.8874 76.95 61.7874 77.1125 61.6374C77.9875 60.8374 77.15 58.4999 77 58.1124C76.8625 57.7499 76.65 57.2249 76.275 56.6374" stroke="#161616" stroke-miterlimit="10"/>
<path d="M70.1125 59.4125C70.4 60.1625 70.95 60.825 71.7125 61.125C72.4875 61.4375 73.0625 61.025 73.075 60.2C73.075 59.9625 72.7 59.9625 72.7 60.2C72.6875 61.1625 71.7375 60.8125 71.2625 60.425C70.9 60.1375 70.6375 59.75 70.475 59.3125C70.3875 59.0875 70.025 59.175 70.1125 59.4125Z" fill="#161616"/>
<path d="M71.0501 58.3874C71.4251 59.0874 71.9251 59.8624 72.7001 60.1499C73.4001 60.4124 73.8126 59.9874 73.8876 59.3249C73.9126 59.0874 73.5376 59.0874 73.5126 59.3249C73.4001 60.3124 72.4376 59.6249 72.1001 59.2749C71.8001 58.9624 71.5751 58.5874 71.3751 58.1999C71.2626 57.9874 70.9376 58.1749 71.0501 58.3874Z" fill="#161616"/>
<path d="M72.175 56.7C72.4 57.2 72.625 57.7125 72.9375 58.1625C73.15 58.475 73.45 58.925 73.8625 59C74.8375 59.1875 74.525 57.8 74.3375 57.325C74.25 57.1 73.8875 57.2 73.975 57.425C74.0625 57.6375 74.25 58.075 74.175 58.3125C73.9625 59 73.3875 58.15 73.2625 57.975C72.95 57.525 72.725 57.0125 72.5 56.5125C72.4 56.2875 72.075 56.475 72.175 56.7Z" fill="#161616"/>
<path d="M72.3625 56.1374C72.7375 55.9499 73.2 56.2874 73.4625 56.5374C73.725 56.7874 73.9 57.1124 74.0375 57.4374C74.125 57.6624 74.4875 57.5624 74.4 57.3374C74.0875 56.5624 73.1625 55.3249 72.175 55.8124C71.9625 55.9124 72.15 56.2374 72.3625 56.1374Z" fill="#161616"/>
<path d="M99.475 52.3C99.875 53.4875 99.2625 54.5 97.55 57.55C94.675 62.625 94.5 63.075 93.8375 63.875C92.275 65.75 91.3875 66.8125 89.75 67.5C86.7625 68.75 83.45 67.65 81.6375 66.9625C79.95 66.3125 78.7 65.475 77.8875 64.85C77.3375 64.4 76.9125 64.05 76.6375 63.8375C76.0625 63.375 75.8 63.175 75.575 62.775C75.5625 62.7625 75.35 62.375 75.3 61.9375C75.1125 60.6 76.4375 59.475 76.5375 59.3875C74.95 59.7625 74.4 59.6875 74.3 59.4625C74.0625 58.9625 75.7875 57.125 77 57.5375C77.575 57.725 77.8625 58.375 78.075 58.85C78.4875 59.75 78.4375 60.5875 78.3875 61.0125C79.15 61.5375 80.2375 62.15 81.625 62.5625C84.3625 63.3625 86.7125 62.9375 87.875 62.6375C88.5125 61.6125 89.55 59.9375 90.8125 57.85C94.2625 52.125 95.175 50.3125 96.7625 50.2875C97.95 50.275 99.125 51.2625 99.475 52.3Z" fill="white" stroke="#161616" stroke-miterlimit="10"/>
<path d="M76.425 59.7125C75.35 59.6625 75.2 61.05 75.0625 61.8375C75.1875 61.85 75.3125 61.875 75.425 61.8875C75.4375 61.3875 75.6625 60.975 75.9 60.55C76.025 60.3375 75.7 60.15 75.575 60.3625C75.0875 61.15 74.7875 62.125 75.4625 62.9C75.55 62.8125 75.6375 62.725 75.725 62.6375C75.5375 62.475 75.4375 62.2625 75.425 62C75.3 62.0125 75.175 62.0375 75.0625 62.05C75.125 62.25 75.2 62.4375 75.3 62.625C75.4125 62.8375 75.7375 62.65 75.625 62.4375C75.5375 62.2875 75.4625 62.125 75.425 61.95C75.375 61.75 75.0375 61.7875 75.0625 62C75.1 62.3625 75.2125 62.6375 75.475 62.9C75.65 63.075 75.9 62.8125 75.7375 62.6375C75.1875 62 75.5375 61.1875 75.9125 60.55C75.8 60.4875 75.7 60.425 75.5875 60.3625C75.3125 60.85 75.075 61.3125 75.0625 61.8875C75.05 62.1 75.4 62.15 75.425 61.9375C75.525 61.3625 75.6125 60.0625 76.425 60.0875C76.6625 60.1 76.6625 59.725 76.425 59.7125Z" fill="white"/>
<path opacity="0.21" d="M97.5625 50.7999C96.775 52.9124 95.5 55.9249 93.4875 59.3374C91.4375 62.8249 90.3625 64.5749 88.5125 65.4999C84.7125 67.3874 78.85 66.1124 76.875 62.4999C76.275 61.3999 76.1375 60.2874 76.1375 59.4499C75.6625 59.6124 74.925 59.7874 74.2125 59.5124C72.6125 58.8749 72.4625 56.4874 71.6125 56.5124C71.05 56.5374 70.6375 57.5999 70.4875 57.9874C70.35 58.3374 70.125 58.9124 70.2625 59.5124C70.4625 60.3999 71.4 61.0999 72.575 61.3249C73.1875 61.6249 73.575 61.9624 73.8125 62.2249C74.225 62.6749 74.3375 63.0249 74.775 63.2374C75.1625 63.4249 75.575 63.3999 75.85 63.3499C76.4375 63.8249 77.3625 64.5374 78.5625 65.2749C81.1375 66.8499 84.25 68.7499 87.775 68.0999C89.4375 67.7999 90.575 67.0374 91.275 66.5749C92.4125 65.8124 93.6375 64.6624 95.9625 60.4749C96.925 58.7374 98.1125 56.4249 99.3 53.5749C99.35 53.4499 99.625 52.7124 99.2375 51.9374C98.7625 50.9124 97.625 50.7999 97.5625 50.7999Z" fill="#6D6C6C"/>
<path opacity="0.22" d="M73.9125 59.4874C73.7375 59.6124 73.8125 59.8624 73.6 60.0499C73.45 60.1749 73.25 60.1749 73.125 60.1749C73.125 60.3499 73.1 60.5749 72.9625 60.7749C72.7875 61.0249 72.55 61.0749 72.5625 61.1749C72.5875 61.2874 72.9375 61.2249 73.275 61.4124C73.5125 61.5499 73.6625 61.7624 73.75 61.9249C74.575 61.1374 75.4 60.3624 76.225 59.5749C75.6 59.8124 75.1375 59.7749 74.825 59.6999C74.425 59.5749 74.125 59.3374 73.9125 59.4874Z" fill="#6D6C6C"/>
<path d="M99.375 49.85C98.5375 50.6875 98.1 51.6375 97.25 53.5375C96.575 55.025 95.4875 57.5125 95.125 60.825C94.725 64.525 95.6625 65.3625 94.9125 68.1125C94.35 70.1875 93.2875 71.7125 92.5 72.6375C93.5125 73.65 95.35 75.2125 98.0875 76.175C102.725 77.8 106.8 76.575 108.137 76.1C109.25 73.1 110.35 70.1 111.463 67.1125C111.475 64.575 111.575 62.4125 111.675 60.7375C111.925 56.7375 112.337 53.675 112.6 51.8125C112.9 49.625 113.212 47.7875 113.45 46.4375C110.637 46.5875 108.313 46.9125 106.65 47.2125C101.2 48.2125 99.9125 49.3125 99.375 49.85Z" fill="white" stroke="#161616" stroke-miterlimit="10"/>
<path opacity="0.19" d="M106 47.2999C106.562 48.6374 107.287 50.8 107.45 53.5125C107.837 59.9625 104.725 65.0125 102.362 68.8375C101.287 70.575 99.625 72.9874 97.1625 75.5999C98.1125 76.0999 99.475 76.6625 101.187 76.9375C104.287 77.4375 106.812 76.6875 108.062 76.2125C109.112 73.1875 110.15 70.175 111.2 67.15C111.262 65.0875 111.375 62.95 111.537 60.775C111.912 55.7 112.525 50.9375 113.275 46.5125C110.85 46.775 108.425 47.0374 106 47.2999Z" fill="#6D6C6C"/>
<path opacity="0.11" d="M108.238 46.9124C109.138 49.2374 110.075 52.625 109.863 56.7C109.263 68.0375 100.288 74.9 98.7375 76.05C99.6875 76.3875 100.975 76.7375 102.538 76.8375C104.863 76.9875 106.75 76.5125 107.913 76.1125C109.063 73.0875 110.225 70.0749 111.375 67.0499C111.375 64.2874 111.475 61.3375 111.713 58.2125C112.038 54 112.575 50.1 113.225 46.575C111.563 46.6875 109.9 46.7999 108.238 46.9124Z" fill="#6D6C6C"/>
<path d="M112.988 46.275C114 46.65 115.488 47.375 116.563 48.8375C117.763 50.475 118.025 52.45 117.338 58.7125C116.7 64.5375 116.15 65.7875 115.938 69.2875C115.7 73.1375 116.063 76.2875 116.4 78.3C117.825 77.9625 119.25 77.625 120.675 77.2875C122.225 77.7 123.163 78.4625 123.625 78.925C124.088 79.375 125.063 80.325 124.788 81.1C124.613 81.6 123.975 81.85 123.7 81.95C123.163 82.1625 122.713 82.1375 122.225 82.1C121.188 82.0375 120.15 82 119.113 81.95C118.575 81.925 117.8 81.9 116.863 81.95C118.125 83.0375 118.663 83.7375 118.5 84.05C118.275 84.4625 116.775 84.175 113.988 83.2C113.863 82.1875 113.663 80.65 113.363 78.775C112.588 73.875 112.025 72.125 111.65 69.525C111.263 66.8375 111.388 64.4125 111.65 59.575C111.85 56.15 112.213 51.625 112.988 46.275Z" fill="white" stroke="#161616" stroke-miterlimit="10"/>
<path d="M118.787 80.2875C119.75 79.8875 120.75 80.1125 121.675 80.525C122.462 80.8625 123.237 81.275 123.85 81.875C124.025 82.0375 124.287 81.775 124.112 81.6125C123.4 80.925 122.512 80.4625 121.6 80.1C120.662 79.7125 119.65 79.5375 118.675 79.9375C118.475 80.0125 118.575 80.375 118.787 80.2875Z" fill="#161616"/>
<path d="M120.013 79.1375C121.675 78.8125 123.65 79.8 124.563 81.2125C124.7 81.4125 125.025 81.225 124.888 81.025C123.863 79.4625 121.763 78.425 119.913 78.7875C119.675 78.825 119.775 79.1875 120.013 79.1375Z" fill="#161616"/>
<path d="M121.45 78.275C122.112 78.3 122.687 78.5875 123.262 78.9C123.475 79.0125 123.662 78.6875 123.45 78.575C122.812 78.2375 122.175 77.925 121.45 77.9C121.212 77.8875 121.212 78.2625 121.45 78.275Z" fill="#161616"/>
<path opacity="0.16" d="M113.162 46.5751C113.787 47.9876 114.675 50.2876 115.125 53.2376C116.212 60.4626 113.537 64.2251 114.012 72.0376C114.125 73.9751 114.487 76.8626 115.637 80.3751C116.637 80.0501 118.162 79.7251 119.95 79.9251C121.212 80.0751 121.837 80.1501 122.462 80.6001C123.087 81.0501 123.45 81.6501 124.087 81.6126C124.337 81.6001 124.675 81.4876 124.812 81.2251C125.15 80.6126 124.225 79.5626 123.912 79.2126C123.462 78.7001 122.537 77.8251 120.837 77.3126C119.362 77.6126 117.887 77.9126 116.412 78.2126C116.125 76.9376 115.725 74.8126 115.687 72.1751C115.65 69.9251 116.05 67.2001 116.862 61.8251C117.012 60.8251 117.2 58.8126 117.587 54.7751C117.712 53.4501 117.812 52.2626 117.362 50.8001C117.137 50.0626 116.587 48.3876 114.962 47.3376C114.275 46.8626 113.612 46.6751 113.162 46.5751Z" fill="#6D6C6C"/>
<path opacity="0.22" d="M115.9 81.875C116.063 82.275 116.413 82.9625 117.125 83.5C117.563 83.825 118.325 84.225 118.463 84.0625C118.638 83.8625 117.975 82.7625 116.95 82.2125C116.563 82 116.175 81.9125 115.9 81.875Z" fill="#6D6C6C"/>
<path opacity="0.4" d="M117.3 56.8625C116.162 59.9875 114.8 65 115.175 71.1875C115.362 74.35 115.975 77.0751 116.625 79.2376C115.975 76.7626 115.787 74.7125 115.725 73.3125C115.575 69.575 116.25 67.475 116.95 60.6125C117.125 59.025 117.237 57.7125 117.3 56.8625Z" fill="#6D6C6C"/>
<path opacity="0.22" d="M119.825 78.85C119.8 78.7 121.05 78.125 122.288 78.4C123.95 78.775 124.725 80.525 124.863 80.8625C124.275 80.2 123.325 79.3375 121.95 79.0125C120.788 78.75 119.838 78.975 119.825 78.85Z" fill="#6D6C6C"/>
<path d="M94.775 43.7126C94.25 44.2001 94.1375 45.2251 93.925 47.2376C93.6875 49.5501 93.5875 50.7251 94.075 51.3126C94.9625 52.3876 96.875 52.4501 98.2 51.8626C99.7625 51.1626 100.3 49.6501 100.437 49.2751C101.05 47.5376 100.85 44.9126 99 43.7126C97.75 42.8876 95.8125 42.7501 94.775 43.7126Z" fill="#3E3E3E"/>
<path d="M97.4751 45.5376C97.6626 46.4376 98.6626 46.5126 99.5126 47.9501C100.125 48.9876 100.25 50.0501 100.263 50.8126C101.025 50.8001 102.438 50.6501 103.963 49.8626C105.15 49.2376 105.95 48.4501 106.413 47.9126C106.1 47.4001 105.638 46.6501 105.088 45.7501C102.713 41.9376 102.363 41.6376 101.888 41.5126C99.9626 41.0501 97.1126 43.8626 97.4751 45.5376Z" fill="white" stroke="#161616" stroke-miterlimit="10"/>
<path d="M101.362 44.025C100.787 45.2375 100.2 46.4375 99.4 47.525C99.5 47.5125 99.6 47.5 99.7 47.4875C99.625 47.4 99.55 47.3 99.4875 47.2125C99.475 47.2875 99.4625 47.3625 99.4625 47.4375C99.7875 47.1625 100.037 46.8625 100.262 46.5C100.15 46.4375 100.05 46.375 99.9375 46.3125C99.7625 46.6875 99.5375 46.9125 99.175 47.075C99.25 47.175 99.325 47.275 99.4 47.375C100.05 46.7625 100.637 46.0875 101.162 45.3625C101.3 45.1625 100.975 44.975 100.837 45.175C100.337 45.875 99.7625 46.525 99.1375 47.1125C98.975 47.2625 99.1875 47.4875 99.3625 47.4125C99.775 47.225 100.075 46.925 100.262 46.5125C100.362 46.3 100.075 46.1125 99.9375 46.325C99.725 46.65 99.4875 46.925 99.2 47.1875C99.1375 47.2375 99.125 47.35 99.175 47.4125C99.2875 47.5875 99.3 47.6125 99.45 47.7625C99.5375 47.8625 99.675 47.8125 99.75 47.725C100.55 46.65 101.137 45.4375 101.712 44.225C101.787 44 101.462 43.8125 101.362 44.025Z" fill="#161616"/>
<path d="M89.25 34.4251C88.675 35.4876 88.8125 36.5626 89.0875 38.6626C89.4125 41.0376 89.8375 43.0251 90.35 44.3376C90.425 44.5376 90.625 44.6501 90.8375 44.6251C91.1125 44.6001 91.525 44.3876 91.7625 44.3126C92.0625 44.8501 92.5625 45.5751 93.3375 46.2501C94.875 47.5751 96.5625 47.8876 97.3125 47.9751C98.05 47.7001 99.875 46.8876 101.088 44.9376C101.888 43.6376 102.05 42.4376 102.088 42.1626C102.3 40.3626 101.7 38.9626 101.413 38.3876C101.675 38.2251 102.075 37.9376 102.35 37.4501C102.925 36.4376 102.9 34.7626 101.988 34.3126C101.3 33.9751 100.213 34.3501 99.475 35.3126C99.2375 34.9001 98.875 34.3501 98.325 33.8001C98.1875 33.6626 97.175 32.6376 96.025 32.1751C93.775 31.2876 90.425 32.2626 89.25 34.4251Z" fill="white" stroke="#161616" stroke-miterlimit="10"/>
<path d="M92.55 45.4625C93.4125 45.2375 93.9125 44.5125 94.35 43.8C94.475 43.6 94.15 43.4125 94.025 43.6125C93.6375 44.2375 93.2 44.9 92.45 45.1125C92.2125 45.1625 92.3125 45.525 92.55 45.4625Z" fill="#161616"/>
<path d="M93.6875 43.775C93.9375 43.7875 94.1375 43.8875 94.3 44.075C94.4625 44.2625 94.725 43.9875 94.5625 43.8125C94.3375 43.55 94.025 43.4125 93.6875 43.4C93.4375 43.4 93.4375 43.775 93.6875 43.775Z" fill="#161616"/>
<path d="M92.7375 41.7126C92.7375 41.7001 92.7375 41.6875 92.7375 41.675C92.7375 41.575 92.65 41.4875 92.55 41.4875C92.45 41.4875 92.3625 41.575 92.3625 41.675C92.3625 41.6875 92.3625 41.7001 92.3625 41.7126C92.3625 41.8126 92.45 41.9001 92.55 41.9001C92.65 41.8876 92.7375 41.8126 92.7375 41.7126Z" fill="#161616"/>
<path d="M93.575 40.7125C93.8125 40.7125 93.8125 40.3375 93.575 40.3375C93.3375 40.3375 93.3375 40.7125 93.575 40.7125Z" fill="#161616"/>
<path d="M93.4625 41.6626C93.7 41.6626 93.7 41.2876 93.4625 41.2876C93.225 41.2876 93.225 41.6626 93.4625 41.6626Z" fill="#161616"/>
<path d="M88.7125 38.6875C88.3125 38.55 87.4625 38.1875 86.975 37.35C86.2125 36.05 86.825 34.5375 87.125 33.825C87.2875 33.425 87.7375 32.4375 89.9125 30.5C91.5625 29.0125 92.4 28.275 93.3375 27.8625C96.6875 26.4 100.113 27.8 100.738 28.0625C101.663 28.4375 102.338 28.9 103.675 29.8C105.3 30.9 106.338 31.6125 107.15 32.8375C108.138 34.3375 107.538 34.725 108.388 36.4125C109.738 39.0875 111.6 38.7625 112.713 41.2375C112.9 41.65 113.938 43.95 112.763 45.9625C111.8 47.6 109.838 48.1875 108.388 48.15C105.7 48.075 104.013 45.775 103.125 44.575C101.438 42.2875 101.113 39.8625 101.038 38.5625C102.1 38.025 102.513 36.875 102.125 36.075C101.825 35.4375 100.95 34.9 100.188 35.225C99.6625 35.45 99.325 36.05 99.3375 36.7125C98.8375 36.8 97.3 36.9875 95.7125 36.1125C94.5375 35.475 93.9 34.575 93.625 34.125C92.925 34.4 91.8 34.925 90.6875 35.9625C89.625 36.9625 89.025 38.0125 88.7125 38.6875Z" fill="#3E3E3E"/>
<path opacity="0.24" d="M96.8625 39.4125C98.25 40.7125 98.925 42.1501 99.1375 42.6376C100.012 44.6376 99.9625 46.475 99.875 47.4125C100.325 46.65 100.762 45.8875 101.212 45.1125C101.937 46.7375 102.65 48.3625 103.375 49.975C103.762 49.8875 104.525 49.6625 105.262 49.0126C105.825 48.5126 106.125 47.975 106.275 47.6376C105.225 46.8876 103.162 45.1876 101.962 42.2626C101.387 40.8626 101.162 39.5626 101.087 38.5876C102.1 38.0376 102.525 36.9375 102.187 36.1125C101.95 35.5125 101.212 34.8375 100.4 35.0625C99.7125 35.25 99.2375 35.9875 99.35 36.8125C98.825 36.875 97.575 36.9625 96.1875 36.35C94.75 35.7125 93.9625 34.675 93.6625 34.2375C94 36.45 94.85 37.6501 95.5625 38.3376C96.0125 38.8001 96.2 38.8 96.8625 39.4125Z" fill="#6D6C6C"/>
<path opacity="0.24" d="M101.113 40.0126C101.025 40.0126 101.075 41.3001 100.95 42.4876C100.788 44.0126 100.338 45.2251 99.9625 46.0376C100.3 45.8251 100.8 45.4251 101.238 44.8001C101.863 43.8876 101.975 42.9876 102.013 42.5501C101.9 42.3751 101.75 42.1251 101.613 41.8126C101.175 40.8126 101.188 40.0126 101.113 40.0126Z" fill="#6D6C6C"/>
<path opacity="0.19" d="M101.55 44.35C101.85 44.6625 102.275 45.075 102.825 45.525C104.488 46.9125 106.1 47.7 106.15 47.6125C106.2 47.525 104.625 46.8875 103.425 45.1625C102.675 44.0875 102.238 42.8125 102.05 42.875C101.963 42.9 102.038 43.2 101.888 43.6875C101.788 43.975 101.65 44.2 101.55 44.35Z" fill="#6D6C6C"/>
<path opacity="0.74" d="M102.938 29.3375C104.413 31.8875 105.463 34.1125 106.175 35.7625C108.163 40.4 108 41.675 107.725 42.5C107.112 44.3625 105.413 45.4125 104.4 45.9125C104.65 46.2625 105.688 47.65 107.588 48.0375C107.95 48.1125 110.138 48.525 111.8 47.0125C113.038 45.9 113.225 44.425 113.262 44.0375C113.487 41.9375 112.238 40.3625 111.838 39.9125C111.313 39.325 111.2 39.4625 109.975 38.275C109.025 37.3625 108.562 36.9 108.287 36.325C107.85 35.3875 108.137 34.9875 107.625 33.8C107.35 33.15 107.025 32.7125 106.787 32.375C105.575 30.7375 103.825 29.775 102.938 29.3375Z" fill="black"/>
<path opacity="0.52" d="M94.05 47.9C94.1625 49.35 95.4875 50.4 96.875 50.2C98.2125 50 99.175 48.7 98.9375 47.3125C99.1875 47.6 99.5375 48.075 99.7875 48.725C99.9875 49.2375 100.062 49.7 100.087 50.0375C99.9 50.35 98.925 51.9 97.1 52.2C96.7875 52.25 95.0125 52.5125 94.175 51.45C93.775 50.925 93.7375 50.2875 93.7125 49.775C93.6875 48.9375 93.9 48.275 94.05 47.9Z" fill="black"/>
<path d="M91.7 39.65C91.825 39.9 91.825 40.2625 91.6625 40.3375C91.5 40.425 91.1875 40.1875 91.075 39.9125C90.9875 39.675 91.0126 39.3375 91.1751 39.275C91.3501 39.2125 91.6 39.4375 91.7 39.65Z" fill="#161616"/>
<path d="M90.675 39.3625C91.1125 39.2125 91.5625 39.1 92.025 39.025C92.2 39 92.125 38.725 91.95 38.75C91.4875 38.825 91.0375 38.9375 90.6 39.0875C90.425 39.15 90.5 39.4125 90.675 39.3625Z" fill="#161616"/>
</svg>
