<svg width="200" height="159" viewBox="0 0 200 159" fill="none" xmlns="http://www.w3.org/2000/svg">
<path fill-rule="evenodd" clip-rule="evenodd" d="M107.306 0.1265C131.713 1.89199 146.533 25.5221 159.824 46.068C171.03 63.3882 177.68 82.8733 173.965 103.165C170.022 124.705 159.901 146.738 139.803 155.431C120.342 163.849 99.9137 152.143 80.5121 143.588C59.7726 134.443 35.212 127.526 27.8785 106.079C19.9003 82.7464 29.5186 57.4425 44.3095 37.7122C59.7406 17.1278 81.6468 -1.72957 107.306 0.1265Z" fill="#E8ECFB"/>
<path d="M116.613 20.225C113.55 22.0375 112.675 25.1625 112.313 26.45C112.225 26.7625 111.2 30.6 112.975 34.6C113.5 35.7875 114.063 37.0125 115.338 37.6C116.075 37.95 116.738 37.925 119.338 37.7C120.55 37.6 121.863 37.475 123.263 37.325C124.25 36.0625 125.95 33.5375 126.45 29.9875C126.538 29.325 127.563 21.425 123.263 19.325C120.45 17.9375 117.063 19.95 116.613 20.225Z" fill="#F66F5D"/>
<path d="M60.0625 38.8624C61.6228 38.8624 62.8876 37.4633 62.8876 35.7374C62.8876 34.0115 61.6228 32.6124 60.0625 32.6124C58.5023 32.6124 57.2375 34.0115 57.2375 35.7374C57.2375 37.4633 58.5023 38.8624 60.0625 38.8624Z" fill="#F66F5D"/>
<path d="M124.125 88.9375C125.285 88.9375 126.225 88.0308 126.225 86.9125C126.225 85.7941 125.285 84.8875 124.125 84.8875C122.965 84.8875 122.025 85.7941 122.025 86.9125C122.025 88.0308 122.965 88.9375 124.125 88.9375Z" fill="#F66F5D"/>
<path d="M60.0875 76.7125C60.9505 76.7125 61.65 76.013 61.65 75.15C61.65 74.2871 60.9505 73.5875 60.0875 73.5875C59.2246 73.5875 58.525 74.2871 58.525 75.15C58.525 76.013 59.2246 76.7125 60.0875 76.7125Z" fill="#F66F5D"/>
<path d="M57.175 37.825C58.5488 37.825 59.6625 36.6553 59.6625 35.2125C59.6625 33.7696 58.5488 32.6 57.175 32.6C55.8012 32.6 54.6875 33.7696 54.6875 35.2125C54.6875 36.6553 55.8012 37.825 57.175 37.825Z" fill="#505050"/>
<path d="M123.55 85.7375C124.399 85.7375 125.087 85.0211 125.087 84.1375C125.087 83.2538 124.399 82.5375 123.55 82.5375C122.701 82.5375 122.012 83.2538 122.012 84.1375C122.012 85.0211 122.701 85.7375 123.55 85.7375Z" fill="#505050"/>
<path d="M144.1 41.6124C145.032 41.6124 145.787 40.8066 145.787 39.8125C145.787 38.8183 145.032 38.0125 144.1 38.0125C143.168 38.0125 142.412 38.8183 142.412 39.8125C142.412 40.8066 143.168 41.6124 144.1 41.6124Z" fill="#505050"/>
<path d="M107.45 52.7375C107.175 52.3 106.725 52.7125 106.538 53.0125C106.15 53.6375 105.9 54.4125 106.188 55.125C106.4 55.6625 106.925 56.1125 107.538 56.025C108.1 55.95 108.525 55.4875 108.513 54.925C108.513 54.775 108.3 54.6625 108.188 54.7875C107.525 55.625 106.713 56.8125 107.375 57.8875C107.838 58.625 108.975 58.725 109.425 57.925C109.313 57.9125 109.2 57.9 109.088 57.875C109.15 58.225 109.213 58.575 109.263 58.925C109.3 59.1625 109.663 59.0625 109.625 58.825C109.563 58.475 109.5 58.125 109.45 57.775C109.425 57.6125 109.175 57.6 109.113 57.725C108.913 58.075 108.463 58.2 108.1 58.025C107.7 57.825 107.525 57.375 107.525 56.9375C107.525 56.2125 108.038 55.575 108.463 55.0375C108.35 54.9875 108.25 54.95 108.138 54.9C108.15 55.375 107.688 55.725 107.225 55.625C106.875 55.55 106.65 55.25 106.525 54.925C106.4 54.5875 106.413 54.25 106.513 53.9125C106.525 53.8875 107.038 52.775 107.113 52.9C107.25 53.125 107.575 52.9375 107.45 52.7375Z" fill="#F66F5D"/>
<path d="M56.4125 53.8625C56.6875 53.1125 57.6 53.4375 57.8875 53.9625C57.9875 54.1375 58.0375 54.3375 58.0625 54.5375C58.1125 54.9125 58.075 55.0625 57.75 55.2875C57.4 55.6375 57.3125 55.5 57.5 54.875C57.5875 54.8375 57.6875 54.8 57.775 54.7625C58.0125 54.7 58.2875 54.7125 58.525 54.7875C59.125 54.9875 59.425 55.625 59.3375 56.2125C59.3125 56.3625 59.4625 56.5125 59.6125 56.425C60.425 55.9625 61.5 56.475 61.6875 57.3875C61.7375 57.625 62.1 57.525 62.05 57.2875C61.8125 56.1375 60.45 55.5375 59.425 56.1125C59.5125 56.1875 59.6125 56.25 59.7 56.325C59.8625 55.225 59.025 54.2 57.8625 54.375C57.4625 54.4375 56.8625 54.6875 56.8125 55.1625C56.775 55.55 57.1375 55.8375 57.5 55.875C58.575 55.975 58.55 54.4125 58.2 53.7875C57.725 52.9375 56.4125 52.725 56.0375 53.775C55.9625 53.9875 56.325 54.0875 56.4125 53.8625Z" fill="#F66F5D"/>
<path d="M122.225 100.912C123.188 101.55 124 102.362 124.65 103.312C124.788 103.512 125.113 103.325 124.975 103.125C124.288 102.125 123.438 101.275 122.425 100.6C122.213 100.45 122.025 100.775 122.225 100.912Z" fill="#505050"/>
<path d="M124.662 101.6C124.862 101.838 125.05 102.088 125.25 102.325C125.4 102.513 125.662 102.25 125.512 102.063C125.312 101.825 125.125 101.575 124.925 101.338C124.775 101.15 124.512 101.425 124.662 101.6Z" fill="#505050"/>
<path d="M123.513 98.0999C124.375 98.8999 125.088 99.8124 125.638 100.85C125.75 101.062 126.075 100.875 125.963 100.662C125.4 99.5999 124.663 98.6499 123.775 97.8374C123.6 97.6624 123.338 97.9374 123.513 98.0999Z" fill="#505050"/>
<path d="M37.0875 112.175C37.3625 114.887 37.8375 117.562 38.5 120.212C38.5625 120.45 38.925 120.35 38.8625 120.112C38.2125 117.5 37.7375 114.85 37.4625 112.175C37.4375 111.937 37.0625 111.937 37.0875 112.175Z" fill="#E8E8E8"/>
<path d="M38.5749 120.337C41.0374 120.975 43.5999 120.975 46.0624 120.337C46.2999 120.275 46.1999 119.912 45.9624 119.975C43.5624 120.6 41.0749 120.6 38.6749 119.975C38.4499 119.912 38.3499 120.275 38.5749 120.337Z" fill="#E8E8E8"/>
<path d="M46.3499 119.963C46.5124 117.3 46.7249 114.637 46.9749 111.975C46.9999 111.737 46.6249 111.737 46.5999 111.975C46.3499 114.637 46.1374 117.3 45.9749 119.963C45.9624 120.2 46.3374 120.2 46.3499 119.963Z" fill="#E8E8E8"/>
<path d="M37.3 112.375C40.4125 113.013 43.6125 112.988 46.725 112.288C46.9625 112.238 46.8625 111.875 46.625 111.925C43.5875 112.6 40.45 112.638 37.4 112.013C37.1625 111.963 37.0625 112.325 37.3 112.375Z" fill="#E8E8E8"/>
<path d="M37.2624 113.275C37.3624 113.787 38.0124 113.762 38.4124 113.8C39.4249 113.887 40.4499 113.912 41.4624 113.887C42.4374 113.862 43.4124 113.787 44.3874 113.675C45.1624 113.575 45.9124 113.475 46.5999 113.087C46.8124 112.975 46.6249 112.65 46.4124 112.762C45.1749 113.45 43.4624 113.425 42.0749 113.487C41.3874 113.512 40.6874 113.525 39.9999 113.512C39.6374 113.5 37.6999 113.587 37.6249 113.175C37.5749 112.937 37.2249 113.037 37.2624 113.275Z" fill="#E8E8E8"/>
<path d="M37.975 117.613C38.575 118.675 39.3375 119.613 40.25 120.425C40.425 120.588 40.7 120.325 40.5125 120.163C39.6125 119.375 38.875 118.463 38.3 117.425C38.1875 117.213 37.8625 117.4 37.975 117.613Z" fill="#E8E8E8"/>
<path d="M37.4875 114.725C38.7625 116.875 40.3125 118.85 42.0875 120.625C42.2625 120.8 42.525 120.525 42.35 120.362C40.6 118.612 39.075 116.662 37.8125 114.537C37.6875 114.337 37.3625 114.525 37.4875 114.725Z" fill="#E8E8E8"/>
<path d="M39.575 113.825C40.9 116.187 42.4375 118.425 44.175 120.512C44.325 120.7 44.5875 120.437 44.4375 120.25C42.725 118.187 41.2 115.975 39.9 113.637C39.7875 113.425 39.4625 113.612 39.575 113.825Z" fill="#E8E8E8"/>
<path d="M41.9624 113.912C43.2499 115.837 44.5499 117.75 45.8624 119.662C45.9999 119.862 46.3249 119.675 46.1874 119.475C44.8749 117.562 43.5749 115.65 42.2874 113.725C42.1499 113.525 41.8249 113.712 41.9624 113.912Z" fill="#E8E8E8"/>
<path d="M43.9624 113.8C44.6124 114.85 45.3124 115.875 46.0374 116.875C46.1749 117.062 46.4999 116.875 46.3624 116.687C45.6374 115.687 44.9374 114.662 44.2874 113.612C44.1624 113.412 43.8374 113.6 43.9624 113.8Z" fill="#E8E8E8"/>
<path d="M33.15 101.175C33.3 102.037 33.45 102.912 33.6125 103.775C33.6625 104.012 33.7 104.262 33.9 104.412C34.0375 104.525 34.4875 104.512 34.575 104.637C34.5875 104.562 34.6 104.487 34.6 104.412C34.4125 104.6 34.225 104.787 34.025 104.962C33.975 105.012 33.9625 105.087 33.975 105.15C34.0875 105.487 34.1625 105.987 34.3875 106.275C34.5 106.425 34.7 106.4 34.7875 106.487C34.8625 106.562 34.8375 106.512 34.8 106.737C34.775 106.925 34.775 107.125 34.8 107.325C34.8375 107.625 34.925 107.912 35.0375 108.187C35.6875 109.762 36.95 111.037 38.1625 112.212C38.3375 112.375 38.6 112.112 38.425 111.95C37.65 111.2 36.875 110.425 36.2375 109.55C35.6125 108.687 34.875 107.525 35.2625 106.425C35.2875 106.362 35.2625 106.275 35.2125 106.237C34.975 106.05 34.7375 106.125 34.575 105.825C34.2625 105.262 34.4375 105.075 34.8375 104.687C34.9 104.637 34.9125 104.525 34.8625 104.462C34.7625 104.312 34.6875 104.262 34.525 104.212C34.425 104.175 34.275 104.212 34.175 104.162C33.9625 104.05 33.9625 103.775 33.925 103.575C33.775 102.75 33.625 101.912 33.4875 101.087C33.4625 100.837 33.1 100.937 33.15 101.175Z" fill="#E8E8E8"/>
<path d="M33.4249 101.125C38.2999 102.75 41.6374 107.3 41.7374 112.45C41.7374 112.687 42.1124 112.687 42.1124 112.45C42.0124 107.137 38.5624 102.45 33.5249 100.762C33.2999 100.687 33.1999 101.05 33.4249 101.125Z" fill="#E8E8E8"/>
<path d="M40.9125 107.325C42.125 103.962 43.9125 100.712 46.775 98.5C46.9625 98.35 46.775 98.025 46.5875 98.175C43.6375 100.462 41.8 103.762 40.55 107.225C40.475 107.45 40.8375 107.55 40.9125 107.325Z" fill="#E8E8E8"/>
<path d="M46.45 98.425C46.5375 99.575 46.6375 100.725 46.725 101.887C46.75 102.125 47.125 102.125 47.1 101.887C47.0125 100.737 46.9125 99.5875 46.825 98.425C46.8125 98.1875 46.4375 98.1875 46.45 98.425Z" fill="#E8E8E8"/>
<path d="M46.8874 101.762C46.7249 101.8 46.5624 101.837 46.4124 101.887C46.1749 101.95 46.2749 102.312 46.5124 102.25C46.6749 102.212 46.8374 102.175 46.9874 102.125C47.2249 102.062 47.1249 101.712 46.8874 101.762Z" fill="#E8E8E8"/>
<path d="M46.225 102.225C46.275 102.463 46.475 102.613 46.7 102.638C46.8 102.65 46.8875 102.55 46.8875 102.45C46.8875 102.338 46.8 102.275 46.7 102.263C46.7375 102.263 46.7 102.263 46.6875 102.263C46.675 102.263 46.65 102.25 46.675 102.263C46.6625 102.25 46.65 102.25 46.6375 102.238C46.6125 102.225 46.6625 102.263 46.625 102.225C46.6125 102.213 46.6125 102.213 46.6 102.2C46.625 102.225 46.6 102.2 46.6 102.188C46.5875 102.175 46.5875 102.15 46.5875 102.175C46.5875 102.163 46.575 102.138 46.575 102.125C46.55 102.025 46.4375 101.963 46.35 102C46.25 102.025 46.2 102.125 46.225 102.225Z" fill="#E8E8E8"/>
<path d="M46.5124 102.5C46.5249 103.212 46.4999 103.912 46.4249 104.612C46.3999 104.837 46.4374 105.362 46.2874 105.537C46.2749 105.55 46.0499 105.587 45.9999 105.625C45.8124 105.775 46.0749 106.037 46.2624 105.887C46.3249 105.837 46.4749 105.887 46.5749 105.775C46.7249 105.625 46.6999 105.275 46.7249 105.1C46.8374 104.237 46.8874 103.362 46.8749 102.487C46.8874 102.262 46.5124 102.262 46.5124 102.5Z" fill="#E8E8E8"/>
<path d="M45.8499 105.95C46.2499 106.425 46.1374 107.212 46.0999 107.787C46.0499 108.45 45.9374 109.062 45.6124 109.637C45.1499 110.487 44.4999 111.2 44.1624 112.125C44.0749 112.35 44.4374 112.45 44.5249 112.225C44.9749 111.012 46.0124 110.112 46.3249 108.837C46.5499 107.925 46.7624 106.462 46.1124 105.687C45.9624 105.512 45.6999 105.775 45.8499 105.95Z" fill="#E8E8E8"/>
<path d="M42.9 112.3C43.25 108.75 44.1875 105.288 45.6875 102.063C45.7875 101.85 45.4625 101.65 45.3625 101.875C43.8375 105.175 42.875 108.688 42.525 112.313C42.5 112.55 42.875 112.538 42.9 112.3Z" fill="#E8E8E8"/>
<path d="M35.525 103.213C37.7125 105.963 39.3125 109.125 40.25 112.5C40.3125 112.738 40.675 112.638 40.6125 112.4C39.65 108.95 38.0125 105.75 35.7875 102.95C35.6375 102.763 35.375 103.025 35.525 103.213Z" fill="#E8E8E8"/>
<path d="M35.7625 107.825C36.8125 107.762 37.7874 108.012 38.6749 108.562C38.8749 108.687 39.0749 108.363 38.8624 108.238C37.9249 107.663 36.8625 107.387 35.7625 107.45C35.5125 107.462 35.5125 107.837 35.7625 107.825Z" fill="#E8E8E8"/>
<path d="M38.05 106.15C37.975 105.462 38.0625 104.8 38.325 104.15C38.4125 103.925 38.05 103.825 37.9625 104.05C37.6875 104.725 37.6 105.425 37.675 106.15C37.7 106.387 38.075 106.387 38.05 106.15Z" fill="#E8E8E8"/>
<path d="M42.0999 104.075C42.5124 105.087 43.1124 106.162 43.2624 107.237C43.2999 107.475 43.6624 107.375 43.6249 107.137C43.4624 106.05 42.8624 104.975 42.4624 103.975C42.3749 103.75 42.0124 103.85 42.0999 104.075Z" fill="#E8E8E8"/>
<path d="M44.3999 105.262C44.7624 104.85 45.1124 104.362 45.5749 104.05C45.9624 103.787 46.3874 103.612 46.6874 103.25C46.8374 103.062 46.5749 102.8 46.4249 102.987C46.0999 103.375 45.6249 103.537 45.2374 103.837C44.8124 104.162 44.4874 104.6 44.1374 105C43.9749 105.187 44.2374 105.45 44.3999 105.262Z" fill="#E8E8E8"/>
<path d="M44.525 112.175C45.125 112.013 45.7375 111.95 46.3625 111.988C46.6 112 46.6 111.625 46.3625 111.613C45.7 111.575 45.0625 111.638 44.425 111.813C44.2 111.875 44.2875 112.238 44.525 112.175Z" fill="#E8E8E8"/>
<path d="M44.475 112.325C45.175 112.387 45.85 112.3 46.525 112.088C46.75 112.013 46.65 111.65 46.425 111.725C45.7875 111.925 45.1375 112 44.475 111.95C44.2375 111.937 44.2375 112.312 44.475 112.325Z" fill="#E8E8E8"/>
<path d="M37.4624 112.262C37.6249 112.262 37.7749 112.262 37.9374 112.262C38.1749 112.262 38.1749 111.887 37.9374 111.887C37.7749 111.887 37.6249 111.887 37.4624 111.887C37.2249 111.887 37.2249 112.262 37.4624 112.262Z" fill="#E8E8E8"/>
<path d="M46.6249 115.287C50.5874 115.287 54.5624 115.287 58.5249 115.287C58.7624 115.287 58.7624 114.912 58.5249 114.912C54.5624 114.912 50.5874 114.912 46.6249 114.912C46.3874 114.912 46.3874 115.287 46.6249 115.287Z" fill="#E8E8E8"/>
<path d="M113.7 112.812C116.062 112.812 118.412 112.812 120.775 112.812C121.012 112.812 121.012 112.438 120.775 112.438C118.412 112.438 116.062 112.438 113.7 112.438C113.462 112.438 113.462 112.812 113.7 112.812Z" fill="#E8E8E8"/>
<path d="M135.15 113.037C145.337 113.037 155.525 113.037 165.712 113.037C168.612 113.037 171.512 113.037 174.412 113.037C174.65 113.037 174.65 112.662 174.412 112.662C164.225 112.662 154.037 112.662 143.85 112.662C140.95 112.662 138.05 112.662 135.15 112.662C134.912 112.662 134.912 113.037 135.15 113.037Z" fill="#E8E8E8"/>
<path d="M120.062 72C119.112 73.9625 118.087 75.8875 117 77.775C116.95 77.875 116.987 78.0375 117.112 78.05C122.475 78.8625 127.275 81.525 131.9 84.2125C132.112 84.3375 132.3 84.0125 132.087 83.8875C127.425 81.1875 122.6 78.5125 117.2 77.6875C117.237 77.775 117.275 77.875 117.312 77.9625C118.412 76.075 119.425 74.15 120.375 72.1875C120.487 71.975 120.175 71.775 120.062 72Z" fill="#E8E8E8"/>
<path d="M120.887 78.8124C121.262 77.7374 121.637 76.6499 122.012 75.5749C122.175 75.1249 122.287 74.6249 122.5 74.1874C122.55 73.9249 122.712 73.7249 122.962 73.5749C123.112 73.6124 123.262 73.6499 123.412 73.6874C123.637 73.7499 123.862 73.7999 124.075 73.8624C124.587 73.9874 125.412 73.9874 125.325 74.6749C125.262 75.1624 124.975 75.6874 124.812 76.1624C124.437 77.2249 124.075 78.2874 123.7 79.3499C123.625 79.5749 123.987 79.6749 124.062 79.4499C124.55 78.0499 125.037 76.6374 125.525 75.2374C125.637 74.9124 125.95 74.3624 125.7 74.0124C125.425 73.6374 124.6 73.6124 124.175 73.4999C123.762 73.3999 123.037 73.0249 122.612 73.2249C122.25 73.3874 122.175 74.0124 122.062 74.3249C121.55 75.7874 121.037 77.2624 120.525 78.7249C120.45 78.9374 120.812 79.0374 120.887 78.8124Z" fill="#E8E8E8"/>
<path d="M125.712 80.15C126.512 78.4625 127.325 76.7624 128.125 75.0749C128.525 74.2249 128.925 73.3874 129.337 72.5374C129.525 72.1499 129.675 71.6874 129.912 71.3249C130.112 71.0124 130.162 70.9374 130.512 71.0749C130.7 71.1499 130.925 71.3374 131.087 71.4499C131.3 71.5999 131.637 71.7625 131.787 71.9625C131.975 72.2 131.9 72.4499 131.787 72.7499C131.637 73.1499 131.412 73.5375 131.225 73.925C130.812 74.775 130.4 75.6249 129.962 76.4749C129.137 78.0874 128.275 79.6875 127.387 81.275C127.262 81.4875 127.587 81.675 127.712 81.4625C128.8 79.5375 129.837 77.5875 130.812 75.6125C131.3 74.6375 131.837 73.6374 132.25 72.6249C132.537 71.8874 131.912 71.5874 131.362 71.1999C130.925 70.8999 130.237 70.2125 129.762 70.775C129.462 71.125 129.3 71.7124 129.1 72.1374C128.85 72.6499 128.612 73.1624 128.362 73.6874C127.362 75.7874 126.362 77.8875 125.375 79.9875C125.287 80.175 125.612 80.375 125.712 80.15Z" fill="#E8E8E8"/>
<path d="M129.863 82.75C130.938 81.0625 132.15 79.4625 133.488 77.9875C133.413 78 133.337 78.0125 133.262 78.0125C133.737 78.3375 134.2 78.65 134.675 78.975C134.65 78.8875 134.625 78.8 134.613 78.7125C133.55 80.375 132.488 82.025 131.425 83.6875C131.3 83.8875 131.613 84.075 131.75 83.875C132.813 82.2125 133.875 80.5625 134.938 78.9C135 78.8125 134.95 78.7 134.875 78.6375C134.4 78.3125 133.937 78 133.462 77.675C133.4 77.625 133.288 77.65 133.238 77.7C131.875 79.2125 130.638 80.825 129.55 82.5375C129.413 82.775 129.738 82.9625 129.863 82.75Z" fill="#E8E8E8"/>
<path d="M144.775 70.8625C143.525 70.3875 142.737 69.1375 142.962 67.8C143.187 66.4375 144.525 65.225 145.9 66.0375C146.85 66.6 147.337 67.875 146.975 68.9125C146.6 70.025 145.375 70.6875 144.237 70.5125C144 70.475 143.9 70.8375 144.137 70.875C145.475 71.075 146.887 70.3375 147.337 69.0125C147.787 67.6875 147.062 66.0875 145.762 65.55C144.237 64.925 142.85 66.2375 142.587 67.7C142.312 69.25 143.225 70.675 144.662 71.225C144.9 71.3125 145 70.95 144.775 70.8625Z" fill="#E8E8E8"/>
<path d="M147.337 70.625C144.85 70.55 145.787 66.5625 147.987 66.7125C150.187 66.875 149.287 71.3625 146.875 70.5375C146.65 70.4625 146.55 70.825 146.775 70.9C149.562 71.85 150.812 66.775 148.15 66.35C146.85 66.1375 145.675 67.3625 145.475 68.575C145.275 69.775 146.087 70.95 147.337 70.9875C147.575 71.0125 147.575 70.6375 147.337 70.625Z" fill="#E8E8E8"/>
<path d="M145.475 59.3125C145.262 59.0875 145.162 58.725 145.325 58.45C145.487 58.1875 145.887 58.0625 146.137 58.2625C146.362 58.4375 146.412 58.8125 146.2 59C145.95 59.225 145.55 59.1125 145.312 58.925C145.125 58.775 144.862 59.0375 145.05 59.1875C145.437 59.4875 146.037 59.6375 146.45 59.275C146.825 58.9375 146.787 58.3125 146.412 57.9875C146.025 57.65 145.412 57.75 145.087 58.125C144.725 58.55 144.825 59.1875 145.2 59.575C145.375 59.75 145.637 59.4875 145.475 59.3125Z" fill="#E8E8E8"/>
<path d="M109.2 68.725C108.85 66.6 110.087 64.0375 112.487 64.0625C113.712 64.075 114.9 64.575 116.137 64.4C117.012 64.275 117.762 63.775 118.287 63.0875C118.812 62.4 119.112 61.5375 119.162 60.675C119.225 59.4 118.737 58.1 119.087 56.8375C119.262 56.2 119.637 55.6125 120.275 55.375C120.887 55.1625 121.55 55.2875 122.187 55.2625C123.112 55.225 123.837 54.825 124.3 54.0125C124.95 52.875 124.8 51.5125 125.25 50.3125C125.787 48.8625 127.3 47.625 128.9 48.3375C129.112 48.4375 129.312 48.1125 129.087 48.0125C126.912 47.0375 125.1 49 124.675 50.975C124.4 52.2625 124.45 54.2625 122.912 54.775C121.837 55.1375 120.625 54.575 119.637 55.3125C118.825 55.9125 118.587 57.0125 118.6 57.975C118.637 59.3875 119.075 60.7625 118.45 62.1125C117.875 63.3875 116.737 64.15 115.325 64.0625C114.075 63.9875 112.837 63.475 111.575 63.8C109.437 64.3375 108.525 66.8625 108.862 68.8375C108.887 69.05 109.25 68.95 109.2 68.725Z" fill="#E8E8E8"/>
<path d="M125 59.8124C124.537 58.7624 125.175 57.7624 126.187 57.4249C126.925 57.1749 127.737 57.1624 128.375 56.6624C128.875 56.2749 129.037 55.7874 128.975 55.1624C128.912 54.5749 128.912 54.1124 129.375 53.7124C129.762 53.3749 130.275 53.2499 130.775 53.2249C132.15 53.1749 134.037 53.8749 135.037 52.5374C135.5 51.9124 135.362 51.1374 135.575 50.4374C135.862 49.4624 136.8 48.8624 137.8 48.9124C138.037 48.9249 138.037 48.5499 137.8 48.5374C137.037 48.4999 136.3 48.7874 135.775 49.3374C135.125 50.0249 135.212 50.7999 135.012 51.6624C134.475 54.0249 131.187 52.3624 129.637 53.0999C129.062 53.3749 128.6 53.8624 128.55 54.5124C128.487 55.2749 128.837 55.8999 128.062 56.4249C127.65 56.6999 127.175 56.7874 126.7 56.8999C125.912 57.0874 125.137 57.3249 124.737 58.0874C124.412 58.6874 124.412 59.3749 124.687 59.9874C124.775 60.2249 125.087 60.0249 125 59.8124Z" fill="#E8E8E8"/>
<path d="M147.275 43.1624C147.225 43.0499 147.175 42.9249 147.137 42.7999C147.3 42.6124 147.45 42.4249 147.612 42.2374C147.662 42.2249 147.887 42.3749 147.962 42.3749C148.15 42.3999 148.312 42.3499 148.462 42.2374C148.925 41.8749 148.762 41.2999 148.9 40.8124C149.125 39.9749 150.112 40.5499 150.562 39.9249C151.012 39.3124 150.85 38.0124 152.05 38.3624C152.287 38.4249 152.387 38.0624 152.15 37.9999C151.462 37.7999 150.837 38.1249 150.587 38.7874C150.512 38.9749 150.487 39.1874 150.412 39.3749C150.25 39.8124 150.075 39.8749 149.6 39.8999C149.25 39.9249 148.975 39.8999 148.737 40.1999C148.537 40.4624 148.537 40.7999 148.5 41.1124C148.462 41.5749 148.5 41.9624 147.812 41.9124C147.675 41.8999 147.562 41.7749 147.412 41.7749C146.587 41.7624 146.725 42.7749 146.925 43.2624C147 43.4874 147.375 43.3874 147.275 43.1624Z" fill="#E8E8E8"/>
<path d="M149.625 44.1999C149.425 43.9374 149.087 43.1749 149.675 42.9749C149.887 42.8999 150.162 42.9874 150.387 42.9874C150.587 42.9874 150.762 42.9874 150.925 42.8499C151.425 42.4499 151.062 41.7374 151.325 41.2374C151.75 40.4249 152.6 41.0624 153.2 40.6374C153.625 40.3374 153.737 39.7624 153.812 39.2874C153.85 39.0499 153.487 38.9499 153.45 39.1874C153.362 39.7499 153.262 40.3749 152.562 40.4374C152.2 40.4749 151.925 40.3499 151.587 40.5124C151.037 40.7749 150.862 41.2624 150.85 41.8249C150.837 42.2999 150.95 42.5374 150.15 42.5749C150.05 42.5749 149.95 42.5499 149.85 42.5499C149.562 42.5749 149.312 42.7249 149.15 42.9624C148.8 43.4624 149 44.0374 149.35 44.4749C149.512 44.6624 149.775 44.3874 149.625 44.1999Z" fill="#E8E8E8"/>
<path d="M43.3499 50.975C44.3874 49.725 45.8624 48.7 47.5624 48.875C49.4124 49.0625 50.3249 50.5375 50.4999 52.2625C50.7999 55.125 50.0999 58.55 52.0374 60.9875C52.7999 61.95 53.9374 62.4625 55.1624 62.1625C56.6374 61.8125 57.7874 60.65 59.0999 59.9625C60.6499 59.15 62.7874 58.7125 64.1874 60.075C65.2124 61.075 65.4374 62.6 65.7749 63.925C66.0874 65.125 66.6249 66.45 67.6999 67.1625C68.3499 67.5875 69.0624 67.625 69.8124 67.575C70.6499 67.5125 72.3624 67.4625 72.1874 68.775C72.1624 69.0125 72.5374 69.0125 72.5624 68.775C72.6249 68.2625 72.3874 67.85 71.9749 67.55C71.3249 67.075 70.5749 67.15 69.8124 67.2C68.9499 67.2625 68.2124 67.1875 67.5499 66.575C66.9499 66.025 66.5874 65.25 66.3249 64.4875C65.8874 63.175 65.7624 61.7375 65.0124 60.5375C64.2749 59.35 62.9999 58.775 61.6249 58.825C59.8874 58.8875 58.4249 59.8875 57.0374 60.8125C56.3749 61.25 55.6624 61.7125 54.8499 61.85C53.8749 62.0125 53.0124 61.5875 52.3874 60.8625C51.2124 59.4875 51.0249 57.525 50.9624 55.8C50.8999 54.1875 51.1124 52.4375 50.5749 50.875C50.0874 49.45 48.8499 48.5625 47.3624 48.4875C45.6374 48.4 44.1249 49.4375 43.0624 50.7125C42.9249 50.9 43.1874 51.1625 43.3499 50.975Z" fill="#E8E8E8"/>
<path d="M37.0374 70.2624C38.9874 73.5124 40.7249 76.8749 42.2624 80.3374C42.3624 80.5624 42.6874 80.3624 42.5874 80.1499C41.0499 76.6874 39.2999 73.3249 37.3624 70.0749C37.2374 69.8624 36.9124 70.0499 37.0374 70.2624Z" fill="#E8E8E8"/>
<path d="M37.275 70.1125C40.3125 68.225 43.4375 66.4625 46.65 64.8625C46.8625 64.75 46.675 64.425 46.4625 64.5375C43.2625 66.1375 40.1375 67.9 37.0875 69.7875C36.875 69.925 37.0625 70.25 37.275 70.1125Z" fill="#E8E8E8"/>
<path d="M46.425 64.7C48.0125 68.0375 49.6875 71.325 51.4625 74.5625C51.575 74.775 51.9 74.5875 51.7875 74.375C50.0125 71.1375 48.325 67.85 46.75 64.5125C46.6375 64.2875 46.325 64.475 46.425 64.7Z" fill="#E8E8E8"/>
<path d="M42.6874 80.4125C45.6749 78.6125 48.6249 76.7625 51.5499 74.8625C51.7499 74.7375 51.5624 74.4125 51.3624 74.5375C48.4374 76.4375 45.4874 78.2875 42.4999 80.0875C42.2999 80.2125 42.4874 80.5375 42.6874 80.4125Z" fill="#E8E8E8"/>
<path d="M42.4499 69.0125C42.3749 71.4125 42.5124 73.8 42.8624 76.175C42.8999 76.4125 43.2624 76.3125 43.2249 76.075C42.8749 73.7375 42.7499 71.375 42.8249 69.0125C42.8374 68.775 42.4624 68.775 42.4499 69.0125Z" fill="#E8E8E8"/>
<path d="M42.4625 68.8875C44.2 70.25 45.9375 71.5875 47.7 72.9125C47.8875 73.0625 48.075 72.7375 47.8875 72.5875C46.15 71.2875 44.425 69.9625 42.725 68.625C42.5375 68.475 42.275 68.7375 42.4625 68.8875Z" fill="#E8E8E8"/>
<path d="M43.2499 76.25C44.6874 74.9625 46.5624 74.275 47.9249 72.8875C48.0999 72.7125 47.8249 72.45 47.6624 72.625C46.2999 74 44.4374 74.7 42.9874 75.9875C42.7999 76.1375 43.0749 76.4 43.2499 76.25Z" fill="#E8E8E8"/>
<path d="M37.5374 72.225C37.9374 72.025 38.3374 71.8375 38.7374 71.6375C38.9499 71.5375 38.7624 71.2125 38.5499 71.3125C38.1499 71.5125 37.7499 71.7 37.3499 71.9C37.1374 72.0125 37.3249 72.325 37.5374 72.225Z" fill="#E8E8E8"/>
<path d="M38.825 74.3499C39.1625 74.1249 39.525 73.9374 39.9 73.7749C40.125 73.6874 40.025 73.3249 39.8 73.4124C39.3875 73.5874 39 73.7874 38.625 74.0249C38.4375 74.1624 38.625 74.4874 38.825 74.3499Z" fill="#E8E8E8"/>
<path d="M40.2374 76.7999C40.5874 76.6249 40.9374 76.4499 41.2874 76.2874C41.4999 76.1749 41.3124 75.8624 41.0999 75.9624C40.7499 76.1374 40.3999 76.3124 40.0499 76.4749C39.8374 76.5749 40.0249 76.8999 40.2374 76.7999Z" fill="#E8E8E8"/>
<path d="M40.9625 79.25C41.35 78.9125 41.75 78.625 42.2 78.375C42.4125 78.25 42.225 77.9375 42.0125 78.05C41.55 78.3125 41.1125 78.625 40.7 78.9875C40.5125 79.15 40.775 79.4125 40.9625 79.25Z" fill="#E8E8E8"/>
<path d="M47.1375 67.1625C47.425 66.9625 47.725 66.825 48.0625 66.7375C48.3 66.675 48.2 66.325 47.9625 66.375C47.6 66.4625 47.25 66.6125 46.9375 66.8375C46.75 66.975 46.9375 67.3 47.1375 67.1625Z" fill="#E8E8E8"/>
<path d="M48.25 69.2999C48.65 69.0499 49.05 68.7999 49.4375 68.5374C49.6375 68.4124 49.45 68.0874 49.25 68.2124C48.85 68.4624 48.45 68.7124 48.0625 68.9749C47.85 69.1124 48.0375 69.4374 48.25 69.2999Z" fill="#E8E8E8"/>
<path d="M49.5249 71.8624C49.9499 71.6749 50.3874 71.4874 50.8124 71.2999C51.0374 71.1999 50.8374 70.8749 50.6249 70.9749C50.1999 71.1624 49.7624 71.3499 49.3374 71.5374C49.1124 71.6374 49.3124 71.9624 49.5249 71.8624Z" fill="#E8E8E8"/>
<path d="M50.4374 73.5375C50.7749 73.2125 51.1499 72.9375 51.5624 72.7C51.7749 72.5875 51.5874 72.2625 51.3749 72.375C50.9374 72.625 50.5374 72.9125 50.1749 73.2625C49.9999 73.4375 50.2624 73.7 50.4374 73.5375Z" fill="#E8E8E8"/>
<path d="M43.7499 78.7625C44.0624 79.225 44.3249 79.7125 44.5249 80.225C44.6124 80.45 44.9749 80.35 44.8874 80.125C44.6749 79.575 44.4124 79.05 44.0749 78.5625C43.9374 78.375 43.6124 78.5625 43.7499 78.7625Z" fill="#E8E8E8"/>
<path d="M45.6625 77.7249C45.9 78.1499 46.125 78.5625 46.3625 78.9875C46.475 79.2 46.8 79.0125 46.6875 78.8C46.45 78.375 46.225 77.9624 45.9875 77.5374C45.875 77.3249 45.55 77.5124 45.6625 77.7249Z" fill="#E8E8E8"/>
<path d="M47.875 76.1374C48.125 76.5874 48.375 77.0374 48.625 77.4874C48.7375 77.6999 49.0625 77.5124 48.95 77.2999C48.7 76.8499 48.45 76.3999 48.2 75.9499C48.0875 75.7374 47.7625 75.9249 47.875 76.1374Z" fill="#E8E8E8"/>
<path d="M49.8624 74.9499C50.0624 75.4249 50.2624 75.8999 50.4749 76.3624C50.5749 76.5874 50.8874 76.3874 50.7999 76.1749C50.5999 75.6999 50.3999 75.2249 50.1874 74.7624C50.0874 74.5499 49.7624 74.7374 49.8624 74.9499Z" fill="#E8E8E8"/>
<path d="M38.5249 68.1874C38.7624 68.5749 38.9874 68.9624 39.2249 69.3374C39.3499 69.5499 39.6749 69.3499 39.5499 69.1499C39.3124 68.7624 39.0874 68.3749 38.8499 67.9999C38.7249 67.7999 38.3999 67.9874 38.5249 68.1874Z" fill="#E8E8E8"/>
<path d="M40.675 66.9375C40.9 67.4375 41.125 67.9375 41.35 68.4375C41.45 68.6625 41.775 68.4625 41.675 68.25C41.45 67.75 41.225 67.25 41 66.75C40.8875 66.525 40.575 66.7125 40.675 66.9375Z" fill="#E8E8E8"/>
<path d="M42.6124 65.7375C42.9499 66.1875 43.2124 66.675 43.3874 67.2C43.4624 67.425 43.8249 67.325 43.7499 67.1C43.5624 66.5375 43.2999 66.0125 42.9374 65.55C42.7999 65.3625 42.4749 65.5375 42.6124 65.7375Z" fill="#E8E8E8"/>
<path d="M44.7 64.775C44.9625 65.175 45.2125 65.5625 45.475 65.9625C45.6 66.1625 45.925 65.975 45.8 65.775C45.5375 65.375 45.2875 64.9875 45.025 64.5875C44.8875 64.3875 44.5625 64.575 44.7 64.775Z" fill="#E8E8E8"/>
<path d="M64.1374 39.9875C62.9249 39.6125 62.8624 38.325 63.4374 37.3625C63.9999 36.425 65.0874 36.175 65.9374 36.95C66.6374 37.6 66.6999 38.7125 66.0499 39.425C65.3999 40.15 64.3374 40.1375 63.5874 39.5875C63.3999 39.4375 63.2124 39.7625 63.3999 39.9125C64.3499 40.6125 65.7374 40.5 66.4499 39.5125C67.1874 38.5125 66.9249 37.1125 65.8874 36.4375C63.3874 34.825 61.2374 39.475 64.0374 40.35C64.2749 40.425 64.3749 40.0625 64.1374 39.9875Z" fill="#E8E8E8"/>
<path d="M66.15 40.3125C65.2125 40.6 64.9875 39.475 65.4 38.875C65.7375 38.3875 66.4 38.1 67 38.2625C67.575 38.4125 67.9875 39 67.8375 39.5875C67.65 40.325 66.875 40.5875 66.1875 40.475C65.95 40.4375 65.85 40.8 66.0875 40.8375C67.0125 41 68.0125 40.6 68.2125 39.6C68.3875 38.7375 67.7125 37.95 66.875 37.85C65.95 37.7375 64.9375 38.4125 64.8125 39.3625C64.7 40.1875 65.45 40.925 66.275 40.6625C66.4875 40.6 66.3875 40.2375 66.15 40.3125Z" fill="#E8E8E8"/>
<path d="M58.1749 48.4499C57.8749 49.0624 58.2999 49.6749 58.9249 49.8374C59.3999 49.9624 59.8999 49.8499 60.3874 49.8749C60.9124 49.8999 61.4374 50.0249 61.9124 50.2374C62.9624 50.7124 63.6374 51.5749 63.6749 52.7374C63.7124 53.7124 63.4249 54.7249 63.8499 55.6499C64.7499 57.5999 67.2249 56.1124 68.4999 57.3749C69.5624 58.4374 69.1249 60.3749 70.5499 61.1874C70.7624 61.3124 70.9499 60.9874 70.7374 60.8624C69.4624 60.1374 69.7624 58.2499 68.8624 57.1999C68.3874 56.6499 67.6999 56.4999 66.9999 56.4499C66.1499 56.3999 65.0499 56.5749 64.4249 55.8499C63.6999 54.9999 64.0874 53.7249 64.0499 52.7249C64.0249 51.9374 63.7624 51.2249 63.2124 50.6624C62.7249 50.1749 62.0874 49.8374 61.4249 49.6624C61.0874 49.5749 60.7374 49.5124 60.3874 49.4999C59.9374 49.4749 57.9874 49.6999 58.5124 48.6374C58.6124 48.4249 58.2874 48.2374 58.1749 48.4499Z" fill="#E8E8E8"/>
<path d="M28.95 115.925C31.2125 115.925 33.4624 115.925 35.7249 115.925C35.9624 115.925 35.9624 115.55 35.7249 115.55C33.4624 115.55 31.2125 115.55 28.95 115.55C28.7 115.55 28.7 115.925 28.95 115.925Z" fill="#E8E8E8"/>
<path d="M32.6 124.4C36.95 124.4 41.2875 124.4 45.6375 124.4C45.875 124.4 45.875 124.025 45.6375 124.025C41.2875 124.025 36.95 124.025 32.6 124.025C32.35 124.025 32.35 124.4 32.6 124.4Z" fill="#E8E8E8"/>
<path d="M45.1124 122.05C49.1499 122.05 53.1999 122.05 57.2374 122.05C57.4749 122.05 57.4749 121.675 57.2374 121.675C53.1999 121.675 49.1499 121.675 45.1124 121.675C44.8624 121.675 44.8624 122.05 45.1124 122.05Z" fill="#E8E8E8"/>
<path d="M112.35 121.4C114.387 120.9 116.437 120.85 118.512 121.175C119.387 121.312 120.275 121.45 121.162 121.375C122.025 121.3 122.862 121.037 123.7 120.812C124.65 120.55 125.6 120.35 126.6 120.425C127.625 120.5 128.612 120.787 129.612 121.012C130.475 121.212 131.35 121.35 132.237 121.337C133.175 121.312 134.1 121.15 135.012 121.012C137.512 120.612 139.862 120.862 142.337 121.275C142.575 121.312 142.675 120.95 142.437 120.912C140.437 120.587 138.425 120.25 136.387 120.45C134.262 120.662 132.287 121.187 130.137 120.75C128.337 120.387 126.625 119.825 124.775 120.175C123.787 120.362 122.85 120.712 121.862 120.9C120.762 121.112 119.7 120.987 118.6 120.812C116.462 120.487 114.35 120.512 112.237 121.037C112.025 121.1 112.125 121.462 112.35 121.4Z" fill="#E8E8E8"/>
<path d="M131.55 117.6C135.475 117.387 139.4 117.175 143.325 116.975C145.262 116.875 147.137 116.912 149.062 117.175C149.925 117.287 150.75 117.312 151.612 117.212C152.575 117.1 153.575 116.95 154.475 117.412C154.687 117.525 154.875 117.2 154.662 117.087C153.137 116.312 151.375 117.037 149.737 116.887C148.762 116.8 147.812 116.612 146.837 116.562C145.825 116.512 144.812 116.537 143.8 116.587C139.712 116.775 135.625 117.025 131.537 117.237C131.312 117.237 131.312 117.612 131.55 117.6Z" fill="#E8E8E8"/>
<path d="M54.6875 128.337C56.5375 128.512 58.4 128.687 60.25 128.475C61.1125 128.375 61.9375 128.187 62.775 127.937C63.8625 127.612 64.8375 127.525 65.9625 127.725C66.825 127.875 67.675 128.087 68.5375 128.162C69.45 128.237 70.3625 128.187 71.275 128.1C73.1875 127.912 75.1 127.587 77 128.012C77.2375 128.062 77.3375 127.7 77.1 127.65C75.275 127.25 73.45 127.512 71.6125 127.7C70.7 127.787 69.7875 127.875 68.875 127.825C67.8375 127.775 66.8375 127.5 65.825 127.337C64.975 127.2 64.1625 127.2 63.325 127.4C62.425 127.625 61.575 127.925 60.65 128.062C58.675 128.35 56.6625 128.15 54.6875 127.975C54.4375 127.937 54.45 128.312 54.6875 128.337Z" fill="#E8E8E8"/>
<path d="M74.4625 27.475C73.975 27.1375 73.3125 26.6 73.5125 25.925C73.725 25.225 74.25 25.5625 74.7375 25.4C75.3875 25.1875 75.35 24.4 75.1625 23.8875C74.975 23.3875 74.575 22.175 75.6125 22.5875C75.85 22.6875 76.025 22.85 76.3 22.7625C76.55 22.6875 76.675 22.4625 76.7375 22.225C76.7875 22.0125 76.75 21.7875 76.7375 21.5625C76.7125 21.4125 76.7 21.25 76.7 21.1C76.65 20.7375 76.875 20.5875 77.35 20.65C77.3625 20.8875 77.7375 20.8875 77.725 20.65C77.7 20.3 77.4375 20.05 77.0625 20.0625C76.625 20.075 76.3875 20.5 76.3375 20.9C76.3 21.175 76.525 21.8125 76.4 22.0375C76.25 22.1375 76.1 22.25 75.9375 22.35C75.875 22.3125 75.8125 22.275 75.75 22.2375C75.6375 22.2 75.55 22.125 75.4375 22.1C75.05 22.0125 74.7375 22.25 74.6 22.6C74.3625 23.2 74.7875 23.7 74.9125 24.2625C75.075 25.0375 74.4875 24.95 73.975 25.0375C73.75 25.075 73.5625 25.1875 73.4125 25.35C72.625 26.2625 73.5375 27.275 74.2875 27.8C74.475 27.9375 74.6625 27.6125 74.4625 27.475Z" fill="#E8E8E8"/>
<path d="M76.9249 27.1249C76.5124 26.6499 76.1999 25.9999 76.9999 25.7499C77.1999 25.6874 77.4249 25.7124 77.6124 25.5874C78.0249 25.2999 77.8499 24.9124 77.7749 24.5124C77.7374 24.2874 77.6499 23.9874 77.7874 23.7624C77.8874 23.5999 78.2499 23.5374 78.4374 23.4999C78.6999 23.4374 78.9749 23.3999 79.1999 23.2499C79.5374 23.0124 79.6624 22.5874 79.4374 22.2249C79.3124 22.0249 78.9874 22.2124 79.1124 22.4124C79.4874 23.0124 77.7374 23.1749 77.4374 23.6124C77.0874 24.1249 77.8249 25.0249 77.2124 25.3499C76.9749 25.4749 76.6749 25.3874 76.4499 25.5499C76.2874 25.6624 76.1749 25.8374 76.1249 26.0249C75.9874 26.5624 76.3499 27.0249 76.6749 27.3999C76.8249 27.5749 77.0874 27.3124 76.9249 27.1249Z" fill="#E8E8E8"/>
<path d="M62.1624 24.1625C61.8374 23.9375 61.7999 23.5375 61.8999 23.1875C61.9624 22.95 62.2624 22.3 62.5499 22.275C63.0249 22.225 63.2624 22.825 63.3874 23.175C63.4999 23.5125 63.5374 23.85 63.5499 24.2C63.5499 24.4375 63.9249 24.4375 63.9249 24.2C63.9124 23.5 63.4499 21.35 62.2999 21.975C61.8624 22.2125 61.5374 22.9 61.4874 23.375C61.4374 23.825 61.6124 24.225 61.9749 24.4875C62.1624 24.625 62.3499 24.3 62.1624 24.1625Z" fill="#E8E8E8"/>
<path d="M62.0125 24.3625C61.5625 24.475 61.1125 24.5875 60.65 24.7C60.3875 24.7625 59.9375 24.7875 59.725 24.9875C59.3625 25.325 59.4625 26.3625 59.4625 26.8C59.4625 26.925 59.5875 27.0125 59.7 26.975C59.7625 26.9625 59.825 26.9375 59.9 26.925C60.225 26.75 60.3875 26.8625 60.4 27.2375C60.65 27.4875 60.65 27.6375 60.4 27.6625C60.25 27.725 60.1 27.75 59.9375 27.75C59.8375 27.7625 59.75 27.825 59.75 27.9375C59.775 28.7375 59.8375 29.525 59.925 30.325C59.95 30.5625 60.325 30.5625 60.3 30.325C60.2125 29.525 60.15 28.7375 60.125 27.9375C60.0625 28 60 28.0625 59.9375 28.125C60.4625 28.0625 61.3 27.85 61.1875 27.1375C61.0625 26.375 60.1375 26.4625 59.6125 26.6125C59.6875 26.675 59.775 26.7375 59.85 26.7875C59.85 26.5 59.85 26.225 59.875 25.9375C59.9125 25.4875 59.8875 25.325 60.3 25.1625C60.8625 24.9375 61.525 24.8625 62.1125 24.7125C62.35 24.675 62.25 24.3125 62.0125 24.3625Z" fill="#E8E8E8"/>
<path d="M63.8124 24.4749C64.3374 24.4499 64.8749 24.4499 65.3999 24.5124C65.8999 24.5749 65.8749 24.6499 65.9499 25.0874C65.9999 25.3624 66.0124 25.6499 66.0374 25.9249C66.1374 26.9999 66.2124 28.0749 66.2749 29.1499C66.2874 29.3874 66.6624 29.3874 66.6499 29.1499C66.5749 27.6874 66.5249 26.1874 66.2874 24.7374C66.2249 24.3749 66.1624 24.2624 65.7874 24.1999C65.1374 24.0749 64.4624 24.0749 63.8124 24.1124C63.5749 24.1124 63.5749 24.4874 63.8124 24.4749Z" fill="#E8E8E8"/>
<path d="M60.1999 30.5875C60.9374 30.4625 61.6749 30.3375 62.3999 30.2125C63.2374 30.075 64.0374 30.1375 64.8749 30.075C65.2624 30.0375 67.0999 29.85 66.4249 29.0875C66.2624 28.9125 65.9999 29.175 66.1624 29.35C66.2624 29.4625 64.5624 29.7125 64.5249 29.7125C63.9999 29.725 63.4749 29.7 62.9499 29.7625C61.9999 29.875 61.0499 30.075 60.0999 30.2375C59.8624 30.2625 59.9624 30.625 60.1999 30.5875Z" fill="#E8E8E8"/>
<path d="M126.6 102.575C126.562 103.887 126.525 105.2 126.487 106.525C128.15 106.637 129.8 106.737 131.462 106.85C131.462 105.5 131.462 104.15 131.462 102.8C129.837 102.725 128.225 102.65 126.6 102.575Z" fill="white" stroke="#161616" stroke-width="0.5" stroke-miterlimit="10"/>
<path d="M128.763 117.162C128.988 118.612 129.088 119.812 129.138 120.675C129.3 123.537 129.175 124.2 128.925 124.725C128.313 126.012 127.2 126.55 127.3 126.725C127.375 126.837 127.925 126.712 130.375 125.425C130.225 122.575 130.088 119.737 129.938 116.887C129.55 116.987 129.163 117.075 128.763 117.162Z" fill="white" stroke="#161616" stroke-width="0.5" stroke-miterlimit="10"/>
<path d="M125.525 107.975C127.65 107.987 129.775 108.012 131.9 108.025C131.663 110.875 131.438 113.712 131.2 116.562C129.35 116.412 127.488 116.275 125.638 116.125C125.588 113.412 125.55 110.7 125.525 107.975Z" fill="white" stroke="#161616" stroke-width="0.5" stroke-miterlimit="10"/>
<path d="M126.388 117.062C127.063 118.7 127.288 120.112 127.363 121.062C127.475 122.463 127.55 123.537 126.875 124.25C126.625 124.525 126.213 124.787 125.413 125.325C124.7 125.8 124.363 125.975 124.388 126.025C124.425 126.1 125.113 125.95 128.113 124.887C128.313 123.875 128.475 122.575 128.438 121.05C128.388 119.425 128.125 118.038 127.838 117C127.363 117.025 126.875 117.038 126.388 117.062Z" fill="white" stroke="#161616" stroke-width="0.5" stroke-miterlimit="10"/>
<path d="M127.475 126.837C127.85 126.525 128.2 126.187 128.538 125.825C128.925 125.4 129.5 124.75 130.1 125.312C130.113 125.212 130.125 125.112 130.138 125.012C129.25 125.45 128.375 125.887 127.488 126.312C127.313 126.4 127.4 126.662 127.588 126.662C128.425 126.675 128.95 125.212 129.813 125.487C130.038 125.562 130.138 125.2 129.913 125.125C129.538 125.012 129.25 125.112 128.938 125.337C128.575 125.6 128.063 126.287 127.6 126.287C127.638 126.4 127.663 126.525 127.7 126.637C128.588 126.2 129.463 125.762 130.35 125.337C130.463 125.287 130.475 125.125 130.388 125.037C130.05 124.725 129.45 124.612 129.025 124.812C128.713 124.95 128.513 125.312 128.288 125.55C127.95 125.912 127.6 126.237 127.225 126.562C127.025 126.725 127.288 127 127.475 126.837Z" fill="#161616"/>
<path d="M129.012 124.887C129.387 124.9 129.75 124.975 130.1 125.125C130.312 125.225 130.512 124.9 130.287 124.8C129.875 124.613 129.462 124.513 129.012 124.5C128.775 124.513 128.775 124.887 129.012 124.887Z" fill="#161616"/>
<path d="M126.962 124.45C127.25 124.525 127.5 124.675 127.7 124.9C127.862 125.075 128.125 124.813 127.962 124.638C127.712 124.375 127.4 124.188 127.05 124.1C126.837 124.025 126.737 124.388 126.962 124.45Z" fill="#161616"/>
<path d="M124.938 125.962C125.325 125.675 125.725 125.412 126.138 125.162C126.325 125.05 126.525 124.9 126.725 124.837C127.038 124.725 127.225 124.8 127.513 124.925C127.513 124.812 127.513 124.712 127.513 124.6C127.113 124.775 126.663 124.762 126.25 124.937C125.85 125.1 125.475 125.5 125.063 125.575C125.113 125.687 125.163 125.8 125.213 125.912C125.95 125.55 126.775 125.487 127.513 125.125C127.725 125.012 127.538 124.7 127.325 124.8C126.588 125.162 125.763 125.225 125.025 125.587C124.825 125.687 124.975 125.962 125.175 125.925C125.625 125.85 125.988 125.437 126.413 125.275C126.838 125.112 127.3 125.1 127.713 124.925C127.838 124.875 127.838 124.65 127.713 124.6C127.238 124.387 127.025 124.262 126.55 124.512C125.925 124.837 125.338 125.225 124.775 125.637C124.55 125.775 124.738 126.1 124.938 125.962Z" fill="#161616"/>
<path d="M127.075 118.975C127.387 118.862 127.7 118.875 127.987 119.025C128.2 119.137 128.387 118.812 128.175 118.7C127.8 118.5 127.375 118.462 126.975 118.612C126.75 118.7 126.85 119.062 127.075 118.975Z" fill="#161616"/>
<path d="M127.387 120.225C127.65 120.2 127.9 120.262 128.1 120.437C128.287 120.587 128.55 120.325 128.362 120.175C128.087 119.95 127.75 119.825 127.387 119.85C127.15 119.862 127.15 120.237 127.387 120.225Z" fill="#161616"/>
<path d="M127.525 121.787C127.762 121.762 127.987 121.85 128.125 122.05C128.25 122.25 128.575 122.062 128.45 121.862C128.262 121.55 127.9 121.362 127.537 121.412C127.437 121.425 127.35 121.487 127.35 121.6C127.337 121.687 127.425 121.8 127.525 121.787Z" fill="#161616"/>
<path d="M129.137 118.887C129.362 118.762 129.65 118.775 129.862 118.95C130.05 119.1 130.312 118.837 130.125 118.687C129.787 118.412 129.337 118.35 128.95 118.562C128.737 118.687 128.925 119.012 129.137 118.887Z" fill="#161616"/>
<path d="M129.35 121.25C129.55 121.162 129.775 121.2 129.938 121.35C130.113 121.512 130.388 121.25 130.2 121.087C129.913 120.825 129.513 120.762 129.15 120.937C128.938 121.025 129.138 121.35 129.35 121.25Z" fill="#161616"/>
<path d="M129.4 123.25C129.6 123.125 129.85 123.125 130.037 123.275C130.225 123.425 130.487 123.162 130.3 123.012C129.987 122.75 129.55 122.712 129.212 122.937C129.012 123.062 129.2 123.387 129.4 123.25Z" fill="#161616"/>
<path d="M132.2 108.012C131.95 110.887 131.7 113.762 131.45 116.637" stroke="#161616" stroke-width="0.5" stroke-miterlimit="10"/>
<path d="M125.6 116.237C127.687 116.387 129.775 116.525 131.862 116.675" stroke="#161616" stroke-width="0.5" stroke-miterlimit="10"/>
<path d="M131.875 102.688C131.825 104.112 131.763 105.525 131.713 106.95" stroke="#161616" stroke-width="0.5" stroke-miterlimit="10"/>
<path d="M132.137 109.7C133.3 109.487 134.537 110.4 134.625 111.6C134.75 113.1 133.037 113.362 131.912 113.2C131.675 113.162 131.575 113.525 131.812 113.562C133.187 113.762 135.125 113.375 135 111.6C134.9 110.137 133.437 109.075 132.037 109.337C131.8 109.375 131.9 109.737 132.137 109.7Z" fill="#161616"/>
<path d="M131.862 113.863C132.35 113.963 132.737 114.312 132.875 114.787C132.937 115.025 133.3 114.925 133.237 114.687C133.075 114.087 132.587 113.612 131.975 113.5C131.725 113.462 131.625 113.813 131.862 113.863Z" fill="#161616"/>
<path d="M131.675 113.737C131.975 114.175 132.113 114.662 132.063 115.2C132.05 115.437 132.425 115.437 132.438 115.2C132.475 114.612 132.325 114.037 131.988 113.55C131.863 113.35 131.538 113.537 131.675 113.737Z" fill="#161616"/>
<path d="M125.512 109.525C124.687 109 123.175 110.512 122.987 111.25C122.612 112.75 124.537 112.575 125.337 113.075C125.537 113.2 125.725 112.875 125.525 112.75C124.95 112.387 124.1 112.525 123.6 112.075C122.987 111.525 123.55 110.862 123.975 110.475C124.2 110.275 124.962 109.612 125.325 109.837C125.525 109.987 125.725 109.662 125.512 109.525Z" fill="#161616"/>
<path d="M125.313 112.9C124.988 113.025 124.688 113.212 124.438 113.475C124.25 113.675 124.013 113.987 124.2 114.262C124.338 114.462 124.663 114.275 124.525 114.075C124.438 113.95 124.763 113.675 124.85 113.6C125.013 113.45 125.2 113.337 125.413 113.262C125.638 113.175 125.55 112.812 125.313 112.9Z" fill="#161616"/>
<path d="M125.162 113.162C124.925 113.537 124.85 113.962 124.937 114.387C124.987 114.625 125.35 114.525 125.3 114.287C125.225 113.95 125.3 113.637 125.487 113.35C125.625 113.15 125.3 112.962 125.162 113.162Z" fill="#161616"/>
<path d="M126.35 109.287C126.287 110.2 126.3 111.125 126.362 112.037C126.387 112.275 126.762 112.275 126.737 112.037C126.662 111.125 126.662 110.2 126.725 109.287C126.75 109.05 126.375 109.05 126.35 109.287Z" fill="#161616"/>
<path d="M126.625 109.388C127.95 109.463 129.263 109.513 130.588 109.538C130.525 109.475 130.463 109.413 130.4 109.35C130.363 110.288 130.325 111.238 130.275 112.175C130.263 112.413 130.638 112.413 130.65 112.175C130.688 111.238 130.725 110.288 130.775 109.35C130.775 109.25 130.688 109.163 130.588 109.163C129.263 109.138 127.95 109.088 126.625 109.013C126.388 109 126.388 109.375 126.625 109.388Z" fill="#161616"/>
<path d="M126.475 112.2C127.025 112.35 127.638 112.312 128.188 112.35C128.863 112.387 129.55 112.437 130.225 112.475C130.463 112.487 130.463 112.112 130.225 112.1C129.625 112.062 129.025 112.025 128.425 111.987C127.825 111.95 127.15 111.987 126.563 111.837C126.35 111.775 126.25 112.137 126.475 112.2Z" fill="#161616"/>
<path d="M126.9 114.137C127.125 114.625 127.613 114.2 127.988 114.375C128.163 114.45 128.125 114.562 128.363 114.575C128.638 114.587 129.313 114.038 129.45 114.55C129.488 114.688 129.663 114.725 129.763 114.637C129.888 114.6 130.025 114.562 130.15 114.537C130.3 114.725 130.575 114.45 130.413 114.275C130.125 113.938 129.763 114.125 129.488 114.375C129.588 114.4 129.7 114.425 129.8 114.463C129.688 114.025 129.225 113.737 128.788 113.937C128.575 114.037 128.55 114.225 128.225 114.1C128.163 114.075 128.138 113.975 128.075 113.95C127.938 113.9 127.213 113.975 127.213 113.963C127.125 113.725 126.8 113.912 126.9 114.137Z" fill="#161616"/>
<path d="M127.563 104.3C127.588 104.162 127.75 104.125 127.863 104.175C128.025 104.237 128.113 104.425 128.188 104.562C128.288 104.775 128.613 104.587 128.513 104.375C128.375 104.1 128.163 103.812 127.825 103.775C127.55 103.75 127.263 103.912 127.213 104.187C127.15 104.437 127.513 104.537 127.563 104.3Z" fill="#161616"/>
<path d="M129.863 104.475C129.888 104.35 130 104.275 130.125 104.325C130.275 104.375 130.338 104.562 130.363 104.7C130.4 104.937 130.763 104.837 130.725 104.6C130.675 104.3 130.475 103.987 130.15 103.937C129.863 103.9 129.55 104.075 129.5 104.375C129.463 104.612 129.825 104.712 129.863 104.475Z" fill="#161616"/>
<path d="M127.75 105.087C128.175 105.837 129.188 105.95 129.738 105.275C129.888 105.087 129.625 104.825 129.475 105.012C129.075 105.5 128.388 105.462 128.075 104.9C127.963 104.687 127.638 104.875 127.75 105.087Z" fill="#161616"/>
<path d="M114.637 37.1624C113.062 36.5249 112.112 34.9999 111.537 33.4749C110.925 31.8874 110.662 30.1624 110.75 28.4624C110.9 25.3249 112.237 22.1499 114.712 20.1499C117.05 18.2499 120.512 17.7124 123.112 19.4374C125.825 21.2374 126.312 24.9499 126.337 27.9374C126.362 31.2624 125.587 34.7499 123.125 37.1374C122.95 37.2999 123.212 37.5749 123.387 37.3999C125.725 35.1249 126.612 31.8749 126.7 28.6999C126.787 25.5874 126.412 21.6499 123.85 19.5124C121.45 17.5124 117.887 17.6124 115.325 19.2374C112.487 21.0374 110.812 24.2999 110.45 27.5874C110.225 29.6249 110.475 31.7374 111.225 33.6624C111.862 35.2874 112.875 36.8374 114.55 37.5124C114.762 37.6124 114.85 37.2499 114.637 37.1624Z" fill="#161616"/>
<path d="M114.462 37.4C114.037 38 114.125 38.8875 114.75 39.3375C115.225 39.675 115.925 39.725 116.487 39.8C117.162 39.9 117.85 39.9375 118.537 39.9375C119.762 39.925 121.162 39.8375 122.3 39.3625C123.125 39.0125 123.75 38.1875 123.312 37.3C123.212 37.0875 122.887 37.275 122.987 37.4875C123.925 39.4 119.487 39.5625 118.525 39.5625C117.637 39.5625 116.75 39.4875 115.887 39.325C115.475 39.25 115.012 39.175 114.75 38.8125C114.487 38.4375 114.537 37.95 114.787 37.6C114.925 37.3875 114.6 37.2 114.462 37.4Z" fill="#161616"/>
<path d="M114.862 39.425C114.862 40.05 114.875 40.6875 114.95 41.3125C114.987 41.6 115.05 41.85 115.287 42.025C115.625 42.275 116.187 42.2625 116.587 42.3C117.262 42.35 117.95 42.35 118.625 42.325C119.262 42.3 119.9 42.25 120.537 42.1875C120.912 42.15 121.337 42.1625 121.625 41.875C122.262 41.25 122.275 40.0625 122.112 39.275C122.062 39.0375 121.7 39.1375 121.75 39.375C121.837 39.8 121.862 40.225 121.775 40.6625C121.65 41.275 121.475 41.675 120.787 41.8C119.987 41.95 119.087 41.95 118.275 41.9625C117.475 41.975 116.575 42.0125 115.787 41.825C115.062 41.65 115.25 40.025 115.25 39.425C115.237 39.1875 114.862 39.1875 114.862 39.425Z" fill="#161616"/>
<path d="M114.988 25.9625C116.488 26.9 117.625 28.275 118.263 29.925C118.35 30.15 118.713 30.05 118.625 29.825C117.95 28.075 116.763 26.625 115.188 25.6375C114.975 25.5 114.788 25.825 114.988 25.9625Z" fill="#161616"/>
<path d="M118.562 29.925C119.3 28.375 120.375 27.05 121.75 26.025C121.937 25.8875 121.75 25.55 121.562 25.7C120.137 26.7625 119.012 28.1375 118.237 29.7375C118.137 29.95 118.462 30.1375 118.562 29.925Z" fill="#161616"/>
<path d="M118.262 29.4874C118.45 32.0624 118.537 34.6374 118.5 37.2124C118.5 37.4499 118.875 37.4499 118.875 37.2124C118.912 34.6374 118.825 32.0499 118.637 29.4874C118.612 29.2374 118.237 29.2374 118.262 29.4874Z" fill="#161616"/>
<path d="M103.625 35.7875C105.287 35.225 106.937 34.6625 108.6 34.1C108.825 34.025 108.725 33.6625 108.5 33.7375C106.837 34.3 105.187 34.8625 103.525 35.425C103.287 35.5 103.387 35.8625 103.625 35.7875Z" fill="#161616"/>
<path d="M105.525 33.2874C106.1 33.1249 106.675 32.9499 107.25 32.7874C107.475 32.7249 107.387 32.3624 107.15 32.4249C106.575 32.5874 106 32.7624 105.425 32.9249C105.2 32.9999 105.287 33.3624 105.525 33.2874Z" fill="#161616"/>
<path d="M101.362 29.125C103.562 29.1 105.75 29.1625 107.937 29.3C108.175 29.3125 108.175 28.9375 107.937 28.925C105.75 28.7875 103.55 28.7375 101.362 28.75C101.125 28.75 101.125 29.125 101.362 29.125Z" fill="#161616"/>
<path d="M106.013 27.425C106.538 27.5625 107.075 27.625 107.613 27.6375C107.85 27.6375 107.85 27.2625 107.613 27.2625C107.1 27.25 106.6 27.1875 106.113 27.0625C105.875 27 105.775 27.3625 106.013 27.425Z" fill="#161616"/>
<path d="M105.2 15.7875C107.162 17.475 108.95 19.325 110.562 21.35C110.712 21.5375 110.975 21.275 110.825 21.0875C109.212 19.0625 107.425 17.2 105.462 15.525C105.287 15.3625 105.012 15.625 105.2 15.7875Z" fill="#161616"/>
<path d="M110.687 19.3374C111.025 19.6874 111.35 20.0374 111.687 20.3999C111.85 20.5749 112.112 20.3124 111.95 20.1374C111.612 19.7874 111.287 19.4374 110.95 19.0749C110.787 18.8999 110.525 19.1624 110.687 19.3374Z" fill="#161616"/>
<path d="M103.075 20.0374C103.687 20.3999 104.312 20.7374 104.95 21.0499C105.162 21.1624 105.35 20.8374 105.137 20.7249C104.5 20.3999 103.875 20.0624 103.262 19.7124C103.05 19.5874 102.862 19.9124 103.075 20.0374Z" fill="#161616"/>
<path d="M124.825 17.1875C126.675 15.3375 128.525 13.4875 130.375 11.6375C130.55 11.4625 130.275 11.2 130.112 11.375C128.262 13.225 126.412 15.075 124.562 16.925C124.387 17.1 124.65 17.3625 124.825 17.1875Z" fill="#161616"/>
<path d="M126.687 18.05C127.162 17.7 127.637 17.3625 128.112 17.0125C128.3 16.875 128.125 16.55 127.925 16.6875C127.45 17.0375 126.975 17.375 126.5 17.725C126.3 17.8625 126.487 18.1875 126.687 18.05Z" fill="#161616"/>
<path d="M119.05 14.7375C119.425 12.925 119.712 11.1 119.887 9.26248C119.912 9.02498 119.537 9.02498 119.512 9.26248C119.337 11.0625 119.062 12.8625 118.687 14.6375C118.637 14.875 119 14.975 119.05 14.7375Z" fill="#161616"/>
<path d="M129.562 26.2375C132.962 25.925 136.35 25.6125 139.75 25.3C139.987 25.275 139.987 24.9 139.75 24.925C136.35 25.2375 132.962 25.55 129.562 25.8625C129.325 25.875 129.312 26.25 129.562 26.2375Z" fill="#161616"/>
<path d="M115.275 37.85C117.387 38.3125 119.537 38.3 121.637 37.825C121.875 37.775 121.775 37.4125 121.537 37.4625C119.5 37.925 117.412 37.9375 115.375 37.4875C115.137 37.4375 115.037 37.8 115.275 37.85Z" fill="#161616"/>
<path d="M115.587 41.025C117.2 41.2375 118.812 41.2875 120.437 41.175C120.675 41.1625 120.675 40.7875 120.437 40.8C118.812 40.9125 117.2 40.8625 115.587 40.65C115.35 40.625 115.35 41 115.587 41.025Z" fill="#161616"/>
<path d="M127.2 36.5875C129.738 38.375 132.325 40.1 134.95 41.7625C135.15 41.8875 135.338 41.5625 135.138 41.4375C132.513 39.775 129.925 38.05 127.388 36.2625C127.188 36.125 127 36.45 127.2 36.5875Z" fill="#161616"/>
<path d="M95.2625 124.512C92.8875 127.425 90.525 130.325 88.15 133.237C90.9375 143.037 92.5125 145.612 93.45 145.475C94.125 145.375 94.45 143.912 94.8125 142.275C95.7125 138.187 95.175 134.675 94.625 132.487C96.125 130.812 97.6125 129.125 99.1125 127.45C97.825 126.475 96.55 125.5 95.2625 124.512Z" fill="#161616" stroke="#161616" stroke-width="2" stroke-miterlimit="10"/>
<path d="M86.5 109.512C87.9875 110.662 89.4125 110.25 92.3625 110.75C94.875 111.175 97.7 112.112 100.7 113.987C97.5 117.737 94.3 121.7 91.125 125.875C90.3625 126.887 89.6 127.9 88.8625 128.912C90.0875 129.2 91.5625 129.65 93.1625 130.375C94.725 131.075 96 131.862 97.0125 132.575C101.775 128.425 106.025 124.412 109.813 120.625C111.563 118.875 114.038 116.2 114.425 112.412C114.45 112.2 114.45 112.012 114.45 111.825C114.363 105.537 106.45 100.987 101.638 99.3125C96.375 97.4875 87.325 96.5 84.8 100.862C83.3125 103.437 84.1875 107.725 86.5 109.512Z" fill="#F66F5D"/>
<path opacity="0.26" d="M95.7375 103.225C95.65 104.412 95.4375 105.825 95 107.387C94.6875 108.5 94.3125 109.487 93.9375 110.325C93.525 110.487 93.125 110.65 92.7125 110.812C95.4 111.875 98.1 112.937 100.787 114C98.7875 116.287 96.775 118.687 94.75 121.187C92.6625 123.762 90.675 126.287 88.7875 128.775C90.125 129.212 91.45 129.65 92.7875 130.075C97.575 124.8 102.362 119.512 107.15 114.237C107.65 112.8 107.625 111.675 107.475 110.887C106.787 107.037 102.075 103.9 95.7375 103.225Z" fill="#6D6C6C"/>
<path opacity="0.23" d="M100.762 113.975C101.2 114.637 101.625 115.312 102.062 115.975C98.3375 120.462 94.6125 124.937 90.8875 129.425C90.225 129.25 89.55 129.062 88.8875 128.887C91.275 125.612 93.85 122.25 96.6375 118.862C98.025 117.175 99.4 115.55 100.762 113.975Z" fill="#6D6C6C"/>
<path d="M88.325 119.762C92.0125 120.437 95.7125 121.1 99.4 121.775C103.662 131.075 104.137 134.075 103.337 134.587C102.762 134.95 101.562 134.05 100.225 133.037C96.875 130.5 95.0125 127.475 94 125.437C91.775 125.137 89.55 124.825 87.325 124.525C87.65 122.937 87.9875 121.35 88.325 119.762Z" fill="#161616" stroke="#161616" stroke-width="2" stroke-miterlimit="10"/>
<path d="M80.725 99.05C74 101.025 69.9 105.125 67.2625 107.825C63.7 111.487 59.325 115.975 60.5875 119.287C61.2375 120.975 63.2125 122.012 72.4125 123.612C79.3625 124.825 85.3875 125.475 90.0875 125.837C90.675 123.687 91.2625 121.55 91.8375 119.4C87.1125 117.875 82.4 116.362 77.675 114.837C80.575 114.225 83.625 113.5 86.8 112.612C89.2125 111.937 91.5125 111.237 93.7 110.5C95.725 106.412 96.1625 102 94.05 99.5C91.1 96 84.4875 97.9375 80.725 99.05Z" fill="#F66F5D"/>
<path opacity="0.29" d="M95.6875 103.375C95.625 104.612 95.4125 106.2 94.8375 107.95C94.4875 109.012 94.0875 109.937 93.6875 110.7C93.35 110.725 93.0125 110.762 92.675 110.787C89.825 111.725 86.7875 112.613 83.575 113.438C81.5 113.975 79.475 114.438 77.5125 114.863C82.25 116.35 86.9875 117.825 91.725 119.312C91.625 119.825 91.5 120.363 91.35 120.925C91.175 121.575 90.975 122.175 90.7875 122.725C84.25 121.112 77.7125 119.5 71.175 117.887C70.875 117.525 69.8875 116.212 70.0375 114.475C70.2 112.587 72 111.25 74.3 110.025C80.95 106.5 92.1 104.113 95.6875 103.375Z" fill="#6D6C6C"/>
<path opacity="0.24" d="M74.1499 115.125C75.3374 115.037 76.5374 114.95 77.7249 114.85C82.3874 116.4 87.0499 117.962 91.7124 119.512C91.5124 120.25 91.3124 121 91.1124 121.737C85.4624 119.525 79.7999 117.325 74.1499 115.125Z" fill="#6D6C6C"/>
<path d="M78.9625 70.7251C80.8125 69.6376 84.025 68.0876 88.3 67.6376C94.85 66.9501 99.875 69.3001 101.863 70.3626C101.5 75.2751 100.938 79.2001 100.488 81.9001C99.95 85.1251 99.5125 86.9126 99.3125 89.8751C99.0625 93.5876 99.375 96.6376 99.6625 98.6376C97.4875 99.3125 94.2 100.05 90.15 99.9626C86.25 99.8751 83.1 99.0251 80.9875 98.2876C81.55 93.8126 81.3625 90.2626 81.0875 87.8501C80.775 85.1626 80.35 83.8501 79.8375 80.6001C79.175 76.4001 79 72.9626 78.9625 70.7251Z" fill="white" stroke="#161616" stroke-miterlimit="10"/>
<path opacity="0.14" d="M92.4875 69.1251C92.75 70.0751 93.05 71.3876 93.25 72.9626C93.3875 74.0251 93.95 78.8376 92.2 85.1876C91.125 89.1001 89.9875 93.2376 86.2625 96.6376C85.0625 97.7376 83.9 98.4751 83.05 98.9376C84.9375 99.4251 87.4 99.8876 90.3125 99.9126C94.125 99.9501 97.275 99.2626 99.4625 98.5876C99.3375 97.6501 99.175 96.2376 99.1125 94.5376C99.0625 93.0501 99.0625 90.6751 100.088 83.9876C100.9 78.7251 101.475 76.4626 101.763 71.7001C101.8 71.1501 101.813 70.6876 101.838 70.3751C100.925 69.8376 99.7375 69.2501 98.275 68.7751C96.925 68.3376 95.7125 68.1126 94.7125 68.0126C93.9875 68.3751 93.2375 68.7501 92.4875 69.1251Z" fill="#6D6C6C"/>
<path opacity="0.17" d="M101.475 72.4126C100.775 76.3751 99.8501 79.5751 99.1251 81.8001C97.0001 88.3001 95.5126 92.6751 91.5001 95.8751C89.0126 97.8626 86.4251 98.7001 84.7626 99.1001C86.4501 99.5751 88.8376 100.038 91.7251 99.9751C95.0501 99.9001 97.7376 99.1501 99.5001 98.5126C99.2626 96.9876 98.9876 94.7001 99.0626 91.9126C99.1501 88.3001 99.7376 86.1251 100.388 82.1626C100.75 79.8376 101.213 76.5126 101.475 72.4126Z" fill="#6D6C6C"/>
<path d="M78.8875 70.6625C77.2625 71.7875 75.175 73.5625 73.35 76.2C69.2375 82.175 69.35 88.5125 69.5125 90.85C70.2625 92.8625 71.55 95.5 73.8 98.0875C75.1125 99.6 77.0375 101.775 80.325 103.175C81.425 103.65 82.3875 103.912 83.0875 104.062C83.6875 103.525 84.275 102.987 84.875 102.45C82.95 100.2 81.0125 97.8375 79.075 95.4C77.5875 93.5375 76.1625 91.6875 74.7875 89.8625C74.8375 88.325 75.1625 85.5375 76.8375 82.625C77.7875 80.975 78.9 79.775 79.7875 78.9625C79.4875 76.2 79.1875 73.4375 78.8875 70.6625Z" fill="white" stroke="#161616" stroke-miterlimit="10"/>
<path opacity="0.13" d="M79.1249 73.45C75.5249 77.5125 73.8124 81.3625 72.9624 83.7875C71.4749 87.9875 71.7874 90.1875 72.0124 91.2375C72.1999 92.0625 72.6124 93.475 74.1249 95.625C75.4374 97.4875 78.1999 100.825 83.4624 103.575C83.9249 103.125 84.3874 102.687 84.8499 102.237C83.3624 100.562 81.8624 98.8 80.3499 96.9625C78.3624 94.55 76.5124 92.175 74.7999 89.85C74.8499 88.5875 75.0624 86.825 75.7999 84.85C76.9124 81.8875 78.6624 79.9375 79.7499 78.9C79.5249 77.0875 79.3249 75.275 79.1249 73.45Z" fill="#6D6C6C"/>
<path opacity="0.16" d="M74.7875 90.0125C75.0125 91.475 75.475 93.3375 76.45 95.35C78.6 99.725 81.9625 102.137 83.675 103.187C84.0125 102.887 84.3375 102.6 84.675 102.3C81.375 98.2 78.0875 94.1 74.7875 90.0125Z" fill="#6D6C6C"/>
<path d="M102.05 70.4375C103.875 71.55 106.225 73.2875 108.262 75.875C112.887 81.7375 112.75 87.9625 112.575 90.2625C111.725 92.2375 110.287 94.825 107.762 97.375C106.287 98.85 104.125 100.987 100.437 102.375C99.2 102.838 98.1125 103.1 97.325 103.25C96.6625 102.725 95.9875 102.2 95.325 101.675C97.475 99.4625 99.6625 97.15 101.837 94.75C103.5 92.9125 105.1 91.1 106.65 89.3125C106.587 87.8125 106.237 85.075 104.35 82.2C103.275 80.575 102.037 79.4 101.037 78.6C101.387 75.875 101.725 73.1625 102.05 70.4375Z" fill="white" stroke="#161616" stroke-miterlimit="10"/>
<path opacity="0.16" d="M101.963 73.475C103.55 75.1375 105.713 77.8 107.4 81.5125C108.2 83.275 109.5 86.1375 109.525 88.8375C109.613 97.05 97.9875 102.7 97.3125 103.025C96.65 102.6 96 102.187 95.3375 101.762C99.1 97.6375 102.85 93.5125 106.613 89.3875C106.538 88.0375 106.225 85.525 104.725 82.85C103.488 80.65 101.95 79.225 100.938 78.4375C101.288 76.7875 101.625 75.1375 101.963 73.475Z" fill="#6D6C6C"/>
<path opacity="0.12" d="M106.738 89.425C106.55 90.5125 106.238 91.7 105.75 92.925C103.55 98.475 99.1 101.513 96.85 102.813C96.3125 102.463 95.7875 102.113 95.25 101.763C99.075 97.65 102.9 93.5375 106.738 89.425Z" fill="#6D6C6C"/>
<path d="M104.925 90.3501H74.1875V109.813H104.925V90.3501Z" fill="white" stroke="#161616" stroke-width="0.5" stroke-miterlimit="10"/>
<path d="M89.1125 101.938C87.4875 102.138 86.6999 100.163 87.1249 98.85C87.5374 97.55 89.0749 96.9375 90.3249 97.3875C91.5624 97.8375 92.1624 99.35 91.7249 100.563C91.2374 101.913 89.5374 102.463 88.2874 101.863C88.0749 101.763 87.8749 102.088 88.0999 102.188C89.2124 102.725 90.575 102.525 91.4625 101.65C92.325 100.788 92.4499 99.425 91.9124 98.3625C90.6874 95.9375 86.8999 96.7125 86.6374 99.375C86.4999 100.8 87.525 102.513 89.1125 102.325C89.35 102.288 89.35 101.913 89.1125 101.938Z" fill="#161616"/>
<path opacity="0.14" d="M85.725 90.3C89.8875 91.75 92.725 95.4625 92.8125 99.45C92.925 104.45 88.725 109.15 83 109.625C90.2875 109.688 97.575 109.75 104.875 109.812C104.85 103.288 104.837 96.7625 104.812 90.25C98.45 90.25 92.0875 90.275 85.725 90.3Z" fill="#6D6C6C"/>
<path opacity="0.26" d="M104.875 90.2375C104.762 94.2125 103.975 97.3125 103.312 99.35C102.337 102.313 101.637 104.475 99.625 106.388C96.8875 109.013 93.475 109.5 91.975 109.625C96.2375 109.663 100.5 109.7 104.762 109.75C104.775 106.038 104.8 102.325 104.825 98.6C104.825 95.8125 104.85 93.025 104.875 90.2375Z" fill="#6D6C6C"/>
<path d="M88.65 60.6375C87.9625 61.475 88.625 62.5 88.5 65.2375C88.4375 66.6 88.2125 67.7 88.0375 68.4375C88.625 68.7125 89.6625 69.1 91 69.1375C92.65 69.175 93.9 68.6625 94.5125 68.3625C94.2375 67.8125 93.875 66.9625 93.65 65.8625C93.0875 63.0625 94.0875 61.75 93.2625 60.7125C92.3 59.5125 89.575 59.5 88.65 60.6375Z" fill="white" stroke="#161616" stroke-miterlimit="10"/>
<path d="M84.2874 48.6126C83.4999 50.6376 83.7999 52.4626 83.9749 53.2501C83.8999 53.2626 82.4374 53.5751 82.0374 54.7001C81.6374 55.8376 82.4624 57.4501 84.1874 57.9751C84.8124 59.5001 86.3249 62.4501 89.5124 64.0626C90.0499 64.3251 90.5624 64.5376 91.0749 64.6876C91.5374 64.5126 92.1624 64.2376 92.8749 63.8251C95.0999 62.5376 96.3374 60.9376 96.6249 60.5501C97.1499 59.8501 97.8624 58.7251 98.3624 57.1751C98.6374 57.2251 99.1249 57.2501 99.5999 57.0126C100.675 56.4626 101.212 54.7501 100.462 53.6376C99.8374 52.7126 98.6249 52.6751 98.4749 52.6751C98.6374 52.0251 99.1374 49.6876 97.8749 47.3751C96.4249 44.7126 93.3124 43.3126 90.3874 43.7126C86.0624 44.2751 84.3624 48.4126 84.2874 48.6126Z" fill="white" stroke="#161616" stroke-miterlimit="10"/>
<path d="M88.4875 63.8432C89.25 64.1571 90.0875 64.6454 91.025 64.593C91.8 64.5494 92.6625 64.2356 93.25 63.9043C93.4375 63.7996 93.175 63.6165 92.9875 63.7212C92.4375 64.0263 91.55 64.3489 90.825 64.3402C90.0625 64.3315 89.2875 63.8868 88.6625 63.6165C88.475 63.5293 88.2875 63.756 88.4875 63.8432Z" fill="#161616"/>
<path d="M88.4375 63.9153C89.15 64.2708 89.9625 64.6699 90.9625 64.6408C91.9375 64.6118 92.85 64.2345 93.4875 63.8282C93.65 63.7266 93.3875 63.5743 93.225 63.6758C92.675 64.0241 91.9 64.3651 91.05 64.4159C90.1125 64.4667 89.3625 64.0967 88.7 63.7629C88.525 63.6686 88.2625 63.8209 88.4375 63.9153Z" fill="#161616"/>
<path d="M88.9125 64.0523C88.9125 64.0448 88.9125 64.0448 88.9125 64.0523C88.8375 63.985 88.7 63.97 88.6125 64.0224C88.6125 64.0224 88.6125 64.0224 88.6 64.0298C88.525 64.0672 88.525 64.1495 88.6 64.1869C89.975 64.9721 92.5 65.2264 93.4875 64.0224C93.5875 63.8952 93.275 63.7756 93.1625 63.9102C92.2875 64.9871 90.075 64.7253 88.875 64.0298C88.875 64.0822 88.875 64.1345 88.875 64.1869C88.875 64.1869 88.8749 64.1869 88.8874 64.1794C88.7874 64.1719 88.6875 64.1644 88.5875 64.157V64.1644C88.7125 64.2841 89.0375 64.1719 88.9125 64.0523Z" fill="#161616"/>
<path d="M90.4124 52.625C90.2499 54.65 90.3374 56.6625 90.6624 58.6625C90.6749 58.7625 90.7999 58.825 90.8874 58.7875C91.3749 58.625 91.7249 58.3375 91.9874 57.9C92.1124 57.6875 91.7874 57.5 91.6624 57.7125C91.4499 58.075 91.1874 58.2875 90.7874 58.425C90.8624 58.4625 90.9374 58.5125 91.0124 58.55C90.6874 56.5875 90.6124 54.6 90.7749 52.6125C90.8124 52.375 90.4374 52.375 90.4124 52.625Z" fill="#161616"/>
<path d="M88.1875 54.6126C88.2125 54.7251 88.4 55.4251 88.1875 55.5376C87.975 55.6501 87.375 55.2001 87.1875 54.6126C87.0375 54.1126 87.1625 53.4876 87.4 53.4376C87.65 53.3751 88.0375 54.0626 88.1875 54.6126Z" fill="#161616" stroke="#161616" stroke-miterlimit="10"/>
<path d="M94.6374 54.6126C94.6624 54.7251 94.8499 55.4251 94.6374 55.5376C94.4249 55.6501 93.8249 55.2001 93.6374 54.6126C93.4874 54.1126 93.6124 53.4876 93.8499 53.4376C94.0999 53.3751 94.4874 54.0626 94.6374 54.6126Z" fill="#161616" stroke="#161616" stroke-miterlimit="10"/>
<path d="M89.9625 60.3125C91.4875 60.9625 92.875 60.05 94 59.0625C94.1875 58.9 93.9125 58.6375 93.7375 58.8C92.7625 59.65 91.5125 60.5625 90.1625 59.9875C89.925 59.9 89.7375 60.225 89.9625 60.3125Z" fill="#161616"/>
<path d="M94.3625 56.6C94.6 56.6 94.6 56.225 94.3625 56.225C94.125 56.225 94.125 56.6 94.3625 56.6Z" fill="#161616"/>
<path d="M95.7499 55.9C95.7624 55.8875 95.7749 55.875 95.7874 55.8625C95.8624 55.7875 95.8624 55.675 95.7874 55.6C95.7124 55.525 95.5999 55.525 95.5249 55.6C95.5124 55.6125 95.4999 55.625 95.4874 55.6375C95.4124 55.7125 95.4124 55.825 95.4874 55.9C95.5624 55.975 95.6749 55.975 95.7499 55.9Z" fill="#161616"/>
<path d="M95.3374 56.8125C95.3499 56.8125 95.3624 56.8125 95.3749 56.8125C95.4749 56.8125 95.5624 56.725 95.5624 56.625C95.5624 56.525 95.4749 56.4375 95.3749 56.4375C95.3624 56.4375 95.3499 56.4375 95.3374 56.4375C95.2374 56.4375 95.1499 56.525 95.1499 56.625C95.1499 56.725 95.2249 56.8125 95.3374 56.8125Z" fill="#161616"/>
<path d="M86.7124 52.375C87.1874 51.975 87.8874 51.9625 88.3624 52.35C88.5499 52.5 88.8124 52.2375 88.6249 52.0875C87.9749 51.5625 87.0749 51.5625 86.4374 52.1125C86.2624 52.2625 86.5374 52.525 86.7124 52.375Z" fill="#161616"/>
<path d="M92.8125 52.2375C93.35 51.7625 94.1125 51.675 94.75 52.0125C94.9625 52.125 95.15 51.8 94.9375 51.6875C94.15 51.2625 93.2125 51.375 92.55 51.975C92.3625 52.1375 92.625 52.4 92.8125 52.2375Z" fill="#161616"/>
<path d="M86.8124 56.5625C87.0499 56.5625 87.0499 56.1875 86.8124 56.1875C86.5749 56.1875 86.5749 56.5625 86.8124 56.5625Z" fill="#161616"/>
<path d="M88.1375 56.3875C88.375 56.3875 88.375 56.0125 88.1375 56.0125C87.9 56.0125 87.9 56.3875 88.1375 56.3875Z" fill="#161616"/>
<path d="M87.475 56.675C87.4625 56.6875 87.45 56.7 87.4375 56.7125C87.3625 56.7875 87.3625 56.9 87.4375 56.975C87.5125 57.05 87.625 57.05 87.7 56.975C87.7125 56.9625 87.725 56.95 87.7375 56.9375C87.8125 56.8625 87.8125 56.75 87.7375 56.675C87.6625 56.6 87.55 56.6 87.475 56.675Z" fill="#161616"/>
<path d="M86.3249 44.55C85.5749 45.0125 83.9374 46.025 82.8249 48.1C81.7124 50.1625 81.725 52.1125 81.775 52.95C79.95 56.2375 79.125 59.1375 78.725 61.1125C78.075 64.25 78.425 65.4 78.875 66.1625C79.975 68.0375 82.1875 68.5 82.725 68.6125C85.4875 69.2 87.6875 67.7875 88.1875 67.4625C88.325 67.05 88.4625 66.5375 88.5375 65.9625C88.675 64.975 88.6 64.125 88.4875 63.5125C87.8625 63 87.1375 62.3125 86.4375 61.4125C85.375 60.0375 84.775 58.6875 84.4375 57.7125C83.3375 57.6 82.5125 56.85 82.4375 56.0125C82.3625 55.225 82.9124 54.2125 83.6374 54.2125C84.1749 54.2125 84.5624 54.7625 84.6374 54.8625C85.0499 54.625 85.6249 54.2125 86.1374 53.5625C86.8749 52.625 87 51.7875 87.3375 50.9125C87.6625 50.0625 88.2874 48.8875 89.6374 47.6625C90.9374 48.125 91.975 48.575 92.6875 48.9125C94.975 49.975 96.275 50.6 97.2875 51.9625C97.85 52.7125 98.1375 53.45 98.2875 53.9125C99.45 53.025 99.925 53.2625 100.025 53.3125C100.762 53.725 100.737 55.9875 99.5875 56.6125C99.15 56.85 98.65 56.7875 98.3375 56.7125C97.975 57.975 97.175 60.0375 95.3375 61.8625C94.725 62.475 94.1 62.95 93.5375 63.3125C93.4875 63.775 93.4625 64.4125 93.5875 65.1625C93.7 65.85 93.9 66.4125 94.0875 66.8125C97.125 68.8125 100.9 68.45 102.95 66.3C104.775 64.375 104.775 61.4625 104.087 59.475C103.462 57.6625 102.25 56.575 101.65 56.1C101.812 55.4 102.712 51.25 100.1 47.4375C99.425 46.45 97.5374 44.0625 94.1374 43.2375C90.5374 42.3625 87.5749 43.7875 86.3249 44.55Z" fill="#505050"/>
<path opacity="0.17" d="M94.25 49.6875C95.6625 51.4625 96.0375 53.1 96.1625 53.95C96.675 57.525 94.6 60.425 93.55 61.9125C92.6875 63.125 91.8 63.9875 91.1625 64.55C91.7125 66.025 92.25 67.4875 92.8 68.9625C93.3625 68.775 93.925 68.5875 94.4875 68.4C94.225 67.9375 93.95 67.3625 93.7375 66.6625C93.35 65.4125 93.325 64.3125 93.3625 63.5625C94.05 63.075 94.85 62.4125 95.625 61.5375C97.175 59.7875 97.95 57.9875 98.35 56.775C98.6 56.825 99.1375 56.8875 99.65 56.6C100.725 55.9875 100.55 54.4625 100.537 54.3625C100.5 54.0375 100.425 53.5125 100.05 53.3C99.6125 53.0625 98.8875 53.2875 98.3125 53.9625C98.1375 53.35 97.6375 51.9375 96.2875 50.8125C95.5375 50.1875 94.775 49.8625 94.25 49.6875Z" fill="#6D6C6C"/>
<path opacity="0.19" d="M90.5875 52.7375C90.5125 52.725 90.2625 53.8125 89.5 58.6125C89.9375 58.6125 90.375 58.6125 90.8125 58.6125C90.725 57.975 90.625 57.05 90.575 55.925C90.5125 54 90.6625 52.75 90.5875 52.7375Z" fill="#6D6C6C"/>
<path opacity="0.54" d="M101.575 56.225C101.362 56.35 102.163 57.425 102.05 59.025C102.013 59.525 101.937 60.6625 101.037 61.425C100.975 61.475 99.6375 62.575 98.3125 61.875C97.525 61.4625 97.05 60.5875 97.075 59.6375C96.7 60.3375 96.0875 61.2625 95.125 62.1625C94.525 62.725 93.9375 63.1375 93.425 63.45C93.3875 64 93.3875 64.75 93.5875 65.6C93.7 66.0625 93.8375 66.4625 93.975 66.7875C94.3625 67.0375 94.9375 67.375 95.6875 67.6375C96.1625 67.8 98.775 68.7125 101.325 67.45C101.775 67.225 102.775 66.7125 103.5 65.6125C103.587 65.475 103.912 64.9875 104.15 64.1625C105 61.3375 103.75 58.7875 103.637 58.575C102.95 57.1875 101.837 56.075 101.575 56.225Z" fill="black"/>
<path opacity="0.35" d="M84.425 57.7625C84.3125 57.775 84.5625 58.8 84.2875 59.8125C84.0875 60.5625 83.45 61.7875 82.3625 62.0375C81.225 62.2875 79.8125 61.45 79.1625 59.8875C78.8625 60.575 78.4625 61.675 78.4 63.075C78.3625 63.9875 78.3125 64.9625 78.7625 65.925C79.775 68.075 82.75 68.9125 84.9625 68.7125C86.4375 68.575 87.55 68 88.15 67.6125C88.3 67.1875 88.45 66.675 88.55 66.0875C88.7125 65.075 88.675 64.1875 88.5875 63.5375C87.6 62.825 86.925 62.0875 86.5 61.55C85.9 60.7875 85.0875 59.7625 84.675 58.3375C84.6125 58.175 84.5 57.75 84.425 57.7625Z" fill="black"/>
</svg>
