<svg width="200" height="159" viewBox="0 0 200 159" fill="none" xmlns="http://www.w3.org/2000/svg">
<path fill-rule="evenodd" clip-rule="evenodd" d="M107.306 0.1265C131.713 1.89199 146.533 25.5221 159.824 46.068C171.03 63.3882 177.68 82.8733 173.965 103.165C170.022 124.705 159.901 146.738 139.803 155.431C120.342 163.849 99.9137 152.143 80.5121 143.588C59.7726 134.443 35.212 127.526 27.8785 106.079C19.9003 82.7464 29.5186 57.4425 44.3095 37.7122C59.7406 17.1278 81.6468 -1.72957 107.306 0.1265Z" fill="#E8ECFB"/>
<path d="M9.83753 121.537C18.525 117.662 28.3875 118.162 37.5 120.087C47.1375 122.125 56.4125 125.675 66.1375 127.325C71.525 128.237 77.025 128.562 82.45 127.712C82.6875 127.675 82.5875 127.312 82.35 127.35C72.275 128.912 62.2 126.412 52.5625 123.687C43.3375 121.075 34 118.175 24.3 118.25C19.275 118.287 14.2625 119.162 9.65003 121.212C9.42503 121.312 9.61253 121.637 9.83753 121.537Z" fill="#E8E8E8"/>
<path d="M58.4875 124.762C70.2625 125 81.6625 121.738 93.175 119.8C96.5375 119.238 99.925 118.788 103.337 118.563C103.575 118.55 103.575 118.175 103.337 118.188C91.55 118.963 80.1875 122.488 68.4875 123.863C65.175 124.25 61.8375 124.463 58.5 124.4C58.2375 124.388 58.2375 124.762 58.4875 124.762Z" fill="#E8E8E8"/>
<path d="M113.525 120.562C117.713 119.662 122.05 119.512 126.288 120.162C130.188 120.762 133.925 122.05 137.613 123.425C141.25 124.775 144.863 126.212 148.638 127.175C152.538 128.162 156.5 128.412 160.525 128.412C165.275 128.412 170.063 128.225 174.725 129.275C174.963 129.325 175.063 128.962 174.825 128.912C166.588 127.062 158.05 128.937 149.813 127.062C142.125 125.312 135.1 121.375 127.325 119.962C122.725 119.125 118 119.225 113.438 120.2C113.188 120.25 113.288 120.612 113.525 120.562Z" fill="#E8E8E8"/>
<path d="M45.25 72.5C44.175 72.175 42.0625 71.2875 42.85 69.7875C43.4125 68.7125 45.0875 68.625 46.125 68.6625C49.625 68.7625 53.125 69.0625 56.625 68.775C59.9125 68.5 63.05 67.5625 66.25 66.8125C69.5 66.0375 72.9375 65.475 76.2125 66.425C77.65 66.8375 78.9875 67.525 80.4 68C81.075 68.225 81.775 68.4 82.4875 68.475C83.3375 68.5625 84.1875 68.4375 85.025 68.4C85.8875 68.3625 86.775 68.3875 87.5125 68.9C88.1875 69.3625 88.75 70.2375 88.3125 71.05C87.6875 72.225 85.8625 71.9 84.8125 71.675C81.7 71.025 78.5625 70.825 75.4 71.25C73.725 71.475 72.0875 71.8875 70.4875 72.4C68.7625 72.95 67.0875 73.4375 65.25 73.1875C63.5375 72.95 61.9 72.4 60.1625 72.3375C58.425 72.2625 56.7 72.4875 54.9875 72.7125C51.6625 73.1625 48.1125 73.7375 45 72.125C44.7875 72.0125 44.6 72.3375 44.8125 72.45C47.725 73.9625 51.0125 73.6125 54.1625 73.2C55.8125 72.975 57.475 72.7375 59.15 72.7C60.9875 72.6625 62.7 73.0875 64.4875 73.4375C66.3125 73.7875 67.9625 73.6 69.7375 73.05C71.5 72.5 73.2375 71.9625 75.0625 71.6875C76.95 71.4 78.8625 71.325 80.7625 71.4625C82.45 71.575 84.0625 72.025 85.725 72.2125C86.7125 72.325 87.975 72.2875 88.5875 71.3625C89.2875 70.3 88.5375 69.0625 87.575 68.475C86.1125 67.5875 84.3 68.2125 82.7125 68.1125C80.9625 68 79.35 67.1875 77.7375 66.5625C74.3875 65.2625 70.9625 65.425 67.5 66.1625C63.8375 66.9375 60.275 68.125 56.525 68.425C54.3625 68.6 52.175 68.5625 50.0125 68.475C48.8875 68.425 47.75 68.375 46.625 68.325C45.925 68.3 45.2375 68.2875 44.55 68.425C43.4875 68.6375 42.275 69.2625 42.35 70.525C42.4375 71.9125 44.0375 72.55 45.1625 72.8875C45.375 72.9375 45.475 72.575 45.25 72.5Z" fill="#E8E8E8"/>
<path d="M137.5 26.3875C136.425 26.2375 134.663 25.85 134.35 24.625C133.9 22.925 136.325 22.3875 137.5 22.175C140.938 21.5875 144.463 22.125 147.925 22.125C154.788 22.1125 161.55 20.8125 168.375 20.325C171.788 20.075 175.225 20.0375 178.625 20.475C179.4 20.575 180.213 20.65 180.963 20.875C181.275 20.9625 181.625 21.1125 181.863 21.3375C182.438 21.9 181.875 22.4125 181.35 22.6875C180 23.4 178.463 23.6875 176.95 23.75C173.925 23.8875 170.913 23.2625 167.888 23.375C166.475 23.425 165.088 23.6625 163.75 24.15C162.188 24.725 160.738 25.5375 159.163 26.075C157.338 26.7 155.413 27.0125 153.475 27.0125C151.513 27.0125 149.575 26.7125 147.638 26.4875C143.713 26.0375 139.775 26.05 135.863 26.575C135.625 26.6125 135.625 26.9875 135.863 26.95C139.688 26.4375 143.563 26.4 147.4 26.8375C149.3 27.05 151.2 27.35 153.125 27.3875C154.9 27.425 156.688 27.2 158.4 26.7125C160.15 26.2125 161.75 25.35 163.438 24.675C165.075 24.025 166.763 23.7375 168.513 23.7375C171.738 23.7125 174.975 24.4375 178.2 24.0125C178.988 23.9125 179.75 23.7375 180.5 23.4625C181.075 23.25 181.85 22.9875 182.263 22.5C183.038 21.5625 181.913 20.7375 181.075 20.5C179.425 20.0125 177.563 19.925 175.85 19.825C173.988 19.7125 172.125 19.725 170.263 19.8125C162.725 20.175 155.275 21.75 147.713 21.725C145.563 21.725 143.413 21.525 141.263 21.5125C139.438 21.5 137.35 21.5375 135.638 22.25C134.563 22.7 133.513 23.75 134.113 24.9875C134.675 26.15 136.263 26.55 137.413 26.7125C137.638 26.7875 137.738 26.425 137.5 26.3875Z" fill="#E8E8E8"/>
<path d="M16.6125 43.45C27.0375 38.925 38.4625 43.15 48.075 47.6875C52.975 50 57.8 52.475 62.9125 54.3C67.925 56.0875 73.1375 57.325 78.425 58.0375C89.0375 59.475 99.9 58.8375 110.338 56.5C121.275 54.05 131.638 49.6 142.488 46.8125C153.775 43.9125 165.575 43.2875 177.088 45.15C178.488 45.375 179.875 45.6375 181.263 45.9375C181.5 45.9875 181.6 45.625 181.363 45.575C170.188 43.2 158.575 43.0875 147.375 45.3125C136.175 47.5375 125.638 52.0875 114.65 55.05C103.988 57.925 92.85 59.0875 81.8375 58.05C76.3625 57.5375 70.9375 56.475 65.6875 54.825C60.2625 53.125 55.175 50.65 50.0625 48.2C40.825 43.7625 30.4 39.2625 19.95 41.9C18.7375 42.2 17.575 42.6125 16.425 43.1125C16.2125 43.225 16.4 43.55 16.6125 43.45Z" fill="#E8E8E8"/>
<path d="M59.3875 38.975C71.6 45.7875 86.1375 46.3 99.6875 44.4C115.025 42.25 129.8 37.1875 145.163 35.2125C153.713 34.1125 162.438 33.975 170.9 35.85C171.138 35.9 171.238 35.5375 171 35.4875C156.038 32.1875 140.688 35.1 126.038 38.5125C111.6 41.875 97 45.8 82.0375 44.8375C74.225 44.3375 66.45 42.475 59.575 38.65C59.375 38.525 59.1875 38.85 59.3875 38.975Z" fill="#E8E8E8"/>
<path d="M22.925 15.6375C33.425 13.1375 44.625 14.125 54.525 18.4375C59.3875 20.55 63.95 23.3 68.725 25.5875C73.5375 27.8875 78.5625 29.475 83.8625 30.1875C89.925 31 96.0625 30.8625 102.138 30.4625C102.375 30.45 102.375 30.075 102.138 30.0875C96.65 30.45 91.1125 30.6 85.6375 30.025C80.0875 29.4375 74.7875 27.9875 69.725 25.65C64.9125 23.4125 60.3625 20.6625 55.525 18.4875C50.775 16.3125 45.7375 14.875 40.55 14.2625C34.6375 13.55 28.6125 13.9 22.825 15.275C22.5875 15.325 22.6875 15.6875 22.925 15.6375Z" fill="#E8E8E8"/>
<path d="M129.425 91.4C128.325 91.175 126.525 90.6125 126.438 89.25C126.388 88.4125 127.088 87.8 127.825 87.575C128.713 87.2875 129.65 87.55 130.513 87.8C132.088 88.2625 133.675 88.6375 135.325 88.7C136.863 88.7625 138.388 88.5375 139.875 88.1375C141.475 87.7125 143.038 87.1375 144.625 86.6875C146.3 86.2125 148.013 85.9625 149.763 85.9375C153.1 85.8875 156.4 86.4875 159.725 86.625C161.388 86.6875 163.025 86.6 164.663 86.35C166.438 86.075 168.25 85.6625 170.063 85.875C171.363 86.025 173.45 86.9 173.025 88.575C172.65 90.0375 170.575 90.8625 169.3 91.275C162.9 93.35 156.3 89.9 149.813 90.8125C146.075 91.3375 142.55 92.9125 138.775 93.2125C137.05 93.35 135.275 93.2375 133.638 92.625C132.138 92.05 130.788 90.8 129.075 91.1C128.838 91.1375 128.938 91.5 129.175 91.4625C130.2 91.2875 131.1 91.775 131.963 92.25C132.663 92.625 133.363 92.975 134.125 93.2C135.688 93.675 137.363 93.7375 138.988 93.5875C142.563 93.25 145.925 91.8375 149.463 91.2625C153.363 90.6375 157.2 91.5375 161.05 92.05C164.188 92.4625 167.55 92.5625 170.5 91.25C171.625 90.75 173.125 89.95 173.413 88.625C173.675 87.4375 172.763 86.4875 171.775 86C170.313 85.2875 168.55 85.425 167 85.6375C165.113 85.8875 163.275 86.2875 161.363 86.3125C157.638 86.375 153.963 85.6125 150.25 85.6C148.475 85.6 146.713 85.8 144.988 86.25C143.275 86.7 141.613 87.325 139.913 87.7875C137.813 88.35 135.7 88.525 133.55 88.1875C132.475 88.0125 131.463 87.7125 130.425 87.4125C129.65 87.1875 128.813 87 128 87.175C126.788 87.4375 125.688 88.5875 126.225 89.875C126.713 91.05 128.2 91.5625 129.35 91.8C129.55 91.8125 129.65 91.45 129.425 91.4Z" fill="#E8E8E8"/>
<path d="M73.3375 140.762C78.0125 139.637 82.5875 138.1 87 136.187C89.2875 135.187 91.525 134.05 93.9625 133.45C96.3 132.862 98.725 132.687 101.137 132.75C103.925 132.812 106.687 133.187 109.437 133.625C109.675 133.662 109.775 133.3 109.537 133.262C104.85 132.525 100.025 131.925 95.3125 132.775C92.8875 133.212 90.6625 134.137 88.4375 135.15C86.1 136.212 83.7375 137.175 81.3125 138.025C78.6625 138.95 75.975 139.75 73.2375 140.4C73 140.45 73.1 140.812 73.3375 140.762Z" fill="#161616"/>
<path d="M102.875 132.887C104.975 132.837 107.05 132.537 109.075 131.95C111.138 131.362 113.175 130.537 115.363 130.75C116.475 130.85 117.563 131.162 118.638 131.437C119.763 131.725 120.875 132.012 122 132.3C124.163 132.85 126.313 133.4 128.475 133.95C128.713 134.012 128.813 133.65 128.575 133.587C126.338 133.012 124.1 132.45 121.863 131.875C119.813 131.35 117.713 130.65 115.613 130.4C113.55 130.162 111.6 130.8 109.65 131.4C107.438 132.075 105.188 132.462 102.888 132.525C102.638 132.512 102.638 132.887 102.875 132.887Z" fill="#161616"/>
<path d="M124.762 134.825C129.675 133.737 134.837 132.8 139.825 133.95C142.3 134.525 144.625 135.625 146.938 136.637C149.362 137.712 151.8 138.775 154.225 139.85C154.45 139.95 154.638 139.625 154.413 139.525C150.613 137.85 146.85 136.037 142.975 134.55C139.225 133.112 135.325 132.825 131.35 133.275C129.1 133.537 126.863 133.975 124.65 134.475C124.425 134.512 124.525 134.875 124.762 134.825Z" fill="#161616"/>
<path d="M80.3501 145.1C81.6376 144.875 82.9376 144.65 84.2251 144.425C85.5126 144.2 86.8126 143.912 88.1126 143.775C89.3126 143.65 90.5376 143.862 91.7251 143.975C93.0376 144.112 94.3626 144.237 95.6751 144.375C95.9126 144.4 95.9126 144.025 95.6751 144C94.3626 143.862 93.0376 143.737 91.7251 143.6C90.4501 143.475 89.1626 143.262 87.8751 143.425C85.3251 143.737 82.7876 144.3 80.2501 144.737C80.0126 144.787 80.1126 145.15 80.3501 145.1Z" fill="#161616"/>
<path d="M45.825 88.725C46.6811 88.725 47.375 88.031 47.375 87.175C47.375 86.319 46.6811 85.625 45.825 85.625C44.969 85.625 44.275 86.319 44.275 87.175C44.275 88.031 44.969 88.725 45.825 88.725Z" fill="#F66F5D"/>
<path d="M50.0126 92.125C50.4613 92.125 50.8251 91.7612 50.8251 91.3125C50.8251 90.8638 50.4613 90.5 50.0126 90.5C49.5638 90.5 49.2001 90.8638 49.2001 91.3125C49.2001 91.7612 49.5638 92.125 50.0126 92.125Z" fill="#F66F5D"/>
<path d="M137.188 12.7625C138.244 12.7625 139.1 11.9062 139.1 10.85C139.1 9.79376 138.244 8.9375 137.188 8.9375C136.131 8.9375 135.275 9.79376 135.275 10.85C135.275 11.9062 136.131 12.7625 137.188 12.7625Z" fill="#F66F5D"/>
<path d="M141.638 14.925C142.238 14.925 142.725 14.4381 142.725 13.8375C142.725 13.2369 142.238 12.75 141.638 12.75C141.037 12.75 140.55 13.2369 140.55 13.8375C140.55 14.4381 141.037 14.925 141.638 14.925Z" fill="#F66F5D"/>
<path d="M140.913 14.475C141.914 14.475 142.725 13.6635 142.725 12.6625C142.725 11.6615 141.914 10.85 140.913 10.85C139.912 10.85 139.1 11.6615 139.1 12.6625C139.1 13.6635 139.912 14.475 140.913 14.475Z" fill="black"/>
<path d="M136.575 107.75C137.928 107.75 139.025 106.653 139.025 105.3C139.025 103.947 137.928 102.85 136.575 102.85C135.222 102.85 134.125 103.947 134.125 105.3C134.125 106.653 135.222 107.75 136.575 107.75Z" fill="black"/>
<path d="M47.625 13.975C48.4879 13.975 49.1875 13.2754 49.1875 12.4125C49.1875 11.5495 48.4879 10.85 47.625 10.85C46.7621 10.85 46.0625 11.5495 46.0625 12.4125C46.0625 13.2754 46.7621 13.975 47.625 13.975Z" fill="black"/>
<path d="M72.35 120.825C73.4062 120.825 74.2625 119.969 74.2625 118.912C74.2625 117.856 73.4062 117 72.35 117C71.2938 117 70.4375 117.856 70.4375 118.912C70.4375 119.969 71.2938 120.825 72.35 120.825Z" fill="black"/>
<path d="M86.1501 84.85C85.8876 84.7375 86.1875 84.275 86.325 84.2125C86.4875 84.1375 86.8126 84.2375 86.9876 84.2875C87.2626 84.375 87.5001 84.525 87.7751 84.6C88.0751 84.6875 88.4376 84.7125 88.7251 84.575C89.7251 84.0625 88.5376 82.3375 90.0001 82.3375C90.8001 82.3375 91.475 83.525 92.1375 82.6375C92.375 82.325 92.4751 81.925 92.6001 81.55C92.7001 81.225 92.7875 80.8875 93.0125 80.625C93.275 80.325 94.0751 80.025 94.1626 80.675C94.1876 80.9125 94.5751 80.9125 94.5376 80.675C94.4751 80.225 94.1501 79.925 93.6876 79.9C93.1376 79.8625 92.7375 80.275 92.5125 80.725C92.35 81.0375 92.2751 81.3875 92.1626 81.725C92.0876 81.9625 91.9876 82.375 91.7751 82.525C91.5501 82.675 91.3751 82.5125 91.1876 82.4C90.7001 82.075 90.1126 81.825 89.5251 82.0375C88.9876 82.2375 88.7751 82.7 88.8001 83.25C88.8001 83.4125 88.8501 83.6125 88.8376 83.775C88.7501 84.35 88.3626 84.375 87.9626 84.2875C87.5626 84.2 87.2251 83.95 86.8126 83.875C86.3751 83.7875 85.9376 83.9 85.7376 84.3375C85.5751 84.7125 85.6751 85.0875 86.0501 85.2375C86.2751 85.3 86.3751 84.9375 86.1501 84.85Z" fill="black"/>
<path d="M92.6 85.45C92.4125 85.1625 92.4125 84.8 92.6125 84.5125C92.9 84.1 93.3 84.1625 93.7375 84.225C94.0625 84.275 94.4625 84.3375 94.7 84.05C94.8625 83.8625 94.8375 83.6375 94.9 83.425C94.9875 83.1125 95.1875 82.8375 95.45 82.65C96 82.25 96.775 82.1875 97.325 82.6125C97.4625 82.7125 97.625 82.65 97.65 82.475C97.8 81.2625 99 80.3625 100.2 80.575C100.437 80.6125 100.538 80.25 100.3 80.2125C98.8375 79.9625 97.45 81.0125 97.275 82.475C97.3875 82.425 97.4875 82.3875 97.6 82.3375C97.0875 81.9375 96.4375 81.8375 95.825 82.05C95.125 82.2875 94.8 82.75 94.5375 83.4C94.4125 83.725 94.2625 83.925 93.9 83.875C93.7 83.85 93.5125 83.8 93.3125 83.7875C93.025 83.775 92.775 83.85 92.55 84.0375C92.075 84.4375 91.95 85.125 92.2875 85.65C92.4125 85.85 92.7375 85.6625 92.6 85.45Z" fill="black"/>
<path d="M98.925 17.0375C98.7125 16.8375 98.775 16.7125 99.1 16.65C99.2375 16.4625 99.3875 16.425 99.55 16.55C99.775 16.6 99.925 16.8 100.088 16.95C100.288 17.125 100.463 17.325 100.688 17.4625C101 17.6375 101.388 17.7125 101.713 17.55C102.113 17.35 102.125 16.95 102.263 16.575C102.638 15.575 103.913 15.475 104.513 16.325C104.588 16.425 104.775 16.4625 104.838 16.325C105.075 15.7625 105.375 15.125 105.913 14.7875C106.45 14.45 107.35 14.4875 107.588 15.1875C107.663 15.4125 108.025 15.3125 107.95 15.0875C107.713 14.4125 107.025 14.1125 106.338 14.225C105.388 14.3875 104.863 15.3375 104.513 16.1375C104.625 16.1375 104.725 16.1375 104.838 16.1375C104.4 15.5125 103.65 15.175 102.9 15.45C102.588 15.5625 102.3 15.7875 102.113 16.075C102.013 16.225 101.95 16.3875 101.888 16.5625C101.85 16.675 101.85 16.8125 101.788 16.9125C101.625 17.1875 101.175 17.3 100.888 17.1375C100.275 16.8 99.675 15.725 98.825 16.1625C98.35 16.4 98.2875 17.075 98.7375 17.3625C98.95 17.4875 99.1375 17.1625 98.925 17.0375Z" fill="#F66F5D"/>
<path d="M106.95 16.9375C106.863 15.6875 108.463 16.1 109.1 16.4125C109.425 16.575 109.825 16.875 110.175 16.6C110.288 16.5125 110.338 16.3875 110.388 16.2625C110.575 15.85 110.7 15.55 111.2 15.4C111.975 15.175 112.725 15.6625 113.35 16.0625C113.55 16.1875 113.738 15.8625 113.538 15.7375C112.875 15.325 112.125 14.8625 111.313 15C111.05 15.0375 110.788 15.1375 110.575 15.3C110.25 15.5375 110.188 15.95 109.863 16.15C109.55 16.3375 109.425 16.15 109.113 16C108.95 15.925 108.788 15.85 108.613 15.7875C108.288 15.675 107.938 15.625 107.6 15.7C107.013 15.8375 106.538 16.3125 106.575 16.9375C106.588 17.175 106.963 17.175 106.95 16.9375Z" fill="#F66F5D"/>
<path d="M143.125 68.7125C142.3 66.9 145.425 66.1 145.638 68C145.713 68.6375 145.363 69.3125 144.713 69.4875C143.988 69.675 143.213 69.1875 143.013 68.4875C142.95 68.25 142.588 68.35 142.65 68.5875C142.9 69.4875 143.888 70.0875 144.813 69.85C145.725 69.6125 146.175 68.6 145.963 67.725C145.738 66.8 144.775 66.35 143.888 66.5875C142.85 66.8625 142.363 67.95 142.8 68.925C142.9 69.125 143.225 68.925 143.125 68.7125Z" fill="#F66F5D"/>
<path d="M145.45 70.15C144.775 70.0875 144.525 69.1875 144.988 68.7375C145.375 68.35 146.038 68.375 146.45 68.7C146.875 69.0375 147.288 70.025 146.813 70.5C146.188 71.125 145.425 70.1125 145.125 69.6625C144.988 69.4625 144.663 69.65 144.8 69.85C145.238 70.525 146.238 71.5875 147.075 70.7625C147.738 70.1125 147.263 68.8 146.613 68.3375C145.95 67.8625 144.863 68.025 144.488 68.8C144.113 69.55 144.663 70.45 145.463 70.525C145.688 70.55 145.688 70.175 145.45 70.15Z" fill="#F66F5D"/>
<path d="M31.9001 54.4375C32.4001 54.4125 32.6626 54.075 33.0126 53.7625C33.8376 53.025 34.7876 53.725 35.3126 54.45C35.8126 55.1375 36.5376 55.625 37.1751 54.8C37.4751 54.4125 37.6251 53.8375 38.0376 53.5625C38.8751 53 39.5876 54.1125 40.1126 54.6C40.7126 55.15 41.9501 55.4 42.2251 54.375C42.2876 54.1375 41.9251 54.0375 41.8626 54.275C41.7251 54.8125 41.0751 54.8 40.6876 54.575C40.3876 54.4 40.1751 54.125 39.9376 53.8875C39.5876 53.5125 39.2001 53.15 38.6751 53.05C37.8126 52.9 37.4251 53.675 37.0376 54.3C36.9376 54.475 36.8126 54.7125 36.6251 54.8125C36.1751 55.05 35.8501 54.575 35.6126 54.2625C35.3126 53.8375 34.9751 53.475 34.4876 53.25C34.0876 53.0625 33.6126 53 33.2001 53.175C32.7251 53.375 32.4251 54.05 31.8876 54.075C31.6626 54.075 31.6626 54.45 31.9001 54.4375Z" fill="#F66F5D"/>
<path d="M40.6376 51.8625C41.1626 52.4875 42.1001 53.325 42.9251 52.6375C43.1251 52.4625 43.2376 52.2125 43.4501 52.0375C43.7626 51.8 44.1751 51.75 44.5376 51.8625C45.3251 52.075 45.7876 52.825 46.2001 53.4625C46.2751 53.575 46.4626 53.6 46.5251 53.4625C47.0626 52.2875 48.5001 52 49.6251 52.45C49.8501 52.5375 49.9501 52.175 49.7251 52.0875C48.4626 51.575 46.8001 51.95 46.2001 53.2625C46.3126 53.2625 46.4126 53.2625 46.5251 53.2625C45.9626 52.3875 45.2501 51.3875 44.0751 51.425C43.6626 51.4375 43.2876 51.6125 43.0126 51.9125C42.6876 52.2875 42.4126 52.5875 41.8751 52.425C41.4626 52.3 41.1626 51.9125 40.8876 51.5875C40.7501 51.4125 40.4876 51.675 40.6376 51.8625Z" fill="#F66F5D"/>
<path d="M63.1501 64.9375C62.9876 64.6125 62.8001 64.275 62.6501 63.9375C62.4876 63.5875 62.5626 63.45 62.7751 63.15C63.0501 62.7625 63.4751 62.4125 63.9626 62.675C64.3126 62.8625 64.5376 63.2875 64.6376 63.65C64.8126 64.2625 64.6626 65.1375 63.9501 65.3375C63.3626 65.5 62.6001 65.1375 62.6251 64.4625C62.6251 64.225 62.2501 64.225 62.2501 64.4625C62.2251 65.3 63.0626 65.825 63.8376 65.7375C64.7876 65.625 65.1876 64.625 65.0501 63.775C64.9126 62.95 64.1501 61.9 63.2001 62.2875C62.7376 62.475 62.3876 62.9625 62.1751 63.4C62.0501 63.6625 62.0751 63.675 62.2001 63.9375C62.4001 64.3375 62.6001 64.7375 62.8001 65.125C62.9376 65.3375 63.2626 65.15 63.1501 64.9375Z" fill="black"/>
<path d="M64.5375 67.3875C64.0625 66.825 63.25 65.725 63.95 65.025C64.45 64.525 65.35 64.7125 65.7625 65.2125C66.1875 65.725 66.275 66.725 65.6125 67.1C65.05 67.425 64.2375 67.1125 64.1375 66.4625C64.1 66.225 63.7375 66.325 63.775 66.5625C63.925 67.4125 64.9625 67.8125 65.7125 67.475C66.625 67.05 66.6625 65.7875 66.125 65.05C65.6125 64.3375 64.4875 64.0875 63.7875 64.675C62.775 65.5125 63.65 66.8875 64.2875 67.6375C64.425 67.8375 64.6875 67.575 64.5375 67.3875Z" fill="#F66F5D"/>
<path d="M138.45 42.0875C138.463 40.9875 139.975 41.3125 140.625 41.3875C141.188 41.45 141.7 41.375 142.2 41.1C142.75 40.8125 143.2 40.3625 143.738 40.05C144.088 39.8375 144.513 39.65 144.925 39.65C145.363 39.6625 145.638 39.925 146.025 40.0875C146.925 40.45 147.5 39.6125 148.063 39.0625C149.175 37.975 150.763 38.425 152.063 38.875C152.288 38.95 152.388 38.5875 152.163 38.5125C151 38.1125 149.525 37.675 148.375 38.3375C147.825 38.65 147.5 39.225 147 39.5875C146.288 40.1 145.688 39.2875 144.938 39.275C143.325 39.25 142.475 41.1125 140.85 41.025C140.15 40.9875 139.475 40.725 138.8 41.0375C138.363 41.2375 138.088 41.5875 138.075 42.075C138.063 42.325 138.438 42.325 138.45 42.0875Z" fill="black"/>
<path d="M147.8 41.6625C148.6 40.525 150.1 39.975 151.45 40.3625C152.038 40.5375 152.588 41.0125 153.238 40.975C153.775 40.9375 154.063 40.5 154.425 40.1625C155.013 39.625 155.775 39.1875 156.6 39.2125C157.1 39.225 157.488 39.4125 157.875 39.7375C158 39.85 158.1 39.95 158.275 40C158.525 40.0625 158.75 39.95 158.975 39.85C159.363 39.675 159.763 39.525 160.175 39.4125C161.025 39.2 161.888 39.1625 162.75 39.275C162.988 39.3 162.988 38.925 162.75 38.9C161.925 38.7875 161.1 38.8125 160.288 39C159.925 39.0875 159.563 39.2 159.213 39.3375C158.938 39.45 158.8 39.525 158.488 39.525C158.15 39.525 158.175 39.475 157.95 39.3C156.888 38.4875 155.463 38.8625 154.5 39.625C154.238 39.825 154.025 40.1 153.775 40.3C153.175 40.775 152.7 40.475 152.088 40.2C151.563 39.9625 151.013 39.85 150.438 39.875C149.25 39.925 148.175 40.5125 147.5 41.475C147.338 41.675 147.663 41.8625 147.8 41.6625Z" fill="black"/>
<path d="M120.612 125.5C120.85 127 121.087 128.512 121.312 130.012C116.375 131.612 113.95 132.625 114.05 133.05C114.175 133.575 118.125 133.187 125.9 131.925C125.45 129.55 125.012 127.175 124.562 124.8C123.237 125.025 121.925 125.262 120.612 125.5Z" fill="black"/>
<path d="M109.987 75.275C109.9 76.975 109.775 79.4 109.662 82.3375C109.55 85.45 109.487 87.075 109.5 89.075C109.5 89.9375 109.537 93.45 109.987 97.975C110.362 101.787 110.95 107.487 113.037 114.5C113.862 117.275 115.137 121 117.125 125.25C118.037 125.387 119.112 125.462 120.337 125.412C122.637 125.3 124.5 124.737 125.787 124.212C125.412 122.987 124.887 121.25 124.337 119.162C123.6 116.337 121.475 107.825 120.65 96.3875C120.237 90.6375 120.087 83.4625 120.812 75.2125C117.212 75.225 113.6 75.25 109.987 75.275Z" fill="white"/>
<path opacity="0.09" d="M120.5 76.2375C120.262 77.1375 119.95 78.4375 119.612 80.0125C118.737 84.175 117.837 90.1125 117.925 100.15C117.975 106.325 118.412 114.862 120.012 125.175C120.637 125.112 121.275 125.037 121.937 124.937C123.325 124.725 124.612 124.45 125.787 124.137C125.262 122.437 124.537 119.912 123.787 116.837C121.125 105.875 120.375 96.575 120.175 90.4375C120.062 86.7875 120.062 81.95 120.5 76.2375Z" fill="#606060"/>
<path d="M120.537 75.5999C119.287 88.2499 120.062 101.087 122.825 113.5C123.612 117.025 124.55 120.5 125.65 123.937C125.725 124.162 126.087 124.062 126.012 123.837C122.162 111.75 120.237 99.0749 120.337 86.3874C120.362 82.7874 120.562 79.1749 120.912 75.5874C120.937 75.3624 120.562 75.3624 120.537 75.5999Z" fill="#161616"/>
<path d="M109.475 86.8125C109.012 97.0625 110.45 107.375 113.675 117.112C114.575 119.837 115.625 122.512 116.812 125.125C116.912 125.35 117.237 125.15 117.137 124.937C112.95 115.625 110.487 105.562 109.9 95.375C109.737 92.525 109.725 89.675 109.85 86.8125C109.862 86.5625 109.487 86.575 109.475 86.8125Z" fill="#161616"/>
<path d="M116.962 125.237C117.387 125.712 118.362 125.6 118.937 125.612C119.812 125.625 120.7 125.537 121.562 125.412C122.5 125.275 123.437 125.075 124.362 124.85C124.825 124.737 125.787 124.712 126.025 124.2C126.125 123.987 125.8 123.787 125.7 124.012C125.587 124.275 124.962 124.325 124.725 124.375C124.375 124.462 124.037 124.537 123.687 124.625C123.025 124.775 122.375 124.912 121.712 125.012C121.025 125.125 120.337 125.2 119.65 125.225C119.125 125.25 117.625 125.412 117.237 124.975C117.062 124.787 116.8 125.062 116.962 125.237Z" fill="#161616"/>
<path d="M106.3 75.2C105.938 75.9875 105.45 77.4875 105.1 78.8125C104.663 80.5 104.55 81.5125 104.3 82.9875C103.838 85.7125 103.525 86.175 102.85 89.1625C102.138 92.3625 101.813 94.825 101.563 96.7875C101.363 98.3125 101 101.425 100.838 105.45C100.763 107.187 100.725 108.212 100.763 109.625C100.863 114.062 101.575 117.5 101.888 118.85C102.725 122.562 103.95 125.737 105.175 128.312C105.738 128.6 106.588 128.962 107.663 129.2C108.988 129.487 110.688 129.862 112.313 129.037C112.763 128.812 113.788 128.187 114.563 126.712C113.963 125.075 113.225 122.75 112.638 119.9C111.188 112.825 111.713 107.225 112.075 103.7C112.75 97.0375 114.3 92.0375 116.963 83.4125C117.863 80.5125 118.663 78.1625 119.213 76.6C119.4 75.3625 119.838 71.65 117.85 70.1C114.938 67.8 108.15 71.2125 106.3 75.2Z" fill="white"/>
<path opacity="0.08" d="M117.45 81.85C116.637 83.1375 115.512 85.05 114.4 87.4625C113.025 90.4375 111 95.6625 109.912 106.075C109.312 111.762 108.912 119.725 109.837 129.337C110.225 129.375 111.875 129.512 113.287 128.375C114.012 127.787 114.387 127.112 114.575 126.687C113.962 125 113.175 122.525 112.575 119.462C110.8 110.537 111.912 103.362 112.737 98.3625C113.412 94.1875 114.725 88.425 117.45 81.85Z" fill="#606060"/>
<path d="M108.262 129.175C108.687 130.7 109.112 132.237 109.537 133.762C102.837 135.8 99.55 137.075 99.6625 137.575C99.7875 138.15 104.35 137.725 113.35 136.3C113.112 133.85 112.875 131.412 112.65 128.962C111.175 129.025 109.712 129.1 108.262 129.175Z" fill="black"/>
<path d="M106.162 75.35C104.837 78.7 104.162 82.25 103.45 85.775C102.7 89.4625 101.975 93.15 101.45 96.875C100.475 103.775 100.175 110.837 101.512 117.712C102.225 121.412 103.425 125.012 105.187 128.337C105.3 128.55 105.625 128.362 105.512 128.15C98.8249 115.437 100.85 100.562 103.575 87.075C104.362 83.1625 105.062 79.175 106.537 75.45C106.612 75.225 106.25 75.125 106.162 75.35Z" fill="#161616"/>
<path d="M117.287 81.825C113.1 92.9875 110.3 104.987 111.925 116.95C112.375 120.25 113.162 123.487 114.312 126.612C114.4 126.837 114.762 126.737 114.675 126.512C110.512 115.275 111.362 102.95 114.487 91.5625C115.387 88.3 116.462 85.0875 117.65 81.9125C117.737 81.6875 117.375 81.6 117.287 81.825Z" fill="#161616"/>
<path d="M105.225 128.325C106.987 129.3 109.012 129.712 111.012 129.45C112.65 129.225 114.55 128.475 114.712 126.587C114.737 126.35 114.362 126.35 114.337 126.587C114.162 128.55 111.787 129.075 110.175 129.15C108.512 129.225 106.875 128.812 105.425 128C105.2 127.887 105.012 128.212 105.225 128.325Z" fill="#161616"/>
<path d="M108.875 42.625C108.537 43.025 108.062 43.6375 107.612 44.45C106.075 47.15 105.975 49.8 105.95 52.125C105.925 55.5125 105.9 57.2125 106.262 60.9C106.6 64.35 106.687 69.3 105.475 75.6125C106.562 76.4125 108.15 77.3375 110.225 77.825C116.2 79.225 121.15 75.7375 122.087 75.0625C120.9 68.1 120.25 62.525 119.875 58.6125C119.637 56.1375 118.762 52.5375 117.025 45.325C116.5 43.125 115.962 41.025 114.337 40.425C112.087 39.575 109.325 42.1875 108.875 42.625Z" fill="#F66F5D"/>
<path opacity="0.1" d="M114.275 40.6C114.475 41.4125 114.763 42.6375 115.05 44.15C115.425 46.1 115.925 49.05 116.275 53.4375C116.638 57.9625 117.05 66.45 117.175 77.425C118.025 77.175 119.05 76.8 120.138 76.2C120.863 75.8 121.488 75.375 122.013 74.975C121.925 74.0125 121.763 72.55 121.5 70.7875C121.163 68.575 120.825 67.0375 120.663 66.275C120.263 64.3 119.813 61.35 119.763 57.25C119.25 55.075 118.863 53.325 118.6 52.1625C117.875 48.8625 117.663 47.65 117.113 45.65C116.563 43.6375 115.988 42.0375 115.625 41.075C115.175 40.9 114.725 40.75 114.275 40.6Z" fill="#606060"/>
<path d="M108.862 43.825C108.975 44.05 109.162 44.125 109.575 44.325C109.925 44.5 110.262 44.7125 110.612 44.8625C111.687 45.325 112.95 47.375 113.15 47.7C113.912 48.9375 114.8 50.3875 115.312 52.4875C115.45 53.0375 115.762 54.4625 115.4 59.275C115.012 64.2125 114.512 64.9 114.9 67.3625C115.187 69.15 115.55 71.2875 117.312 72.45C118.95 73.525 120.837 73.15 121.225 73.075C123.6 72.6125 124.95 70.775 126.262 68.9875C128.262 66.275 129.025 63.5625 129.35 61.9875C129.5 61.25 129.475 59.0875 129.437 54.775C129.387 50.325 129.312 48.7875 128.15 47.4875C127.362 46.6125 126.4 46.2 125.737 45.9875C125.787 45.7125 125.8 45.3 125.575 44.95C125.15 44.3 124.137 44.3125 123.487 44.325C120.7 44.4 118.625 46.275 118.525 46.3625C116.787 47.975 116.275 49.95 116.112 50.775C115.762 49.225 115.187 48.0375 114.737 47.275C114.35 46.6125 113.775 45.9375 112.612 44.5625C111.7 43.4875 111.262 43.075 110.575 42.85C110.425 42.8 109.287 42.4625 108.912 42.975C108.737 43.2125 108.737 43.575 108.862 43.825Z" fill="white"/>
<path opacity="0.11" d="M108.775 43.3625C108.85 43.225 109.687 43.5375 109.775 43.575C111.012 44.05 112.112 45.0375 113.525 47.325C114.25 48.5 115.162 50.1625 115.937 52.325C116.487 51.7625 116.95 51.3 117.312 50.95C117.312 50.95 118.65 49.6625 120.812 48.4125C121.025 48.2875 121.287 48.1375 121.475 48.25C121.862 48.4625 121.45 49.5 121.562 50.4625C121.65 51.1875 122.075 52.1875 123.687 53.3C123.725 53.5125 123.737 53.8125 123.562 54.0125C123.212 54.4 122.312 54.0875 121.85 53.925C121.1 53.6625 119.65 52.975 117.937 50.9625C117.775 51.6125 117.562 52.5375 117.4 53.675C117.25 54.6625 116.837 57.95 117.525 62.175C117.8 63.85 118.312 66.0875 119.362 68.6375C119.825 68.8375 120.412 69.025 121.112 69.1375C122.575 69.3625 123.787 69.075 124.487 68.85C124.075 69.05 123.512 69.3875 123.025 69.975C122.437 70.6875 122.425 71.225 121.937 71.8875C121.612 72.3375 121.025 72.9 119.937 73.3C119.6 73.2625 119.087 73.175 118.525 72.925C116.812 72.1625 116.037 70.55 115.687 69.8C115.225 68.7875 114.512 66.7375 115.187 59.8C115.575 55.8375 116 54.6 115.35 52.3375C114.85 50.6 113.987 49.1625 113.687 48.675C113.15 47.8 112.187 46.2375 110.437 44.8C109.612 44.1 108.7 43.525 108.775 43.3625Z" fill="#606060"/>
<path d="M122.713 46.1625C122.488 46.4625 122.2 46.9 121.975 47.475C121.85 47.8125 121.55 48.6 121.625 49.6C121.763 51.5875 123.188 52.8 123.45 53.0125C123.625 53.15 123.775 53.2625 123.875 53.325C123.725 53.8375 123.55 54.6 123.488 55.5375C123.388 56.8625 123.288 58.35 124.063 58.7875C124.563 59.0625 125.313 58.875 125.725 58.475C125.825 58.375 126.113 58.0625 126.188 56.65C126.275 54.975 125.925 54.275 126.425 53.7875C126.638 53.5625 127 53.425 127.313 53.2875C127.663 53.1375 127.975 53.0625 128.2 53.0125C128.063 54.0375 127.963 54.95 127.888 55.6875C127.8 56.6 127.763 57.0625 128.075 57.35C128.363 57.6125 128.838 57.6625 129.2 57.5C129.675 57.2875 129.825 56.7 130.088 55.525C130.3 54.6 130.475 53.825 130.363 52.775C130.3 52.2375 130.188 51.8 130.088 51.5C130.063 51.2875 130 50.975 129.9 50.6125C129.688 49.8875 129.488 49.675 129.363 49.2125C129.175 48.55 129.388 48.225 129.438 47.475C129.488 46.8875 129.438 46.05 129.013 45C128.85 45.0125 128.513 45.0375 128.163 45.275C127.738 45.55 127.563 45.95 127.5 46.0875C127.175 46.0125 126.588 45.9375 125.913 46.125C124.75 46.4375 124.138 47.3 123.975 47.5625C124.3 46.85 124.025 46.15 123.588 45.975C123.213 45.8125 122.763 46.1375 122.713 46.1625Z" fill="black"/>
<path d="M124.125 50.0375C124.25 49.8 124.875 49.275 125.087 49.7125C125.187 49.925 125.512 49.7375 125.412 49.525C125.275 49.2375 124.937 49.15 124.637 49.2125C124.275 49.275 123.975 49.525 123.8 49.85C123.687 50.0625 124.012 50.25 124.125 50.0375Z" fill="white"/>
<path d="M127.787 49.075C127.862 48.9125 127.937 48.725 128.062 48.6C128.187 48.475 128.562 48.3375 128.575 48.625C128.587 48.8625 128.962 48.8625 128.95 48.625C128.925 48.2625 128.612 48.025 128.25 48.075C127.837 48.15 127.625 48.525 127.462 48.875C127.362 49.1 127.687 49.3 127.787 49.075Z" fill="white"/>
<path d="M127.887 50.2625C127.887 50.275 127.887 50.2875 127.887 50.3C127.862 50.325 127.837 50.35 127.825 50.3625C127.762 50.4 127.662 50.3625 127.675 50.2875C127.675 50.2875 127.675 50.25 127.687 50.2625L127.65 50.3C127.737 50.3 127.825 50.3 127.912 50.3C127.9 50.2875 127.9 50.2875 127.887 50.275C127.9 50.2875 127.9 50.2875 127.9 50.2875C127.887 50.275 127.9 50.275 127.9 50.3C127.912 50.375 127.875 50.425 127.775 50.4625C127.737 50.45 127.712 50.45 127.675 50.4375C127.625 50.4125 127.637 50.3375 127.65 50.3C127.662 50.2875 127.65 50.2875 127.637 50.3125C127.65 50.3 127.65 50.3 127.637 50.3125C127.55 50.375 127.512 50.475 127.575 50.575C127.625 50.65 127.75 50.7 127.837 50.6375C127.925 50.575 128.012 50.4875 128.025 50.3625C128.025 50.225 127.925 50.1 127.787 50.1C127.65 50.1 127.55 50.1875 127.537 50.325C127.525 50.425 127.587 50.5125 127.65 50.575C127.725 50.65 127.837 50.6375 127.912 50.575C128.075 50.45 128.112 50.1875 127.925 50.0625C127.837 50.0125 127.725 50 127.637 50.05C127.525 50.1125 127.512 50.2625 127.537 50.375C127.55 50.475 127.675 50.525 127.762 50.5C127.862 50.4625 127.9 50.3625 127.887 50.2625Z" fill="white"/>
<path d="M125.887 50.65C125.525 50.8625 125.037 50.7625 124.8 50.4125C124.662 50.2125 124.337 50.4 124.475 50.6C124.837 51.1125 125.525 51.2875 126.087 50.975C126.287 50.85 126.1 50.525 125.887 50.65Z" fill="white"/>
<path d="M125.613 51.4625C125.338 51.675 125.1 51.95 124.938 52.2625C124.825 52.475 125.15 52.6625 125.263 52.45C125.413 52.1625 125.625 51.925 125.888 51.725C125.963 51.6625 125.95 51.525 125.888 51.4625C125.8 51.3875 125.688 51.4 125.613 51.4625Z" fill="white"/>
<path d="M128.65 50.0875C128.9 49.8 129.087 49.475 129.212 49.1125C129.287 48.8875 128.925 48.7875 128.85 49.0125C128.75 49.3125 128.587 49.5875 128.387 49.825C128.237 50.0125 128.5 50.275 128.65 50.0875Z" fill="white"/>
<path d="M128.675 50.5625C128.975 50.5 129.325 50.425 129.562 50.675C129.725 50.85 129.987 50.5875 129.825 50.4125C129.487 50.05 129 50.1125 128.562 50.2125C128.337 50.25 128.437 50.6125 128.675 50.5625Z" fill="white"/>
<path d="M108.712 43.5375C109.287 42.6375 110.65 43.175 111.337 43.625C112.162 44.15 112.787 44.9375 113.35 45.725C114.487 47.3125 115.5 49.0375 115.875 50.975C115.925 51.2125 116.287 51.1125 116.237 50.875C115.8 48.5625 114.45 46.3375 112.925 44.5625C112.037 43.5375 109.525 41.6 108.387 43.3625C108.262 43.55 108.587 43.75 108.712 43.5375Z" fill="#161616"/>
<path d="M109.488 44.3875C112.488 46.075 114.175 49.2375 115.025 52.4625C115.088 52.7 115.45 52.6 115.388 52.3625C114.513 49.05 112.75 45.7875 109.675 44.0625C109.463 43.9375 109.275 44.2625 109.488 44.3875Z" fill="#161616"/>
<path d="M116.238 50.8125C116.55 48.6 117.963 46.75 119.9 45.6875C120.9 45.1375 122.013 44.8 123.15 44.6375C123.688 44.5625 124.313 44.4875 124.838 44.6875C125.413 44.9 125.963 45.8125 125.238 46.225C125.025 46.3375 125.213 46.6625 125.425 46.55C126.225 46.1 126.025 44.95 125.325 44.5125C124.238 43.825 122.438 44.3125 121.325 44.6875C118.575 45.575 116.3 47.8 115.888 50.7375C115.838 50.95 116.2 51.05 116.238 50.8125Z" fill="#161616"/>
<path d="M117.075 51.375C117.687 50.6625 118.462 50.0625 119.212 49.5C119.937 48.95 120.712 48.5 121.612 48.3C121.85 48.25 121.75 47.8875 121.512 47.9375C120.587 48.15 119.775 48.6125 119.025 49.175C118.25 49.7625 117.45 50.375 116.812 51.1125C116.65 51.2875 116.912 51.5625 117.075 51.375Z" fill="#161616"/>
<path d="M121.662 48.3375C121.925 47.7375 122.262 47.1625 122.675 46.65C122.75 46.5625 122.837 46.4125 122.937 46.35C123.025 46.1875 123.137 46.175 123.3 46.325C123.5 46.325 123.587 46.4 123.587 46.575C123.725 46.8375 123.737 47.2875 123.787 47.5875C123.837 47.825 124.2 47.725 124.15 47.4875C124.05 47.0125 123.925 45.3125 123.025 45.775C122.675 45.95 122.412 46.3875 122.187 46.6875C121.85 47.15 121.575 47.6375 121.337 48.15C121.237 48.3625 121.562 48.5625 121.662 48.3375Z" fill="#161616"/>
<path d="M124.075 47.7C124.712 46.875 126.012 45.7375 127.125 46.35C127.337 46.4625 127.525 46.1375 127.312 46.025C126.025 45.3375 124.575 46.4625 123.8 47.4375C123.662 47.625 123.925 47.8875 124.075 47.7Z" fill="#161616"/>
<path d="M127.488 46.2875C127.663 46.0125 128.475 45.025 128.825 45.2875C129.012 45.425 129.05 45.9125 129.1 46.1375C129.175 46.4875 129.2 46.8375 129.212 47.2C129.225 47.4375 129.6 47.4375 129.587 47.2C129.575 46.7 129.512 46.2125 129.387 45.725C129.312 45.45 129.25 44.925 128.925 44.8375C128.625 44.7625 128.213 45.05 127.988 45.2125C127.65 45.45 127.388 45.75 127.175 46.1C127.038 46.3 127.363 46.4875 127.488 46.2875Z" fill="#161616"/>
<path d="M117.563 50.7625C118.425 51.6 119.338 52.375 120.313 53.075C121.275 53.7625 122.213 54.25 123.425 54.1875C123.663 54.175 123.663 53.8 123.425 53.8125C122.188 53.875 121.275 53.325 120.313 52.625C119.425 51.975 118.6 51.2625 117.813 50.5C117.65 50.3375 117.388 50.6 117.563 50.7625Z" fill="#161616"/>
<path d="M115.037 52.05C116.4 58.1 112.85 64.7125 115.787 70.5C116.337 71.5875 117.175 72.575 118.325 73.0625C119.45 73.5375 120.75 73.5 121.912 73.125C124.487 72.3 126.15 69.9125 127.425 67.6625C128.237 66.25 128.912 64.7375 129.312 63.15C129.512 62.3625 129.637 61.5375 129.675 60.725C129.712 59.7875 129.587 58.85 129.625 57.9125C129.637 57.675 129.262 57.675 129.25 57.9125C129.2 59.4375 129.4 60.8875 129.1 62.4C128.837 63.75 128.35 65.0625 127.737 66.2875C126.6 68.5875 125.062 71.175 122.7 72.3875C121.475 73.0125 119.962 73.25 118.65 72.7625C117.362 72.2875 116.512 71.15 115.962 69.9375C114.787 67.3 114.925 64.3 115.237 61.5C115.587 58.325 116.137 55.1125 115.425 51.9375C115.337 51.725 114.975 51.8125 115.037 52.05Z" fill="#161616"/>
<path d="M120.6 64.5625C119.9 65.7875 119.437 67.1125 119.237 68.5125C119.2 68.75 119.562 68.85 119.6 68.6125C119.8 67.2375 120.237 65.95 120.925 64.75C121.05 64.55 120.725 64.3625 120.6 64.5625Z" fill="#161616"/>
<path d="M120.838 64.7C122.688 64.5375 124.638 64.1875 126.488 64.3875C126.725 64.4125 126.725 64.0375 126.488 64.0125C124.638 63.8 122.688 64.1625 120.838 64.325C120.6 64.35 120.6 64.725 120.838 64.7Z" fill="#161616"/>
<path d="M119.425 68.85C120.337 69.3875 121.4 69.3375 122.425 69.3125C123.5 69.275 124.575 69.15 125.512 68.5875C125.725 68.4625 125.525 68.1375 125.325 68.2625C124.437 68.8 123.437 68.9 122.425 68.9375C121.475 68.975 120.475 69.0375 119.612 68.5375C119.412 68.4125 119.225 68.7375 119.425 68.85Z" fill="#161616"/>
<path d="M126.312 64.3C126.075 65.675 125.712 67 125.225 68.3C125.137 68.525 125.5 68.625 125.587 68.4C126.087 67.1 126.45 65.7625 126.675 64.4C126.712 64.1625 126.35 64.0625 126.312 64.3Z" fill="#161616"/>
<path d="M120.5 65.2125C121.112 66.5625 122.85 66.9 124.187 66.9125C124.425 66.9125 124.425 66.5375 124.187 66.5375C122.987 66.5125 121.375 66.2375 120.825 65.0125C120.725 64.8 120.4 65 120.5 65.2125Z" fill="#161616"/>
<path d="M123.2 66.425C123.162 66.7375 123.125 67.05 123.087 67.35C123.062 67.5875 123.437 67.5875 123.462 67.35C123.5 67.0375 123.537 66.725 123.575 66.425C123.6 66.1875 123.225 66.1875 123.2 66.425Z" fill="#161616"/>
<path d="M123.912 66.425C123.875 66.7375 123.837 67.05 123.812 67.3625C123.787 67.6 124.162 67.6 124.187 67.3625C124.225 67.05 124.262 66.7375 124.287 66.425C124.312 66.1875 123.937 66.1875 123.912 66.425Z" fill="#161616"/>
<path d="M124.238 66.95C125.125 66.75 125.863 66.2 126.325 65.425C126.45 65.2125 126.125 65.025 126 65.2375C125.575 65.9375 124.925 66.4 124.138 66.5875C123.9 66.65 124 67.0125 124.238 66.95Z" fill="#161616"/>
<path d="M121.5 47.6625C121.125 49.875 121.538 52.5125 123.8 53.525C124.013 53.625 124.213 53.3 123.988 53.2C121.875 52.25 121.513 49.8125 121.863 47.7625C121.9 47.525 121.538 47.425 121.5 47.6625Z" fill="#161616"/>
<path d="M129.187 47.0625C129.212 47.775 129.2 48.5 129.3 49.2C129.4 49.9625 130.087 50.8125 129.725 51.575C129.625 51.7875 129.95 51.9875 130.05 51.7625C130.375 51.075 130.087 50.5 129.85 49.825C129.537 48.9625 129.612 47.9625 129.575 47.05C129.55 46.8125 129.175 46.8125 129.187 47.0625Z" fill="#161616"/>
<path d="M124.825 53.2625C125.375 52.975 126 53.275 126.125 53.875C126.137 53.9375 126.225 53.9125 126.212 53.85C126.062 53.1875 125.375 52.8625 124.775 53.175C124.725 53.2125 124.775 53.3 124.825 53.2625Z" fill="white"/>
<path d="M125.775 53.9C125.862 54 125.925 54.1125 125.962 54.2375C125.987 54.3 126.075 54.275 126.05 54.2125C126 54.075 125.925 53.95 125.837 53.8375C125.8 53.7875 125.725 53.8625 125.775 53.9Z" fill="white"/>
<path d="M128.287 53.025C128.4 52.5125 128.725 52.0875 129.2 51.85C129.25 51.825 129.212 51.7375 129.15 51.775C128.65 52.0125 128.312 52.4625 128.2 53C128.187 53.0625 128.275 53.0875 128.287 53.025Z" fill="white"/>
<path d="M106.275 26.525C105.412 26.9625 104.687 27.7875 104.362 28.15C103.562 29.0625 103.15 29.9125 102.7 30.8625C102.325 31.6375 101.887 32.7375 101.537 34.1125C102.025 34.2 102.512 34.275 103 34.3625C102.975 34.8375 102.975 35.5375 103.162 36.3625C103.337 37.1125 103.625 38.3125 104.625 39.15C106 40.325 107.825 40.0375 108.162 39.9875C108.187 40.575 108.312 41.4125 108.787 42.275C108.912 42.4875 109.037 42.6875 109.162 42.8625C109.85 42.6625 110.912 42.25 111.95 41.4C114.6 39.2625 114.962 36.075 115.075 35.15C115.237 33.725 115.55 31.0375 113.787 28.8125C111.95 26.5125 108.462 25.425 106.275 26.525Z" fill="white"/>
<path d="M103.712 29.125C104.062 28.6 104.737 27.825 105.5 27.2875C106.725 26.425 107.275 26.7875 107.9 26.025C108.35 25.475 108.637 24.575 108.3 24.15C107.762 23.475 105.85 24.2875 105.6 24.4C105.05 24.6375 103.237 25.4 102.512 27.325C101.912 28.9375 102.312 30.7 102.587 30.7375C102.662 30.75 102.712 30.625 103.112 30.0125C103.3 29.7 103.512 29.4125 103.712 29.125Z" fill="black"/>
<path d="M106.437 25.3625C106.337 25.6875 106.187 26.3375 106.687 27.6125C107.575 29.9 109.65 31.95 110.687 31.575C110.912 31.4875 111.15 31.2625 111.6 31.2375C111.712 31.2375 112.162 31.2125 112.512 31.4875C113.062 31.925 113.087 32.875 112.725 33.4875C112.662 33.6 112.325 34.1125 111.812 34.15C111.362 34.1875 111.212 33.8375 110.85 33.8125C109.962 33.7625 109.2 35.7125 109.1 35.975C108.9 36.475 108.412 37.775 108.762 39.4375C108.837 39.8 109.012 40.5625 109.55 41.35C110.712 43.0375 112.662 43.45 113.387 43.6C114.1 43.75 116.812 44.3125 118.925 42.5625C119.262 42.2875 120.375 41.3375 120.675 39.725C121.187 37 118.9 34.9625 118.762 34.85C118.662 33.4375 118.325 31.1875 117.137 28.725C116.387 27.1625 115.687 25.725 114.1 24.6375C112.012 23.225 108.975 22.825 107.387 24.05C107.225 24.2 106.687 24.625 106.437 25.3625Z" fill="black"/>
<path d="M104.063 38.775C103.875 38.9625 103.325 39.5375 103.225 40.4375C103.088 41.6875 103.925 42.55 104.1 42.725C105.013 43.6625 106.538 44.0375 107.638 43.475C107.725 43.4375 108.688 42.925 108.725 42.1875C108.738 41.8625 108.563 41.7 108.313 40.975C108.15 40.5 108.05 40.1125 107.975 39.85C107.638 39.9625 107.063 40.1125 106.35 40.0125C105.075 39.85 104.288 39.025 104.063 38.775Z" fill="black"/>
<path opacity="0.12" d="M106.562 26.4625C106.575 26.85 106.625 27.425 106.887 28.0375C107.062 28.45 107.238 28.7 107.375 28.9C107.9 29.7 108.075 30.45 108.35 31.2875C108.787 32.5875 108.713 33.675 108.625 35.025C108.55 36.15 108.3 37.8625 107.488 39.85C107.825 39.95 108.313 40.15 108.838 40.5C109.8 41.15 110.237 41.925 110.512 42.2875C111.075 43.025 112.325 43.8 115.338 43.75C115.038 43.45 114.613 43 114.15 42.45C113.063 41.175 112.113 40.0625 111.55 38.7125C111.225 37.9375 110.725 36.35 111.113 34.05C111.463 34.225 111.875 34.2125 112.2 34C112.537 33.775 112.75 33.325 112.637 32.9125C112.5 32.4375 111.925 32.1125 111.338 32.2625C111.213 31.95 111.012 31.5 110.688 31.0125C110.175 30.25 109.638 29.775 109.438 29.6C108.8 29.05 107.875 28.1125 106.562 26.4625Z" fill="#606060"/>
<path opacity="0.14" d="M101.675 33.8875C101.687 33.6875 102.325 33.525 102.862 33.5625C103.337 33.6 103.9 33.8125 103.887 34C103.875 34.175 103.35 34.3125 102.962 34.325C102.362 34.35 101.675 34.0875 101.675 33.8875Z" fill="#606060"/>
<path d="M103.225 29.2375C102.512 30.8 101.875 32.3875 101.325 34.0125C101.287 34.1125 101.362 34.2125 101.45 34.2375C101.937 34.425 102.425 34.5125 102.937 34.5C103.175 34.5 103.175 34.125 102.937 34.125C102.45 34.125 102 34.0375 101.55 33.875C101.587 33.95 101.637 34.025 101.675 34.1C102.212 32.5 102.825 30.9375 103.537 29.4125C103.65 29.2125 103.325 29.0125 103.225 29.2375Z" fill="#161616"/>
<path d="M102.888 34.575C102.988 36.1875 103.138 37.975 104.338 39.1875C105.488 40.3625 107.15 40.2625 108.663 40.0875C108.9 40.0625 108.9 39.6875 108.663 39.7125C107.263 39.875 105.675 40.0125 104.6 38.925C103.475 37.7875 103.363 36.0875 103.263 34.575C103.25 34.3375 102.875 34.3375 102.888 34.575Z" fill="#161616"/>
<path d="M107.925 40.125C108.087 41 108.387 41.8375 108.812 42.6125C108.925 42.825 109.25 42.6375 109.137 42.425C108.725 41.6625 108.45 40.875 108.287 40.025C108.25 39.7875 107.887 39.8875 107.925 40.125Z" fill="#161616"/>
<path d="M103.138 36.4875C103.75 37.025 104.663 36.775 104.9 35.9875C104.975 35.75 104.613 35.6625 104.538 35.8875C104.388 36.3875 103.8 36.575 103.413 36.2125C103.225 36.0625 102.963 36.325 103.138 36.4875Z" fill="#161616"/>
<path d="M104.287 35.975C104.487 36.025 104.637 36.1375 104.762 36.2875C104.825 36.3625 104.962 36.35 105.025 36.2875C105.1 36.2125 105.087 36.1 105.025 36.025C104.862 35.825 104.637 35.675 104.387 35.6125C104.162 35.55 104.062 35.9125 104.287 35.975Z" fill="#161616"/>
<path d="M104.85 31.3C104.95 30.775 105.6 30.875 105.95 31.0625C106.25 31.225 106.462 31.4875 106.587 31.8C106.675 32.025 107.037 31.925 106.95 31.7C106.75 31.1625 106.337 30.7375 105.762 30.5875C105.237 30.45 104.612 30.6125 104.5 31.2C104.45 31.4375 104.812 31.5375 104.85 31.3Z" fill="#161616"/>
<path d="M104.837 29.0875C105.4 28.15 106.5 28.875 106.725 29.6625C106.787 29.9 107.15 29.8 107.087 29.5625C106.925 28.9875 106.525 28.45 105.912 28.3C105.362 28.175 104.8 28.4125 104.512 28.8875C104.387 29.1125 104.712 29.3 104.837 29.0875Z" fill="#161616"/>
<path d="M105.213 33.425C105.45 33.425 105.45 33.05 105.213 33.05C104.975 33.05 104.963 33.425 105.213 33.425Z" fill="#161616"/>
<path d="M105.925 32.8625C105.937 32.8625 105.962 32.8625 105.975 32.8625C106.075 32.8625 106.162 32.775 106.162 32.675C106.162 32.575 106.075 32.4875 105.975 32.4875C105.962 32.4875 105.937 32.4875 105.925 32.4875C105.825 32.4875 105.737 32.575 105.737 32.675C105.737 32.7875 105.825 32.8625 105.925 32.8625Z" fill="#161616"/>
<path d="M105.938 33.5C105.938 33.5125 105.938 33.525 105.938 33.5375C105.938 33.775 106.312 33.775 106.312 33.5375C106.312 33.525 106.312 33.5125 106.312 33.5C106.312 33.2625 105.938 33.2625 105.938 33.5C105.938 33.5125 105.938 33.525 105.938 33.5375C105.938 33.775 106.312 33.775 106.312 33.5375C106.312 33.525 106.312 33.5125 106.312 33.5C106.312 33.2625 105.938 33.2625 105.938 33.5Z" fill="#161616"/>
<path d="M111.387 31.5875C111.725 31.1 112.3 31.4125 112.5 31.8125C112.662 32.125 112.662 32.5 112.65 32.8375C112.6 33.6875 111.887 34.2875 111.062 33.7625C110.862 33.625 110.675 33.95 110.875 34.0875C111.362 34.4125 111.987 34.45 112.475 34.075C112.975 33.6875 113.062 33.05 113.025 32.45C112.987 31.875 112.762 31.2375 112.162 31.025C111.737 30.875 111.312 31.0375 111.062 31.4C110.937 31.5875 111.262 31.775 111.387 31.5875Z" fill="#161616"/>
<path d="M77.7624 24.45C77.4999 24.45 77.2374 24.4625 76.9874 24.4625C76.5624 25.2875 76.3249 26.0375 76.1874 26.5875C75.7874 28.2 75.8874 29.5375 75.9624 30.1875C76.0124 30.625 76.0874 30.9875 76.1499 31.2375C76.3749 31.2375 76.5999 31.2375 76.8249 31.2375C76.9124 31.5375 76.9999 31.8375 77.0874 32.1375C79.1999 32.125 80.9374 32.125 82.1499 32.1375C89.4999 32.2 94.6249 32.4875 95.8124 32.55C97.2999 32.6375 98.5124 32.725 99.2624 32.775C99.2874 32.3125 99.4124 32.15 99.5249 32.1C99.7249 32.0125 99.8999 32.225 100.162 32.175C100.437 32.125 100.612 31.8375 100.725 31.575C100.95 31.6875 101.362 31.8375 101.85 31.7625C101.962 31.75 102.062 31.7125 102.15 31.6875C102.362 31.2625 102.575 30.8375 102.787 30.4125C102.487 30.3125 102.062 30.225 101.55 30.225C101.262 30.225 101.012 30.2625 100.8 30.3C100.775 30.2375 100.575 29.675 100.05 29.55C99.8874 29.5125 99.7499 29.525 99.6374 29.55C99.5624 29.4125 99.4874 29.275 99.4124 29.1375C99.1124 29.0875 98.6499 29.0125 98.0999 28.9125C93.6374 28.1 90.5249 27.1125 88.1499 26.4C85.8749 25.7125 82.5624 24.775 78.3124 23.7375C78.1374 23.975 77.9499 24.2125 77.7624 24.45Z" fill="white"/>
<path opacity="0.07" d="M75.9999 29.3C76.1124 29.275 76.2374 29.5625 76.3749 29.525C76.5999 29.475 76.5499 28.6875 76.5999 28.1C76.6374 27.5375 76.7999 26.725 77.3499 25.7375C77.7124 25.8875 78.2624 26.125 78.9249 26.4125C81.3124 27.45 82.9624 28.25 83.4624 28.475C86.7624 30.0125 90.3874 30.7 91.2999 30.875C93.3749 31.275 96.2499 31.625 99.6999 31.475C99.5499 31.8875 99.3999 32.3 99.2499 32.7125C98.6749 32.7 97.8374 32.7 96.8124 32.675C92.4124 32.5875 89.3374 32.45 87.5749 32.375C85.0874 32.275 81.5249 32.175 77.0249 32.1875C76.9749 31.85 76.9249 31.5125 76.8749 31.175C76.5874 31.225 76.2999 31.275 76.0124 31.325C75.8249 29.7625 75.8749 29.325 75.9999 29.3Z" fill="#606060"/>
<path d="M78.025 23.75C76.4625 26.1625 76.025 29.1625 76.825 31.925C76.8875 32.1625 77.25 32.0625 77.1875 31.825C76.4125 29.15 76.8375 26.275 78.35 23.9375C78.4875 23.725 78.1625 23.5375 78.025 23.75Z" fill="#161616"/>
<path d="M78.35 24.1124C85.3875 25.8874 92.4125 27.6624 99.45 29.4249C99.6875 29.4874 99.7875 29.1249 99.55 29.0624C92.5125 27.2874 85.4875 25.5124 78.45 23.7499C78.225 23.6874 78.125 24.0499 78.35 24.1124Z" fill="#161616"/>
<path d="M77.0874 32.3375C84.4249 32.275 91.7624 32.45 99.0874 32.85C99.3249 32.8625 99.3249 32.4875 99.0874 32.475C91.7624 32.075 84.4249 31.9 77.0874 31.9625C76.8499 31.9625 76.8499 32.3375 77.0874 32.3375Z" fill="#161616"/>
<path d="M99.3375 29.2874C99.8375 30.3999 99.725 31.6624 99.0375 32.6749C98.9 32.8749 99.225 33.0624 99.3625 32.8624C100.125 31.7374 100.225 30.3374 99.6625 29.0999C99.5625 28.8874 99.2375 29.0749 99.3375 29.2874Z" fill="#161616"/>
<path d="M99.7125 29.775C99.85 29.875 99.95 29.8375 100.112 29.875C100.425 29.9625 100.55 30.25 100.612 30.55C100.712 31.1 100.575 32.2625 99.7625 31.9375C99.5375 31.85 99.4375 32.2125 99.6625 32.3C100.487 32.625 101.025 31.7625 101.025 31.0375C101.025 30.6375 100.975 30.1875 100.75 29.85C100.675 29.7375 100.575 29.625 100.45 29.5625C100.287 29.4875 100.062 29.5375 99.925 29.4375C99.7 29.3125 99.5125 29.6375 99.7125 29.775Z" fill="#161616"/>
<path d="M100.812 30.4625C101.45 30.425 102.087 30.4375 102.712 30.525C102.95 30.55 102.95 30.175 102.712 30.15C102.075 30.075 101.45 30.05 100.812 30.0875C100.575 30.1125 100.575 30.4875 100.812 30.4625Z" fill="#161616"/>
<path d="M100.763 31.8375C101.275 31.925 101.788 31.9625 102.3 31.9125C102.538 31.8875 102.538 31.5125 102.3 31.5375C101.813 31.575 101.338 31.5625 100.863 31.475C100.625 31.4375 100.525 31.7875 100.763 31.8375Z" fill="#161616"/>
<path d="M77.8124 24.35C76.5999 23.65 76.2624 25.8375 76.0999 26.525C75.7249 28.1125 75.5499 29.75 76.0124 31.3375C76.0374 31.4125 76.1124 31.475 76.1874 31.475C76.3499 31.475 76.5249 31.475 76.6874 31.475C76.9249 31.475 76.9249 31.1 76.6874 31.1C76.5249 31.1 76.3499 31.1 76.1874 31.1C76.2499 31.15 76.3125 31.1875 76.3625 31.2375C76.0375 30.0875 76.0374 28.925 76.2249 27.75C76.3124 27.225 76.4249 26.7 76.5624 26.1875C76.6499 25.85 76.925 24.2625 77.6125 24.675C77.8375 24.8 78.0249 24.475 77.8124 24.35Z" fill="#161616"/>
<path d="M91.325 27.0375C91.1 26.7625 90.725 26.8 90.675 26.8C90.2625 26.825 89.8625 27.2 89.425 28.1125C88.575 29.85 88.5375 31.5875 88.5375 31.8625C88.525 33.0625 88.6375 35.0125 89.4875 37.3375C89.5625 38.3125 89.725 39.675 90.0875 41.2625C90.725 44.1125 91.4 47.1125 93.725 49.775C94.6 50.7875 96.325 52.75 99.325 53.4625C102.462 54.2125 105.012 53.1 105.637 52.8125C106.187 52.55 107.725 51.775 109.025 50.1375C109.812 49.15 110.725 48.075 110.575 46.75C110.512 46.175 110.262 45.6875 109.887 44.9125C109.512 44.1375 109.312 43.75 108.912 43.6C108.362 43.3875 107.775 43.7625 107.125 44.1375C106.025 44.7625 105.925 45.3625 104.737 45.9875C104.425 46.15 104.112 46.2625 103.487 46.4625C102.5 46.7875 101.525 47.1125 100.625 47.175C98.6625 47.3125 97.0875 46.1875 96.6375 45.8625C94.975 44.675 94.325 43.0875 93.9 42.05C92.95 39.725 93.025 37.5875 93.1875 36.3375C93.775 36.2375 94.1375 36 94.3125 35.8625C94.975 35.35 95.1375 34.6375 95.3875 33.5375C95.55 32.85 95.625 32.4875 95.45 32.35C95.0875 32.075 93.975 32.975 93.725 33.1875C93.775 32.3375 93.9 31.65 94.025 31.1625C94.1875 30.5125 94.275 30.175 94.5 29.9125C94.9375 29.4 95.45 29.45 95.625 28.9625C95.725 28.7 95.7125 28.3375 95.5 28.125C95.25 27.875 94.7125 27.8875 94.25 28.25C94.1 27.925 93.8 27.725 93.475 27.7125C93.15 27.7 92.9375 27.9 92.875 27.95C92.9125 27.6125 92.7625 27.3 92.5125 27.175C92.175 27 91.6375 27.2 91.4375 27.7125C91.45 27.65 91.5375 27.3 91.325 27.0375Z" fill="white"/>
<path opacity="0.12" d="M90.675 26.8C90.375 27.325 90 28.1 89.75 29.1125C89.2 31.3125 89.65 33.15 89.85 34.0375C92 43.2 91.0625 43.425 92.5625 45.575C93.1125 46.35 96.8875 51.55 102.512 50.8625C107.225 50.2875 109.725 46 110.05 45.425C110.237 45.925 110.462 46.775 110.312 47.7875C110.087 49.275 109.162 50.2125 108.825 50.5625C108.5 50.8875 108.1 51.175 107.287 51.7375C106.562 52.25 105.85 52.7 105.537 52.8625C104.05 53.7 101.75 53.9 100.15 53.6875C95.8 53.1125 93.1875 48.9875 92.1 47.275C89.6125 43.3625 89.3625 39.4 89.3875 37.425C89.15 36.625 88.9125 35.8125 88.675 35.0125C88.5125 33.775 88.5 32.75 88.525 32.0375C88.5875 30.25 88.6375 28.9125 89.55 27.775C89.95 27.275 90.3875 26.975 90.675 26.8Z" fill="#606060"/>
<path d="M107.6 51.55C109.575 50.6125 110.9 48.65 110.575 46.425C110.387 45.075 109.3 42.75 107.562 43.575C106.787 43.95 106.15 44.6375 105.437 45.125C104.45 45.8 103.312 46.325 102.175 46.6875C100.725 47.15 99.1125 47.25 97.7125 46.55C96.6875 46.0375 95.8875 45.2 95.275 44.25C93.925 42.1625 93.225 39.7 93.3875 37.2125C93.4 36.975 93.025 36.975 93.0125 37.2125C92.875 39.3125 93.3375 41.3125 94.2625 43.1875C95.075 44.8625 96.2625 46.4375 98.0625 47.1125C100.25 47.925 102.637 47.1 104.612 46.0625C105.5 45.5875 106.262 44.975 107.062 44.3625C107.787 43.8 108.512 43.525 109.25 44.275C110.162 45.2 110.437 46.8125 110.162 48.0375C109.825 49.5 108.737 50.6 107.412 51.225C107.2 51.325 107.387 51.65 107.6 51.55Z" fill="#161616"/>
<path d="M93.3625 37.375C93.2 36.6875 93.6875 36.5125 94.1375 36.1875C94.4 36 94.6 35.7375 94.7875 35.475C95.2625 34.7875 95.6375 33.9875 95.7375 33.15C95.7875 32.7375 95.875 32.0875 95.3125 32.0625C94.65 32.0375 94.375 32.875 93.75 32.9375C93.5125 32.9625 93.5125 33.3375 93.75 33.3125C94.225 33.2625 94.4625 32.9625 94.825 32.6875C95.0375 32.525 95.275 32.3375 95.3875 32.7C95.45 32.9 95.35 33.275 95.3 33.475C95.2125 33.9 95.025 34.3125 94.825 34.7C94.6375 35.05 94.425 35.4125 94.1375 35.7C93.875 35.975 93.5125 36.0375 93.225 36.2625C92.8375 36.5625 92.9 37.075 93 37.4875C93.0625 37.7125 93.425 37.6125 93.3625 37.375Z" fill="#161616"/>
<path d="M89 35.4C88.75 33.7875 88.725 32.1375 88.975 30.525C89.075 29.875 89.2 29.2125 89.425 28.5875C89.5625 28.2 89.75 27.75 90.025 27.4375C90.4 27.025 91.1375 26.8125 91.3375 27.5125C91.4 27.75 91.7625 27.65 91.7 27.4125C91.525 26.8125 90.95 26.4875 90.35 26.725C89.5875 27.0375 89.225 27.975 88.9875 28.6875C88.2875 30.85 88.2875 33.275 88.625 35.5C88.675 35.7375 89.0375 35.6375 89 35.4Z" fill="#161616"/>
<path d="M90.8124 28.95C91.1124 28.2125 91.9624 26.725 92.8874 27.7375C93.0499 27.9125 93.3124 27.65 93.1499 27.475C92.7249 27.0125 92.1124 26.9375 91.5749 27.25C90.9749 27.5875 90.6999 28.25 90.4499 28.8625C90.3624 29.075 90.7249 29.175 90.8124 28.95Z" fill="#161616"/>
<path d="M92.3875 29.2625C92.4 28.7875 92.5875 28.2625 93.05 28.0375C93.4375 27.85 93.9 27.9375 94.1625 28.275C94.3125 28.4625 94.575 28.2 94.425 28.0125C94.0625 27.5625 93.4125 27.45 92.9 27.6875C92.3 27.975 92.025 28.625 92.0125 29.2625C92 29.5 92.375 29.5 92.3875 29.2625Z" fill="#161616"/>
<path d="M93.4749 29.3875C93.6999 28.55 94.6374 27.7875 95.4499 28.4625C95.6374 28.6125 95.8999 28.35 95.7124 28.2C94.6749 27.35 93.4249 28.15 93.1124 29.2875C93.0499 29.525 93.4124 29.625 93.4749 29.3875Z" fill="#161616"/>
<path d="M95.375 28.4C95.775 28.9625 94.8874 29.3125 94.5749 29.575C94.3124 29.7875 94.1625 30.0625 94.05 30.375C93.75 31.2375 93.6125 32.175 93.5375 33.075C93.5125 33.3125 93.8875 33.3125 93.9125 33.075C93.975 32.4125 94.075 31.75 94.2375 31.1C94.2875 30.8875 94.3375 30.675 94.4125 30.4625C94.575 30.025 94.8125 29.8625 95.175 29.6C95.625 29.275 96.0999 28.75 95.6999 28.1875C95.5624 28.0125 95.2375 28.2 95.375 28.4Z" fill="#161616"/>
<path d="M88.5374 35.025C88.7374 35.875 88.9874 36.7125 89.2999 37.5375C89.3874 37.7625 89.7499 37.6625 89.6624 37.4375C89.3499 36.6125 89.0999 35.775 88.8999 34.925C88.8499 34.6875 88.4874 34.7875 88.5374 35.025Z" fill="#161616"/>
<path d="M89.2375 37.775C89.7125 42.075 90.775 46.4875 93.6625 49.8375C95.9625 52.5 99.6125 54.525 103.213 53.8625C104.913 53.55 106.463 52.7 107.7 51.5125C107.875 51.35 107.613 51.075 107.438 51.25C104.963 53.625 101.438 54.25 98.3 52.8375C94.925 51.3 92.5625 48.4125 91.225 45C90.325 42.6875 89.875 40.2375 89.6 37.7875C89.5875 37.5375 89.2125 37.5375 89.2375 37.775Z" fill="#161616"/>
</svg>
