<svg width="200" height="159" viewBox="0 0 200 159" fill="none" xmlns="http://www.w3.org/2000/svg">
<path fill-rule="evenodd" clip-rule="evenodd" d="M107.306 0.1265C131.713 1.89199 146.533 25.5221 159.824 46.068C171.03 63.3882 177.68 82.8733 173.965 103.165C170.022 124.705 159.901 146.738 139.803 155.431C120.342 163.849 99.9137 152.143 80.5121 143.588C59.7726 134.443 35.212 127.526 27.8785 106.079C19.9003 82.7464 29.5186 57.4425 44.3095 37.7122C59.7406 17.1278 81.6468 -1.72957 107.306 0.1265Z" fill="#E8ECFB"/>
<path d="M21.35 131.025C19.6375 129.625 17.85 128.288 16.2625 126.75C15.525 126.038 14.8375 125.263 14.3125 124.375C14.0375 123.925 13.8125 123.438 13.65 122.938C13.5125 122.525 13.375 121.888 13.975 121.825C14.2 121.8 14.4375 121.85 14.65 121.913C14.8875 121.975 14.9875 121.613 14.75 121.55C14.0375 121.375 13.0125 121.425 13.125 122.425C13.2625 123.55 14 124.7 14.675 125.563C16.425 127.813 18.9 129.5 21.0875 131.288C21.275 131.438 21.5375 131.175 21.35 131.025Z" fill="#E8E8E8"/>
<path d="M14.8124 121.613C14.0875 120.75 13.5249 119.75 13.1999 118.663C13.0499 118.175 12.9874 117.675 12.8374 117.2C12.7374 116.9 12.5499 116.625 12.8249 116.363C12.9499 116.25 13.1374 116.175 13.2749 116.075C13.6999 115.788 13.9375 115.45 13.4125 115.088C13.1125 114.888 12.7375 114.85 12.4125 114.688C11.975 114.45 11.6374 114.063 11.3874 113.65C10.8624 112.8 10.5749 111.8 10.2624 110.863C9.88745 109.75 9.52495 108.613 9.19995 107.488C8.54995 105.213 8.01245 102.913 7.57495 100.6C7.53745 100.675 7.48745 100.75 7.44995 100.825C9.79995 100.05 12.1375 102.038 13.8124 103.45C15.5374 104.9 17.0875 106.563 18.45 108.363C21.2625 112.113 23.225 116.438 24.45 120.95C25.2 123.713 25.6749 126.55 25.9375 129.4C25.9625 129.638 26.3375 129.638 26.3125 129.4C25.4 119.563 21.775 109.6 14.0124 103.113C12.2374 101.638 9.83745 99.6501 7.36245 100.463C7.26245 100.5 7.21245 100.588 7.23745 100.688C7.69995 103.163 8.28745 105.613 8.99995 108.038C9.33745 109.175 9.68745 110.3 10.0749 111.413C10.3874 112.313 10.675 113.275 11.225 114.063C11.4374 114.363 11.675 114.638 11.975 114.85C12.3375 115.113 12.7624 115.138 13.1249 115.363C13.5999 115.65 12.9125 115.875 12.6625 116.05C12.475 116.188 12.2999 116.35 12.2624 116.6C12.2124 116.975 12.5374 117.413 12.6249 117.763C12.7499 118.3 12.8625 118.825 13.0624 119.35C13.425 120.275 13.9374 121.125 14.5749 121.888C14.6999 122.063 14.9625 121.8 14.8124 121.613Z" fill="#E8E8E8"/>
<path d="M9.4625 102.613C14.6875 108.513 18.75 115.4 21.4 122.825C22.1375 124.888 22.75 126.988 23.2625 129.113C23.325 129.35 23.675 129.25 23.625 129.013C21.775 121.313 18.45 113.975 13.85 107.513C12.575 105.713 11.2 103.988 9.7375 102.338C9.5625 102.175 9.3 102.438 9.4625 102.613Z" fill="#E8E8E8"/>
<path d="M10.3125 110.838C10.9125 110.988 11.5 111.188 12.075 111.425C12.3 111.513 12.4 111.15 12.175 111.063C11.6 110.825 11.0125 110.625 10.4125 110.475C10.1875 110.413 10.0875 110.775 10.3125 110.838Z" fill="#E8E8E8"/>
<path d="M14.7124 119.138C15.5249 119.113 16.1999 119.538 16.8624 119.938C17.4624 120.3 18.0499 120.663 18.6249 121.063C19.8124 121.888 20.8874 122.863 21.5999 124.138C21.7124 124.35 22.0374 124.163 21.9249 123.95C21.1749 122.625 20.0499 121.6 18.8124 120.75C18.1624 120.3 17.4749 119.875 16.7874 119.475C16.1374 119.088 15.4749 118.763 14.6999 118.775C14.4749 118.763 14.4749 119.138 14.7124 119.138Z" fill="#E8E8E8"/>
<path d="M19.6875 116.888C19.35 114.863 19.3625 112.813 19.725 110.8C19.7625 110.563 19.4 110.463 19.3625 110.7C18.9875 112.788 18.975 114.9 19.325 116.988C19.3625 117.225 19.725 117.125 19.6875 116.888Z" fill="#E8E8E8"/>
<path d="M19.0499 108.325C19.3124 105.85 19.8374 103.375 20.7124 101.05C21.4499 99.0876 22.5499 97.1626 24.4374 96.1126C24.3374 96.0626 24.2499 96.0001 24.1499 95.9501C24.3499 99.4251 26.3874 102.513 26.4749 106C26.5249 105.938 26.5624 105.875 26.6124 105.825C26.1374 105.95 25.6624 106.075 25.1874 106.2C25.0499 106.238 24.9999 106.413 25.0999 106.513C25.6749 107.063 25.7874 107.838 25.8124 108.6C25.8249 109 26.0374 110.938 25.5749 111.063C25.4624 111.1 25.3999 111.238 25.4624 111.338C26.8499 113.563 26.2124 116.2 25.8249 118.6C25.4249 121.075 25.3749 123.575 25.6624 126.05C25.6874 126.288 26.0624 126.288 26.0374 126.05C25.7124 123.263 25.8749 120.525 26.3499 117.775C26.7374 115.55 27.0499 113.163 25.7999 111.138C25.7624 111.225 25.7249 111.325 25.6874 111.413C26.0249 111.325 26.1374 111.063 26.1874 110.738C26.2749 110.138 26.2124 109.475 26.1999 108.875C26.1874 107.925 26.0874 106.938 25.3624 106.25C25.3374 106.35 25.3124 106.463 25.2749 106.563C25.7499 106.438 26.2249 106.313 26.6999 106.188C26.7749 106.163 26.8374 106.088 26.8374 106.013C26.7499 102.513 24.7249 99.4376 24.5124 95.9626C24.4999 95.8251 24.3624 95.7251 24.2249 95.8001C22.3624 96.8376 21.2374 98.6751 20.4624 100.613C19.4749 103.075 18.9249 105.713 18.6499 108.35C18.6499 108.563 19.0249 108.563 19.0499 108.325Z" fill="#E8E8E8"/>
<path d="M23.5874 97.825C22.2499 102.888 21.5624 108.113 21.5499 113.35C21.5499 113.588 21.9249 113.588 21.9249 113.35C21.9374 108.138 22.6124 102.963 23.9374 97.925C24.0124 97.6875 23.6499 97.5875 23.5874 97.825Z" fill="#E8E8E8"/>
<path d="M170.35 90.3376C171.15 92.9126 171.75 95.5376 172.125 98.2126C172.312 99.5626 172.45 100.938 172.512 102.3C172.537 102.65 172.55 103.013 172.562 103.363C172.575 103.575 172.512 103.925 172.587 104.125C172.662 104.313 172.925 104.438 173.075 104.563C173.337 104.775 173.6 104.988 173.85 105.2C173.862 105.1 173.875 105 173.887 104.9C173.537 105.113 173.2 105.213 172.787 105.225C172.7 105.225 172.637 105.288 172.612 105.363C172.25 106.488 172.512 107.675 173.325 108.55C173.375 108.438 173.412 108.338 173.462 108.225C172.162 108.175 172.137 109.675 172.262 110.6C172.437 111.888 172.687 113.175 173.05 114.425C173.775 116.875 174.987 119.2 176.975 120.875C177.162 121.025 177.425 120.763 177.237 120.613C175.562 119.2 174.437 117.3 173.712 115.238C173.375 114.263 173.112 113.263 172.912 112.263C172.75 111.425 171.937 108.55 173.462 108.6C173.637 108.613 173.7 108.4 173.6 108.275C172.887 107.5 172.662 106.45 172.987 105.463C172.925 105.513 172.862 105.55 172.812 105.6C173.287 105.6 173.687 105.488 174.1 105.225C174.187 105.163 174.237 105.013 174.137 104.925C173.675 104.55 173.037 104.225 172.962 103.6C172.887 102.938 172.912 102.25 172.862 101.588C172.775 100.35 172.65 99.1126 172.462 97.8751C172.087 95.2876 171.5 92.7376 170.725 90.2376C170.637 90.0001 170.275 90.1001 170.35 90.3376Z" fill="#E8E8E8"/>
<path d="M170.962 90.9C170.45 90.225 171.412 89.725 171.975 89.8625C172.537 90.0125 173 90.4625 173.387 90.8625C174.1 91.5875 174.662 92.4375 175.15 93.325C176.162 95.15 177.012 97.1 177.762 99.0375C179.3 103.025 180.362 107.2 180.925 111.425C181.237 113.825 181.4 116.238 181.4 118.65C181.4 118.888 181.775 118.888 181.775 118.65C181.775 113.625 181.087 108.613 179.737 103.788C179.075 101.438 178.262 99.1375 177.3 96.8875C176.412 94.8125 175.462 92.5875 173.937 90.8875C173.325 90.2 172.287 89.1375 171.262 89.5C170.637 89.7125 170.225 90.5125 170.65 91.0875C170.787 91.275 171.112 91.1 170.962 90.9Z" fill="#E8E8E8"/>
<path d="M179.962 104.638C180.6 102.5 181.337 100.413 182.175 98.3501C182.612 97.2876 183.075 96.2251 183.575 95.1876C183.812 94.7001 184.05 94.2001 184.3 93.7126C184.462 93.4001 184.95 92.0251 185.462 92.1501C185.612 92.1876 185.712 92.0626 185.687 91.9251C185.562 91.1501 186.437 90.4876 186.9 89.9751C187.312 89.5251 187.712 89.0751 188.125 88.6251C188.975 87.7001 189.812 86.7751 190.662 85.8376C190.562 85.8126 190.45 85.7876 190.35 85.7501C191.637 88.9376 191.3 92.4251 190.55 95.7001C190.162 97.3751 189.675 99.0376 189.262 100.713C188.975 101.875 188.662 103.638 187.237 103.888C187.137 103.9 187.087 104.025 187.112 104.113C187.475 105.6 186.475 106.975 185.812 108.225C185.187 109.4 184.612 110.613 184.087 111.85C183.062 114.263 182.25 116.75 181.637 119.288C181.575 119.525 181.937 119.625 182 119.388C182.675 116.575 183.6 113.838 184.787 111.2C185.35 109.95 185.975 108.725 186.637 107.525C187.237 106.438 187.787 105.288 187.487 104.025C187.45 104.1 187.4 104.175 187.362 104.25C188.575 104.038 189.1 102.813 189.412 101.738C189.925 99.9376 190.387 98.0876 190.825 96.2626C191.662 92.7876 192.112 89.0501 190.737 85.6501C190.687 85.5251 190.525 85.4501 190.425 85.5626C189.362 86.7251 188.3 87.9001 187.237 89.0626C186.737 89.6126 186.2 90.1376 185.737 90.7251C185.437 91.1251 185.275 91.5001 185.35 92.0001C185.425 91.9251 185.5 91.8501 185.575 91.7751C184.675 91.5501 184.237 93.0251 183.937 93.6126C183.337 94.8001 182.775 96.0001 182.262 97.2126C181.237 99.5876 180.362 102.038 179.625 104.513C179.525 104.763 179.887 104.863 179.962 104.638Z" fill="#E8E8E8"/>
<path d="M189.738 89.075C185.838 96.35 181.863 103.85 180.925 112.163C180.9 112.4 181.275 112.4 181.3 112.163C182.238 103.913 186.2 96.4625 190.063 89.2625C190.188 89.05 189.863 88.8625 189.738 89.075Z" fill="#E8E8E8"/>
<path d="M173.475 94.075C176.512 102.113 178.325 110.588 178.862 119.163C178.875 119.4 179.25 119.4 179.237 119.163C178.7 110.55 176.887 102.05 173.837 93.975C173.75 93.7625 173.387 93.85 173.475 94.075Z" fill="#E8E8E8"/>
<path d="M15.525 90.05C23.15 88.6875 31.025 88.7625 38.625 90.275C42.3875 91.025 46.075 92.1125 49.625 93.5375C53.3375 95.025 56.9 96.8125 60.5375 98.4625C74.2625 104.688 88.95 108.763 103.912 110.538C112.4 111.55 120.975 111.813 129.5 111.338C129.737 111.325 129.737 110.95 129.5 110.963C114.2 111.825 98.7875 110.263 83.9625 106.375C76.525 104.425 69.2375 101.888 62.2 98.8C58.55 97.2 54.9875 95.4 51.325 93.8375C47.825 92.35 44.2125 91.15 40.5125 90.3C32.3 88.425 23.725 88.2125 15.425 89.7C15.1875 89.725 15.2875 90.0875 15.525 90.05Z" fill="#E8E8E8"/>
<path d="M83.5249 106.1C90.6374 106.463 97.4999 103.9 104.187 101.85C111.187 99.7125 118.212 97.6375 125.25 95.6125C132.25 93.6 139.25 91.4875 146.362 89.875C153.45 88.275 160.675 87.5125 167.937 87.3C176.025 87.05 184.112 87.4125 192.187 87.7875C192.425 87.8 192.425 87.425 192.187 87.4125C177.925 86.7625 163.475 86.125 149.375 88.8625C142.225 90.25 135.225 92.375 128.225 94.3625C121.187 96.375 114.162 98.4375 107.15 100.55C103.262 101.725 99.3874 103 95.4749 104.075C91.5749 105.15 87.5749 105.925 83.5124 105.725C83.2874 105.713 83.2874 106.088 83.5249 106.1Z" fill="#E8E8E8"/>
<path d="M53.1749 93.275C58.1124 94.7 63.2374 93.7125 68.1624 92.7625C73.4374 91.75 78.7624 91.0625 84.1374 90.85C94.7874 90.45 105.375 91.975 115.987 92.4C121.862 92.6375 127.762 92.5 133.562 91.5375C133.8 91.5 133.7 91.1375 133.462 91.175C123.025 92.9125 112.425 91.875 101.95 91.0875C96.7124 90.6875 91.4624 90.35 86.1999 90.4375C80.9874 90.525 75.7749 91.025 70.6249 91.9375C64.9249 92.9375 58.9999 94.5875 53.2624 92.925C53.0374 92.85 52.9374 93.2125 53.1749 93.275Z" fill="#E8E8E8"/>
<path d="M75.3 117.363C76.9 116.7 78.625 116.363 80.3625 116.413C81.975 116.463 83.425 116.988 84.9875 117.313C86.15 117.563 87.3124 117.563 88.2499 116.738C88.6124 116.425 88.9249 116.1 89.4499 116.263C89.8374 116.375 90.1624 116.638 90.525 116.8C90.95 117 91.3874 117.075 91.8375 116.988C92.9125 116.775 93.7249 115.888 94.6624 115.375C96.2499 114.525 97.7749 115.663 99.3249 116.075C102.55 116.938 106 116.675 109.3 116.638C113.362 116.6 117.437 116.625 121.475 116.125C121.712 116.1 121.712 115.725 121.475 115.75C117.85 116.188 114.187 116.213 110.537 116.25C107.062 116.288 103.387 116.613 99.9625 115.838C99.1625 115.663 98.4125 115.4 97.65 115.088C96.9874 114.813 96.2999 114.55 95.5749 114.65C94.4374 114.8 93.5874 115.7 92.6249 116.25C92.1249 116.538 91.5749 116.738 90.9999 116.575C90.3749 116.388 89.8625 115.838 89.175 115.813C88.525 115.8 88.2125 116.325 87.7375 116.663C87.075 117.125 86.2374 117.138 85.4625 117.013C83.8125 116.75 82.275 116.113 80.5875 116.038C78.7499 115.95 76.9124 116.288 75.1999 117C74.9749 117.088 75.075 117.45 75.3 117.363Z" fill="#E8E8E8"/>
<path d="M83.2749 106.213C83.4999 106.25 83.7124 106.3 83.9374 106.338C84.1749 106.388 84.2624 106.063 84.0374 105.975C83.8999 105.925 83.7624 105.875 83.6124 105.825C83.4124 105.75 83.2749 106.075 83.4624 106.163C84.6124 106.763 85.8124 107.238 87.0624 107.575C87.2999 107.638 87.3999 107.275 87.1624 107.213C85.9374 106.888 84.7749 106.425 83.6499 105.838C83.5999 105.95 83.5499 106.063 83.4999 106.175C83.6374 106.225 83.7749 106.275 83.9249 106.325C83.9624 106.2 83.9874 106.088 84.0249 105.963C83.7999 105.925 83.5874 105.875 83.3624 105.838C83.1374 105.8 83.0374 106.163 83.2749 106.213Z" fill="#E8E8E8"/>
<path d="M66.475 123.538C66.2 123.213 65.95 122.875 65.7375 122.5C65.6375 122.313 65.5125 122.113 65.45 121.9C65.3625 121.763 65.35 121.6 65.4 121.438C65.3625 121.263 65.4125 121.125 65.5375 121.025C65.725 120.513 65.5 119.975 65.375 119.45C65.1875 118.625 65 117.8 64.8125 116.975C64.7125 116.538 64.6125 116.113 64.525 115.675C64.475 115.475 64.4375 115.288 64.3875 115.088C64.3125 114.738 64.2375 114.575 64.5 114.288C64.625 114.025 64.8125 113.975 65.0625 114.175C65.175 114.288 65.2875 114.4 65.4 114.513C65.525 114.675 65.6125 114.863 65.7125 115.038C65.8875 115.363 66.0625 115.688 66.225 116.013C66.6125 116.788 66.95 117.588 67.2375 118.4C67.7875 119.925 68.1625 121.5 68.3875 123.113C68.45 123.038 68.5125 122.95 68.5625 122.875C68.5875 122.9 68.6 122.938 68.625 122.963C68.6875 122.725 68.325 122.625 68.2625 122.863C68.2125 123.088 68.325 123.25 68.5625 123.25C68.7 123.25 68.7625 123.138 68.7375 123.013C68.45 120.95 67.9125 118.938 67.0875 117.025C66.7 116.125 66.2875 115.125 65.7125 114.325C65.4 113.888 64.8375 113.488 64.3 113.8C63.6875 114.15 63.975 115.013 64.1 115.55C64.35 116.65 64.6 117.75 64.8375 118.85C64.95 119.375 65.1875 119.963 65.2125 120.5C65.225 120.938 64.8625 121.138 64.925 121.575C65.05 122.388 65.6625 123.213 66.175 123.813C66.3625 123.975 66.625 123.713 66.475 123.538Z" fill="#E8E8E8"/>
<path d="M67.6249 118.163C67.4374 117.038 67.4624 115.888 67.7249 114.775C67.7874 114.488 67.8749 114.213 67.9749 113.938C68.1499 113.463 68.3999 113.513 68.6499 113.863C68.9749 114.325 69.2249 114.838 69.4124 115.363C70.1749 117.538 69.8374 119.875 69.5124 122.088C69.4749 122.325 69.8374 122.425 69.8749 122.188C70.2874 119.4 70.7124 116.238 69.0249 113.75C68.8374 113.475 68.5874 113.013 68.1999 113.075C67.7874 113.15 67.6499 113.713 67.5374 114.038C67.0874 115.4 67.0124 116.85 67.2499 118.25C67.3124 118.5 67.6749 118.4 67.6249 118.163Z" fill="#E8E8E8"/>
<path d="M68.2999 115.288C68.6749 117.238 68.8124 119.2 68.7499 121.175C68.7374 121.413 69.1124 121.413 69.1249 121.175C69.1999 119.163 69.0374 117.163 68.6624 115.188C68.6124 114.95 68.2624 115.05 68.2999 115.288Z" fill="#E8E8E8"/>
<path d="M22.3249 88.6376C21.9624 87.8376 21.1499 87.2751 20.6374 86.5751C20.0749 85.8001 19.5999 84.9626 19.1374 84.1376C19.0999 84.2251 19.0624 84.3251 19.0249 84.4126C21.5374 83.9626 22.9874 86.4376 23.4749 88.5251C23.5249 88.7626 23.8874 88.6626 23.8374 88.4251C23.2999 86.1126 21.6499 83.5751 18.9249 84.0501C18.7999 84.0751 18.7624 84.2251 18.8124 84.3251C19.2749 85.1626 19.7374 86.0001 20.3124 86.7626C20.8249 87.4626 21.6499 88.0501 21.9999 88.8251C22.0999 89.0501 22.4249 88.8626 22.3249 88.6376Z" fill="#E8E8E8"/>
<path d="M23.4125 86.625C23.6 84.6625 25.475 83.4375 26.2 81.7C26.1125 81.7375 26.0124 81.775 25.9249 81.8125C26.7624 82.35 26.1374 84.3 25.9 85.05C25.55 86.15 24.9749 87.15 24.2374 88.025C24.0874 88.2125 24.35 88.475 24.5 88.2875C25.425 87.2 26.0874 85.9375 26.4249 84.55C26.6374 83.675 27.0374 82.0875 26.1124 81.4875C25.9999 81.4125 25.8749 81.5 25.8375 81.6C25.0875 83.4 23.2375 84.575 23.0375 86.625C23.0125 86.8625 23.3875 86.8625 23.4125 86.625Z" fill="#E8E8E8"/>
<path d="M134.412 92.3001C134.3 92.0126 134.187 91.7251 134.075 91.4376C134.012 91.3001 133.962 91.1501 133.9 91.0126C133.825 90.9126 133.825 90.8001 133.887 90.6876C134 90.7876 134.225 90.7251 134.212 90.5501C134.15 89.9251 134.087 89.2876 134.025 88.6626C134.012 88.5126 133.862 87.9251 133.95 87.8126C134.337 87.2751 134.6 88.1626 134.637 88.3001C134.975 89.4501 134.962 90.7751 134.95 91.9626C134.95 92.2001 135.325 92.2001 135.325 91.9626C135.337 90.9876 135.287 90.0251 135.15 89.0626C135.062 88.4501 134.962 87.5626 134.362 87.2001C133.975 86.9626 133.65 87.2126 133.575 87.6251C133.5 88.0251 133.625 88.5001 133.662 88.8876C133.712 89.4376 133.775 89.9876 133.825 90.5376C133.937 90.4876 134.037 90.4501 134.15 90.4001C133.937 90.2001 133.612 90.2376 133.487 90.5126C133.4 90.7001 133.475 90.9001 133.537 91.0876C133.687 91.5251 133.887 91.9501 134.05 92.3876C134.137 92.6251 134.5 92.5251 134.412 92.3001Z" fill="#E8E8E8"/>
<path d="M135.25 90.2625C135.2 88.5125 135.562 86.8 136.325 85.2125C136.225 85.225 136.125 85.2375 136.025 85.25C136.837 85.925 136.3 87.75 136.162 88.625C135.975 89.8 135.737 90.975 135.437 92.125C135.375 92.3625 135.737 92.4625 135.8 92.225C136.162 90.825 136.437 89.4 136.637 87.9625C136.762 87.0375 137.125 85.675 136.287 84.975C136.2 84.9 136.05 84.9 135.987 85.0125C135.2 86.65 134.812 88.425 134.862 90.25C134.887 90.5 135.262 90.5 135.25 90.2625Z" fill="#E8E8E8"/>
<path d="M69.65 128.525C70.4375 127.725 71.6625 128.8 72.575 128.75C73.0125 128.725 73.4125 128.563 73.8125 128.425C74.35 128.25 74.8625 128.188 75.425 128.238C77.65 128.425 79.8125 128.588 82.05 128.438C82.2875 128.425 82.2875 128.05 82.05 128.063C80.8375 128.138 79.6375 128.163 78.425 128.113C77.2 128.063 75.925 127.763 74.7125 127.85C74.225 127.888 73.775 128.05 73.3125 128.2C72.6375 128.413 72.125 128.375 71.475 128.138C70.7625 127.875 69.9625 127.663 69.375 128.263C69.2125 128.438 69.475 128.7 69.65 128.525Z" fill="#E8E8E8"/>
<path d="M46.0375 131.563C46.9125 130.613 48.45 130.55 49.375 131.45C49.3875 131.35 49.4 131.25 49.4125 131.15C48.7625 131.463 48.1 131.6 47.3875 131.563C47.15 131.55 47.15 131.925 47.3875 131.938C48.175 131.975 48.9 131.825 49.6125 131.475C49.725 131.425 49.7375 131.263 49.65 131.175C48.575 130.138 46.7875 130.188 45.775 131.288C45.6125 131.475 45.875 131.738 46.0375 131.563Z" fill="#E8E8E8"/>
<path d="M11.2 134.938C10.5625 134.888 9.92498 135.075 9.43748 135.513C9.13748 135.788 8.71248 136.3 9.09998 136.663C9.53748 137.063 10.5875 136.8 11.1 136.75C12.0375 136.65 12.95 136.475 13.8625 136.238C14.1 136.175 14 135.813 13.7625 135.875C12.6625 136.163 11.55 136.35 10.4125 136.425C10.1875 136.438 9.94998 136.463 9.72498 136.463C9.16248 136.438 9.42498 136.013 9.69998 135.775C10.1125 135.4 10.65 135.263 11.2 135.313C11.45 135.325 11.4375 134.95 11.2 134.938Z" fill="#E8E8E8"/>
<path d="M29.0624 124.625C29.0874 124.525 29.1624 124.463 29.2624 124.463C29.3499 124.45 29.4374 124.438 29.5124 124.425C29.7124 124.4 29.8999 124.413 30.0999 124.438C30.4874 124.488 30.8374 124.625 31.1749 124.838C31.1874 124.725 31.1999 124.613 31.2249 124.5C30.7624 124.663 30.2999 124.7 29.8124 124.625C29.5749 124.588 29.4749 124.95 29.7124 124.988C30.2624 125.075 30.7874 125.038 31.3249 124.863C31.4749 124.813 31.5124 124.613 31.3749 124.525C30.7249 124.113 29.8749 123.913 29.1124 124.125C28.6999 124.238 28.3749 124.875 28.9624 125C29.1999 125.038 29.2999 124.675 29.0624 124.625Z" fill="#E8E8E8"/>
<path d="M39.4125 38.6626C36.4375 37.6126 34.3125 34.7251 33.9875 31.6001C33.65 28.3751 35.4625 25.3001 38.1875 23.6501C41.125 21.8751 45.3 21.8626 47.7125 24.5501C48.95 25.9126 49.7125 27.7751 50.1625 29.5376C50.625 31.3501 50.7 33.3626 49.6625 35.0001C48.6125 36.6376 46.7375 37.5501 44.975 38.2376C43.1125 38.9751 40.875 39.5501 39.05 38.4001C38.85 38.2751 38.6625 38.6001 38.8625 38.7251C40.5 39.7501 42.475 39.4876 44.225 38.9126C45.9375 38.3501 47.75 37.5626 49.075 36.2876C52.0375 33.4501 50.825 28.7626 48.975 25.6501C48 24.0001 46.5375 22.7876 44.675 22.2876C42.9 21.8126 41 21.9751 39.3125 22.6626C36.2125 23.9376 33.7875 26.9126 33.5875 30.3126C33.3625 34.0626 35.775 37.7751 39.3125 39.0251C39.5375 39.1126 39.6375 38.7501 39.4125 38.6626Z" fill="#E8E8E8"/>
<path d="M133.4 111.225C141.925 110.688 150.4 109.538 158.75 107.775C161.162 107.263 163.562 106.7 165.95 106.088C166.187 106.025 166.087 105.663 165.85 105.725C157.575 107.838 149.15 109.363 140.65 110.25C138.237 110.5 135.825 110.7 133.412 110.85C133.162 110.863 133.162 111.238 133.4 111.225Z" fill="#E8E8E8"/>
<path d="M113.862 120.25C114.962 120.438 116.087 120.425 117.175 120.163C117.85 120 118.337 119.738 119.037 119.963C119.475 120.1 119.887 120.15 120.337 120.063C120.837 119.963 121.3 119.713 121.725 119.438C122.187 119.125 122.65 118.688 123.212 118.575C123.862 118.45 124.45 118.963 125.075 119.1C125.525 119.2 125.987 119.188 126.437 119.113C126.675 119.075 126.575 118.713 126.337 118.75C125.55 118.888 124.937 118.688 124.225 118.375C123.925 118.238 123.637 118.163 123.3 118.188C122.287 118.3 121.587 119.25 120.65 119.588C120.05 119.8 119.562 119.725 118.975 119.538C118.525 119.4 118.2 119.475 117.762 119.613C116.525 120 115.262 120.113 113.987 119.9C113.737 119.85 113.625 120.213 113.862 120.25Z" fill="#E8E8E8"/>
<path d="M51.925 136.513C61.6375 136.513 71.35 136.513 81.0625 136.513C81.55 136.513 81.55 135.763 81.0625 135.763C71.35 135.763 61.6375 135.763 51.925 135.763C51.4375 135.763 51.4375 136.513 51.925 136.513Z" fill="#161616"/>
<path d="M83.1499 136.288C84.2874 136.288 85.4249 136.288 86.5624 136.288C87.0499 136.288 87.0499 135.538 86.5624 135.538C85.4249 135.538 84.2874 135.538 83.1499 135.538C82.6624 135.538 82.6624 136.288 83.1499 136.288Z" fill="#161616"/>
<path d="M89.0874 136.175C89.4499 136.175 89.8249 136.175 90.1874 136.175C90.6749 136.175 90.6749 135.425 90.1874 135.425C89.8249 135.425 89.4499 135.425 89.0874 135.425C88.5999 135.425 88.5999 136.175 89.0874 136.175Z" fill="#161616"/>
<path d="M20.5875 139.263C27.775 139.263 34.95 139.263 42.1375 139.263C42.625 139.263 42.625 138.513 42.1375 138.513C34.95 138.513 27.775 138.513 20.5875 138.513C20.1125 138.513 20.1125 139.263 20.5875 139.263Z" fill="#161616"/>
<path d="M44.2249 139.263C46.0999 139.263 47.9624 139.263 49.8374 139.263C50.3249 139.263 50.3249 138.513 49.8374 138.513C47.9624 138.513 46.0999 138.513 44.2249 138.513C43.7499 138.513 43.7499 139.263 44.2249 139.263Z" fill="#161616"/>
<path d="M53.025 139.038C53.1375 139.038 53.25 139.038 53.35 139.038C53.55 139.038 53.7375 138.863 53.725 138.663C53.7125 138.463 53.5625 138.288 53.35 138.288C53.2375 138.288 53.125 138.288 53.025 138.288C52.825 138.288 52.6375 138.463 52.65 138.663C52.6625 138.863 52.8125 139.038 53.025 139.038Z" fill="#161616"/>
<path d="M16.6375 139.363C16.9 139.363 17.15 139.363 17.4125 139.363C17.9 139.363 17.9 138.613 17.4125 138.613C17.15 138.613 16.9 138.613 16.6375 138.613C16.15 138.613 16.15 139.363 16.6375 139.363Z" fill="#161616"/>
<path d="M115.687 125.625C125.762 125.625 135.837 125.625 145.925 125.625C146.412 125.625 146.412 124.875 145.925 124.875C135.85 124.875 125.775 124.875 115.687 124.875C115.2 124.875 115.2 125.625 115.687 125.625Z" fill="#161616"/>
<path d="M149.875 125.188C159 125.188 168.125 125.188 177.25 125.188C177.737 125.188 177.737 124.438 177.25 124.438C168.125 124.438 159 124.438 149.875 124.438C149.4 124.438 149.4 125.188 149.875 125.188Z" fill="#161616"/>
<path d="M179.675 124.963C180.412 124.963 181.137 124.963 181.875 124.963C182.362 124.963 182.362 124.213 181.875 124.213C181.137 124.213 180.412 124.213 179.675 124.213C179.187 124.213 179.187 124.963 179.675 124.963Z" fill="#161616"/>
<path d="M170 120.788C172.087 120.788 174.175 120.788 176.262 120.788C176.75 120.788 176.75 120.038 176.262 120.038C174.175 120.038 172.087 120.038 170 120.038C169.512 120.038 169.512 120.788 170 120.788Z" fill="#161616"/>
<path d="M178.35 120.675C178.862 120.675 179.375 120.675 179.887 120.675C180.375 120.675 180.375 119.925 179.887 119.925C179.375 119.925 178.862 119.925 178.35 119.925C177.875 119.925 177.875 120.675 178.35 120.675Z" fill="#161616"/>
<path d="M109.637 127.825C112.312 127.825 114.988 127.825 117.663 127.825C118.15 127.825 118.15 127.075 117.663 127.075C114.988 127.075 112.312 127.075 109.637 127.075C109.162 127.075 109.162 127.825 109.637 127.825Z" fill="#161616"/>
<path d="M120.525 127.713C121.662 127.713 122.8 127.713 123.937 127.713C124.425 127.713 124.425 126.963 123.937 126.963C122.8 126.963 121.662 126.963 120.525 126.963C120.037 126.963 120.037 127.713 120.525 127.713Z" fill="#161616"/>
<path d="M125.475 129.588C126.25 129.588 127.012 129.588 127.787 129.588C128.275 129.588 128.275 128.838 127.787 128.838C127.012 128.838 126.25 128.838 125.475 128.838C124.988 128.838 124.988 129.588 125.475 129.588Z" fill="#161616"/>
<path d="M72.2374 66.9126C71.7874 66.3501 73.4874 66.0001 73.7624 65.8876C74.2999 65.6501 74.6374 65.2126 74.7624 64.6376C74.8874 64.0501 74.7624 63.4251 74.9374 62.8501C75.1999 62.0001 76.1749 62.0501 76.8999 62.0876C77.3874 62.1126 77.3749 61.3626 76.8999 61.3376C76.0749 61.2876 75.1249 61.3126 74.5499 61.9876C74.0374 62.5876 74.1374 63.4001 74.0749 64.1376C74.0249 64.8001 73.7749 65.1251 73.1249 65.3126C72.7499 65.4251 72.3749 65.4876 72.0624 65.7251C71.4874 66.1376 71.2499 66.8626 71.7124 67.4376C71.9999 67.8251 72.5374 67.2876 72.2374 66.9126Z" fill="#161616"/>
<path d="M74.8999 67.5376C74.5624 67.1376 75.3374 66.7376 75.5874 66.5876C75.9249 66.3876 76.2124 66.2001 76.4624 65.9001C76.9749 65.2876 77.3124 64.1251 78.2374 64.0751C78.7124 64.0501 78.7249 63.3001 78.2374 63.3251C76.6999 63.4001 76.5749 65.0001 75.5249 65.7501C75.0749 66.0626 74.5374 66.2376 74.2499 66.7376C73.9874 67.1876 74.0374 67.6751 74.3624 68.0626C74.6749 68.4376 75.2124 67.9001 74.8999 67.5376Z" fill="#161616"/>
<path d="M133.475 27.0751C133.425 27.8751 132.8 28.8376 133.55 29.5126C134.2 30.0876 135.012 29.6626 135.75 29.7126C136.562 29.7751 136.212 30.5251 136.112 31.0751C136.037 31.4876 136 31.9376 136.187 32.3376C136.487 32.9626 137.3 33.3626 137.9 32.9126C138.275 32.6251 137.9 31.9751 137.525 32.2626C136.912 32.7251 136.787 31.6126 136.85 31.2751C136.912 30.9126 137.037 30.5501 137.05 30.1751C137.062 29.6501 136.787 29.2376 136.3 29.0626C135.7 28.8501 135.162 29.0876 134.562 29.0751C133.475 29.0501 134.2 27.7251 134.237 27.0751C134.262 26.5876 133.512 26.5876 133.475 27.0751Z" fill="#161616"/>
<path d="M137.775 27.9376C137.462 28.6126 137.162 29.4126 137.662 30.0876C137.85 30.3376 138.1 30.4876 138.4 30.5376C138.6 30.5626 138.862 30.4751 139.037 30.5501C139.325 30.6626 139.487 31.0001 139.35 31.3001C139.137 31.7376 139.787 32.1126 140 31.6751C140.262 31.1126 140.162 30.4626 139.662 30.0501C139.387 29.8251 139.137 29.8251 138.8 29.7876C137.887 29.7001 138.137 28.9376 138.425 28.3251C138.625 27.8876 137.975 27.5001 137.775 27.9376Z" fill="#161616"/>
<path d="M177.612 53.8626C177.337 53.1501 178 52.1251 178.837 52.3876C179.475 52.6001 179.762 53.5501 179.337 54.0751C179.037 54.4501 179.562 54.9751 179.862 54.6001C180.637 53.6626 180.25 52.0251 179.037 51.6626C177.7 51.2626 176.412 52.7876 176.9 54.0501C177.062 54.5126 177.787 54.3126 177.612 53.8626Z" fill="#161616"/>
<path d="M31.6875 83.5375C31.6125 82.65 32.7375 82.15 33.2125 82.9875C33.6125 83.7125 32.825 84.35 32.1375 84.1125C31.6875 83.95 31.4875 84.675 31.9375 84.8375C33.325 85.3375 34.6375 83.7625 33.8 82.5125C32.9 81.175 30.8125 81.9625 30.95 83.5375C30.975 84.0125 31.725 84.025 31.6875 83.5375Z" fill="#161616"/>
<path d="M36.0375 48.5C35.75 48.975 35.725 49.5875 36.1 50.025C36.2875 50.2375 36.55 50.375 36.825 50.425C37.2125 50.4875 37.5 50.275 37.8375 50.4375C38.175 50.6125 38.1 50.825 38.1375 51.175C38.15 51.3875 38.1625 51.5875 38.1875 51.8C38.2125 52.025 38.2375 52.25 38.4 52.425C38.55 52.5875 38.7375 52.65 38.95 52.6875C39.1 52.7125 39.25 52.7 39.4125 52.7C39.5375 52.7 39.675 52.7 39.8 52.725C40.0375 52.7875 40.1375 52.95 40.1125 53.1875C39.925 53.325 40.1 53.65 40.3 53.5125C40.675 53.2375 40.55 52.8125 40.225 52.5375C40.075 52.4125 39.9125 52.35 39.7125 52.325C39.0625 52.2375 38.6875 52.4875 38.5375 51.575C38.4625 51.125 38.625 50.1875 38.1625 49.8875C37.95 49.75 37.7625 49.8125 37.55 49.9C37.2125 50.0375 36.9375 50.15 36.5875 49.9375C36.1125 49.65 36.1 49.0875 36.3625 48.6625C36.4875 48.4875 36.1625 48.3 36.0375 48.5Z" fill="#F66F5D"/>
<path d="M41.0875 49.9875C40.8375 50.425 40.5375 51.0875 40.925 51.5375C41.175 51.8375 41.6 51.8 41.925 51.9875C42.4375 52.275 42.675 52.875 42.575 53.4375C42.5375 53.675 42.9 53.775 42.9375 53.5375C43.0375 52.975 42.9125 52.425 42.525 52C42.3625 51.8125 42.15 51.675 41.925 51.575C41.6625 51.4625 41.2125 51.325 41.125 51C41.0625 50.7625 41.3125 50.3625 41.4125 50.175C41.525 49.9625 41.2 49.775 41.0875 49.9875Z" fill="#F66F5D"/>
<path d="M111.45 89.4626C111.025 88.5876 111.825 87.5626 112.775 87.9001C113.762 88.2501 113.725 89.6001 112.787 89.9751C112.562 90.0626 112.662 90.4251 112.887 90.3376C114.1 89.8501 114.262 88.1126 113 87.5876C111.7 87.0376 110.55 88.4501 111.137 89.6626C111.237 89.8751 111.562 89.6751 111.45 89.4626Z" fill="#F66F5D"/>
<path d="M65.4124 86.5001C64.6124 86.3376 65.8999 85.4751 66.0374 85.3876C66.2374 85.2501 66.4249 85.1001 66.5249 84.8626C66.8624 84.1001 66.2499 82.5751 67.5999 82.5001C67.8374 82.4876 67.8374 82.1126 67.5999 82.1251C67.0749 82.1501 66.6874 82.4376 66.4499 82.8876C66.0624 83.6126 66.5249 84.6001 65.7749 85.1001C65.3499 85.3876 64.8999 85.5751 64.8499 86.1376C64.8249 86.4751 64.9624 86.7751 65.3124 86.8501C65.5499 86.9126 65.6499 86.5501 65.4124 86.5001Z" fill="#F66F5D"/>
<path d="M67.8124 85.4125C67.4624 84.925 67.6624 84.2376 68.2499 84.0501C68.6499 83.9251 68.9499 83.9875 69.1749 83.575C69.3999 83.15 69.3624 82.65 69.6124 82.2125C69.9249 81.65 70.4499 81.2625 71.0499 81.075C71.2749 81 71.1874 80.6375 70.9499 80.7125C70.3874 80.8875 69.8999 81.2 69.5374 81.6625C69.3499 81.9 69.1874 82.175 69.0874 82.475C68.9499 82.875 69.0124 83.4125 68.5624 83.625C68.2874 83.7625 68.0124 83.6875 67.7499 83.8875C67.5749 84.0125 67.4499 84.2 67.3749 84.3875C67.1999 84.8 67.2374 85.2375 67.4999 85.6C67.6249 85.8 67.9499 85.6125 67.8124 85.4125Z" fill="#F66F5D"/>
<path d="M55.1 27.925C54.875 27.475 55.8375 27.6375 55.875 27.65C56.0125 27.7 56.15 27.8125 56.275 27.8875C56.475 28 56.7 28.1125 56.9375 28.125C57.25 28.1375 57.5125 28 57.7125 27.775C58.2875 27.075 58.075 25.2625 59.425 25.8C59.825 25.9625 60.275 26.2 60.7125 26C61.0625 25.8375 61.1375 25.4875 61.0875 25.1375C61.0625 24.9625 60.8625 24.6125 60.9125 24.4375C61.0125 24.1 61.325 24.075 61.5625 24.1875C61.675 24.2375 61.775 24.3125 61.9 24.35C62.275 24.4875 62.6375 24.4625 62.8625 24.1125C62.9875 23.9125 62.6625 23.725 62.5375 23.925C62.2875 24.325 61.2875 23.5 60.8375 23.75C60.475 23.9375 60.4875 24.3125 60.575 24.6625C60.675 25.075 60.925 25.675 60.1625 25.6625C59.825 25.6625 59.5125 25.375 59.1875 25.3125C58.8 25.2375 58.45 25.3375 58.2 25.6375C57.575 26.375 57.8125 28.3 56.3625 27.5125C55.9375 27.2875 55.5875 27.0625 55.1125 27.275C54.75 27.4375 54.575 27.75 54.7625 28.1125C54.8875 28.325 55.2 28.1375 55.1 27.925Z" fill="black"/>
<path d="M69.9875 38.1251C69.425 37.9876 69.35 37.2626 69.625 36.8376C70.0125 36.2376 70.925 36.2751 71.5375 36.3876C72.5625 36.5751 73.5125 36.9751 74.55 36.5876C75.55 36.2126 76.3 35.4001 77.425 35.3751C78.6 35.3501 79.7125 35.8626 80.9 35.8251C82.975 35.7626 84.8625 34.7376 86.85 34.2626C88.025 33.9751 89.175 33.9501 90.35 34.2501C91.475 34.5376 92.525 35.0001 93.65 35.2751C94.825 35.5751 95.9875 35.5251 97.175 35.4251C98.475 35.3251 99.8125 35.2251 100.987 35.9001C100.962 35.8251 100.925 35.7626 100.9 35.6876C100.275 37.5251 98.25 38.2751 96.4625 38.3751C94.225 38.5001 92.05 37.6876 89.8 37.7751C87.525 37.8626 85.6 39.2501 83.3625 39.4626C81.075 39.6876 78.9125 38.6 76.6375 38.6625C74.325 38.725 71.3125 39.9876 69.4875 37.9251C69.325 37.7501 69.0625 38.0126 69.225 38.1876C70.6625 39.8001 72.9375 39.5125 74.85 39.225C76.2625 39.0125 77.55 39.0001 78.9625 39.2751C80.1625 39.5126 81.3625 39.8376 82.5875 39.8626C85.0625 39.9251 87.15 38.325 89.5875 38.1625C92.05 38.0001 94.4375 38.9876 96.9 38.7126C98.7375 38.5126 100.65 37.6501 101.275 35.7751C101.3 35.7001 101.262 35.6001 101.187 35.5626C98.9875 34.2751 96.3375 35.4876 93.975 34.9501C92.675 34.6501 91.4625 34.0751 90.15 33.8001C89.0125 33.5501 87.8875 33.6126 86.7625 33.8876C85.5625 34.1751 84.425 34.6501 83.25 35.0126C81.9 35.4251 80.6125 35.5501 79.2125 35.2626C78.1 35.0251 77.075 34.8376 76.025 35.3626C75.5375 35.6126 75.0875 35.9501 74.5875 36.1751C73.7375 36.5501 72.925 36.3251 72.0625 36.1126C71.15 35.9001 69.775 35.7501 69.2625 36.7626C68.9375 37.4001 69.1625 38.3126 69.9125 38.4876C70.125 38.5376 70.225 38.1751 69.9875 38.1251Z" fill="#E8E8E8"/>
<path d="M17.9374 57.3875C19.6374 57.1625 21.2499 58.0375 22.9374 57.825C23.6249 57.7375 24.2624 57.4375 24.8999 57.175C25.1999 57.05 25.5124 56.9375 25.8374 56.8625C26.4499 56.725 26.9999 56.8875 27.5999 57.0125C29.2749 57.375 31.1499 56.975 32.8249 56.7375C33.6499 56.625 34.4624 56.5 35.2874 56.3625C36.2249 56.2 37.1624 55.95 38.0999 55.85C39.0874 55.75 40.2499 56.1875 39.8499 57.4C39.5124 58.4375 38.2499 58.7375 37.2999 58.8125C35.6499 58.9375 34.0124 58.4625 32.3624 58.775C30.8249 59.0625 29.4499 59.8625 27.9624 60.3C27.1374 60.55 26.3124 60.65 25.4624 60.5375C24.6124 60.4125 23.8124 60.2 22.9374 60.2625C21.1624 60.375 19.2749 61.4125 17.4999 61C16.4124 60.75 15.8499 59.75 16.3749 58.7125C16.8874 57.7125 18.0624 57.45 19.0874 57.45C19.3249 57.45 19.3249 57.075 19.0874 57.075C17.6499 57.075 15.9499 57.7 15.7999 59.35C15.6624 60.875 17.1624 61.5 18.4499 61.45C19.3874 61.4125 20.3124 61.1375 21.2249 60.925C22.4124 60.65 23.4999 60.55 24.6999 60.775C25.5874 60.9375 26.4124 61.025 27.3124 60.85C28.2374 60.675 29.1124 60.3 29.9749 59.95C30.8499 59.6 31.7374 59.2375 32.6749 59.1C33.7749 58.9375 34.8749 59.1125 35.9749 59.175C37.4124 59.2625 39.6999 59.2 40.2249 57.5C40.4124 56.8875 40.2749 56.175 39.7374 55.775C39.2124 55.3875 38.4999 55.4125 37.8874 55.4875C35.6374 55.8 33.4249 56.3125 31.1499 56.5625C29.8749 56.7 28.6499 56.8625 27.3999 56.5625C26.3874 56.3125 25.5874 56.4875 24.6374 56.875C24.1374 57.075 23.6499 57.3 23.1249 57.4C22.4749 57.525 21.7999 57.4375 21.1499 57.325C20.0874 57.125 19.0499 56.85 17.9749 56.9875C17.6999 57.0375 17.6999 57.4125 17.9374 57.3875Z" fill="#E8E8E8"/>
<path d="M170.25 72.25C167.887 73.075 165.125 71.125 163.425 69.65C163.4 69.75 163.375 69.8625 163.337 69.9625C164.537 69.475 165.8 69.45 167.075 69.525C168.337 69.5875 169.6 69.675 170.862 69.7125C173.55 69.7875 176.25 69.725 178.925 69.525C180.312 69.425 181.687 69.2875 183.062 69.125C183.737 69.0375 184.55 68.875 185.187 69.1875C186.075 69.6375 186 70.6125 185.15 70.9875C184.712 71.175 184.237 71.2375 183.775 71.325C183.05 71.45 182.325 71.5875 181.6 71.7125C180.275 71.95 178.95 72.1875 177.612 72.425C176.85 72.5625 176.087 72.7 175.325 72.8375C174.612 72.9625 173.875 73.15 173.137 73.1625C171.887 73.175 170.95 72.075 169.7 72.2125C169.462 72.2375 169.462 72.6125 169.7 72.5875C170.412 72.5 170.975 72.8875 171.587 73.175C172.087 73.4125 172.575 73.5375 173.125 73.5375C174.562 73.525 176.05 73.0875 177.462 72.825C178.987 72.55 180.525 72.275 182.05 72C182.775 71.875 183.5 71.7375 184.225 71.6125C184.712 71.525 185.225 71.4125 185.65 71.125C186.362 70.6375 186.387 69.7375 185.787 69.15C184.85 68.225 183.237 68.7125 182.1 68.8375C179.025 69.175 175.925 69.35 172.825 69.3375C171.125 69.3375 169.425 69.275 167.725 69.1625C166.212 69.075 164.675 69 163.25 69.575C163.137 69.625 163.05 69.7875 163.162 69.8875C164.962 71.45 167.837 73.4625 170.35 72.5875C170.575 72.5375 170.487 72.175 170.25 72.25Z" fill="#E8E8E8"/>
<path d="M112.925 138.288C112.812 137.575 113.825 137.688 114.225 137.825C114.537 137.925 114.837 138.05 115.162 138.088C115.937 138.188 116.7 137.925 117.425 137.688C118.125 137.45 118.862 137.188 119.612 137.263C120.512 137.35 121.237 138.088 121.1 139.038C120.95 140.025 119.937 140.488 119.037 140.213C118.425 140.025 117.887 139.638 117.25 139.538C115.9 139.338 114.487 140.513 113.187 139.888C112.975 139.788 112.775 140.1 113 140.213C113.775 140.588 114.55 140.413 115.337 140.188C115.837 140.05 116.362 139.875 116.887 139.888C117.5 139.9 118 140.2 118.537 140.425C119.3 140.75 120.1 140.813 120.775 140.263C121.35 139.8 121.6 139.063 121.425 138.35C120.9 136.288 118.525 136.925 117.1 137.4C116.425 137.625 115.712 137.838 114.987 137.688C114.525 137.588 114.087 137.3 113.587 137.313C112.987 137.325 112.45 137.763 112.55 138.388C112.6 138.625 112.962 138.525 112.925 138.288Z" fill="#E8E8E8"/>
<path d="M98.5125 134.125C99.1125 133.563 99.9375 133.325 100.75 133.5C101.087 133.575 102.025 133.825 101.437 134.275C101.125 134.513 100.437 134.488 100.062 134.488C99.825 134.488 99.825 134.863 100.062 134.863C100.612 134.863 101.575 134.838 101.987 134.4C102.337 134.025 101.937 133.613 101.6 133.425C100.525 132.8 99.1375 133.038 98.25 133.863C98.075 134.025 98.3375 134.288 98.5125 134.125Z" fill="#E8E8E8"/>
<path d="M91.5624 142.413C91.4624 142.375 91.3749 142.338 91.2749 142.3C91.2624 142.4 91.2499 142.5 91.2374 142.6C91.9999 142.05 92.8624 142.45 93.6749 142.638C94.3624 142.8 94.9624 142.725 95.6374 142.563C96.4749 142.363 97.3249 142.238 98.1874 142.188C98.5874 142.163 98.9874 142.15 99.3874 142.138C99.7624 142.125 100.7 141.938 100.375 142.575C99.9874 143.338 98.8624 143.363 98.1749 143.138C97.5874 142.95 97.0374 142.675 96.4124 142.825C95.7624 142.975 95.2124 143.388 94.5374 143.525C93.6374 143.713 92.7499 143.625 91.8874 143.313C91.6624 143.238 91.5624 143.588 91.7874 143.675C92.6374 143.975 93.5249 144.075 94.4249 143.925C95.4374 143.75 96.3374 142.963 97.3874 143.25C98.1374 143.463 98.7499 143.8 99.5499 143.563C100.062 143.413 100.787 142.963 100.887 142.388C101.012 141.713 100.175 141.738 99.7374 141.75C98.7249 141.775 97.6999 141.825 96.6874 141.975C96.1374 142.063 95.6124 142.213 95.0749 142.313C94.4124 142.438 93.8749 142.313 93.2374 142.138C92.4874 141.925 91.7124 141.8 91.0374 142.275C90.9374 142.35 90.9124 142.475 90.9999 142.575C91.1874 142.788 91.3874 142.838 91.6499 142.788C91.8999 142.738 91.7999 142.375 91.5624 142.413Z" fill="#E8E8E8"/>
<path d="M143.187 135.25C143.912 134.95 144.675 134.788 145.462 134.8C146.275 134.813 146.962 135.125 147.737 135.3C148.875 135.575 149.725 134.875 150.65 134.338C152.112 133.475 153.562 134.038 155.087 134.35C156.175 134.575 157.337 134.613 158.275 133.95C158.475 133.813 158.287 133.488 158.087 133.625C156.912 134.475 155.462 134.063 154.175 133.75C152.962 133.463 151.762 133.3 150.625 133.925C150.125 134.2 149.662 134.563 149.137 134.8C148.337 135.163 147.687 134.875 146.912 134.65C145.65 134.288 144.312 134.388 143.1 134.888C142.862 134.975 142.962 135.338 143.187 135.25Z" fill="#E8E8E8"/>
<path d="M56.275 73.7C57.3875 73.275 59.3375 75.5625 60.3 77.0625C61.775 79.325 62.0125 81.3 62.7375 85.875C63.0125 87.65 63.4625 90.4625 64.075 94.0125C65.175 95.0875 65.5875 96.1375 65.75 96.7875C65.975 97.625 66.0375 98.7 65.75 98.8C65.4375 98.9125 64.8875 97.8625 64.6625 97.9625C64.3625 98.1 65.3375 99.7875 64.75 100.562C64.15 101.35 61.9 101.225 60.725 100.062C59.625 98.975 60.0625 97.5875 59.8875 94.275C59.825 93.15 59.65 90.0875 58.7125 87.0625C57.5625 83.375 56.3625 83.1875 55.6875 79.925C55.2125 77.625 55.075 74.1625 56.275 73.7Z" fill="white" stroke="#161616" stroke-miterlimit="10"/>
<path opacity="0.15" d="M57.9249 76.9249C58.6124 76.7749 59.8124 79.8874 59.8874 80.0624C60.9874 82.9374 60.4624 84.1624 60.9499 88.3999C61.3499 91.8499 61.5749 93.8124 62.6874 96.2374C63.7624 98.5624 65.0124 99.9249 64.5374 100.55C64.0624 101.187 62.1999 100.575 60.7374 99.9874C60.5999 99.6749 60.3999 99.1874 60.2374 98.5874C59.8249 97.1249 59.8499 95.9624 59.8499 95.3999C59.8499 95.0874 59.8374 91.4624 59.1249 88.2999C58.7374 86.6124 58.5624 86.8624 58.1124 85.1124C57.1249 81.3124 57.1624 77.0874 57.9249 76.9249Z" fill="#6D6C6C"/>
<path opacity="0.17" d="M59.6124 82.975C59.7499 84.275 59.925 86.2125 60 88.575C60.1125 92.2125 59.9375 95.2375 59.8375 95.2375C59.75 95.2375 59.8625 93.0625 59.3875 90.0875C59.075 88.1125 58.6125 86.5125 58.2625 85.45C58.5 85.2125 58.7874 84.8875 59.0499 84.4375C59.3749 83.8625 59.5374 83.3375 59.6124 82.975Z" fill="#6D6C6C"/>
<path d="M58.75 127.312C58.425 127.912 58.375 128.562 59.125 134.225C59.2125 134.925 59.3 135.5 59.35 135.9C61.2625 136.2 63.9625 136.437 67.1625 136.125C69.1 135.937 71.3625 135.725 71.4875 134.987C71.5875 134.387 70.275 133.312 64.275 131.262C64 129.262 63.7125 127.262 63.4375 125.262C59.925 125.5 59.0125 126.85 58.75 127.312Z" fill="#161616"/>
<path d="M51.2125 91.675C52.3875 93.275 54.0625 95.575 56.025 98.3875C60.675 105.038 63 108.363 63.8125 110.588C66.2125 117.175 65.5875 123.575 65.35 125.75C65.2125 127 65.0375 128.025 64.9 128.725C63.95 129.088 62.5875 129.488 60.925 129.625C59.4375 129.75 58.1625 129.612 57.225 129.45C56.9375 127.75 56.7 125.838 56.5875 123.763C56.425 120.675 56.575 117.913 56.8625 115.55C53.65 113.088 51.575 110.55 50.3125 108.788C46.9375 104.025 46.0375 99.9 45.5 97.25C44.7375 93.575 45.2625 92.575 45.75 92.05C47.375 90.3625 50.9 91.575 51.2125 91.675Z" fill="white" stroke="#161616" stroke-miterlimit="10"/>
<path opacity="0.19" d="M51.5751 102.225C52.8626 103.312 54.5376 104.925 56.1626 107.137C56.6126 107.762 58.4751 110.425 60.1126 114.7C62.3626 120.625 62.5501 126.15 62.4501 129.275C61.9001 129.475 61.1251 129.687 60.2001 129.762C58.9626 129.85 57.9501 129.637 57.3001 129.437C56.9001 127 56.6001 124.187 56.5751 121.062C56.5626 119.037 56.6501 117.15 56.8126 115.425C56.5001 115.25 50.4626 111.85 50.5376 106.162C50.5501 104.575 51.0501 103.225 51.5751 102.225Z" fill="#6D6C6C"/>
<path opacity="0.15" d="M53.1875 111.8C53.4625 111.425 56.9 112.475 58.2625 115.025C59.2875 116.938 58.4625 118.413 58.5 121.138C58.525 123.175 59.05 126.075 61.3125 129.588C60 129.563 58.6875 129.538 57.3625 129.513C57 127.188 56.7125 124.538 56.6375 121.625C56.575 119.325 56.65 117.2 56.8 115.263C56.3125 115.013 55.6875 114.625 55.025 114.05C54.2875 113.4 52.9875 112.075 53.1875 111.8Z" fill="#6D6C6C"/>
<path d="M36.6625 126.325C35.7125 126.937 35.55 127.787 34.6875 129.662C34.0875 130.962 33.1875 132.7 31.8 134.675C32.5875 135.562 33.9001 136.8 35.8251 137.712C38.4626 138.962 42.1625 139.562 42.7375 138.475C43.35 137.3 40.1375 134.512 39.175 133.687C39.4375 133.1 39.8626 132.162 40.3876 131.025C41.7751 128.05 42.0501 127.612 41.8251 127.075C41.3001 125.8 38.3875 125.225 36.6625 126.325Z" fill="#161616"/>
<path d="M40.675 88.85C39.925 90.9125 39.1625 92.975 38.4125 95.025C37.175 98.6 37.7125 101.075 38.1125 102.262C38.55 103.575 39.3126 104.7 40.8251 106.937C42.0001 108.662 43.0626 110.05 43.8376 111.012C42.2876 112.625 40.525 114.712 38.8625 117.337C36.625 120.887 35.3 124.225 34.4875 126.837C35.225 127.4 36.3375 128.112 37.8 128.65C39.4375 129.25 40.8875 129.387 41.875 129.4C43.6125 128.062 45.9876 125.975 48.2001 122.912C49.9376 120.525 52.2751 117.312 53.0251 112.812C54.3001 105.15 50.1376 98.9125 48.6501 96.6875C45.9626 92.65 42.7375 90.2 40.675 88.85Z" fill="white" stroke="#161616" stroke-miterlimit="10"/>
<path d="M45.9376 93.35C46.9001 94.6875 47.8501 96.0375 48.7626 97.4C48.8751 97.3375 48.9751 97.275 49.0876 97.2125C48.2751 96.125 47.5501 94.9625 46.9251 93.75C46.8376 93.8375 46.7501 93.925 46.6626 94.0125C47.1751 94.3625 47.4626 94.8875 47.7751 95.4C48.1376 96 48.5126 96.6 48.8751 97.2C49.5876 98.3625 50.3001 99.5375 51.0126 100.7C51.1251 100.638 51.2251 100.575 51.3376 100.513C50.2501 98.8125 49.1626 97.1125 48.0626 95.4125C47.9376 95.2125 47.6126 95.4 47.7376 95.6C49.0876 97.85 50.4501 100.088 51.8001 102.338C51.9251 102.55 52.2501 102.363 52.1251 102.15C51.1376 100.475 50.1626 98.7875 49.1751 97.1125C49.0751 97.1875 48.9751 97.2625 48.8751 97.3375C50.2876 98.9 50.5376 101.175 52.0751 102.638C52.2501 102.8 52.5126 102.538 52.3376 102.375C50.8001 100.925 50.5501 98.6375 49.1376 97.075C48.9876 96.9125 48.7376 97.125 48.8376 97.3C49.8251 98.975 50.8001 100.663 51.7876 102.338C51.9001 102.275 52.0001 102.213 52.1126 102.15C50.7626 99.9 49.4001 97.6625 48.0501 95.4125C47.9376 95.475 47.8376 95.5375 47.7251 95.6C48.8126 97.3 49.9001 99 51.0001 100.7C51.1251 100.9 51.4501 100.713 51.3251 100.513C50.5251 99.2 49.7251 97.8875 48.9251 96.5875C48.3376 95.6125 47.8001 94.35 46.8251 93.6875C46.6626 93.575 46.4876 93.7875 46.5626 93.95C47.1876 95.1625 47.9001 96.3125 48.7251 97.4125C48.8626 97.6 49.1876 97.425 49.0501 97.225C48.1376 95.85 47.2001 94.5 46.2251 93.175C46.1251 92.9625 45.8001 93.15 45.9376 93.35Z" fill="white"/>
<path opacity="0.2" d="M46.725 93.9C46.075 94.8375 45.175 96.3875 44.7875 98.425C43.6 104.6 48.6 107.338 47.4875 112.75C46.9 115.6 45.4125 115.338 42.0875 121.263C40.4 124.275 39.325 126.925 38.6875 128.725C37.875 128.475 36.9875 128.15 36.05 127.725C35.5 127.475 34.9875 127.225 34.525 126.963C35.2625 124.663 36.375 121.888 38.05 118.913C39.95 115.55 42.0375 112.925 43.8 110.988C43.3125 110.363 42.5875 109.413 41.75 108.225C39.4375 104.95 38.2625 103.275 37.875 101.35C37.4375 99.225 37.8 97.4125 38.05 96.1875C38.425 94.3375 39.0625 92.8875 39.575 91.9C41.95 92.5625 44.3375 93.2375 46.725 93.9Z" fill="#6D6C6C"/>
<path opacity="0.17" d="M43.7876 93.1375C42.3751 94.75 40.5251 97.4 40.6751 100.6C40.9001 105.612 45.8501 107.525 45.1376 111.637C44.9376 112.775 43.3626 114.6 40.2001 118.212C38.4626 120.2 36.9876 121.787 35.9751 122.85C36.7501 120.95 37.8751 118.675 39.5001 116.275C40.9376 114.15 42.4126 112.45 43.7251 111.112C43.3376 110.525 42.6501 109.475 41.7876 108.175C38.7751 103.65 38.1876 102.937 37.8501 101.362C37.4501 99.5125 37.7126 97.95 37.9126 96.7875C38.2751 94.625 39.0376 92.9625 39.6126 91.9125C41.0001 92.3125 42.4001 92.725 43.7876 93.1375Z" fill="#6D6C6C"/>
<path d="M50.25 71.3875C48.475 72.4375 45.1 74.75 42.525 79C39.25 84.4125 39.25 89.7 39.3625 91.75C39.975 91.95 40.6 92.15 41.2375 92.3375C45.5 93.6125 49.625 94.475 53.525 95.025C53.85 93.9125 54.2 92.7875 54.575 91.625C55.1375 89.9125 55.725 88.275 56.325 86.7125C58.4 85.6375 59.125 84.25 59.3625 83.675C60.325 81.425 59.4125 79.075 58.425 76.5375C57.875 75.1125 57.5875 74.3875 56.9 73.6125C54.75 71.175 51.2 71.325 50.25 71.3875Z" fill="#F66F5D"/>
<path opacity="0.27" d="M54.4626 74.3499C51.0501 74.7999 49.2251 76.3499 48.4876 77.0749C44.3251 81.1874 45.7626 88.1249 46.1501 89.9999C46.5001 91.6874 47.0251 93.0374 47.4376 93.9499C44.8001 93.2374 42.1751 92.5124 39.5376 91.7999C39.3751 89.8874 39.2126 84.9749 42.0501 79.7374C44.6876 74.8874 48.4751 72.3999 50.1626 71.4249C50.4001 71.4374 50.6376 71.4624 50.8751 71.4749C51.2376 71.8999 51.6751 72.3499 52.2126 72.8124C53.0126 73.5124 53.8001 73.9999 54.4626 74.3499Z" fill="#6D6C6C"/>
<path opacity="0.2" d="M43.5251 77.4874C43.1751 79.3249 42.8876 81.9874 43.2626 85.1374C43.7126 88.8374 44.9001 91.6999 45.8251 93.4999C43.6751 92.9499 41.5126 92.3999 39.3626 91.8624C39.2626 90.1374 39.3126 87.5499 40.1376 84.5749C41.0376 81.3249 42.4876 78.9499 43.5251 77.4874Z" fill="#6D6C6C"/>
<path d="M149.2 118.787C148.413 120.55 148.563 122.2 148.688 122.975C151.15 124.062 153.338 124.562 155.013 124.812C155.563 124.9 162.363 125.862 163.025 124C163.188 123.537 162.925 123.062 162.663 122.6C161.2 120.037 157.5 119.887 157 119.875C156.863 117.212 155.15 115.237 153.4 115.1C150.925 114.912 149.375 118.4 149.2 118.787Z" fill="#161616"/>
<path d="M152.45 75.7875C154.075 78.125 156.263 81.7625 157.85 86.5875C160.438 94.45 160.013 101.05 159.725 104.787C159.475 108.112 158.8 112.837 156.913 118.287C156.4 118.612 154.138 119.962 151.275 119.35C149.575 118.987 148.425 118.087 147.875 117.587C148.888 115.362 150.113 112.012 150.575 107.837C151.088 103.287 150.463 99.725 149.638 95.15C147.763 84.8125 145.175 80.8875 147.413 78C148.488 76.6 150.325 75.975 152.45 75.7875Z" fill="white" stroke="#161616" stroke-miterlimit="10"/>
<path opacity="0.16" d="M153.338 81.5C154.188 85.6375 154.863 90.3875 155.125 95.6625C155.575 105.025 154.563 113.1 153.25 119.387C152.688 119.462 151.325 119.55 149.875 118.825C149.013 118.387 148.425 117.812 148.088 117.412C149.65 113.812 150.213 110.75 150.438 108.688C150.788 105.45 150.5 102.85 149.963 98C149.65 95.1625 149.288 92.8375 149.025 91.25C150.463 88.0125 151.9 84.75 153.338 81.5Z" fill="#6D6C6C"/>
<path opacity="0.22" d="M150.6 87.725C151.675 90.525 153.288 95.8625 152.738 102.65C152.213 109.187 149.913 114.05 148.45 116.625C150.9 109.55 151.025 105.212 150.65 102.525C150.55 101.837 150.125 99.1125 149.638 95.1C149.438 93.4375 149.288 92.075 149.2 91.2C149.675 90.0375 150.138 88.875 150.6 87.725Z" fill="#6D6C6C"/>
<path d="M131.113 113.375C130.075 113.887 129.762 114.725 128.337 117.437C127.387 119.237 126.587 120.675 126.062 121.6C127.663 122.75 130.2 124.262 133.587 125.062C135.587 125.537 139.75 126.2 140.225 125.062C140.75 123.8 136.475 120.887 134.675 119.712C136.525 117.912 136.613 115.3 135.363 113.962C134.3 112.825 132.375 112.75 131.113 113.375Z" fill="#161616"/>
<path d="M149.238 75.525C153.363 79.1625 148.538 91.2875 144.575 100.987C142.863 105.175 140.188 111.237 136.25 118.325C135.563 118.425 133.5 118.625 131.3 117.437C129.088 116.25 128.125 114.387 127.838 113.775C128.988 111.787 130.375 109.112 131.7 105.85C132.225 104.562 134.488 98.8125 135.763 90.6875C136.263 87.475 136.713 83.2375 136.65 78.2C137.388 77.45 141.5 73.4125 146.363 74.3375C147.1 74.475 148.313 74.7125 149.238 75.525Z" fill="white" stroke="#161616" stroke-miterlimit="10"/>
<path d="M150.575 80.525C150.563 80.9625 150.55 81.4 150.55 81.8375C150.675 81.8375 150.8 81.8375 150.925 81.8375C150.863 81.1375 150.9 80.475 151.038 79.7875C150.913 79.775 150.788 79.75 150.675 79.7375C150.75 81.2125 150.413 82.7625 150.15 84.2125C149.888 85.675 149.538 87.125 149.125 88.55C149.25 88.5875 149.363 88.6125 149.488 88.65C150.175 86.05 150.75 83.4375 151.225 80.7875C151.263 80.55 150.9 80.45 150.863 80.6875C150.388 83.325 149.813 85.95 149.125 88.55C149.063 88.7875 149.425 88.8875 149.488 88.65C149.925 87.15 150.275 85.6124 150.55 84.0749C150.8 82.6749 151.125 81.1625 151.05 79.7375C151.038 79.5375 150.725 79.475 150.688 79.6875C150.538 80.4 150.5 81.1125 150.563 81.8375C150.588 82.075 150.938 82.0875 150.938 81.8375C150.95 81.4 150.963 80.9625 150.963 80.525C150.963 80.2875 150.588 80.2875 150.575 80.525Z" fill="white"/>
<path d="M148.987 87.7625C149 88.725 149.025 89.6875 149.037 90.65C149.037 90.8875 149.412 90.8875 149.412 90.65C149.4 89.6875 149.375 88.725 149.362 87.7625C149.35 87.5125 148.975 87.5125 148.987 87.7625Z" fill="white"/>
<path opacity="0.19" d="M143.788 79.4125C143.825 81.925 143.688 85.35 142.95 89.325C142.163 93.5375 140.963 96.8 139.213 101.712C137.788 105.737 137.1 106.937 135.65 111.4C134.763 114.112 134.138 116.387 133.738 117.912C133.05 117.825 131.625 117.537 130.2 116.475C128.875 115.487 128.2 114.312 127.9 113.7C130.2 109.662 131.663 106.125 132.588 103.55C135.45 95.5875 136.125 88.6625 136.513 84.4C136.675 82.625 136.763 81.15 136.8 80.1875C139.125 79.925 141.463 79.675 143.788 79.4125Z" fill="#6D6C6C"/>
<path opacity="0.24" d="M142.5 79.775C141.525 84.0625 140.4 87.4375 139.513 89.8C138.788 91.75 137.675 94.375 135.463 99.6125C134.65 101.55 134.238 102.513 134.038 102.95C132.813 105.7 130.85 109.563 127.713 114.113C130.525 109.063 133.75 101.863 135.463 92.7875C136.325 88.2125 136.638 84.0375 136.675 80.425C136.663 80.4125 136.663 80.4125 142.5 79.775Z" fill="#6D6C6C"/>
<path d="M146.45 49.0375C146.65 49.525 147 50.2375 147.638 50.9625C148.1 51.4875 148.688 52.1625 149.563 52.425C151.263 52.95 152.913 51.6 153.138 51.4125C154.788 52.3875 156.438 53.3625 158.075 54.3375C158.225 56.375 158.238 59.45 157.438 63.0375C156.675 66.45 155.938 66.8625 155.338 70.175C154.425 75.15 155.1 79.5875 154.875 79.6C154.838 79.6 154.788 79.5 154.688 78.9625C148.25 79.45 141.813 79.9375 135.375 80.425C135.188 76.5625 135.213 73.3125 135.288 70.9125C135.388 67.1625 135.688 62.625 136.938 57.3625C137.825 53.6 138.525 52.325 139.588 51.325C141.888 49.1375 145.038 49 146.45 49.0375Z" fill="black"/>
<path opacity="0.3" d="M153.9 51.8625C153.688 54.15 153.288 57.55 152.525 61.625C152.3 62.85 151.663 66.225 151.15 67.875C150.525 69.9 148.088 75.6875 136.163 80.3875C139.8 79.9625 143.55 79.5876 147.388 79.2751C149.788 79.0751 152.163 78.9 154.5 78.7625C155.325 75.825 156.088 72.5 156.638 68.825C157.475 63.2625 157.638 58.2375 157.5 54C156.3 53.2875 155.1 52.575 153.9 51.8625Z" fill="#32198E"/>
<path d="M148.75 41.5125C148.312 43.75 148.113 46.225 146.3 48.9625C146.05 49.3375 145.838 49.625 145.688 49.8125C145.838 50.1124 147.425 53.1875 150.8 53.65C152.725 53.9125 154.238 53.1749 154.812 52.8624C154.725 52.1124 154.675 51.2125 154.75 50.2C154.85 48.7125 155.163 47.4749 155.475 46.5374C156.925 46.3499 158.363 46.1624 159.812 45.9749C160.1 45.3375 160.375 44.7 160.663 44.05C161.063 44.0375 161.45 44.025 161.85 44.0125C161.55 43.1375 161.1 41.7499 160.575 40.0374C159.6 36.8124 159.612 36.35 159.087 35.625C157.637 33.6375 154.387 32.375 152.25 33.4375C150.188 34.45 149.562 37.3375 148.75 41.5125Z" fill="white" stroke="#161616" stroke-miterlimit="10"/>
<path d="M161.788 43.8375C161.075 43.85 160.375 43.8 159.675 43.7C159.438 43.6625 159.338 44.025 159.575 44.0625C160.313 44.175 161.038 44.225 161.788 44.2125C162.038 44.2125 162.038 43.8375 161.788 43.8375Z" fill="#161616"/>
<path d="M162.287 38.0999C161.65 37.7499 160.887 37.9499 160.475 38.5374C160.337 38.7374 160.662 38.9249 160.8 38.7249C161.087 38.3124 161.662 38.1874 162.1 38.4249C162.312 38.5374 162.5 38.2124 162.287 38.0999Z" fill="#161616"/>
<path d="M161.963 40.3499C162.025 40.0624 162.013 39.7749 161.875 39.5124C161.775 39.3249 161.563 39.0999 161.325 39.1999C161.075 39.2999 161.088 39.6499 161.138 39.8624C161.188 40.1249 161.325 40.3624 161.525 40.5374C161.638 40.6374 161.85 40.5749 161.85 40.3999C161.85 40.0874 161.775 39.8124 161.638 39.5249C161.538 39.3124 161.213 39.4999 161.313 39.7124C161.413 39.9249 161.463 40.1499 161.475 40.3874C161.588 40.3374 161.688 40.2999 161.8 40.2499C161.588 40.0749 161.513 39.8499 161.5 39.5874C161.513 39.5624 161.5 39.5374 161.463 39.5374C161.488 39.5499 161.513 39.5749 161.525 39.5999C161.563 39.6499 161.6 39.7249 161.613 39.7874C161.663 39.9374 161.663 40.0749 161.625 40.2249C161.538 40.4874 161.9 40.5874 161.963 40.3499Z" fill="#161616"/>
<path d="M158.663 38.6C157.938 38.3625 157.175 38.6625 156.75 39.2875C156.613 39.4875 156.938 39.675 157.075 39.475C157.4 38.9875 158 38.7875 158.563 38.9625C158.788 39.025 158.888 38.675 158.663 38.6Z" fill="#161616"/>
<path d="M158.863 40.6875C158.888 40.35 158.75 39.825 158.4 39.6875C157.937 39.5 157.938 40.15 157.988 40.425C158.05 40.7 158.275 41.2125 158.65 41C158.8 40.9125 158.825 40.75 158.775 40.6C158.687 40.3625 158.55 40.15 158.45 39.925C158.35 40 158.25 40.075 158.15 40.15C158.2 40.2 158.238 40.25 158.25 40.325C158.313 40.5625 158.675 40.4625 158.613 40.225C158.575 40.0875 158.513 39.9875 158.413 39.8875C158.25 39.7375 158.025 39.925 158.113 40.1125C158.163 40.2 158.2 40.2875 158.25 40.3875C158.288 40.4625 158.325 40.6 158.387 40.6625C158.412 40.75 158.438 40.75 158.475 40.6625C158.463 40.6375 158.438 40.6 158.425 40.575C158.388 40.5 158.363 40.425 158.35 40.3375C158.338 40.2625 158.35 40.1625 158.325 40.0875C158.337 40.0375 158.325 40.025 158.313 40.0875C158.338 40.125 158.375 40.1625 158.387 40.2C158.475 40.35 158.5 40.525 158.488 40.7C158.463 40.925 158.838 40.925 158.863 40.6875Z" fill="#161616"/>
<path d="M159.587 36.425C159.487 35.7625 159.225 34.6875 158.525 33.575C158.275 33.1875 157.737 32.35 156.887 31.7875C155.262 30.7125 152.762 30.8 150.937 32.1125C149.162 33.4 148.275 35.7125 148.662 38C152.312 37.475 155.95 36.95 159.587 36.425Z" fill="#F66F5D"/>
<path d="M165.562 35.2249C159.95 35.9374 154.35 36.6499 148.737 37.3624C148.025 37.4499 148.025 38.5749 148.737 38.4874C154.35 37.7749 159.95 37.0624 165.562 36.3499C166.262 36.2624 166.275 35.1374 165.562 35.2249Z" fill="#161616"/>
<path d="M152.3 37.8499C153.288 38.2124 153.863 38.8999 154.538 39.7249C155.95 41.4499 155.525 42.0874 156.525 43.1624C158.1 44.8749 159.7 43.8624 161.113 45.5374C162.313 46.9624 162.15 48.8874 162.1 49.3124C162.05 49.7374 161.838 51.4499 160.45 52.6249C159.25 53.6374 157.613 53.8749 157.513 53.6499C157.475 53.5624 157.613 53.3624 158.5 52.7624C158.238 52.9499 157.838 53.1749 157.3 53.2749C156.688 53.3874 156.113 53.2749 156.1 53.1874C156.1 53.1249 156.425 53.1249 156.675 52.8499C156.825 52.6874 156.888 52.4999 156.925 52.3374C156.438 52.6624 155.813 52.9374 155.225 52.7624C153.625 52.2749 153.338 48.6874 153.238 47.4999C152.938 43.6499 154.038 41.5499 152.7 40.1999C152.588 40.0874 152.05 39.5374 151.463 39.6499C150.713 39.7874 150.138 40.9624 150.388 41.7374C150.6 42.3999 151.35 42.5874 151.3 42.7124C151.225 42.8749 149.963 42.6249 148.9 41.7749C148.513 41.4624 148.2 41.2124 148.038 40.7499C147.75 39.9499 148.088 39.0374 148.538 38.4999C149.475 37.3749 151.225 37.4499 152.3 37.8499Z" fill="#161616" stroke="#161616" stroke-miterlimit="10"/>
<path opacity="0.22" d="M150.812 42.8124C151.05 42.8374 151.387 42.8499 151.412 42.7624C151.425 42.7249 151.337 42.6624 151.337 42.6624C151.337 42.6624 151.625 43.0249 151.975 43.0749C152.15 43.0999 152.287 43.0374 152.387 42.9874C151.75 44.3249 151.1 45.9499 150.562 47.8249C150 49.7624 149.687 51.5374 149.525 53.0499C148.975 52.8749 147.975 52.4749 147.05 51.5749C146.375 50.9249 145.987 50.2374 145.762 49.7749C146.512 48.6499 146.95 47.6624 147.212 46.9874C147.45 46.3624 147.537 45.9499 147.962 44.5249C148.312 43.3749 148.587 42.4249 148.775 41.7749C148.875 41.8624 149.025 41.9999 149.225 42.1374C149.512 42.3374 150.075 42.7249 150.812 42.8124Z" fill="#6D6C6C"/>
<path d="M154.85 31.1124C153.388 31.3999 152.3 32.5749 152.138 33.9624C151.938 35.6124 153.15 36.7374 153.263 36.8374C151.713 37.0249 150.163 37.2249 148.613 37.4124C148.588 37.0499 148.575 36.5499 148.663 35.9749C148.963 34.1249 150.038 32.9874 150.263 32.7499C150.625 32.3749 151.9 31.1624 153.788 31.0499C154.225 31.0249 154.588 31.0749 154.85 31.1124Z" fill="#B74949"/>
<path d="M157.7 54.2125C158.7 54.0625 159.725 55.8 160.2 56.6C162.95 61.275 161.8 66.675 161.45 68.25C161.175 69.4875 160.663 71.675 159.063 74.0875C157.538 76.4125 155.738 77.85 154.588 78.6375C152.663 79.375 149.163 80.3875 144.95 79.7C143.488 79.4625 142.213 79.0625 141.15 78.6375C139.35 78.75 137.55 78.85 135.75 78.9625C135.463 78.9125 135.063 78.8375 134.588 78.6625C134.013 78.45 133.463 78.2375 133.463 78.0375C133.463 77.8125 134.088 77.4625 137.138 76.9875C136.988 77.0125 134.988 77.4 133.65 76C132.4 74.7 132.325 72.475 133.275 71.6C134.075 70.8625 135.375 71.1875 137.75 71.825C140.1 72.45 141.988 73.3 143.363 74.025C143.888 74.2625 147.975 76.025 151.713 73.875C154.563 72.2375 155.513 69.3 155.738 68.4875C156.638 65.2625 155 64.125 155.588 59.4625C155.663 58.6625 156.2 54.425 157.7 54.2125Z" fill="white" stroke="#161616" stroke-miterlimit="10"/>
<path d="M132.8 74.3875C134.25 74.5 135.637 74.85 136.962 75.45C137.175 75.55 137.375 75.225 137.15 75.125C135.762 74.4875 134.312 74.1125 132.8 74C132.562 74 132.562 74.375 132.8 74.3875Z" fill="#161616"/>
<path d="M132.713 72.8625C134.375 72.8125 135.788 73.825 137.338 74.3C137.563 74.375 137.663 74.0125 137.438 73.9375C135.863 73.45 134.425 72.4375 132.713 72.4875C132.475 72.5 132.463 72.875 132.713 72.8625Z" fill="#161616"/>
<path d="M134.312 71.5375C135.675 71.65 136.875 72.3 138.05 72.9625C138.263 73.075 138.45 72.7624 138.238 72.6374C137 71.9499 135.75 71.2875 134.312 71.1625C134.062 71.1375 134.062 71.5125 134.312 71.5375Z" fill="#161616"/>
<path opacity="0.18" d="M156.175 56.5125C155.437 59.475 157.4 61.475 158.062 64.8625C158.175 65.4625 159.062 70.325 156.462 73.775C153.562 77.625 147.812 77.7625 146.687 77.8C143.75 77.875 142.637 77.0125 138.037 77.25C137.6 77.275 133.6 77.5 133.562 78.0625C133.55 78.3625 134.662 78.7 135.5 78.8125C136.6 78.9625 137.175 78.7125 138.575 78.6C139.175 78.55 140.037 78.5125 141.1 78.6C142.375 79.125 144.025 79.6375 146 79.8375C146.537 79.8875 148.212 80.0375 150.362 79.725C150.362 79.725 152.162 79.475 153.587 78.975C157.125 77.75 160.625 72.5875 161.612 66.9625C162.725 60.625 160.25 55.85 158.862 54.7875C158.675 54.6375 158.137 54.225 157.575 54.3625C156.662 54.5625 156.287 56.05 156.175 56.5125Z" fill="#6D6C6C"/>
<path opacity="0.17" d="M161.45 60.275C161.25 60.275 161.25 62.6625 160.7 65.6625C160.362 67.4875 159.675 71.2 158.012 73.7875C155.05 78.4 149 79.4375 146.7 79.7125C148.675 79.9875 151.712 80.05 154.675 78.475C161.1 75.05 161.725 66.7875 161.837 65.2875C162.012 62.7625 161.65 60.275 161.45 60.275Z" fill="#6D6C6C"/>
<path d="M53.5125 107.575C58.6875 102.975 63.8875 98.3999 69.1125 93.8624C78.9625 85.2999 88.8999 76.8499 98.9375 68.4999C98.15 66.1624 97.1375 62.1124 97.7375 57.1874C97.925 55.6249 99.5249 44.1124 110.075 38.1624C110.95 37.6624 123.062 31.1124 134.412 38.3374C141.9 43.0999 145.775 51.7874 144.862 60.275C143.512 72.8875 132.312 78.4749 131.662 78.7874C123.587 82.6374 113.875 81.4999 106.637 75.8749C95.7624 84.8249 84.9124 93.7874 74.0749 102.775C69.3249 106.712 64.5874 110.65 59.8499 114.6C58.8624 114.125 57.225 113.175 55.75 111.437C54.5125 109.987 53.8625 108.537 53.5125 107.575Z" fill="#161616"/>
<path d="M121.55 77.1749C132.499 77.1749 141.375 68.6683 141.375 58.1749C141.375 47.6815 132.499 39.1749 121.55 39.1749C110.601 39.1749 101.725 47.6815 101.725 58.1749C101.725 68.6683 110.601 77.1749 121.55 77.1749Z" fill="white" stroke="#161616" stroke-miterlimit="10"/>
<path d="M123.162 40.225C119.537 47.9 115.725 55.5 111.737 63C110.612 65.1125 109.475 67.225 108.325 69.325C108.212 69.5375 108.537 69.725 108.65 69.5125C112.737 62.0625 116.65 54.525 120.375 46.8875C121.425 44.7375 122.462 42.575 123.5 40.4C123.6 40.2 123.275 40.0125 123.162 40.225Z" fill="#E8E8E8"/>
<path d="M129.275 42.0875C125.3 48.3625 121.525 54.75 117.937 61.25C117.825 61.4625 118.15 61.65 118.262 61.4375C121.85 54.9375 125.625 48.55 129.6 42.275C129.725 42.075 129.4 41.8875 129.275 42.0875Z" fill="#E8E8E8"/>
<path d="M117.275 63.45C115.625 66.6625 113.862 69.825 111.975 72.9125C111.85 73.125 112.175 73.3125 112.3 73.1C114.175 70.0125 115.95 66.85 117.6 63.6375C117.712 63.425 117.387 63.225 117.275 63.45Z" fill="#E8E8E8"/>
<path d="M124.212 54.0749C122.112 58.0249 120.025 61.9749 117.925 65.9249C117.812 66.1374 118.137 66.3249 118.25 66.1124C120.35 62.1624 122.437 58.2124 124.537 54.2624C124.65 54.0499 124.325 53.8624 124.212 54.0749Z" fill="#E8E8E8"/>
<path opacity="0.08" d="M120.962 39.1124C119.575 39.6124 110.437 43.0374 107.512 52.2124C107.175 53.2749 106.125 56.6999 106.912 60.6624C108.425 68.2124 115.975 74.3249 125.85 76.3749C125.1 76.6249 124.05 76.9249 122.75 77.0874C114.9 78.0749 108.812 72.7249 108.1 72.0874C106.55 70.6749 101.762 65.8749 101.675 58.2749C101.662 57.6124 101.7 50.1124 107.387 44.6999C110.7 41.5499 114.575 40.3999 116.2 39.9374C118.1 39.3999 119.762 39.1999 120.962 39.1124Z" fill="#6D6C6C"/>
<path d="M47.8125 77.675C48.7125 77.5625 50.0625 77.55 51.05 78.35C53.175 80.075 51.5375 83.825 52.5875 87.7875C53.15 89.9125 54.6375 92.775 58.9625 95.6125C60.675 96.475 62.1 97.125 63.0875 97.575C64.5 98.2125 65.4 98.575 65.3875 99.0625C65.375 99.55 64.4875 99.9125 63.85 100.125C64.6125 100.837 65 101.737 64.7375 102.425C64.5375 102.962 63.9875 103.225 63.375 103.525C62.675 103.875 62.0875 103.95 61.4125 104.037C60.15 104.2 59.525 104.275 58.95 104.037C58.0625 103.662 57.6625 102.837 57.075 101.65C56.75 101 56.35 99.9875 56.1375 98.675C54.725 98.025 52.7 96.9 50.6875 95.0125C49.9 94.275 42.6 87.275 44.9 81.225C45.25 80.375 45.9875 79 47.8125 77.675Z" fill="white" stroke="#161616" stroke-miterlimit="10"/>
<path d="M58.9874 102.488C59.2999 103.175 59.7749 103.75 60.3874 104.213C60.5749 104.363 60.7624 104.038 60.5749 103.888C60.0249 103.475 59.5999 102.925 59.3124 102.3C59.2124 102.088 58.8874 102.275 58.9874 102.488Z" fill="#161616"/>
<path d="M60.4875 102.287C60.8625 103.012 61.425 103.612 62.1125 104.062C62.3125 104.187 62.5 103.862 62.3 103.737C61.6625 103.337 61.15 102.775 60.8 102.1C60.7 101.887 60.375 102.075 60.4875 102.287Z" fill="#161616"/>
<path d="M62.0624 101.438C62.4124 102.175 63.0124 102.763 63.7499 103.113C63.9624 103.213 64.1624 102.888 63.9374 102.788C63.2499 102.463 62.7124 101.938 62.3874 101.25C62.2749 101.025 61.9624 101.213 62.0624 101.438Z" fill="#161616"/>
<path opacity="0.2" d="M48.1249 77.7C47.8499 78.9375 47.5499 80.8875 47.8124 83.2375C48.4999 89.1875 52.3499 93.1125 52.9874 93.75C56.1624 96.9 58.2374 96.475 59.4999 99.2875C59.8374 100.037 60.4374 101.737 62.0624 102.625C62.6999 102.962 63.2999 103.087 63.6999 103.137C63.4874 103.312 63.1374 103.55 62.6749 103.75C61.8999 104.087 61.2249 104.1 60.1624 104.112C59.3749 104.125 58.9749 104.125 58.6249 103.962C57.8874 103.625 57.5374 102.925 57.3999 102.575C56.8999 101.225 56.4124 99.875 55.9124 98.525C53.4749 97.275 50.0249 95.05 47.2999 91.2375C46.1624 89.65 44.2624 86.925 44.4249 83.65C44.4999 82.1625 44.9749 81.125 45.0874 80.875C45.9749 79.0375 47.4499 78.0875 48.1249 77.7Z" fill="#6D6C6C"/>
<path opacity="0.32" d="M44.5874 84.4124C44.6624 84.3874 45.1374 85.8874 46.0749 87.6374C48.3624 91.9624 51.6624 94.6124 54.0249 96.4624C55.0999 97.2999 56.0124 97.9249 56.5874 98.3124C57.2874 99.4874 57.6874 100.5 57.9249 101.237C58.1249 101.85 58.2374 102.4 58.6999 102.975C59.1749 103.6 59.7874 103.95 60.2374 104.15C59.8999 104.162 59.3874 104.137 58.8499 103.887C57.8249 103.412 57.3749 102.425 56.8999 101.375C56.6249 100.775 56.2999 99.8749 56.1249 98.7124C49.5999 95.4124 47.1499 91.2499 46.2249 89.2749C45.2749 87.2499 44.4874 84.4624 44.5874 84.4124Z" fill="#6D6C6C"/>
<path d="M54.9375 66.2625C54.05 66.6125 54.575 68.3625 53.15 69.95C52.45 70.7375 51.6 71.1125 51.0125 71.325C51.3875 71.8875 52.125 72.8 53.3375 73.525C54.2 74.05 55.0249 74.3 55.5999 74.4125C55.7874 74.075 56.0999 73.55 56.4874 72.925C57.8749 70.7375 58.375 70.5 58.45 69.775C58.6375 68 56.075 65.8125 54.9375 66.2625Z" fill="white" stroke="#161616" stroke-miterlimit="10"/>
<path d="M54.7749 69.6375C55.2874 70.6625 55.8249 71.675 56.6749 72.4625C56.8499 72.625 57.1124 72.3625 56.9374 72.2C56.1124 71.4375 55.5999 70.4375 55.0999 69.45C54.9874 69.2375 54.6624 69.425 54.7749 69.6375Z" fill="#161616"/>
<path d="M54.4 68.9626C54.975 70.0876 55.6 71.2001 56.7 71.8876C56.8875 72.0001 57.075 71.7501 56.925 71.5876C56.5625 71.2001 56.1875 70.8126 55.8375 70.4251C55.75 70.5126 55.6625 70.6001 55.575 70.6876C55.7875 70.9126 56.0125 71.1251 56.2625 71.3001C56.35 71.3626 56.625 71.4876 56.675 71.5626C56.75 71.6876 56.675 71.8876 56.6375 72.0126C56.7625 72.0501 56.875 72.0751 57 72.1126C57.0125 72.0501 57.0125 71.9876 57.025 71.9376C57.05 71.7751 56.85 71.6001 56.7125 71.7501C56.7125 71.6126 56.675 71.4751 56.5875 71.3626C56.475 71.4251 56.375 71.4876 56.2625 71.5501C56.4 71.7376 56.5375 71.9251 56.675 72.1126C56.775 72.0376 56.875 71.9626 56.975 71.8876C56.8625 71.7626 56.775 71.6376 56.6875 71.5001C56.575 71.3376 56.2625 71.4376 56.35 71.6501C56.425 71.8126 56.45 71.8751 56.5625 72.0126C56.7125 72.2001 56.975 71.9376 56.825 71.7501C56.7875 71.6876 56.75 71.6251 56.7125 71.5501C56.6 71.6001 56.4875 71.6501 56.375 71.7001C56.4875 71.8626 56.6 72.0126 56.725 72.1626C56.8625 72.3251 57.15 72.1126 57.025 71.9376C56.8875 71.7501 56.75 71.5626 56.6125 71.3751C56.475 71.1751 56.1875 71.3501 56.2875 71.5626C56.4125 71.8126 56.6625 72.4001 57 72.0251C56.9 71.9626 56.7875 71.9001 56.6875 71.8376C56.675 71.9001 56.675 71.9626 56.6625 72.0126C56.625 72.2501 56.9625 72.3501 57.025 72.1126C57.1125 71.8126 57.325 71.6751 57.075 71.3751C56.9625 71.2376 56.775 71.1751 56.6375 71.0876C56.35 70.9001 56.1 70.6751 55.8625 70.4251C55.7 70.2501 55.4375 70.5126 55.6 70.6876C55.9625 71.0751 56.325 71.4626 56.6875 71.8501C56.7625 71.7501 56.8375 71.6501 56.9125 71.5501C55.875 70.9001 55.3 69.8251 54.75 68.7626C54.6125 68.5501 54.2875 68.7501 54.4 68.9626Z" fill="#161616"/>
<path d="M66.4374 62.95C66.1874 64.0625 65.6749 65.7125 64.4999 67.4125C62.4374 70.4 59.6374 71.6625 58.4374 72.125C57.7499 71.8625 56.8499 71.4001 55.9999 70.6125C53.6749 68.4501 53.4999 65.4875 53.4749 64.725C53.2249 64.6625 52.8624 64.525 52.5499 64.225C51.7499 63.45 51.5624 61.9125 52.2999 61.275C53.1374 60.55 54.7374 61.4375 54.9124 61.525C55.2999 61.7375 55.5749 62 55.7499 62.2C56.4374 60.125 58.0874 58.5625 60.0499 58.2375C62.7249 57.8 65.6499 59.75 66.4374 62.95Z" fill="white" stroke="#161616" stroke-miterlimit="10"/>
<path d="M63.4124 65.9375C62.9124 67.0625 62.1749 68.025 61.2249 68.8125C61.0374 68.9625 61.2999 69.225 61.4874 69.075C62.4749 68.275 63.2249 67.2875 63.7374 66.125C63.8374 65.9 63.5124 65.7125 63.4124 65.9375Z" fill="#161616"/>
<path d="M60.75 67.975C60.7 68.4 60.85 68.8125 61.1375 69.125C61.3 69.3 61.5625 69.0375 61.4 68.8625C61.175 68.6125 61.0875 68.3125 61.125 67.975C61.15 67.7375 60.775 67.7375 60.75 67.975Z" fill="#161616"/>
<path d="M59.9874 65.8376C60.3124 65.3876 60.6999 64.9876 61.1374 64.6251C61.0374 64.5626 60.9249 64.5001 60.8249 64.4376C60.6624 64.9376 60.3124 65.3376 59.8499 65.5876C59.9249 65.6876 59.9999 65.7876 60.0749 65.8876C60.3624 65.5376 60.6499 65.2001 60.9374 64.8501C61.0874 64.6626 60.8249 64.4001 60.6749 64.5876C60.3874 64.9376 60.0999 65.2751 59.8124 65.6251C59.6749 65.7876 59.8499 66.0251 60.0374 65.9251C60.5874 65.6251 60.9874 65.1376 61.1874 64.5501C61.2499 64.3501 61.0124 64.2626 60.8749 64.3626C60.4124 64.7376 60.0124 65.1626 59.6749 65.6501C59.5249 65.8501 59.8499 66.0376 59.9874 65.8376Z" fill="#161616"/>
<path d="M64.1375 66.9375C64.3 66.6625 64.5125 66.425 64.75 66.2125C64.65 66.15 64.5375 66.0875 64.4375 66.025C64.325 66.4 64.1 66.7375 63.775 66.975C63.8625 67.05 63.9625 67.1125 64.05 67.1875C64.125 66.9875 64.2375 66.8 64.375 66.6375C64.525 66.45 64.2625 66.1875 64.1125 66.375C63.9375 66.6 63.8 66.825 63.7 67.0875C63.6375 67.2375 63.85 67.4 63.975 67.3C64.375 67 64.6625 66.6125 64.8 66.1375C64.8625 65.95 64.625 65.8375 64.4875 65.95C64.225 66.175 64 66.45 63.8125 66.75C63.675 66.95 64 67.1375 64.1375 66.9375Z" fill="#161616"/>
<path d="M58.7 64.9125C58.8875 65.35 58.9875 65.8 58.9875 66.2625C58.9875 66.3875 59.175 66.3875 59.175 66.2625C59.175 65.7625 59.0625 65.275 58.8625 64.8125C58.8125 64.7 58.65 64.8 58.7 64.9125Z" fill="#161616"/>
<path d="M58.1749 64.5876C58.2999 64.7876 58.3874 64.9876 58.4624 65.2001C58.4999 65.3126 58.6749 65.2626 58.6374 65.1501C58.5624 64.9126 58.4624 64.7001 58.3374 64.4876C58.2749 64.3876 58.1124 64.4876 58.1749 64.5876Z" fill="#161616"/>
<path d="M61.0624 63.5625C61.5249 63.425 61.9624 63.7375 61.9749 64.225C61.9749 64.4 62.2624 64.4125 62.2624 64.225C62.2374 63.5625 61.6374 63.1125 60.9874 63.2875C60.8124 63.3375 60.8874 63.6125 61.0624 63.5625Z" fill="#161616"/>
<path d="M64.4124 65.4C64.6124 65.275 64.8499 65.2625 65.0624 65.3875C65.2124 65.4875 65.3624 65.2375 65.1999 65.15C64.9124 64.975 64.5499 64.975 64.2749 65.1625C64.1249 65.2625 64.2624 65.5 64.4124 65.4Z" fill="#161616"/>
<path d="M58.3124 68.6125C58.6124 69.15 59.1249 69.5375 59.7249 69.7C59.9624 69.7625 60.0624 69.4 59.8249 69.3375C59.3124 69.2 58.8999 68.8875 58.6374 68.425C58.5124 68.2125 58.1874 68.4 58.3124 68.6125Z" fill="#161616"/>
<path d="M55.7374 62.7C56.0124 62.225 56.6749 61.2125 57.9499 60.5125C58.8249 60.025 59.6499 59.8875 60.1499 59.8375C60.4249 60.2 60.8749 60.675 61.5374 60.975C63.0999 61.6875 64.3624 60.75 65.2874 61.375C65.7749 61.7 66.2624 62.4875 66.0749 64.6375C66.8999 65.4875 67.4499 65.5375 67.7499 65.475C68.9999 65.225 69.8999 62.4125 69.1124 60.3625C68.8749 59.75 68.5624 59.4 65.9124 57.2875C62.1749 54.3125 61.7124 54.1375 61.2249 54.025C58.6499 53.425 56.3749 54.725 55.9874 54.95C55.4874 55.2375 55.3749 55.375 52.5124 58.3875C50.2874 60.725 50.0749 60.9375 49.8749 61.5125C49.3499 62.9625 49.4499 65.0625 50.7874 66.6C52.0499 68.0375 53.7499 68.25 54.1874 68.3C53.9999 67.875 53.7999 67.275 53.6999 66.5375C53.5749 65.5875 53.6999 64.8 53.8124 64.2875C53.7249 64.225 53.2249 63.8125 53.1874 63.1125C53.1624 62.6 53.3999 61.95 53.9499 61.7375C54.5624 61.5 55.3999 61.8625 55.7374 62.7Z" fill="black"/>
<path d="M55.2 56.4125C54.6875 55.4 53.1874 55.25 52.9249 55.225C50.8374 55.0125 49.1624 56.875 48.1749 57.9625C46.4249 59.9 46.9249 60.475 45.2249 62.8125C42.9749 65.9125 41.2874 66.05 40.9374 68.1875C40.9124 68.35 40.6 70.5 42.025 71.8C43.25 72.925 45.225 72.9375 46.525 72.2625C48.2875 71.35 48.1374 69.5125 49.4124 66.425C51.9124 60.4 56.1875 58.3625 55.2 56.4125Z" fill="black"/>
<path opacity="0.12" d="M57.2124 60.9625C56.8124 61.9625 56.3374 63.55 56.3624 65.5375C56.3999 68.7125 57.6999 71.0375 58.3499 72.0375C57.6374 71.7375 56.4499 71.1 55.4124 69.85C54.9874 69.3375 53.9874 68.125 53.7249 66.2625C53.5999 65.425 53.6749 64.725 53.7499 64.25C53.6749 64.1875 53.1624 63.725 53.1874 63C53.1999 62.525 53.4499 61.8875 53.9874 61.7C54.5874 61.4875 55.4124 61.875 55.7374 62.7125C55.8624 62.4625 56.0374 62.15 56.2999 61.825C56.6249 61.4375 56.9499 61.1625 57.2124 60.9625Z" fill="#6D6C6C"/>
<path opacity="0.13" d="M55.0125 70.1125C54.9125 70.3375 54.8 70.5625 54.6625 70.7875C54.0375 71.8375 53.225 72.5375 52.5875 72.9625C52.3625 72.825 52.0625 72.6125 51.7625 72.2875C51.4375 71.9375 51.2375 71.5875 51.125 71.3375C51.6125 71.1875 52.825 70.725 53.65 69.5125C53.9375 69.075 54.1125 68.65 54.2125 68.3C54.475 68.9125 54.7375 69.5125 55.0125 70.1125Z" fill="#6D6C6C"/>
<path opacity="0.18" d="M53.9125 64.0376C53.975 64.9001 54.1375 66.0251 54.5625 67.2876C55.15 69.0001 56 70.2626 56.65 71.0626C56 70.5376 55.225 69.7501 54.6 68.6501C54.1875 67.9126 53.575 66.8501 53.65 65.4001C53.675 64.8376 53.8 64.3626 53.9125 64.0376Z" fill="#6D6C6C"/>
<path opacity="0.32" d="M55.8249 55.2626C55.2999 55.7751 52.0249 59.0751 52.4749 63.7626C52.6624 65.7626 53.4624 67.2751 54.0374 68.1626C53.6374 68.1376 52.8624 68.0501 52.0249 67.5626C51.1874 67.0751 50.7124 66.4376 50.4999 66.1126C50.3374 65.8501 50.1374 65.4251 50.0124 64.8876C50.0124 64.8876 49.7874 63.8376 50.1999 62.5376C50.6374 61.1126 52.6124 58.3376 55.8249 55.2626Z" fill="#32198E"/>
<path opacity="0.33" d="M49.0625 57.2876C49.35 57.4751 47.7625 60.8126 46.0125 63.7251C44.4375 66.3376 43.6625 67.0626 43.55 68.6626C43.4375 70.3251 44.1375 71.7501 44.7625 72.7126C44.45 72.7376 43.275 72.7751 42.25 71.9626C41.6875 71.5126 41.3875 70.9876 41.25 70.6626C40.95 69.7876 40.6875 68.5126 41.2125 67.3126C41.5625 66.5001 41.975 66.4376 43.2625 65.1376C44.4 63.9876 45.525 62.8501 46.35 61.1626C46.775 60.3001 46.925 59.6751 47.65 58.7001C48.125 58.0501 48.9 57.1751 49.0625 57.2876Z" fill="#32198E"/>
</svg>
