<svg width="200" height="159" viewBox="0 0 200 159" fill="none" xmlns="http://www.w3.org/2000/svg">
<path fill-rule="evenodd" clip-rule="evenodd" d="M107.306 0.1265C131.713 1.89199 146.533 25.5221 159.824 46.068C171.03 63.3882 177.68 82.8733 173.965 103.165C170.022 124.705 159.901 146.738 139.803 155.431C120.342 163.849 99.9137 152.143 80.5121 143.588C59.7726 134.443 35.212 127.526 27.8785 106.079C19.9003 82.7464 29.5186 57.4425 44.3095 37.7122C59.7406 17.1278 81.6468 -1.72957 107.306 0.1265Z" fill="#E8ECFB"/>
<path d="M28.5501 131.525C34.7001 131.8 40.8501 131.937 47.0001 131.925C47.2376 131.925 47.2376 131.55 47.0001 131.55C40.8501 131.562 34.7001 131.425 28.5501 131.15C28.3126 131.137 28.3126 131.512 28.5501 131.525Z" fill="#E8E8E8"/>
<path d="M47.375 122.225C48.3375 125.837 49.2375 129.475 50.0625 133.125C50.1125 133.362 50.475 133.262 50.425 133.025C49.5875 129.375 48.7 125.737 47.7375 122.125C47.675 121.9 47.3125 122 47.375 122.225Z" fill="#E8E8E8"/>
<path d="M64.125 122.5C63.775 125.938 63.425 129.388 63.0875 132.825C63.0625 133.063 63.4375 133.063 63.4625 132.825C63.8125 129.388 64.1625 125.938 64.5 122.5C64.5125 122.263 64.1375 122.263 64.125 122.5Z" fill="#E8E8E8"/>
<path d="M50.1625 133.462C52.35 133.85 54.5625 134.025 56.7875 133.962C58.9125 133.9 61.2375 133.737 63.2625 133.062C63.4875 132.987 63.3875 132.625 63.1625 132.7C61.15 133.362 58.8875 133.525 56.7875 133.587C54.6 133.65 52.4125 133.475 50.2625 133.1C50.025 133.05 49.925 133.412 50.1625 133.462Z" fill="#E8E8E8"/>
<path d="M47.5251 122.35C50.1126 123.075 52.9251 123.087 55.6001 123.1C58.4751 123.125 61.3501 122.962 64.2001 122.637C64.4376 122.612 64.4376 122.237 64.2001 122.262C61.4251 122.587 58.6376 122.737 55.8501 122.725C53.1376 122.712 50.2626 122.712 47.6251 121.987C47.3876 121.925 47.2876 122.287 47.5251 122.35Z" fill="#E8E8E8"/>
<path d="M46.45 121.062C46.475 121.3 46.5 121.55 46.525 121.787C46.5375 121.937 46.5375 122.125 46.6 122.262C46.75 122.587 47.25 122.475 47.5375 122.475C47.775 122.475 47.775 122.1 47.5375 122.1C47.4 122.1 47.2625 122.1 47.1125 122.1C46.925 122.1 46.925 122.062 46.9125 121.875C46.8875 121.6 46.8625 121.337 46.8375 121.062C46.8 120.825 46.425 120.812 46.45 121.062Z" fill="#E8E8E8"/>
<path d="M46.7001 121.262C49.8251 121.625 52.9626 121.8 56.1126 121.825C57.6626 121.837 59.2126 121.812 60.7751 121.762C61.5501 121.737 62.3251 121.7 63.1001 121.662C63.4626 121.65 63.9626 121.525 64.3251 121.6C64.7626 121.675 64.7376 122.05 64.7876 122.437C64.8251 122.362 64.8751 122.287 64.9126 122.212C64.7501 122.212 64.5876 122.212 64.4251 122.212C64.1876 122.162 64.0876 122.525 64.3251 122.575C64.5751 122.625 64.7626 122.625 65.0001 122.575C65.1126 122.55 65.1501 122.437 65.1251 122.35C65.0626 121.912 65.1126 121.362 64.5876 121.25C64.2751 121.175 63.8876 121.262 63.5626 121.275C63.1501 121.3 62.7501 121.312 62.3376 121.337C60.5876 121.412 58.8251 121.462 57.0626 121.462C53.5876 121.462 50.1251 121.3 46.6751 120.887C46.4626 120.862 46.4626 121.237 46.7001 121.262Z" fill="#E8E8E8"/>
<path d="M49.4126 130.35C50.4126 131.662 51.5876 132.8 52.9126 133.775C53.1126 133.912 53.3001 133.587 53.1001 133.45C51.8251 132.512 50.6876 131.412 49.7251 130.15C49.5876 129.962 49.2626 130.15 49.4126 130.35Z" fill="#E8E8E8"/>
<path d="M48.5751 126.538C50.5251 129.35 52.9251 131.813 55.7001 133.825C55.9001 133.963 56.0876 133.638 55.8876 133.5C53.1751 131.525 50.8126 129.1 48.9001 126.35C48.7626 126.15 48.4376 126.338 48.5751 126.538Z" fill="#E8E8E8"/>
<path d="M47.8126 123.187C51.1876 127.187 54.9376 130.925 59.4126 133.7C59.6126 133.825 59.8126 133.5 59.6001 133.375C55.1501 130.625 51.4251 126.912 48.0751 122.925C47.9251 122.737 47.6626 123.012 47.8126 123.187Z" fill="#E8E8E8"/>
<path d="M51.4 122.975C54.6125 126.712 58.175 130.262 62.15 133.187C62.35 133.325 62.5375 133 62.3375 132.862C58.3875 129.962 54.85 126.412 51.6625 122.712C51.5 122.525 51.2375 122.787 51.4 122.975Z" fill="#E8E8E8"/>
<path d="M55.5001 123.238C57.6751 125.9 60.1751 128.275 62.9501 130.313C63.1501 130.45 63.3376 130.125 63.1376 129.988C60.3876 127.975 57.9126 125.613 55.7626 122.975C55.6126 122.788 55.3501 123.05 55.5001 123.238Z" fill="#E8E8E8"/>
<path d="M58.8501 123.1C60.2501 124.675 61.8501 126.025 63.6251 127.162C63.8251 127.287 64.0126 126.962 63.8126 126.837C62.0626 125.725 60.4876 124.375 59.1126 122.837C58.9501 122.65 58.6876 122.912 58.8501 123.1Z" fill="#E8E8E8"/>
<path d="M41.55 102.5C42.3625 104.213 42.9125 106.013 43.225 107.888C43.2375 107.975 43.325 108.025 43.4 108.025C43.475 108.025 43.875 108.013 43.9 108.138C43.9125 108.188 43.6625 108.475 43.6375 108.538C43.5625 108.738 43.5625 108.975 43.6375 109.175C43.7375 109.413 43.925 109.575 44.15 109.663C44.225 109.7 44.3125 109.713 44.4 109.725C44.475 109.738 44.55 109.738 44.625 109.725C44.725 109.713 44.7125 109.725 44.6 109.775C44.475 109.963 44.3 109.988 44.25 110.263C44.2125 110.525 44.3375 110.775 44.4375 111C44.85 111.875 45.0875 112.8 45.425 113.713C46.5875 116.813 48.8125 119.375 51.325 121.488C51.5125 121.638 51.775 121.375 51.5875 121.225C49 119.05 46.7 116.388 45.6125 113.125C45.475 112.7 45.35 112.275 45.2 111.863C45.075 111.5 44.8375 111.125 44.725 110.763C44.6 110.563 44.6125 110.338 44.775 110.113C44.825 110.075 44.875 110.038 44.925 110C44.9625 109.938 45.0375 109.9 45.075 109.825C45.125 109.688 45.0875 109.563 44.9875 109.463C44.825 109.3 44.575 109.388 44.3625 109.325C43.55 109.088 44.2125 108.538 44.275 108.138C44.3625 107.613 43.7125 107.675 43.3625 107.65C43.425 107.7 43.4875 107.738 43.5375 107.788C43.225 105.888 42.65 104.05 41.825 102.313C41.775 102.088 41.45 102.275 41.55 102.5Z" fill="#E8E8E8"/>
<path d="M41.6875 102.412C45.75 103.5 49.3125 106.262 51.9 109.537C54.65 113.012 56.3625 117.187 57.2875 121.5C57.3375 121.737 57.7 121.637 57.65 121.4C56.7125 117.025 54.9625 112.8 52.175 109.275C49.55 105.962 45.925 103.162 41.8 102.062C41.55 101.987 41.45 102.35 41.6875 102.412Z" fill="#E8E8E8"/>
<path d="M43.1625 103.962C48.1375 108.8 51.975 114.737 54.3375 121.275C54.425 121.5 54.7875 121.4 54.7 121.175C52.3125 114.587 48.45 108.587 43.425 103.7C43.2625 103.525 42.9875 103.787 43.1625 103.962Z" fill="#E8E8E8"/>
<path d="M45.375 111.825C46.425 111.937 47.45 112.175 48.425 112.562C49.375 112.937 50.4125 113.412 51.0125 114.275C51.15 114.475 51.475 114.287 51.3375 114.087C50.7375 113.225 49.8 112.737 48.85 112.337C47.7375 111.862 46.575 111.575 45.3625 111.45C45.1375 111.425 45.1375 111.8 45.375 111.825Z" fill="#E8E8E8"/>
<path d="M47.2375 104.975C47.225 106.413 47.4625 107.825 47.925 109.188C48 109.413 48.3625 109.313 48.2875 109.088C47.8375 107.763 47.6125 106.388 47.6125 104.975C47.6125 104.737 47.2375 104.737 47.2375 104.975Z" fill="#E8E8E8"/>
<path d="M54.1 111.775C54.7125 109.487 56.7501 108.125 58.4876 106.725C60.3376 105.237 62.1251 103.65 63.8251 102C63.7251 101.937 63.6126 101.875 63.5126 101.812C62.9501 103.325 62.8376 104.912 62.8625 106.512C62.8875 108.112 63.25 109.95 62.7375 111.5C62.8 111.45 62.8625 111.412 62.9125 111.362C62.5125 111.387 62.1126 111.425 61.7126 111.45C61.5876 111.462 61.4626 111.612 61.5501 111.737C61.8376 112.125 62.175 112.25 62.1625 112.825C62.1625 113.225 62.0625 113.687 61.925 114.062C61.7875 114.45 61.4251 114.712 61.3001 115.075C61.2001 115.4 61.4501 115.675 61.4501 116C61.4626 116.537 61.0751 116.987 60.8001 117.412C60.5376 117.812 60.3001 118.225 60.0876 118.65C59.6626 119.487 59.3251 120.35 59.0751 121.25C59.0126 121.487 59.3751 121.587 59.4376 121.35C59.7501 120.237 60.2 119.162 60.7875 118.162C61.1875 117.487 61.9375 116.7 61.85 115.85C61.8125 115.512 61.6375 115.412 61.7875 115.025C61.8 115.012 62.025 114.712 62.0375 114.687C62.275 114.3 62.3876 113.862 62.4626 113.425C62.5126 113.1 62.6126 112.7 62.5626 112.375C62.4876 111.912 62.1376 111.875 61.8751 111.525C61.8251 111.625 61.7626 111.712 61.7126 111.812C62.1126 111.787 62.5125 111.75 62.9125 111.725C63 111.712 63.0626 111.675 63.0876 111.587C63.5626 110.137 63.275 108.45 63.225 106.95C63.175 105.237 63.2375 103.512 63.85 101.887C63.925 101.7 63.6625 101.587 63.5375 101.7C61.725 103.462 59.8251 105.15 57.8376 106.725C56.1376 108.075 54.3001 109.45 53.7126 111.65C53.6751 111.912 54.0375 112.012 54.1 111.775Z" fill="#E8E8E8"/>
<path d="M62.4376 103.625C61.2126 105.762 59.9626 107.875 58.7876 110.037C57.6876 112.037 56.7126 114.112 56.2501 116.35C56.2001 116.587 56.5626 116.687 56.6126 116.45C57.0876 114.162 58.1001 112.062 59.2251 110.025C60.3751 107.937 61.5876 105.887 62.7626 103.812C62.8751 103.612 62.5501 103.412 62.4376 103.625Z" fill="#E8E8E8"/>
<path d="M58.75 107.1C58.9125 107.812 58.9875 108.525 58.9625 109.25C58.95 109.487 59.325 109.487 59.3375 109.25C59.3625 108.487 59.2875 107.75 59.1125 107C59.05 106.762 58.7 106.862 58.75 107.1Z" fill="#E8E8E8"/>
<path d="M60.7875 104.712C60.925 105.25 60.95 105.775 60.8875 106.312C60.8625 106.55 61.2375 106.55 61.2625 106.312C61.3375 105.737 61.3 105.175 61.15 104.612C61.0875 104.387 60.725 104.487 60.7875 104.712Z" fill="#E8E8E8"/>
<path d="M60.875 107.2C61.6125 106.762 62.375 106.375 63.1625 106.05C63.3875 105.962 63.2875 105.6 63.0625 105.687C62.2375 106.025 61.45 106.425 60.675 106.875C60.475 107 60.6625 107.325 60.875 107.2Z" fill="#E8E8E8"/>
<path d="M57.65 113.475C58.125 113.075 58.6 112.687 59.0875 112.312C59.6 111.912 60.1625 111.375 60.7875 111.125C61.0125 111.037 60.9125 110.675 60.6875 110.762C60.125 110.975 59.6625 111.387 59.1875 111.762C58.575 112.237 57.975 112.712 57.3875 113.212C57.2 113.362 57.4625 113.625 57.65 113.475Z" fill="#E8E8E8"/>
<path d="M43.1751 106.462C44.0501 106.55 44.9251 106.637 45.8001 106.712C46.0376 106.737 46.0376 106.362 45.8001 106.337C44.9251 106.25 44.0501 106.162 43.1751 106.087C42.9376 106.062 42.9376 106.437 43.1751 106.462Z" fill="#E8E8E8"/>
<path d="M66.1125 131.4C81.775 131.4 97.425 131.4 113.088 131.4C117.5 131.4 121.913 131.4 126.325 131.4C126.563 131.4 126.563 131.025 126.325 131.025C110.663 131.025 95.0125 131.025 79.35 131.025C74.9375 131.025 70.525 131.025 66.1125 131.025C65.8625 131.025 65.8625 131.4 66.1125 131.4Z" fill="#E8E8E8"/>
<path d="M119.088 100.775C119.088 102.6 119.088 104.425 119.088 106.25C119.088 106.487 119.463 106.487 119.463 106.25C119.463 104.425 119.463 102.6 119.463 100.775C119.463 100.537 119.088 100.537 119.088 100.775Z" fill="#E8E8E8"/>
<path d="M110.463 107.087C116.525 107.087 122.587 107.087 128.65 107.087C128.887 107.087 128.887 106.712 128.65 106.712C122.587 106.712 116.525 106.712 110.463 106.712C110.225 106.712 110.213 107.087 110.463 107.087Z" fill="#E8E8E8"/>
<path d="M114.538 107.188C114.538 108.763 114.538 110.338 114.538 111.925C114.538 112.163 114.913 112.163 114.913 111.925C114.913 110.35 114.913 108.775 114.913 107.188C114.913 106.938 114.538 106.938 114.538 107.188Z" fill="#E8E8E8"/>
<path d="M123.913 107.087C123.913 108.475 123.913 109.875 123.913 111.262C123.913 111.5 124.288 111.5 124.288 111.262C124.288 109.875 124.288 108.475 124.288 107.087C124.288 106.85 123.913 106.85 123.913 107.087Z" fill="#E8E8E8"/>
<path d="M117.975 112.287C122.612 112.287 127.25 112.287 131.887 112.287C132.125 112.287 132.125 111.912 131.887 111.912C127.25 111.912 122.612 111.912 117.975 111.912C117.737 111.912 117.737 112.287 117.975 112.287Z" fill="#E8E8E8"/>
<path d="M107.488 135.025C117.725 135.025 127.963 135.025 138.2 135.025C138.438 135.025 138.438 134.65 138.2 134.65C127.963 134.65 117.725 134.65 107.488 134.65C107.25 134.65 107.25 135.025 107.488 135.025Z" fill="#E8E8E8"/>
<path d="M149.825 131.787C159.875 131.787 169.938 131.787 179.988 131.787C182.813 131.787 185.638 131.787 188.463 131.787C188.7 131.787 188.7 131.412 188.463 131.412C178.413 131.412 168.35 131.412 158.3 131.412C155.475 131.412 152.65 131.412 149.825 131.412C149.588 131.412 149.588 131.787 149.825 131.787Z" fill="#E8E8E8"/>
<path d="M25.2125 138.188C35.5125 138.188 45.8251 138.188 56.125 138.188C56.3625 138.188 56.3625 137.812 56.125 137.812C45.8251 137.812 35.5125 137.812 25.2125 137.812C24.975 137.812 24.975 138.188 25.2125 138.188Z" fill="#E8E8E8"/>
<path d="M45.9875 141.938C54.4 141.938 62.8125 141.938 71.225 141.938C71.4625 141.938 71.4625 141.562 71.225 141.562C62.8125 141.562 54.4 141.562 45.9875 141.562C45.7375 141.562 45.7375 141.938 45.9875 141.938Z" fill="#E8E8E8"/>
<path d="M173.875 35.0625C173.875 31.575 173.875 28.1 173.875 24.6125C173.875 24.375 173.5 24.375 173.5 24.6125C173.5 28.1 173.5 31.575 173.5 35.0625C173.5 35.3 173.875 35.3 173.875 35.0625Z" fill="#E8E8E8"/>
<path d="M173.813 24.5375C178.325 24.5375 182.838 24.5375 187.35 24.5375C187.588 24.5375 187.588 24.1625 187.35 24.1625C182.838 24.1625 178.325 24.1625 173.813 24.1625C173.575 24.1625 173.575 24.5375 173.813 24.5375Z" fill="#E8E8E8"/>
<path d="M187.163 24.375C187.138 27.9125 187.113 31.45 187.075 34.9875C187.075 35.225 187.45 35.225 187.45 34.9875C187.475 31.45 187.5 27.9125 187.538 24.375C187.538 24.1375 187.163 24.1375 187.163 24.375Z" fill="#E8E8E8"/>
<path d="M173.875 35.25C178.325 35.25 182.775 35.25 187.225 35.25C187.463 35.25 187.463 34.875 187.225 34.875C182.775 34.875 178.325 34.875 173.875 34.875C173.638 34.875 173.638 35.25 173.875 35.25Z" fill="#E8E8E8"/>
<path d="M174.238 25.3375C174.238 28.275 174.238 31.2 174.238 34.1375C174.238 34.375 174.613 34.375 174.613 34.1375C174.613 31.2 174.613 28.275 174.613 25.3375C174.613 25.1 174.238 25.1 174.238 25.3375Z" fill="#E8E8E8"/>
<path d="M174.513 25.525C178.463 25.525 182.4 25.525 186.35 25.525C186.588 25.525 186.588 25.15 186.35 25.15C182.4 25.15 178.463 25.15 174.513 25.15C174.263 25.15 174.263 25.525 174.513 25.525Z" fill="#E8E8E8"/>
<path d="M186.15 25.425C186.138 28.3 186.125 31.175 186.113 34.0625C186.113 34.3 186.488 34.3 186.488 34.0625C186.5 31.1875 186.513 28.3125 186.525 25.425C186.525 25.1875 186.15 25.1875 186.15 25.425Z" fill="#E8E8E8"/>
<path d="M174.588 34.375C178.475 34.375 182.363 34.375 186.25 34.375C186.488 34.375 186.488 34 186.25 34C182.363 34 178.475 34 174.588 34C174.35 34 174.35 34.375 174.588 34.375Z" fill="#E8E8E8"/>
<path d="M174.513 31.7875C175.95 31.2875 177.463 31.7375 178.863 32.15C180.288 32.5625 181.688 33.0625 183.05 33.6375C183.275 33.725 183.375 33.3625 183.15 33.275C181.638 32.6375 180.088 32.1 178.513 31.6625C177.175 31.3 175.763 30.95 174.413 31.425C174.188 31.5 174.288 31.8625 174.513 31.7875Z" fill="#E8E8E8"/>
<path d="M179.263 32.2125C181.625 32.075 183.838 31.125 186.175 30.8625C186.413 30.8375 186.413 30.4625 186.175 30.4875C183.838 30.75 181.625 31.6875 179.263 31.8375C179.013 31.8625 179.013 32.2375 179.263 32.2125Z" fill="#E8E8E8"/>
<path d="M183.737 27.6375C183.212 27.3375 183.687 26.35 184.25 26.5875C184.55 26.7125 184.612 27.075 184.45 27.3375C184.275 27.625 183.912 27.675 183.612 27.5875C183.375 27.525 183.275 27.8875 183.512 27.95C184.012 28.0875 184.575 27.9375 184.825 27.45C185.05 27.0125 184.875 26.4375 184.4 26.2375C183.425 25.825 182.625 27.45 183.55 27.9625C183.75 28.075 183.95 27.75 183.737 27.6375Z" fill="#E8E8E8"/>
<path d="M179.913 24.2875C179.925 24.075 179.938 23.8625 180 23.6625C180.05 23.5 180.175 23.1125 180.363 23.0375C180.7 22.9125 180.825 24.1 180.85 24.325C180.875 24.5625 181.25 24.5625 181.225 24.325C181.188 23.8875 181.088 22.5125 180.388 22.6125C180.088 22.65 179.875 22.9875 179.763 23.2375C179.613 23.5625 179.563 23.925 179.55 24.275C179.538 24.525 179.913 24.525 179.913 24.2875Z" fill="#E8E8E8"/>
<path d="M182.013 82.6C182.013 84.1 182.013 85.6125 182.013 87.1125C182.013 87.35 182.388 87.35 182.388 87.1125C182.388 85.6125 182.388 84.1 182.388 82.6C182.388 82.3625 182.013 82.3625 182.013 82.6Z" fill="#E8E8E8"/>
<path d="M177.475 87.6625C180.875 87.6625 184.287 87.6625 187.687 87.6625C187.925 87.6625 187.925 87.2875 187.687 87.2875C184.287 87.2875 180.875 87.2875 177.475 87.2875C177.237 87.2875 177.237 87.6625 177.475 87.6625Z" fill="#E8E8E8"/>
<path d="M178.913 87.775C178.913 88.4875 178.913 89.1875 178.913 89.9C178.913 90.1375 179.288 90.1375 179.288 89.9C179.288 89.1875 179.288 88.4875 179.288 87.775C179.288 87.5375 178.913 87.5375 178.913 87.775Z" fill="#E8E8E8"/>
<path d="M184.375 87.8875C184.375 88.725 184.375 89.575 184.375 90.4125C184.375 90.65 184.75 90.65 184.75 90.4125C184.75 89.575 184.75 88.725 184.75 87.8875C184.75 87.6375 184.375 87.6375 184.375 87.8875Z" fill="#E8E8E8"/>
<path d="M181.725 90.9C184.087 90.9 186.45 90.9 188.812 90.9C189.05 90.9 189.05 90.525 188.812 90.525C186.45 90.525 184.087 90.525 181.725 90.525C181.487 90.525 181.487 90.9 181.725 90.9Z" fill="#E8E8E8"/>
<path d="M95.2375 127.45C99.1749 124.788 101.15 123.45 101.662 123.288C102.912 122.888 106.962 121.6 110.5 123.763C113.037 125.313 115.375 128.675 114.4 130.925C113.7 132.525 111.562 133.025 109.625 133.488C106.762 134.163 104.312 133.788 102.937 133.463C102.4 133.988 101.537 134.688 100.325 135.15C98.3124 135.925 95.9874 135.788 95.8749 135.325C95.8249 135.088 96.3249 134.625 98.7499 133.675C98.4624 133.363 98.0374 132.988 97.4374 132.725C95.6624 131.913 93.8874 132.7 93.5499 132.863C95.2874 133.875 95.6624 134.4 95.5749 134.688C95.3499 135.413 91.8124 135.65 90.8624 133.988C90.7624 133.825 90.4874 133.263 90.7124 132.2C91.1624 130.25 92.7875 129.113 95.2375 127.45Z" fill="#161616"/>
<path d="M112.387 130.225C112.787 129.4 114.587 129.6 115.287 129.675C116.187 129.775 116.987 129.862 117.712 130.5C118.262 130.975 119.062 132.012 118.775 132.85C118.512 133.65 117.525 133.587 115.612 134.525C115.287 134.687 112.162 136.225 112.375 137.237C112.462 137.65 113.025 137.637 114.812 138.4C116.362 139.05 117.275 139.45 118.037 140.325C118.412 140.762 119.162 141.625 118.962 142.5C118.587 144.112 115.237 144.387 115.15 144.137C115.075 143.925 117.425 143.337 117.45 142.237C117.475 141.4 116.162 140.725 115.337 140.287C112.912 139.025 111.275 139.475 110.637 138.262C110.275 137.575 110.475 136.837 110.512 136.7C110.7 136.025 111.225 135.45 113.787 134.162C116.125 132.987 117.162 132.712 117.15 132.187C117.137 131.7 116.237 131.3 115.687 131.162C114.137 130.75 113 131.725 112.475 131.175C112.25 130.925 112.262 130.5 112.387 130.225Z" fill="#161616"/>
<path d="M91.0375 124.175C91.825 124.763 92.6125 125.35 93.4 125.938C94.525 125.825 95.6375 125.725 96.7625 125.613C97.4625 124.938 98.1625 124.25 98.8625 123.575C98.9125 124 99.0125 124.963 99.05 125.425C99.4875 129.588 99.525 129.95 99.2625 130.425C98.4 131.963 95.4875 132.588 93.8125 131.513C93 130.988 92.6875 130.2 92.1 128.688C91.3875 126.863 91.1375 125.263 91.0375 124.175Z" fill="#161616"/>
<path d="M94.2124 128.5C94.0249 128.888 93.6124 129.125 93.1874 129.05C93.0749 129.025 93.0249 129.213 93.1374 129.225C93.6499 129.313 94.1624 129.063 94.3749 128.588C94.4249 128.488 94.2749 128.388 94.2124 128.5Z" fill="white"/>
<path d="M95.9499 128.375C96.3624 128.775 96.9124 128.95 97.4749 128.863C97.5999 128.85 97.5374 128.663 97.4249 128.688C96.9249 128.763 96.4374 128.6 96.0749 128.25C95.9874 128.163 95.8624 128.288 95.9499 128.375Z" fill="white"/>
<path d="M95.2874 129.563C95.2499 129.563 95.2249 129.55 95.1874 129.55C95.1999 129.538 95.1999 129.513 95.2124 129.5C95.2374 129.525 95.2749 129.55 95.2999 129.575C95.2999 129.55 95.2874 129.537 95.2874 129.512C95.2499 129.4 95.0749 129.45 95.1124 129.563C95.1749 129.838 95.2749 130.263 94.9374 130.4C94.8249 130.45 94.8749 130.625 94.9874 130.575C95.4374 130.387 95.3874 129.9 95.2999 129.5C95.2374 129.513 95.1749 129.538 95.1249 129.55C95.1249 129.575 95.1374 129.588 95.1374 129.613C95.1499 129.65 95.1874 129.688 95.2249 129.688C95.5499 129.663 95.2874 129.213 95.1374 129.475C95.0749 129.563 95.2249 129.663 95.2874 129.563Z" fill="white"/>
<path d="M95.1625 129.65C95.225 129.863 95.2375 130.1 95.375 130.288C95.4875 130.438 95.6625 130.513 95.85 130.475C95.9625 130.45 95.9125 130.275 95.8 130.3C95.45 130.375 95.4 129.825 95.3375 129.6C95.3125 129.488 95.1375 129.538 95.1625 129.65Z" fill="white"/>
<path d="M94.5624 129.825C94.1999 129.662 93.8249 129.588 93.4249 129.613C93.2999 129.625 93.2999 129.813 93.4249 129.8C93.7874 129.775 94.1374 129.838 94.4624 129.988C94.5749 130.038 94.6749 129.875 94.5624 129.825Z" fill="white"/>
<path d="M94.2375 130.075C93.925 130.1 93.6499 130.225 93.4374 130.438C93.3499 130.525 93.4874 130.65 93.5749 130.575C93.7624 130.4 93.9874 130.288 94.2499 130.263C94.3499 130.25 94.35 130.063 94.2375 130.075Z" fill="white"/>
<path d="M96.025 129.738C96.3875 129.6 96.75 129.55 97.1375 129.588C97.2625 129.6 97.2625 129.413 97.1375 129.4C96.7375 129.363 96.35 129.425 95.975 129.562C95.8625 129.6 95.9 129.788 96.025 129.738Z" fill="white"/>
<path d="M96.2749 130.075C96.5499 130.038 96.8124 130.063 97.0749 130.163C97.1874 130.2 97.2374 130.025 97.1249 129.988C96.8499 129.888 96.5624 129.863 96.2749 129.9C96.1499 129.9 96.1499 130.1 96.2749 130.075Z" fill="white"/>
<path d="M93.3249 127.95C93.5124 127.838 93.7374 127.838 93.9249 127.95C94.0249 128.013 94.1249 127.85 94.0249 127.788C93.7749 127.65 93.4874 127.65 93.2374 127.788C93.1249 127.85 93.2249 128.013 93.3249 127.95Z" fill="white"/>
<path d="M95.9499 127.7C96.1374 127.6 96.3499 127.575 96.5749 127.6C96.6874 127.613 96.7499 127.438 96.6249 127.425C96.3624 127.388 96.0999 127.425 95.8624 127.55C95.7374 127.588 95.8374 127.75 95.9499 127.7Z" fill="white"/>
<path d="M92.9625 123.775C93.35 123.613 93.7375 123.45 94.1125 123.275C94.0375 123.225 93.975 123.175 93.9 123.113C93.75 123.588 93.525 124.013 93.225 124.413C93.15 124.513 93.275 124.663 93.3875 124.625C93.8125 124.463 94.2375 124.313 94.6625 124.15C94.825 124.088 94.7625 123.813 94.5875 123.875C94.1625 124.038 93.7375 124.188 93.3125 124.35C93.3625 124.425 93.4125 124.488 93.475 124.563C93.8 124.15 94.025 123.7 94.1875 123.2C94.225 123.075 94.0875 123 93.975 123.038C93.5875 123.2 93.2 123.363 92.825 123.538C92.65 123.613 92.8 123.85 92.9625 123.775Z" fill="#161616"/>
<path d="M93.5874 121.5C93.8499 121.35 94.1124 121.25 94.3999 121.188C94.3499 121.113 94.2999 121.05 94.2374 120.975C94.1249 121.225 93.9874 121.475 93.8249 121.7C93.7624 121.8 93.8499 121.9 93.9499 121.913C94.2874 121.938 94.5999 121.85 94.8624 121.65C94.9999 121.538 94.8624 121.3 94.7249 121.413C94.4999 121.588 94.2499 121.663 93.9624 121.638C93.9999 121.713 94.0374 121.775 94.0874 121.85C94.2499 121.613 94.3874 121.375 94.4999 121.125C94.5499 121.013 94.4624 120.888 94.3374 120.913C94.0249 120.975 93.7249 121.088 93.4499 121.25C93.2874 121.35 93.4249 121.588 93.5874 121.5Z" fill="#161616"/>
<path d="M95.6499 124.525C95.2374 124.113 95.9499 123.875 96.0249 123.513C96.0999 123.088 95.5999 122.688 96.1624 122.363C96.3249 122.275 96.1749 122.025 96.0249 122.125C95.8249 122.238 95.6624 122.413 95.6124 122.65C95.5374 123.05 95.8874 123.288 95.5874 123.65C95.4499 123.825 95.2874 123.875 95.2374 124.113C95.1874 124.35 95.2874 124.55 95.4499 124.725C95.5874 124.85 95.7874 124.65 95.6499 124.525Z" fill="#161616"/>
<path d="M130.163 88.8375C98.825 91.1 67.4875 93.35 36.1625 95.6125C35.3125 72.8875 34.4625 50.1625 33.625 27.4375C65.1 27.0125 96.575 26.5875 128.05 26.1625C128.75 47.05 129.45 67.9375 130.163 88.8375Z" fill="white" stroke="#161616" stroke-width="2" stroke-miterlimit="10"/>
<path d="M60.25 38.5C66.325 38.5 72.4125 38.5 78.4875 38.5C78.725 38.5 78.725 38.125 78.4875 38.125C72.4125 38.125 66.325 38.125 60.25 38.125C60.0125 38.125 60.0125 38.5 60.25 38.5Z" fill="#161616"/>
<path d="M67.075 40.0375C73.3375 40.0375 79.6 40.0375 85.8625 40.0375C86.1 40.0375 86.1 39.6625 85.8625 39.6625C79.6 39.6625 73.3375 39.6625 67.075 39.6625C66.825 39.6625 66.825 40.0375 67.075 40.0375Z" fill="#161616"/>
<path d="M37.425 76.7125C37.65 81.9375 37.875 87.175 38.1 92.4C38.1125 92.6375 38.4875 92.6375 38.475 92.4C38.25 87.175 38.025 81.9375 37.8 76.7125C37.7875 76.475 37.4125 76.475 37.425 76.7125Z" fill="#161616"/>
<path d="M64.9625 73.6625C65.5 73.6625 66.0375 73.6625 66.5875 73.6625C66.825 73.6625 66.825 73.2875 66.5875 73.2875C66.05 73.2875 65.5125 73.2875 64.9625 73.2875C64.725 73.2875 64.725 73.6625 64.9625 73.6625Z" fill="#161616"/>
<path d="M68 73.6625C69.3875 73.6625 70.7625 73.6625 72.15 73.6625C72.3875 73.6625 72.3875 73.2875 72.15 73.2875C70.7625 73.2875 69.3875 73.2875 68 73.2875C67.7625 73.2875 67.7625 73.6625 68 73.6625Z" fill="#161616"/>
<path d="M75.2875 73.4625C76.9375 73.4625 78.5875 73.4625 80.25 73.4625C80.4875 73.4625 80.4875 73.0875 80.25 73.0875C78.6 73.0875 76.95 73.0875 75.2875 73.0875C75.05 73.0875 75.05 73.4625 75.2875 73.4625Z" fill="#161616"/>
<path d="M67.2 76.2875C69.225 76.2875 71.25 76.2875 73.275 76.2875C73.5125 76.2875 73.5125 75.9125 73.275 75.9125C71.25 75.9125 69.225 75.9125 67.2 75.9125C66.95 75.9125 66.95 76.2875 67.2 76.2875Z" fill="#161616"/>
<path d="M70.125 74.875C72.4875 74.875 74.85 74.875 77.2125 74.875C77.45 74.875 77.45 74.5 77.2125 74.5C74.85 74.5 72.4875 74.5 70.125 74.5C69.8875 74.5 69.8875 74.875 70.125 74.875Z" fill="#161616"/>
<path d="M82.675 88.2375C86.65 88.2375 90.6375 88.2375 94.6125 88.2375C94.85 88.2375 94.85 87.8625 94.6125 87.8625C90.6375 87.8625 86.65 87.8625 82.675 87.8625C82.4375 87.8625 82.4375 88.2375 82.675 88.2375Z" fill="#161616"/>
<path d="M92.4875 89.25C94.575 89.25 96.6749 89.25 98.7624 89.25C98.9999 89.25 98.9999 88.875 98.7624 88.875C96.6749 88.875 94.575 88.875 92.4875 88.875C92.25 88.875 92.25 89.25 92.4875 89.25Z" fill="#161616"/>
<path d="M97.95 87.725C100.012 87.725 102.062 87.725 104.125 87.725C104.362 87.725 104.362 87.35 104.125 87.35C102.062 87.35 100.012 87.35 97.95 87.35C97.7125 87.35 97.7125 87.725 97.95 87.725Z" fill="#161616"/>
<path d="M108.475 53.8375C112.287 53.8375 116.1 53.8375 119.913 53.8375C120.15 53.8375 120.15 53.4625 119.913 53.4625C116.1 53.4625 112.287 53.4625 108.475 53.4625C108.237 53.4625 108.237 53.8375 108.475 53.8375Z" fill="#161616"/>
<path d="M104.938 54.4375C106.15 54.4375 107.362 54.4375 108.575 54.4375C108.812 54.4375 108.812 54.0625 108.575 54.0625C107.362 54.0625 106.15 54.0625 104.938 54.0625C104.688 54.0625 104.688 54.4375 104.938 54.4375Z" fill="#161616"/>
<path d="M105.637 55.45C109.712 55.45 113.8 55.45 117.875 55.45C118.112 55.45 118.112 55.075 117.875 55.075C113.8 55.075 109.712 55.075 105.637 55.075C105.4 55.075 105.4 55.45 105.637 55.45Z" fill="#161616"/>
<path d="M120.725 54.5375C121.5 54.5375 122.275 54.5375 123.05 54.5375C123.287 54.5375 123.287 54.1625 123.05 54.1625C122.275 54.1625 121.5 54.1625 120.725 54.1625C120.475 54.1625 120.475 54.5375 120.725 54.5375Z" fill="#161616"/>
<path d="M117.688 69.8125C118.837 69.8125 119.975 69.8125 121.125 69.8125C121.362 69.8125 121.362 69.4375 121.125 69.4375C119.975 69.4375 118.837 69.4375 117.688 69.4375C117.438 69.4375 117.438 69.8125 117.688 69.8125Z" fill="#161616"/>
<path d="M115.463 70.825C116.713 70.825 117.963 70.825 119.2 70.825C119.438 70.825 119.438 70.45 119.2 70.45C117.95 70.45 116.7 70.45 115.463 70.45C115.213 70.45 115.213 70.825 115.463 70.825Z" fill="#161616"/>
<path d="M117.275 71.8375C119.738 71.8375 122.2 71.8375 124.663 71.8375C124.9 71.8375 124.9 71.4625 124.663 71.4625C122.2 71.4625 119.738 71.4625 117.275 71.4625C117.038 71.4625 117.038 71.8375 117.275 71.8375Z" fill="#161616"/>
<path d="M121.938 70.625C122.675 70.625 123.425 70.625 124.162 70.625C124.4 70.625 124.4 70.25 124.162 70.25C123.425 70.25 122.675 70.25 121.938 70.25C121.688 70.25 121.688 70.625 121.938 70.625Z" fill="#161616"/>
<path d="M70.45 55.0375C72.2 55.0375 73.9375 55.0375 75.6875 55.0375C75.925 55.0375 75.925 54.6625 75.6875 54.6625C73.9375 54.6625 72.2 54.6625 70.45 54.6625C70.2125 54.6625 70.2125 55.0375 70.45 55.0375Z" fill="#161616"/>
<path d="M74.2624 56.1125C76.8374 56.1125 79.4249 56.1125 81.9999 56.1125C82.2374 56.1125 82.2374 55.7375 81.9999 55.7375C79.4249 55.7375 76.8374 55.7375 74.2624 55.7375C74.0249 55.7375 74.0124 56.1125 74.2624 56.1125Z" fill="#161616"/>
<path d="M81.05 54.675C82.5125 54.675 83.9874 54.675 85.4499 54.675C85.6874 54.675 85.6874 54.3 85.4499 54.3C83.9874 54.3 82.5125 54.3 81.05 54.3C80.8125 54.3 80.8125 54.675 81.05 54.675Z" fill="#161616"/>
<path d="M36.3125 34.725C36.5875 44.2125 36.8625 53.7125 37.1375 63.2C37.2125 65.9 37.2875 68.5875 37.375 71.2875C37.3875 71.525 37.7625 71.525 37.75 71.2875C37.475 61.8 37.2 52.3 36.925 42.8125C36.85 40.1125 36.775 37.425 36.6875 34.725C36.6875 34.4875 36.3125 34.4875 36.3125 34.725Z" fill="#161616"/>
<path d="M127.175 65.7375C127.363 72.0125 127.55 78.275 127.738 84.55C127.75 84.7875 128.125 84.7875 128.113 84.55C127.925 78.275 127.738 72.0125 127.55 65.7375C127.55 65.5 127.175 65.5 127.175 65.7375Z" fill="#161616"/>
<path d="M101.287 62.8625C101.362 63.625 101.437 64.4 101.5 65.1625C102.225 64.975 102.937 64.775 103.662 64.5875C103.562 63.825 103.475 63.05 103.375 62.2875C102.675 62.475 101.987 62.675 101.287 62.8625Z" fill="#EC615B"/>
<path d="M100.85 68.7C101.6 68.6 102.337 68.5125 103.087 68.4125C103.187 69.325 103.275 70.2375 103.375 71.15C102.7 71.175 102.025 71.2 101.362 71.225C101.187 70.375 101.025 69.5375 100.85 68.7Z" fill="#EC615B"/>
<path d="M103.587 74.2375C103.825 75.025 104.062 75.825 104.312 76.6125C104.987 76.3 105.662 75.9875 106.325 75.675C106.112 74.975 105.887 74.2875 105.675 73.5875C104.987 73.8125 104.287 74.025 103.587 74.2375Z" fill="#EC615B"/>
<path d="M54.1749 81.6875C54.3374 84.1125 54.4999 86.5375 54.6624 88.95C58.9124 88.675 63.1624 88.4125 67.4124 88.1375C67.4874 85.9625 67.5749 83.775 67.6499 81.6C63.1624 81.6375 58.6624 81.6625 54.1749 81.6875Z" fill="#F66F5D"/>
<path d="M107.012 32.35C107.503 32.35 107.9 32.0198 107.9 31.6125C107.9 31.2052 107.503 30.875 107.012 30.875C106.522 30.875 106.125 31.2052 106.125 31.6125C106.125 32.0198 106.522 32.35 107.012 32.35Z" fill="black"/>
<path d="M46.6999 37.875C47.1072 37.875 47.4374 37.6567 47.4374 37.3875C47.4374 37.1182 47.1072 36.9 46.6999 36.9C46.2926 36.9 45.9624 37.1182 45.9624 37.3875C45.9624 37.6567 46.2926 37.875 46.6999 37.875Z" fill="#EC615B"/>
<path d="M58.4374 52.0125C58.755 52.0125 59.0124 51.7103 59.0124 51.3375C59.0124 50.9647 58.755 50.6625 58.4374 50.6625C58.1199 50.6625 57.8624 50.9647 57.8624 51.3375C57.8624 51.7103 58.1199 52.0125 58.4374 52.0125Z" fill="#EC615B"/>
<path opacity="0.21" d="M53.1624 35.175C53.3874 35.1375 53.8249 37.225 54.8999 41.0125C56.3124 46 57.7124 50.025 58.7249 52.775C57.1874 53.725 53.7499 55.5375 49.0624 55.6C45.7499 55.6375 43.1374 54.7875 41.5874 54.1375C44.6249 54.475 47.0749 54.3875 48.7874 54.225C51.4999 53.975 51.0249 53.6875 53.0749 53.5875C53.9249 53.55 55.0374 53.55 56.1749 52.8625C56.5874 52.6125 56.8874 52.3375 57.0874 52.1375C56.2874 50.4875 55.2624 48.0625 54.4374 45.025C53.1249 40.0875 52.8374 35.2375 53.1624 35.175Z" fill="#6D6C6C"/>
<path opacity="0.25" d="M64.875 48.7375C65.075 50.325 65.4374 52.1 66.0374 54C67.7499 59.4 70.6375 63.25 72.8125 65.625C71.5125 66.5875 69.9 67.5875 67.9625 68.425C62.0875 70.9625 56.5999 70.5875 53.6624 70.1375C53.5499 69.475 53.4375 68.8125 53.325 68.15C54.575 68.1875 55.8999 68.1625 57.2874 68.0875C62.2374 67.775 66.4875 66.6625 69.875 65.425C68.8 63.6 68.025 62.025 67.4875 60.8375C66.1875 58 65.2249 55.8625 64.8874 52.975C64.6749 51.2125 64.7625 49.725 64.875 48.7375Z" fill="#6D6C6C"/>
<path opacity="0.14" d="M104.612 57.0125C104.737 59.8625 105.037 62.225 105.3 63.925C105.912 67.825 106.362 70.525 107.962 73.5625C108.962 75.45 110.087 76.8375 110.9 77.7375C109.487 78.95 107.587 80.325 105.15 81.425C99.0249 84.2125 93.2749 83.65 90.5874 83.2C90.4499 82.5875 90.3124 81.975 90.1749 81.35C90.5124 81.375 91.0374 81.4 91.6749 81.4125C93.7999 81.4625 98.2249 81.5375 103.3 79.8375C104.725 79.3625 106.725 78.5625 108.975 77.2375C108.087 76.05 107.212 74.6375 106.45 73C103.437 66.5375 104.037 60.2625 104.612 57.0125Z" fill="#6D6C6C"/>
<path opacity="0.18" d="M114.188 28.975C114.438 30.1375 114.8 31.9125 115.162 34.125C115.837 38.4 115.787 39.95 116.575 42.475C116.987 43.7875 117.725 45.65 119.113 47.775C117.95 48.725 116.5 49.7125 114.713 50.5375C108.863 53.25 103.263 52.4875 100.688 51.95C100.713 51.45 100.737 50.95 100.762 50.4625C101.087 50.55 101.575 50.6625 102.175 50.7625C102.963 50.8875 105.875 51.3125 111.35 49.9375C112.862 49.5625 114.9 48.9625 117.238 48C116.788 47.2 116.125 45.95 115.525 44.35C113.775 39.7125 113.788 35.6875 113.812 33.6125C113.825 32.475 113.9 30.8875 114.188 28.975Z" fill="#6D6C6C"/>
<path d="M39.4625 34.4625C38.225 41.0125 39.475 47.6375 40.725 54.0875C40.775 54.325 41.1375 54.225 41.0875 53.9875C39.85 47.6125 38.6125 41.05 39.825 34.5625C39.8625 34.3375 39.5 34.225 39.4625 34.4625Z" fill="#161616"/>
<path d="M39.8124 34.4125C41.5999 35.6125 43.7624 35.825 45.8749 35.675C48.2874 35.5 50.6749 34.9875 53.0624 34.5875C53.2999 34.55 53.1999 34.1875 52.9624 34.225C50.6749 34.6 48.3874 35.0875 46.0749 35.275C43.9624 35.45 41.7999 35.2875 39.9999 34.075C39.7999 33.95 39.6124 34.275 39.8124 34.4125Z" fill="#161616"/>
<path d="M52.8124 34.85C53.1624 40.825 54.0624 46.925 57.0874 52.175C57.2124 52.3875 57.5374 52.2 57.4124 51.9875C54.4249 46.7875 53.5374 40.75 53.1874 34.85C53.1749 34.6125 52.7999 34.6125 52.8124 34.85Z" fill="#161616"/>
<path d="M41.0374 54.1875C43.8749 55.0125 46.9249 54.5125 49.8124 54.275C52.3749 54.0625 55.1249 53.9625 57.3249 52.4625C57.5249 52.325 57.3374 52 57.1374 52.1375C54.9249 53.65 52.1499 53.7 49.5749 53.9125C46.7999 54.1375 43.8749 54.6 41.1374 53.8125C40.8999 53.7625 40.7999 54.125 41.0374 54.1875Z" fill="#161616"/>
<path d="M45.8375 37.4625C45.5875 37.35 45.8625 37.1125 46.0125 37.075C46.2 37.025 46.5625 37 46.65 37.2125C46.7125 37.375 46.6125 37.5875 46.4625 37.65C46.225 37.7625 45.9625 37.625 45.8 37.4625C45.625 37.2875 45.3625 37.55 45.5375 37.725C45.85 38.0375 46.3625 38.2 46.75 37.9125C47.0625 37.6875 47.175 37.1875 46.9125 36.8875C46.6125 36.55 45.975 36.5875 45.6375 36.8375C45.3375 37.0625 45.275 37.6 45.6625 37.775C45.875 37.8875 46.0625 37.5625 45.8375 37.4625Z" fill="#161616"/>
<path d="M50.85 54.2375C49.95 58.8 50.9125 63.4125 51.8875 67.8875C51.9375 68.125 52.3 68.025 52.25 67.7875C51.2875 63.3875 50.3375 58.8375 51.2125 54.3375C51.2625 54.1 50.9 54 50.85 54.2375Z" fill="#161616"/>
<path d="M56.0124 49.45C58.8999 48.9 61.8249 48.7 64.7499 48.8125C64.6874 48.75 64.6249 48.6875 64.5624 48.625C63.9749 54.65 66.5499 60.3875 69.6749 65.375C69.7999 65.575 70.1249 65.3875 69.9999 65.1875C66.9124 60.25 64.3499 54.5875 64.9374 48.625C64.9499 48.525 64.8374 48.4375 64.7499 48.4375C61.7874 48.325 58.8249 48.5375 55.9124 49.0875C55.6749 49.1375 55.7749 49.5 56.0124 49.45Z" fill="#161616"/>
<path d="M52.0874 68.15C58.1624 68.8625 64.3249 67.95 69.9499 65.55C70.1749 65.45 69.9749 65.1375 69.7624 65.225C64.2124 67.6 58.0874 68.475 52.0874 67.775C51.8499 67.75 51.8499 68.125 52.0874 68.15Z" fill="#161616"/>
<path d="M58.3624 50.9875C58.3624 50.975 58.3999 50.9125 58.3999 50.8875C58.4124 50.8375 58.4499 50.7875 58.4874 50.75C58.5624 50.6875 58.6499 50.6375 58.7499 50.625C58.9374 50.6 59.1124 50.7 59.1624 50.8875C59.1999 51.0375 59.1374 51.2375 58.9624 51.2625C58.7999 51.2875 58.6499 51.175 58.6249 51.0125C58.5874 50.775 58.2249 50.875 58.2624 51.1125C58.3249 51.55 58.8874 51.7625 59.2499 51.55C59.6499 51.3125 59.6249 50.7 59.2874 50.4125C58.9124 50.1 58.2874 50.2625 58.0749 50.6875C57.9749 50.9 57.9749 51.1875 58.2124 51.3125C58.3999 51.4125 58.6749 51.325 58.7249 51.0875C58.7624 50.85 58.3999 50.75 58.3624 50.9875Z" fill="#161616"/>
<path d="M40.7 41.2625C44.025 41.725 47.325 41.0375 50.5125 40.125C50.75 40.0625 50.65 39.7 50.4125 39.7625C47.2875 40.65 44.05 41.35 40.8 40.9C40.5625 40.8625 40.4625 41.225 40.7 41.2625Z" fill="#161616"/>
<path d="M41.325 43.7125C43.05 43.9 44.775 43.725 46.4375 43.2C46.6625 43.125 46.575 42.7625 46.3375 42.8375C44.7125 43.35 43.025 43.5125 41.325 43.3375C41.0875 43.3125 41.0875 43.6875 41.325 43.7125Z" fill="#161616"/>
<path d="M41.325 46.7375C44.625 47.125 47.95 46.8875 51.15 46.05C51.3875 45.9875 51.2875 45.625 51.05 45.6875C47.875 46.525 44.5875 46.75 41.325 46.3625C41.0875 46.325 41.0875 46.7 41.325 46.7375Z" fill="#161616"/>
<path d="M53.6749 65.925C56.9874 66.075 60.2999 65.675 63.4749 64.725C63.6999 64.6625 63.6124 64.3 63.3749 64.3625C60.2249 65.3 56.9624 65.7 53.6749 65.55C53.4249 65.5375 53.4249 65.9125 53.6749 65.925Z" fill="#161616"/>
<path d="M54.3124 63.0625C55.7874 63.0125 57.2624 62.9 58.7374 62.7375C58.9749 62.7125 58.9749 62.3375 58.7374 62.3625C57.2624 62.525 55.7999 62.6375 54.3124 62.6875C54.0749 62.7 54.0749 63.075 54.3124 63.0625Z" fill="#161616"/>
<path d="M55.5125 57.9125C56.4875 58.0375 57.5 57.7875 58.4625 57.65C59.525 57.4875 60.575 57.3375 61.6375 57.175C61.875 57.1375 61.775 56.775 61.5375 56.8125C60.5625 56.9625 59.575 57.1125 58.6 57.25C57.5875 57.4 56.5375 57.675 55.5125 57.5375C55.275 57.5 55.275 57.875 55.5125 57.9125Z" fill="#161616"/>
<path d="M99.6875 29.8875C98.325 36.575 98.1875 43.45 99.275 50.1875C99.3125 50.425 99.675 50.325 99.6375 50.0875C98.5625 43.425 98.7125 36.6 100.05 29.9875C100.1 29.75 99.7375 29.65 99.6875 29.8875Z" fill="#161616"/>
<path d="M100.112 29.975C104.65 28.9375 109.337 28.725 113.962 29.35C114.2 29.3875 114.3 29.025 114.062 28.9875C109.375 28.35 104.625 28.5625 100.012 29.6125C99.7874 29.675 99.8875 30.0375 100.112 29.975Z" fill="#161616"/>
<path d="M113.85 29.0125C113.712 35.45 113.8 42.25 117.062 48.0125C117.187 48.225 117.5 48.0375 117.387 47.825C114.162 42.125 114.087 35.3875 114.225 29.0125C114.237 28.775 113.862 28.775 113.85 29.0125Z" fill="#161616"/>
<path d="M99.5625 50.3875C100.962 50.8125 102.462 50.8375 103.912 50.85C105.475 50.8625 107.037 50.7625 108.6 50.55C111.587 50.15 114.5 49.3375 117.287 48.1625C117.512 48.075 117.312 47.75 117.1 47.8375C114.312 49.0125 111.375 49.8125 108.375 50.2C106.975 50.375 105.562 50.475 104.15 50.4625C102.662 50.4625 101.1 50.45 99.675 50.0125C99.425 49.9625 99.3375 50.325 99.5625 50.3875Z" fill="#161616"/>
<path d="M107.213 30.375C106.788 30.525 106.6 31.0125 106.75 31.425C106.925 31.8875 107.463 32 107.863 31.725C108.25 31.45 108.375 30.9 108 30.55C107.675 30.25 107.113 30.2375 106.813 30.5625C106.65 30.7375 106.913 31 107.075 30.825C107.45 30.425 108.188 30.9875 107.675 31.3875C107.475 31.5375 107.188 31.5375 107.1 31.275C107.038 31.075 107.1 30.8 107.313 30.725C107.538 30.65 107.438 30.2875 107.213 30.375Z" fill="#161616"/>
<path d="M99.875 35.7C103.287 35.7875 106.688 35.725 110.088 35.5C110.325 35.4875 110.325 35.1125 110.088 35.125C106.688 35.35 103.275 35.425 99.875 35.325C99.625 35.325 99.625 35.7 99.875 35.7Z" fill="#161616"/>
<path d="M100.212 37.6C101.487 37.65 102.762 37.7 104.025 37.75C104.262 37.7625 104.262 37.3875 104.025 37.375C102.75 37.325 101.475 37.275 100.212 37.225C99.9624 37.2125 99.9624 37.5875 100.212 37.6Z" fill="#161616"/>
<path d="M99.8625 40.25C103.075 40.425 106.325 40.575 109.487 39.875C109.725 39.825 109.625 39.4625 109.387 39.5125C106.25 40.2 103.037 40.05 99.8625 39.875C99.625 39.8625 99.625 40.2375 99.8625 40.25Z" fill="#161616"/>
<path d="M53.2625 80.8875C52.975 83.3875 52.875 85.9 52.9625 88.4125C52.975 88.65 53.35 88.65 53.3375 88.4125C53.25 85.9 53.35 83.3875 53.6375 80.8875C53.6625 80.65 53.2875 80.65 53.2625 80.8875Z" fill="#161616"/>
<path d="M53.3875 81.0375C57.8375 81.0375 62.3 80.975 66.75 80.8375C66.9875 80.825 66.9875 80.45 66.75 80.4625C62.3 80.6 57.8375 80.6625 53.3875 80.6625C53.15 80.6625 53.15 81.0375 53.3875 81.0375Z" fill="#161616"/>
<path d="M66.7125 80.6625C66.75 82.8375 66.7874 85 66.8249 87.175C66.8249 87.4125 67.1999 87.4125 67.1999 87.175C67.1624 85 67.125 82.8375 67.0875 80.6625C67.0875 80.425 66.7 80.425 66.7125 80.6625Z" fill="#161616"/>
<path d="M52.9249 88.1375C52.9499 88.95 54.3624 88.5875 54.8249 88.5625C56.1499 88.475 57.4749 88.3875 58.7874 88.2875C61.4749 88.1 64.1624 87.925 66.8499 87.7375C67.0874 87.725 67.0874 87.35 66.8499 87.3625C64.5624 87.5125 62.2874 87.675 59.9999 87.825C58.9124 87.9 57.8249 87.975 56.7374 88.05C56.4124 88.075 53.2999 88.375 53.2874 88.1375C53.2999 87.9 52.9249 87.9 52.9249 88.1375Z" fill="#161616"/>
<path d="M54.3999 82.725C57.3999 82.5875 60.3999 82.7 63.3749 83.075C63.6124 83.1 63.6124 82.725 63.3749 82.7C60.3999 82.325 57.3999 82.2125 54.3999 82.35C54.1499 82.3625 54.1499 82.7375 54.3999 82.725Z" fill="#161616"/>
<path d="M54.5125 84.625C56.1875 84.5 57.875 84.3625 59.55 84.2375C59.7875 84.225 59.7875 83.85 59.55 83.8625C57.875 83.9875 56.1875 84.125 54.5125 84.25C54.275 84.2625 54.275 84.6375 54.5125 84.625Z" fill="#161616"/>
<path d="M55.075 86.5375C57.4875 86.225 60.1125 85.5875 62.5375 86.025C62.775 86.0625 62.875 85.7125 62.6375 85.6625C60.1625 85.2125 57.5375 85.8375 55.075 86.1625C54.85 86.2 54.8375 86.575 55.075 86.5375Z" fill="#161616"/>
<path d="M87.5875 59.6125C85.6 66.6875 85.85 74.2625 88.2875 81.2C88.3625 81.425 88.725 81.325 88.65 81.1C86.2375 74.225 85.9875 66.725 87.95 59.7125C88.0125 59.475 87.65 59.375 87.5875 59.6125Z" fill="#161616"/>
<path d="M87.8374 59.7375C93.3999 59.7125 98.9374 58.9875 104.325 57.575C104.562 57.5125 104.462 57.15 104.225 57.2125C98.8749 58.6125 93.3749 59.3375 87.8374 59.3625C87.5874 59.3625 87.5874 59.7375 87.8374 59.7375Z" fill="#161616"/>
<path d="M104.225 57.35C104 60.825 104.15 64.325 104.775 67.7625C105.087 69.5 105.462 71.2375 106.15 72.8625C106.837 74.475 107.787 75.9375 108.9 77.275C109.05 77.4625 109.325 77.2 109.162 77.0125C108.025 75.65 107.062 74.1375 106.387 72.4875C105.75 70.9125 105.4 69.225 105.112 67.5625C104.512 64.2 104.375 60.7625 104.587 57.35C104.612 57.1125 104.237 57.1125 104.225 57.35Z" fill="#161616"/>
<path d="M88.3374 81.4C95.4124 81.9 102.8 81.1 109 77.45C109.212 77.325 109.025 77 108.812 77.125C102.65 80.75 95.3374 81.5125 88.3374 81.025C88.0999 81 88.0999 81.375 88.3374 81.4Z" fill="#161616"/>
<path d="M95.8625 60.8625C95.65 60.5 96.075 60.05 96.4375 60.3375C96.825 60.65 96.4125 61.15 96 60.9875C95.775 60.9 95.675 61.2625 95.9 61.35C96.2375 61.4875 96.65 61.3375 96.85 61.0375C97.075 60.7 96.975 60.275 96.6625 60.0375C95.9875 59.5 95.1375 60.3375 95.5375 61.05C95.6625 61.2625 95.9875 61.075 95.8625 60.8625Z" fill="#161616"/>
<path d="M87.9624 65.175C91.6999 65.1125 95.4374 64.85 99.1624 64.4C99.3999 64.375 99.3999 64 99.1624 64.025C95.4499 64.4875 91.7124 64.7375 87.9624 64.8C87.7249 64.8125 87.7249 65.1875 87.9624 65.175Z" fill="#161616"/>
<path d="M100.5 62.6625C100.612 63.2375 100.725 63.825 100.837 64.4C100.887 64.6375 101.25 64.5375 101.2 64.3C101.087 63.725 100.975 63.1375 100.862 62.5625C100.825 62.325 100.462 62.425 100.5 62.6625Z" fill="#161616"/>
<path d="M100.75 62.6125C101.437 62.5125 102.125 62.4125 102.825 62.3C103.062 62.2625 102.962 61.9 102.725 61.9375C102.037 62.0375 101.35 62.1375 100.65 62.25C100.412 62.2875 100.512 62.65 100.75 62.6125Z" fill="#161616"/>
<path d="M102.712 62.1875C102.812 62.725 102.9 63.2625 103 63.7875C103.037 64.025 103.4 63.925 103.362 63.6875C103.262 63.15 103.175 62.6125 103.075 62.0875C103.037 61.8625 102.675 61.9625 102.712 62.1875Z" fill="#161616"/>
<path d="M101.15 64.6875C101.887 64.5375 102.587 64.3375 103.287 64.0625C103.512 63.975 103.412 63.6125 103.187 63.7C102.487 63.9625 101.775 64.175 101.05 64.325C100.812 64.375 100.912 64.7375 101.15 64.6875Z" fill="#161616"/>
<path d="M101.212 63.0375C101.35 63.35 101.537 63.6 101.812 63.8125C101.912 63.8875 102.1 63.8875 102.125 63.725C102.225 63.05 102.462 62.45 102.862 61.8875C103 61.6875 102.675 61.5 102.537 61.7C102.125 62.275 101.862 62.925 101.762 63.625C101.862 63.6 101.975 63.575 102.075 63.5375C101.837 63.35 101.662 63.125 101.537 62.8375C101.437 62.625 101.112 62.8125 101.212 63.0375Z" fill="#161616"/>
<path d="M101.35 68.4C101.15 69.3 101.237 70.175 101.6 71.0125C101.7 71.2375 102.013 71.0375 101.925 70.825C101.6 70.0875 101.538 69.2875 101.713 68.5C101.763 68.2625 101.4 68.1625 101.35 68.4Z" fill="#161616"/>
<path d="M101.6 68.525C102.35 68.4 103.1 68.2875 103.85 68.1625C103.775 68.0875 103.7 68.0125 103.625 67.9375C103.5 68.7375 103.587 69.5 103.9 70.25C103.987 70.475 104.35 70.375 104.262 70.15C103.975 69.475 103.875 68.7625 103.987 68.0375C104.012 67.8875 103.912 67.7875 103.762 67.8125C103.012 67.925 102.262 68.05 101.512 68.175C101.262 68.2 101.362 68.5625 101.6 68.525Z" fill="#161616"/>
<path d="M101.762 71.025C102.587 71 103.375 70.8375 104.15 70.5625C104.375 70.475 104.275 70.1125 104.05 70.2C103.312 70.475 102.55 70.625 101.762 70.65C101.525 70.65 101.525 71.025 101.762 71.025Z" fill="#161616"/>
<path d="M101.875 69.2875C101.988 69.6125 102.175 69.8375 102.475 70.0125C102.613 70.0875 102.738 69.9875 102.763 69.85C102.838 69.1875 103.013 68.55 103.288 67.9375C103.388 67.725 103.063 67.525 102.963 67.75C102.663 68.425 102.475 69.125 102.388 69.85C102.488 69.8 102.575 69.7375 102.675 69.6875C102.463 69.5625 102.338 69.4125 102.25 69.175C102.163 68.9625 101.8 69.0625 101.875 69.2875Z" fill="#161616"/>
<path d="M102.125 74.2C102.212 75.0375 102.437 75.825 102.812 76.575C102.912 76.7875 103.237 76.6 103.137 76.3875C102.8 75.7 102.587 74.9625 102.512 74.2C102.475 73.9625 102.1 73.9625 102.125 74.2Z" fill="#161616"/>
<path d="M102.3 74.1625C103.262 74.25 104.162 74.075 105.025 73.65C104.937 73.6125 104.837 73.575 104.75 73.5375C104.912 74.3 105.25 74.9625 105.775 75.55C105.937 75.725 106.2 75.4625 106.037 75.2875C105.562 74.75 105.262 74.15 105.112 73.45C105.087 73.325 104.937 73.2875 104.837 73.3375C104.037 73.725 103.187 73.875 102.3 73.8C102.062 73.775 102.062 74.15 102.3 74.1625Z" fill="#161616"/>
<path d="M103.15 76.7125C104.125 76.35 105.087 75.9625 106.025 75.5375C106.25 75.4375 106.05 75.1125 105.837 75.2125C104.925 75.625 103.987 76 103.05 76.35C102.825 76.4375 102.925 76.8 103.15 76.7125Z" fill="#161616"/>
<path d="M102.95 74.825C103.25 75.0875 103.937 75.9875 104.287 75.325C104.45 75.025 104.412 74.6125 104.512 74.275C104.662 73.8 104.912 73.3625 105.237 72.9875C105.387 72.8 105.125 72.5375 104.975 72.725C104.625 73.1375 104.35 73.5875 104.187 74.1125C104.112 74.35 104.05 74.6 104.012 74.85C103.962 75.1625 103.875 75.0875 103.637 74.9375C103.487 74.8375 103.35 74.6875 103.212 74.5625C103.037 74.4 102.775 74.6625 102.95 74.825Z" fill="#161616"/>
<path d="M88.3 71.2875C91.8 71.25 95.2875 70.9625 98.7375 70.4125C98.975 70.375 98.8749 70.0125 98.6374 70.05C95.2124 70.5875 91.7625 70.875 88.3 70.9C88.0625 70.9125 88.0625 71.2875 88.3 71.2875Z" fill="#161616"/>
<path d="M87.8999 66.2125C90.1624 66.275 92.4124 66.2 94.6624 66.0125C94.8999 65.9875 94.8999 65.6125 94.6624 65.6375C92.4124 65.825 90.1499 65.8875 87.8999 65.8375C87.6624 65.825 87.6624 66.2 87.8999 66.2125Z" fill="#161616"/>
<path d="M88.4374 72.025C90.8124 72.1375 93.1874 72.05 95.5374 71.75C95.7749 71.725 95.7749 71.35 95.5374 71.375C93.1749 71.6625 90.7999 71.7625 88.4374 71.65C88.1999 71.6375 88.1999 72.0125 88.4374 72.025Z" fill="#161616"/>
<path d="M96.3374 71.575C97.0124 71.5875 97.6749 71.5 98.3249 71.2875C98.5499 71.2125 98.4499 70.85 98.2249 70.925C97.6124 71.125 96.9874 71.2125 96.3374 71.2C96.0999 71.2 96.0999 71.575 96.3374 71.575Z" fill="#161616"/>
<path d="M89.7124 76.725C92.5624 76.55 95.3999 76.2875 98.2249 75.9C98.4624 75.8625 98.4624 75.4875 98.2249 75.525C95.3999 75.9 92.5624 76.175 89.7124 76.35C89.4624 76.3625 89.4624 76.7375 89.7124 76.725Z" fill="#161616"/>
<path d="M90.0375 77.6C90.975 77.6 91.9125 77.6 92.85 77.6C93.0875 77.6 93.0875 77.225 92.85 77.225C91.9125 77.225 90.975 77.225 90.0375 77.225C89.8 77.225 89.8 77.6 90.0375 77.6Z" fill="#161616"/>
<path d="M90.8499 78.4375C92.3124 78.35 93.7749 78.2125 95.2374 78.0375C96.4124 77.8875 97.6749 77.825 98.6874 77.1375C98.8874 77 98.6999 76.675 98.4999 76.8125C97.4374 77.5375 96.0124 77.575 94.7749 77.7125C93.4749 77.8625 92.1624 77.975 90.8624 78.0625C90.6124 78.075 90.5999 78.45 90.8499 78.4375Z" fill="#161616"/>
<path d="M105.125 68.3375C107.4 68.225 109.662 67.925 111.9 67.45C111.825 67.4125 111.75 67.3625 111.675 67.325C112.725 70.45 114.275 73.3625 116.262 76C116.4 76.1875 116.737 76 116.587 75.8125C114.625 73.2125 113.087 70.325 112.037 67.2375C112 67.1375 111.912 67.0875 111.812 67.1125C109.612 67.5875 107.387 67.875 105.137 67.9875C104.875 67.975 104.875 68.35 105.125 68.3375Z" fill="#161616"/>
<path d="M105.512 78.8875C105.85 79.3625 106.125 79.8625 106.362 80.4C106.387 80.475 106.5 80.5125 106.575 80.4875C108.412 79.875 110.225 79.2 112 78.4375C112.9 78.05 113.787 77.65 114.675 77.225C115.1 77.025 115.525 76.8125 115.937 76.6C116.187 76.475 116.475 76.4 116.562 76.125C116.587 76.05 116.55 75.95 116.475 75.9125C116.362 75.85 116.3 75.85 116.187 75.9125C116.112 75.95 116.075 76.05 116.1 76.125C116.1 76.1375 116.112 76.15 116.112 76.1625C116.175 76.4 116.537 76.3 116.475 76.0625C116.475 76.05 116.462 76.0375 116.462 76.025C116.437 76.1 116.4 76.1625 116.375 76.2375C116.35 76.2375 116.312 76.2375 116.287 76.2375C116.262 76.1625 116.225 76.1 116.2 76.025C116.125 76.25 115.337 76.4875 115.125 76.6C114.775 76.775 114.425 76.9375 114.062 77.1125C113.225 77.5125 112.375 77.8875 111.512 78.25C109.862 78.95 108.175 79.575 106.475 80.1375C106.55 80.1625 106.612 80.2 106.687 80.225C106.462 79.6875 106.175 79.1875 105.837 78.7125C105.7 78.5 105.375 78.6875 105.512 78.8875Z" fill="#161616"/>
<path d="M107.687 69.3125C107.662 69.15 107.962 69 108.075 69.1125C108.225 69.2625 107.975 69.5375 107.8 69.475C107.575 69.3875 107.475 69.75 107.7 69.8375C108.237 70.0375 108.762 69.2625 108.35 68.85C108.162 68.6625 107.875 68.675 107.65 68.7875C107.412 68.9125 107.287 69.15 107.337 69.4125C107.362 69.65 107.725 69.5375 107.687 69.3125Z" fill="#161616"/>
<path d="M52.3 59.3125C53.6875 59.3375 55.0875 59.275 56.4625 59.0875C57.9 58.8875 59.325 58.475 60.7875 58.5375C61.025 58.55 61.025 58.175 60.7875 58.1625C59.45 58.1125 58.15 58.45 56.8375 58.65C55.3375 58.8875 53.8125 58.975 52.2875 58.9375C52.0625 58.9375 52.0625 59.3125 52.3 59.3125Z" fill="#161616"/>
<path d="M52.4999 55.175C54.6249 55.3375 56.7499 55.15 58.8124 54.6125C59.0499 54.55 58.9499 54.1875 58.7124 54.25C56.6749 54.775 54.5999 54.9625 52.4999 54.8C52.2624 54.7875 52.2624 55.1625 52.4999 55.175Z" fill="#161616"/>
<path d="M100.6 44.65C100.387 46.025 100.212 47.5125 101.075 48.7125C101.212 48.9125 101.538 48.725 101.4 48.525C100.6 47.4125 100.775 46.025 100.963 44.75C101 44.5125 100.637 44.4125 100.6 44.65Z" fill="#161616"/>
<path d="M100.712 44.6375C103.687 44.75 106.662 44.4625 109.562 43.775C109.487 43.7375 109.412 43.6875 109.337 43.65C109.6 44.9375 110.1 46.1375 110.8 47.2375C110.925 47.4375 111.25 47.25 111.125 47.05C110.437 45.975 109.962 44.8 109.7 43.55C109.675 43.45 109.562 43.4 109.475 43.425C106.612 44.1 103.675 44.3875 100.725 44.275C100.475 44.25 100.475 44.625 100.712 44.6375Z" fill="#161616"/>
<path d="M101.387 48.7C104.612 48.6 107.8 48.125 110.9 47.275C111.137 47.2125 111.037 46.85 110.8 46.9125C107.725 47.7625 104.575 48.2375 101.387 48.325C101.137 48.3375 101.137 48.7125 101.387 48.7Z" fill="#161616"/>
<path d="M145.462 136.012C145.462 137.425 145.462 138.825 145.462 140.238C135.462 144.2 133.425 145.613 133.575 146.125C133.613 146.25 133.875 146.625 139.125 146.012C144.325 145.4 148.537 144.513 151.462 143.788C150.95 140.9 150.425 138.013 149.913 135.125C148.425 135.425 146.937 135.725 145.462 136.012Z" fill="#161616"/>
<path d="M149.95 76.225C149.662 76.7625 149.562 77.2 149.537 77.3C147.75 84.9 145.412 89.3875 143.887 98.2C140.975 115.175 143.487 134.463 143.725 136.275C144.525 136.625 146.062 137.15 148.025 137.075C149.75 137 151.087 136.488 151.85 136.125C151.562 130.588 151.85 123.75 153.762 116.213C156.1 106.975 159.062 103.913 161.725 93.1125C163.7 85.1125 165.987 75.8 162.037 73.0375C159.012 70.8875 151.925 72.4625 149.95 76.225Z" fill="#EC615B"/>
<path opacity="0.2" d="M156.863 80.2125C154.863 89.3375 153 99.0625 151.425 109.35C149.938 119.025 148.825 128.288 148 137.088C149.263 136.825 150.512 136.563 151.775 136.3C151.612 132.413 151.788 129.1 152.038 126.563C152.338 123.413 153.1 116.075 156.163 108.75C156.563 107.813 157.075 106.675 157.913 104.538C159.325 101 160.35 97.975 160.812 96.55C162.988 89.75 164.075 81.8625 164.413 79.2625C161.888 79.5625 159.375 79.8875 156.863 80.2125Z" fill="#6D6C6C"/>
<path opacity="0.19" d="M160.987 96.1C156.087 102.488 153.8 108.275 152.65 112.163C151.6 115.7 151.137 118.825 150.537 122.875C149.687 128.625 149.362 133.475 149.225 136.925C150.05 136.725 150.862 136.513 151.687 136.313C151.55 131.475 151.887 127.338 152.3 124.113C152.8 120.288 153.375 115.85 155.375 110.513C156.1 108.575 156.45 108.025 158.1 103.838C159.375 100.563 160.35 97.875 160.987 96.1Z" fill="#6D6C6C"/>
<path d="M172.462 134.575C173.162 136.312 173.875 138.05 174.575 139.8C168.7 143.537 165.925 145.712 166.237 146.35C166.625 147.137 171.7 145.575 181.462 141.687C180.425 138.312 179.387 134.95 178.35 131.575C176.387 132.575 174.425 133.575 172.462 134.575Z" fill="#161616"/>
<path d="M167.637 76.375C170.7 79.175 170.6 83.1 170.987 89.6C170.987 89.6 171.937 105.588 175.125 118.438C175.925 121.65 177.375 126.638 180.062 132.613C179.612 133.188 178.387 134.588 176.237 135.325C174.037 136.075 172.162 135.675 171.462 135.488C167.637 128.963 164.925 123.4 163.175 119.55C155.062 101.775 154.412 92.4125 154.412 87.525C154.412 82.5 154.5 76.475 158.237 74.4625C161.05 72.95 165.175 74.125 167.637 76.375Z" fill="#EC615B"/>
<path opacity="0.15" d="M158.962 78.2875C160.35 83.625 161.85 89.05 163.45 94.55C167.625 108.825 172.162 122.312 176.925 134.962C177.387 134.725 177.95 134.4 178.525 133.962C179.112 133.512 179.575 133.062 179.925 132.662C179.275 131.15 178.375 128.962 177.425 126.275C175.987 122.162 173.65 114.6 172.437 104.525C171.275 94.85 170.687 90.0125 170.737 86.9625C170.775 84.45 171 79.3375 167.75 76.5875C167.075 76.025 166.412 75.6875 165.95 75.4875C163.612 76.425 161.287 77.3625 158.962 78.2875Z" fill="#6D6C6C"/>
<path opacity="0.22" d="M170.888 90.2125C170.313 96.025 170.125 103.813 171.525 112.813C172.938 121.863 175.5 129.25 177.813 134.625C178.525 134.038 179.238 133.45 179.95 132.85C179.1 130.838 177.988 128.038 176.875 124.613C174.738 118.025 173.813 112.888 173.013 108.275C172.2 103.55 171.35 97.4375 170.888 90.2125Z" fill="#6D6C6C"/>
<path d="M112.363 30.7125C111.863 30.9625 111.175 31.4 110.638 32.15C110.35 32.5375 110 33.05 109.95 33.775C109.938 34.0625 109.9 34.6875 110.3 35.1C110.413 35.225 110.713 35.4625 112.188 35.4125C113.5 35.3625 114.163 35.3375 114.5 34.9875C115.15 34.3125 114.913 33.0375 114.5 32.275C113.85 31.0625 112.575 30.7625 112.363 30.7125Z" fill="white" stroke="#161616" stroke-miterlimit="10"/>
<path d="M119.913 33.85C121.675 35.8625 124.5 37.0625 129.688 39.2C136.225 41.9 139.5 43.25 143.375 43.725C147.563 44.2375 149.8 43.7 150.575 45.0625C151.588 46.825 149.213 50.125 146.763 52.8875C144.938 52.4875 143.05 51.9875 141.1 51.3375C130.413 47.8 122.688 41.575 117.613 36.4C116.975 36.5375 115.888 36.675 114.65 36.3C113.588 35.9875 112.088 35.1875 112.175 34.55C112.288 33.775 115 33.6375 115.163 33.625C114.338 33.2875 113.15 32.7125 111.863 31.775C111.488 31.5 109.338 29.9125 109.6 29.4125C109.825 28.975 111.775 29.575 113.613 30.1375C115.288 30.65 116.45 31.0125 117.725 31.8875C118.95 32.7125 119.663 33.5625 119.913 33.85Z" fill="white" stroke="#161616" stroke-miterlimit="10"/>
<path d="M111.263 30.85C111.563 31.1875 111.625 31.6375 111.888 31.9875C112.113 32.3 112.438 32.525 112.775 32.7125C113.788 33.275 114.863 33.7375 115.9 34.25C116.075 34.3375 116.3 34.1 116.125 33.95C115.588 33.4875 115.013 33.075 114.413 32.7C114.213 32.575 114.013 32.9 114.225 33.025C114.8 33.3875 115.35 33.775 115.863 34.2125C115.938 34.1125 116.013 34.0125 116.088 33.9125C115.1 33.4375 114.113 32.975 113.138 32.4625C112.675 32.225 112.263 31.95 112.025 31.475C111.863 31.15 111.775 30.8375 111.525 30.5625C111.363 30.4125 111.1 30.675 111.263 30.85Z" fill="white"/>
<path d="M112.238 32.1625C112.813 32.4125 113.363 32.7375 113.863 33.125C114.05 33.275 114.313 33.0125 114.125 32.8625C113.6 32.45 113.038 32.1125 112.425 31.8375C112.2 31.7375 112.013 32.0625 112.238 32.1625Z" fill="white"/>
<path d="M110.762 30.625C111.237 31.3875 111.862 32.0125 112.6 32.5125C112.8 32.65 112.987 32.325 112.787 32.1875C112.1 31.725 111.525 31.1375 111.087 30.425C110.962 30.2375 110.637 30.425 110.762 30.625Z" fill="white"/>
<path d="M111.325 31.65C111.575 31.9875 111.85 32.3 112.162 32.575C112.387 32.775 113.375 33.4875 112.862 33.85C112.762 33.9125 112.862 34.075 112.962 34.0125C113.312 33.775 113.175 33.35 112.962 33.0625C112.8 32.85 112.575 32.6875 112.362 32.5C112.037 32.2125 111.75 31.9 111.487 31.5625C111.412 31.45 111.25 31.55 111.325 31.65Z" fill="#161616"/>
<path d="M111.063 32.95C111.438 33.4625 112.15 34.1875 112.85 33.975C112.963 33.9375 112.913 33.7625 112.8 33.8C112.2 33.9875 111.538 33.3 111.225 32.8625C111.15 32.7625 110.988 32.85 111.063 32.95Z" fill="#161616"/>
<path d="M110.512 33.825C110.925 34.3875 111.525 34.7125 112.225 34.75C112.35 34.7625 112.35 34.575 112.225 34.5625C111.6 34.525 111.05 34.225 110.675 33.725C110.6 33.625 110.437 33.725 110.512 33.825Z" fill="#161616"/>
<path d="M110.112 34.95C110.7 35.5625 111.675 35.575 112.262 34.95C112.35 34.8625 112.212 34.725 112.125 34.8125C111.612 35.3625 110.762 35.35 110.25 34.8125C110.162 34.725 110.025 34.8625 110.112 34.95Z" fill="#161616"/>
<path d="M110.238 30.6C111.625 31.5125 112.625 33.05 114.363 33.35C114.475 33.375 114.538 33.1875 114.413 33.175C112.7 32.8875 111.7 31.35 110.338 30.45C110.225 30.3625 110.138 30.525 110.238 30.6Z" fill="#161616"/>
<path opacity="0.2" d="M110.088 34.6875C109.638 34.075 110.013 32.7625 111.1 31.525C112.325 32.2375 113.538 32.9625 114.763 33.675C114.538 33.675 112.563 33.7 112.425 34.3125C112.4 34.4125 112.425 34.5625 112.613 34.775C113.238 35.075 114.288 35.475 115.638 35.5125C116.338 35.525 116.95 35.4375 117.425 35.325C119.975 37.9 124.463 41.7875 131.063 44.6125C136.863 47.0875 142.063 47.8 145.5 48C145.388 49.475 145.275 50.9375 145.163 52.4125C139.5 50.9125 131.825 48.0625 124.2 42.3375C121.6 40.3875 119.375 38.375 117.475 36.4375C115.725 36.725 114.638 36.425 113.95 36.075C113.363 35.775 112.988 35.4 112.213 35.3375C111.7 35.3 111.263 35.425 110.7 35.15C110.638 35.125 110.275 34.9375 110.088 34.6875Z" fill="#6D6C6C"/>
<path opacity="0.14" d="M126.188 43.5125C127.938 44.45 129.962 45.4 132.275 46.2125C137.312 48 141.875 48.5625 145.363 48.6875C145.313 49.9625 145.275 51.25 145.225 52.525C141.6 51.675 137.05 50.1875 132.225 47.4875C129.913 46.2 127.913 44.8375 126.188 43.5125Z" fill="#6D6C6C"/>
<path d="M145.95 47.075C145.237 48.6875 145.2 50.025 145.137 52.425C145.087 54.2375 145.212 56.1875 146.187 61.3125C147.375 67.5125 147.937 68.5125 148.125 71.8C148.275 74.375 148.075 76.4875 147.887 77.8875C149.462 78.75 152.1 79.925 155.55 80.1875C161.65 80.65 166.162 77.9625 167.712 76.9375C167.9 73.0125 168.087 69.075 168.287 65.15C167.6 61.8 166.787 59.175 166.2 57.45C164.35 52.0125 162.625 49.4375 163.725 46.7125C164.337 45.2 165.55 44.275 166.387 43.7625C165.8 43.3125 159.637 38.75 152.912 41.1125C152.212 41.35 147.787 42.9125 145.95 47.075Z" fill="white" stroke="#161616" stroke-miterlimit="10"/>
<path opacity="0.19" d="M152.887 41.1C154.762 44.1 155.812 46.75 156.412 48.6C156.412 48.6 159.35 57.525 157.2 69.5C156.737 72.05 155.912 75.675 154.287 79.825C154.912 79.9625 155.662 80.075 156.512 80.1125C156.512 80.1125 157.825 80.175 159.3 79.9875C161.1 79.75 164.187 78.7875 167.825 76.9375C167.887 72.75 167.95 68.575 168.012 64.3875C167.087 60.85 166.15 58.0125 165.45 56.025C163.762 51.2875 162.575 49.0625 163.55 46.7125C164.187 45.175 165.487 44.225 166.5 43.675C165.175 42.8 162.725 41.4375 159.375 40.9125C156.612 40.4875 154.337 40.7875 152.887 41.1Z" fill="#6D6C6C"/>
<path opacity="0.11" d="M154.6 40.8125C156.612 43.2875 158.962 46.9 160.412 51.6625C164.525 65.2625 157.762 77.1875 156.2 79.8C157.512 79.7875 159.05 79.675 160.725 79.35C163.712 78.775 166.1 77.75 167.812 76.8375C167.875 72.9375 167.937 69.0375 168 65.15C166.937 61.5375 165.937 58.1125 164.575 53.4625C163.65 50.275 162.925 47.6625 164.287 45.575C164.95 44.5625 165.875 44 166.575 43.675C162.587 42.7125 158.587 41.7625 154.6 40.8125Z" fill="#6D6C6C"/>
<path d="M153.675 66.35C153.638 63.675 153.613 61.0125 153.575 58.3375C159.988 58.0125 166.4 57.6875 172.825 57.3625C173.05 59.8375 173.275 62.3125 173.513 64.7875C166.9 65.3125 160.288 65.825 153.675 66.35Z" fill="white" stroke="#161616" stroke-miterlimit="10"/>
<path d="M151.725 65.475C151.725 64.5 151.725 63.525 151.725 62.55C159.963 61.9375 168.2 61.3125 176.438 60.7C176.5 61.9 176.563 63.1125 176.638 64.3125C168.338 64.6875 160.025 65.0875 151.725 65.475Z" fill="white" stroke="#161616" stroke-miterlimit="10"/>
<path d="M152.413 61.075C152.513 62.5125 152.613 63.9375 152.7 65.375C160.325 64.7625 167.938 64.1375 175.563 63.525C175.625 62.225 175.688 60.925 175.763 59.6125C167.975 60.1 160.188 60.5875 152.413 61.075Z" fill="white" stroke="#161616" stroke-miterlimit="10"/>
<path d="M150.55 64.3C150.775 70 151 75.7 151.238 81.4C159.738 80.45 168.238 79.5125 176.738 78.5625C177 72.9625 177.263 67.3625 177.525 61.7625C168.525 62.6125 159.538 63.45 150.55 64.3Z" fill="white" stroke="#161616" stroke-miterlimit="10"/>
<path d="M152 66.525C155.863 66.0125 159.725 65.65 163.613 65.425C163.788 65.4125 163.788 65.1375 163.613 65.1375C159.725 65.3625 155.85 65.725 152 66.2375C151.825 66.2625 151.825 66.55 152 66.525Z" fill="#161616"/>
<path d="M156.313 67.2875C159.275 66.9125 162.238 66.525 165.213 66.15C165.388 66.125 165.388 65.85 165.213 65.8625C162.25 66.2375 159.288 66.625 156.313 67C156.138 67.0375 156.138 67.3125 156.313 67.2875Z" fill="#161616"/>
<path d="M170.55 75.2875C170.5 76.075 170.5 76.875 170.575 77.6625C170.587 77.8375 170.875 77.8375 170.862 77.6625C170.787 76.875 170.775 76.075 170.837 75.2875C170.85 75.1125 170.562 75.1125 170.55 75.2875Z" fill="#161616"/>
<path d="M170.675 75.3125C172.225 75.35 173.762 75.2625 175.3 75.0625C175.25 75.0125 175.2 74.9625 175.162 74.925C175.137 75.65 175.162 76.3625 175.212 77.075C175.225 77.25 175.512 77.25 175.5 77.075C175.437 76.3625 175.425 75.6375 175.45 74.925C175.45 74.85 175.387 74.775 175.312 74.7875C173.775 74.9875 172.237 75.0625 170.687 75.0375C170.487 75.025 170.487 75.3 170.675 75.3125Z" fill="#161616"/>
<path d="M170.787 77.8875C172.325 77.9125 173.837 77.75 175.337 77.4125C175.512 77.375 175.437 77.1 175.262 77.1375C173.787 77.4625 172.3 77.625 170.787 77.6C170.612 77.6 170.612 77.875 170.787 77.8875Z" fill="#161616"/>
<path d="M171.375 76.1875C172.325 76.25 173.263 76.2 174.213 76.05C174.388 76.025 174.313 75.75 174.138 75.775C173.225 75.925 172.3 75.9625 171.375 75.9C171.2 75.8875 171.2 76.175 171.375 76.1875Z" fill="#161616"/>
<path d="M171.975 76.975C172.963 76.95 173.913 76.7625 174.85 76.425C175.013 76.3625 174.95 76.0875 174.775 76.15C173.875 76.4875 172.938 76.6625 171.975 76.7C171.8 76.6875 171.788 76.975 171.975 76.975Z" fill="#161616"/>
<path opacity="0.2" d="M154.588 80.75C154.813 75.475 155.038 70.2 155.25 64.9125C162.55 64.325 169.863 63.75 177.163 63.1625C177 68.1625 176.825 73.1625 176.663 78.1625C169.3 79.025 161.95 79.8875 154.588 80.75Z" fill="#6D6C6C"/>
<path opacity="0.2" d="M174.413 59.75C174.45 61.2 174.375 62.925 174 64.8375C173.075 69.5375 170.85 72.925 169.338 74.8375C170.363 76.2 171.388 77.5625 172.425 78.925C169.288 79.2875 166.15 79.65 163.013 80.0125C163.513 74.2875 164.013 68.5625 164.513 62.85C164.35 62.1 164.175 61.35 164.013 60.6C167.475 60.3 170.95 60.025 174.413 59.75Z" fill="#6D6C6C"/>
<path d="M165.712 43.425C168.325 43.075 171.437 49.075 172.675 53.3875C174.1 58.35 173.475 62.6375 172.962 64.9C171.962 69.3375 169.887 72.4625 168.587 74.15C168.787 74.8125 169.25 76.6125 168.487 78.5875C167.362 81.475 164.312 82.8625 164.075 82.6C164 82.5125 164.15 82.15 165.337 80.7875C165.087 81.05 163.287 82.8375 161.262 82.4125C160.912 82.3375 160.475 82.25 160.225 81.9C159.637 81.05 160.612 79.125 162.687 76.9875C160.425 77.55 159.825 77.4 159.712 77.15C159.425 76.55 161.737 74.85 162.575 74.225C163.812 73.3125 164.925 72.6875 165.687 72.3C167.825 67.8625 167.712 64.4 167.525 62.775C167.25 60.375 166.35 57.7625 166.175 57.2625C165.675 55.825 165.437 55.5 164.437 52.9125C162.825 48.7625 162.825 48.05 162.887 47.5C163.112 45.85 164.225 43.625 165.712 43.425Z" fill="white" stroke="#161616" stroke-miterlimit="10"/>
<path d="M160.275 81.55C161.662 80.7625 162.875 79.75 163.887 78.525C164.037 78.3375 163.775 78.075 163.625 78.2625C162.638 79.4625 161.45 80.4625 160.087 81.2375C159.875 81.3375 160.062 81.6625 160.275 81.55Z" fill="#161616"/>
<path d="M161.5 82.3875C162.875 81.675 164.05 80.6875 165 79.4625C165.15 79.275 164.825 79.0875 164.675 79.275C163.775 80.45 162.625 81.3875 161.312 82.0625C161.1 82.175 161.287 82.5 161.5 82.3875Z" fill="#161616"/>
<path opacity="0.17" d="M164.663 44.025C162.175 46.1875 172.325 55.675 170.588 66.45C169.4 73.8375 164.475 78.6625 164.475 78.6625C163.1 80.0375 160.513 81.725 160.825 82.3125C161.05 82.7375 162.613 82.35 163.175 82.175C164.238 81.85 164.975 81.3 165.388 80.9375C164.763 81.6375 164.05 82.5 164.2 82.675C164.413 82.9 166.188 81.975 167.3 80.675C169.225 78.425 168.95 75.3 168.763 74.025C169.213 73.4375 169.8 72.6125 170.4 71.5625C170.95 70.625 172.538 67.7 173.225 63.725C174.438 56.6875 171.95 51.1375 170.95 48.9625C170.05 47.025 168.525 43.8125 166.213 43.675C165.913 43.6375 165.15 43.6 164.663 44.025Z" fill="#6D6C6C"/>
<path opacity="0.22" d="M173.087 63.525C172.412 65.4875 171.613 67.55 170.663 69.7125C169.988 71.25 169.3 72.6875 168.6 74.05C168.25 75.175 167.587 76.8625 166.275 78.6C164.9 80.425 163.388 81.5375 162.375 82.175C162.662 82.1875 163.012 82.1625 163.4 82.0625C164.375 81.8375 165.025 81.3 165.35 80.975C164.975 81.45 164.587 81.9125 164.212 82.3875C164.512 82.3375 164.987 82.25 165.512 82.0125C168.262 80.775 168.838 77.4125 168.875 77.1875C168.975 76.575 169.038 75.525 168.663 74.225C169.563 73.1625 170.7 71.575 171.613 69.4375C172.625 67.0875 172.962 64.975 173.087 63.525Z" fill="#6D6C6C"/>
<path d="M143.075 35.2C141.062 37.5 142.45 40.7125 142.637 41.15C143.337 42.775 145.15 45.0875 147.45 44.9C149.125 44.75 150.187 43.3375 150.45 42.9625C152.3 40.3 151.687 35.2125 148.562 33.9C146.837 33.175 144.462 33.6 143.075 35.2Z" fill="black"/>
<path d="M148.15 37.25C148.237 38.2375 149.275 38.45 149.975 40.075C150.475 41.25 150.475 42.4 150.387 43.225C151.2 43.3 152.7 43.3375 154.4 42.6875C155.737 42.175 156.675 41.4375 157.237 40.925C156.975 40.3375 156.587 39.475 156.125 38.45C154.125 34.0875 153.8 33.7125 153.312 33.525C151.362 32.7875 147.987 35.4125 148.15 37.25Z" fill="white" stroke="#161616" stroke-miterlimit="10"/>
<path d="M140.95 24.3375C140.525 24.9375 140.262 25.675 140.225 28.8375C140.2 31.5375 140.35 34 140.6 36.1875C141.162 35.8625 141.725 35.5375 142.287 35.2125C142.537 35.825 142.962 36.6625 143.687 37.475C145.125 39.0875 146.875 39.6375 147.65 39.8375C148.462 39.6375 150.487 39.0125 152.025 37.1C153.037 35.825 153.362 34.5625 153.437 34.275C153.9 32.3875 153.45 30.825 153.212 30.175C153.512 30.0375 153.975 29.775 154.325 29.3C155.062 28.3 155.262 26.5125 154.35 25.9125C153.675 25.4625 152.475 25.725 151.575 26.65C151.375 26.1875 151.062 25.55 150.562 24.8875C150.437 24.725 149.5 23.5 148.35 22.8625C146.137 21.5875 142.475 22.1875 140.95 24.3375Z" fill="white" stroke="#161616" stroke-miterlimit="10"/>
<path d="M140.037 28.2625C139.537 28.175 138.612 27.9125 138.175 27.15C137.425 25.8625 138.525 23.9 138.8 23.4125C139.025 23 139.625 22.0125 142.175 20.225C144.112 18.8625 145.087 18.1875 146.137 17.8625C149.862 16.75 153.275 18.675 153.912 19.0375C155.25 19.8 156.1 20.625 156.775 21.275C157.812 22.275 158.975 23.425 160.275 24.75C163.612 29.075 164.787 33.025 165.262 35.3875C165.8 38.0625 166.35 40.7875 164.75 42.3875C163.15 43.9875 160.225 43.6625 158.437 42.9C155.95 41.8375 154.887 39.5875 154.062 37.85C152.662 34.875 152.575 32.025 152.712 30.175C153.962 29.8125 154.6 28.6375 154.312 27.75C154.087 27.05 153.25 26.35 152.387 26.6C151.725 26.7875 151.25 27.475 151.287 28.275C150.687 28.2625 149.087 28.125 147.562 26.975C146.45 26.1375 145.887 25.1375 145.625 24.5875C144.937 24.675 143.562 24.925 142.175 25.925C141.012 26.725 140.362 27.6875 140.037 28.2625Z" fill="black"/>
<path opacity="0.24" d="M148.312 30.65C149.812 32.4625 150.287 34.375 150.287 34.375C150.775 36.525 150.075 38.35 149.762 39.0875C150.55 38.4875 151.35 37.8875 152.137 37.2875C152.687 39.1125 153.225 40.925 153.775 42.75C154.187 42.7125 155.037 42.5625 155.887 41.9625C156.537 41.5 156.925 40.9625 157.137 40.625C156.125 39.6875 154.187 37.6125 153.3 34.35C152.875 32.775 152.812 31.375 152.862 30.325C154 29.8625 154.587 28.75 154.35 27.825C154.175 27.15 153.487 26.3375 152.6 26.4625C151.862 26.575 151.25 27.3 151.262 28.1875C150.7 28.1875 149.375 28.125 147.987 27.2875C146.55 26.425 145.862 25.225 145.6 24.7125C145.662 27.1125 146.4 28.5 147.062 29.325C147.5 29.8875 147.7 29.9125 148.312 30.65Z" fill="#6D6C6C"/>
<path d="M142.5 30.125C142.362 30.625 142.375 31.1375 142.562 31.625C142.625 31.8 142.862 31.8125 142.925 31.625C143.075 31.175 143.075 30.7 142.937 30.25C142.862 30.025 142.5 30.1125 142.575 30.35C142.7 30.75 142.687 31.1375 142.562 31.5375C142.687 31.5375 142.8 31.5375 142.925 31.5375C142.762 31.1125 142.737 30.675 142.862 30.2375C142.925 29.9875 142.575 29.8875 142.5 30.125Z" fill="#161616"/>
<path d="M142.05 29.35C142.375 29.15 142.775 29.1875 143.05 29.45C143.225 29.6125 143.487 29.35 143.312 29.1875C142.925 28.8125 142.325 28.7375 141.862 29.025C141.662 29.15 141.85 29.475 142.05 29.35Z" fill="#161616"/>
<path d="M143.4 32.525C143.637 32.525 143.637 32.15 143.4 32.15C143.15 32.15 143.15 32.525 143.4 32.525Z" fill="#161616"/>
<path d="M144.225 31.4375C144.225 31.45 144.225 31.4625 144.225 31.475C144.225 31.575 144.312 31.6625 144.412 31.6625C144.512 31.6625 144.6 31.575 144.6 31.475C144.6 31.4625 144.6 31.45 144.6 31.4375C144.6 31.3375 144.512 31.25 144.412 31.25C144.312 31.25 144.225 31.325 144.225 31.4375Z" fill="#161616"/>
<path d="M144.262 32.375C144.5 32.375 144.5 32 144.262 32C144.025 32 144.025 32.375 144.262 32.375Z" fill="#161616"/>
<path d="M139.112 30.7C138.962 31.2 138.975 31.7125 139.15 32.2C139.212 32.375 139.45 32.375 139.512 32.2C139.662 31.75 139.675 31.275 139.55 30.825C139.487 30.5875 139.125 30.6875 139.187 30.925C139.3 31.325 139.287 31.7125 139.15 32.1C139.275 32.1 139.387 32.1 139.512 32.1C139.362 31.675 139.337 31.2375 139.475 30.8C139.537 30.5625 139.175 30.4625 139.112 30.7Z" fill="#161616"/>
<path d="M138.9 29.7625C139.162 29.625 139.525 29.6875 139.7 29.9375C139.837 30.125 140.162 29.9375 140.025 29.75C139.712 29.3375 139.175 29.2 138.712 29.4375C138.5 29.55 138.687 29.875 138.9 29.7625Z" fill="#161616"/>
<path d="M143.112 36.5625C144.075 36.3875 144.912 35.875 145.537 35.1125C145.65 34.975 145.45 34.775 145.337 34.9125C144.75 35.6375 143.962 36.1125 143.037 36.2875C142.862 36.325 142.937 36.6 143.112 36.5625Z" fill="#161616"/>
<path d="M145.062 34.9375C145.287 35.0125 145.475 35.125 145.637 35.2875C145.762 35.4125 145.962 35.2125 145.837 35.0875C145.637 34.8875 145.4 34.75 145.137 34.6625C144.962 34.6125 144.887 34.8875 145.062 34.9375Z" fill="#161616"/>
<path opacity="0.45" d="M152.85 18.5875C154.437 20.7875 156.475 23.9 158.412 27.875C160.462 32.075 161.962 35.2375 160.8 36.4875C159.262 38.15 153.95 35.5125 153.1 35.075C153.275 36.2125 153.712 38.025 155 39.8375C155.65 40.75 156.787 42.3625 158.887 43.1125C160.15 43.5625 161.275 43.5375 161.712 43.5C162.3 43.4625 162.975 43.4125 163.712 43.0125C163.712 43.0125 164.675 42.5 165.325 41.45C166.312 39.85 165.787 37.6875 165.087 34.975C164.25 31.725 163.125 29.5625 162.025 27.425C161.75 26.9 161.425 26.2875 160.9 25.575C160.375 24.85 159.987 24.4625 158.362 22.9C155.95 20.5625 155.575 20.225 154.85 19.7375C154.05 19.1875 153.337 18.825 152.85 18.5875Z" fill="black"/>
<path opacity="0.43" d="M149.837 39.85C149.937 40.1375 150.162 40.95 149.837 41.85C149.35 43.1875 148 43.6375 147.787 43.7C146.25 44.2 144.312 43.4125 143.012 41.7C143.187 42.15 143.575 42.95 144.375 43.65C144.775 44 145.862 44.9375 147.4 44.825C147.662 44.8 149.35 44.675 150.125 43.2125C150.687 42.175 150.562 40.875 149.837 39.85Z" fill="black"/>
</svg>
