<svg width="1240" height="505" viewBox="0 0 1240 505" fill="none" xmlns="http://www.w3.org/2000/svg">
<path opacity="0.1" d="M52.3305 496.004C52.3305 496.004 27.3271 273.976 194.098 143.914C360.87 13.851 630.27 -46.2166 781.598 41.0629C1093.9 221.165 1332.08 478.014 1113.02 496.004C893.95 513.994 52.3305 496.004 52.3305 496.004Z" fill="#817BB8"/>
<path d="M1013.99 256.378H439.018C436.576 256.378 434.235 257.348 432.509 259.074C430.782 260.801 429.812 263.142 429.812 265.583C429.812 268.025 430.782 270.366 432.509 272.092C434.235 273.819 436.576 274.789 439.018 274.789H455.304V495.005C455.304 497.447 456.274 499.788 458 501.514C459.726 503.241 462.068 504.211 464.509 504.211C466.95 504.211 469.292 503.241 471.018 501.514C472.744 499.788 473.714 497.447 473.714 495.005L473.854 274.789H935.327L977.876 495.005C977.876 497.447 978.846 499.788 980.572 501.514C982.299 503.241 984.64 504.211 987.081 504.211C989.523 504.211 991.864 503.241 993.59 501.514C995.317 499.788 996.287 497.447 996.287 495.005L998.965 274.789H1013.99C1016.43 274.789 1018.77 273.819 1020.5 272.092C1022.22 270.366 1023.19 268.025 1023.19 265.583C1023.19 263.142 1022.22 260.801 1020.5 259.074C1018.77 257.348 1016.43 256.378 1013.99 256.378Z" fill="#211F2F"/>
<path d="M538.681 215.361V254.343H441.018C438.458 254.432 435.906 254.016 433.508 253.118C431.109 252.221 428.91 250.86 427.037 249.113C425.165 247.366 423.654 245.268 422.592 242.937C421.531 240.606 420.938 238.089 420.849 235.53C420.76 232.97 421.176 230.418 422.073 228.019C422.971 225.621 424.332 223.422 426.078 221.549C427.825 219.676 429.924 218.166 432.255 217.104C434.585 216.042 437.102 215.45 439.662 215.361C440.114 215.345 440.566 215.345 441.018 215.361L538.681 215.361Z" fill="#F2F2F2"/>
<path d="M541.08 254.043C541.08 254.44 540.922 254.822 540.641 255.103C540.36 255.384 539.979 255.542 539.581 255.542H439.279C433.833 255.538 428.613 253.372 424.764 249.521C420.915 245.669 418.753 240.447 418.753 235.002C418.753 229.557 420.915 224.334 424.764 220.483C428.613 216.631 433.833 214.465 439.279 214.461H539.581C539.778 214.461 539.974 214.499 540.156 214.574C540.338 214.65 540.504 214.76 540.644 214.899C540.783 215.038 540.894 215.204 540.97 215.386C541.045 215.568 541.084 215.764 541.084 215.961C541.084 216.158 541.045 216.353 540.97 216.535C540.894 216.718 540.783 216.883 540.644 217.022C540.504 217.162 540.338 217.272 540.156 217.347C539.974 217.422 539.778 217.461 539.581 217.46H439.279C434.631 217.467 430.176 219.318 426.892 222.607C423.608 225.896 421.763 230.354 421.763 235.002C421.763 239.649 423.608 244.107 426.892 247.396C430.176 250.685 434.631 252.536 439.279 252.543H539.581C539.979 252.544 540.36 252.702 540.641 252.983C540.922 253.264 541.08 253.645 541.08 254.043Z" fill="#6758EE"/>
<path d="M538.681 224.357H433.731C433.652 224.357 433.576 224.326 433.519 224.27C433.463 224.215 433.43 224.139 433.43 224.06C433.429 223.98 433.46 223.904 433.515 223.847C433.571 223.791 433.646 223.758 433.726 223.757H538.681C538.76 223.758 538.836 223.79 538.891 223.846C538.947 223.902 538.978 223.978 538.978 224.057C538.978 224.136 538.947 224.212 538.891 224.268C538.836 224.324 538.76 224.356 538.681 224.357Z" fill="white"/>
<path d="M538.681 231.553H433.731C433.652 231.554 433.576 231.523 433.519 231.467C433.463 231.411 433.43 231.336 433.43 231.256C433.429 231.177 433.46 231.101 433.515 231.044C433.571 230.987 433.646 230.955 433.726 230.954H538.681C538.76 230.955 538.836 230.986 538.891 231.043C538.947 231.099 538.978 231.175 538.978 231.254C538.978 231.333 538.947 231.408 538.891 231.465C538.836 231.521 538.76 231.553 538.681 231.553Z" fill="white"/>
<path d="M538.681 238.75H433.731C433.652 238.75 433.576 238.719 433.519 238.664C433.463 238.608 433.43 238.532 433.43 238.453C433.429 238.374 433.46 238.297 433.515 238.24C433.571 238.184 433.646 238.151 433.726 238.15H538.681C538.76 238.151 538.836 238.183 538.891 238.239C538.947 238.295 538.978 238.371 538.978 238.45C538.978 238.529 538.947 238.605 538.891 238.661C538.836 238.717 538.76 238.749 538.681 238.75Z" fill="white"/>
<path d="M538.681 245.946H433.731C433.652 245.947 433.576 245.916 433.519 245.86C433.463 245.805 433.43 245.729 433.43 245.649C433.429 245.57 433.46 245.494 433.515 245.437C433.571 245.38 433.646 245.348 433.726 245.347H538.681C538.76 245.348 538.836 245.38 538.891 245.436C538.947 245.492 538.978 245.568 538.978 245.647C538.978 245.726 538.947 245.801 538.891 245.858C538.836 245.914 538.76 245.946 538.681 245.946Z" fill="white"/>
<path d="M520.271 174.292V213.273H422.608C417.438 213.453 412.409 211.572 408.627 208.044C404.845 204.516 402.619 199.63 402.439 194.461C402.259 189.291 404.14 184.262 407.668 180.48C411.196 176.697 416.082 174.472 421.251 174.292C421.703 174.276 422.155 174.276 422.608 174.292H520.271Z" fill="#F2F2F2"/>
<path d="M522.67 212.973C522.67 213.371 522.512 213.752 522.231 214.033C521.949 214.314 521.568 214.473 521.171 214.473H420.868C415.421 214.473 410.196 212.309 406.344 208.457C402.492 204.605 400.328 199.38 400.328 193.932C400.328 188.485 402.492 183.26 406.344 179.408C410.196 175.556 415.421 173.392 420.868 173.392H521.171C521.367 173.392 521.562 173.431 521.744 173.506C521.926 173.582 522.092 173.692 522.231 173.831C522.37 173.97 522.48 174.136 522.556 174.318C522.631 174.5 522.67 174.695 522.67 174.891C522.67 175.088 522.631 175.283 522.556 175.465C522.48 175.647 522.37 175.812 522.231 175.952C522.092 176.091 521.926 176.201 521.744 176.277C521.562 176.352 521.367 176.391 521.171 176.391H420.868C416.216 176.391 411.754 178.239 408.464 181.529C405.175 184.818 403.327 189.28 403.327 193.932C403.327 198.585 405.175 203.047 408.464 206.336C411.754 209.626 416.216 211.474 420.868 211.474H521.171C521.568 211.474 521.949 211.632 522.231 211.913C522.512 212.195 522.67 212.576 522.67 212.973Z" fill="#6758EE"/>
<path d="M520.271 183.287H415.321C415.241 183.288 415.165 183.257 415.109 183.201C415.052 183.145 415.02 183.07 415.019 182.99C415.019 182.911 415.049 182.835 415.105 182.778C415.16 182.721 415.236 182.689 415.315 182.688H520.271C520.35 182.689 520.425 182.72 520.481 182.777C520.537 182.833 520.568 182.909 520.568 182.988C520.568 183.067 520.537 183.142 520.481 183.199C520.425 183.255 520.35 183.287 520.271 183.287Z" fill="white"/>
<path d="M520.271 190.484H415.321C415.241 190.484 415.165 190.453 415.109 190.398C415.052 190.342 415.02 190.266 415.019 190.187C415.019 190.108 415.049 190.031 415.105 189.975C415.16 189.918 415.236 189.885 415.315 189.884H520.271C520.35 189.885 520.425 189.917 520.481 189.973C520.537 190.029 520.568 190.105 520.568 190.184C520.568 190.263 520.537 190.339 520.481 190.395C520.425 190.451 520.35 190.483 520.271 190.484Z" fill="white"/>
<path d="M520.271 197.681H415.321C415.241 197.681 415.165 197.65 415.109 197.594C415.052 197.539 415.02 197.463 415.019 197.384C415.019 197.304 415.049 197.228 415.105 197.171C415.16 197.114 415.236 197.082 415.315 197.081H520.271C520.35 197.082 520.425 197.114 520.481 197.17C520.537 197.226 520.568 197.302 520.568 197.381C520.568 197.46 520.537 197.536 520.481 197.592C520.425 197.648 520.35 197.68 520.271 197.681Z" fill="white"/>
<path d="M520.271 204.877H415.321C415.241 204.878 415.165 204.847 415.109 204.791C415.052 204.735 415.02 204.659 415.019 204.58C415.019 204.501 415.049 204.424 415.105 204.368C415.16 204.311 415.236 204.279 415.315 204.277H520.271C520.35 204.278 520.425 204.31 520.481 204.366C520.537 204.422 520.568 204.498 520.568 204.577C520.568 204.656 520.537 204.732 520.481 204.788C520.425 204.844 520.35 204.876 520.271 204.877Z" fill="white"/>
<path d="M633.883 394.317V360.329C633.883 358.826 633.286 357.385 632.224 356.323C631.162 355.261 629.721 354.664 628.218 354.664H499.346C497.843 354.664 496.402 355.261 495.34 356.323C494.278 357.385 493.681 358.826 493.681 360.329V394.317H633.883Z" fill="#211F2F"/>
<path d="M633.883 407.063H493.681V450.964H633.883V407.063Z" fill="#211F2F"/>
<path d="M493.681 463.71V497.699C493.681 499.201 494.278 500.642 495.34 501.704C496.402 502.766 497.843 503.363 499.346 503.363H628.218C629.721 503.363 631.162 502.766 632.224 501.704C633.286 500.642 633.883 499.201 633.883 497.699V463.71H493.681Z" fill="#211F2F"/>
<path d="M563.074 380.155C565.42 380.155 567.322 378.253 567.322 375.907C567.322 373.56 565.42 371.658 563.074 371.658C560.727 371.658 558.825 373.56 558.825 375.907C558.825 378.253 560.727 380.155 563.074 380.155Z" fill="white"/>
<path d="M563.074 436.803C565.42 436.803 567.322 434.9 567.322 432.554C567.322 430.208 565.42 428.305 563.074 428.305C560.727 428.305 558.825 430.208 558.825 432.554C558.825 434.9 560.727 436.803 563.074 436.803Z" fill="white"/>
<path d="M563.302 492.25C565.648 492.25 567.55 490.348 567.55 488.002C567.55 485.655 565.648 483.753 563.302 483.753C560.955 483.753 559.053 485.655 559.053 488.002C559.053 490.348 560.955 492.25 563.302 492.25Z" fill="white"/>
<path d="M617.988 315.91V354.892H520.324C515.157 355.068 510.132 353.185 506.352 349.658C502.573 346.13 500.349 341.246 500.169 336.079C499.989 330.912 501.868 325.885 505.393 322.103C508.918 318.321 513.8 316.094 518.967 315.91C519.419 315.895 519.872 315.895 520.324 315.91H617.988Z" fill="#F2F2F2"/>
<path d="M620.387 354.592C620.386 354.989 620.228 355.371 619.947 355.652C619.666 355.933 619.285 356.091 618.887 356.091H518.585C513.139 356.092 507.915 353.931 504.062 350.081C500.209 346.232 498.043 341.01 498.04 335.563C498.036 330.117 500.196 324.892 504.044 321.038C507.893 317.184 513.114 315.016 518.56 315.011H618.887C619.085 315.01 619.28 315.048 619.462 315.124C619.645 315.199 619.81 315.309 619.95 315.448C620.09 315.588 620.2 315.753 620.276 315.935C620.352 316.117 620.391 316.313 620.391 316.51C620.391 316.707 620.352 316.902 620.276 317.085C620.2 317.267 620.09 317.432 619.95 317.571C619.81 317.711 619.645 317.821 619.462 317.896C619.28 317.971 619.085 318.01 618.887 318.009H518.585C513.937 318.015 509.481 319.866 506.196 323.155C502.911 326.444 501.066 330.902 501.066 335.551C501.066 340.199 502.911 344.658 506.196 347.947C509.481 351.236 513.937 353.086 518.585 353.093H618.887C619.285 353.093 619.666 353.251 619.947 353.532C620.228 353.813 620.386 354.194 620.387 354.592Z" fill="#F66F5D"/>
<path d="M617.988 324.906H513.038C512.958 324.906 512.882 324.875 512.825 324.82C512.769 324.764 512.737 324.688 512.736 324.609C512.735 324.529 512.766 324.453 512.822 324.396C512.877 324.34 512.953 324.307 513.032 324.306H617.988C618.067 324.307 618.142 324.339 618.198 324.395C618.253 324.451 618.285 324.527 618.285 324.606C618.285 324.685 618.253 324.761 618.198 324.817C618.142 324.873 618.067 324.905 617.988 324.906H617.988Z" fill="white"/>
<path d="M617.988 332.103H513.038C512.958 332.103 512.882 332.072 512.825 332.016C512.769 331.961 512.737 331.885 512.736 331.805C512.735 331.726 512.766 331.65 512.822 331.593C512.877 331.536 512.953 331.504 513.032 331.503H617.988C618.067 331.504 618.142 331.536 618.198 331.592C618.253 331.648 618.285 331.724 618.285 331.803C618.285 331.882 618.253 331.958 618.198 332.014C618.142 332.07 618.067 332.102 617.988 332.103H617.988Z" fill="white"/>
<path d="M617.988 339.299H513.038C512.958 339.3 512.882 339.269 512.825 339.213C512.769 339.157 512.737 339.081 512.736 339.002C512.735 338.923 512.766 338.846 512.822 338.79C512.877 338.733 512.953 338.7 513.032 338.699H617.988C618.067 338.7 618.142 338.732 618.198 338.788C618.253 338.844 618.285 338.92 618.285 338.999C618.285 339.078 618.253 339.154 618.198 339.21C618.142 339.266 618.067 339.298 617.988 339.299H617.988Z" fill="white"/>
<path d="M617.988 346.496H513.038C512.958 346.496 512.882 346.465 512.825 346.409C512.769 346.354 512.737 346.278 512.736 346.199C512.735 346.119 512.766 346.043 512.822 345.986C512.877 345.929 512.953 345.897 513.032 345.896H617.988C618.067 345.897 618.142 345.929 618.198 345.985C618.253 346.041 618.285 346.117 618.285 346.196C618.285 346.275 618.253 346.351 618.198 346.407C618.142 346.463 618.067 346.495 617.988 346.496H617.988Z" fill="white"/>
<path d="M503.287 161.288H458.791C458.369 161.287 457.952 161.384 457.573 161.571L446.343 167.193C445.973 167.35 445.658 167.612 445.436 167.947C445.215 168.282 445.097 168.675 445.097 169.077C445.097 169.478 445.215 169.871 445.436 170.206C445.658 170.541 445.973 170.803 446.343 170.96L457.573 176.582C457.952 176.769 458.369 176.866 458.791 176.866H503.287C503.9 176.901 504.503 176.694 504.964 176.288C505.426 175.882 505.708 175.311 505.752 174.699V163.454C505.708 162.842 505.425 162.271 504.964 161.865C504.503 161.46 503.9 161.252 503.287 161.288Z" fill="#3F3D56"/>
<path d="M505.752 163.454V174.699C505.708 175.311 505.426 175.882 504.964 176.288C504.503 176.694 503.9 176.901 503.287 176.866H494.422V161.288H503.287C503.9 161.252 504.503 161.46 504.964 161.865C505.426 162.271 505.708 162.842 505.752 163.454Z" fill="#6758EE"/>
<path d="M236.517 381.618C242.247 383.632 248.399 384.137 254.38 383.083C260.361 382.029 265.97 379.453 270.666 375.603C282.627 365.564 286.377 349.024 289.429 333.71C292.437 318.611 295.445 303.512 298.454 288.413L279.559 301.423C265.97 310.779 252.076 320.436 242.668 333.988C233.259 347.54 229.152 366.04 236.712 380.704" fill="#F66F5D"/>
<path d="M238.133 436.46C236.22 422.53 234.254 408.42 235.595 394.341C236.786 381.837 240.601 369.624 248.368 359.61C252.49 354.304 257.507 349.759 263.191 346.177C264.673 345.242 266.038 347.591 264.562 348.522C254.726 354.739 247.118 363.918 242.836 374.737C238.106 386.768 237.346 399.882 238.161 412.663C238.654 420.392 239.699 428.07 240.752 435.738C240.835 436.085 240.783 436.45 240.607 436.76C240.431 437.07 240.143 437.302 239.803 437.408C239.456 437.502 239.086 437.455 238.773 437.277C238.46 437.1 238.23 436.806 238.133 436.46L238.133 436.46Z" fill="#F2F2F2"/>
<path d="M256.553 411.81C259.01 415.545 262.388 418.584 266.361 420.634C270.333 422.684 274.767 423.677 279.235 423.517C290.717 422.972 300.289 414.958 308.906 407.35L334.393 384.846L317.525 384.039C305.394 383.459 292.951 382.917 281.397 386.658C269.843 390.399 259.187 399.402 257.074 411.361" fill="#F66F5D"/>
<path d="M232.728 444.468C241.933 428.18 252.61 410.079 271.687 404.293C276.992 402.69 282.554 402.116 288.074 402.601C289.814 402.751 289.38 405.433 287.643 405.283C278.39 404.515 269.155 406.958 261.492 412.202C254.118 417.221 248.377 424.199 243.518 431.598C240.542 436.131 237.875 440.856 235.209 445.574C234.357 447.082 231.866 445.993 232.728 444.468L232.728 444.468Z" fill="#F2F2F2"/>
<path d="M217.979 461.611C218.289 458.018 219.579 454.578 221.709 451.667C223.839 448.756 226.727 446.485 230.058 445.102V435.686H245.851V445.398C249.018 446.85 251.744 449.115 253.751 451.963C255.757 454.811 256.972 458.141 257.273 461.611L260.986 504.78H214.265L217.979 461.611Z" fill="#6758EE"/>
<path d="M755.066 255.493L750.368 253.515L747.145 229.963H704.226L700.733 253.419L696.53 255.52C696.329 255.621 696.167 255.786 696.072 255.99C695.977 256.194 695.953 256.424 696.005 256.642C696.056 256.861 696.18 257.056 696.357 257.196C696.533 257.335 696.751 257.411 696.976 257.411H754.679C754.909 257.411 755.132 257.331 755.311 257.186C755.489 257.04 755.611 256.836 755.657 256.611C755.703 256.385 755.669 256.15 755.561 255.946C755.453 255.743 755.278 255.583 755.066 255.493Z" fill="#E6E6E6"/>
<path d="M831.335 233.097H620.507C619.401 233.094 618.341 232.653 617.56 231.87C616.779 231.087 616.34 230.026 616.34 228.92V199.19H835.503V228.92C835.502 230.026 835.064 231.087 834.282 231.87C833.501 232.653 832.441 233.094 831.335 233.097Z" fill="white"/>
<path d="M835.723 213.241H616.147V86.0351C616.149 84.7002 616.68 83.4203 617.624 82.4764C618.568 81.5325 619.848 81.0015 621.183 81H830.688C832.023 81.0015 833.302 81.5325 834.246 82.4764C835.19 83.4203 835.721 84.7002 835.723 86.0351L835.723 213.241Z" fill="#211F2F"/>
<path d="M822.609 204.009H629.262C628.233 204.007 627.246 203.598 626.518 202.87C625.79 202.143 625.381 201.156 625.38 200.127V94.1144C625.381 93.0852 625.79 92.0985 626.518 91.3707C627.246 90.6429 628.233 90.2336 629.262 90.2324H822.609C823.638 90.2336 824.624 90.6429 825.352 91.3707C826.08 92.0985 826.489 93.0852 826.49 94.1144V200.127C826.489 201.156 826.08 202.143 825.352 202.87C824.624 203.598 823.638 204.007 822.609 204.009Z" fill="white"/>
<path d="M771.684 241.415C772.932 240.262 774.418 239.397 776.037 238.88C777.656 238.364 779.368 238.208 781.054 238.425C782.739 238.642 784.357 239.226 785.792 240.135C787.228 241.045 788.446 242.258 789.362 243.689L815.514 239.04L822.216 254.243L785.192 260.291C782.685 261.67 779.76 262.082 776.97 261.448C774.18 260.814 771.719 259.179 770.054 256.853C768.389 254.526 767.635 251.669 767.936 248.824C768.236 245.979 769.57 243.343 771.684 241.415Z" fill="#FFB6B6"/>
<path d="M795.897 260.828L823.161 260.488L826.613 260.441L882.083 259.742C882.083 259.742 897.147 245.372 910.263 230.576L908.425 217.278C906.632 204.228 900.158 192.274 890.209 183.641C871.423 196.193 860.528 221.04 860.528 221.04L826.134 229.266L822.694 230.089L801.323 235.196L795.897 260.828Z" fill="#6758EE"/>
<path d="M935.467 342.56H884.574C884.574 344.74 828.942 346.51 828.942 346.51C827.715 347.434 826.596 348.494 825.608 349.67C822.638 353.212 821.015 357.69 821.025 362.312V365.472C821.027 370.71 823.108 375.733 826.812 379.437C830.516 383.141 835.539 385.222 840.777 385.224H935.467C940.704 385.22 945.725 383.137 949.429 379.434C953.132 375.731 955.214 370.709 955.219 365.472V362.312C955.212 357.075 953.128 352.056 949.426 348.353C945.723 344.65 940.703 342.567 935.467 342.56Z" fill="#211F2F"/>
<path d="M898.458 384.44H877.916V503.011H898.458V384.44Z" fill="#4E488C"/>
<path d="M819.449 502.289C819.449 504.509 850.578 503.148 888.977 503.148C927.376 503.148 958.505 504.509 958.505 502.289C958.505 500.069 927.376 482.468 888.977 482.468C850.578 482.468 819.449 500.069 819.449 502.289Z" fill="#211F2F"/>
<path d="M805.65 488.741L790.362 488.74L783.089 429.771L805.652 429.772L805.65 488.741Z" fill="#FFB6B6"/>
<path d="M809.549 503.561L760.253 503.559V502.935C760.253 497.847 762.275 492.966 765.873 489.368C769.471 485.77 774.351 483.748 779.44 483.748H779.441L809.55 483.749L809.549 503.561Z" fill="#211F2F"/>
<path d="M760.464 488.741L745.176 488.74L737.903 429.771L760.466 429.772L760.464 488.741Z" fill="#FFB6B6"/>
<path d="M764.363 503.561L715.067 503.559V502.935C715.067 497.847 717.089 492.966 720.687 489.368C724.285 485.77 729.165 483.748 734.254 483.748H734.255L764.364 483.749L764.363 503.561Z" fill="#211F2F"/>
<path d="M897.414 149.247C912.095 149.247 923.996 137.346 923.996 122.665C923.996 107.984 912.095 96.0825 897.414 96.0825C882.733 96.0825 870.831 107.984 870.831 122.665C870.831 137.346 882.733 149.247 897.414 149.247Z" fill="#FFB6B6"/>
<path d="M940.437 304.796C940.437 304.796 949.356 351.959 915.42 357.965C881.484 363.971 832.497 368.192 832.497 368.192L810.498 470.829L780.943 468.191C780.943 468.191 784.874 344.639 794.54 334.972C804.206 325.306 865.301 296.363 865.301 296.363L940.437 304.796Z" fill="#4E488C"/>
<path d="M874.157 285.03L859.315 299.919C859.315 299.919 752.148 317.181 748.013 341.933C741.772 379.303 734.399 460.567 734.399 460.567L766.62 458.15L779.255 365.776L830.809 354.049L889.462 322.084L874.157 285.03Z" fill="#4E488C"/>
<path d="M922.993 106.797C920.369 101.846 917.035 91.9791 911.739 90.1491C908.798 89.1739 905.758 88.5263 902.674 88.2181L893.672 91.6806L898.571 87.8699C897.618 87.8131 896.664 87.7667 895.711 87.7306L889.637 90.0667L892.745 87.6497C887.082 87.5916 881.237 88.1804 876.849 91.6277C873.108 94.5665 869.402 105.699 868.803 110.418C868.163 114.932 868.387 119.527 869.464 123.958L871.002 125.421C871.54 124.187 871.945 122.899 872.209 121.579C872.76 119.113 873.82 116.789 875.319 114.755C876.818 112.721 878.725 111.021 880.918 109.765L881.001 109.717C883.581 108.265 886.712 108.332 889.67 108.439L903.721 108.944C907.102 109.066 910.742 109.28 913.378 111.401C915.053 112.965 916.37 114.873 917.239 116.994C918.548 119.637 921.108 129.607 921.108 129.607C921.108 129.607 922.555 127.725 923.249 129.125C924.362 125.471 925.039 121.698 925.265 117.884C925.487 114.054 924.703 110.232 922.993 106.797Z" fill="#211F2F"/>
<path d="M1015.97 134.338C1014.27 134.45 1012.62 134.932 1011.13 135.751C1009.64 136.569 1008.35 137.704 1007.35 139.076C1006.34 140.448 1005.65 142.023 1005.33 143.69C1005 145.357 1005.04 147.077 1005.45 148.726L984.07 164.494L990.484 179.822L1020.36 157.13C1023.08 156.261 1025.4 154.423 1026.86 151.963C1028.32 149.503 1028.83 146.593 1028.29 143.784C1027.74 140.974 1026.19 138.461 1023.92 136.72C1021.65 134.979 1018.82 134.132 1015.97 134.338Z" fill="#FFB6B6"/>
<path d="M1012.53 166.529L958.938 226.044C958.938 226.044 933.311 217.841 913.492 208.946L904.588 181.6C902.521 175.256 901.639 168.585 901.985 161.922C929.46 154.611 961.417 181.814 961.417 181.814L1001.53 150.394L1012.53 166.529Z" fill="#6758EE"/>
<path d="M887.485 309.192C877.924 305.889 868.038 302.475 857.375 301.193L856.917 301.137L857.043 300.694C868.082 261.937 865.327 237.144 859.917 199.902C858.767 191.869 860.245 183.679 864.131 176.555C868.018 169.431 874.103 163.755 881.48 160.373L881.546 160.344L912.001 158.408L912.071 158.404L934.22 164.919C937.406 165.863 940.195 167.825 942.159 170.506C944.124 173.187 945.155 176.437 945.095 179.76C944.855 192.008 945.364 205.682 945.903 220.159C947.111 252.637 948.361 286.221 941.269 308.011L941.232 308.125L941.137 308.199C934.617 313.509 926.449 316.379 918.04 316.312C908.099 316.312 897.953 312.808 887.485 309.192Z" fill="#6758EE"/>
<path d="M1238.21 505H1.79191C1.31667 505 0.860893 504.895 0.524846 504.707C0.188799 504.52 0 504.265 0 504C0 503.735 0.188799 503.48 0.524846 503.293C0.860893 503.105 1.31667 503 1.79191 503H1238.21C1238.68 503 1239.14 503.105 1239.48 503.293C1239.81 503.48 1240 503.735 1240 504C1240 504.265 1239.81 504.52 1239.48 504.707C1239.14 504.895 1238.68 505 1238.21 505Z" fill="white"/>
</svg>
