<svg width="290" height="460" viewBox="0 0 290 460" fill="none" xmlns="http://www.w3.org/2000/svg">
<g clip-path="url(#clip0_4542_4251)">
<path opacity="0.11" d="M29.1176 429.376C-22.2843 374.474 0.143334 305.687 61.4708 231.959C122.798 158.231 68.3132 170.711 70.3828 102.222C73.9306 -15.0778 223.279 -38.4612 239.456 69.2555C255.632 176.972 244.735 204.359 206.385 261.007C168.034 317.656 289.928 264.755 289.886 369.959C289.886 423.456 80.4773 484.235 29.1176 429.376Z" fill="#453B60"/>
<path d="M122.376 423.115C122.376 423.115 121.912 430.484 122.841 436.148C124.15 439.982 123.601 441.26 123.601 441.26L108.607 442.239C108.607 442.239 114.647 437.98 111.901 422.689C109.156 407.313 122.376 423.115 122.376 423.115Z" fill="#FCD2B1"/>
<path d="M123.22 437.298C123.22 437.298 117.138 440.706 110.507 439.854C103.538 444.496 98.4698 446.669 91.7964 448.543C85.1231 450.459 87.1927 455.911 98.681 453.356C110.169 450.8 118.363 450.119 120.982 449.948C123.601 449.82 127.782 449.522 127.698 447.691C127.655 445.859 125.248 436.361 123.22 437.298Z" fill="#4E488C"/>
<path d="M198.697 411.998C198.697 411.998 201.4 418.856 204.653 423.541C207.44 426.437 207.482 427.8 207.482 427.8L194.347 435.169C194.347 435.169 198.021 428.737 188.983 416.045C180.029 403.437 198.697 411.998 198.697 411.998Z" fill="#FCD2B1"/>
<path d="M205.498 424.435C205.498 424.435 201.443 430.142 195.107 432.229C190.799 439.428 187.125 443.559 181.93 448.159C176.692 452.759 180.874 456.806 190.208 449.522C199.5 442.239 206.638 438.065 208.919 436.829C211.242 435.594 214.874 433.507 214.029 431.889C213.1 430.27 206.934 422.731 205.498 424.435Z" fill="#4E488C"/>
<path d="M99.3147 128.928C99.3147 128.928 103.665 121.048 105.65 117.811C107.678 114.532 116.463 122.582 116.463 122.582C116.463 122.582 117.265 126.074 113.042 128.374C108.776 130.674 106.199 130.632 105.355 133.528C104.468 136.424 99.2725 132.421 99.2725 132.421L99.3147 128.928Z" fill="#FFE3CA"/>
<path d="M159.248 130.802C159.248 130.802 155.278 122.241 153.42 118.876C151.561 115.511 142.438 123.135 142.438 123.135C142.438 123.135 141.467 126.585 145.606 129.098C149.745 131.569 152.321 131.654 153.082 134.593C153.842 137.532 159.206 133.741 159.206 133.741L159.248 130.802Z" fill="#FFE3CA"/>
<path d="M110.212 125.521C110.212 125.521 113.084 124.839 113.633 123.604C114.182 122.369 114.942 120.409 116.294 120.665C118.026 121.006 116.547 125.009 115.703 126.032" fill="#FFE3CA"/>
<path d="M148.563 126.372C148.563 126.372 145.733 125.563 145.226 124.285C144.719 123.007 144.043 121.048 142.691 121.218C140.917 121.474 142.565 126.074 143.367 127.096" fill="#FFE3CA"/>
<path d="M128.838 294.741C128.838 294.741 142.016 342.87 149.914 355.648C157.813 368.426 192.616 424.009 192.616 424.009C192.616 424.009 198.867 420.517 202.414 418.813C185.055 373.963 179.987 361.356 169.132 343.935C162.796 318.55 166.893 284.433 151.224 262.626C146.451 255.981 124.699 268.546 124.699 268.546L128.838 294.741Z" fill="#4E488C"/>
<path d="M106.748 266.843C106.748 266.843 104.805 335.715 104.805 348.791C104.805 361.824 111.31 431.803 111.31 431.803C111.31 431.803 115.998 434.061 123.77 429.887C124.023 413.787 126.768 389.935 124.488 352.241C132.808 316.378 137.834 281.068 137.834 281.068L137.032 262.37L106.748 266.843Z" fill="#4E488C"/>
<path d="M113.464 171.52C113.464 171.52 106.03 178.122 108.945 192.306C109.916 196.48 104.383 202.656 100.666 205.807C96.9495 209.002 93.7395 216.2 97.2874 222.631C100.793 229.063 101.68 229.531 100.033 235.793C98.3856 242.054 98.3011 255.087 115.829 252.446C133.357 249.806 133.188 206.532 133.188 206.532L130.865 187.748L113.464 171.52Z" fill="#211F2F"/>
<path d="M139.735 196.054C139.735 196.054 138.975 196.48 137.75 197.034C137.75 197.673 137.792 198.269 137.75 198.865C137.792 202.528 137.75 204.913 137.75 204.913C134.962 209.598 129.767 209.684 127.36 208.534C127.106 208.406 126.895 208.278 126.726 208.15C125.797 207.469 125.375 206.276 125.586 205.169C125.924 203.337 125.966 201.634 125.924 200.058C123.516 200.143 121.024 199.845 118.659 198.822C109.367 194.904 114.689 169.348 114.689 169.348C114.689 169.348 130.485 162.576 135.469 169.135C140.368 175.737 139.735 196.054 139.735 196.054Z" fill="#FFE3CA"/>
<path d="M130.57 157.933C126.262 158.657 121.362 161.767 119.25 165.643C118.026 167.857 125.248 169.817 125.333 173.054C125.502 179.357 132.597 181.828 138.215 184.17C139.693 184.767 141.678 187.493 138.257 190.772C138.257 190.772 133.273 195.415 133.864 201.122C134.371 205.935 143.156 205.083 143.156 205.083C143.156 205.083 130.654 243.161 132.217 248.528C133.062 251.381 157.39 266.246 174.074 252.148C180.916 246.355 181.803 235.494 175.974 228.637C171.539 223.441 171.582 219.905 171.919 218.585C176.439 202.23 168.203 191.07 158.911 186.513C155.152 184.681 152.575 181.061 152.364 176.844C152.111 172.372 150.97 166.878 147.127 163.257C141.636 158.104 135.681 157.039 130.57 157.933Z" fill="#211F2F"/>
<path d="M109.071 161.767C105.524 164.663 105.65 170.2 109.452 172.756C113.253 175.311 119.42 176.844 128.712 172.074C139.778 166.409 136.399 157.593 129.007 158.274C114.985 163.087 113.295 158.317 109.071 161.767Z" fill="#211F2F"/>
<path d="M125.501 205.467C125.501 205.467 125.924 209.982 132.006 209.002C135.174 208.065 135.765 205.85 136.356 204.232C138.848 204.402 144.972 204.487 150.083 197.332C154.011 191.795 159.84 182.254 162.585 177.271C163.725 175.226 164.021 172.841 163.43 170.584C160.684 160.063 150.505 133.997 150.505 133.997L160.6 130.291C160.6 130.291 170.906 155.974 176.101 169.008C177.79 173.267 177.621 177.995 175.594 182.084C170.103 193.158 159.502 212.069 154.518 221.78C152.955 227.615 161.064 268.887 161.064 268.887C161.064 268.887 138.764 282.73 106.664 272.55C106.622 260.156 108.058 237.411 107.72 224.634C107.382 211.558 100.624 212.793 83.3494 176.887C81.7021 173.48 81.2375 169.604 82.04 165.856C83.814 157.55 89.6426 143.58 99.2725 128.886C106.115 131.995 107.213 133.102 107.213 133.102C107.213 133.102 98.1744 155.974 95.0066 165.43C94.3731 167.389 94.542 169.519 95.5135 171.35C100.709 181.061 116.421 205.382 125.501 205.467Z" fill="#6758EE"/>
<path d="M133.27 83.4504L133.481 47.7578L125.583 47.7152L125.414 80.1282C125.414 80.1282 125.414 80.2134 125.414 80.2986V82.9393C125.245 87.5393 124.105 96.2708 117.98 96.2282L140.577 96.356C134.622 96.3134 133.439 88.1782 133.27 83.4504Z" fill="#F66F5D"/>
<path d="M95.2992 11.1707C97.0309 12.1077 98.6359 13.3855 99.9029 14.9614C103.197 19.0077 103.831 24.0762 101.55 28.591C100.663 30.3799 99.1849 31.7003 97.411 32.3392C96.6085 32.6799 95.7215 32.8503 94.7923 32.8503C91.7513 32.9355 88.7103 31.3596 87.2742 28.9318C86.0916 26.8873 86.0916 24.5022 87.3165 22.3299C88.119 20.9244 89.9352 20.4133 91.329 21.2651C92.7228 22.0744 93.2296 23.9059 92.3849 25.3114C92.1737 25.6522 92.2159 25.7799 92.3004 25.9077C92.596 26.4188 93.6097 26.9299 94.5811 26.9299C95.6371 26.8873 96.0594 26.291 96.2706 25.8651C96.3128 25.7799 96.3551 25.7373 96.3551 25.6522C97.6644 22.8836 96.6507 20.5836 95.6793 19.2207C95.5526 19.0503 95.4259 18.8799 95.2992 18.7522C92.9339 15.8559 88.7947 14.4503 85.5003 15.4299C81.699 16.5799 79.2071 20.754 78.5313 27.1855C77.1375 39.5799 85.796 48.0559 91.0755 51.9744C96.8197 56.2337 102.522 58.4059 106.407 59.2151C108.604 59.6837 110.209 59.7263 110.884 59.4281C112.363 58.7892 114.094 59.4707 114.728 60.9614C115.15 61.8559 115.024 62.8781 114.601 63.6448C114.306 64.1559 113.841 64.6244 113.25 64.88C112.574 65.1781 111.771 65.3911 110.884 65.4763C105.098 66.1152 95.4259 62.6226 87.6121 56.7874C76.7151 48.6948 71.4356 38.004 72.7027 26.5892C74.0542 14.4929 80.263 10.8725 83.8531 9.8077C87.6121 8.6577 91.7513 9.254 95.2992 11.1707Z" fill="#F66F5D"/>
<path opacity="0.5" d="M114.812 60.9615C115.235 61.856 115.108 62.8782 114.686 63.6448C114.39 64.156 113.925 64.6245 113.334 64.88C112.658 65.1782 111.856 65.3911 110.969 65.4763C109.322 63.6022 107.844 61.5152 106.492 59.2578C108.688 59.7263 110.293 59.7689 110.969 59.4708C112.447 58.7893 114.179 59.4708 114.812 60.9615Z" fill="#F66F5D"/>
<path d="M162.624 11.1278C160.851 12.0222 159.246 13.2574 157.894 14.7481C154.473 18.6667 153.67 23.7352 155.824 28.3352C156.669 30.1667 158.063 31.487 159.837 32.2111C160.639 32.5518 161.526 32.7648 162.413 32.8074C165.454 32.9778 168.538 31.487 170.058 29.1444C171.325 27.1426 171.367 24.7574 170.185 22.5426C169.425 21.0944 167.651 20.5833 166.215 21.35C164.821 22.1167 164.272 23.9056 165.032 25.3537C165.243 25.737 165.159 25.8222 165.116 25.95C164.779 26.4185 163.765 26.9296 162.793 26.887C161.738 26.8018 161.315 26.2055 161.104 25.737C161.062 25.6518 161.02 25.6093 161.02 25.5241C159.795 22.713 160.893 20.4556 161.906 19.0926C162.033 18.9222 162.16 18.7944 162.287 18.6241C164.736 15.813 168.918 14.5352 172.17 15.6C175.929 16.8778 178.294 21.0944 178.801 27.5685C179.815 40.0055 170.903 48.1833 165.497 51.9315C159.626 56.0203 153.839 58.0222 149.953 58.7037C147.715 59.1296 146.11 59.087 145.476 58.7889C143.998 58.0648 142.266 58.7037 141.591 60.1944C141.168 61.0889 141.21 62.0685 141.633 62.8778C141.928 63.4315 142.351 63.8574 142.942 64.1129C143.618 64.4537 144.42 64.6666 145.307 64.7518C151.052 65.5611 160.851 62.3666 168.833 56.787C179.942 49.0352 185.559 38.4722 184.63 27.0574C183.616 14.9185 177.534 11.1278 173.986 9.93519C170.396 8.87037 166.215 9.2963 162.624 11.1278Z" fill="#F66F5D"/>
<path opacity="0.5" d="M141.633 60.2795C141.21 61.1739 141.253 62.1536 141.675 62.9628C141.971 63.5165 142.393 63.9424 142.984 64.198C143.66 64.5387 144.463 64.7517 145.35 64.8369C147.081 63.0054 148.602 60.961 149.996 58.7888C147.757 59.2147 146.152 59.1721 145.519 58.874C144.083 58.1925 142.309 58.8314 141.633 60.2795Z" fill="#F66F5D"/>
<g filter="url(#filter0_d_4542_4251)">
<path d="M159.119 6.8687C159.119 6.8687 159.119 8.99832 158.95 12.4909C158.232 26.3335 154.473 61.7705 134.326 71.865L133.354 72.7168C132.13 73.7816 130.525 74.3353 128.877 74.2501L127.864 74.2076C126.428 74.165 125.076 73.6538 123.978 72.7594L122.838 71.8224C103.071 61.6427 99.523 26.9298 98.8895 12.7039C98.7205 8.87054 98.7628 6.52795 98.7628 6.52795C98.7628 3.12055 102.733 2.2261 102.733 2.2261L155.106 2.52425C155.191 2.52425 159.161 3.46129 159.119 6.8687Z" fill="#F16654"/>
</g>
<path d="M156.036 11.3835L101.846 11.0853C98.5092 11.0853 95.8483 8.31679 95.8483 4.95198C95.8483 1.58717 98.5937 -1.09616 101.93 -1.09616L156.12 -0.798013C159.457 -0.798013 162.118 1.9705 162.118 5.33531C162.118 8.70013 159.372 11.426 156.036 11.3835Z" fill="#F66F5D"/>
<path d="M156.036 11.3835L101.846 11.0853C98.5092 11.0853 95.8483 8.31679 95.8483 4.95198C95.8483 1.58717 98.5937 -1.09616 101.93 -1.09616L156.12 -0.798013C159.457 -0.798013 162.118 1.9705 162.118 5.33531C162.118 8.70013 159.372 11.426 156.036 11.3835Z" fill="#F66F5D"/>
<path d="M156.036 11.3835L101.846 11.0853C98.5092 11.0853 95.8483 8.31679 95.8483 4.95198C95.8483 1.58717 98.5937 -1.09616 101.93 -1.09616L156.12 -0.798013C159.457 -0.798013 162.118 1.9705 162.118 5.33531C162.118 8.70013 159.372 11.426 156.036 11.3835Z" fill="#F66F5D"/>
<path d="M158.548 126.702L99.889 126.404L100.036 102.075C100.036 100.499 101.506 99.2632 103.319 99.2632L155.46 99.5188C157.273 99.5188 158.695 100.797 158.695 102.373L158.548 126.702Z" fill="#E86654"/>
<path d="M157.303 126.724L100.832 126.384C100.579 126.384 100.368 126.171 100.41 125.915V122.465C100.41 122.21 100.621 121.997 100.874 121.997L157.345 122.337C157.598 122.337 157.809 122.55 157.809 122.806V126.256C157.767 126.511 157.556 126.724 157.303 126.724Z" fill="#FFB127"/>
<g filter="url(#filter1_d_4542_4251)">
<path d="M159.758 126.702L98.7402 126.353C98.4663 126.353 98.2382 126.135 98.2838 125.873V122.34C98.2838 122.078 98.512 121.86 98.7858 121.86L159.804 122.209C160.078 122.209 160.306 122.427 160.306 122.689V126.222C160.26 126.484 160.032 126.702 159.758 126.702Z" fill="#E86654"/>
</g>
<path d="M141.548 99.465L116.882 99.3373C116.713 99.3373 116.544 99.2095 116.544 98.9965V96.5261C116.544 96.3558 116.671 96.1854 116.882 96.1854L141.548 96.3132C141.717 96.3132 141.886 96.4409 141.886 96.6539V99.1243C141.844 99.3373 141.717 99.465 141.548 99.465Z" fill="#F66F5D"/>
<path opacity="0.5" d="M141.548 99.465L116.882 99.3373C116.713 99.3373 116.544 99.2095 116.544 98.9965V96.5261C116.544 96.3558 116.671 96.1854 116.882 96.1854L141.548 96.3132C141.717 96.3132 141.886 96.4409 141.886 96.6539V99.1243C141.844 99.3373 141.717 99.465 141.548 99.465Z" fill="#F66F5D"/>
</g>
<defs>
<filter id="filter0_d_4542_4251" x="97.7581" y="2.2261" width="62.361" height="74.0326" filterUnits="userSpaceOnUse" color-interpolation-filters="sRGB">
<feFlood flood-opacity="0" result="BackgroundImageFix"/>
<feColorMatrix in="SourceAlpha" type="matrix" values="0 0 0 0 0 0 0 0 0 0 0 0 0 0 0 0 0 0 127 0" result="hardAlpha"/>
<feOffset dy="1"/>
<feGaussianBlur stdDeviation="0.5"/>
<feColorMatrix type="matrix" values="0 0 0 0 0 0 0 0 0 0 0 0 0 0 0 0 0 0 0.25 0"/>
<feBlend mode="normal" in2="BackgroundImageFix" result="effect1_dropShadow_4542_4251"/>
<feBlend mode="normal" in="SourceGraphic" in2="effect1_dropShadow_4542_4251" result="shape"/>
</filter>
<filter id="filter1_d_4542_4251" x="94.278" y="118.86" width="70.0278" height="12.8421" filterUnits="userSpaceOnUse" color-interpolation-filters="sRGB">
<feFlood flood-opacity="0" result="BackgroundImageFix"/>
<feColorMatrix in="SourceAlpha" type="matrix" values="0 0 0 0 0 0 0 0 0 0 0 0 0 0 0 0 0 0 127 0" result="hardAlpha"/>
<feOffset dy="1"/>
<feGaussianBlur stdDeviation="2"/>
<feColorMatrix type="matrix" values="0 0 0 0 0 0 0 0 0 0 0 0 0 0 0 0 0 0 0.25 0"/>
<feBlend mode="normal" in2="BackgroundImageFix" result="effect1_dropShadow_4542_4251"/>
<feBlend mode="normal" in="SourceGraphic" in2="effect1_dropShadow_4542_4251" result="shape"/>
</filter>
<clipPath id="clip0_4542_4251">
<rect width="290" height="460" fill="white"/>
</clipPath>
</defs>
</svg>
