<svg width="54" height="54" viewBox="0 0 54 54" fill="none" xmlns="http://www.w3.org/2000/svg">
<path d="M26.7191 3.375C33.1543 3.4144 38.6438 5.5288 43.2272 9.84954C47.7975 14.1703 50.2928 19.5285 50.5948 25.8192C50.91 32.5433 48.7562 38.4268 44.094 43.2992C39.5106 48.0927 33.8503 50.5617 27.2051 50.6273C21.0194 50.693 15.5955 48.618 11.0515 44.4286C5.69329 39.4775 3.11923 33.2787 3.39502 25.9899C3.61828 19.8831 5.96908 14.6299 10.2898 10.3223C14.847 5.7652 20.4153 3.4932 26.7191 3.375Z" fill="#0087CB"/>
<path d="M19.7324 30.1923C18.4454 29.7983 17.1453 29.3911 15.8582 28.9972C15.2278 28.8002 14.5975 28.6032 13.9671 28.4062C13.7307 28.3274 13.5074 28.2486 13.3104 28.1041C12.9427 27.8283 12.9164 27.4869 13.2316 27.1454C13.4418 26.909 13.7044 26.7514 13.9933 26.6332C14.7551 26.3312 15.5168 26.0291 16.2785 25.7271C21.5317 23.7046 26.7848 21.669 32.0512 19.6465C33.719 19.003 35.3738 18.3595 37.0417 17.716C37.2649 17.624 37.5013 17.5715 37.7509 17.6109C38.2499 17.6897 38.6308 18.0968 38.6833 18.6221C38.7096 18.9111 38.6964 19.2 38.6439 19.4889C38.0004 22.5095 37.3569 25.5432 36.7134 28.5638C36.188 31.059 35.6496 33.5543 35.1243 36.0627C35.0061 36.6274 34.8879 37.1921 34.7697 37.7568C34.7171 38.0326 34.6383 38.2953 34.507 38.5448C34.2444 39.0307 33.8241 39.2146 33.2857 39.1095C32.9573 39.0439 32.6684 38.8994 32.4057 38.7024C30.5934 37.3628 28.781 36.0102 26.9556 34.6706C26.8768 34.6049 26.7848 34.5524 26.706 34.4999C26.3909 34.4079 26.1676 34.1715 25.9181 33.9877C25.0513 33.3573 24.1845 32.7007 23.3177 32.0703C23.2521 32.0177 23.1864 31.9652 23.1339 31.8995C23.0551 31.7682 23.1339 31.6894 23.2127 31.6106C24.3946 30.56 25.5635 29.4831 26.7454 28.4324C27.5991 27.6576 28.4659 26.8828 29.3195 26.1079C30.1731 25.3331 31.0268 24.5714 31.8804 23.8096C32.5502 23.2055 33.22 22.6145 33.8766 22.0104C33.9292 21.9579 33.9817 21.9054 34.0342 21.8528C34.0736 21.8003 34.1262 21.7478 34.0999 21.6821C34.0736 21.6033 33.9948 21.6033 33.9292 21.6033C33.6928 21.577 33.4958 21.669 33.2988 21.7872C32.5765 22.2206 31.8804 22.6802 31.1712 23.1267C29.0174 24.4794 26.8505 25.8453 24.6967 27.1979C23.2127 28.1304 21.7287 29.0628 20.2446 30.0084C20.0739 30.1003 19.9557 30.2711 19.7324 30.1923Z" fill="#EEEEEE"/>
<path d="M19.7323 30.192C20.0869 30.0475 20.3889 29.8111 20.7173 29.6141C21.6628 29.0231 22.6084 28.4321 23.554 27.828C24.2238 27.4078 24.8804 26.9744 25.5502 26.5541C26.6534 25.8581 27.7697 25.162 28.886 24.466C29.6608 23.9801 30.4356 23.481 31.2236 22.982C31.9065 22.5486 32.5894 22.1152 33.2724 21.6818C33.4956 21.5505 33.7189 21.4717 33.9947 21.498C34.0735 21.5111 34.1523 21.5111 34.1785 21.5899C34.2179 21.6687 34.1917 21.7475 34.126 21.8263C33.9684 21.9839 33.8239 22.1546 33.6401 22.2991C33.3118 22.5617 33.0228 22.8638 32.7076 23.1396C32.1955 23.573 31.7227 24.0457 31.2105 24.4791C31.0004 24.663 30.8034 24.86 30.5932 25.0438C30.2912 25.2934 30.0023 25.5954 29.7133 25.8581C29.2668 26.2652 28.8072 26.6592 28.3606 27.0532C28.1636 27.237 27.9535 27.4209 27.7697 27.6048C27.2837 28.0644 26.7716 28.4978 26.2856 28.9575C25.6947 29.4959 25.0905 30.0212 24.5127 30.5728C24.0924 30.9668 23.6459 31.3345 23.2125 31.7154C23.1469 31.7679 23.1469 31.8204 23.1863 31.8861C23.0943 33.3701 22.9893 34.8541 22.8973 36.3382C22.8711 36.7322 22.8185 37.113 22.8317 37.507C22.8317 37.6252 22.8317 37.7303 22.7397 37.8222C22.6609 37.8485 22.569 37.8485 22.4902 37.8485C22.2538 37.8353 22.0831 37.7171 22.0174 37.4939C21.9518 37.2575 21.873 37.0342 21.8073 36.7978C21.1638 34.6834 20.5203 32.5559 19.8768 30.4415C19.8111 30.3496 19.7717 30.2708 19.7323 30.192Z" fill="#CCD9E9"/>
<path d="M22.7005 37.8097C22.6611 37.2975 22.7531 36.7853 22.7662 36.2863C22.7925 35.7347 22.845 35.1831 22.8713 34.6315C22.9107 34.0668 22.9501 33.5021 22.9895 32.9505C23.0026 32.6616 23.0289 32.3726 23.0289 32.0968C23.0289 32.0049 23.0551 31.9393 23.1471 31.8867C24.2108 32.6747 25.2746 33.4495 26.3252 34.2375C26.4434 34.3294 26.5748 34.3951 26.6667 34.5133C25.6817 35.472 24.6836 36.4307 23.6986 37.3894C23.436 37.6521 23.1208 37.8622 22.7005 37.8097Z" fill="#B1C8DB"/>
</svg>
