<svg width="550" height="243" viewBox="0 0 550 243" fill="none" xmlns="http://www.w3.org/2000/svg">
<path d="M542.806 242.002H7.19395C3.20356 242.002 0 238.843 0 235.032V193.482C0 189.616 3.25976 186.512 7.19395 186.512H542.806C546.796 186.512 550 189.67 550 193.482V235.032C550 238.843 546.796 242.002 542.806 242.002Z" fill="#35324B"/>
<path d="M512.007 161.515H470.529C462.099 161.515 455.579 154.272 456.76 146.159L468.562 64.3663C461.986 58.4307 457.827 49.9901 457.827 40.6237C457.827 22.7078 472.777 8.22266 491.268 8.22266C494.64 8.22266 497.9 8.71276 500.991 9.6385C514.705 13.6682 524.709 26.0296 524.709 40.6237C524.709 49.9901 520.55 58.4851 513.974 64.3663L525.777 146.159C526.957 154.272 520.493 161.515 512.007 161.515Z" fill="#2E286B"/>
<path d="M512.007 161.513H489.975C481.545 161.513 475.025 154.271 476.205 146.157L488.008 64.3646C481.432 58.4289 477.329 49.9883 477.329 40.6219C477.329 26.0278 487.334 13.6664 501.047 9.63672C514.76 13.6664 524.765 26.0278 524.765 40.6219C524.765 49.9883 520.605 58.4834 514.03 64.3646L525.832 146.157C526.956 154.271 520.493 161.513 512.007 161.513Z" fill="#A59DEB"/>
<path d="M476.093 93.2261V131.672C476.093 136.845 471.765 141.038 466.426 141.038H460.356C457.546 141.038 455.354 138.805 455.354 136.083V136.028C455.354 130.583 452.263 125.845 447.767 123.34C447.992 122.686 448.104 122.033 448.16 121.271C448.329 117.186 444.957 113.647 440.798 113.429C436.301 113.211 432.592 116.642 432.592 120.998C432.592 121.815 432.704 122.578 432.985 123.34C428.433 125.845 425.398 130.583 425.398 136.028V136.083C425.398 138.805 423.206 141.038 420.396 141.038H414.326C408.987 141.038 404.659 136.845 404.659 131.672V93.2261H476.093Z" fill="#EE6755"/>
<path d="M169.619 59.7383H178.724C183.277 59.7383 187.042 63.3868 187.042 67.7977V109.728C187.042 114.139 183.277 117.788 178.724 117.788H169.619C165.067 117.788 161.301 114.139 161.301 109.728V67.7977C161.301 63.3323 165.067 59.7383 169.619 59.7383Z" fill="#F66F5D"/>
<path d="M100.546 0C58.2818 0 24.0543 39.7526 24.0543 88.7626C24.0543 137.773 58.2818 177.525 100.546 177.525C142.811 177.525 177.038 137.773 177.038 88.7626C177.038 39.7526 142.811 0 100.546 0ZM100.546 154.273C69.3537 154.273 44.0625 124.921 44.0625 88.7626C44.0625 52.6041 69.3537 23.2525 100.546 23.2525C131.739 23.2525 157.03 52.6041 157.03 88.7626C157.03 124.921 131.739 154.273 100.546 154.273Z" fill="#FF9182"/>
<path d="M371.781 209.438C371.781 209.438 380.549 213.794 386.169 216.626C387.349 217.225 386.9 218.967 385.551 218.967C378.132 218.967 366.779 218.967 366.779 218.967V209.438H371.781Z" fill="#072D42"/>
<path d="M385.213 108.092L374.422 211.068H365.317V151.929L369.251 106.84L385.213 108.092Z" fill="#073C59"/>
<path d="M335.698 205.952C338.509 209.709 341.094 216.625 344.354 217.224C342.836 219.511 339.183 219.13 336.822 218.477C334.462 217.823 327.493 209.492 327.493 209.492L331.652 203.828L335.698 205.952Z" fill="#072D42"/>
<path d="M374.423 107.114L366.835 154.708L337.947 207.748H327.437C327.437 207.748 348.401 155.144 353.403 153.292C353.515 145.668 350.986 104.445 350.986 104.445L374.423 107.114Z" fill="#0B4870"/>
<path d="M380.661 40.9531C384.483 43.1858 392.014 78.5821 409.156 84.2455C402.58 89.3643 394.88 86.0425 394.88 86.0425C394.88 86.0425 376.839 57.7255 377.12 52.2255C377.345 46.7254 380.661 40.9531 380.661 40.9531Z" fill="#6758EE"/>
<path d="M364.306 38.0078C358.067 38.6068 351.716 40.7306 350.93 45.4138C350.143 50.097 348.513 110.815 348.513 110.815H385.269C385.269 110.815 384.595 43.1811 382.01 41.493C379.424 39.8048 364.306 38.0078 364.306 38.0078Z" fill="#6758EE"/>
<path d="M215.65 149.699C215.425 150.571 204.972 208.62 204.972 208.62H198.733V149.699H215.65Z" fill="#F7C39F"/>
<path d="M204.971 151.277C201.037 156.886 159.391 177.252 152.815 179.431C148.094 175.837 149.33 175.02 149.33 175.02L189.347 144.634L204.971 151.277Z" fill="#FCD2B1"/>
<path d="M195.922 86.747C190.414 92.5738 188.391 135.703 170.013 142.564C182.377 156.559 218.066 155.797 237.737 153.019C233.016 132.925 217.336 91.049 210.704 86.4203C204.409 83.044 195.922 86.747 195.922 86.747Z" fill="#6758EE"/>
<path d="M249.596 64.2571C251.844 63.0046 259.937 57.8858 265.614 60.4452C263.253 61.3165 259.825 61.0987 258.588 62.2967C260.05 62.7868 261.286 63.0046 262.41 63.8215C260.555 64.0393 259.263 64.0393 257.239 64.366C255.216 65.2373 250.045 66.871 250.045 66.871L249.596 64.2571Z" fill="#FCD2B1"/>
<path d="M211.041 56.7969C215.762 58.5939 223.237 67.6336 228.52 68.8316C233.803 70.0296 250.158 63.2771 251.113 63.1682C251.507 63.8761 252.237 66.49 252.237 66.49C252.237 66.49 234.927 79.9406 222.899 76.2376C210.872 72.5346 212.221 70.193 212.221 70.193L211.041 56.7969Z" fill="#AADBF9"/>
<path d="M202.161 55.1641C196.597 55.9809 189.74 58.4859 188.897 59.7384C187.38 68.3968 190.752 76.8375 195.922 86.8029C202.049 86.9118 206.489 86.9662 210.76 86.4761C212.165 83.2088 214.975 75.3672 216.605 70.9018C216.886 70.085 216.886 69.2137 216.605 68.3968C214.919 63.9314 212.39 56.6888 210.591 56.6888C208.456 56.5799 202.161 55.1641 202.161 55.1641Z" fill="#CCE9FF"/>
<path d="M208.287 51.6772C208.287 51.6772 207.05 57.0139 208.287 58.4842C207.725 60.6079 207.106 62.405 207.106 62.405L201.205 57.0139L202.554 49.4446L208.287 51.6772Z" fill="#FCD2B1"/>
<path d="M213.514 43.1856C215.425 42.5866 216.717 40.6806 216.998 38.7747C217.279 36.8143 216.605 34.8539 215.649 33.1113C214.582 31.2053 212.952 29.3538 210.76 28.9727C209.692 28.7548 208.568 28.9182 207.5 29.0816C204.24 29.5717 200.981 30.0618 197.665 30.5519C194.517 30.9875 191.145 31.5865 188.953 33.7648C186.031 36.6509 186.087 41.4975 183.445 44.6559C181.31 47.2697 177.769 48.3044 174.397 48.9578C171.024 49.6113 167.484 49.938 164.505 51.6806C161.526 53.3688 159.447 56.3094 158.154 59.4678C157.199 61.7005 156.637 64.151 157.199 66.4926C158.154 70.5767 162.425 73.354 166.753 73.953C171.081 74.552 175.408 73.5173 179.623 72.4827C181.815 71.9381 184.12 71.3391 185.693 69.7599C186.986 68.453 187.604 66.7104 188.335 65.0767C192.775 54.8391 202.329 46.7796 213.401 43.9479" fill="#211F2F"/>
<path d="M215.032 42.5883C215.032 47.3259 213.514 52.8259 209.468 52.8259C205.421 52.8259 200.475 49.9398 200.475 42.5883C200.475 37.8507 203.735 33.9844 207.782 33.9844C211.772 33.9844 215.032 37.8507 215.032 42.5883Z" fill="#FFE3CA"/>
<path d="M215.594 35.8864C215.2 37.7379 213.907 39.426 212.109 40.2973C210.648 41.0052 208.905 41.1141 207.275 41.223C204.522 41.3864 201.768 41.5497 199.07 41.7131C198.957 41.7131 198.789 41.7131 198.676 41.6042C198.62 41.4953 198.676 41.3319 198.789 41.223C199.857 39.6983 200.925 38.1735 201.992 36.5943C203.116 34.9606 204.522 33.1636 206.545 32.8369C208.119 32.5646 209.636 33.2181 211.041 33.9804C212.39 34.7428 213.739 35.6141 215.312 35.8864" fill="#211F2F"/>
<path d="M201.201 47.6334C202.176 47.1692 202.423 45.7207 201.752 44.3981C201.082 43.0755 199.747 42.3796 198.772 42.8438C197.797 43.308 197.551 44.7565 198.221 46.0791C198.892 47.4017 200.226 48.0976 201.201 47.6334Z" fill="#FFE3CA"/>
<path d="M201.318 48.4085C201.784 48.4085 202.161 48.0435 202.161 47.5934C202.161 47.1432 201.784 46.7782 201.318 46.7782C200.853 46.7782 200.475 47.1432 200.475 47.5934C200.475 48.0435 200.853 48.4085 201.318 48.4085Z" fill="#FFBE55"/>
<path d="M152.815 179.486C152.815 179.486 150.286 193.699 150.173 196.367C146.801 192.447 146.295 179.214 144.665 178.451C143.035 177.689 149.274 175.13 149.274 175.13L152.815 179.486Z" fill="#0B4870"/>
<path d="M204.971 208.621C204.971 208.621 216.774 213.958 219.359 214.829C214.526 216.898 200.7 213.468 199.463 214.775C198.283 216.082 198.733 207.75 198.733 207.75L204.971 208.621Z" fill="#0B4870"/>
<path d="M359.304 15.1284C356.494 18.6136 357.674 27.2176 358.349 28.4701C359.023 29.7226 359.248 32.3365 360.99 33.3711C362.732 34.4058 365.43 34.9503 365.486 34.3513C365.542 33.7523 365.992 16.8166 365.992 16.8166L359.304 15.1284Z" fill="#211F2F"/>
<path d="M370.264 34.5727C370.264 34.5727 371.444 39.2014 371.781 40.236C370.938 41.5974 370.039 44.4291 370.039 44.4291L363.238 39.746L363.8 31.5776L370.264 34.5727Z" fill="#FCD2B1"/>
<path d="M377.12 25.5921C377.12 30.4386 375.266 36.3743 370.882 36.3743C362.957 36.3743 361.327 30.4386 361.327 25.5921C361.327 20.7455 364.868 16.8247 369.252 16.8247C373.636 16.8247 377.12 20.7455 377.12 25.5921Z" fill="#FFE3CA"/>
<path d="M368.69 22.6457C367.06 23.0814 365.486 23.5715 363.8 23.5715C362.17 23.5715 360.428 23.1358 359.192 21.9378C357.955 20.7398 357.225 18.7249 357.787 17.0368C358.461 14.8586 360.822 13.8239 362.957 13.8239C365.037 13.8239 367.116 14.5863 369.196 14.6952C371.275 14.8041 373.692 14.0962 374.647 12.0269C376.277 13.6061 377.851 15.1853 379.368 16.8734C380.155 17.7447 380.998 18.8883 380.549 20.0319C380.268 20.7398 379.537 21.0665 378.806 21.121C378.132 21.1754 377.401 21.0121 376.727 21.0121C375.434 21.0121 374.142 21.5022 372.961 22.0467C371.781 22.5913 370.826 22.4824 369.477 22.4824L368.69 22.6457Z" fill="#211F2F"/>
<path d="M363.125 22.321C363.406 24.7171 362.844 26.2963 362.339 26.9497C362.226 28.0933 362.339 29.6725 362.339 29.6725H361.102L360.034 21.8854L363.125 22.321Z" fill="#211F2F"/>
<path d="M361.307 29.25C361.942 29.0083 362.09 27.9046 361.637 26.7847C361.183 25.6649 360.3 24.953 359.664 25.1947C359.029 25.4364 358.881 26.5401 359.335 27.66C359.788 28.7798 360.671 29.4917 361.307 29.25Z" fill="#FFE3CA"/>
<path d="M360.821 24.6644L361.608 29.4021L362.114 29.1298L361.777 25.1545L360.821 24.6644Z" fill="#211F2F"/>
<path d="M377.12 63.9863C374.76 63.9863 372.849 62.1348 372.849 59.8477V54.3477H381.392V59.9021C381.392 62.1893 379.481 63.9863 377.12 63.9863Z" fill="#877BF6"/>
<path d="M478.959 100.691H177.038V76.8391H478.959C485.76 76.8391 491.268 82.1758 491.268 88.7649C491.268 95.3541 485.76 100.691 478.959 100.691Z" fill="#F66F5D"/>
<path d="M394.88 98.6226C394.88 98.6226 399.151 103.85 405.84 103.034C412.64 102.326 413.09 100.147 414.101 99.6028C409.718 99.7662 395.892 96.4443 395.892 96.4443L394.88 98.6226Z" fill="#FCD2B1"/>
<path d="M199.238 102.704C201.262 103.63 208.793 104.774 210.704 104.392C212.671 104.011 216.38 101.07 217.111 101.179C214.975 101.125 211.491 103.085 210.76 102.813C210.029 102.541 209.074 102.214 209.074 102.214C209.074 102.214 211.491 100.853 211.21 100.036C210.198 100.471 207.556 101.942 207.556 101.942L198.789 101.07L199.238 102.704Z" fill="#FCD2B1"/>
<path d="M196.372 56.5264C190.639 57.3432 187.211 59.7937 183.895 67.3086C180.579 74.8779 167.54 101.398 206.376 104.937C206.601 103.903 206.489 101.452 206.489 101.452C206.489 101.452 171.587 97.5858 192.382 71.3383L196.372 56.5264Z" fill="#CCE9FF"/>
<path d="M263.984 60.8242C270.448 60.8242 275.731 65.943 275.731 72.2054V105.26C275.731 111.522 270.448 116.641 263.984 116.641C257.521 116.641 252.238 111.522 252.238 105.26V72.2054C252.238 65.943 257.465 60.8242 263.984 60.8242Z" fill="#FF9182"/>
<path d="M354.808 40.6254C350.761 45.7442 350.311 54.1303 352.559 56.4719C354.808 58.8135 384.145 91.8679 394.993 100.744C396.173 99.1105 397.746 96.2788 397.746 96.2788L354.808 40.6254Z" fill="#877BF6"/>
<path d="M44.1194 216.135C53.9548 216.135 58.0576 208.566 59.6875 200.507C61.5422 191.412 60.1933 181.774 60.1933 181.774H28.0454C28.0454 181.774 27.9892 182.155 27.933 182.808C27.3147 188.472 25.4039 216.135 44.1194 216.135Z" fill="#9E96DE"/>
<path d="M28.0454 181.715C28.0454 182.367 35.2394 182.965 44.1194 182.965C52.9994 182.965 60.1934 182.422 60.1934 181.715C60.1934 181.009 52.9994 180.465 44.1194 180.465C35.2394 180.52 28.0454 181.063 28.0454 181.715Z" fill="#847DB8"/>
<path d="M0.618652 95.4062C0.618652 95.4062 17.5357 120.401 27.7084 135.649C37.8811 150.896 40.5227 154.055 41.7591 159.01C42.9956 163.911 44.0634 182.099 44.0634 182.099H44.7941C44.7941 182.099 44.5131 166.688 43.6138 161.461C42.7146 156.451 43.67 154.654 44.4006 149.372C45.1313 144.089 46.0867 135.649 40.5789 129.768C35.071 123.886 36.5323 118.169 34.5652 114.302C32.6543 110.436 17.5919 105.753 15.681 101.777C13.8263 97.7478 5.33969 95.2973 0.618652 95.4062Z" fill="#6758EE"/>
<path d="M0.618652 95.4067C0.618652 95.4067 5.9579 101.288 9.55488 103.248C13.208 105.263 14.8941 103.466 17.6481 108.313C20.4582 113.105 20.5144 115.229 23.0997 117.679C25.6288 120.13 28.6638 120.238 28.8886 125.63C29.1134 131.021 27.6521 135.595 27.6521 135.595C27.6521 135.595 1.6865 96.7137 0.618652 95.4067Z" fill="#4E488C"/>
<path d="M42.7145 182.099H41.9277C41.9277 182.099 41.7029 177.089 39.6796 174.693C38.3869 173.114 32.7666 171.372 27.2026 169.248C24.1676 168.05 21.1327 166.797 18.8284 165.382C12.3651 161.406 6.23899 148.609 5.73316 146.377C5.56455 145.56 5.45215 145.124 5.45215 144.797C5.45215 144.198 5.78936 144.09 6.29519 143.49C6.5762 143.218 7.36304 143.273 8.31848 143.599C11.0724 144.416 13.4329 146.268 14.8942 148.718C16.2431 150.951 18.3788 153.783 21.0203 154.49C25.5727 155.689 25.1793 156.396 26.8654 160.862C28.5514 165.327 32.7666 166.089 38.0497 171.372C43.3889 176.49 42.7145 182.099 42.7145 182.099Z" fill="#6758EE"/>
<path d="M27.2026 169.193C24.1677 167.995 21.1327 166.743 18.8284 165.327C12.3651 161.352 6.23899 148.555 5.73316 146.322C5.56455 145.505 5.45215 145.069 5.45215 144.743C5.45215 144.906 5.78937 146.921 9.10533 148.282C12.5899 149.698 13.2643 149.698 13.714 151.822C14.1636 153.946 14.557 156.233 16.3555 156.668C18.154 157.104 19.3342 155.144 20.7393 158.357C22.2006 161.569 22.875 162.713 24.1677 163.149C25.5166 163.584 26.472 162.931 26.8092 165.436C27.0902 166.852 27.1464 168.322 27.2026 169.193Z" fill="#4E488C"/>
<path d="M48.2785 182.101H49.1777C49.1777 182.101 50.92 151.171 53.3368 148.284C54.9104 146.433 60.0811 143.111 66.6006 140.606C70.1976 139.19 73.7945 137.72 76.4923 136.032C84.1358 131.349 91.386 116.21 92.0042 113.487C92.229 112.562 92.3414 111.963 92.3414 111.581C92.3414 110.873 91.948 110.765 91.3298 110.002C91.0488 109.621 90.0933 109.784 88.9693 110.111C85.6533 111.091 82.8994 113.269 81.1571 116.156C79.5834 118.824 76.9981 122.146 73.9069 122.963C68.5115 124.378 68.9611 125.25 66.994 130.532C65.0269 135.869 60.0249 136.685 53.7302 142.948C47.4917 149.265 48.2785 182.101 48.2785 182.101Z" fill="#6758EE"/>
<path d="M66.6567 140.603C70.2537 139.187 73.8507 137.717 76.5484 136.029C84.192 131.346 91.4421 116.207 92.0604 113.484C92.2852 112.559 92.3976 111.96 92.3976 111.578C92.3976 111.742 92.0042 114.138 88.07 115.772C83.9672 117.405 83.1241 117.405 82.6183 119.965C82.0563 122.47 81.6067 125.192 79.471 125.682C77.3353 126.227 75.9864 123.831 74.2441 127.697C72.558 131.509 71.715 132.816 70.1413 133.361C68.5676 133.905 67.3874 133.088 67.0502 136.084C66.8253 137.826 66.7129 139.569 66.6567 140.603Z" fill="#4E488C"/>
<path d="M44.1194 216.135C53.9548 216.135 58.0576 208.566 59.6875 200.506C50.0768 196.967 37.9933 191.303 27.933 182.808C27.3147 188.471 25.4039 216.135 44.1194 216.135Z" fill="#9E96DE"/>
</svg>
