<svg width="804" height="533" viewBox="0 0 804 533" fill="none" xmlns="http://www.w3.org/2000/svg">
<path opacity="0.5" fill-rule="evenodd" clip-rule="evenodd" d="M44.7657 279.622C88.9796 181.681 177.315 220.224 188.2 185.758C199.086 151.292 227.497 41.6955 342.647 41.6955C457.796 41.6955 440.751 108.714 528.851 79.1103C577.989 62.599 631.857 67.2365 652.294 118.051C666.648 153.741 667.217 185.758 738.157 230.928C809.097 276.099 865.443 477.634 665.645 510.113C465.848 542.591 294.406 539.96 188.2 505.672C81.9943 471.384 0.551762 377.562 44.7657 279.622Z" fill="url(#paint0_linear)"/>
<path fill-rule="evenodd" clip-rule="evenodd" d="M40.1056 512.874C40.8522 512.769 41.6861 512.954 42.4328 512.849H202.107C202.033 506.776 198.569 497.975 193.265 495.003C187.966 492.035 181.085 492.129 175.869 495.233C178.221 482.773 179.923 469.755 176.493 457.542C173.071 445.33 163.319 434.087 150.723 432.58C138.913 431.171 127.444 438.59 120.644 448.347C113.844 458.104 110.794 469.915 107.874 481.441C108.205 475.988 105.501 470.452 101.004 467.355C96.5029 464.257 90.3657 463.713 85.3902 465.966C79.8356 468.482 76.1407 474.049 74.4276 479.902C72.7179 485.759 72.7214 491.954 72.7389 498.052C69.18 489.987 58.8907 485.644 50.6321 488.721C42.37 491.801 37.5167 504.45 40.1056 512.874Z" fill="#F67A49"/>
<path fill-rule="evenodd" clip-rule="evenodd" d="M73.9291 512.875C74.3647 512.813 74.8492 512.927 75.2849 512.861H168.284C168.242 509.341 166.221 504.239 163.136 502.519C160.048 500.799 156.043 500.851 153.004 502.654C154.374 495.43 155.363 487.879 153.37 480.8C151.373 473.722 145.691 467.205 138.354 466.331C131.478 465.512 124.799 469.813 120.836 475.47C116.877 481.126 115.103 487.969 113.398 494.653C113.59 491.493 112.018 488.285 109.397 486.492C106.776 484.695 103.2 484.376 100.304 485.684C97.069 487.144 94.915 490.37 93.9182 493.762C92.9248 497.157 92.9248 500.75 92.9353 504.281C90.8649 499.609 84.8699 497.091 80.06 498.877C75.2466 500.66 72.4199 507.992 73.9291 512.875Z" fill="#FFB201"/>
<path d="M405.481 509.092C406.045 509.092 406.502 509.549 406.502 510.113C406.502 510.658 406.075 511.103 405.537 511.132L405.481 511.133H1.50147C0.937858 511.133 0.480957 510.676 0.480957 510.113C0.480957 509.568 0.907906 509.123 1.44548 509.094L1.50147 509.092H405.481Z" fill="#090E2B"/>
<path d="M442.366 508.946L764.995 509.092C765.559 509.092 766.015 509.55 766.015 510.113C766.015 510.658 765.588 511.103 765.05 511.132L764.994 511.133L442.365 510.987C441.802 510.987 441.345 510.53 441.345 509.966C441.345 509.422 441.773 508.977 442.31 508.948L442.366 508.946Z" fill="#090E2B"/>
<path fill-rule="evenodd" clip-rule="evenodd" d="M376.595 509.925H158.282C141.1 509.925 127.172 495.996 127.172 478.815V31.1102C127.172 13.9285 141.1 0 158.282 0H376.595C393.777 0 407.706 13.9285 407.706 31.1102V478.815C407.706 495.996 393.777 509.925 376.595 509.925Z" fill="#090E2B"/>
<path fill-rule="evenodd" clip-rule="evenodd" d="M368.404 20.9936H335.367V29.5253C335.367 41.1571 325.937 50.5874 314.305 50.5874H220.572C208.94 50.5874 199.51 41.1571 199.51 29.5246V20.9936H166.474C156.362 20.9936 148.165 29.1901 148.165 39.302V470.623C148.165 480.735 156.362 488.931 166.474 488.931H368.404C378.516 488.931 386.712 480.735 386.712 470.623V39.302C386.712 29.1901 378.516 20.9936 368.404 20.9936Z" fill="white"/>
<path fill-rule="evenodd" clip-rule="evenodd" d="M209.073 384.228H182.793C176.523 384.228 171.44 379.146 171.44 372.876V346.596C171.44 340.326 176.523 335.244 182.793 335.244H209.073C215.343 335.244 220.425 340.326 220.425 346.596V372.876C220.425 379.146 215.343 384.228 209.073 384.228Z" stroke="#C7D2F2" stroke-width="5" stroke-linecap="round" stroke-linejoin="round" stroke-dasharray="10 12"/>
<path fill-rule="evenodd" clip-rule="evenodd" d="M209.124 384.298H182.844C176.574 384.298 171.491 379.215 171.491 372.945V346.665C171.491 340.395 176.574 335.313 182.844 335.313H209.124C215.394 335.313 220.476 340.395 220.476 346.665V372.945C220.476 379.215 215.394 384.298 209.124 384.298Z" fill="#A191FF"/>
<path fill-rule="evenodd" clip-rule="evenodd" d="M355.109 234.042H182.938C176.616 234.042 171.491 228.959 171.491 222.689V129.733C171.491 123.463 176.616 118.38 182.938 118.38H355.109C361.431 118.38 366.556 123.463 366.556 129.733V222.689C366.556 228.959 361.431 234.042 355.109 234.042Z" fill="#FFB201"/>
<path fill-rule="evenodd" clip-rule="evenodd" d="M209.124 311.695H182.844C176.574 311.695 171.491 306.612 171.491 300.343V274.063C171.491 267.793 176.574 262.71 182.844 262.71H209.124C215.394 262.71 220.476 267.793 220.476 274.063V300.343C220.476 306.612 215.394 311.695 209.124 311.695Z" fill="#FF0057"/>
<path d="M363.932 262.71H240.012C238.563 262.71 237.388 263.885 237.388 265.334C237.388 266.784 238.563 267.959 240.012 267.959H363.932C365.381 267.959 366.556 266.784 366.556 265.334C366.556 263.885 365.381 262.71 363.932 262.71Z" fill="#E7EAFD"/>
<path d="M363.932 338.812H240.012C238.563 338.812 237.388 339.987 237.388 341.436C237.388 342.885 238.563 344.06 240.012 344.06H363.932C365.381 344.06 366.556 342.885 366.556 341.436C366.556 339.987 365.381 338.812 363.932 338.812Z" fill="#E7EAFD"/>
<path d="M331.567 281.371H240.012C238.563 281.371 237.388 282.546 237.388 283.995C237.388 285.445 238.563 286.62 240.012 286.62H331.567C333.016 286.62 334.191 285.445 334.191 283.995C334.191 282.546 333.016 281.371 331.567 281.371Z" fill="#E7EAFD"/>
<path d="M331.567 357.473H240.012C238.563 357.473 237.388 358.647 237.388 360.097C237.388 361.546 238.563 362.721 240.012 362.721H331.567C333.016 362.721 334.191 361.546 334.191 360.097C334.191 358.647 333.016 357.473 331.567 357.473Z" fill="#E7EAFD"/>
<path d="M309.699 300.032H240.012C238.563 300.032 237.388 301.207 237.388 302.656C237.388 304.106 238.563 305.28 240.012 305.28H309.699C311.148 305.28 312.323 304.106 312.323 302.656C312.323 301.207 311.148 300.032 309.699 300.032Z" fill="#E7EAFD"/>
<path d="M309.699 376.133H240.012C238.563 376.133 237.388 377.308 237.388 378.758C237.388 380.207 238.563 381.382 240.012 381.382H309.699C311.148 381.382 312.323 380.207 312.323 378.758C312.323 377.308 311.148 376.133 309.699 376.133Z" fill="#E7EAFD"/>
<path fill-rule="evenodd" clip-rule="evenodd" d="M451.661 468.855C451.661 468.855 458.523 489.709 459.613 491.336C460.937 493.312 466.25 493.715 466.25 493.715C466.25 493.715 465.908 501.289 460.636 503.255C456.966 504.623 445.642 508.461 446.87 505.516C448.099 502.571 426.329 479.231 426.329 479.231L451.661 468.855Z" fill="#B75858"/>
<path fill-rule="evenodd" clip-rule="evenodd" d="M499.773 492.41C495.738 488.337 483.198 491.4 473.672 492.09C466.648 492.599 463.748 491.383 461.965 492.286C460.302 493.128 465.596 499.09 455.591 502.167C453.122 502.925 450.027 503.44 445.815 502.613C445.132 502.478 445.214 503.014 445.133 505.505C445.088 506.893 447.095 517.926 451.526 520.695C458.903 517.174 464.116 513.02 471.639 510.511C485.275 505.962 491.695 501.704 500.78 495.883C502.157 495.001 500.805 493.452 499.773 492.41Z" fill="#071777"/>
<path fill-rule="evenodd" clip-rule="evenodd" d="M498.686 498.901C480.737 511.496 468.633 511.644 464.456 515.683C462.718 517.364 451.767 523.259 450.227 521.205C449.076 519.67 448.533 517.606 448.834 517.523C450.32 517.113 452.708 517.297 461.328 513.411C472.138 508.285 485.776 505.516 498.841 496.028C500.342 494.937 500.845 493.643 500.845 493.643C500.845 493.643 501.817 494.32 501.777 495.302C501.738 496.283 500.751 497.452 498.686 498.901Z" fill="#FFB201"/>
<path fill-rule="evenodd" clip-rule="evenodd" d="M474.269 495.352C473.184 495.16 473.879 492.462 474.803 491.691C475.965 490.722 477.851 491.489 476.446 491.934C474.817 492.449 475.318 495.537 474.269 495.352Z" fill="#FFB201"/>
<path fill-rule="evenodd" clip-rule="evenodd" d="M479.675 494.75C477.954 493.755 479.495 490.569 481.1 490.568C481.874 490.567 482.207 491.253 481.561 491.223C479.075 492.178 480.869 494.65 479.675 494.75Z" fill="#FFB201"/>
<path fill-rule="evenodd" clip-rule="evenodd" d="M247.414 433.539C247.414 433.539 264.627 422.053 269.987 418.512C275.593 414.808 281.877 438.632 281.877 438.632C281.877 438.632 258.488 444.157 255.737 445.761C254.416 446.531 252.454 449.749 252.454 449.749C252.454 449.749 244.608 446.812 244.24 441.549C243.873 436.286 247.414 433.539 247.414 433.539Z" fill="#B75858"/>
<path fill-rule="evenodd" clip-rule="evenodd" d="M236.994 431.412C235.574 431.543 234.811 430.803 233.115 434.804C231.42 438.805 229.572 446.18 229.042 447.384C226.837 452.393 221.75 458.127 220.669 463.051C216.339 482.764 225.027 485.812 226.145 485.157C229.648 483.104 232.273 476.704 235.1 473.676C240.55 467.84 254.239 449.606 254.548 447.605C249.868 446.263 247.882 442.943 247.616 439.876C247.305 436.286 248.543 434.007 248.079 433.034C247.616 432.061 241.023 431.038 236.994 431.412Z" fill="#071777"/>
<path fill-rule="evenodd" clip-rule="evenodd" d="M244.738 462.099C244.479 462.1 244.271 461.873 244.297 461.616C244.437 457.864 239.008 457.861 239.188 456.784C239.385 455.769 245.612 457.017 245.235 461.492C245.216 461.722 244.963 462.099 244.738 462.099Z" fill="#FFB201"/>
<path fill-rule="evenodd" clip-rule="evenodd" d="M248.355 457.192C248.15 457.192 247.966 457.049 247.922 456.84C247.157 453.592 242.626 453.163 242.82 452.102C243.111 451.157 248.626 453.125 248.788 456.661C248.801 456.938 248.631 457.196 248.355 457.192Z" fill="#FFB201"/>
<path fill-rule="evenodd" clip-rule="evenodd" d="M233.773 443.336C234.545 439.31 236.508 432.405 236.994 431.412C235.574 431.543 233.573 430.096 231.877 434.096C230.182 438.098 229.572 446.18 229.042 447.384C226.837 452.393 220.85 458.943 219.459 463.789C218.149 468.353 217.146 477.092 219.868 482.502C221.696 486.135 225.027 485.812 226.145 485.157C226.581 484.902 227.182 484.454 227.593 484.079C227.233 484.252 226.944 484.379 226.477 484.512C223.939 485.236 221.427 481.774 220.702 475.5C219.977 469.225 221.121 462.98 224.808 457.631C226.925 454.561 233.015 447.291 233.773 443.336Z" fill="#FFB201"/>
<path fill-rule="evenodd" clip-rule="evenodd" d="M401.294 329.585C405.48 297.188 403.201 256.879 403.201 256.879C403.201 256.879 383.418 256.879 343.851 256.879C343.851 256.879 333.572 270.746 335.89 293.266C337.607 309.937 346.116 326.861 354.994 343.077C353.866 348.419 352.598 352.463 351.179 354.499C335.844 376.498 284.896 393.934 265.13 420.143C261.907 424.418 282.935 451.221 286.532 458.187C287.95 460.931 355.622 419.141 379.215 397.345C389.784 433.121 401.499 486.129 413.947 488.885C420.134 490.254 449.512 475.319 454.901 471.841C455.164 468.265 437.103 423.287 417.375 377.219C410.458 361.064 405.245 344.332 401.294 329.585Z" fill="#001386"/>
<path fill-rule="evenodd" clip-rule="evenodd" d="M355.56 343.808C365.394 360.465 373.978 376.906 379.214 396.341C379.541 397.555 379.315 397.882 379.222 397.631C374.598 385.132 369.436 373.937 363.815 362.282C360.818 356.185 358.528 349.483 355.208 343.548C355.119 343.407 355.292 343.467 355.56 343.808Z" fill="#090E2B"/>
<path fill-rule="evenodd" clip-rule="evenodd" d="M385.565 270.645C388.861 278.409 392.43 293.102 394.674 301.315C397.009 310.385 399.312 320.279 401.535 329.41C401.588 329.605 401.423 329.362 401.368 329.148C396.469 312.201 385.991 273.162 385.751 272.303C385.619 271.913 385.405 270.243 385.565 270.645Z" fill="#090E2B"/>
<path fill-rule="evenodd" clip-rule="evenodd" d="M445.799 110.195C445.062 106.532 443.691 102.696 444.271 102.375C444.852 102.054 446.836 102.228 447.616 104.647C450.553 96.4582 451.411 92.7259 454.508 93.9478C456.514 94.7392 459.677 98.4016 459.839 100.347C460.53 108.631 454.38 110.954 454.068 115.062C453.677 120.211 454.508 140.279 454.508 140.279C454.508 140.279 433.387 146.81 435.103 137.378C440.368 126.191 446.344 112.9 445.799 110.195Z" fill="#B75858"/>
<path fill-rule="evenodd" clip-rule="evenodd" d="M366.914 144.039C366.914 144.039 366.501 154.243 366.263 157.639C366.066 160.448 364.223 168.979 364.223 168.979C364.223 168.979 370.09 175.741 379.33 172.703C384.817 170.899 380.168 167.556 380.217 164.205C380.318 157.251 380.421 148.97 380.421 148.97L366.914 144.039Z" fill="#B75858"/>
<path fill-rule="evenodd" clip-rule="evenodd" d="M368.303 168.24C368.303 168.24 372.093 170.787 375.503 171.756C379.303 172.836 381.481 169.528 381.872 168.959C382.745 172.855 400.25 266.122 397.813 270.264C391.052 275.004 361.891 282.199 361.89 276.132L368.303 168.24Z" fill="white"/>
<path fill-rule="evenodd" clip-rule="evenodd" d="M364.88 160.075C364.88 160.075 375.631 170.301 375.485 177.703C375.339 185.105 388.931 281.846 374.463 285.271C369.382 286.474 346.113 290.825 340.162 286.484C334.212 282.143 338.785 251.486 338.785 251.486C338.785 251.486 351.782 172.645 364.88 160.075Z" fill="#A191FF"/>
<path fill-rule="evenodd" clip-rule="evenodd" d="M421.935 164.492C427.804 157.686 431.497 129.076 439.724 130.378C457.117 133.13 461.613 144.094 459.767 154.285C457.533 166.619 442.341 184.326 435.558 188.627C428.73 192.956 399.223 204.501 395.611 201.179C383.055 189.629 380.22 166.206 383.639 164.492C396.418 163.861 416.41 170.898 421.935 164.492Z" fill="#A191FF"/>
<path fill-rule="evenodd" clip-rule="evenodd" d="M386.018 169.003C387.626 170.852 401.046 194.185 401.439 202.89C402.16 218.848 405.627 255.476 413.673 271.194C415.419 274.604 411.287 277.305 406.836 279.778C392.553 287.718 396.594 275.778 393.98 254.298C390.304 224.081 382.245 179.721 382.301 175.381C382.358 171.04 384.409 167.154 386.018 169.003Z" fill="#A191FF"/>
<path fill-rule="evenodd" clip-rule="evenodd" d="M364.223 281.205L364.493 279.886C364.59 279.415 364.197 278.987 363.72 279.044L312.396 285.183C312.089 285.219 311.841 285.454 311.787 285.76L305.334 322.097C305.284 322.38 305.442 322.659 305.711 322.761L309.606 324.233L361.273 320.908C361.541 320.891 361.764 320.696 361.818 320.432L369.744 281.774C369.871 281.154 369.355 280.591 368.728 280.666L364.223 281.205Z" fill="#F66F5D"/>
<path fill-rule="evenodd" clip-rule="evenodd" d="M321.653 280.507C321.653 280.507 327.209 304.748 326.621 309.244C326.034 313.74 323.804 323.549 328.439 324.228C336.641 325.431 339.717 322.581 339.717 322.581C339.717 322.581 339.959 323.395 341.211 323.516C342.665 323.656 345.004 323.503 343.094 321.936C341.287 320.453 340.731 314.858 337.769 311.924C334.595 308.781 341.16 286.037 340.941 278.921C340.72 271.805 321.653 280.507 321.653 280.507Z" fill="#B75858"/>
<path fill-rule="evenodd" clip-rule="evenodd" d="M360.78 163.283C360.78 163.283 346.289 168.543 339.291 178.479C333.888 186.15 326.251 211.74 324 222.309C318.963 245.971 297.043 267.928 317.193 283.146C322.932 287.481 350.222 299.98 350.938 259.046C351.183 245.026 354.782 215.888 357.833 201.798C359.482 194.184 366.264 171.797 366.264 171.797L360.78 163.283Z" fill="#A191FF"/>
<path fill-rule="evenodd" clip-rule="evenodd" d="M366.004 159.201C366.004 159.201 373.226 164.316 374.807 168.835C376.176 172.748 376.777 176.643 375.388 177.862C362.996 177.133 359.558 163.722 359.558 163.722L366.004 159.201Z" fill="#FFB201"/>
<path fill-rule="evenodd" clip-rule="evenodd" d="M380.141 160.367C380.141 160.367 384.539 163.276 385.458 165.386C385.763 166.085 384.69 175.553 381.846 176.099C380.085 176.437 379.731 170.141 379.68 167.51C379.629 164.878 380.141 160.367 380.141 160.367Z" fill="#FFB201"/>
<path fill-rule="evenodd" clip-rule="evenodd" d="M345.922 280.444C349.107 275.274 349.934 269.677 350.185 263.77C350.328 257.873 350.436 251.459 350.789 245.606C351.504 233.507 353.193 221.43 355.732 209.585C356.881 203.715 358.757 197.819 359.169 191.816C359.377 188.781 358.679 185.96 358.8 185.748C358.949 185.486 359.558 189.016 359.558 191.83C359.558 196.872 358.047 201.862 357.093 206.775C355.265 215.65 353.918 224.644 352.924 233.64C351.828 243.578 351.279 253.786 350.88 263.797C350.501 269.798 349.357 276.145 345.59 281.053C345.466 281.213 345.785 280.606 345.922 280.444Z" fill="#090E2B"/>
<path fill-rule="evenodd" clip-rule="evenodd" d="M394.016 181.262C398.07 187.081 400.626 193.646 401.249 200.767C401.266 200.938 401.232 201.317 401.195 201.143C400.048 195.971 398.341 190.864 396.138 186.057C395.409 184.457 394.102 181.849 393.778 181.334C393.454 180.819 393.974 181.204 394.016 181.262Z" fill="#090E2B"/>
<path fill-rule="evenodd" clip-rule="evenodd" d="M357.225 319.276H359.96L367.431 280.799L364.362 280.496L357.225 319.276Z" fill="#E9EFFF"/>
<path fill-rule="evenodd" clip-rule="evenodd" d="M353.801 109.487C349.61 99.0471 352.277 92.1238 361.803 88.7167C376.092 83.6059 387.344 86.2991 388.784 98.3503C391.094 117.68 360.992 127.397 353.801 109.487Z" fill="#090E2B"/>
<path fill-rule="evenodd" clip-rule="evenodd" d="M375.937 145.866C348.835 145.866 326.901 141.264 326.901 122.889C326.901 104.514 342.414 94.5413 371.47 90.2694C400.527 85.9975 421.372 84.9073 421.372 109.182C421.372 127.557 403.04 145.866 375.937 145.866Z" fill="#090E2B"/>
<path fill-rule="evenodd" clip-rule="evenodd" d="M302.327 149.725C314.052 142.176 328.317 146.482 335.907 143.783C348.243 139.397 346.579 125.579 358.202 120.425C361.359 110.458 370.247 105.481 383.368 105.481C403.957 105.481 404.53 122.009 405.035 124.795C406.891 135.03 403.037 154.97 406.93 161.823C413.467 173.329 410.446 180.84 407.037 183.585C403.363 186.543 392.672 183.834 390.352 181.912C385.926 178.245 381.46 176.805 381.46 164.645C379.149 161.097 379.012 160.046 379.534 155.739C380.162 150.557 380.753 145.868 369.598 143.783C370.505 152.744 371.995 158.914 367.825 163.451C363.656 167.987 359.47 167.987 354.328 169.697C343.523 173.291 339.902 203.711 306.937 190.975C289.263 184.373 290.602 157.273 302.327 149.725Z" fill="#E3E4E6"/>
<path fill-rule="evenodd" clip-rule="evenodd" d="M401.768 126.78C404.387 137.514 403.467 144.845 401.13 149.478C398.378 154.931 396.047 157.51 391.232 157.68C381.946 158.006 376.111 154.561 372.83 151.562C369.374 148.404 368.214 144.707 367.256 142.313C367.136 142.013 367.027 141.693 366.928 141.357L367.027 141.332C363.756 142.187 358.202 139.321 358.202 132.593C358.202 129.611 362.931 125.914 366.076 129.405C366.116 128.601 366.154 128.116 366.154 128.116C368.353 119.322 380.846 114.309 388.872 113.211C402.77 111.309 399.15 116.047 401.768 126.78Z" fill="#B75858"/>
<path fill-rule="evenodd" clip-rule="evenodd" d="M365.465 133.259C364.628 131.577 362.61 130.535 360.867 131.712C360.472 131.978 361.004 132.161 361.17 132.142C363.241 131.871 364.063 132.437 364.743 133.614C364.093 133.774 363.443 134.352 363.36 135.006C363.309 135.407 363.448 136.595 363.754 136.22C363.966 135.961 363.499 134.195 365.041 134.356C365.064 134.361 365.085 134.363 365.107 134.365C365.18 134.539 365.76 134.9 366.01 134.597C366.163 134.412 365.848 134.028 365.465 133.259Z" fill="#090E2B"/>
<path fill-rule="evenodd" clip-rule="evenodd" d="M387.115 105.509C378.931 106.101 367.239 114.851 365.358 121.266C365.039 122.353 365.331 128.005 366.027 129.282C366.953 130.982 366.852 134.859 369.612 135.309C374.477 136.101 369.478 128.864 370.216 126.973C372.998 119.843 381.825 124.372 387.115 122.758C394.359 120.548 397.042 118.976 397.228 118.695C398.167 122.303 403.235 129.212 404.99 130.559C405.561 130.996 404.791 123.156 402.959 116.812C401.851 112.973 394.895 104.946 387.115 105.509Z" fill="#E3E4E6"/>
<path fill-rule="evenodd" clip-rule="evenodd" d="M364.595 149.897C361.203 149.897 358.444 147.137 358.444 143.746C358.444 141.953 359.22 140.227 360.579 139.057C360.803 139.285 361.07 139.538 361.269 139.708C360.103 140.713 359.318 142.208 359.318 143.746C359.318 146.655 361.685 149.022 364.595 149.022C367.504 149.022 369.871 146.655 369.871 143.746C369.871 140.837 367.504 138.47 364.595 138.47C364.353 138.47 364.157 138.274 364.157 138.032C364.157 137.79 364.353 137.595 364.595 137.595C367.986 137.595 370.746 140.354 370.746 143.746C370.746 147.137 367.986 149.897 364.595 149.897Z" fill="white"/>
<path fill-rule="evenodd" clip-rule="evenodd" d="M377.617 155.302C376.423 154.59 373.993 153.269 373.509 152.508C373.257 152.111 374.154 152.634 374.618 152.984C375.235 153.449 377.787 154.823 380.936 156.304C381.209 156.433 382.962 157.169 383.005 157.268C383.046 157.36 382.87 157.52 382.663 157.493C381.269 157.307 378.932 156.087 377.617 155.302Z" fill="#090E2B"/>
<path fill-rule="evenodd" clip-rule="evenodd" d="M374.742 125.139C375.26 122.811 382.075 121.995 385.074 123.797C386.111 124.413 388.036 126.106 386.331 127.027C385.881 127.223 385.444 127.023 385.074 126.784C380.986 123.943 374.381 126.761 374.742 125.139Z" fill="#090E2B"/>
<path fill-rule="evenodd" clip-rule="evenodd" d="M380.271 129.347C378.729 129.784 377.407 131.023 377.285 132.05C377.21 132.671 379.645 134.16 381.993 134.276C385.082 134.428 386.639 132.754 386.633 132.22C386.426 130.601 384.562 128.13 380.271 129.347Z" fill="white"/>
<path fill-rule="evenodd" clip-rule="evenodd" d="M385.049 130.267C382.675 128.473 378.997 129.642 377.285 132.05C377.186 132.175 377.215 131.861 377.283 131.718C378.109 129.984 379.6 129.165 381.329 128.808C382.369 128.593 383.338 128.576 384.353 129.03C384.745 129.205 385.438 129.74 385.973 130.344C386.391 130.815 386.742 131.622 386.259 131.336C385.881 131.113 385.364 130.505 385.049 130.267Z" fill="#090E2B"/>
<path fill-rule="evenodd" clip-rule="evenodd" d="M381.963 133.331C383.283 133.331 384.353 132.355 384.353 131.15C384.353 129.946 383.283 128.97 381.963 128.97C380.643 128.97 379.573 129.946 379.573 131.15C379.573 132.355 380.643 133.331 381.963 133.331Z" fill="#090E2B"/>
<path fill-rule="evenodd" clip-rule="evenodd" d="M399.055 124.754C400.032 125.188 401.334 126.628 400.25 126.628C399.167 126.628 396.819 126.321 395.246 126.97C394.696 127.11 394.279 127.379 393.727 127.445C392.471 127.69 391.788 126.185 392.677 125.276C393.68 124.248 397.067 123.761 399.055 124.754Z" fill="#090E2B"/>
<path fill-rule="evenodd" clip-rule="evenodd" d="M397.946 134.194C399.512 133.829 400.684 132.409 400.551 131.348C400.293 129.942 397.586 129.045 396.069 129.812C394.567 130.572 393.627 132.271 393.749 132.942C393.924 133.406 396.346 134.566 397.946 134.194Z" fill="white"/>
<path fill-rule="evenodd" clip-rule="evenodd" d="M396.651 133.427C397.682 133.427 398.518 132.624 398.518 131.634C398.518 130.644 397.929 129.708 396.651 129.841C395.625 129.948 394.782 130.644 394.782 131.634C394.782 132.624 395.619 133.427 396.651 133.427Z" fill="#090E2B"/>
<path fill-rule="evenodd" clip-rule="evenodd" d="M393.805 131.979C394.396 129.77 397.067 128.634 399.18 129.68C399.477 129.835 399.96 130.183 400.322 130.604C400.654 130.992 400.611 131.195 400.475 131.155C400.25 131.087 399.774 130.66 399.387 130.477C397.431 129.549 395.395 130.069 393.905 132.247C393.832 132.36 393.762 132.106 393.805 131.979Z" fill="#090E2B"/>
<path fill-rule="evenodd" clip-rule="evenodd" d="M393.96 140.347C393.676 141.781 391.914 141.921 390.766 141.596C389.833 141.332 389.591 140.788 389.907 140.614C390.421 140.33 392.069 141.12 392.677 140.366C393.761 139.021 390.433 134.077 391.491 134.871C392.888 135.921 394.15 139.39 393.96 140.347Z" fill="#090E2B"/>
<path fill-rule="evenodd" clip-rule="evenodd" d="M394.733 146.249C394.509 146.418 393.984 147.114 393.452 147.556C392.256 148.549 390.312 148.778 389.166 148.549C387.011 148.12 386.079 146.715 385.51 146.33C384.941 145.945 386.01 145.451 386.827 145.524C387.645 145.596 388.194 145.834 389.755 146.505C390.762 146.939 393.04 146.33 393.683 145.945C394.911 145.211 395.279 145.838 394.733 146.249Z" fill="#090E2B"/>
<path fill-rule="evenodd" clip-rule="evenodd" d="M679.417 474.887C679.747 478.045 689.08 498.146 689.08 498.146C694.401 499.373 703.4 493.1 702.371 491.4C701.343 489.699 697.015 469.438 697.015 469.438C697.015 469.438 682.964 472.578 679.417 474.887Z" fill="#FF8282"/>
<path fill-rule="evenodd" clip-rule="evenodd" d="M525.049 454.859C525.049 454.859 514.749 470.233 509.995 475.137C505.602 479.668 519.503 488.39 519.503 488.39L542.085 466.787L525.049 454.859Z" fill="#FF8282"/>
<path fill-rule="evenodd" clip-rule="evenodd" d="M682.81 364.997C688.842 394.594 697.328 457.82 698.661 469.427C688.874 475.302 674.285 481.011 672.838 480.484C672.552 480.38 672.146 477.431 669.144 473.587C666.915 470.732 669.503 467.591 666.884 462.576C665.408 459.752 664.189 459.111 664.222 452.929C664.232 451.13 663.504 445.788 663.035 443.966C658.167 425.042 653.209 403.912 648.575 388.309C641.956 366.022 621.256 330.237 621.256 330.237C621.256 330.237 612.616 357.312 603.472 380.182C586.193 423.397 549.199 473.197 546.013 475.959C544.326 477.421 521.814 462.739 520.508 454.252C525.058 447.502 522.855 447.318 525.884 442.268C527.453 439.651 529.934 439.68 531.411 435.296C532.794 431.189 532.697 428.834 536.829 425.028C542.208 420.073 545.311 411.771 547.122 408.271C556.57 390.011 565.352 369.725 567.917 353.104C577.504 290.965 575.926 278.127 595.24 257.002C614.703 256.32 631.57 256.595 646.474 257.002C646.881 266.468 676.316 333.133 682.81 364.997Z" fill="#090E2B"/>
<path fill-rule="evenodd" clip-rule="evenodd" d="M541.406 505.444C539.874 498.701 532.536 497.927 528.075 491.486C526.815 489.668 528.189 485.713 525.736 484.281C522.164 482.197 522.002 487.985 515.904 481.815C514.29 480.182 514.841 477.014 512.12 474.625C511.678 474.237 510.926 472.586 508.342 474.248C506.901 475.174 498.767 480.662 498.636 484.508C507.979 493.419 514.624 501.715 521.733 505.367C526.913 508.028 530.77 508.892 540.37 509.606C542.449 509.761 541.803 507.19 541.406 505.444Z" fill="#090E2B"/>
<path fill-rule="evenodd" clip-rule="evenodd" d="M535.708 510.798C526.099 510.798 522.21 508.656 516.152 504.107C511.098 500.312 506.293 495.192 502.438 491.394C495.849 484.901 496.971 483.354 497.87 482.286C499.782 480.014 501.123 479.383 501.843 479.318C506.858 478.867 507.438 487.79 506.803 491.142C511.688 496.339 515.355 500.621 519.752 503.567C525.894 507.682 529.714 508.367 541.415 509.32C540.576 511.059 538.198 510.798 535.708 510.798Z" fill="#FFB201"/>
<path fill-rule="evenodd" clip-rule="evenodd" d="M523.104 494.694C522.935 495.173 527.169 493.625 529.493 494.011C529.565 494.023 527.84 494.883 526.974 496.05C526.536 496.642 526.374 496.996 527.02 496.81C530.814 495.716 531.884 496.193 532.344 496.101C533.713 495.827 531.604 494.83 528.655 495.498C529.37 495.043 530.495 494.292 530.302 493.821C529.643 492.215 523.398 493.859 523.104 494.694Z" fill="#FFB201"/>
<path fill-rule="evenodd" clip-rule="evenodd" d="M625.002 320.668C624.154 323.72 622.938 327.675 621.961 330.003C621.524 331.044 621.459 330.539 621.394 330.425C622.722 324.014 624.649 317.6 626.381 311.258C628.085 305.863 629.325 296.979 632.182 292.451C629.242 301.056 627.489 311.714 625.002 320.668Z" fill="white"/>
<path fill-rule="evenodd" clip-rule="evenodd" d="M735.002 489.932C731.853 485.874 720.075 486.735 711.531 487.25C708.655 487.424 703.636 484.926 701.971 485.586C699.546 486.547 703.821 490.809 695.46 493.353C693.246 494.027 692.251 491.781 687.343 492.978C686.546 493.172 685.32 493.45 684.978 495.655C684.788 496.885 685.852 506.969 689.494 509.911C705.516 504.531 721.692 498.164 735.744 492.885C737.116 492.37 735.808 490.97 735.002 489.932Z" fill="#090E2B"/>
<path fill-rule="evenodd" clip-rule="evenodd" d="M733.333 495.585L695.283 510.237C692.759 511.275 688.605 511.793 687.457 509.799C686.6 508.31 685.952 504.623 685.996 504.346C686.302 502.415 694.399 500.995 698.591 505.606C712.946 501.554 736.368 491.846 736.368 491.846C736.368 491.846 737.494 493.819 733.333 495.585Z" fill="#FFB201"/>
<path fill-rule="evenodd" clip-rule="evenodd" d="M714.329 489.982C714.592 487.542 714.906 487.02 714.354 486.853C713.031 486.453 708.634 490.784 708.742 492.366C708.822 493.553 711.202 489.166 713.838 487.679C713.075 489.158 713.188 492.794 714.082 491.735C718.442 486.572 719.579 486.986 719.543 486.866C719.372 486.297 717.122 486.607 714.329 489.982Z" fill="#FFB201"/>
<path fill-rule="evenodd" clip-rule="evenodd" d="M529.839 456.025C535.91 461.796 542.348 467.193 549.374 471.77C541.871 469.509 534.98 461.602 529.839 456.025Z" fill="#FFB201"/>
<path fill-rule="evenodd" clip-rule="evenodd" d="M697.786 462.44C695.504 464.445 692.38 465.361 689.728 466.782C687.088 468.087 683.942 469.84 681.167 470.021C684.392 467.95 688.025 466.742 691.445 465.066C693.432 464.294 695.774 462.456 697.786 462.44Z" fill="#FFB201"/>
<path fill-rule="evenodd" clip-rule="evenodd" d="M635.681 160.367C639.733 162.677 645.916 167.476 649.594 178.693C652.685 188.12 659.756 201.731 659.985 203.1C663.639 204.467 678.251 211.757 678.251 211.757C678.251 211.757 668.181 228.013 667.351 228.013C666.521 228.013 661.609 227.76 656.852 227.386C641.322 226.164 640.525 215.521 639.755 211.18C637.262 197.131 636.844 161.877 635.681 160.367Z" fill="#F66F5D"/>
<path fill-rule="evenodd" clip-rule="evenodd" d="M611.678 138.499C611.678 138.499 615.045 155.207 612.781 156.943C611.651 157.809 606.814 159.086 606.814 159.086C606.814 159.086 618.724 168.569 626.004 168.813C633.284 169.057 638.149 164.627 637.343 163.021C636.136 160.617 627.608 158.471 627.289 156.332C626.926 153.892 627.085 143.215 627.085 143.215L611.678 138.499Z" fill="#FF8282"/>
<path fill-rule="evenodd" clip-rule="evenodd" d="M610.022 160.1C610.022 160.1 623.184 168.6 627.222 167.571C629.985 166.867 629.652 161.133 629.961 158.618C632.505 158.865 637.676 161.492 639.505 165.302C641.933 170.356 642.192 181.534 643.926 190.519C647.801 210.593 643.712 253.38 643.712 253.38C643.712 253.38 622.002 263.714 616.194 258.725C613.207 256.161 620.794 242.602 621.389 220.786C621.985 198.969 622.717 192.116 620.481 184.818C618.245 177.521 610.022 160.1 610.022 160.1Z" fill="white"/>
<path fill-rule="evenodd" clip-rule="evenodd" d="M607.182 158.618C602.496 159.568 589.589 162.882 589.195 166.395C588.851 169.472 585.485 207.754 590.031 213.489C595.474 220.357 586.899 241.355 583.435 246.956C577.409 256.701 567.223 264.747 578.994 264.536C591.255 264.316 623.068 281.061 623.068 258.42C623.068 233.87 626.324 210.104 626.35 200.755C626.437 168.817 612.086 160.846 607.182 158.618Z" fill="#F66F5D"/>
<path fill-rule="evenodd" clip-rule="evenodd" d="M636.143 160.666C639.922 163.003 649.876 178.134 647.946 192.406C646.734 201.372 645.658 230.894 648.151 240.929C650.644 250.964 654.98 259.364 654.924 264.894C654.899 267.413 645.043 268.681 642.166 267.531C635.34 264.801 635.979 258.354 636.959 245.49C639.266 215.202 639.2 163.561 629.849 158.618C632.095 158.701 635.098 160.02 636.143 160.666Z" fill="#F66F5D"/>
<path fill-rule="evenodd" clip-rule="evenodd" d="M641.718 172.769C644.537 178.196 647.569 183.915 647.846 190.077C648.197 197.851 647.307 206.734 647.035 214.525C646.955 216.56 646.88 218.596 646.876 220.63C646.88 220.749 646.677 220.759 646.678 220.632C646.484 211.154 647.667 199.594 647.236 190.103C646.96 184.037 643.972 178.163 641.518 172.638C641.476 172.56 641.674 172.684 641.718 172.769Z" fill="#090E2B"/>
<path fill-rule="evenodd" clip-rule="evenodd" d="M669.028 216.316L634.146 219.27C633.551 219.319 631.681 220.1 631.617 220.694C631.617 220.694 631.341 222.223 632.951 222.223H669.028V216.316Z" fill="white"/>
<path fill-rule="evenodd" clip-rule="evenodd" d="M716.572 222.223H661.959L677.027 182.202C677.942 179.943 679.879 177.684 682.935 177.684L728.593 177.719C733.501 177.683 734.117 179.504 733.062 182.374C730.022 190.637 722.204 213.774 719.516 220.257C719.022 221.448 717.861 222.223 716.572 222.223Z" fill="white"/>
<path fill-rule="evenodd" clip-rule="evenodd" d="M728.351 177.416C715.744 177.386 698.252 177.36 685.613 177.329C681.208 177.055 678.474 177.801 676.65 182.152C672.579 192.998 667.869 205.66 663.922 216.592L635.92 219.119C638.579 218.906 664.074 217.069 664.148 216.835C668.632 205.655 673.345 192.536 677.822 181.391C679.655 178.013 682.187 177.906 685.613 178.044L695.111 178.039C701.324 178.069 717.605 177.98 723.604 178.023C725.762 178.274 732.562 177.077 733.153 179.841C733.263 182.467 731.654 185.089 730.888 187.603C730.195 189.874 727.76 196.571 727.76 196.571C725.269 203.596 722.47 212.042 719.821 218.938C718.825 222.089 717.503 222.12 714.541 222.045C713.042 222.056 709.14 222.22 707.599 222.233C707.413 222.236 707.228 222.362 707.418 222.367C710.145 222.332 714.247 222.478 716.934 222.39C718.732 222.289 719.724 220.629 720.206 219.09C723.069 211.706 725.644 204.216 728.273 196.75C729.292 193.664 731.877 186.232 733.024 183.324C734.864 178.665 732.699 177.274 728.351 177.416Z" fill="#090E2B"/>
<path fill-rule="evenodd" clip-rule="evenodd" d="M627.749 219.695C627.642 219.704 627.579 219.709 627.576 219.71L627.749 219.695Z" fill="black"/>
<path fill-rule="evenodd" clip-rule="evenodd" d="M689.622 222.116H699.344C702.792 222.179 700.988 215.128 704.755 215.814C707.971 216.399 707.825 218.285 707.492 222.088C708.143 221.274 709.38 221.006 709.804 221.282C710.41 221.678 709.732 221.795 708.709 223.434C707.527 225.329 704.166 227.101 700.16 227.437C698.954 227.538 692.027 228.596 692.027 228.596L689.622 222.116Z" fill="#FF8282"/>
<path fill-rule="evenodd" clip-rule="evenodd" d="M632.906 218.619C632.906 218.619 635.608 216.694 637.926 216.966C641.017 217.328 641.264 215.934 642.054 217.149C642.228 217.416 641.683 218.273 640.251 218.591C638.318 219.021 639.128 220.213 639.128 220.213C639.128 220.213 645.841 221.814 646.785 221.983C647.306 222.076 647.447 223.559 643.505 224.729C641.449 225.339 638.511 225.355 635.048 225.472C634.085 225.505 623.006 228.887 623.006 228.887L622.323 223.367L621.977 217.631L632.906 218.619Z" fill="#FF8282"/>
<path fill-rule="evenodd" clip-rule="evenodd" d="M667.462 228.02C667.462 228.02 695.281 229.144 697.014 228.833C698.747 228.522 695.236 222.181 695.236 222.181H670.1L667.462 228.02Z" fill="#F66F5D"/>
<path fill-rule="evenodd" clip-rule="evenodd" d="M699.878 200.609H699.873C698.63 200.609 698.084 200.087 697.869 199.775C697.709 199.543 697.767 199.225 698 199.065C698.231 198.905 698.549 198.964 698.709 199.196C698.881 199.445 699.306 199.589 699.874 199.589H699.877C700.749 199.589 701.357 199.26 701.643 199.065C701.875 198.905 702.193 198.964 702.352 199.196C702.511 199.429 702.452 199.746 702.22 199.906C701.56 200.359 700.728 200.609 699.878 200.609Z" fill="#090E2B"/>
<path fill-rule="evenodd" clip-rule="evenodd" d="M696.363 201.421C695.67 203.227 693.652 204.692 691.856 204.692C690.059 204.692 689.164 203.227 689.856 201.421C690.548 199.614 692.566 198.15 694.363 198.15C696.16 198.15 697.055 199.614 696.363 201.421Z" fill="#FF00A4"/>
<path fill-rule="evenodd" clip-rule="evenodd" d="M709.154 201.421C708.461 203.227 706.443 204.692 704.647 204.692C702.85 204.692 701.955 203.227 702.647 201.421C703.34 199.614 705.357 198.15 707.154 198.15C708.951 198.15 709.846 199.614 709.154 201.421Z" fill="#FF00A4"/>
<path fill-rule="evenodd" clip-rule="evenodd" d="M697.472 197.091C697.29 197.567 696.759 197.952 696.286 197.952C695.813 197.952 695.578 197.567 695.76 197.091C695.942 196.616 696.473 196.231 696.946 196.231C697.418 196.231 697.654 196.616 697.472 197.091Z" fill="#090E2B"/>
<path fill-rule="evenodd" clip-rule="evenodd" d="M706.496 197.091C706.314 197.567 705.783 197.952 705.311 197.952C704.838 197.952 704.602 197.567 704.784 197.091C704.967 196.616 705.497 196.231 705.97 196.231C706.443 196.231 706.678 196.616 706.496 197.091Z" fill="#090E2B"/>
<path fill-rule="evenodd" clip-rule="evenodd" d="M606.82 193.365C604.345 199.891 590.596 214.463 590.596 214.463C590.596 214.463 622.759 217.8 627.51 217.8C627.621 219.47 626.221 232.148 626.221 232.148C612.224 234.131 567.788 239.866 564.269 228.122C556.937 203.652 585.706 170.262 589.4 165.747C594.573 159.422 610.131 184.638 606.82 193.365Z" fill="#F66F5D"/>
<path fill-rule="evenodd" clip-rule="evenodd" d="M627.433 217.643C615.084 217.056 603.832 215.008 591.453 213.919C595.813 209.251 600.051 204.445 603.688 199.191C604.935 197.337 606.068 195.496 606.81 193.374C606.833 193.306 607.01 192.756 606.943 192.732C604.053 198.622 599.305 204.271 594.811 209.173C593.302 210.802 591.764 212.413 590.197 213.978C589.937 214.222 589.581 214.658 590.479 214.718C599.97 215.35 609.473 216.534 618.944 217.417C622.118 217.649 623.781 217.796 626.973 217.808C627.486 217.81 627.627 217.638 627.433 217.643Z" fill="#090E2B"/>
<path fill-rule="evenodd" clip-rule="evenodd" d="M626.35 232.095C613.782 233.829 601.53 235.521 588.832 235.13C588.609 235.108 588.818 235.32 589.062 235.344C597.795 236.291 616.765 234.28 619.618 233.73C624.937 232.704 626.122 232.453 626.35 232.095Z" fill="#090E2B"/>
<path fill-rule="evenodd" clip-rule="evenodd" d="M640.143 104.495C640.143 104.495 652.395 112.118 650.25 127.14C648.892 136.649 653.221 138.971 650.25 149.984C648.892 155.02 646.161 159.822 640.611 160.913C636.418 161.738 626.2 159.825 618.816 155.02C614.612 152.283 612.558 148.448 610.85 143.009C606.041 142.604 600.46 135.005 604.643 131.935C605.623 131.216 606.61 130.951 607.656 131.103C606.044 123.844 606.309 121.074 606.309 117.815C606.309 113.288 600.843 107.857 611.185 106.693C621.527 105.529 637.971 101.595 640.143 104.495Z" fill="#FF8282"/>
<path fill-rule="evenodd" clip-rule="evenodd" d="M606.113 135.543C607.467 133.838 609.822 134.774 610.875 136.329C611.356 137.041 611.538 138.367 611.283 138.659C611.222 138.729 611.06 138.198 610.949 137.986C609.945 136.05 608.96 135.119 606.307 135.833C606.144 135.874 606.01 135.676 606.113 135.543Z" fill="#090E2B"/>
<path fill-rule="evenodd" clip-rule="evenodd" d="M610.599 137.473C609.049 137.517 609.706 140.169 609.147 139.443C608.863 138.33 609.272 136.877 610.57 136.676C611.16 136.573 611.195 137.532 610.599 137.473Z" fill="#090E2B"/>
<path fill-rule="evenodd" clip-rule="evenodd" d="M628.689 160.183C625.956 159.629 624.145 158.501 621.7 157.266C621.555 157.184 618.936 155.471 618.848 155.23C618.736 154.922 618.983 155.106 619.168 155.23C621.322 156.676 626.966 158.812 630.39 159.772C630.537 159.796 631.469 160.18 630.988 160.273C630.806 160.308 629.775 160.403 628.689 160.183Z" fill="#090E2B"/>
<path fill-rule="evenodd" clip-rule="evenodd" d="M617.017 138.783C617.955 136.766 616.92 132.352 615.374 128.878C614.625 127.193 613.057 114.954 618.989 115.482C625.076 116.025 627.665 116.924 633.466 116.808C637.139 116.734 643.66 113.714 643.759 112.679C645.233 113.528 649.101 114.29 650.377 121.214C652.842 118.54 652.593 114.817 651.973 111.308C651.042 106.044 645.026 105.612 644.336 105.526C645.124 103.542 643.329 98.9929 641.157 96.8982C639.625 95.4214 635.236 90.5769 628.597 91.3455C624.94 91.7688 623.737 95.8634 623.737 95.8634C622.259 94.9146 616.648 94.4895 612.945 95.8669C606.756 98.1689 611.318 102.075 612.008 102.851C610.333 103.283 604.261 106.382 601.768 111.308C598.536 117.698 600.701 123.945 603.738 127.958C606.775 131.971 608.399 130.546 611.737 133.448C613.671 136.19 616.147 140.655 617.017 138.783Z" fill="#090E2B"/>
<path fill-rule="evenodd" clip-rule="evenodd" d="M622.291 125.139C622.808 122.811 629.623 121.995 632.622 123.797C633.659 124.413 635.585 126.106 633.88 127.027C633.43 127.223 632.992 127.023 632.622 126.784C628.535 123.943 621.93 126.761 622.291 125.139Z" fill="#090E2B"/>
<path fill-rule="evenodd" clip-rule="evenodd" d="M627.82 129.347C626.278 129.784 624.956 131.023 624.833 132.05C624.759 132.671 627.194 134.16 629.542 134.276C632.631 134.428 634.188 132.754 634.182 132.22C633.974 130.601 632.111 128.13 627.82 129.347Z" fill="white"/>
<path fill-rule="evenodd" clip-rule="evenodd" d="M632.598 130.267C630.223 128.473 626.546 129.642 624.833 132.05C624.735 132.175 624.763 131.861 624.831 131.718C625.658 129.984 627.149 129.165 628.877 128.808C629.917 128.593 630.887 128.576 631.901 129.03C632.293 129.205 632.986 129.74 633.522 130.344C633.939 130.815 634.291 131.622 633.808 131.336C633.429 131.113 632.913 130.505 632.598 130.267Z" fill="#090E2B"/>
<path fill-rule="evenodd" clip-rule="evenodd" d="M629.511 133.331C630.831 133.331 631.901 132.355 631.901 131.15C631.901 129.946 630.831 128.97 629.511 128.97C628.191 128.97 627.121 129.946 627.121 131.15C627.121 132.355 628.191 133.331 629.511 133.331Z" fill="#090E2B"/>
<path fill-rule="evenodd" clip-rule="evenodd" d="M646.603 124.754C647.581 125.188 648.883 126.628 647.799 126.628C646.715 126.628 644.368 126.321 642.794 126.97C642.245 127.11 641.828 127.379 641.276 127.445C640.02 127.69 639.337 126.185 640.225 125.276C641.229 124.248 644.616 123.761 646.603 124.754Z" fill="#090E2B"/>
<path fill-rule="evenodd" clip-rule="evenodd" d="M645.495 134.194C647.061 133.829 648.232 132.409 648.1 131.348C647.842 129.942 645.134 129.045 643.618 129.812C642.116 130.572 641.176 132.271 641.298 132.942C641.473 133.406 643.895 134.566 645.495 134.194Z" fill="white"/>
<path fill-rule="evenodd" clip-rule="evenodd" d="M644.199 133.427C645.231 133.427 646.067 132.624 646.067 131.634C646.067 130.644 645.478 129.708 644.199 129.841C643.173 129.948 642.331 130.644 642.331 131.634C642.331 132.624 643.168 133.427 644.199 133.427Z" fill="#090E2B"/>
<path fill-rule="evenodd" clip-rule="evenodd" d="M641.353 131.979C641.945 129.77 644.616 128.634 646.729 129.68C647.026 129.835 647.509 130.183 647.87 130.604C648.203 130.992 648.16 131.195 648.024 131.155C647.799 131.087 647.322 130.66 646.936 130.477C644.979 129.549 642.944 130.069 641.453 132.247C641.38 132.36 641.311 132.106 641.353 131.979Z" fill="#090E2B"/>
<path fill-rule="evenodd" clip-rule="evenodd" d="M642.321 145.747C639.822 146.039 641.847 148.816 640.553 149.185C637.238 150.129 633.64 148.983 633.059 146.039C632.716 144.301 633.74 144.511 634.558 144.584C635.375 144.656 639.414 144.805 641.584 144.805C643.687 144.805 642.63 145.711 642.321 145.747Z" fill="#090E2B"/>
<path fill-rule="evenodd" clip-rule="evenodd" d="M639.33 136.18C639.444 136.18 640.197 137.469 640.473 137.922C641.353 139.364 642.323 140.979 640.891 141.907C640.198 142.357 638.017 141.66 638.017 141.13C638.017 140.325 640.007 141.741 640.476 140.923C640.75 140.507 639.722 138.395 639.33 137.143C639.112 136.444 639.217 136.18 639.33 136.18Z" fill="#090E2B"/>
<path fill-rule="evenodd" clip-rule="evenodd" d="M629.136 148.777C632.47 144.052 635.498 142.982 637.976 142.287C642.311 141.07 645.92 141.858 647.63 145.178C650.085 142.892 648.877 138.712 649.968 138.955C651.609 139.32 651.311 149.888 650.287 154.914C649.263 159.939 648.08 168.995 642.44 169.818C637.187 170.584 629.562 168.908 623.357 161.954C616.007 153.717 614.772 140.656 615.27 134.087C615.562 130.245 616.833 133.528 617.115 134.087C619.132 138.078 625.245 154.292 629.136 148.777Z" fill="#090E2B"/>
<path fill-rule="evenodd" clip-rule="evenodd" d="M640.66 145.179C643.849 144.683 645.346 145.517 645.788 145.964C647 147.193 646.805 149.913 644.656 149.913C643.608 149.913 642.485 148.011 641.039 148.524C638.688 149.357 638.478 150.818 637.426 151.188C636.327 151.576 635.169 151.701 635.168 149.761C635.168 147.903 637.47 145.676 640.66 145.179Z" fill="#FF8282"/>
<path fill-rule="evenodd" clip-rule="evenodd" d="M637.537 148.428C638.062 148.325 638.583 148.256 639.103 148.193C640.814 147.984 641.833 147.85 642.161 147.79C642.648 147.698 643.942 147.341 644.03 147.514C644.099 147.649 644.072 147.807 643.975 147.912C643.521 148.405 642.96 148.627 642.427 148.81C641.887 148.987 640.79 149.389 639.164 149.267C637.537 149.146 637.217 148.904 637.254 148.712C637.281 148.565 637.395 148.456 637.533 148.429L637.537 148.428Z" fill="#090E2B"/>
<path fill-rule="evenodd" clip-rule="evenodd" d="M636.263 132.081C636.187 136.766 632.366 140.54 627.663 140.54C622.912 140.54 619.061 136.689 619.061 131.939C619.061 127.188 622.912 123.337 627.663 123.337C632.365 123.337 636.187 127.111 636.263 131.796L636.264 131.939L636.263 132.081ZM635.097 131.816C635.031 127.766 631.728 124.503 627.663 124.503C623.556 124.503 620.227 127.832 620.227 131.939C620.227 136.045 623.556 139.374 627.663 139.374C631.728 139.374 635.031 136.111 635.097 132.061L635.098 131.939L635.097 131.816Z" fill="#090E2B"/>
<path fill-rule="evenodd" clip-rule="evenodd" d="M653.758 130.608C653.689 134.817 650.257 138.207 646.032 138.207C641.765 138.207 638.305 134.748 638.305 130.48C638.305 126.213 641.765 122.754 646.032 122.754C650.257 122.754 653.689 126.144 653.758 130.353L653.759 130.48L653.758 130.608ZM652.592 130.372C652.534 126.799 649.619 123.92 646.032 123.92C642.409 123.92 639.471 126.857 639.471 130.48C639.471 134.104 642.409 137.041 646.032 137.041C649.619 137.041 652.534 134.162 652.592 130.589L652.592 130.48L652.592 130.372Z" fill="#090E2B"/>
<path fill-rule="evenodd" clip-rule="evenodd" d="M639.138 127.263C639.451 127.339 639.645 127.674 639.57 128.012C639.496 128.35 639.181 128.563 638.867 128.487C637.692 128.202 636.046 128.603 635.485 128.745C634.924 128.888 634.69 128.718 634.591 128.39C634.492 128.062 634.68 127.659 634.987 127.548C635.293 127.437 637.792 126.937 639.138 127.263Z" fill="#090E2B"/>
<path d="M186 162.345V192.828H201.4V162.345H186Z" fill="#F66F5D"/>
<path d="M198.094 185.849C198.094 186.458 197.976 187.013 197.739 187.513C197.494 188.006 197.169 188.432 196.766 188.791C196.363 189.143 195.909 189.417 195.403 189.612C194.889 189.807 194.363 189.905 193.826 189.905C193.264 189.905 192.731 189.804 192.225 189.6C191.711 189.389 191.257 189.104 190.861 188.745C190.458 188.377 190.142 187.947 189.913 187.455C189.676 186.955 189.557 186.407 189.557 185.813C189.557 185.212 189.68 184.665 189.925 184.172C190.17 183.672 190.498 183.246 190.909 182.894C191.32 182.542 191.778 182.269 192.284 182.073C192.79 181.878 193.312 181.78 193.849 181.78C194.403 181.78 194.936 181.882 195.45 182.085C195.956 182.288 196.411 182.574 196.814 182.941C197.209 183.301 197.521 183.73 197.751 184.231C197.98 184.723 198.094 185.262 198.094 185.849ZM196.648 185.837C196.648 185.446 196.569 185.098 196.411 184.793C196.245 184.489 196.027 184.235 195.758 184.031C195.482 183.828 195.177 183.676 194.845 183.574C194.506 183.465 194.166 183.41 193.826 183.41C193.462 183.41 193.11 183.469 192.77 183.586C192.431 183.695 192.13 183.856 191.869 184.067C191.608 184.27 191.399 184.524 191.241 184.829C191.083 185.126 191.004 185.462 191.004 185.837C191.004 186.236 191.087 186.587 191.253 186.892C191.411 187.189 191.628 187.439 191.905 187.642C192.174 187.846 192.474 188.002 192.806 188.111C193.138 188.213 193.478 188.264 193.826 188.264C194.189 188.264 194.541 188.209 194.881 188.1C195.221 187.99 195.521 187.834 195.782 187.631C196.043 187.42 196.252 187.166 196.411 186.869C196.569 186.564 196.648 186.22 196.648 185.837ZM194.917 186.001V184.477L198.035 181.733V183.258L194.917 186.001ZM189.616 178.402V176.761L198.035 173.701V175.366L195.936 176.14V179.047L198.035 179.809V181.474L189.616 178.402ZM194.786 176.433L191.312 177.582L194.786 178.778V176.433ZM189.616 171.92L192.723 169.857L189.616 167.805V166.047L193.885 168.931L198.035 166.14V167.899L195.047 169.857L198.035 171.827V173.597L193.885 170.807L189.616 173.691V171.92Z" fill="white"/>
<path d="M204.42 177.07C204.42 175.851 204.638 174.66 205.074 173.497C205.529 172.315 206.184 171.246 207.038 170.289C207.891 169.314 208.935 168.545 210.168 167.982C211.401 167.4 212.805 167.11 214.38 167.11C216.239 167.11 217.842 167.513 219.189 168.319C220.555 169.126 221.57 170.177 222.234 171.471L219.218 173.525C218.876 172.775 218.43 172.184 217.88 171.752C217.33 171.302 216.742 170.993 216.116 170.824C215.49 170.636 214.873 170.542 214.266 170.542C213.279 170.542 212.416 170.739 211.676 171.133C210.955 171.527 210.348 172.043 209.855 172.681C209.362 173.319 208.992 174.031 208.745 174.819C208.518 175.607 208.404 176.395 208.404 177.183C208.404 178.065 208.546 178.918 208.831 179.743C209.115 180.55 209.514 181.272 210.026 181.91C210.557 182.529 211.183 183.026 211.904 183.401C212.644 183.758 213.45 183.936 214.323 183.936C214.949 183.936 215.584 183.833 216.229 183.627C216.875 183.42 217.472 183.092 218.022 182.642C218.572 182.191 218.999 181.61 219.303 180.897L222.519 182.726C222.12 183.72 221.466 184.564 220.555 185.259C219.663 185.953 218.658 186.478 217.539 186.834C216.419 187.191 215.309 187.369 214.209 187.369C212.767 187.369 211.449 187.078 210.253 186.497C209.058 185.896 208.024 185.108 207.152 184.133C206.298 183.139 205.624 182.032 205.131 180.813C204.657 179.575 204.42 178.327 204.42 177.07ZM223.758 182.839C223.758 181.882 224.023 181.047 224.555 180.334C225.105 179.603 225.864 179.04 226.831 178.646C227.799 178.252 228.909 178.055 230.161 178.055C230.787 178.055 231.422 178.102 232.067 178.196C232.712 178.29 233.272 178.44 233.746 178.646V177.858C233.746 176.92 233.462 176.198 232.893 175.692C232.342 175.185 231.517 174.932 230.417 174.932C229.601 174.932 228.823 175.073 228.083 175.354C227.343 175.635 226.566 176.048 225.75 176.592L224.526 174.116C225.513 173.478 226.518 173 227.543 172.681C228.586 172.362 229.677 172.203 230.815 172.203C232.94 172.203 234.591 172.728 235.767 173.778C236.962 174.829 237.56 176.329 237.56 178.28V182.979C237.56 183.373 237.626 183.655 237.759 183.823C237.911 183.992 238.148 184.095 238.47 184.133V187.2C238.129 187.256 237.816 187.303 237.531 187.341C237.266 187.378 237.038 187.397 236.848 187.397C236.089 187.397 235.511 187.228 235.112 186.891C234.733 186.553 234.496 186.14 234.401 185.652L234.315 184.893C233.67 185.718 232.864 186.356 231.897 186.806C230.929 187.256 229.942 187.481 228.937 187.481C227.951 187.481 227.059 187.284 226.262 186.891C225.484 186.478 224.868 185.924 224.412 185.23C223.976 184.517 223.758 183.72 223.758 182.839ZM233.035 183.598C233.244 183.373 233.414 183.148 233.547 182.923C233.68 182.698 233.746 182.492 233.746 182.304V180.813C233.291 180.625 232.798 180.484 232.267 180.391C231.735 180.278 231.233 180.222 230.758 180.222C229.772 180.222 228.956 180.437 228.311 180.869C227.685 181.282 227.372 181.835 227.372 182.529C227.372 182.904 227.476 183.261 227.685 183.598C227.894 183.936 228.197 184.208 228.596 184.414C228.994 184.621 229.468 184.724 230.018 184.724C230.588 184.724 231.147 184.621 231.697 184.414C232.248 184.189 232.693 183.917 233.035 183.598ZM264.287 187.2H260.474V178.927C260.474 177.764 260.265 176.911 259.848 176.367C259.45 175.804 258.89 175.523 258.169 175.523C257.429 175.523 256.718 175.813 256.035 176.395C255.371 176.958 254.896 177.699 254.612 178.618V187.2H250.799V178.927C250.799 177.746 250.59 176.883 250.172 176.339C249.774 175.795 249.214 175.523 248.493 175.523C247.754 175.523 247.042 175.804 246.359 176.367C245.695 176.93 245.221 177.671 244.936 178.59V187.2H241.123V172.456H244.566V175.185C245.135 174.228 245.894 173.497 246.843 172.99C247.791 172.465 248.882 172.203 250.116 172.203C251.349 172.203 252.307 172.503 252.99 173.103C253.692 173.703 254.137 174.444 254.327 175.326C254.934 174.313 255.703 173.544 256.632 173.019C257.581 172.475 258.643 172.203 259.82 172.203C260.749 172.203 261.498 172.371 262.068 172.709C262.656 173.028 263.111 173.469 263.434 174.031C263.756 174.575 263.974 175.195 264.088 175.889C264.221 176.583 264.287 177.286 264.287 177.999V187.2ZM276.543 187.481C275.386 187.481 274.361 187.228 273.469 186.722C272.597 186.196 271.914 185.493 271.42 184.611V193.193H267.607V172.456H270.937V174.988C271.506 174.125 272.227 173.45 273.1 172.962C273.972 172.456 274.969 172.203 276.088 172.203C277.093 172.203 278.013 172.399 278.848 172.793C279.702 173.187 280.441 173.741 281.068 174.453C281.694 175.148 282.178 175.954 282.519 176.873C282.879 177.774 283.06 178.749 283.06 179.8C283.06 181.225 282.775 182.52 282.206 183.683C281.656 184.846 280.887 185.774 279.9 186.468C278.933 187.144 277.814 187.481 276.543 187.481ZM275.263 184.274C275.851 184.274 276.382 184.152 276.856 183.908C277.33 183.664 277.738 183.336 278.08 182.923C278.44 182.492 278.705 182.013 278.877 181.488C279.066 180.944 279.161 180.381 279.161 179.8C279.161 179.181 279.056 178.609 278.848 178.083C278.658 177.558 278.374 177.099 277.995 176.705C277.615 176.292 277.169 175.973 276.657 175.748C276.163 175.523 275.623 175.41 275.035 175.41C274.674 175.41 274.304 175.476 273.925 175.607C273.564 175.72 273.213 175.889 272.872 176.114C272.531 176.339 272.227 176.601 271.961 176.901C271.715 177.202 271.534 177.53 271.42 177.886V181.347C271.648 181.891 271.952 182.388 272.331 182.839C272.729 183.289 273.185 183.645 273.697 183.908C274.21 184.152 274.731 184.274 275.263 184.274Z" fill="white"/>
<defs>
<linearGradient id="paint0_linear" x1="418" y1="41.6955" x2="418" y2="533" gradientUnits="userSpaceOnUse">
<stop stop-color="#E7EAFD"/>
<stop offset="1" stop-color="white" stop-opacity="0"/>
</linearGradient>
</defs>
</svg>
